*
*
G04 PADS VX.1.1 Build Number: 678707 generated Gerber (RS-274-X) file*
G04 PC Version=2.1*
*
%IN "pCO2SensorBoard1_4_3.pc"*%
*
%MOIN*%
*
%FSLAX35Y35*%
*
*
*
*
G04 PC Standard Apertures*
*
*
G04 Thermal Relief Aperture macro.*
%AMTER*
1,1,$1,0,0*
1,0,$1-$2,0,0*
21,0,$3,$4,0,0,45*
21,0,$3,$4,0,0,135*
%
*
*
G04 Annular Aperture macro.*
%AMANN*
1,1,$1,0,0*
1,0,$2,0,0*
%
*
*
G04 Odd Aperture macro.*
%AMODD*
1,1,$1,0,0*
1,0,$1-0.005,0,0*
%
*
*
G04 PC Custom Aperture Macros*
*
*
*
*
*
*
G04 PC Aperture Table*
*
%ADD011C,0.01*%
%ADD016C,0.08*%
%ADD022C,0.06*%
%ADD038C,0.015*%
%ADD065C,0.055*%
%ADD087C,0.001*%
%ADD101O,0.055X0.055*%
%ADD128O,0.08X0.08*%
%ADD298R,0.09843X0.09843*%
%ADD299C,0.033*%
%ADD328O,0.0398X0.04528*%
*
*
*
*
G04 PC Circuitry*
G04 Layer Name pCO2SensorBoard1_4_3.pc - circuitry*
%LPD*%
*
*
G04 PC Custom Flashes*
G04 Layer Name pCO2SensorBoard1_4_3.pc - flashes*
%LPD*%
*
*
G04 PC Circuitry*
G04 Layer Name pCO2SensorBoard1_4_3.pc - circuitry*
%LPD*%
*
G54D11*
G01X136250Y216500D02*
G75*
G03X136250I-2750J0D01*
G01X127750Y163000D02*
G03X127750I-2750J0D01*
G01X119591Y144557D02*
G03X119591I-3561J0D01*
G01Y164243D02*
G03X119591I-3561J0D01*
G01X109750Y195500D02*
G03X109750I-2750J0D01*
G01X489711Y163500D02*
G03X489711I-7711J0D01*
G01Y228500D02*
G03X489711I-7711J0D01*
G01Y282500D02*
G03X489711I-7711J0D01*
G01Y340000D02*
G03X489711I-7711J0D01*
G01X470100Y151700D02*
G03X470100I-5100J0D01*
G01Y163500D02*
G03X470100I-5100J0D01*
G01Y175300D02*
G03X470100I-5100J0D01*
G01X458300Y151700D02*
G03X458300I-5100J0D01*
G01Y163500D02*
G03X458300I-5100J0D01*
G01Y175300D02*
G03X458300I-5100J0D01*
G01X462750Y212000D02*
G03X462750I-2750J0D01*
G01X470100Y222600D02*
G03X470100I-5100J0D01*
G01Y234400D02*
G03X470100I-5100J0D01*
G01Y276600D02*
G03X470100I-5100J0D01*
G01Y288400D02*
G03X470100I-5100J0D01*
G01Y334100D02*
G03X470100I-5100J0D01*
G01Y345900D02*
G03X470100I-5100J0D01*
G01X458300Y222600D02*
G03X458300I-5100J0D01*
G01Y234400D02*
G03X458300I-5100J0D01*
G01Y276600D02*
G03X458300I-5100J0D01*
G01Y288400D02*
G03X458300I-5100J0D01*
G01Y334100D02*
G03X458300I-5100J0D01*
G01Y345900D02*
G03X458300I-5100J0D01*
G01X440250Y198500D02*
G03X440250I-2750J0D01*
G01X443750Y305000D02*
G03X443750I-2750J0D01*
G01X431750Y293500D02*
G03X431750I-2750J0D01*
G01X435250Y303000D02*
G03X435250I-2750J0D01*
G01X416250Y183000D02*
G03X416250I-2750J0D01*
G01X409500Y114400D02*
G03X409500I-4100J0D01*
G01X406250Y180500D02*
G03X406250I-2750J0D01*
G01X412226Y375913D02*
G03X412226I-4100J0D01*
G01X394750Y159000D02*
G03X394750I-2750J0D01*
G01X397750Y286000D02*
G03X397750I-2750J0D01*
G01X388750Y163000D02*
G03X388750I-2750J0D01*
G01X387250Y241000D02*
G03X387250I-2750J0D01*
G01X385250Y308000D02*
G03X385250I-2750J0D01*
G01X373750Y164000D02*
G03X373750I-2750J0D01*
G01X359750Y172500D02*
G03X359750I-2750J0D01*
G01X345250D02*
G03X345250I-2750J0D01*
G01X356750Y214500D02*
G03X356750I-2750J0D01*
G01X344250Y229500D02*
G03X344250I-2750J0D01*
G01X349250Y336000D02*
G03X349250I-2750J0D01*
G01X354750Y338000D02*
G03X354750I-2750J0D01*
G01X341750Y243000D02*
G03X341750I-2750J0D01*
G01X340750Y256500D02*
G03X340750I-2750J0D01*
G01X332750Y171500D02*
G03X332750I-2750J0D01*
G01X330521Y189157D02*
G03X330521I-6021J0D01*
G01X309250Y137000D02*
G03X309250I-2750J0D01*
G01X312250Y154500D02*
G03X312250I-2750J0D01*
G01X312750Y169000D02*
G03X312750I-2750J0D01*
G01X314250Y177500D02*
G03X314250I-2750J0D01*
G01Y183500D02*
G03X314250I-2750J0D01*
G01X315250Y189500D02*
G03X315250I-2750J0D01*
G01X319750Y219500D02*
G03X319750I-2750J0D01*
G01X321750Y261500D02*
G03X321750I-2750J0D01*
G01X310750Y203500D02*
G03X310750I-2750J0D01*
G01X302250Y131500D02*
G03X302250I-2750J0D01*
G01X306250Y210500D02*
G03X306250I-2750J0D01*
G01X310250Y230500D02*
G03X310250I-2750J0D01*
G01X310750Y240500D02*
G03X310750I-2750J0D01*
G01X288250Y132000D02*
G03X288250I-2750J0D01*
G01X292750Y188000D02*
G03X292750I-2750J0D01*
G01X297750Y198500D02*
G03X297750I-2750J0D01*
G01X301750Y291000D02*
G03X301750I-2750J0D01*
G01X298750Y296000D02*
G03X298750I-2750J0D01*
G01X299250Y301500D02*
G03X299250I-2750J0D01*
G01X303750Y357000D02*
G03X303750I-2750J0D01*
G01X286250Y194500D02*
G03X286250I-2750J0D01*
G01X277750Y179000D02*
G03X277750I-2750J0D01*
G01X283250Y216000D02*
G03X283250I-2750J0D01*
G01X286750Y253500D02*
G03X286750I-2750J0D01*
G01X287250Y330500D02*
G03X287250I-2750J0D01*
G01X279750Y224500D02*
G03X279750I-2750J0D01*
G01X284250Y347000D02*
G03X284250I-2750J0D01*
G01X276250Y229500D02*
G03X276250I-2750J0D01*
G01X269250Y144500D02*
G03X269250I-2750J0D01*
G01X273250Y240000D02*
G03X273250I-2750J0D01*
G01X272250Y245500D02*
G03X272250I-2750J0D01*
G01X274250Y275000D02*
G03X274250I-2750J0D01*
G01X272250Y283000D02*
G03X272250I-2750J0D01*
G01X284850Y381500D02*
G03X284850I-3850J0D01*
G01X265750Y328000D02*
G03X265750I-2750J0D01*
G01X261250Y348000D02*
G03X261250I-2750J0D01*
G01X254750Y211500D02*
G03X254750I-2750J0D01*
G01X233250Y132500D02*
G03X233250I-2750J0D01*
G01X236750Y152000D02*
G03X236750I-2750J0D01*
G01X237250Y168500D02*
G03X237250I-2750J0D01*
G01X239250Y183000D02*
G03X239250I-2750J0D01*
G01X244750Y214000D02*
G03X244750I-2750J0D01*
G01X247250Y236000D02*
G03X247250I-2750J0D01*
G01X242250Y254000D02*
G03X242250I-2750J0D01*
G01X234750Y202000D02*
G03X234750I-2750J0D01*
G01X226250Y177500D02*
G03X226250I-2750J0D01*
G01X230750Y214500D02*
G03X230750I-2750J0D01*
G01X216750Y133500D02*
G03X216750I-2750J0D01*
G01X218750Y142000D02*
G03X218750I-2750J0D01*
G01X211750Y193500D02*
G03X211750I-2750J0D01*
G01X220750Y246000D02*
G03X220750I-2750J0D01*
G01X203250Y199500D02*
G03X203250I-2750J0D01*
G01X213750Y239500D02*
G03X213750I-2750J0D01*
G01Y301500D02*
G03X213750I-2750J0D01*
G01X210700Y386200D02*
G03X210700I-4100J0D01*
G01X195750Y249500D02*
G03X195750I-2750J0D01*
G01X189750Y179000D02*
G03X189750I-2750J0D01*
G01X187750Y199000D02*
G03X187750I-2750J0D01*
G01X187250Y220000D02*
G03X187250I-2750J0D01*
G01X187750Y226000D02*
G03X187750I-2750J0D01*
G01X176250Y170000D02*
G03X176250I-2750J0D01*
G01X180250Y175000D02*
G03X180250I-2750J0D01*
G01X173750D02*
G03X173750I-2750J0D01*
G01X172250Y199000D02*
G03X172250I-2750J0D01*
G01X179750Y217000D02*
G03X179750I-2750J0D01*
G01X177250Y268000D02*
G03X177250I-2750J0D01*
G01X178250Y300000D02*
G03X178250I-2750J0D01*
G01X184700Y387000D02*
G03X184700I-4100J0D01*
G01X161250Y157500D02*
G03X161250I-2750J0D01*
G01X162250Y231000D02*
G03X162250I-2750J0D01*
G01Y240200D02*
G03X162250I-3850J0D01*
G01X154350D02*
G03X154350I-3850J0D01*
G01X159750Y298500D02*
G03X159750I-2750J0D01*
G01X151900Y287500D02*
G03X151900I-5100J0D01*
G01Y334100D02*
G03X151900I-5100J0D01*
G01Y345900D02*
G03X151900I-5100J0D01*
G01X159300Y386400D02*
G03X159300I-4100J0D01*
G01X140100Y287500D02*
G03X140100I-5100J0D01*
G01Y334100D02*
G03X140100I-5100J0D01*
G01Y345900D02*
G03X140100I-5100J0D01*
G01X125711Y287500D02*
G03X125711I-7711J0D01*
G01Y340000D02*
G03X125711I-7711J0D01*
G01X256750Y165500D02*
G03X256750I-2750J0D01*
G01X250850Y118000D02*
G03X250850I-3850J0D01*
G01Y125900D02*
G03X250850I-3850J0D01*
G01X264250Y209000D02*
G03X264250I-2750J0D01*
G01X265750Y237500D02*
G03X265750I-2750J0D01*
G01X145000Y131500D02*
Y233500D01*
X102000*
Y170471*
Y165888D02*
G03Y170471I3400J2292D01*
G01Y165888D02*
Y142912D01*
Y138329D02*
G03Y142912I3400J2291D01*
G01Y138329D02*
Y131500D01*
X103029*
X136971D02*
G03X103029I-16971J-11500D01*
G01X136971D02*
X145000D01*
X498000Y129811D02*
Y370189D01*
X470189Y398000D02*
G03X498000Y370189I9811J-18000D01*
G01X470189Y398000D02*
X129811D01*
X102000Y370189D02*
G03X129811Y398000I18000J9811D01*
G01X102000Y370189D02*
Y235500D01*
X148000*
Y129500*
X138166*
X129811Y102000D02*
G03X138166Y129500I-9811J18000D01*
G01X129811Y102000D02*
X470189D01*
X498000Y129811D02*
G03X470189Y102000I-18000J-9811D01*
G01X136250Y216500D02*
G03X136250I-2750J0D01*
G01X127750Y163000D02*
G03X127750I-2750J0D01*
G01X119591Y144557D02*
G03X119591I-3561J0D01*
G01Y164243D02*
G03X119591I-3561J0D01*
G01X109750Y195500D02*
G03X109750I-2750J0D01*
G01X489711Y163500D02*
G03X489711I-7711J0D01*
G01Y228500D02*
G03X489711I-7711J0D01*
G01Y282500D02*
G03X489711I-7711J0D01*
G01Y340000D02*
G03X489711I-7711J0D01*
G01X470100Y151700D02*
G03X470100I-5100J0D01*
G01Y163500D02*
G03X470100I-5100J0D01*
G01Y175300D02*
G03X470100I-5100J0D01*
G01X458300Y151700D02*
G03X458300I-5100J0D01*
G01Y163500D02*
G03X458300I-5100J0D01*
G01Y175300D02*
G03X458300I-5100J0D01*
G01X462750Y212000D02*
G03X462750I-2750J0D01*
G01X470100Y222600D02*
G03X470100I-5100J0D01*
G01Y234400D02*
G03X470100I-5100J0D01*
G01Y276600D02*
G03X470100I-5100J0D01*
G01Y288400D02*
G03X470100I-5100J0D01*
G01Y334100D02*
G03X470100I-5100J0D01*
G01Y345900D02*
G03X470100I-5100J0D01*
G01X458300Y222600D02*
G03X458300I-5100J0D01*
G01Y234400D02*
G03X458300I-5100J0D01*
G01Y276600D02*
G03X458300I-5100J0D01*
G01Y288400D02*
G03X458300I-5100J0D01*
G01Y334100D02*
G03X458300I-5100J0D01*
G01Y345900D02*
G03X458300I-5100J0D01*
G01X440250Y198500D02*
G03X440250I-2750J0D01*
G01X443750Y305000D02*
G03X443750I-2750J0D01*
G01X431750Y293500D02*
G03X431750I-2750J0D01*
G01X435250Y303000D02*
G03X435250I-2750J0D01*
G01X416250Y183000D02*
G03X416250I-2750J0D01*
G01X409500Y114400D02*
G03X409500I-4100J0D01*
G01X406250Y180500D02*
G03X406250I-2750J0D01*
G01X412226Y375913D02*
G03X412226I-4100J0D01*
G01X390000Y156000D02*
Y111000D01*
X388000Y109000D02*
G03X390000Y111000I0J2000D01*
G01X388000Y109000D02*
X368000D01*
X366000Y111000D02*
G03X368000Y109000I2000J0D01*
G01X366000Y111000D02*
Y121000D01*
X368000Y123000D02*
G03X366000Y121000I0J-2000D01*
G01X368000Y123000D02*
X376000D01*
Y144000*
X368000*
X366000Y146000D02*
G03X368000Y144000I2000J0D01*
G01X366000Y146000D02*
Y156000D01*
X366716Y157533D02*
G03X366000Y156000I1284J-1533D01*
G01X367184Y157826D02*
G03X366716Y157533I-1684J2174D01*
G01X368000Y158000D02*
G03X367184Y157826I0J-2000D01*
G01X368000Y158000D02*
X388000D01*
X390000Y156000D02*
G03X388000Y158000I-2000J0D01*
G01X394750Y159000D02*
G03X394750I-2750J0D01*
G01X397750Y286000D02*
G03X397750I-2750J0D01*
G01X388750Y163000D02*
G03X388750I-2750J0D01*
G01X385763Y203263D02*
G03X388237Y205737I2737J-263D01*
X385763Y203263I-2737J263*
G01X387250Y241000D02*
G03X387250I-2750J0D01*
G01X385250Y308000D02*
G03X385250I-2750J0D01*
G01X373750Y164000D02*
G03X373750I-2750J0D01*
G01X374202Y267989D02*
G03X373798Y270011I2298J1511D01*
X374202Y267989I-2298J-1511*
G01X360000Y156000D02*
Y146000D01*
X358000Y144000D02*
G03X360000Y146000I0J2000D01*
G01X358000Y144000D02*
X355646D01*
X353354D02*
G03X355646I1146J-2500D01*
G01X353354D02*
X350000D01*
Y123000*
X358000*
X360000Y121000D02*
G03X358000Y123000I-2000J0D01*
G01X360000Y121000D02*
Y111000D01*
X358000Y109000D02*
G03X360000Y111000I0J2000D01*
G01X358000Y109000D02*
X338000D01*
X336000Y111000D02*
G03X338000Y109000I2000J0D01*
G01X336000Y111000D02*
Y156000D01*
X338000Y158000D02*
G03X336000Y156000I0J-2000D01*
G01X338000Y158000D02*
X358000D01*
X360000Y156000D02*
G03X358000Y158000I-2000J0D01*
G01X359750Y172500D02*
G03X359750I-2750J0D01*
G01X363247Y224881D02*
G03X362253Y227119I1753J2119D01*
X363247Y224881I-1753J-2119*
G01X345250Y172500D02*
G03X345250I-2750J0D01*
G01X347254Y178855D02*
G03X349246Y181645I2746J145D01*
X347254Y178855I-2746J-145*
G01X356750Y214500D02*
G03X356750I-2750J0D01*
G01X344250Y229500D02*
G03X344250I-2750J0D01*
G01X349250Y336000D02*
G03X349250I-2750J0D01*
G01X354750Y338000D02*
G03X354750I-2750J0D01*
G01X341750Y243000D02*
G03X341750I-2750J0D01*
G01X340750Y256500D02*
G03X340750I-2750J0D01*
G01X332750Y171500D02*
G03X332750I-2750J0D01*
G01X330521Y189157D02*
G03X330521I-6021J0D01*
G01Y213764D02*
Y203921D01*
X329421Y202821D02*
G03X330521Y203921I0J1100D01*
G01X329421Y202821D02*
X319579D01*
X318479Y203921D02*
G03X319579Y202821I1100J0D01*
G01X318479Y203921D02*
Y213764D01*
X319579Y214864D02*
G03X318479Y213764I-0J-1100D01*
G01X319579Y214864D02*
X329421D01*
X330521Y213764D02*
G03X329421Y214864I-1100J-0D01*
G01X309250Y137000D02*
G03X309250I-2750J0D01*
G01X312250Y154500D02*
G03X312250I-2750J0D01*
G01X312750Y169000D02*
G03X312750I-2750J0D01*
G01X314250Y177500D02*
G03X314250I-2750J0D01*
G01Y183500D02*
G03X314250I-2750J0D01*
G01X315250Y189500D02*
G03X315250I-2750J0D01*
G01X319750Y219500D02*
G03X319750I-2750J0D01*
G01X321750Y261500D02*
G03X321750I-2750J0D01*
G01X310750Y203500D02*
G03X310750I-2750J0D01*
G01X302250Y131500D02*
G03X302250I-2750J0D01*
G01X306250Y210500D02*
G03X306250I-2750J0D01*
G01X310250Y230500D02*
G03X310250I-2750J0D01*
G01X310750Y240500D02*
G03X310750I-2750J0D01*
G01X297237Y168763D02*
G03X294763Y171237I263J2737D01*
G01X297139Y167726D02*
G03X297237Y168763I-2639J774D01*
G01X294861Y165774D02*
G03X297139Y167726I2639J-774D01*
G01X294763Y171237D02*
G03X294861Y165774I-263J-2737D01*
G01X288250Y132000D02*
G03X288250I-2750J0D01*
G01X292750Y188000D02*
G03X292750I-2750J0D01*
G01X297750Y198500D02*
G03X297750I-2750J0D01*
G01X301750Y291000D02*
G03X301750I-2750J0D01*
G01X298750Y296000D02*
G03X298750I-2750J0D01*
G01X299250Y301500D02*
G03X299250I-2750J0D01*
G01X303750Y357000D02*
G03X303750I-2750J0D01*
G01X286250Y194500D02*
G03X286250I-2750J0D01*
G01X275720Y144904D02*
G03X274780Y146596I1780J2096D01*
X275720Y144904I-1780J-2096*
G01X277750Y179000D02*
G03X277750I-2750J0D01*
G01X277766Y189559D02*
G03X274234Y190441I-1266J2441D01*
X277766Y189559I1266J-2441*
G01X283250Y216000D02*
G03X283250I-2750J0D01*
G01X286750Y253500D02*
G03X286750I-2750J0D01*
G01X289081Y301250D02*
G03X285919I-1581J2250D01*
X289081I1581J-2250*
G01X287250Y330500D02*
G03X287250I-2750J0D01*
G01X279750Y224500D02*
G03X279750I-2750J0D01*
G01X284250Y347000D02*
G03X284250I-2750J0D01*
G01X276250Y229500D02*
G03X276250I-2750J0D01*
G01X269250Y144500D02*
G03X269250I-2750J0D01*
G01X273250Y240000D02*
G03X273250I-2750J0D01*
G01X272250Y245500D02*
G03X272250I-2750J0D01*
G01X274250Y275000D02*
G03X274250I-2750J0D01*
G01X272250Y283000D02*
G03X272250I-2750J0D01*
G01X270034Y319218D02*
G03X270966Y320282I2466J-1218D01*
G01X268068Y324216D02*
G03X270034Y319218I432J-2716D01*
G01X270932Y322784D02*
G03X268068Y324216I-432J2716D01*
G01X270966Y320282D02*
G03X270932Y322784I-2466J1218D01*
G01X271071Y359251D02*
G03X273647Y361254I3429J-1751D01*
X271071Y359251I-2647J746*
G01X284850Y381500D02*
G03X284850I-3850J0D01*
G01X265750Y328000D02*
G03X265750I-2750J0D01*
G01X261250Y348000D02*
G03X261250I-2750J0D01*
G01X254750Y211500D02*
G03X254750I-2750J0D01*
G01X233250Y132500D02*
G03X233250I-2750J0D01*
G01X236750Y152000D02*
G03X236750I-2750J0D01*
G01X237250Y168500D02*
G03X237250I-2750J0D01*
G01X239250Y183000D02*
G03X239250I-2750J0D01*
G01X244750Y214000D02*
G03X244750I-2750J0D01*
G01X241068Y221284D02*
G03X243932Y222716I2432J-1284D01*
X241068Y221284I-2432J1284*
G01X247250Y236000D02*
G03X247250I-2750J0D01*
G01X242250Y254000D02*
G03X242250I-2750J0D01*
G01X234750Y202000D02*
G03X234750I-2750J0D01*
G01X226250Y177500D02*
G03X226250I-2750J0D01*
G01X230750Y214500D02*
G03X230750I-2750J0D01*
G01X216750Y133500D02*
G03X216750I-2750J0D01*
G01X218750Y142000D02*
G03X218750I-2750J0D01*
G01X211750Y193500D02*
G03X211750I-2750J0D01*
G01X215645Y227754D02*
G03X212855Y229746I-145J2746D01*
X215645Y227754I145J-2746*
G01X220750Y246000D02*
G03X220750I-2750J0D01*
G01X194810Y189929D02*
G03X195690Y192571I2690J571D01*
X194810Y189929I-2690J-571*
G01X203250Y199500D02*
G03X203250I-2750J0D01*
G01X203059Y216734D02*
G03X203941Y220266I2441J1266D01*
X203059Y216734I-2441J-1266*
G01X213750Y239500D02*
G03X213750I-2750J0D01*
G01Y301500D02*
G03X213750I-2750J0D01*
G01X210700Y386200D02*
G03X210700I-4100J0D01*
G01X195750Y249500D02*
G03X195750I-2750J0D01*
G01X189590Y128024D02*
Y127476D01*
X188348Y125000D02*
G03X189590Y127476I-1848J2476D01*
G01Y122524D02*
G03X188348Y125000I-3090J-0D01*
G01X189590Y122524D02*
Y121976D01*
X184000Y120160D02*
G03X189590Y121976I2500J1816D01*
G01X179000Y120160D02*
G03X184000I2500J1816D01*
G01X174000D02*
G03X179000I2500J1816D01*
G01X169590Y119547D02*
G03X174000Y120160I1910J2429D01*
G01X169590Y119547D02*
Y119485D01*
X169090Y118985D02*
G03X169590Y119485I0J500D01*
G01X169090Y118985D02*
X163910D01*
X163410Y119485D02*
G03X163910Y118985I500J-0D01*
G01X163410Y119485D02*
Y125015D01*
X163910Y125515D02*
G03X163410Y125015I0J-500D01*
G01X163910Y125515D02*
X164112D01*
X163410Y127476D02*
G03X164112Y125515I3090J0D01*
G01X163410Y127476D02*
Y128024D01*
X169000Y129840D02*
G03X163410Y128024I-2500J-1816D01*
G01X174000Y129840D02*
G03X169000I-2500J-1816D01*
G01X179000D02*
G03X174000I-2500J-1816D01*
G01X184000D02*
G03X179000I-2500J-1816D01*
G01X189590Y128024D02*
G03X184000Y129840I-3090J-0D01*
G01X189750Y179000D02*
G03X189750I-2750J0D01*
G01X187750Y199000D02*
G03X187750I-2750J0D01*
G01X187250Y220000D02*
G03X187250I-2750J0D01*
G01X187750Y226000D02*
G03X187750I-2750J0D01*
G01X176250Y170000D02*
G03X176250I-2750J0D01*
G01X180250Y175000D02*
G03X180250I-2750J0D01*
G01X173750D02*
G03X173750I-2750J0D01*
G01X172250Y199000D02*
G03X172250I-2750J0D01*
G01X174559Y201234D02*
G03X175441Y204766I2441J1266D01*
G01X171036Y205425D02*
G03X174559Y201234I1964J-1925D01*
G01X173964Y206075D02*
G03X171036Y205425I-1964J1925D01*
G01X175441Y204766D02*
G03X173964Y206075I-2441J-1266D01*
G01X179750Y217000D02*
G03X179750I-2750J0D01*
G01X177250Y268000D02*
G03X177250I-2750J0D01*
G01X178250Y300000D02*
G03X178250I-2750J0D01*
G01X184700Y387000D02*
G03X184700I-4100J0D01*
G01X161250Y157500D02*
G03X161250I-2750J0D01*
G01X162250Y231000D02*
G03X162250I-2750J0D01*
G01Y240200D02*
G03X162250I-3850J0D01*
G01X154350D02*
G03X154350I-3850J0D01*
G01X159750Y298500D02*
G03X159750I-2750J0D01*
G01X151900Y287500D02*
G03X151900I-5100J0D01*
G01Y334100D02*
G03X151900I-5100J0D01*
G01Y345900D02*
G03X151900I-5100J0D01*
G01X159300Y386400D02*
G03X159300I-4100J0D01*
G01X140100Y287500D02*
G03X140100I-5100J0D01*
G01Y334100D02*
G03X140100I-5100J0D01*
G01Y345900D02*
G03X140100I-5100J0D01*
G01X125711Y287500D02*
G03X125711I-7711J0D01*
G01Y340000D02*
G03X125711I-7711J0D01*
G01X256750Y165500D02*
G03X256750I-2750J0D01*
G01X250850Y118000D02*
G03X250850I-3850J0D01*
G01Y125900D02*
G03X250850I-3850J0D01*
G01X246746Y156355D02*
G03X244754Y159145I754J2645D01*
X246746Y156355I-754J-2645*
G01X249425Y180536D02*
G03X250075Y183464I2575J964D01*
G01X245575Y180536D02*
G03X249425I1925J1964D01*
G01X244581Y179250D02*
G03X245575Y180536I-1581J2250D01*
G01X241419Y179250D02*
G03X244581I1581J-2250D01*
G01X244925Y183464D02*
G03X241419Y179250I-1925J-1964D01*
G01X250075Y183464D02*
G03X244925I-2575J-964D01*
G01X263081Y170750D02*
G03X259919I-1581J2250D01*
X263081I1581J-2250*
G01X258750Y179551D02*
G03X260250Y181949I2750J-51D01*
X258750Y179551I-2750J51*
G01X254784Y203568D02*
G03X256216Y206432I2716J432D01*
X254784Y203568I-2716J-432*
G01X264250Y209000D02*
G03X264250I-2750J0D01*
G01X265750Y237500D02*
G03X265750I-2750J0D01*
G01X102000Y233199D02*
X145000D01*
X102000Y232299D02*
X145000D01*
X102000Y231399D02*
X145000D01*
X102000Y230499D02*
X145000D01*
X102000Y229599D02*
X145000D01*
X102000Y228699D02*
X145000D01*
X102000Y227799D02*
X145000D01*
X102000Y226899D02*
X145000D01*
X102000Y225999D02*
X145000D01*
X102000Y225099D02*
X145000D01*
X102000Y224199D02*
X145000D01*
X102000Y223299D02*
X145000D01*
X102000Y222399D02*
X145000D01*
X102000Y221499D02*
X145000D01*
X102000Y220599D02*
X145000D01*
X102000Y219699D02*
X145000D01*
X135010Y218799D02*
X145000D01*
X135868Y217899D02*
X145000D01*
X136204Y216999D02*
X145000D01*
X136221Y216099D02*
X145000D01*
X135923Y215199D02*
X145000D01*
X135148Y214299D02*
X145000D01*
X102000Y213399D02*
X145000D01*
X102000Y212499D02*
X145000D01*
X102000Y211599D02*
X145000D01*
X102000Y210699D02*
X145000D01*
X102000Y209799D02*
X145000D01*
X102000Y208899D02*
X145000D01*
X102000Y207999D02*
X145000D01*
X102000Y207099D02*
X145000D01*
X102000Y206199D02*
X145000D01*
X102000Y205299D02*
X145000D01*
X102000Y204399D02*
X145000D01*
X102000Y203499D02*
X145000D01*
X102000Y202599D02*
X145000D01*
X102000Y201699D02*
X145000D01*
X102000Y200799D02*
X145000D01*
X102000Y199899D02*
X145000D01*
X102000Y198999D02*
X145000D01*
X107900Y198099D02*
X145000D01*
X109163Y197199D02*
X145000D01*
X109631Y196299D02*
X145000D01*
X109748Y195399D02*
X145000D01*
X109561Y194499D02*
X145000D01*
X108987Y193599D02*
X145000D01*
X102000Y192699D02*
X145000D01*
X102000Y191799D02*
X145000D01*
X102000Y190899D02*
X145000D01*
X102000Y189999D02*
X145000D01*
X102000Y189099D02*
X145000D01*
X102000Y188199D02*
X145000D01*
X102000Y187299D02*
X145000D01*
X102000Y186399D02*
X145000D01*
X102000Y185499D02*
X145000D01*
X102000Y184599D02*
X145000D01*
X102000Y183699D02*
X145000D01*
X102000Y182799D02*
X145000D01*
X102000Y181899D02*
X145000D01*
X102000Y180999D02*
X145000D01*
X102000Y180099D02*
X145000D01*
X102000Y179199D02*
X145000D01*
X102000Y178299D02*
X145000D01*
X102000Y177399D02*
X145000D01*
X102000Y176499D02*
X145000D01*
X102000Y175599D02*
X145000D01*
X102000Y174699D02*
X145000D01*
X102000Y173799D02*
X145000D01*
X102000Y172899D02*
X145000D01*
X106891Y171999D02*
X145000D01*
X108279Y171099D02*
X145000D01*
X108968Y170199D02*
X145000D01*
X109344Y169299D02*
X145000D01*
X109494Y168399D02*
X145000D01*
X117471Y167499D02*
X145000D01*
X118700Y166599D02*
X145000D01*
X125529Y165699D02*
X145000D01*
X127080Y164799D02*
X145000D01*
X127599Y163899D02*
X145000D01*
X127750Y162999D02*
X145000D01*
X127598Y162099D02*
X145000D01*
X127078Y161199D02*
X145000D01*
X125515Y160299D02*
X145000D01*
X102000Y159399D02*
X145000D01*
X102000Y158499D02*
X145000D01*
X102000Y157599D02*
X145000D01*
X102000Y156699D02*
X145000D01*
X102000Y155799D02*
X145000D01*
X102000Y154899D02*
X145000D01*
X102000Y153999D02*
X145000D01*
X102000Y153099D02*
X145000D01*
X102000Y152199D02*
X145000D01*
X102000Y151299D02*
X145000D01*
X102000Y150399D02*
X145000D01*
X102000Y149499D02*
X145000D01*
X102000Y148599D02*
X145000D01*
X117707Y147699D02*
X145000D01*
X118797Y146799D02*
X145000D01*
X119328Y145899D02*
X145000D01*
X119563Y144999D02*
X145000D01*
X119561Y144099D02*
X145000D01*
X119321Y143199D02*
X145000D01*
X118782Y142299D02*
X145000D01*
X117673Y141399D02*
X145000D01*
X120234Y140499D02*
X145000D01*
X126012Y139599D02*
X145000D01*
X128403Y138699D02*
X145000D01*
X130171Y137799D02*
X145000D01*
X131605Y136899D02*
X145000D01*
X132818Y135999D02*
X145000D01*
X133867Y135099D02*
X145000D01*
X134787Y134199D02*
X145000D01*
X135601Y133299D02*
X145000D01*
X136326Y132399D02*
X145000D01*
X102000Y218799D02*
X131990D01*
X102000Y214299D02*
X131852D01*
X102000Y217899D02*
X131132D01*
X102000Y215199D02*
X131077D01*
X102000Y216999D02*
X130796D01*
X102000Y216099D02*
X130779D01*
X102000Y160299D02*
X124485D01*
X119279Y165699D02*
X124471D01*
X117877Y161199D02*
X122922D01*
X119547Y164799D02*
X122920D01*
X118873Y162099D02*
X122402D01*
X119574Y163899D02*
X122401D01*
X119366Y162999D02*
X122250D01*
X109498Y140499D02*
X119766D01*
X109443Y167499D02*
X114589D01*
X109425Y141399D02*
X114387D01*
X102000Y147699D02*
X114353D01*
X102000Y161199D02*
X114182D01*
X109371Y139599D02*
X113988D01*
X109183Y166599D02*
X113360D01*
X109141Y142299D02*
X113277D01*
X102000Y146799D02*
X113263D01*
X102000Y162099D02*
X113187D01*
X108664Y165699D02*
X112781D01*
X108588Y143199D02*
X112739D01*
X102000Y145899D02*
X112732D01*
X102000Y162999D02*
X112694D01*
X107720Y164799D02*
X112513D01*
X107571Y144099D02*
X112499D01*
X102000Y144999D02*
X112497D01*
X102000Y163899D02*
X112486D01*
X109022Y138699D02*
X111597D01*
X108375Y137799D02*
X109829D01*
X107120Y136899D02*
X108395D01*
X102000Y135999D02*
X107182D01*
X102000Y135099D02*
X106133D01*
X102000Y198099D02*
X106100D01*
X102000Y134199D02*
X105213D01*
X102000Y193599D02*
X105013D01*
X102000Y197199D02*
X104837D01*
X102000Y194499D02*
X104439D01*
X102000Y133299D02*
X104399D01*
X102000Y196299D02*
X104369D01*
X102000Y195399D02*
X104252D01*
X102000Y171999D02*
X103909D01*
X102000Y136899D02*
X103680D01*
X102000Y132399D02*
X103674D01*
X102000Y144099D02*
X103229D01*
X102000Y164799D02*
X103080D01*
X102000Y171099D02*
X102521D01*
X102000Y137799D02*
X102425D01*
X102000Y143199D02*
X102212D01*
X102000Y165699D02*
X102136D01*
X497665Y369599D02*
X498000D01*
X497104Y368699D02*
X498000D01*
X496474Y367799D02*
X498000D01*
X495767Y366899D02*
X498000D01*
X494974Y365999D02*
X498000D01*
X494078Y365099D02*
X498000D01*
X493060Y364199D02*
X498000D01*
X491888Y363299D02*
X498000D01*
X490509Y362399D02*
X498000D01*
X488829Y361499D02*
X498000D01*
X486621Y360599D02*
X498000D01*
X482847Y359699D02*
X498000D01*
X303080Y358799D02*
X498000D01*
X303599Y357899D02*
X498000D01*
X303750Y356999D02*
X498000D01*
X303598Y356099D02*
X498000D01*
X303078Y355199D02*
X498000D01*
X301515Y354299D02*
X498000D01*
X102000Y353399D02*
X498000D01*
X102000Y352499D02*
X498000D01*
X102000Y351599D02*
X498000D01*
X466727Y350699D02*
X498000D01*
X468288Y349799D02*
X498000D01*
X469125Y348899D02*
X498000D01*
X469648Y347999D02*
X498000D01*
X485011Y347099D02*
X498000D01*
X486587Y346199D02*
X498000D01*
X487602Y345299D02*
X498000D01*
X488333Y344399D02*
X498000D01*
X488872Y343499D02*
X498000D01*
X489260Y342599D02*
X498000D01*
X489522Y341699D02*
X498000D01*
X489670Y340799D02*
X498000D01*
X489710Y339899D02*
X498000D01*
X489646Y338999D02*
X498000D01*
X489473Y338099D02*
X498000D01*
X489184Y337199D02*
X498000D01*
X488765Y336299D02*
X498000D01*
X488188Y335399D02*
X498000D01*
X487403Y334499D02*
X498000D01*
X486299Y333599D02*
X498000D01*
X484480Y332699D02*
X498000D01*
X469551Y331799D02*
X498000D01*
X468970Y330899D02*
X498000D01*
X468031Y329999D02*
X498000D01*
X465999Y329099D02*
X498000D01*
X286006Y328199D02*
X498000D01*
X272580Y327299D02*
X498000D01*
X273099Y326399D02*
X498000D01*
X273250Y325499D02*
X498000D01*
X273098Y324599D02*
X498000D01*
X272578Y323699D02*
X498000D01*
X271015Y322799D02*
X498000D01*
X271221Y321899D02*
X498000D01*
X271204Y320999D02*
X498000D01*
X274277Y320099D02*
X498000D01*
X274975Y319199D02*
X498000D01*
X275234Y318299D02*
X498000D01*
X275183Y317399D02*
X498000D01*
X274804Y316499D02*
X498000D01*
X273840Y315599D02*
X498000D01*
X102000Y314699D02*
X498000D01*
X102000Y313799D02*
X498000D01*
X102000Y312899D02*
X498000D01*
X102000Y311999D02*
X498000D01*
X102000Y311099D02*
X498000D01*
X384152Y310199D02*
X498000D01*
X384924Y309299D02*
X498000D01*
X385221Y308399D02*
X498000D01*
X442149Y307499D02*
X498000D01*
X443238Y306599D02*
X498000D01*
X443660Y305699D02*
X498000D01*
X443743Y304799D02*
X498000D01*
X443520Y303899D02*
X498000D01*
X442886Y302999D02*
X498000D01*
X435098Y302099D02*
X498000D01*
X434578Y301199D02*
X498000D01*
X433015Y300299D02*
X498000D01*
X298274Y299399D02*
X498000D01*
X297149Y298499D02*
X498000D01*
X298238Y297599D02*
X498000D01*
X298660Y296699D02*
X498000D01*
X430510Y295799D02*
X498000D01*
X431368Y294899D02*
X498000D01*
X431704Y293999D02*
X498000D01*
X466983Y293099D02*
X498000D01*
X468403Y292199D02*
X498000D01*
X469196Y291299D02*
X498000D01*
X469692Y290399D02*
X498000D01*
X485237Y289499D02*
X498000D01*
X486719Y288599D02*
X498000D01*
X487695Y287699D02*
X498000D01*
X488402Y286799D02*
X498000D01*
X488922Y285899D02*
X498000D01*
X489295Y284999D02*
X498000D01*
X489543Y284099D02*
X498000D01*
X489679Y283199D02*
X498000D01*
X489708Y282299D02*
X498000D01*
X489632Y281399D02*
X498000D01*
X489447Y280499D02*
X498000D01*
X489144Y279599D02*
X498000D01*
X488709Y278699D02*
X498000D01*
X488112Y277799D02*
X498000D01*
X487300Y276899D02*
X498000D01*
X486146Y275999D02*
X498000D01*
X484163Y275099D02*
X498000D01*
X469499Y274199D02*
X498000D01*
X468887Y273299D02*
X498000D01*
X467891Y272399D02*
X498000D01*
X378389Y271499D02*
X498000D01*
X379021Y270599D02*
X498000D01*
X379243Y269699D02*
X498000D01*
X379159Y268799D02*
X498000D01*
X378736Y267899D02*
X498000D01*
X377643Y266999D02*
X498000D01*
X372840Y266099D02*
X498000D01*
X102000Y265199D02*
X498000D01*
X102000Y264299D02*
X498000D01*
X320989Y263399D02*
X498000D01*
X321562Y262499D02*
X498000D01*
X321748Y261599D02*
X498000D01*
X321631Y260699D02*
X498000D01*
X321161Y259799D02*
X498000D01*
X339345Y258899D02*
X498000D01*
X340306Y257999D02*
X498000D01*
X340684Y257099D02*
X498000D01*
X340733Y256199D02*
X498000D01*
X340474Y255299D02*
X498000D01*
X339774Y254399D02*
X498000D01*
X286750Y253499D02*
X498000D01*
X286598Y252599D02*
X498000D01*
X286078Y251699D02*
X498000D01*
X284515Y250799D02*
X498000D01*
X195721Y249899D02*
X498000D01*
X195704Y248999D02*
X498000D01*
X270400Y248099D02*
X498000D01*
X271663Y247199D02*
X498000D01*
X272131Y246299D02*
X498000D01*
X340345Y245399D02*
X498000D01*
X341306Y244499D02*
X498000D01*
X385400Y243599D02*
X498000D01*
X386663Y242699D02*
X498000D01*
X387131Y241799D02*
X498000D01*
X387248Y240899D02*
X498000D01*
X387061Y239999D02*
X498000D01*
X466983Y239099D02*
X498000D01*
X468403Y238199D02*
X498000D01*
X469196Y237299D02*
X498000D01*
X469692Y236399D02*
X498000D01*
X485237Y235499D02*
X498000D01*
X486719Y234599D02*
X498000D01*
X487695Y233699D02*
X498000D01*
X488402Y232799D02*
X498000D01*
X488922Y231899D02*
X498000D01*
X489295Y230999D02*
X498000D01*
X489543Y230099D02*
X498000D01*
X489679Y229199D02*
X498000D01*
X489708Y228299D02*
X498000D01*
X489632Y227399D02*
X498000D01*
X489447Y226499D02*
X498000D01*
X489144Y225599D02*
X498000D01*
X488709Y224699D02*
X498000D01*
X488112Y223799D02*
X498000D01*
X487300Y222899D02*
X498000D01*
X486146Y221999D02*
X498000D01*
X484163Y221099D02*
X498000D01*
X469499Y220199D02*
X498000D01*
X468887Y219299D02*
X498000D01*
X467891Y218399D02*
X498000D01*
X318886Y217499D02*
X498000D01*
X355777Y216599D02*
X498000D01*
X356475Y215699D02*
X498000D01*
X356734Y214799D02*
X498000D01*
X461989Y213899D02*
X498000D01*
X462562Y212999D02*
X498000D01*
X462748Y212099D02*
X498000D01*
X462631Y211199D02*
X498000D01*
X462161Y210299D02*
X498000D01*
X460892Y209399D02*
X498000D01*
X386649Y208499D02*
X498000D01*
X387738Y207599D02*
X498000D01*
X388160Y206699D02*
X498000D01*
X388243Y205799D02*
X498000D01*
X390489Y204899D02*
X498000D01*
X391062Y203999D02*
X498000D01*
X391248Y203099D02*
X498000D01*
X391131Y202199D02*
X498000D01*
X390661Y201299D02*
X498000D01*
X439489Y200399D02*
X498000D01*
X440062Y199499D02*
X498000D01*
X440248Y198599D02*
X498000D01*
X440131Y197699D02*
X498000D01*
X439661Y196799D02*
X498000D01*
X438392Y195899D02*
X498000D01*
X325962Y194999D02*
X498000D01*
X327941Y194099D02*
X498000D01*
X328964Y193199D02*
X498000D01*
X329637Y192299D02*
X498000D01*
X330089Y191399D02*
X498000D01*
X330370Y190499D02*
X498000D01*
X330505Y189599D02*
X498000D01*
X330504Y188699D02*
X498000D01*
X330366Y187799D02*
X498000D01*
X330082Y186899D02*
X498000D01*
X329626Y185999D02*
X498000D01*
X415277Y185099D02*
X498000D01*
X415975Y184199D02*
X498000D01*
X416234Y183299D02*
X498000D01*
X416183Y182399D02*
X498000D01*
X415804Y181499D02*
X498000D01*
X414840Y180599D02*
X498000D01*
X467581Y179699D02*
X498000D01*
X468711Y178799D02*
X498000D01*
X469388Y177899D02*
X498000D01*
X469809Y176999D02*
X498000D01*
X470037Y176099D02*
X498000D01*
X470099Y175199D02*
X498000D01*
X470001Y174299D02*
X498000D01*
X469732Y173399D02*
X498000D01*
X469262Y172499D02*
X498000D01*
X468509Y171599D02*
X498000D01*
X484764Y170699D02*
X498000D01*
X486448Y169799D02*
X498000D01*
X487506Y168899D02*
X498000D01*
X488263Y167999D02*
X498000D01*
X488820Y167099D02*
X498000D01*
X489223Y166199D02*
X498000D01*
X489498Y165299D02*
X498000D01*
X489658Y164399D02*
X498000D01*
X489711Y163499D02*
X498000D01*
X489658Y162599D02*
X498000D01*
X489498Y161699D02*
X498000D01*
X489222Y160799D02*
X498000D01*
X488818Y159899D02*
X498000D01*
X488261Y158999D02*
X498000D01*
X487503Y158099D02*
X498000D01*
X486444Y157199D02*
X498000D01*
X484757Y156299D02*
X498000D01*
X468511Y155399D02*
X498000D01*
X469264Y154499D02*
X498000D01*
X469733Y153599D02*
X498000D01*
X470001Y152699D02*
X498000D01*
X470099Y151799D02*
X498000D01*
X470037Y150899D02*
X498000D01*
X469808Y149999D02*
X498000D01*
X469387Y149099D02*
X498000D01*
X468708Y148199D02*
X498000D01*
X467577Y147299D02*
X498000D01*
X390000Y146399D02*
X498000D01*
X390000Y145499D02*
X498000D01*
X390000Y144599D02*
X498000D01*
X390000Y143699D02*
X498000D01*
X390000Y142799D02*
X498000D01*
X390000Y141899D02*
X498000D01*
X390000Y140999D02*
X498000D01*
X484037Y140099D02*
X498000D01*
X487188Y139199D02*
X498000D01*
X489242Y138299D02*
X498000D01*
X490841Y137399D02*
X498000D01*
X492167Y136499D02*
X498000D01*
X493302Y135599D02*
X498000D01*
X494290Y134699D02*
X498000D01*
X495161Y133799D02*
X498000D01*
X495933Y132899D02*
X498000D01*
X496622Y131999D02*
X498000D01*
X497236Y131099D02*
X498000D01*
X497783Y130199D02*
X498000D01*
X469874Y275099D02*
X479837D01*
X469874Y221099D02*
X479837D01*
X469904Y332699D02*
X479520D01*
X467205Y156299D02*
X479243D01*
X467200Y170699D02*
X479236D01*
X469957Y347099D02*
X478989D01*
X469980Y289499D02*
X478763D01*
X469980Y235499D02*
X478763D01*
X470064Y275999D02*
X477854D01*
X470064Y221999D02*
X477854D01*
X470075Y333599D02*
X477701D01*
X394078Y157199D02*
X477556D01*
X357515Y169799D02*
X477552D01*
X470091Y346199D02*
X477413D01*
X470096Y288599D02*
X477281D01*
X470096Y234599D02*
X477281D01*
X301529Y359699D02*
X477153D01*
X470091Y276899D02*
X476700D01*
X470091Y222899D02*
X476700D01*
X470084Y334499D02*
X476597D01*
X394598Y158099D02*
X476497D01*
X330892Y168899D02*
X476494D01*
X470064Y345299D02*
X476398D01*
X470052Y287699D02*
X476305D01*
X470052Y233699D02*
X476305D01*
X390000Y140099D02*
X475963D01*
X469957Y277799D02*
X475888D01*
X469957Y223799D02*
X475888D01*
X469932Y335399D02*
X475812D01*
X467398Y158999D02*
X475739D01*
X467403Y167999D02*
X475737D01*
X469874Y344399D02*
X475667D01*
X469842Y286799D02*
X475598D01*
X469842Y232799D02*
X475598D01*
X469648Y278699D02*
X475291D01*
X469648Y224699D02*
X475291D01*
X469602Y336299D02*
X475235D01*
X468611Y159899D02*
X475182D01*
X468614Y167099D02*
X475180D01*
X469499Y343499D02*
X475128D01*
X469445Y285899D02*
X475078D01*
X469445Y231899D02*
X475078D01*
X469125Y279599D02*
X474856D01*
X469125Y225599D02*
X474856D01*
X469051Y337199D02*
X474816D01*
X469326Y160799D02*
X474778D01*
X469328Y166199D02*
X474777D01*
X468887Y342599D02*
X474740D01*
X468800Y284999D02*
X474705D01*
X468800Y230999D02*
X474705D01*
X468288Y280499D02*
X474553D01*
X468288Y226499D02*
X474553D01*
X468166Y338099D02*
X474527D01*
X469771Y161699D02*
X474502D01*
X469772Y165299D02*
X474502D01*
X467891Y341699D02*
X474478D01*
X467740Y284099D02*
X474457D01*
X467740Y230099D02*
X474457D01*
X466727Y281399D02*
X474368D01*
X466727Y227399D02*
X474368D01*
X466419Y338999D02*
X474354D01*
X470020Y162599D02*
X474342D01*
X470020Y164399D02*
X474342D01*
X125670Y340799D02*
X474330D01*
X272243Y283199D02*
X474321D01*
X366652Y229199D02*
X474321D01*
X272159Y282299D02*
X474292D01*
X367424Y228299D02*
X474292D01*
X353989Y339899D02*
X474290D01*
X470100Y163499D02*
X474289D01*
X276785Y360599D02*
X473379D01*
X390000Y139199D02*
X472812D01*
X273704Y361499D02*
X471171D01*
X390000Y138299D02*
X470758D01*
X130340Y102299D02*
X469660D01*
X273721Y362399D02*
X469491D01*
X130679Y397499D02*
X469321D01*
X390000Y137399D02*
X469159D01*
X131746Y103199D02*
X468254D01*
X273424Y363299D02*
X468112D01*
X132031Y396599D02*
X467969D01*
X390000Y136499D02*
X467833D01*
X132938Y104099D02*
X467062D01*
X272652Y364199D02*
X466940D01*
X133183Y395699D02*
X466817D01*
X390000Y135599D02*
X466698D01*
X133972Y104999D02*
X466028D01*
X134078Y365099D02*
X465922D01*
X134186Y394799D02*
X465814D01*
X390000Y134699D02*
X465710D01*
X134880Y105899D02*
X465120D01*
X134974Y365999D02*
X465026D01*
X135069Y393899D02*
X464931D01*
X390000Y133799D02*
X464839D01*
X135684Y106799D02*
X464316D01*
X135767Y366899D02*
X464233D01*
X135852Y392999D02*
X464148D01*
X390000Y132899D02*
X464067D01*
X454199Y329099D02*
X464001D01*
X136399Y107699D02*
X463601D01*
X454619Y338999D02*
X463581D01*
X136474Y367799D02*
X463526D01*
X136549Y392099D02*
X463451D01*
X390000Y131999D02*
X463378D01*
X454927Y281399D02*
X463273D01*
X454927Y227399D02*
X463273D01*
X454927Y350699D02*
X463273D01*
X455183Y293099D02*
X463017D01*
X455183Y239099D02*
X463017D01*
X137037Y108599D02*
X462963D01*
X137104Y368699D02*
X462896D01*
X137171Y391199D02*
X462829D01*
X455400Y170699D02*
X462800D01*
X455405Y156299D02*
X462795D01*
X390000Y131099D02*
X462764D01*
X455598Y158999D02*
X462602D01*
X455603Y167999D02*
X462597D01*
X455777Y147299D02*
X462423D01*
X455781Y179699D02*
X462419D01*
X389321Y109499D02*
X462394D01*
X137665Y369599D02*
X462335D01*
X206705Y390299D02*
X462275D01*
X455940Y284099D02*
X462260D01*
X455940Y230099D02*
X462260D01*
X390000Y130199D02*
X462217D01*
X456091Y272399D02*
X462109D01*
X456091Y218399D02*
X462109D01*
X456091Y341699D02*
X462109D01*
X456231Y329999D02*
X461969D01*
X406294Y110399D02*
X461887D01*
X138165Y370499D02*
X461835D01*
X456366Y338099D02*
X461834D01*
X209165Y389399D02*
X461781D01*
X390000Y129299D02*
X461730D01*
X456488Y280499D02*
X461712D01*
X456488Y226499D02*
X461712D01*
X456488Y349799D02*
X461712D01*
X456603Y292199D02*
X461597D01*
X456603Y238199D02*
X461597D01*
X456709Y171599D02*
X461491D01*
X456711Y155399D02*
X461489D01*
X408082Y111299D02*
X461438D01*
X138608Y371399D02*
X461392D01*
X456811Y159899D02*
X461389D01*
X456814Y167099D02*
X461386D01*
X209995Y388499D02*
X461345D01*
X390000Y128399D02*
X461299D01*
X456908Y148199D02*
X461292D01*
X456911Y178799D02*
X461289D01*
X457000Y284999D02*
X461200D01*
X457000Y230999D02*
X461200D01*
X457087Y273299D02*
X461113D01*
X457087Y219299D02*
X461113D01*
X457087Y342599D02*
X461113D01*
X408859Y112199D02*
X461042D01*
X457170Y330899D02*
X461030D01*
X410062Y372299D02*
X461002D01*
X210454Y387599D02*
X460960D01*
X457251Y337199D02*
X460949D01*
X390000Y127499D02*
X460921D01*
X457325Y279599D02*
X460875D01*
X457325Y225599D02*
X460875D01*
X457325Y348899D02*
X460875D01*
X457396Y291299D02*
X460804D01*
X457396Y237299D02*
X460804D01*
X457462Y172499D02*
X460738D01*
X457464Y154499D02*
X460736D01*
X409288Y113099D02*
X460697D01*
X457526Y160799D02*
X460674D01*
X457528Y166199D02*
X460672D01*
X411199Y373199D02*
X460661D01*
X210670Y386699D02*
X460625D01*
X457587Y149099D02*
X460613D01*
X457588Y177899D02*
X460612D01*
X390000Y126599D02*
X460591D01*
X457645Y285899D02*
X460555D01*
X457645Y231899D02*
X460555D01*
X457699Y274199D02*
X460501D01*
X457699Y220199D02*
X460501D01*
X457699Y343499D02*
X460501D01*
X457751Y331799D02*
X460449D01*
X457802Y336299D02*
X460398D01*
X409480Y113999D02*
X460398D01*
X411803Y374099D02*
X460368D01*
X457848Y278699D02*
X460352D01*
X457848Y224699D02*
X460352D01*
X457848Y347999D02*
X460352D01*
X210680Y385799D02*
X460337D01*
X390000Y125699D02*
X460308D01*
X457892Y290399D02*
X460308D01*
X457892Y236399D02*
X460308D01*
X457932Y173399D02*
X460268D01*
X457933Y153599D02*
X460267D01*
X457971Y161699D02*
X460229D01*
X457972Y165299D02*
X460228D01*
X458008Y149999D02*
X460192D01*
X458009Y176999D02*
X460191D01*
X458042Y286799D02*
X460158D01*
X458042Y232799D02*
X460158D01*
X409470Y114899D02*
X460145D01*
X458074Y275099D02*
X460126D01*
X458074Y221099D02*
X460126D01*
X458074Y344399D02*
X460126D01*
X412123Y374999D02*
X460119D01*
X458104Y332699D02*
X460096D01*
X282809Y384899D02*
X460094D01*
X390000Y124799D02*
X460070D01*
X458132Y335399D02*
X460068D01*
X458157Y277799D02*
X460043D01*
X458157Y223799D02*
X460043D01*
X458157Y347099D02*
X460043D01*
X458180Y289499D02*
X460020D01*
X458180Y235499D02*
X460020D01*
X458201Y174299D02*
X459999D01*
X458201Y152699D02*
X459999D01*
X458220Y162599D02*
X459980D01*
X458220Y164399D02*
X459980D01*
X458237Y150899D02*
X459963D01*
X458237Y176099D02*
X459963D01*
X458252Y287699D02*
X459948D01*
X458252Y233699D02*
X459948D01*
X458264Y275999D02*
X459936D01*
X458264Y221999D02*
X459936D01*
X458264Y345299D02*
X459936D01*
X409254Y115799D02*
X459935D01*
X458275Y333599D02*
X459925D01*
X458284Y334499D02*
X459916D01*
X412226Y375899D02*
X459914D01*
X458291Y276899D02*
X459909D01*
X458291Y222899D02*
X459909D01*
X458291Y346199D02*
X459909D01*
X458296Y288599D02*
X459904D01*
X458296Y234599D02*
X459904D01*
X458299Y175199D02*
X459901D01*
X458299Y151799D02*
X459901D01*
X458300Y163499D02*
X459900D01*
X283929Y383999D02*
X459894D01*
X390000Y123899D02*
X459874D01*
X408795Y116699D02*
X459768D01*
X412130Y376799D02*
X459751D01*
X284502Y383099D02*
X459736D01*
X390000Y122999D02*
X459720D01*
X407965Y117599D02*
X459641D01*
X411817Y377699D02*
X459630D01*
X284786Y382199D02*
X459618D01*
X390000Y122099D02*
X459608D01*
X405505Y118499D02*
X459555D01*
X411225Y378599D02*
X459548D01*
X284845Y381299D02*
X459541D01*
X390000Y121199D02*
X459535D01*
X390000Y119399D02*
X459509D01*
X410115Y379499D02*
X459506D01*
X284689Y380399D02*
X459504D01*
X390000Y120299D02*
X459502D01*
X330521Y209399D02*
X459108D01*
X356683Y213899D02*
X458011D01*
X330521Y210299D02*
X457839D01*
X356304Y212999D02*
X457438D01*
X330521Y211199D02*
X457369D01*
X355340Y212099D02*
X457252D01*
X286866Y329099D02*
X452201D01*
X354562Y338999D02*
X451781D01*
X259029Y350699D02*
X451473D01*
X271736Y281399D02*
X451473D01*
X367721Y227399D02*
X451473D01*
X431721Y293099D02*
X451217D01*
X386487Y239099D02*
X451217D01*
X359078Y170699D02*
X451000D01*
X392515Y156299D02*
X450995D01*
X394750Y158999D02*
X450802D01*
X312561Y167999D02*
X450797D01*
X390000Y147299D02*
X450623D01*
X406131Y179699D02*
X450619D01*
X396987Y284099D02*
X450460D01*
X344184Y230099D02*
X450460D01*
X149691Y341699D02*
X450309D01*
X272392Y272399D02*
X450309D01*
X319520Y218399D02*
X450309D01*
X287204Y329999D02*
X450169D01*
X354748Y338099D02*
X450034D01*
X260580Y349799D02*
X449912D01*
X270643Y280499D02*
X449912D01*
X367704Y226499D02*
X449912D01*
X431423Y292199D02*
X449797D01*
X309506Y238199D02*
X449797D01*
X359598Y171599D02*
X449691D01*
X390000Y155399D02*
X449689D01*
X394599Y159899D02*
X449589D01*
X311987Y167099D02*
X449586D01*
X390000Y148199D02*
X449492D01*
X405661Y178799D02*
X449489D01*
X397561Y284999D02*
X449400D01*
X343806Y230999D02*
X449400D01*
X150687Y342599D02*
X449313D01*
X273661Y273299D02*
X449313D01*
X319743Y219299D02*
X449313D01*
X287221Y330899D02*
X449230D01*
X354631Y337199D02*
X449149D01*
X283489Y348899D02*
X449075D01*
X102000Y279599D02*
X449075D01*
X367366Y225599D02*
X449075D01*
X430648Y291299D02*
X449004D01*
X271015Y237299D02*
X449004D01*
X359750Y172499D02*
X448938D01*
X390000Y154499D02*
X448936D01*
X394080Y160799D02*
X448874D01*
X372652Y166199D02*
X448872D01*
X390000Y149099D02*
X448813D01*
X404392Y177899D02*
X448812D01*
X397748Y285899D02*
X448755D01*
X342845Y231899D02*
X448755D01*
X151299Y343499D02*
X448701D01*
X274131Y274199D02*
X448701D01*
X319660Y220199D02*
X448701D01*
X286924Y331799D02*
X448649D01*
X354161Y336299D02*
X448598D01*
X284062Y347999D02*
X448552D01*
X102000Y278699D02*
X448552D01*
X366506Y224699D02*
X448552D01*
X301683Y290399D02*
X448508D01*
X265520Y236399D02*
X448508D01*
X359599Y173399D02*
X448468D01*
X390000Y153599D02*
X448467D01*
X392529Y161699D02*
X448429D01*
X387510Y165299D02*
X448428D01*
X390000Y149999D02*
X448392D01*
X351886Y176999D02*
X448391D01*
X397631Y286799D02*
X448358D01*
X309010Y232799D02*
X448358D01*
X282392Y344399D02*
X448326D01*
X274248Y275099D02*
X448326D01*
X319238Y221099D02*
X448326D01*
X286152Y332699D02*
X448296D01*
X352892Y335399D02*
X448268D01*
X284248Y347099D02*
X448243D01*
X102000Y277799D02*
X448243D01*
X362974Y223799D02*
X448243D01*
X301304Y289499D02*
X448220D01*
X264886Y235499D02*
X448220D01*
X359080Y174299D02*
X448199D01*
X390000Y152699D02*
X448199D01*
X388721Y162599D02*
X448180D01*
X388368Y164399D02*
X448180D01*
X390000Y150899D02*
X448163D01*
X313866Y176099D02*
X448163D01*
X397163Y287699D02*
X448148D01*
X246006Y233699D02*
X448148D01*
X283661Y345299D02*
X448136D01*
X274062Y275999D02*
X448136D01*
X318149Y221999D02*
X448136D01*
X347840Y333599D02*
X448125D01*
X348804Y334499D02*
X448116D01*
X284131Y346199D02*
X448109D01*
X273489Y276899D02*
X448109D01*
X362274Y222899D02*
X448109D01*
X395900Y288599D02*
X448104D01*
X246866Y234599D02*
X448104D01*
X357529Y175199D02*
X448101D01*
X390000Y151799D02*
X448101D01*
X388704Y163499D02*
X448100D01*
X385204Y307499D02*
X439851D01*
X435250Y302999D02*
X439114D01*
X384866Y306599D02*
X438762D01*
X435099Y303899D02*
X438480D01*
X433029Y305699D02*
X438340D01*
X434580Y304799D02*
X438257D01*
X295892Y195899D02*
X436608D01*
X389392Y200399D02*
X435511D01*
X297161Y196799D02*
X435339D01*
X297562Y199499D02*
X434938D01*
X297631Y197699D02*
X434869D01*
X297748Y198599D02*
X434752D01*
X298974Y300299D02*
X431985D01*
X384006Y305699D02*
X431971D01*
X299233Y301199D02*
X430422D01*
X289924Y304799D02*
X430420D01*
X299184Y302099D02*
X429902D01*
X297845Y303899D02*
X429901D01*
X298806Y302999D02*
X429750D01*
X298743Y295799D02*
X427490D01*
X301734Y291299D02*
X427352D01*
X298520Y294899D02*
X426632D01*
X301475Y292199D02*
X426577D01*
X297886Y293999D02*
X426296D01*
X300777Y293099D02*
X426279D01*
X406248Y180599D02*
X412160D01*
X328948Y185099D02*
X411723D01*
X406062Y181499D02*
X411196D01*
X347029Y184199D02*
X411025D01*
X405489Y182399D02*
X410817D01*
X348580Y183299D02*
X410766D01*
X138998Y372299D02*
X406191D01*
X284289Y379499D02*
X406138D01*
X390000Y118499D02*
X405295D01*
X139339Y373199D02*
X405054D01*
X283531Y378599D02*
X405028D01*
X389907Y110399D02*
X404506D01*
X139632Y374099D02*
X404450D01*
X281610Y377699D02*
X404436D01*
X139881Y374999D02*
X404130D01*
X140249Y376799D02*
X404123D01*
X140086Y375899D02*
X404026D01*
X390000Y117599D02*
X402835D01*
X390000Y111299D02*
X402718D01*
X352520Y177899D02*
X402608D01*
X390000Y116699D02*
X402005D01*
X390000Y112199D02*
X401941D01*
X390000Y115799D02*
X401546D01*
X390000Y113099D02*
X401512D01*
X349099Y182399D02*
X401511D01*
X352743Y178799D02*
X401339D01*
X390000Y114899D02*
X401330D01*
X390000Y113999D02*
X401320D01*
X351149Y181499D02*
X400938D01*
X352660Y179699D02*
X400869D01*
X352238Y180599D02*
X400752D01*
X300340Y288599D02*
X394100D01*
X272021Y284099D02*
X393013D01*
X151896Y287699D02*
X392837D01*
X271389Y284999D02*
X392439D01*
X151852Y286799D02*
X392369D01*
X151642Y285899D02*
X392252D01*
X389978Y156299D02*
X391485D01*
X388423Y161699D02*
X391471D01*
X389601Y157199D02*
X389922D01*
X387648Y160799D02*
X389920D01*
X367487Y158099D02*
X389402D01*
X368248Y159899D02*
X389401D01*
X368061Y158999D02*
X389250D01*
X296989Y200399D02*
X387608D01*
X309648Y201299D02*
X386339D01*
X310423Y202199D02*
X385869D01*
X330152Y203099D02*
X385752D01*
X373424Y165299D02*
X384490D01*
X368131Y160799D02*
X384352D01*
X330521Y208499D02*
X384351D01*
X373721Y164399D02*
X383632D01*
X330521Y203999D02*
X383614D01*
X341684Y243599D02*
X383600D01*
X372506Y161699D02*
X383577D01*
X373704Y163499D02*
X383296D01*
X373366Y162599D02*
X383279D01*
X330521Y207599D02*
X383262D01*
X330521Y204899D02*
X382980D01*
X330521Y206699D02*
X382840D01*
X330521Y205799D02*
X382757D01*
X310366Y239099D02*
X382513D01*
X341733Y242699D02*
X382337D01*
X310704Y239999D02*
X381939D01*
X341474Y241799D02*
X381869D01*
X340774Y240899D02*
X381752D01*
X289152Y305699D02*
X380994D01*
X102000Y310199D02*
X380848D01*
X102000Y306599D02*
X380134D01*
X102000Y309299D02*
X380076D01*
X102000Y307499D02*
X379796D01*
X102000Y308399D02*
X379779D01*
X356152Y143699D02*
X376000D01*
X356924Y142799D02*
X376000D01*
X357221Y141899D02*
X376000D01*
X357204Y140999D02*
X376000D01*
X356866Y140099D02*
X376000D01*
X356006Y139199D02*
X376000D01*
X350000Y138299D02*
X376000D01*
X350000Y137399D02*
X376000D01*
X350000Y136499D02*
X376000D01*
X350000Y135599D02*
X376000D01*
X350000Y134699D02*
X376000D01*
X350000Y133799D02*
X376000D01*
X350000Y132899D02*
X376000D01*
X350000Y131999D02*
X376000D01*
X350000Y131099D02*
X376000D01*
X350000Y130199D02*
X376000D01*
X350000Y129299D02*
X376000D01*
X350000Y128399D02*
X376000D01*
X350000Y127499D02*
X376000D01*
X350000Y126599D02*
X376000D01*
X350000Y125699D02*
X376000D01*
X350000Y124799D02*
X376000D01*
X350000Y123899D02*
X376000D01*
X373804Y266999D02*
X375357D01*
X102000Y271499D02*
X374611D01*
X374183Y267899D02*
X374264D01*
X373277Y270599D02*
X373979D01*
X176487Y266099D02*
X370160D01*
X175400Y270599D02*
X369723D01*
X367663Y161699D02*
X369494D01*
X299975Y166199D02*
X369348D01*
X177061Y266999D02*
X369196D01*
X176663Y269699D02*
X369025D01*
X177248Y267899D02*
X368817D01*
X177131Y268799D02*
X368766D01*
X366400Y162599D02*
X368634D01*
X300234Y165299D02*
X368576D01*
X299804Y163499D02*
X368296D01*
X300183Y164399D02*
X368279D01*
X358073Y122999D02*
X367927D01*
X359321Y109499D02*
X366679D01*
X359427Y144599D02*
X366573D01*
X359601Y157199D02*
X366399D01*
X359671Y122099D02*
X366329D01*
X359907Y110399D02*
X366093D01*
X359936Y145499D02*
X366064D01*
X359978Y156299D02*
X366022D01*
X359990Y121199D02*
X366010D01*
X360000Y155399D02*
X366000D01*
X360000Y154499D02*
X366000D01*
X360000Y153599D02*
X366000D01*
X360000Y152699D02*
X366000D01*
X360000Y151799D02*
X366000D01*
X360000Y150899D02*
X366000D01*
X360000Y149999D02*
X366000D01*
X360000Y149099D02*
X366000D01*
X360000Y148199D02*
X366000D01*
X360000Y147299D02*
X366000D01*
X360000Y146399D02*
X366000D01*
X360000Y120299D02*
X366000D01*
X360000Y119399D02*
X366000D01*
X360000Y118499D02*
X366000D01*
X360000Y117599D02*
X366000D01*
X360000Y116699D02*
X366000D01*
X360000Y115799D02*
X366000D01*
X360000Y114899D02*
X366000D01*
X360000Y113999D02*
X366000D01*
X360000Y113099D02*
X366000D01*
X360000Y112199D02*
X366000D01*
X360000Y111299D02*
X366000D01*
X298840Y162599D02*
X364600D01*
X250098Y158099D02*
X363513D01*
X363233Y224699D02*
X363494D01*
X344233Y229199D02*
X363348D01*
X248029Y161699D02*
X363337D01*
X250250Y158999D02*
X362939D01*
X249580Y160799D02*
X362869D01*
X250099Y159899D02*
X362752D01*
X343974Y228299D02*
X362576D01*
X361845Y227399D02*
X362279D01*
X343274D02*
X359155D01*
X279236Y222899D02*
X358726D01*
X278889Y226499D02*
X358194D01*
X279659Y223799D02*
X358026D01*
X279521Y225599D02*
X357816D01*
X279743Y224699D02*
X357767D01*
X343015Y169799D02*
X356485D01*
X343029Y175199D02*
X356471D01*
X344578Y170699D02*
X354922D01*
X344580Y174299D02*
X354920D01*
X345098Y171599D02*
X354402D01*
X345099Y173399D02*
X354401D01*
X345250Y172499D02*
X354250D01*
X350000Y139199D02*
X352994D01*
X350000Y143699D02*
X352848D01*
X330521Y212099D02*
X352660D01*
X283184Y216599D02*
X352223D01*
X350000Y140099D02*
X352134D01*
X350000Y142799D02*
X352076D01*
X350000Y140999D02*
X351796D01*
X350000Y141899D02*
X351779D01*
X330521Y212999D02*
X351696D01*
X283233Y215699D02*
X351525D01*
X330513Y213899D02*
X351317D01*
X329794Y214799D02*
X351266D01*
X349183Y335399D02*
X351108D01*
X125710Y339899D02*
X350011D01*
X349234Y336299D02*
X349839D01*
X148219Y338999D02*
X349438D01*
X348975Y337199D02*
X349369D01*
X348277Y338099D02*
X349252D01*
X314204Y176999D02*
X348114D01*
X314221Y177899D02*
X347480D01*
X347015Y178799D02*
X347257D01*
X313924D02*
X345985D01*
X327916Y184199D02*
X345971D01*
X151875Y333599D02*
X345160D01*
X149966Y338099D02*
X344723D01*
X313152Y179699D02*
X344422D01*
X325889Y183299D02*
X344420D01*
X151884Y334499D02*
X344196D01*
X150851Y337199D02*
X344025D01*
X277238Y180599D02*
X343902D01*
X314020Y182399D02*
X343901D01*
X151732Y335399D02*
X343817D01*
X151402Y336299D02*
X343766D01*
X313386Y181499D02*
X343750D01*
X332161Y169799D02*
X341985D01*
X313006Y175199D02*
X341971D01*
X332631Y170699D02*
X340422D01*
X263924Y174299D02*
X340420D01*
X309868Y231899D02*
X340155D01*
X332748Y171599D02*
X339902D01*
X331989Y173399D02*
X339901D01*
X332562Y172499D02*
X339750D01*
X275274Y227399D02*
X339726D01*
X310204Y230999D02*
X339194D01*
X309148Y228299D02*
X339026D01*
X310221Y230099D02*
X338816D01*
X309923Y229199D02*
X338767D01*
X272248Y245399D02*
X337655D01*
X310721Y240899D02*
X337226D01*
X272061Y244499D02*
X336694D01*
X137606Y109499D02*
X336679D01*
X319892Y258899D02*
X336655D01*
X310424Y241799D02*
X336526D01*
X310029Y157199D02*
X336399D01*
X271487Y243599D02*
X336316D01*
X309652Y242699D02*
X336267D01*
X286599Y254399D02*
X336226D01*
X138113Y110399D02*
X336093D01*
X311580Y156299D02*
X336022D01*
X312099Y155399D02*
X336000D01*
X312250Y154499D02*
X336000D01*
X312098Y153599D02*
X336000D01*
X311578Y152699D02*
X336000D01*
X310015Y151799D02*
X336000D01*
X236520Y150899D02*
X336000D01*
X235886Y149999D02*
X336000D01*
X279277Y149099D02*
X336000D01*
X279975Y148199D02*
X336000D01*
X280234Y147299D02*
X336000D01*
X280183Y146399D02*
X336000D01*
X279804Y145499D02*
X336000D01*
X278840Y144599D02*
X336000D01*
X275631Y143699D02*
X336000D01*
X275161Y142799D02*
X336000D01*
X273892Y141899D02*
X336000D01*
X218561Y140999D02*
X336000D01*
X217987Y140099D02*
X336000D01*
X308152Y139199D02*
X336000D01*
X308924Y138299D02*
X336000D01*
X309221Y137399D02*
X336000D01*
X309204Y136499D02*
X336000D01*
X308866Y135599D02*
X336000D01*
X308006Y134699D02*
X336000D01*
X301010Y133799D02*
X336000D01*
X301868Y132899D02*
X336000D01*
X302204Y131999D02*
X336000D01*
X302221Y131099D02*
X336000D01*
X301923Y130199D02*
X336000D01*
X301148Y129299D02*
X336000D01*
X249929Y128399D02*
X336000D01*
X250502Y127499D02*
X336000D01*
X250786Y126599D02*
X336000D01*
X250845Y125699D02*
X336000D01*
X250689Y124799D02*
X336000D01*
X250289Y123899D02*
X336000D01*
X249531Y122999D02*
X336000D01*
X247610Y122099D02*
X336000D01*
X249143Y121199D02*
X336000D01*
X250089Y120299D02*
X336000D01*
X250587Y119399D02*
X336000D01*
X250818Y118499D02*
X336000D01*
X250829Y117599D02*
X336000D01*
X250623Y116699D02*
X336000D01*
X250159Y115799D02*
X336000D01*
X249281Y114899D02*
X336000D01*
X139602Y113999D02*
X336000D01*
X139303Y113099D02*
X336000D01*
X138958Y112199D02*
X336000D01*
X138562Y111299D02*
X336000D01*
X102000Y257999D02*
X335694D01*
X286080Y255299D02*
X335526D01*
X102000Y257099D02*
X335316D01*
X284529Y256199D02*
X335267D01*
X312748Y168899D02*
X329108D01*
X299489Y173399D02*
X328011D01*
X312631Y169799D02*
X327839D01*
X300062Y172499D02*
X327438D01*
X312163Y170699D02*
X327369D01*
X310900Y171599D02*
X327252D01*
X314243Y183299D02*
X323111D01*
X286204Y194999D02*
X323038D01*
X314160Y184199D02*
X321084D01*
X286221Y194099D02*
X321059D01*
X313738Y185099D02*
X320052D01*
X285923Y193199D02*
X320036D01*
X312649Y185999D02*
X319374D01*
X285148Y192299D02*
X319363D01*
X282974Y214799D02*
X319206D01*
X313392Y186899D02*
X318918D01*
X314489Y191399D02*
X318911D01*
X310721Y203099D02*
X318848D01*
X314661Y187799D02*
X318634D01*
X315062Y190499D02*
X318630D01*
X315131Y188699D02*
X318496D01*
X315248Y189599D02*
X318495D01*
X282274Y213899D02*
X318487D01*
X304649Y212999D02*
X318479D01*
X305738Y212099D02*
X318479D01*
X306160Y211199D02*
X318479D01*
X306243Y210299D02*
X318479D01*
X306020Y209399D02*
X318479D01*
X305386Y208499D02*
X318479D01*
X263866Y207599D02*
X318479D01*
X263006Y206699D02*
X318479D01*
X309510Y205799D02*
X318479D01*
X310368Y204899D02*
X318479D01*
X310704Y203999D02*
X318479D01*
X102000Y258899D02*
X318108D01*
X102000Y263399D02*
X317011D01*
X102000Y259799D02*
X316839D01*
X102000Y262499D02*
X316438D01*
X102000Y260699D02*
X316369D01*
X102000Y261599D02*
X316252D01*
X278143Y221999D02*
X315851D01*
X282806Y217499D02*
X315114D01*
X246021Y221099D02*
X314762D01*
X281845Y218399D02*
X314480D01*
X246243Y220199D02*
X314340D01*
X246159Y219299D02*
X314257D01*
X292520Y186899D02*
X311608D01*
X279183Y191399D02*
X310511D01*
X291886Y185999D02*
X310351D01*
X292743Y187799D02*
X310339D01*
X263152Y175199D02*
X309994D01*
X291149Y190499D02*
X309938D01*
X292660Y188699D02*
X309869D01*
X277660Y179699D02*
X309848D01*
X292238Y189599D02*
X309752D01*
X276149Y181499D02*
X309614D01*
X248400Y185099D02*
X309262D01*
X245598Y176099D02*
X309134D01*
X300248Y171599D02*
X309100D01*
X277743Y178799D02*
X309076D01*
X236743Y151799D02*
X308985D01*
X260221Y182399D02*
X308980D01*
X249578Y157199D02*
X308971D01*
X259152Y184199D02*
X308840D01*
X276886Y176999D02*
X308796D01*
X277520Y177899D02*
X308779D01*
X259924Y183299D02*
X308757D01*
X299277Y167099D02*
X308013D01*
X300131Y170699D02*
X307837D01*
X297204Y167999D02*
X307439D01*
X236660Y152699D02*
X307422D01*
X248015Y156299D02*
X307420D01*
X299661Y169799D02*
X307369D01*
X298392Y168899D02*
X307252D01*
X236238Y153599D02*
X306902D01*
X246520Y155399D02*
X306901D01*
X245886Y154499D02*
X306750D01*
X272578Y238199D02*
X306494D01*
X259580Y205799D02*
X306490D01*
X258015Y201299D02*
X306352D01*
X271029Y242699D02*
X306348D01*
X217010Y232799D02*
X305990D01*
X275974Y228299D02*
X305852D01*
X273098Y239099D02*
X305634D01*
X260099Y204899D02*
X305632D01*
X259578Y202199D02*
X305577D01*
X272580Y241799D02*
X305576D01*
X273250Y239999D02*
X305296D01*
X260250Y203999D02*
X305296D01*
X260098Y203099D02*
X305279D01*
X273099Y240899D02*
X305279D01*
X274845Y231899D02*
X305132D01*
X276233Y229199D02*
X305077D01*
X286029Y134699D02*
X304994D01*
X148000Y139199D02*
X304848D01*
X275806Y230999D02*
X304796D01*
X276184Y230099D02*
X304779D01*
X215777Y135599D02*
X304134D01*
X148000Y138299D02*
X304076D01*
X148000Y136499D02*
X303796D01*
X148000Y137399D02*
X303779D01*
X254306Y212999D02*
X302351D01*
X264204Y208499D02*
X301614D01*
X254684Y212099D02*
X301262D01*
X264221Y209399D02*
X300980D01*
X263152Y211199D02*
X300840D01*
X263924Y210299D02*
X300757D01*
X276639Y354299D02*
X300485D01*
X277660Y359699D02*
X300471D01*
X277587Y355199D02*
X298922D01*
X278124Y358799D02*
X298920D01*
X278086Y356099D02*
X298402D01*
X278329Y357899D02*
X298401D01*
X278317Y356999D02*
X298250D01*
X287580Y133799D02*
X297990D01*
X286015Y129299D02*
X297852D01*
X151780Y288599D02*
X297660D01*
X123302Y293099D02*
X297223D01*
X288099Y132899D02*
X297132D01*
X287578Y130199D02*
X297077D01*
X288250Y131999D02*
X296796D01*
X288098Y131099D02*
X296779D01*
X151492Y289499D02*
X296696D01*
X148783Y292199D02*
X296525D01*
X150996Y290399D02*
X296317D01*
X150203Y291299D02*
X296266D01*
X148000Y162599D02*
X296160D01*
X264221Y173399D02*
X295511D01*
X255886Y163499D02*
X295196D01*
X290221Y303899D02*
X295155D01*
X264204Y172499D02*
X294938D01*
X290204Y298499D02*
X294851D01*
X256520Y164399D02*
X294817D01*
X256743Y165299D02*
X294766D01*
X263866Y171599D02*
X294752D01*
X290221Y299399D02*
X294726D01*
X290204Y302999D02*
X294194D01*
X122151Y293999D02*
X294114D01*
X285868Y195899D02*
X294108D01*
X289924Y300299D02*
X294026D01*
X289866Y302099D02*
X293816D01*
X289152Y301199D02*
X293767D01*
X289866Y297599D02*
X293762D01*
X120172Y294899D02*
X293480D01*
X289006Y296699D02*
X293340D01*
X157515Y295799D02*
X293257D01*
X234236Y200399D02*
X293011D01*
X263006Y166199D02*
X292994D01*
X263152Y170699D02*
X292848D01*
X285010Y196799D02*
X292839D01*
X233143Y199499D02*
X292438D01*
X202578Y197699D02*
X292369D01*
X203098Y198599D02*
X292252D01*
X263866Y167099D02*
X292134D01*
X263924Y169799D02*
X292076D01*
X264204Y167999D02*
X291796D01*
X264221Y168899D02*
X291779D01*
X278804Y190499D02*
X288851D01*
X277386Y185999D02*
X288114D01*
X277840Y189599D02*
X287762D01*
X278020Y186899D02*
X287480D01*
X278160Y188699D02*
X287340D01*
X278243Y187799D02*
X287257D01*
X159078Y296699D02*
X285994D01*
X102000Y305699D02*
X285848D01*
X213733Y301199D02*
X285848D01*
X213684Y302099D02*
X285134D01*
X176840Y297599D02*
X285134D01*
X102000Y304799D02*
X285076D01*
X213474Y300299D02*
X285076D01*
X248809Y129299D02*
X284985D01*
X232152Y134699D02*
X284971D01*
X213306Y302999D02*
X284796D01*
X177804Y298499D02*
X284796D01*
X212345Y303899D02*
X284779D01*
X212774Y299399D02*
X284779D01*
X195424Y250799D02*
X283485D01*
X241152Y256199D02*
X283471D01*
X232006Y130199D02*
X283422D01*
X232924Y133799D02*
X283420D01*
X271029Y328199D02*
X282994D01*
X232866Y131099D02*
X282902D01*
X233221Y132899D02*
X282901D01*
X151704Y332699D02*
X282848D01*
X233204Y131999D02*
X282750D01*
X265521Y329099D02*
X282134D01*
X151351Y331799D02*
X282076D01*
X201015Y196799D02*
X281990D01*
X241006Y251699D02*
X281922D01*
X241924Y255299D02*
X281920D01*
X279234Y192299D02*
X281852D01*
X264889Y329999D02*
X281796D01*
X150770Y330899D02*
X281779D01*
X241866Y252599D02*
X281402D01*
X242221Y254399D02*
X281401D01*
X242204Y253499D02*
X281250D01*
X210345Y195899D02*
X281132D01*
X278975Y193199D02*
X281077D01*
X211306Y194999D02*
X280796D01*
X278277Y194099D02*
X280779D01*
X151674Y344399D02*
X280608D01*
X140370Y377699D02*
X280390D01*
X261099Y348899D02*
X279511D01*
X259015Y345299D02*
X279339D01*
X210488Y384899D02*
X279191D01*
X245736Y218399D02*
X279155D01*
X261250Y347999D02*
X278938D01*
X260578Y346199D02*
X278869D01*
X261098Y347099D02*
X278752D01*
X253345Y213899D02*
X278726D01*
X140452Y378599D02*
X278469D01*
X244643Y217499D02*
X278194D01*
X210059Y383999D02*
X278071D01*
X244631Y214799D02*
X278026D01*
X242900Y216599D02*
X277816D01*
X244163Y215699D02*
X277767D01*
X140494Y379499D02*
X277711D01*
X209282Y383099D02*
X277498D01*
X140496Y380399D02*
X277311D01*
X207494Y382199D02*
X277214D01*
X140459Y381299D02*
X277155D01*
X275748Y144599D02*
X276160D01*
X245389Y221999D02*
X275857D01*
X148000Y149099D02*
X275723D01*
X242649Y226499D02*
X275111D01*
X148000Y148199D02*
X275025D01*
X148000Y147299D02*
X274766D01*
X244020Y222899D02*
X274764D01*
X211684Y194099D02*
X274723D01*
X243738Y225599D02*
X274479D01*
X244243Y223799D02*
X274341D01*
X244160Y224699D02*
X274257D01*
X200250Y190499D02*
X274196D01*
X211733Y193199D02*
X274025D01*
X263389Y181499D02*
X273851D01*
X210774Y191399D02*
X273817D01*
X211474Y192299D02*
X273766D01*
X148000Y185999D02*
X273614D01*
X200098Y189599D02*
X273262D01*
X262643Y176999D02*
X273114D01*
X148000Y186899D02*
X272980D01*
X199578Y188699D02*
X272840D01*
X264021Y180599D02*
X272762D01*
X198015Y187799D02*
X272757D01*
X263736Y177899D02*
X272480D01*
X102000Y354299D02*
X272361D01*
X264243Y179699D02*
X272340D01*
X264159Y178799D02*
X272257D01*
X217868Y231899D02*
X272155D01*
X267392Y141899D02*
X272108D01*
X215721Y227399D02*
X271726D01*
X102000Y355199D02*
X271413D01*
X218204Y230999D02*
X271194D01*
X102000Y315599D02*
X271160D01*
X217148Y228299D02*
X271026D01*
X268489Y146399D02*
X271011D01*
X102000Y356099D02*
X270914D01*
X102000Y358799D02*
X270876D01*
X268661Y142799D02*
X270839D01*
X218221Y230099D02*
X270816D01*
X217923Y229199D02*
X270767D01*
X102000Y356999D02*
X270683D01*
X102000Y357899D02*
X270671D01*
X102000Y272399D02*
X270608D01*
X269062Y145499D02*
X270438D01*
X269131Y143699D02*
X270369D01*
X269248Y144599D02*
X270252D01*
X102000Y316499D02*
X270196D01*
X270006Y319199D02*
X270025D01*
X265743Y237299D02*
X269985D01*
X265743Y328199D02*
X269971D01*
X161329Y242699D02*
X269971D01*
X102000Y317399D02*
X269817D01*
X102000Y318299D02*
X269766D01*
X102000Y276899D02*
X269511D01*
X122847Y359699D02*
X269494D01*
X133060Y364199D02*
X269348D01*
X102000Y273299D02*
X269339D01*
X102000Y275999D02*
X268938D01*
X102000Y274199D02*
X268869D01*
X102000Y275099D02*
X268752D01*
X126621Y360599D02*
X268634D01*
X219777Y248099D02*
X268600D01*
X131888Y363299D02*
X268576D01*
X265660Y238199D02*
X268422D01*
X265659Y327299D02*
X268420D01*
X212510Y241799D02*
X268420D01*
X121231Y280499D02*
X268357D01*
X128829Y361499D02*
X268296D01*
X130509Y362399D02*
X268279D01*
X102000Y324599D02*
X267902D01*
X265238Y239099D02*
X267902D01*
X265236Y326399D02*
X267901D01*
X213368Y240899D02*
X267901D01*
X264143Y325499D02*
X267750D01*
X264149Y239999D02*
X267750D01*
X151245Y284999D02*
X267611D01*
X219340Y243599D02*
X267513D01*
X220475Y247199D02*
X267337D01*
X122715Y281399D02*
X267264D01*
X102000Y319199D02*
X266994D01*
X150600Y284099D02*
X266979D01*
X220304Y244499D02*
X266939D01*
X220734Y246299D02*
X266869D01*
X102000Y323699D02*
X266848D01*
X123693Y282299D02*
X266841D01*
X149540Y283199D02*
X266757D01*
X220683Y245399D02*
X266752D01*
X102000Y320099D02*
X266134D01*
X102000Y322799D02*
X266076D01*
X102000Y320999D02*
X265796D01*
X102000Y321899D02*
X265779D01*
X218748Y141899D02*
X265608D01*
X148000Y146399D02*
X264511D01*
X218631Y142799D02*
X264339D01*
X148000Y145499D02*
X263938D01*
X218163Y143699D02*
X263869D01*
X216900Y144599D02*
X263752D01*
X102000Y325499D02*
X261857D01*
X213704Y239999D02*
X261851D01*
X247204Y235499D02*
X261114D01*
X149831Y329999D02*
X261111D01*
X102000Y326399D02*
X260764D01*
X213721Y239099D02*
X260762D01*
X247221Y236399D02*
X260480D01*
X147799Y329099D02*
X260479D01*
X245750Y176999D02*
X260357D01*
X102000Y327299D02*
X260341D01*
X246152Y238199D02*
X260340D01*
X246924Y237299D02*
X260257D01*
X102000Y328199D02*
X260257D01*
X258029Y206699D02*
X259994D01*
X256660Y166199D02*
X259994D01*
X254733Y211199D02*
X259848D01*
X245078Y175199D02*
X259848D01*
X236152Y170699D02*
X259848D01*
X245599Y177899D02*
X259264D01*
X255738Y207599D02*
X259134D01*
X175738Y171599D02*
X259134D01*
X256238Y167099D02*
X259134D01*
X254474Y210299D02*
X259076D01*
X243515Y174299D02*
X259076D01*
X236924Y169799D02*
X259076D01*
X252515Y178799D02*
X258841D01*
X254649Y208499D02*
X258796D01*
X178643Y172499D02*
X258796D01*
X255149Y167999D02*
X258796D01*
X253774Y209399D02*
X258779D01*
X179736Y173399D02*
X258779D01*
X237221Y168899D02*
X258779D01*
X151864Y345299D02*
X257985D01*
X148527Y350699D02*
X257971D01*
X234659Y201299D02*
X256985D01*
X256160Y206699D02*
X256971D01*
X151891Y346199D02*
X256422D01*
X150088Y349799D02*
X256420D01*
X254078Y179699D02*
X255994D01*
X151757Y347099D02*
X255902D01*
X150925Y348899D02*
X255901D01*
X252529Y184199D02*
X255848D01*
X151448Y347999D02*
X255750D01*
X234743Y202199D02*
X255422D01*
X254598Y180599D02*
X255134D01*
X254080Y183299D02*
X255076D01*
X234521Y203099D02*
X254902D01*
X254750Y181499D02*
X254796D01*
X254599Y182399D02*
X254779D01*
X237204Y167999D02*
X252851D01*
X174704Y208499D02*
X252351D01*
X148000Y163499D02*
X252114D01*
X236866Y167099D02*
X251762D01*
X233889Y203999D02*
X251614D01*
X245080Y178799D02*
X251485D01*
X148000Y164399D02*
X251480D01*
X249663Y184199D02*
X251471D01*
X236006Y166199D02*
X251340D01*
X174721Y207599D02*
X251262D01*
X148000Y165299D02*
X251257D01*
X178345Y204899D02*
X250980D01*
X174423Y206699D02*
X250840D01*
X174510Y205799D02*
X250757D01*
X244748Y213899D02*
X250655D01*
X174368Y209399D02*
X250226D01*
X245078Y179699D02*
X249922D01*
X244561Y212999D02*
X249694D01*
X173510Y210299D02*
X249526D01*
X243987Y212099D02*
X249316D01*
X148000Y211199D02*
X249267D01*
X246743Y156299D02*
X246985D01*
X148000Y161699D02*
X246971D01*
X238277Y185099D02*
X246600D01*
X189590Y122099D02*
X246390D01*
X148000Y160799D02*
X245420D01*
X243529Y184199D02*
X245337D01*
X189315Y129299D02*
X245191D01*
X159845Y159899D02*
X244901D01*
X189491Y121199D02*
X244857D01*
X139855Y114899D02*
X244719D01*
X189553Y122999D02*
X244469D01*
X189567Y128399D02*
X244071D01*
X189095Y120299D02*
X243911D01*
X140065Y115799D02*
X243841D01*
X189267Y123899D02*
X243711D01*
X189590Y127499D02*
X243498D01*
X188204Y119399D02*
X243413D01*
X140232Y116699D02*
X243377D01*
X188591Y124799D02*
X243311D01*
X189463Y126599D02*
X243214D01*
X140445Y118499D02*
X243182D01*
X140359Y117599D02*
X243171D01*
X189028Y125699D02*
X243155D01*
X160029Y233699D02*
X242994D01*
X160806Y158999D02*
X242851D01*
X213423Y238199D02*
X242848D01*
X180159Y174299D02*
X242485D01*
X238975Y184199D02*
X242471D01*
X208204Y217499D02*
X242357D01*
X148000Y234599D02*
X242134D01*
X235149Y154499D02*
X242114D01*
X212648Y237299D02*
X242076D01*
X148000Y235499D02*
X241796D01*
X159010Y236399D02*
X241779D01*
X161184Y158099D02*
X241762D01*
X160274Y155399D02*
X241480D01*
X161233Y157199D02*
X241340D01*
X208221Y218399D02*
X241264D01*
X160974Y156299D02*
X241257D01*
X229777Y216599D02*
X241100D01*
X203277Y221099D02*
X240979D01*
X225152Y179699D02*
X240922D01*
X225006Y175199D02*
X240922D01*
X239234Y183299D02*
X240920D01*
X225924Y178799D02*
X240920D01*
X207924Y219299D02*
X240841D01*
X207152Y220199D02*
X240757D01*
X237840Y180599D02*
X240402D01*
X225866Y176099D02*
X240402D01*
X239183Y182399D02*
X240401D01*
X226221Y177899D02*
X240401D01*
X215704Y226499D02*
X240351D01*
X238804Y181499D02*
X240250D01*
X226204Y176999D02*
X240250D01*
X229340Y212099D02*
X240013D01*
X230475Y215699D02*
X239837D01*
X186389Y221999D02*
X239614D01*
X230304Y212999D02*
X239439D01*
X230734Y214799D02*
X239369D01*
X215366Y225599D02*
X239262D01*
X230683Y213899D02*
X239252D01*
X148000Y222899D02*
X238980D01*
X214506Y224699D02*
X238840D01*
X186648Y223799D02*
X238757D01*
X194652Y251699D02*
X237994D01*
X102000Y256199D02*
X237848D01*
X102000Y252599D02*
X237134D01*
X102000Y255299D02*
X237076D01*
X102000Y253499D02*
X236796D01*
X102000Y254399D02*
X236779D01*
X189238Y180599D02*
X235160D01*
X148000Y185099D02*
X234723D01*
X188149Y181499D02*
X234196D01*
X148000Y184199D02*
X234025D01*
X148000Y182399D02*
X233817D01*
X148000Y183299D02*
X233766D01*
X148000Y166199D02*
X232994D01*
X148000Y154499D02*
X232851D01*
X176160Y170699D02*
X232848D01*
X148000Y167099D02*
X232134D01*
X148000Y149999D02*
X232114D01*
X176243Y169799D02*
X232076D01*
X175386Y167999D02*
X231796D01*
X176020Y168899D02*
X231779D01*
X148000Y153599D02*
X231762D01*
X148000Y150899D02*
X231480D01*
X148000Y152699D02*
X231340D01*
X148000Y151799D02*
X231257D01*
X203250Y199499D02*
X230857D01*
X179306Y203999D02*
X230111D01*
X203099Y200399D02*
X229764D01*
X179684Y203099D02*
X229479D01*
X202580Y201299D02*
X229341D01*
X201029Y202199D02*
X229257D01*
X188695Y130199D02*
X228994D01*
X216475Y134699D02*
X228848D01*
X215340Y131099D02*
X228134D01*
X216734Y133799D02*
X228076D01*
X216304Y131999D02*
X227796D01*
X216683Y132899D02*
X227779D01*
X148000Y212099D02*
X226660D01*
X207866Y216599D02*
X226223D01*
X148000Y212999D02*
X225696D01*
X207006Y215699D02*
X225525D01*
X148000Y213899D02*
X225317D01*
X178648Y214799D02*
X225266D01*
X180243Y175199D02*
X221994D01*
X189660Y179699D02*
X221848D01*
X180021Y176099D02*
X221134D01*
X189743Y178799D02*
X221076D01*
X188886Y176999D02*
X220796D01*
X189520Y177899D02*
X220779D01*
X160209Y243599D02*
X216660D01*
X195366Y248099D02*
X216223D01*
X102000Y244499D02*
X215696D01*
X194506Y247199D02*
X215525D01*
X102000Y245399D02*
X215317D01*
X102000Y246299D02*
X215266D01*
X148000Y144599D02*
X215100D01*
X148000Y140099D02*
X214013D01*
X161580Y232799D02*
X213990D01*
X148000Y143699D02*
X213837D01*
X148000Y140999D02*
X213439D01*
X148000Y142799D02*
X213369D01*
X148000Y141899D02*
X213252D01*
X162099Y231899D02*
X213132D01*
X162250Y230999D02*
X212796D01*
X162098Y230099D02*
X212779D01*
X186805Y131099D02*
X212660D01*
X148000Y135599D02*
X212223D01*
X148000Y131999D02*
X211696D01*
X148000Y134699D02*
X211525D01*
X187423Y224699D02*
X211494D01*
X161578Y229199D02*
X211348D01*
X148000Y132899D02*
X211317D01*
X148000Y133799D02*
X211266D01*
X187721Y225599D02*
X210634D01*
X186510Y228299D02*
X210576D01*
X187704Y226499D02*
X210296D01*
X187368Y227399D02*
X210279D01*
X102000Y303899D02*
X209655D01*
X161902Y241799D02*
X209490D01*
X160931Y237299D02*
X209352D01*
X178183Y299399D02*
X209226D01*
X102000Y302999D02*
X208694D01*
X162186Y240899D02*
X208632D01*
X161689Y238199D02*
X208577D01*
X178234Y300299D02*
X208526D01*
X177277Y302099D02*
X208316D01*
X162245Y239999D02*
X208296D01*
X162089Y239099D02*
X208279D01*
X177975Y301199D02*
X208267D01*
X148000Y195899D02*
X207655D01*
X200099Y191399D02*
X207226D01*
X148000Y194999D02*
X206694D01*
X199580Y192299D02*
X206526D01*
X183035Y390299D02*
X206495D01*
X194777Y194099D02*
X206316D01*
X198029Y193199D02*
X206267D01*
X140382Y382199D02*
X205706D01*
X183925Y389399D02*
X204035D01*
X179423Y215699D02*
X203994D01*
X181861Y383099D02*
X203918D01*
X184416Y388499D02*
X203205D01*
X183393Y383999D02*
X203141D01*
X202840Y216599D02*
X203134D01*
X184656Y387599D02*
X202746D01*
X184121Y384899D02*
X202712D01*
X184689Y386699D02*
X202530D01*
X184520Y385799D02*
X202520D01*
X179721Y216599D02*
X200160D01*
X186648Y196799D02*
X199985D01*
X179733Y202199D02*
X199971D01*
X187021Y221099D02*
X199723D01*
X185643Y217499D02*
X199196D01*
X187243Y220199D02*
X199025D01*
X186736Y218399D02*
X198817D01*
X187159Y219299D02*
X198766D01*
X187423Y197699D02*
X198422D01*
X186510Y201299D02*
X198420D01*
X187721Y198599D02*
X197902D01*
X187368Y200399D02*
X197901D01*
X187704Y199499D02*
X197750D01*
X148000Y187799D02*
X196985D01*
X195475Y193199D02*
X196971D01*
X148000Y188699D02*
X195422D01*
X194340Y189599D02*
X194902D01*
X148000D02*
X191660D01*
X102000Y247199D02*
X191494D01*
X102000Y251699D02*
X191348D01*
X148000Y194099D02*
X191223D01*
X148000Y190499D02*
X190696D01*
X102000Y248099D02*
X190634D01*
X102000Y250799D02*
X190576D01*
X148000Y193199D02*
X190525D01*
X148000Y191399D02*
X190317D01*
X102000Y248999D02*
X190296D01*
X102000Y249899D02*
X190279D01*
X148000Y192299D02*
X190266D01*
X181805Y131099D02*
X186195D01*
X148000Y181499D02*
X185851D01*
X179389Y176999D02*
X185114D01*
X183204Y119399D02*
X184796D01*
X148000Y180599D02*
X184762D01*
X148000Y177899D02*
X184480D01*
X148000Y179699D02*
X184340D01*
X183695Y130199D02*
X184305D01*
X148000Y178799D02*
X184257D01*
X160015Y228299D02*
X183490D01*
X179474Y201299D02*
X183490D01*
X179704Y217499D02*
X183357D01*
X148000Y223799D02*
X183352D01*
X171148Y196799D02*
X183352D01*
X148000Y227399D02*
X182632D01*
X178774Y200399D02*
X182632D01*
X148000Y221999D02*
X182611D01*
X148000Y224699D02*
X182577D01*
X171923Y197699D02*
X182577D01*
X148000Y226499D02*
X182296D01*
X172204Y199499D02*
X182296D01*
X148000Y225599D02*
X182279D01*
X172221Y198599D02*
X182279D01*
X179368Y218399D02*
X182264D01*
X148000Y221099D02*
X181979D01*
X178510Y219299D02*
X181841D01*
X148000Y220199D02*
X181757D01*
X176805Y131099D02*
X181195D01*
X178204Y119399D02*
X179796D01*
X157631Y383099D02*
X179339D01*
X178695Y130199D02*
X179305D01*
X156469Y390299D02*
X178165D01*
X158523Y383999D02*
X177807D01*
X157996Y389399D02*
X177275D01*
X159015Y384899D02*
X177079D01*
X158722Y388499D02*
X176784D01*
X159256Y385799D02*
X176680D01*
X159121Y387599D02*
X176544D01*
X159289Y386699D02*
X176511D01*
X174649Y172499D02*
X176357D01*
X171805Y131099D02*
X176195D01*
X175368Y204899D02*
X175655D01*
X172889Y176999D02*
X175611D01*
X148000Y219299D02*
X175490D01*
X148000Y214799D02*
X175352D01*
X173236Y173399D02*
X175264D01*
X171868Y200399D02*
X175226D01*
X173521Y176099D02*
X174979D01*
X173659Y174299D02*
X174841D01*
X173204Y119399D02*
X174796D01*
X173743Y175199D02*
X174757D01*
X148000Y218399D02*
X174632D01*
X148000Y215699D02*
X174577D01*
X173695Y130199D02*
X174305D01*
X148000Y217499D02*
X174296D01*
X148000Y216599D02*
X174279D01*
X159598Y297599D02*
X174160D01*
X102000Y302099D02*
X173723D01*
X102000Y270599D02*
X173600D01*
X159750Y298499D02*
X173196D01*
X157529Y301199D02*
X173025D01*
X159599Y299399D02*
X172817D01*
X159080Y300299D02*
X172766D01*
X102000Y266099D02*
X172513D01*
X172143Y172499D02*
X172351D01*
X102000Y269699D02*
X172337D01*
X102000Y266999D02*
X171939D01*
X102000Y268799D02*
X171869D01*
X102000Y267899D02*
X171752D01*
X148000Y167999D02*
X171614D01*
X171010Y201299D02*
X171352D01*
X148000Y171599D02*
X171262D01*
X166805Y131099D02*
X171195D01*
X148000Y168899D02*
X170980D01*
X148000Y170699D02*
X170840D01*
X148000Y169799D02*
X170757D01*
X148000Y204899D02*
X170632D01*
X148000Y202199D02*
X170577D01*
X148000Y210299D02*
X170490D01*
X148000Y205799D02*
X170352D01*
X148000Y203999D02*
X170296D01*
X148000Y203099D02*
X170279D01*
X148000Y172499D02*
X169857D01*
X169583Y119399D02*
X169796D01*
X148000Y209399D02*
X169632D01*
X148000Y206699D02*
X169577D01*
X168695Y130199D02*
X169305D01*
X148000Y208499D02*
X169296D01*
X148000Y207599D02*
X169279D01*
X148000Y176999D02*
X169111D01*
X148000Y173399D02*
X168764D01*
X148000Y176099D02*
X168479D01*
X148000Y174299D02*
X168341D01*
X148000Y175199D02*
X168257D01*
X148000Y201299D02*
X167990D01*
X148000Y196799D02*
X167852D01*
X148000Y200399D02*
X167132D01*
X148000Y197699D02*
X167077D01*
X148000Y199499D02*
X166796D01*
X148000Y198599D02*
X166779D01*
X148000Y131099D02*
X166195D01*
X148000Y130199D02*
X164305D01*
X139692Y125699D02*
X163972D01*
X138270Y129299D02*
X163685D01*
X139409Y126599D02*
X163537D01*
X138701Y128399D02*
X163433D01*
X140491Y119399D02*
X163417D01*
X139079Y127499D02*
X163410D01*
X139930Y124799D02*
X163410D01*
X140126Y123899D02*
X163410D01*
X140280Y122999D02*
X163410D01*
X140392Y122099D02*
X163410D01*
X140465Y121199D02*
X163410D01*
X140498Y120299D02*
X163410D01*
X148000Y228299D02*
X158985D01*
X148000Y233699D02*
X158971D01*
X151110Y236399D02*
X157790D01*
X148000Y229199D02*
X157422D01*
X148000Y232799D02*
X157420D01*
X148000Y159899D02*
X157155D01*
X148000Y230099D02*
X156902D01*
X148000Y231899D02*
X156901D01*
X148000Y230999D02*
X156750D01*
X148000Y155399D02*
X156726D01*
X152309Y243599D02*
X156591D01*
X102000Y295799D02*
X156485D01*
X102000Y301199D02*
X156471D01*
X148000Y158999D02*
X156194D01*
X148000Y156299D02*
X156026D01*
X153031Y237299D02*
X155869D01*
X148000Y158099D02*
X155816D01*
X148000Y157199D02*
X155767D01*
X153429Y242699D02*
X155471D01*
X153789Y238199D02*
X155111D01*
X102000Y296699D02*
X154922D01*
X102000Y300299D02*
X154920D01*
X154002Y241799D02*
X154898D01*
X154189Y239099D02*
X154711D01*
X154286Y240899D02*
X154614D01*
X154345Y239999D02*
X154555D01*
X102000Y297599D02*
X154402D01*
X102000Y299399D02*
X154401D01*
X102000Y298499D02*
X154250D01*
X137725Y390299D02*
X153931D01*
X140264Y383099D02*
X152769D01*
X138219Y389399D02*
X152404D01*
X140106Y383999D02*
X151877D01*
X138655Y388499D02*
X151678D01*
X139906Y384899D02*
X151385D01*
X139040Y387599D02*
X151279D01*
X139663Y385799D02*
X151144D01*
X139375Y386699D02*
X151111D01*
X102000Y236399D02*
X149890D01*
X102000Y243599D02*
X148691D01*
X102000Y237299D02*
X147969D01*
X102000Y242699D02*
X147571D01*
X102000Y238199D02*
X147211D01*
X102000Y241799D02*
X146998D01*
X102000Y239099D02*
X146811D01*
X102000Y240899D02*
X146714D01*
X102000Y239999D02*
X146655D01*
X135999Y329099D02*
X145801D01*
X136419Y338999D02*
X145381D01*
X136727Y350699D02*
X145073D01*
X136983Y292199D02*
X144817D01*
X137740Y283199D02*
X144060D01*
X137891Y341699D02*
X143909D01*
X138031Y329999D02*
X143769D01*
X138166Y338099D02*
X143634D01*
X138288Y349799D02*
X143512D01*
X138403Y291299D02*
X143397D01*
X138800Y284099D02*
X143000D01*
X138887Y342599D02*
X142913D01*
X138970Y330899D02*
X142830D01*
X139051Y337199D02*
X142749D01*
X139125Y348899D02*
X142675D01*
X139196Y290399D02*
X142604D01*
X139445Y284999D02*
X142355D01*
X139499Y343499D02*
X142301D01*
X139551Y331799D02*
X142249D01*
X139602Y336299D02*
X142198D01*
X139648Y347999D02*
X142152D01*
X139692Y289499D02*
X142108D01*
X139842Y285899D02*
X141958D01*
X139874Y344399D02*
X141926D01*
X139904Y332699D02*
X141896D01*
X139932Y335399D02*
X141868D01*
X139957Y347099D02*
X141843D01*
X139980Y288599D02*
X141820D01*
X140052Y286799D02*
X141748D01*
X140064Y345299D02*
X141736D01*
X140075Y333599D02*
X141725D01*
X140084Y334499D02*
X141716D01*
X140091Y346199D02*
X141709D01*
X140096Y287699D02*
X141704D01*
X102000Y329099D02*
X134001D01*
X125646Y338999D02*
X133581D01*
X102000Y350699D02*
X133273D01*
X124114Y292199D02*
X133017D01*
X124400Y283199D02*
X132260D01*
X125522Y341699D02*
X132109D01*
X102000Y329999D02*
X131969D01*
X125473Y338099D02*
X131834D01*
X102000Y349799D02*
X131712D01*
X124710Y291299D02*
X131597D01*
X124920Y284099D02*
X131200D01*
X125260Y342599D02*
X131113D01*
X102000Y330899D02*
X131030D01*
X125184Y337199D02*
X130949D01*
X102000Y348899D02*
X130875D01*
X125145Y290399D02*
X130804D01*
X125294Y284999D02*
X130555D01*
X124872Y343499D02*
X130501D01*
X102000Y331799D02*
X130449D01*
X124765Y336299D02*
X130398D01*
X102000Y347999D02*
X130352D01*
X125447Y289499D02*
X130308D01*
X125543Y285899D02*
X130158D01*
X124333Y344399D02*
X130126D01*
X120480Y332699D02*
X130096D01*
X124188Y335399D02*
X130068D01*
X121011Y347099D02*
X130043D01*
X125632Y288599D02*
X130020D01*
X125679Y286799D02*
X129948D01*
X123602Y345299D02*
X129936D01*
X122299Y333599D02*
X129925D01*
X123403Y334499D02*
X129916D01*
X122587Y346199D02*
X129909D01*
X125708Y287699D02*
X129904D01*
X102000Y359699D02*
X117153D01*
X102000Y294899D02*
X115828D01*
X102000Y332699D02*
X115520D01*
X102000Y347099D02*
X114989D01*
X102000Y280499D02*
X114769D01*
X102000Y293999D02*
X113849D01*
X102000Y333599D02*
X113701D01*
X102000Y346199D02*
X113413D01*
X102000Y360599D02*
X113379D01*
X102000Y281399D02*
X113285D01*
X102000Y293099D02*
X112698D01*
X102000Y334499D02*
X112597D01*
X102000Y345299D02*
X112398D01*
X102000Y282299D02*
X112307D01*
X102000Y292199D02*
X111886D01*
X102000Y335399D02*
X111812D01*
X102000Y344399D02*
X111667D01*
X102000Y283199D02*
X111600D01*
X102000Y291299D02*
X111290D01*
X102000Y336299D02*
X111235D01*
X102000Y361499D02*
X111171D01*
X102000Y343499D02*
X111128D01*
X102000Y284099D02*
X111080D01*
X102000Y290399D02*
X110855D01*
X102000Y337199D02*
X110816D01*
X102000Y342599D02*
X110740D01*
X102000Y284999D02*
X110706D01*
X102000Y289499D02*
X110553D01*
X102000Y338099D02*
X110527D01*
X102000Y341699D02*
X110478D01*
X102000Y285899D02*
X110457D01*
X102000Y288599D02*
X110368D01*
X102000Y338999D02*
X110354D01*
X102000Y340799D02*
X110330D01*
X102000Y286799D02*
X110321D01*
X102000Y287699D02*
X110292D01*
X102000Y339899D02*
X110290D01*
X102000Y362399D02*
X109491D01*
X102000Y363299D02*
X108112D01*
X102000Y364199D02*
X106940D01*
X102000Y365099D02*
X105922D01*
X102000Y365999D02*
X105026D01*
X102000Y366899D02*
X104233D01*
X102000Y367799D02*
X103526D01*
X102000Y368699D02*
X102896D01*
X102000Y369599D02*
X102335D01*
G54D16*
X465000Y175300D03*
Y151700D03*
G54D22*
X405400Y114400D03*
X206600Y386200D03*
G54D38*
X408299Y117299D02*
X407521Y116521D01*
X402501Y117299D02*
X403279Y116521D01*
X402501Y111501D02*
X403279Y112279D01*
X408299Y111501D02*
X407521Y112279D01*
X209499Y389099D02*
X208721Y388321D01*
X203701Y389099D02*
X204479Y388321D01*
X203701Y383301D02*
X204479Y384079D01*
X209499Y383301D02*
X208721Y384079D01*
X249722Y120722D02*
X248945Y119945D01*
X249722Y115278D02*
X248945Y116055D01*
X244278Y115278D02*
X245055Y116055D01*
X244278Y120722D02*
X245055Y119945D01*
X461394Y155306D02*
X462172Y154528D01*
X461394Y148094D02*
X462172Y148872D01*
X468606Y148094D02*
X467828Y148872D01*
X468606Y155306D02*
X467828Y154528D01*
X461394Y178906D02*
X462172Y178128D01*
X461394Y171694D02*
X462172Y172472D01*
X468606Y171694D02*
X467828Y172472D01*
X468606Y178906D02*
X467828Y178128D01*
X461394Y349506D02*
X462172Y348728D01*
X468606Y349506D02*
X467828Y348728D01*
X468606Y342294D02*
X467828Y343072D01*
X461394Y342294D02*
X462172Y343072D01*
X461394Y292006D02*
X462172Y291228D01*
X468606Y292006D02*
X467828Y291228D01*
X468606Y284794D02*
X467828Y285572D01*
X461394Y284794D02*
X462172Y285572D01*
X138606Y283894D02*
X137828Y284672D01*
X131394Y283894D02*
X132172Y284672D01*
X131394Y291106D02*
X132172Y290328D01*
X138606Y291106D02*
X137828Y290328D01*
X138606Y330494D02*
X137828Y331272D01*
X131394Y330494D02*
X132172Y331272D01*
X131394Y337706D02*
X132172Y336928D01*
X138606Y337706D02*
X137828Y336928D01*
X178685Y119791D02*
X177907Y120569D01*
X174315Y119791D02*
X175093Y120569D01*
X461394Y238006D02*
X462172Y237228D01*
X468606Y238006D02*
X467828Y237228D01*
X468606Y230794D02*
X467828Y231572D01*
X461394Y230794D02*
X462172Y231572D01*
X318801Y214542D02*
X321020Y212322D01*
X330199Y214542D02*
X327980Y212322D01*
X330199Y203143D02*
X327980Y205363D01*
X318801Y203143D02*
X321020Y205363D01*
X173685Y119791D02*
X172907Y120569D01*
X188685Y119791D02*
X187907Y120569D01*
X184315Y119791D02*
X185093Y120569D01*
G54D65*
X425000Y257000D03*
X181500Y284500D03*
X395000Y272000D03*
X276000Y288500D03*
X205500Y315000D03*
X249000Y318500D03*
X257000Y310500D03*
X392500Y322000D03*
X423500Y310500D03*
X238000Y337000D03*
X449500Y368000D03*
X314000Y373500D03*
G54D87*
G54D101*
X247000Y118000D03*
G54D128*
X465000Y234400D03*
X135000Y334100D03*
Y287500D03*
X465000Y288400D03*
Y345900D03*
G54D298*
X324500Y208843D03*
G54D299*
X363000Y124000D03*
X447000Y125500D03*
X127000Y146500D03*
X205000Y133500D03*
X243500Y146000D03*
X263500Y131500D03*
X294000Y147500D03*
X294500Y133000D03*
X326500Y137500D03*
X371500Y142000D03*
X417000Y136000D03*
X140500Y166000D03*
X155000D03*
X249500Y155000D03*
X294500Y161500D03*
X127000Y173500D03*
X171000Y181000D03*
X222000Y168500D03*
X278000Y184500D03*
X303500Y178000D03*
X221500Y195000D03*
X369000Y194000D03*
X412000Y204500D03*
X118000Y209000D03*
X142000Y223000D03*
X187000Y208500D03*
X196000Y217000D03*
X215500Y215000D03*
X356500Y219500D03*
X414500Y224000D03*
X129000Y240000D03*
X150500Y229000D03*
X178000Y230500D03*
X242000Y242000D03*
X252000Y244000D03*
X297500Y248000D03*
X114500Y259500D03*
X163000Y260000D03*
X200500Y252000D03*
X241500Y264500D03*
X368500Y263000D03*
X354500Y262000D03*
X140000Y272000D03*
X218000Y274500D03*
X261500Y273000D03*
X286000Y274000D03*
X354500Y282500D03*
X159000Y294000D03*
X181500Y305500D03*
X193000Y328500D03*
X264000Y340500D03*
X275500D03*
X269000Y352500D03*
G54D328*
X171500Y122250D03*
X176500D03*
X186500D03*
G74*
X0Y0D02*
M02*
