*
*
G04 PADS VX.1.1 Build Number: 678707 generated Gerber (RS-274-X) file*
G04 PC Version=2.1*
*
%IN "pCO2SensorBoard1_4_3.pc"*%
*
%MOIN*%
*
%FSLAX35Y35*%
*
*
*
*
G04 PC Standard Apertures*
*
*
G04 Thermal Relief Aperture macro.*
%AMTER*
1,1,$1,0,0*
1,0,$1-$2,0,0*
21,0,$3,$4,0,0,45*
21,0,$3,$4,0,0,135*
%
*
*
G04 Annular Aperture macro.*
%AMANN*
1,1,$1,0,0*
1,0,$2,0,0*
%
*
*
G04 Odd Aperture macro.*
%AMODD*
1,1,$1,0,0*
1,0,$1-0.005,0,0*
%
*
*
G04 PC Custom Aperture Macros*
*
*
*
*
*
*
G04 PC Aperture Table*
*
%ADD010C,0.008*%
%ADD011C,0.01*%
%ADD015R,0.08X0.08*%
%ADD016C,0.08*%
%ADD034R,0.055X0.055*%
%ADD036C,0.02*%
%ADD038C,0.015*%
%ADD042C,0.04*%
%ADD043C,0.05*%
%ADD044C,0.025*%
%ADD045C,0.012*%
%ADD061R,0.036X0.036*%
%ADD065C,0.055*%
%ADD068C,0.035*%
%ADD077C,0.03*%
%ADD087C,0.001*%
%ADD090R,0.06X0.05*%
%ADD091R,0.03898X0.02835*%
%ADD094R,0.0374X0.01969*%
%ADD095R,0.05X0.06*%
%ADD098C,0.04921*%
%ADD099C,0.06102*%
%ADD100R,0.05906X0.05906*%
%ADD101O,0.055X0.055*%
%ADD104R,0.09449X0.05906*%
%ADD105R,0.0252X0.02756*%
%ADD106R,0.04724X0.04724*%
%ADD108O,0.02559X0.00984*%
%ADD109R,0.06693X0.09843*%
%ADD110R,0.00984X0.04921*%
%ADD111R,0.04921X0.00984*%
%ADD115R,0.03937X0.01378*%
%ADD116R,0.01378X0.03937*%
%ADD117R,0.12598X0.12598*%
%ADD121R,0.055X0.03*%
%ADD122R,0.01181X0.02756*%
%ADD123R,0.02756X0.01181*%
%ADD131R,0.02756X0.0252*%
%ADD132R,0.05315X0.02362*%
%ADD134R,0.01969X0.0374*%
%ADD215O,0.046X0.025*%
%ADD216R,0.04X0.027*%
%ADD219R,0.13386X0.13386*%
%ADD221R,0.02598X0.01969*%
%ADD222R,0.024X0.074*%
%ADD223O,0.024X0.074*%
%ADD236C,0.065*%
%ADD282R,0.064X0.066*%
%ADD283R,0.066X0.064*%
%ADD284R,0.05315X0.01575*%
%ADD287R,0.05X0.036*%
%ADD288O,0.016X0.04*%
%ADD289R,0.016X0.04*%
%ADD290O,0.035X0.012*%
%ADD291R,0.074X0.024*%
%ADD292O,0.074X0.024*%
%ADD295R,0.02165X0.01575*%
%ADD297C,0.09843*%
%ADD298R,0.09843X0.09843*%
%ADD299C,0.033*%
%ADD327R,0.0398X0.04528*%
%ADD328O,0.0398X0.04528*%
%ADD383R,0.09X0.125*%
%ADD386R,0.15748X0.11811*%
%ADD387R,0.00984X0.0315*%
%ADD388R,0.16929X0.09449*%
%ADD393R,0.03543X0.04331*%
%ADD394R,0.03937X0.02953*%
%ADD395R,0.07874X0.01575*%
%ADD396R,0.22047X0.08268*%
%ADD419R,0.1X0.06*%
%ADD423R,0.125X0.09*%
%ADD463R,0.0095X0.028*%
%ADD464R,0.028X0.0095*%
%ADD465R,0.061X0.061*%
%ADD471R,0.1X0.138*%
%ADD495R,0.075X0.025*%
%ADD496O,0.075X0.025*%
%ADD497C,0.3*%
%ADD498C,0.00394*%
*
*
*
*
G04 PC Circuitry*
G04 Layer Name pCO2SensorBoard1_4_3.pc - circuitry*
%LPD*%
*
*
G04 PC Custom Flashes*
G04 Layer Name pCO2SensorBoard1_4_3.pc - flashes*
%LPD*%
*
*
G04 PC Circuitry*
G04 Layer Name pCO2SensorBoard1_4_3.pc - circuitry*
%LPD*%
*
G54D10*
G01X243500Y146000D02*
X246150D01*
Y148650*
X246453Y151062*
Y151465*
X303547Y148484D02*
X307444D01*
X314400Y155440*
Y171527*
X311500Y177500D02*
Y174427D01*
X314400Y171527*
X261201Y190500D02*
X261467D01*
X252142Y198417D02*
Y196019D01*
X253275Y194886*
X257465*
X261467Y190884*
Y190500*
X250173Y198417D02*
Y195866D01*
X252624Y193415*
X254703*
X257500Y190618*
Y190500*
X187000Y208500D02*
Y209000D01*
G54D11*
X148207Y167823D02*
X148974D01*
X149468Y167329*
Y164593*
X148974Y164099*
X148207*
X147712Y164593*
Y167329*
X148207Y167823*
X147712Y165000D02*
X149468D01*
X147712Y166000D02*
X149468D01*
X147712Y167000D02*
X149468D01*
X148000Y164306D02*
Y167617D01*
X149000Y164125D02*
Y167797D01*
X144270Y167823D02*
X145037D01*
X145531Y167329*
Y164593*
X145037Y164099*
X144270*
X143775Y164593*
Y167329*
X144270Y167823*
X143775Y165000D02*
X145531D01*
X143775Y166000D02*
X145531D01*
X143775Y167000D02*
X145531D01*
X144000Y164369D02*
Y167554D01*
X145000Y164099D02*
Y167823D01*
X208000Y107500D02*
Y116000D01*
X236000Y107500D02*
Y115000D01*
X166500Y127500D02*
Y167426D01*
X171000Y171926*
Y175000*
X186500Y127500D02*
Y128024D01*
X193000Y134524*
Y192000*
X181500Y127500D02*
Y173500D01*
X187000Y179000*
X181500Y122500D02*
Y121976D01*
X184976Y118500*
X187394*
X197500Y128606*
Y190500*
X176500Y127500D02*
Y151000D01*
X177500Y152000*
Y175000*
X171500Y127500D02*
Y148182D01*
X173500Y150182*
Y170000*
X236000Y124000D02*
X241000D01*
X247000Y118000*
X274799Y117500D02*
X281689D01*
X289079Y124890*
Y137953*
X440500Y126000D02*
Y125500D01*
X447000*
X432000Y126000D02*
X440500D01*
X127000Y146500D02*
X133203D01*
X133703Y147000*
X134749Y148641*
X158500Y141500D02*
Y130524D01*
X166500Y122524*
Y122500*
X205000Y133500D02*
Y130750D01*
X206650Y129100*
Y125000*
X208000*
X216000Y142000D02*
Y197193D01*
X220500Y201693*
Y204381*
X222100Y205981*
Y217400*
X225500Y140600D02*
X230600D01*
X233000Y143000*
X235492*
X235539Y143047*
X238039*
X225500Y146400D02*
X231745D01*
X231745D02*
X233145Y145000D01*
X233145D02*
X235423D01*
X235439Y145016*
X238039*
X242500Y130500D02*
X241500D01*
Y133324*
X246453Y138277*
Y140539*
X234563Y134000D02*
X235500Y135000D01*
X234563Y130299D02*
X235500Y132299D01*
Y135000*
X238500Y130299D02*
X242500Y130500D01*
X246911Y126089*
X247000Y125900*
X238500Y130299D02*
X242500D01*
Y130500*
X238500Y134000D02*
X240978Y136000D01*
X242516Y137538*
Y140539*
X230500Y132500D02*
Y132348D01*
X234563*
Y130299*
X248965Y146984D02*
X251465D01*
X252400Y147919*
Y159600*
X248965Y145016D02*
X254500D01*
X257500Y148016*
Y151000*
X248965Y143047D02*
X256603D01*
X262000Y148444*
Y163500*
X263972Y165472*
X266345Y169000*
X267500*
X266500Y144500D02*
Y152500D01*
X267500*
X263500Y131500D02*
X270500D01*
X273000Y144500D02*
X275824D01*
X276324Y144000*
X278601*
X281000Y146399*
Y146587*
X282913Y148500*
X284437*
X284453Y148484*
X277500Y147000D02*
X277778Y146722D01*
X281508Y150453*
X284453*
X285500Y132000D02*
Y135555D01*
X287110Y137165*
Y137953*
X279500Y131500D02*
Y132000D01*
X285500*
X306500Y137000D02*
X311904D01*
Y137987*
X294500Y133000D02*
X294894Y137075D01*
Y137953*
X294984*
X294000Y147500D02*
X294984D01*
Y137953*
X294000Y147500D02*
X298921D01*
Y157047*
X300890Y137953D02*
Y137075D01*
X306500*
Y137000*
X298921Y137953D02*
Y135335D01*
X299256Y135000*
X301000*
X305000Y131000*
X309500*
X296953Y137953D02*
Y134844D01*
X297500Y134297*
Y133500*
X299500Y131500*
X291047Y137953D02*
Y130852D01*
X296399Y125500*
X297311*
X305311Y117500*
X312201*
X303547Y144547D02*
X306025D01*
X307500Y146022*
Y146378*
X315900Y154778*
Y179100*
X303547Y142579D02*
X306579D01*
X309189Y145189*
X313407*
X303547Y140610D02*
X307172D01*
X308150Y141588*
X316862*
X317507Y142233*
Y182130*
X318500Y131000D02*
X319702D01*
Y137987*
X320904*
Y137500*
X326500*
X362220Y133220D02*
X364780Y135780D01*
X367535*
X362220Y133220D02*
X364780Y130661D01*
X367535*
X353250Y136467D02*
X353782D01*
X353782D02*
X357028Y133220D01*
X359465*
X353250Y136467D02*
X354037D01*
Y141500*
X354500*
X353250Y131033D02*
Y130949D01*
X359465*
Y130661*
X367535D02*
X373500D01*
Y130533*
X367535Y133220D02*
X370222D01*
X372968Y135967*
X372968D02*
X373500D01*
X359465Y138339D02*
Y142431D01*
X360000Y142966*
Y156828*
X359465Y135780D02*
Y135494D01*
X360046*
X362000Y137448*
X359465Y133220D02*
X362220D01*
X359465Y130661D02*
X359760D01*
X363000Y127421*
Y124000*
X371500Y142000D02*
X373500Y140000D01*
Y135967*
X417000Y136000D02*
X424000D01*
Y145000D02*
Y150000D01*
X425000Y151000*
Y156700*
X440500Y135000D02*
Y140250D01*
X441000Y140750*
Y145500*
X441500*
X447700Y151700*
X453200*
X432000Y135000D02*
Y145500D01*
X125000Y163000D02*
X128492Y159508D01*
Y157561*
X131153Y154900*
X132727*
X134564Y156736*
X116030Y149282D02*
X117900D01*
X120682Y146500*
X127000*
X116030Y154400D02*
Y154686D01*
X118186*
X122871Y150000*
X131940*
X116030Y156959D02*
Y157245D01*
X118186*
X122230Y153200*
X135187*
X137124Y151264*
Y150000*
X116030Y159518D02*
X121518D01*
X125000Y163000*
X140500Y166000D02*
X144614D01*
X144653Y165961*
X134500Y158000D02*
X134564D01*
Y156736*
X137060Y150000D02*
X137124D01*
X134500D02*
X134749D01*
Y148641*
X144653Y165961D02*
X148590D01*
X154961*
X155000Y166000*
X158500Y150500D02*
Y157500D01*
X220500Y162500D02*
X221000D01*
Y169000*
X221500*
X220500Y153500D02*
Y153000D01*
X224000Y149500*
X230907*
X233423Y146984*
X238039*
X228000Y157500D02*
Y157000D01*
X233000Y152000*
X234000*
X246043Y165925D02*
X244673D01*
Y162776*
X246043*
X244673Y165925D02*
Y169075D01*
X246043*
X244673Y165925D02*
X246043D01*
X241100Y154821D02*
Y159105D01*
X242000Y160005*
X241100Y154821D02*
X242516Y153405D01*
Y151465*
X244000Y156500D02*
X244484D01*
Y151465*
X234000Y152000D02*
X234067D01*
X237114Y148953*
X238039*
X246043Y162776D02*
X247401D01*
X247500Y159000*
X238957Y165925D02*
Y165738D01*
X240030*
X243000Y168708*
Y177000*
X238957Y165925D02*
Y166262D01*
X240179*
X242000Y164441*
Y160005*
X238957Y162776D02*
Y153980D01*
X240547Y152390*
Y151465*
X246453D02*
Y152361D01*
X246467Y152376*
X249296Y155204*
X249500Y155000*
X267500Y160500D02*
X268000D01*
X272500Y165000*
X297500*
X257500Y160000D02*
Y169299D01*
X276500Y160500D02*
X277000D01*
X281000Y156500*
Y155500*
X283803Y154390*
X284453*
X276500Y152500D02*
Y152421D01*
X284453*
X309500Y154500D02*
X309786Y154214D01*
X294500Y161500D02*
X296024D01*
X298921Y158603*
Y157047*
X303547Y154390D02*
Y157229D01*
X304025Y157707*
Y162955*
X303547Y152421D02*
X303626Y152500D01*
X305182*
X306500Y153818*
Y156988*
X312900Y163388*
Y170554*
X303547Y150453D02*
X306025D01*
X309786Y154214*
X304025Y162955D02*
Y163671D01*
X310000Y169000*
X348500Y163500D02*
X348799D01*
Y171000*
X357500Y163500D02*
X359191D01*
Y159900*
X362000Y157091*
Y137448*
X386000Y163000D02*
X394600Y171600D01*
X392000Y159000D02*
X399500Y166500D01*
Y211000*
X403500Y163500D02*
X412500D01*
X420700*
X425000Y159200*
Y156700*
X435000D02*
X447400D01*
X447700Y157000*
X459700*
X465000Y151700*
X430000Y156700D02*
Y150000D01*
X430900Y149100*
Y145500*
X432000*
X124900Y179000D02*
X127000D01*
Y173500*
X124900Y184000D02*
X127400D01*
X131940Y179460*
Y158000*
X162100Y184000D02*
X172245D01*
X173745Y185500*
X180940*
X162100Y179000D02*
Y181350D01*
X171000*
Y181000*
X181203*
X182703Y182500*
X183749Y184141*
X186060Y185500D02*
X186124D01*
X183500D02*
X183749D01*
Y184141*
X222000Y168500D02*
X221500Y169000D01*
X224000Y166500*
X228000*
X223500Y177500D02*
X227500Y181500D01*
Y184926*
X230750Y188176*
Y196322*
X238478Y204050*
X233600Y185091D02*
X234500Y185991D01*
Y195127*
X234500D02*
X245140Y205767D01*
X246267*
X252000Y211500*
X233600Y185091D02*
Y176974D01*
X234500Y176074*
Y168500*
X231600Y186244D02*
Y167299D01*
X233899Y165000*
X235229*
X237762Y162467*
X238957*
Y162776*
X231600Y186244D02*
X232500Y187144D01*
Y195483*
X246400Y209383*
Y226276*
X243000Y181500D02*
Y187000D01*
X236500Y183000D02*
X238539Y186122D01*
Y187000*
X239299*
X247500Y182500D02*
X247539Y186122D01*
Y187000*
X248299*
X234500Y168500D02*
X237587Y168591D01*
X238957*
Y169075*
X251085Y174715D02*
Y160915D01*
X252400Y159600*
X251085Y174715D02*
X251870Y175500D01*
X255256*
X257569Y173187*
X252000Y181500D02*
Y187000D01*
X257500Y182000D02*
Y186563D01*
X261201D02*
X261273D01*
Y179500*
X261500*
X254441Y173000D02*
X253563D01*
X253719*
X253563Y169299D02*
X254441D01*
Y173000*
X253563Y169299D02*
X253719D01*
Y165500*
X254000*
X257500Y169299D02*
Y168539D01*
X258378*
X261500Y168500*
X257500Y173000D02*
Y173187D01*
X257569*
X257500Y173000D02*
X261500D01*
X278000Y184500D02*
X278500D01*
Y188500*
X279400Y189400*
Y194113*
X278000Y184500D02*
X281137Y182046D01*
X283137Y180481*
Y179546*
X270000Y180000D02*
Y179000D01*
X275000*
X276500Y169000D02*
X277000D01*
X282000Y174000*
X284647*
X290000Y179353*
Y188000*
X300425Y180013D02*
X303500Y183087D01*
Y210500*
X300425Y180013D02*
Y159283D01*
X300890Y158819*
Y157047*
X297500Y171500D02*
Y181669D01*
X300500Y184669*
Y212995*
X303500Y215995*
Y223430*
Y178000D02*
Y171955D01*
X304025*
X294500Y168500D02*
Y183250D01*
X298500Y187250*
Y214652*
X300937Y217089*
Y221500*
X311500Y183500D02*
X315900Y179100D01*
X342500Y172500D02*
Y172300D01*
X345250*
X346439Y171111*
X348799*
Y171000*
X330000Y171500D02*
Y180196D01*
X330521Y180717*
X346500Y181500D02*
Y226654D01*
X349600Y229754*
Y247709*
X348799Y174937D02*
Y175815D01*
X352500*
Y174937*
X348799D02*
X349559D01*
Y175815*
X350000Y179000*
X363691Y184282D02*
X365776Y183038D01*
Y181957*
X363691Y184282D02*
Y195716D01*
X365382Y197406*
Y201748*
X368925Y181957D02*
X369234D01*
Y180762*
X352500Y171000D02*
Y171752D01*
X357000Y172500*
X352500Y171000D02*
Y167539D01*
X353000Y167039*
Y160944*
X354944Y159000*
X357828*
X360000Y156828*
X371766Y180762D02*
X374028Y178500D01*
X376178*
X379100Y181422*
Y196987*
X371766Y180762D02*
Y181957D01*
X372075*
X375224D02*
Y183092D01*
X377429Y184162*
X377500Y184232*
X403500Y180500D02*
Y195597D01*
X403600Y195697*
Y213956*
X403500Y172500D02*
X412500D01*
X425000Y176800D02*
Y179300D01*
X413500Y183000D02*
X413625Y182875D01*
X420375Y189625*
X421000*
Y189500*
X412500Y172500D02*
X425700D01*
X430000Y176800*
Y179300*
Y189500*
X107000Y195500D02*
Y214292D01*
X117750Y225042*
Y240150*
X123400Y245800*
X122400Y199000D02*
Y204000D01*
X124900*
Y199000D02*
X122400D01*
X124900*
X122400D02*
Y194000D01*
X124900*
X117021Y188824D02*
Y184379D01*
X122400Y179000*
X124900*
X117021Y197824D02*
Y199000D01*
X124900*
Y189000D02*
X127400D01*
X137060Y179340*
Y158000*
X159600Y204000D02*
Y199000D01*
X162100*
X159600Y204000D02*
X162100D01*
X159600Y199000D02*
Y194000D01*
X162100*
X159600Y199000D02*
X162100D01*
Y204000D02*
X168000D01*
X172000Y208000*
X162100Y199000D02*
X169500D01*
X162100Y189000D02*
X183887D01*
X186124Y186764*
Y185500*
X177000Y202500D02*
X176609Y202705D01*
X178518Y206343*
X180898*
X173000Y203500D02*
X177614Y208114D01*
X180898*
X172000Y208000D02*
X174000Y210000D01*
X176147*
X176261Y209886*
X180898*
Y204571D02*
Y199602D01*
X180940Y199560*
Y193500*
X183500D02*
Y194700D01*
X185000Y199000*
X186060Y193500D02*
Y194700D01*
X193102Y201742*
Y204571*
Y206343D02*
X192315D01*
Y208114*
X193102*
X209000Y193500D02*
Y175375D01*
X209500Y174875*
Y158500*
X211025Y156975*
Y131834*
X227000Y115859*
Y107500*
X200500Y199500D02*
Y205000D01*
X201000*
X193102Y206343D02*
X201000D01*
Y205000*
X213100Y197986D02*
Y138974D01*
X214000Y138074*
Y133500*
X213100Y197986D02*
X218000Y202886D01*
Y209500*
X221500Y195000D02*
Y200193D01*
X222500Y201193*
Y203556*
X224444Y205500*
X230056*
X231357Y206801*
Y207768*
X234917*
X221500Y195000D02*
X227000Y194214D01*
Y192000*
X210000Y205000D02*
X212500D01*
Y212000*
X227000Y201000D02*
Y203139D01*
X231000Y203861*
X231673Y204535*
X232000Y204208*
Y202000*
X231673Y204535D02*
X232943Y205805D01*
X234917*
Y205799*
X243000Y190937D02*
Y193502D01*
X244268Y194770*
Y198417*
X239299Y190937D02*
Y193449D01*
X242299Y196449*
Y198417*
X248205D02*
Y194795D01*
X249000Y194000*
X249430*
X252187Y191242*
Y190937*
X246236Y198417D02*
Y193118D01*
X248299Y191055*
Y190937*
X253500Y206000D02*
Y202919D01*
X254110Y202309*
Y198417*
X269858D02*
Y189000D01*
X270000*
X263953Y198417D02*
Y204453D01*
X264500Y205000*
X256079Y198417D02*
Y202579D01*
X257500Y204000*
X252000Y190937D02*
X252187D01*
X275500Y188000D02*
X273600Y189989D01*
Y193931*
X273795Y194127*
Y198417*
X279701D02*
Y196845D01*
X281293*
X283500Y194500*
X277732Y198417D02*
Y195780D01*
X279400Y194113*
X275764Y198417D02*
Y194857D01*
X275817Y194803*
X276447*
X276500Y194750*
Y192000*
X283137Y188546D02*
X283500D01*
Y194500*
X308000Y203500D02*
Y175454D01*
X312900Y170554*
X312500Y189500D02*
X314922Y187078D01*
Y184715*
X317507Y182130*
X368925Y189043D02*
Y194000D01*
X369000*
X368925Y189043D02*
Y187673D01*
X372075*
Y189043*
X365776D02*
Y195457D01*
X367941Y197622*
Y201748*
X361248Y205882D02*
Y182074D01*
X364822Y178500*
X366972*
X369234Y180762*
X379752Y208441D02*
X380861D01*
X385500Y206000*
X379752Y205882D02*
X381031D01*
X381031D02*
X383913Y203000D01*
X383913D02*
X388500D01*
X375618Y201748D02*
Y200469D01*
X375618D02*
X379100Y196987D01*
X373059Y201748D02*
Y196941D01*
X377500Y192500*
Y184232*
X370500Y201748D02*
Y197169D01*
X375224Y192445*
Y189043*
X412000Y189500D02*
Y198500D01*
X421000Y189500D02*
X421500D01*
X425000Y186000*
Y179300*
X412000Y198500D02*
Y204500D01*
X421000Y198500D02*
X430000D01*
X437500*
X118000Y209000D02*
X124900D01*
Y214000D02*
X131000D01*
X133500Y216500*
X134500Y223000D02*
X142000D01*
X151000D02*
X151500D01*
X156000Y218500*
Y212600*
X159600Y209000*
X162100*
Y214000D02*
X171445D01*
Y214421*
X177000Y217000D02*
Y213176D01*
X178518Y211657*
X180898*
X184500Y220000D02*
X189583Y225083D01*
X191083*
X197500Y231500*
X198000*
X185000Y226000D02*
Y231824D01*
X189400Y236224*
Y256890*
X187000Y208500D02*
Y209000D01*
Y211657*
X193102*
X180898Y213429D02*
X181685D01*
X182417Y214949*
X183469Y216000*
X189500*
X197500Y224000*
X198000*
X171445Y223421D02*
Y223911D01*
X178000Y230500*
X171445Y214421D02*
X172000D01*
Y208000*
X205500Y218000D02*
Y158169D01*
X209425Y154244*
Y131171*
X217000Y123596*
Y107500*
X193102Y211657D02*
X193260Y211500D01*
X194212*
X196000Y213288*
Y217000*
X193102Y209886D02*
X195482D01*
X196900Y211304*
X201000*
Y212000*
X201500*
Y219000*
X207000Y224000D02*
Y226000D01*
X209500*
X213000Y227000*
X228000Y214500D02*
Y214280D01*
X230750*
X231357Y213673*
X234917*
X227000Y209500D02*
Y209736D01*
X234917*
X226500Y221500D02*
Y220335D01*
X230600*
X231357Y219579*
X234917*
X217500Y221500D02*
X218000D01*
X222100Y217400*
X210000Y212000D02*
Y214000D01*
X212500*
X215500Y215000*
X210000Y212000D02*
X212500D01*
X234917Y211705D02*
X238478D01*
Y204050*
X234917Y215642D02*
X238478D01*
X239250Y214870*
Y214000*
X242000*
X234917Y217610D02*
X240309D01*
X240419Y217500*
X241000*
X243500Y220000*
X234917Y221547D02*
X239047D01*
X241500Y224000*
X261500Y209000D02*
Y204356D01*
X261984Y203872*
Y198417*
X280500Y216000D02*
Y215642D01*
X287083*
X277000Y224500D02*
Y236770D01*
X277732Y237502*
Y250583*
X277000Y224500D02*
Y214290D01*
X283522Y207768*
X287083*
Y227453D02*
X294630D01*
X296882Y225201*
X297000*
X287083Y225484D02*
X290643D01*
X294522Y221606*
Y221500*
X297000*
X287083Y213673D02*
X290643D01*
X295000Y209317*
Y198500*
X300937Y225201D02*
Y225538D01*
X301392*
X303500Y223430*
X317000Y219500D02*
Y185122D01*
X322407Y179714*
Y145189*
X351100Y219701D02*
X362399Y231000D01*
X364000*
X370500Y237500*
Y238000*
X351100Y219701D02*
Y183900D01*
X371000Y164000*
X361248Y213559D02*
X359780D01*
X359780D02*
Y211000D01*
X359780D02*
X361248D01*
X360500Y225000D02*
X365382Y221588D01*
Y220252*
X365000Y227000D02*
X367941Y224059D01*
Y220252*
X354000Y214500D02*
X356994D01*
X357935Y213559*
X361248*
X356500Y219500D02*
X359974Y216118D01*
X361248*
X370500*
Y211000*
X373059*
Y220252*
X370500D02*
Y229000D01*
X375618Y220252D02*
X397304D01*
X403600Y213956*
X379752Y216118D02*
X392438D01*
X394600Y213956*
Y171600*
X379752Y211000D02*
X390500D01*
X398500Y224000D02*
Y233500D01*
X407500Y224000D02*
X414500D01*
X105880Y245800D02*
X123400D01*
X122500Y229500D02*
X136249D01*
X140249Y233500*
X153176*
X155676Y231000*
X159500*
X123400Y245800D02*
X127300Y249700D01*
X137000*
X113000Y237000D02*
Y229500D01*
X113500*
X122000Y237000D02*
Y240000D01*
X129000*
X137000Y240700D02*
X146150D01*
X146650Y240200*
X150500*
X159500Y231000D02*
Y223000D01*
X160000*
X150500Y229000D02*
Y223000D01*
X151000*
X150500Y240200D02*
X154000Y243700D01*
Y246500*
X157250Y249750*
X157900*
X158400Y240200D02*
X164175D01*
X164475Y240500*
X170500*
X178000Y230500D02*
Y234325D01*
X179500Y235825*
Y240500*
X170500D02*
Y245672D01*
X170878Y246050*
Y247622*
X207000Y231500D02*
Y230500D01*
X215500*
X211000Y239500D02*
X217500D01*
Y239000*
X226500D02*
Y239264D01*
X234917*
X212000Y246500D02*
Y246000D01*
X218000*
X244500Y236000D02*
Y228176D01*
X246400Y226276*
X234917Y243201D02*
X238478D01*
X239250Y242429*
X242000*
Y242000*
X263000Y237500D02*
Y223176D01*
X264500Y221676*
Y205000*
X269500Y245500D02*
X269858D01*
Y250583*
X252000Y244000D02*
X252118Y244118D01*
X283522Y245557D02*
Y235327D01*
X287083*
X283522Y245557D02*
X292100Y254135D01*
Y279648*
X273500Y229500D02*
Y215527D01*
X283228Y205799*
X287083*
X270500Y240000D02*
Y216000D01*
X271827Y214673*
Y198417*
X287083Y243201D02*
X289051D01*
X293850Y248000*
X297500*
X287083Y239264D02*
X297329D01*
X298565Y240500*
X308000*
X287083Y237295D02*
X308896D01*
X310900Y239299*
X287083Y231390D02*
X287193Y231500D01*
X290146*
X292847Y234201*
X297000*
X287083Y229421D02*
X290743D01*
X291822Y230500*
X297000*
X300937D02*
X301000Y230437D01*
Y230000*
X301500Y230500*
X307500*
X300937Y234201D02*
X309701D01*
X310500Y235000*
X330521Y214979*
Y180717*
X341500Y229500D02*
Y201500D01*
X342500Y200500*
Y172500*
X339000Y243000D02*
X345500D01*
X354500D02*
Y252748D01*
X384500Y241000D02*
Y251800D01*
X388700Y256000*
X391200*
Y241000D02*
X393096D01*
X395024Y239072*
Y237080*
X398302Y233802*
X398500*
Y233500*
X407500D02*
Y233200D01*
X408300*
X413800Y238700*
Y241000*
X453200Y234400D02*
X459000Y228600D01*
Y218569*
X460000Y217569*
Y212000*
X105880Y259580D02*
X113500D01*
X114420*
X114500Y259500*
X113500Y259580D02*
X123400D01*
X135000Y257700D02*
Y249700D01*
X137000*
X135000Y257700D02*
X137000D01*
Y266700D02*
X139000D01*
Y269200*
X140000Y272000*
X137000Y257700D02*
Y259543D01*
X140600*
X141057Y260000*
X143457*
X163000D02*
X166600Y258100D01*
X168100*
Y257250*
X163000Y260000D02*
X165000Y262000D01*
Y264000*
X166000Y265000*
X167000*
X157900Y257250D02*
Y265000D01*
X158000*
X168100Y253500D02*
X176000D01*
X168100Y249750D02*
X168750D01*
X170878Y247622*
X150543Y257441D02*
X157900D01*
Y257250*
X174500Y268000D02*
X174895D01*
Y262500*
X176000*
X184000Y261240D02*
X185050D01*
X189400Y256890*
X176000Y253500D02*
Y253760D01*
X184000*
X207222Y265222D02*
Y256928D01*
X210400Y253750*
X207222Y265222D02*
X210500Y268500D01*
X211000*
X193000Y249500D02*
Y253760D01*
X200500Y252000D02*
Y246500D01*
X203000*
X200500Y252000D02*
X201000D01*
Y257500*
X202400*
X193000*
X227100Y250601D02*
X228000Y251501D01*
Y259500*
X227100Y250601D02*
Y244299D01*
X228799Y242600*
X229972*
X231340Y241232*
X234917*
X220000Y259500D02*
X228000D01*
X210400Y261250D02*
X212150Y259500D01*
X220000*
X210400Y253750D02*
Y246500D01*
X212000*
X240000Y254865D02*
X242306Y252558D01*
X239500Y254000D02*
X239318Y254182D01*
X240000Y254865*
X236182Y259500D02*
Y258682D01*
X240000Y254865*
X236182Y259500D02*
X236500D01*
X241500Y264500D02*
X246000Y260280D01*
Y259807*
X242299Y250583D02*
X242306D01*
Y252558*
X244268Y250583D02*
Y254476D01*
X246000Y256209*
Y259807*
X255285Y261435D02*
Y259715D01*
X256079Y258921*
Y250583*
X255285Y261435D02*
X256850Y263000D01*
X260000*
X263437*
Y271048*
X251118Y266500D02*
X255000D01*
X255929Y267429*
X260000*
X251118Y259807D02*
Y259413D01*
X254110Y256421*
Y250583*
X250173D02*
Y246062D01*
X252118Y244118*
X258047Y250583D02*
Y254143D01*
X259898Y255994*
Y258571*
X260000*
X265921Y250583D02*
Y265787D01*
X267900Y267766*
X267890Y250583D02*
Y259890D01*
X269500Y261500*
Y272881*
X284000Y253500D02*
X288500Y258900D01*
Y259000*
X271827Y250583D02*
Y254327D01*
X272000Y254500*
X272250*
X272539Y254789*
Y258956*
X273306*
X279701Y250583D02*
Y252551D01*
X280971Y253821*
X284000*
Y253500*
X280500Y268000D02*
X288500D01*
X280500Y259000D02*
X282500D01*
Y256500*
X284000Y253500*
X319000Y261500D02*
X327000D01*
Y262000*
X338000Y256500D02*
Y256882D01*
X345248*
X336000Y262000D02*
X345248D01*
X349382Y252748D02*
Y247927D01*
X349600Y247709*
X356872Y251281D02*
X358653Y249500D01*
X362846*
X376500Y263154*
Y269500*
X356872Y251281D02*
Y252748D01*
X357059*
X368500Y263000D02*
X368524Y260000D01*
X354500Y262000D02*
Y256882D01*
X363752*
Y256695*
X365219*
X368524Y260000*
X359618Y252748D02*
X363831D01*
X371500Y260417*
Y268500*
X140000Y272000D02*
X144812Y267188D01*
X145599*
X150228Y262559*
X150543*
X183500Y269000D02*
Y277000D01*
X174500Y285000D02*
Y285500D01*
X177918Y288918*
X179108*
X180450Y290260*
X181600*
X192500Y269000D02*
Y261240D01*
X193000*
X202000Y268500D02*
X202500D01*
X208500Y274500*
X218000*
Y268500*
X220000*
X228000*
X236500D02*
Y267000D01*
X241500Y264500*
X266600Y273510D02*
X267900Y272210D01*
Y267766*
X266600Y273510D02*
Y299142D01*
X270958Y303500*
X287500*
X268500Y277676D02*
Y273881D01*
X269500Y272881*
X268500Y277676D02*
X269500Y278676D01*
Y283000*
X261500Y273000D02*
X263437Y271048D01*
X271500Y275000D02*
X271975D01*
Y267956*
X273306*
X286000Y274000D02*
X286500Y270500D01*
Y268000*
X288500*
X344491Y272412D02*
X345248Y271655D01*
Y267118*
X344491Y272412D02*
Y303253D01*
X352000Y310761*
Y338000*
X346091Y275822D02*
Y294769D01*
X348822Y297500*
X350972*
X353234Y295238*
X346091Y275822D02*
X349382Y272531D01*
X349382D02*
Y271252D01*
X349776Y286957D02*
Y277631D01*
X354687Y272719*
X357059Y271252D02*
X356872D01*
Y272719*
X359224Y275072*
Y286957*
X351941Y271252D02*
X352128D01*
Y272719*
X354500Y271252D02*
X354687D01*
Y272719*
X359618Y271252D02*
Y272588D01*
X361309Y273774*
Y291718*
X352925Y286957D02*
X353409D01*
Y285587*
X354500Y282500*
X352925Y286957D02*
Y285587D01*
X356075*
Y286957*
X377533Y276757D02*
Y285952D01*
X378527*
X386533Y276757D02*
Y274757D01*
X389033*
X395000Y272000*
X387527Y285952D02*
Y286000D01*
X395000*
X378527Y285952D02*
X379027D01*
X383538Y290463*
X385163*
X387700Y293000*
X390200*
X157500Y304000D02*
X155000D01*
Y311500*
X157500*
X157000Y298500D02*
Y304000D01*
X157500*
X159000Y294000D02*
X161000Y296000D01*
Y299000*
X166000Y304000*
X166500*
X181500Y289000D02*
Y290160D01*
X181600Y290260*
X180450D02*
Y292230D01*
X181600*
X180450Y290260D02*
X181600D01*
X175500Y300000D02*
X175555Y300055D01*
X178715Y296896*
Y296838*
X180449Y296168*
X181600*
Y296170*
X181500Y305500D02*
X188400D01*
Y305700*
X197400D02*
Y301600D01*
X198200Y300800*
Y298140*
X287500Y303500D02*
X291500Y299500D01*
Y294500*
X287500Y299000D02*
Y294500D01*
X287563*
X276000Y288500D02*
X281318D01*
X283617Y290799*
X287563*
X299000Y291000D02*
X310900Y279100D01*
Y239299*
X296500Y301500D02*
X302333Y296500D01*
X302500*
X291500Y290799D02*
Y280248D01*
X292100Y279648*
X291500Y290799D02*
Y290462D01*
X291955*
X294000Y292507*
Y294000*
X296000Y296000*
X347691Y291718D02*
Y277156D01*
X352128Y272719*
X347691Y291718D02*
X349776Y292962D01*
Y294043*
X355766Y295238D02*
X358028Y297500D01*
X360178*
X363752Y293926*
Y267118*
X355766Y295238D02*
Y294043D01*
X356075*
X359224D02*
Y292962D01*
X361309Y291718*
X352925Y294043D02*
X353234D01*
Y295238*
X382500Y308000D02*
X390200D01*
X251000Y324000D02*
X252061Y322939D01*
X255439*
X255500Y323000*
X258749*
X259249Y322500*
X263000*
X261000Y327727D02*
X261273Y328000D01*
X263000*
X261000Y322500D02*
X263000D01*
X267600Y324224D02*
X268000Y323824D01*
Y321000*
X268500*
Y321500*
X267600Y324224D02*
Y327045D01*
X269016Y328460*
Y332823*
X263000Y322500D02*
X262722D01*
Y323278*
X266000Y326556*
Y328222*
X267047Y329270*
Y332823*
X270500Y325500D02*
X270984D01*
Y332823*
X342000Y310845D02*
X346500Y315345D01*
Y336000*
X342000Y310845D02*
Y266153D01*
X343781Y264372*
X345248*
Y264559*
X438469Y311663D02*
X440469D01*
Y309163*
X441000Y305000*
X259500Y333500D02*
X260177Y332823D01*
X263110*
X263500Y328500D02*
X265079Y330079D01*
Y332823*
X263110Y331740D02*
Y332823D01*
X258500Y348000D02*
X263110D01*
Y348177*
X264000Y340500D02*
X270000D01*
Y348177D02*
X269016D01*
X270000Y347193*
Y340500*
Y348177D02*
X270984D01*
X275500Y340500D02*
X270000D01*
X272750*
X276890Y332823D02*
X282177D01*
X284500Y330500*
X274921Y332823D02*
Y331169D01*
X277090Y329000*
X277500*
X272953Y332823D02*
Y329547D01*
X274000Y328500*
X274921Y348177D02*
Y350921D01*
X275000Y351000*
Y351706*
X275750Y352456*
X276890Y348177D02*
Y347734D01*
X278482*
X278750Y347466*
X281500*
Y347000*
X414303Y334000D02*
X415780D01*
X432500Y317280*
Y303000*
X414303Y344000D02*
X415780D01*
X426465Y333315*
Y333167*
X438469Y321163*
Y320663*
X236400Y354044D02*
X238944Y351500D01*
X263410*
X265079Y349831*
Y348177*
X236400Y354044D02*
Y360956D01*
X237444Y362000*
X245000*
X249000Y366000*
Y366500*
X240000D02*
Y375000D01*
Y357500D02*
X249000D01*
Y357423*
X251000Y355000*
X252156Y353600*
X263573*
X267047Y350125*
Y348177*
X269000Y351815D02*
X270000Y350815D01*
Y348177*
X269000Y351815D02*
Y352500D01*
X266500Y357500D02*
Y353900D01*
X267900Y352500*
X268315*
X269000Y351815*
X266500Y357500D02*
Y366500D01*
X257500Y357500D02*
X258000D01*
X262000Y361500*
Y369056*
X263444Y370500*
X269556*
X271000Y369056*
Y362000*
X272650Y351986D02*
Y348177D01*
X272953*
X301000Y357000D02*
X303722Y359722D01*
X306222*
X307789Y361289*
X309289*
X313500Y365500*
X314000*
X266500Y384500D02*
X272125D01*
X275125Y381500*
X281000*
G54D15*
X465000Y234400D03*
X135000Y334100D03*
Y287500D03*
X465000Y288400D03*
Y345900D03*
Y175300D03*
G54D16*
X453200Y234400D03*
X465000Y222600D03*
X453200D03*
X146800Y334100D03*
X135000Y345900D03*
X146800D03*
Y287500D03*
X453200Y288400D03*
X465000Y276600D03*
X453200D03*
Y345900D03*
X465000Y334100D03*
X453200D03*
Y175300D03*
X465000Y163500D03*
X453200D03*
X465000Y151700D03*
X453200D03*
G54D34*
X158400Y240200D03*
X247000Y118000D03*
G54D36*
X413800Y246000D02*
X416300D01*
X423500Y248526*
Y250000*
X201000Y288000D02*
Y285600D01*
X205400Y281200*
Y280700*
X174500Y294000D02*
X178500D01*
X201769Y295069D02*
Y294731D01*
X202000Y294500*
X201769Y295069D02*
X205400Y298700D01*
Y299200*
X176000Y319217D02*
X184500D01*
Y319500*
X175800Y326500D02*
X176000D01*
Y319217*
X251000Y324000D02*
Y330674D01*
X253826Y333500*
X259500*
X261000Y327727D02*
X262727D01*
X263500Y328500*
X255816Y327727D02*
X261000D01*
X184500Y328500D02*
X193000D01*
X274000D02*
X274500Y328000D01*
Y326100*
X275000Y325600*
Y324500*
X249000Y375000D02*
Y366500D01*
X257500*
X249000Y375000D02*
Y373500D01*
X257500*
Y375500*
X266175Y383675D02*
Y384500D01*
X266500*
Y392000*
X257500Y384500D02*
Y392000D01*
Y375500D02*
X266500D01*
X278800Y368500D02*
X279125D01*
Y370725*
G54D38*
X112500Y207783D02*
Y180500D01*
X125000Y168000*
Y163000*
X112500Y213217D02*
X117408D01*
X118191Y214000*
X124900*
Y223000*
X125500*
X160000D02*
Y214000D01*
X162100*
X181600Y298140D02*
X187930D01*
X191870Y294200*
X198200*
Y290260D02*
X199350D01*
X201000Y288610*
Y288000*
G54D42*
X423500Y241000D02*
Y240609D01*
X436500*
Y238750*
X234000Y305783D02*
Y305326D01*
X234074*
X237400Y302000*
X242500*
X275000Y324500D02*
Y321500D01*
X275949Y320551*
Y318035*
X272500Y318000*
X272628Y355128D02*
Y356128D01*
X274000Y357500*
G54D43*
X146800Y287500D02*
Y310684D01*
X155116Y319000*
X155600*
X163100Y326500*
X163200*
X437500Y276750D02*
Y276600D01*
X453200*
X242500Y302000D02*
Y302500D01*
X251000*
Y302000*
X263514*
X273949Y312435*
X275949*
X311500Y296500D02*
Y309650D01*
X315500*
X163200Y326500D02*
Y340800D01*
X234000Y311217D02*
Y320000D01*
X279106Y327606D02*
X297063Y309650D01*
X315500*
X272500Y318000D02*
X273480D01*
Y312435*
X275949*
X402189Y314158D02*
Y308500D01*
Y286923*
X404540Y284571*
Y262394*
X402189Y314158D02*
Y340599D01*
X410250Y348660*
Y358500*
X146800Y345900D02*
X158100D01*
X163200Y340800*
X163400Y341000*
X206000*
X226500Y320500*
X234000*
Y320000*
X281500Y354500D02*
X285500D01*
X288000Y352000*
X303000*
X304350Y353350*
X315500*
X274500Y357500D02*
X274000D01*
X278800Y362300*
Y368500*
X315500Y353350D02*
X320241D01*
X322500Y365500*
X323000*
X426750Y358500D02*
Y355700D01*
X440500*
X301200Y368500D02*
Y372754D01*
X314000Y373500*
X408126Y375913D02*
X409488D01*
Y358500*
X410250*
G54D44*
X413800Y241000D02*
X423500D01*
X404540Y262394D02*
X405073D01*
X411300Y256000*
X413800*
X423500Y250000D02*
X424750D01*
Y251750*
X425000Y257000*
X165500Y281700D02*
Y280165D01*
X172750Y278250*
X174500*
Y277000*
X181500Y289000D02*
Y284500D01*
X181800Y277000*
X183500*
X205400Y280700D02*
Y281627D01*
X219400*
Y282517*
X395000Y272000D02*
Y262394D01*
X395540*
X165500Y294300D02*
Y294400D01*
X171500Y300400*
X165500Y294300D02*
Y292250D01*
X174500*
Y294000*
X209500Y298120D02*
Y300000D01*
X211000Y301500*
X209500Y298120D02*
X219400D01*
Y297083*
X205400Y308200D02*
X205500D01*
Y315000*
X205400Y299200D02*
Y298120D01*
X209500*
X275949Y298935D02*
X276000D01*
Y288500*
X412800Y298000D02*
X419884D01*
X423692Y301808*
Y302000*
X424000*
X412800Y293000D02*
X424000D01*
X166500Y311500D02*
Y311692D01*
X167192*
X171500Y307384*
Y300400*
X166500Y311500D02*
X171350D01*
X172000Y312150*
Y313582*
X172201Y313783*
X176000*
X242500Y320000D02*
X241250D01*
Y311000*
X242500*
X249000Y318500D02*
X255816D01*
Y318727*
X257000Y310500D02*
X263000Y312079D01*
Y313500*
X251000Y311000D02*
Y310500D01*
X257000*
X402189Y308500D02*
X406344D01*
X406844Y308000*
X412800*
X392500Y322000D02*
Y314158D01*
X393189*
X423500Y310500D02*
Y302000D01*
X424000*
X238000Y337000D02*
X241250Y330750D01*
Y329000*
X242500*
X234000D02*
X235250D01*
Y330750*
X238000Y337000*
X277500Y329000D02*
X277712D01*
X279106Y327606*
X439697Y344000D02*
Y348803D01*
X275750Y352456D02*
X275794Y352500D01*
X278000*
X280000Y354500*
X281500*
X272628Y355128D02*
Y354872D01*
X272650Y354850*
Y351986*
X440500Y368300D02*
Y368000D01*
X449500*
G54D45*
X178500Y294000D02*
X180450Y294200D01*
X181600*
X198200D02*
X201700D01*
X202000Y294500*
X198200Y292230D02*
X199350D01*
X205400Y292040*
Y289700*
G54D61*
X210400Y253750D03*
Y261250D03*
G54D65*
X425000Y257000D03*
X181500Y284500D03*
X395000Y272000D03*
X276000Y288500D03*
X205500Y315000D03*
X249000Y318500D03*
X257000Y310500D03*
X392500Y322000D03*
X423500Y310500D03*
X238000Y337000D03*
X274500Y357500D03*
X449500Y368000D03*
X281000Y381500D03*
X314000Y373500D03*
G54D68*
X436500Y222250D02*
Y222600D01*
X453200*
X429000Y293500D02*
Y294000D01*
X429400*
X430150Y293250*
X437500*
X424000Y293000D02*
Y293250D01*
X428900*
X429000Y293500*
X439697Y348803D02*
Y355700D01*
X440500*
G54D77*
X439697Y334000D02*
X453200D01*
Y334100*
G54D87*
G54D90*
X267500Y152500D03*
X276500D03*
X267500Y160500D03*
X276500D03*
X158000Y265000D03*
X167000D03*
X183500Y277000D03*
X174500D03*
X404540Y262394D03*
X395540D03*
X402189Y314158D03*
X393189D03*
X378527Y285952D03*
X387527D03*
X386533Y276757D03*
X377533D03*
X313407Y145189D03*
X322407D03*
X311904Y137987D03*
X320904D03*
X266500Y366500D03*
X257500D03*
Y357500D03*
X266500D03*
X240000Y375000D03*
X249000D03*
X311500Y296500D03*
X302500D03*
X323000Y365500D03*
X314000D03*
X198000Y224000D03*
X207000D03*
X276500Y169000D03*
X267500D03*
X407500Y224000D03*
X398500D03*
Y233500D03*
X407500D03*
X211000Y268500D03*
X202000D03*
X203000Y246500D03*
X212000D03*
X309500Y131000D03*
X318500D03*
X279500Y131500D03*
X270500D03*
X227000Y107500D03*
X236000D03*
X210000Y212000D03*
X201000D03*
Y205000D03*
X210000D03*
X421000Y198500D03*
X412000D03*
X421000Y189500D03*
X412000D03*
X188400Y305700D03*
X197400D03*
X432000Y145500D03*
X441000D03*
X192500Y269000D03*
X183500D03*
X179500Y240500D03*
X170500D03*
X122000Y237000D03*
X113000D03*
X217000Y107500D03*
X208000D03*
X122500Y229500D03*
X113500D03*
X266500Y392000D03*
X257500D03*
X125500Y223000D03*
X134500D03*
X160000D03*
X151000D03*
X198000Y231500D03*
X207000D03*
X357500Y163500D03*
X348500D03*
X336000Y262000D03*
X327000D03*
X157500Y311500D03*
X166500D03*
Y304000D03*
X157500D03*
X354500Y243000D03*
X345500D03*
X390500Y211000D03*
X399500D03*
X217500Y221500D03*
X226500D03*
Y239000D03*
X217500D03*
X227000Y209500D03*
X218000D03*
G54D91*
X234000Y305783D03*
Y311217D03*
X112500Y207783D03*
Y213217D03*
X373500Y135967D03*
Y130533D03*
X353250Y131033D03*
Y136467D03*
X176000Y319217D03*
Y313783D03*
G54D94*
X238957Y162776D03*
Y165925D03*
Y169075D03*
Y172224D03*
X246043D03*
Y169075D03*
Y165925D03*
Y162776D03*
G54D95*
X257500Y160000D03*
Y151000D03*
X438469Y320663D03*
Y311663D03*
X273306Y267956D03*
Y258956D03*
X283137Y188546D03*
Y179546D03*
X304025Y162955D03*
Y171955D03*
X171445Y214421D03*
Y223421D03*
X117021Y197824D03*
Y188824D03*
X174500Y294000D03*
Y285000D03*
X263000Y322500D03*
Y313500D03*
X255816Y327727D03*
Y318727D03*
X242500Y329000D03*
Y320000D03*
X249000Y357500D03*
Y366500D03*
X240000Y357500D03*
Y366500D03*
X251000Y302000D03*
Y311000D03*
X242500Y302000D03*
Y311000D03*
X234000Y320000D03*
Y329000D03*
X227000Y201000D03*
Y192000D03*
X158500Y141500D03*
Y150500D03*
X424000Y293000D03*
Y302000D03*
X423500Y241000D03*
Y250000D03*
X176000Y253500D03*
Y262500D03*
X236000Y124000D03*
Y115000D03*
X208000Y125000D03*
Y116000D03*
X280500Y259000D03*
Y268000D03*
X220000Y259500D03*
Y268500D03*
X228000Y259500D03*
Y268500D03*
X236500Y259500D03*
Y268500D03*
X288500Y259000D03*
Y268000D03*
X205400Y289700D03*
Y280700D03*
Y299200D03*
Y308200D03*
X403500Y163500D03*
Y172500D03*
X432000Y135000D03*
Y126000D03*
X137000Y257700D03*
Y266700D03*
X228000Y157500D03*
Y166500D03*
X220500Y153500D03*
Y162500D03*
X440500Y126000D03*
Y135000D03*
X424000Y136000D03*
Y145000D03*
X412500Y163500D03*
Y172500D03*
X430000Y189500D03*
Y198500D03*
X137000Y240700D03*
Y249700D03*
X257500Y375500D03*
Y384500D03*
X266500Y375500D03*
Y384500D03*
X184500Y319500D03*
Y328500D03*
X370500Y229000D03*
Y238000D03*
X270000Y189000D03*
Y180000D03*
G54D98*
X116030Y164243D03*
Y144557D03*
G54D99*
X105400Y140620D03*
Y168180D03*
G54D100*
Y158337D03*
Y150463D03*
G54D101*
X150500Y240200D03*
X247000Y125900D03*
G54D104*
X219400Y282517D03*
Y297083D03*
G54D105*
X252000Y187000D03*
X248299D03*
Y190937D03*
X252000D03*
X352500Y171000D03*
X348799D03*
Y174937D03*
X352500D03*
X257500Y190500D03*
X261201D03*
Y186563D03*
X257500D03*
X243000Y187000D03*
X239299D03*
Y190937D03*
X243000D03*
G54D106*
X123400Y245800D03*
X105880D03*
X123400Y259580D03*
X105880D03*
G54D108*
X193102Y204571D03*
Y206343D03*
Y208114D03*
Y209886D03*
Y211657D03*
Y213429D03*
X180898D03*
Y211657D03*
Y209886D03*
Y208114D03*
Y206343D03*
Y204571D03*
G54D109*
X187000Y209000D03*
G54D110*
X242299Y198417D03*
X244268D03*
X246236D03*
X248205D03*
X250173D03*
X252142D03*
X254110D03*
X256079D03*
X258047D03*
X260016D03*
X261984D03*
X263953D03*
X265921D03*
X267890D03*
X269858D03*
X271827D03*
X273795D03*
X275764D03*
X277732D03*
X279701D03*
Y250583D03*
X277732D03*
X275764D03*
X273795D03*
X271827D03*
X269858D03*
X267890D03*
X265921D03*
X263953D03*
X261984D03*
X260016D03*
X258047D03*
X256079D03*
X254110D03*
X252142D03*
X250173D03*
X248205D03*
X246236D03*
X244268D03*
X242299D03*
G54D111*
X234917Y243201D03*
Y241232D03*
Y239264D03*
Y237295D03*
Y235327D03*
Y233358D03*
Y231390D03*
Y229421D03*
Y227453D03*
Y225484D03*
Y223516D03*
Y221547D03*
Y219579D03*
Y217610D03*
Y215642D03*
Y213673D03*
Y211705D03*
Y209736D03*
Y207768D03*
Y205799D03*
X287083D03*
Y207768D03*
Y209736D03*
Y211705D03*
Y213673D03*
Y215642D03*
Y217610D03*
Y219579D03*
Y221547D03*
Y223516D03*
Y225484D03*
Y227453D03*
Y229421D03*
Y231390D03*
Y233358D03*
Y235327D03*
Y237295D03*
Y239264D03*
Y241232D03*
Y243201D03*
G54D115*
X345248Y267118D03*
Y264559D03*
Y262000D03*
Y259441D03*
Y256882D03*
X363752D03*
Y259441D03*
Y262000D03*
Y264559D03*
Y267118D03*
X379752Y205882D03*
Y208441D03*
Y211000D03*
Y213559D03*
Y216118D03*
X361248D03*
Y213559D03*
Y211000D03*
Y208441D03*
Y205882D03*
G54D116*
X359618Y271252D03*
X357059D03*
X354500D03*
X351941D03*
X349382D03*
Y252748D03*
X351941D03*
X354500D03*
X357059D03*
X359618D03*
X365382Y201748D03*
X367941D03*
X370500D03*
X373059D03*
X375618D03*
Y220252D03*
X373059D03*
X370500D03*
X367941D03*
X365382D03*
G54D117*
X354500Y262000D03*
X370500Y211000D03*
G54D121*
X225500Y146400D03*
Y140600D03*
G54D122*
X300890Y157047D03*
X298921D03*
X296953D03*
X294984D03*
X293016D03*
X291047D03*
X289079D03*
X287110D03*
Y137953D03*
X289079D03*
X291047D03*
X293016D03*
X294984D03*
X296953D03*
X298921D03*
X300890D03*
G54D123*
X303547Y140610D03*
Y142579D03*
Y144547D03*
Y146516D03*
Y148484D03*
Y150453D03*
Y152421D03*
Y154390D03*
X284453D03*
Y152421D03*
Y150453D03*
Y148484D03*
Y146516D03*
Y144547D03*
Y142579D03*
Y140610D03*
G54D131*
X257500Y173000D03*
Y169299D03*
X253563D03*
Y173000D03*
X291500Y294500D03*
Y290799D03*
X287563D03*
Y294500D03*
X238500Y134000D03*
Y130299D03*
X234563D03*
Y134000D03*
X297000Y230500D03*
Y234201D03*
X300937D03*
Y230500D03*
X297000Y221500D03*
Y225201D03*
X300937D03*
Y221500D03*
G54D132*
X414303Y344000D03*
Y334000D03*
X439697D03*
Y344000D03*
G54D134*
X359224Y286957D03*
X356075D03*
X352925D03*
X349776D03*
Y294043D03*
X352925D03*
X356075D03*
X359224D03*
X365776Y189043D03*
X368925D03*
X372075D03*
X375224D03*
Y181957D03*
X372075D03*
X368925D03*
X365776D03*
G54D215*
X193000Y253760D03*
Y257500D03*
Y261240D03*
X184000D03*
Y257500D03*
Y253760D03*
G54D216*
X168100Y249750D03*
Y253500D03*
Y257250D03*
X157900D03*
Y249750D03*
G54D219*
X294000Y147500D03*
G54D221*
X150543Y257441D03*
Y262559D03*
X143457Y260000D03*
G54D222*
X420000Y156700D03*
G54D223*
X425000D03*
X430000D03*
X435000D03*
Y179300D03*
X430000D03*
X425000D03*
X420000D03*
G54D236*
X408126Y375913D03*
X180600Y387000D03*
X155200Y386400D03*
X405400Y114400D03*
X206600Y386200D03*
G54D282*
X165500Y294300D03*
Y281700D03*
X440500Y355700D03*
Y368300D03*
G54D283*
X175800Y326500D03*
X163200D03*
G54D284*
X116030Y159518D03*
Y156959D03*
Y154400D03*
Y151841D03*
Y149282D03*
G54D287*
X202400Y257500D03*
G54D288*
X134500Y150000D03*
X137060D03*
Y158000D03*
X134500D03*
X131940D03*
X183500Y185500D03*
X186060D03*
Y193500D03*
X183500D03*
X180940D03*
G54D289*
X131940Y150000D03*
X180940Y185500D03*
G54D290*
X181600Y298140D03*
Y296170D03*
Y294200D03*
Y292230D03*
Y290260D03*
X198200D03*
Y292230D03*
Y294200D03*
Y296170D03*
Y298140D03*
G54D291*
X413800Y241000D03*
X412800Y293000D03*
G54D292*
X413800Y246000D03*
Y251000D03*
Y256000D03*
X391200D03*
Y251000D03*
Y246000D03*
Y241000D03*
X412800Y298000D03*
Y303000D03*
Y308000D03*
X390200D03*
Y303000D03*
Y298000D03*
Y293000D03*
G54D295*
X359465Y130661D03*
Y133220D03*
Y135780D03*
Y138339D03*
X367535D03*
Y135780D03*
Y133220D03*
Y130661D03*
G54D297*
X324500Y189157D03*
G54D298*
Y208843D03*
G54D299*
X363000Y124000D03*
X447000Y125500D03*
X127000Y146500D03*
X205000Y133500D03*
X216000Y142000D03*
X214000Y133500D03*
X230500Y132500D03*
X243500Y146000D03*
X266500Y144500D03*
X263500Y131500D03*
X273000Y144500D03*
X277500Y147000D03*
X285500Y132000D03*
X306500Y137000D03*
X299500Y131500D03*
X294000Y147500D03*
X294500Y133000D03*
X326500Y137500D03*
X354500Y141500D03*
X371500Y142000D03*
X417000Y136000D03*
X125000Y163000D03*
X140500Y166000D03*
X155000D03*
X158500Y157500D03*
X244000Y156500D03*
X234000Y152000D03*
X247500Y159000D03*
X249500Y155000D03*
X254000Y165500D03*
X297500Y165000D03*
X309500Y154500D03*
X294500Y161500D03*
X365500Y160000D03*
X371000Y164000D03*
X386000Y163000D03*
X392000Y159000D03*
X127000Y173500D03*
X187000Y179000D03*
X177500Y175000D03*
X173500Y170000D03*
X171000Y175000D03*
Y181000D03*
X223500Y177500D03*
X222000Y168500D03*
X243000Y181500D03*
X236500Y183000D03*
X247500Y182500D03*
X243000Y177000D03*
X234500Y168500D03*
X252000Y181500D03*
X261500Y173000D03*
X257500Y182000D03*
X261500Y179500D03*
Y168500D03*
X275500Y188000D03*
X275000Y179000D03*
X278000Y184500D03*
X290000Y188000D03*
X297500Y171500D03*
X303500Y178000D03*
X294500Y168500D03*
X311500Y183500D03*
Y177500D03*
X310000Y169000D03*
X342500Y172500D03*
X330000Y171500D03*
X346500Y181500D03*
X357000Y172500D03*
X350000Y179000D03*
X403500Y180500D03*
X413500Y183000D03*
X107000Y195500D03*
X169500Y199000D03*
X177000Y202500D03*
X173000Y203500D03*
X172000Y208000D03*
X185000Y199000D03*
X209000Y193500D03*
X197500Y190500D03*
X193000Y192000D03*
X200500Y199500D03*
X221500Y195000D03*
X232000Y202000D03*
X257500Y204000D03*
X253500Y206000D03*
X276500Y192000D03*
X283500Y194500D03*
X295000Y198500D03*
X308000Y203500D03*
X312500Y189500D03*
X369000Y194000D03*
X385500Y206000D03*
X388500Y203000D03*
X412000Y204500D03*
X437500Y198500D03*
X118000Y209000D03*
X133500Y216500D03*
X142000Y223000D03*
X177000Y217000D03*
X184500Y220000D03*
X185000Y226000D03*
X187000Y208500D03*
X201500Y219000D03*
X205500Y218000D03*
X196000Y217000D03*
X228000Y214500D03*
X213000Y227000D03*
X215500Y215000D03*
X243500Y220000D03*
X241500Y224000D03*
X242000Y214000D03*
X252000Y211500D03*
X261500Y209000D03*
X280500Y216000D03*
X277000Y224500D03*
X303500Y210500D03*
X317000Y219500D03*
X360500Y225000D03*
X365000Y227000D03*
X354000Y214500D03*
X356500Y219500D03*
X414500Y224000D03*
X460000Y212000D03*
X129000Y240000D03*
X159500Y231000D03*
X150500Y229000D03*
X178000Y230500D03*
X218000Y246000D03*
X211000Y239500D03*
X215500Y230500D03*
X244500Y236000D03*
X242000Y242000D03*
X263000Y237500D03*
X269500Y245500D03*
X252000Y244000D03*
X273500Y229500D03*
X270500Y240000D03*
X307500Y230500D03*
X308000Y240500D03*
X297500Y248000D03*
X341500Y229500D03*
X339000Y243000D03*
X384500Y241000D03*
X114500Y259500D03*
X163000Y260000D03*
X174500Y268000D03*
X193000Y249500D03*
X200500Y252000D03*
X239500Y254000D03*
X241500Y264500D03*
X284000Y253500D03*
X319000Y261500D03*
X338000Y256500D03*
X368500Y263000D03*
X354500Y262000D03*
X140000Y272000D03*
X218000Y274500D03*
X269500Y283000D03*
X261500Y273000D03*
X271500Y275000D03*
X286000Y274000D03*
X354500Y282500D03*
X371500Y268500D03*
X376500Y269500D03*
X395000Y286000D03*
X157000Y298500D03*
X159000Y294000D03*
X175500Y300000D03*
X181500Y305500D03*
X211000Y301500D03*
X287500Y303500D03*
Y299000D03*
X299000Y291000D03*
X296500Y301500D03*
X296000Y296000D03*
X382500Y308000D03*
X429000Y293500D03*
X432500Y303000D03*
X441000Y305000D03*
X268500Y321500D03*
X263000Y328000D03*
X270500Y325500D03*
X272500Y318000D03*
X193000Y328500D03*
X258500Y348000D03*
X264000Y340500D03*
X284500Y330500D03*
X281500Y347000D03*
X275500Y340500D03*
X346500Y336000D03*
X352000Y338000D03*
X269000Y352500D03*
X271000Y362000D03*
X301000Y357000D03*
G54D327*
X166500Y122250D03*
G54D328*
Y127750D03*
X171500Y122250D03*
Y127750D03*
X176500Y122250D03*
Y127750D03*
X181500Y122250D03*
Y127750D03*
X186500Y122250D03*
Y127750D03*
G54D383*
X426750Y358500D03*
X410250D03*
G54D386*
X315500Y309650D03*
Y353350D03*
G54D387*
X276890Y348177D03*
X274921D03*
X272953D03*
X270984D03*
X269016D03*
X267047D03*
X265079D03*
X263110D03*
Y332823D03*
X265079D03*
X267047D03*
X269016D03*
X270984D03*
X272953D03*
X274921D03*
X276890D03*
G54D388*
X270000Y340500D03*
G54D393*
X246000Y266500D03*
Y259807D03*
X251118D03*
Y266500D03*
G54D394*
X260000Y267429D03*
Y258571D03*
G54D395*
Y263000D03*
G54D396*
X312201Y117500D03*
X274799D03*
G54D419*
X275949Y312435D03*
Y298935D03*
G54D423*
X436500Y238750D03*
Y222250D03*
X437500Y293250D03*
Y276750D03*
G54D463*
X240547Y140539D03*
X242516D03*
X244484D03*
X246453D03*
Y151465D03*
X244484D03*
X242516D03*
X240547D03*
G54D464*
X248965Y143047D03*
Y145016D03*
Y146984D03*
Y148953D03*
X238039D03*
Y146984D03*
Y145016D03*
Y143047D03*
G54D465*
X243500Y146000D03*
G54D471*
X278800Y368500D03*
X301200D03*
G54D495*
X124900Y214000D03*
G54D496*
Y209000D03*
Y204000D03*
Y199000D03*
Y194000D03*
Y189000D03*
Y184000D03*
Y179000D03*
X162100D03*
Y184000D03*
Y189000D03*
Y194000D03*
Y199000D03*
Y204000D03*
Y209000D03*
Y214000D03*
G54D497*
X120000Y380000D03*
X480000D03*
Y120000D03*
X120000D03*
G54D498*
X147212Y163796D02*
X148000D01*
Y168127*
X147212*
Y163796*
Y168127*
X147409Y163796D02*
Y168127D01*
X147606Y163796D02*
Y168127D01*
X147803Y163796D02*
Y168127D01*
X145244Y163796D02*
X146031D01*
Y168127*
X145244*
Y163796*
Y168127*
X145441Y163796D02*
Y168127D01*
X145637Y163796D02*
Y168127D01*
X145834Y163796D02*
Y168127D01*
X0Y0D02*
M02*
