%TF.GenerationSoftware,KiCad,Pcbnew,7.0.10*%
%TF.CreationDate,2025-02-18T11:07:04-08:00*%
%TF.ProjectId,flow-controller,666c6f77-2d63-46f6-9e74-726f6c6c6572,rev?*%
%TF.SameCoordinates,Original*%
%TF.FileFunction,Legend,Bot*%
%TF.FilePolarity,Positive*%
%FSLAX46Y46*%
G04 Gerber Fmt 4.6, Leading zero omitted, Abs format (unit mm)*
G04 Created by KiCad (PCBNEW 7.0.10) date 2025-02-18 11:07:04*
%MOMM*%
%LPD*%
G01*
G04 APERTURE LIST*
%ADD10C,0.300000*%
%ADD11C,0.150000*%
%ADD12C,0.120000*%
G04 APERTURE END LIST*
D10*
X53365114Y-94399510D02*
X53365114Y-93899510D01*
X54150828Y-93899510D02*
X52650828Y-93899510D01*
X52650828Y-93899510D02*
X52650828Y-94613796D01*
X54150828Y-95899510D02*
X54150828Y-95185224D01*
X54150828Y-95185224D02*
X52650828Y-95185224D01*
X52650828Y-96685225D02*
X52650828Y-96970939D01*
X52650828Y-96970939D02*
X52722257Y-97113796D01*
X52722257Y-97113796D02*
X52865114Y-97256653D01*
X52865114Y-97256653D02*
X53150828Y-97328082D01*
X53150828Y-97328082D02*
X53650828Y-97328082D01*
X53650828Y-97328082D02*
X53936542Y-97256653D01*
X53936542Y-97256653D02*
X54079400Y-97113796D01*
X54079400Y-97113796D02*
X54150828Y-96970939D01*
X54150828Y-96970939D02*
X54150828Y-96685225D01*
X54150828Y-96685225D02*
X54079400Y-96542368D01*
X54079400Y-96542368D02*
X53936542Y-96399510D01*
X53936542Y-96399510D02*
X53650828Y-96328082D01*
X53650828Y-96328082D02*
X53150828Y-96328082D01*
X53150828Y-96328082D02*
X52865114Y-96399510D01*
X52865114Y-96399510D02*
X52722257Y-96542368D01*
X52722257Y-96542368D02*
X52650828Y-96685225D01*
X52650828Y-97828082D02*
X54150828Y-98185225D01*
X54150828Y-98185225D02*
X53079400Y-98470939D01*
X53079400Y-98470939D02*
X54150828Y-98756654D01*
X54150828Y-98756654D02*
X52650828Y-99113797D01*
X54007971Y-101685225D02*
X54079400Y-101613797D01*
X54079400Y-101613797D02*
X54150828Y-101399511D01*
X54150828Y-101399511D02*
X54150828Y-101256654D01*
X54150828Y-101256654D02*
X54079400Y-101042368D01*
X54079400Y-101042368D02*
X53936542Y-100899511D01*
X53936542Y-100899511D02*
X53793685Y-100828082D01*
X53793685Y-100828082D02*
X53507971Y-100756654D01*
X53507971Y-100756654D02*
X53293685Y-100756654D01*
X53293685Y-100756654D02*
X53007971Y-100828082D01*
X53007971Y-100828082D02*
X52865114Y-100899511D01*
X52865114Y-100899511D02*
X52722257Y-101042368D01*
X52722257Y-101042368D02*
X52650828Y-101256654D01*
X52650828Y-101256654D02*
X52650828Y-101399511D01*
X52650828Y-101399511D02*
X52722257Y-101613797D01*
X52722257Y-101613797D02*
X52793685Y-101685225D01*
X52650828Y-102613797D02*
X52650828Y-102899511D01*
X52650828Y-102899511D02*
X52722257Y-103042368D01*
X52722257Y-103042368D02*
X52865114Y-103185225D01*
X52865114Y-103185225D02*
X53150828Y-103256654D01*
X53150828Y-103256654D02*
X53650828Y-103256654D01*
X53650828Y-103256654D02*
X53936542Y-103185225D01*
X53936542Y-103185225D02*
X54079400Y-103042368D01*
X54079400Y-103042368D02*
X54150828Y-102899511D01*
X54150828Y-102899511D02*
X54150828Y-102613797D01*
X54150828Y-102613797D02*
X54079400Y-102470940D01*
X54079400Y-102470940D02*
X53936542Y-102328082D01*
X53936542Y-102328082D02*
X53650828Y-102256654D01*
X53650828Y-102256654D02*
X53150828Y-102256654D01*
X53150828Y-102256654D02*
X52865114Y-102328082D01*
X52865114Y-102328082D02*
X52722257Y-102470940D01*
X52722257Y-102470940D02*
X52650828Y-102613797D01*
X54150828Y-103899511D02*
X52650828Y-103899511D01*
X52650828Y-103899511D02*
X54150828Y-104756654D01*
X54150828Y-104756654D02*
X52650828Y-104756654D01*
X52650828Y-105256655D02*
X52650828Y-106113798D01*
X54150828Y-105685226D02*
X52650828Y-105685226D01*
X54150828Y-107470940D02*
X53436542Y-106970940D01*
X54150828Y-106613797D02*
X52650828Y-106613797D01*
X52650828Y-106613797D02*
X52650828Y-107185226D01*
X52650828Y-107185226D02*
X52722257Y-107328083D01*
X52722257Y-107328083D02*
X52793685Y-107399512D01*
X52793685Y-107399512D02*
X52936542Y-107470940D01*
X52936542Y-107470940D02*
X53150828Y-107470940D01*
X53150828Y-107470940D02*
X53293685Y-107399512D01*
X53293685Y-107399512D02*
X53365114Y-107328083D01*
X53365114Y-107328083D02*
X53436542Y-107185226D01*
X53436542Y-107185226D02*
X53436542Y-106613797D01*
X52650828Y-108399512D02*
X52650828Y-108685226D01*
X52650828Y-108685226D02*
X52722257Y-108828083D01*
X52722257Y-108828083D02*
X52865114Y-108970940D01*
X52865114Y-108970940D02*
X53150828Y-109042369D01*
X53150828Y-109042369D02*
X53650828Y-109042369D01*
X53650828Y-109042369D02*
X53936542Y-108970940D01*
X53936542Y-108970940D02*
X54079400Y-108828083D01*
X54079400Y-108828083D02*
X54150828Y-108685226D01*
X54150828Y-108685226D02*
X54150828Y-108399512D01*
X54150828Y-108399512D02*
X54079400Y-108256655D01*
X54079400Y-108256655D02*
X53936542Y-108113797D01*
X53936542Y-108113797D02*
X53650828Y-108042369D01*
X53650828Y-108042369D02*
X53150828Y-108042369D01*
X53150828Y-108042369D02*
X52865114Y-108113797D01*
X52865114Y-108113797D02*
X52722257Y-108256655D01*
X52722257Y-108256655D02*
X52650828Y-108399512D01*
X54150828Y-110399512D02*
X54150828Y-109685226D01*
X54150828Y-109685226D02*
X52650828Y-109685226D01*
X54150828Y-111613798D02*
X54150828Y-110899512D01*
X54150828Y-110899512D02*
X52650828Y-110899512D01*
X53365114Y-112113798D02*
X53365114Y-112613798D01*
X54150828Y-112828084D02*
X54150828Y-112113798D01*
X54150828Y-112113798D02*
X52650828Y-112113798D01*
X52650828Y-112113798D02*
X52650828Y-112828084D01*
X54150828Y-114328084D02*
X53436542Y-113828084D01*
X54150828Y-113470941D02*
X52650828Y-113470941D01*
X52650828Y-113470941D02*
X52650828Y-114042370D01*
X52650828Y-114042370D02*
X52722257Y-114185227D01*
X52722257Y-114185227D02*
X52793685Y-114256656D01*
X52793685Y-114256656D02*
X52936542Y-114328084D01*
X52936542Y-114328084D02*
X53150828Y-114328084D01*
X53150828Y-114328084D02*
X53293685Y-114256656D01*
X53293685Y-114256656D02*
X53365114Y-114185227D01*
X53365114Y-114185227D02*
X53436542Y-114042370D01*
X53436542Y-114042370D02*
X53436542Y-113470941D01*
X56565828Y-94756653D02*
X55851542Y-94256653D01*
X56565828Y-93899510D02*
X55065828Y-93899510D01*
X55065828Y-93899510D02*
X55065828Y-94470939D01*
X55065828Y-94470939D02*
X55137257Y-94613796D01*
X55137257Y-94613796D02*
X55208685Y-94685225D01*
X55208685Y-94685225D02*
X55351542Y-94756653D01*
X55351542Y-94756653D02*
X55565828Y-94756653D01*
X55565828Y-94756653D02*
X55708685Y-94685225D01*
X55708685Y-94685225D02*
X55780114Y-94613796D01*
X55780114Y-94613796D02*
X55851542Y-94470939D01*
X55851542Y-94470939D02*
X55851542Y-93899510D01*
X55780114Y-95399510D02*
X55780114Y-95899510D01*
X56565828Y-96113796D02*
X56565828Y-95399510D01*
X56565828Y-95399510D02*
X55065828Y-95399510D01*
X55065828Y-95399510D02*
X55065828Y-96113796D01*
X55065828Y-96542368D02*
X56565828Y-97042368D01*
X56565828Y-97042368D02*
X55065828Y-97542368D01*
X55208685Y-99113796D02*
X55137257Y-99185224D01*
X55137257Y-99185224D02*
X55065828Y-99328082D01*
X55065828Y-99328082D02*
X55065828Y-99685224D01*
X55065828Y-99685224D02*
X55137257Y-99828082D01*
X55137257Y-99828082D02*
X55208685Y-99899510D01*
X55208685Y-99899510D02*
X55351542Y-99970939D01*
X55351542Y-99970939D02*
X55494400Y-99970939D01*
X55494400Y-99970939D02*
X55708685Y-99899510D01*
X55708685Y-99899510D02*
X56565828Y-99042367D01*
X56565828Y-99042367D02*
X56565828Y-99970939D01*
X56422971Y-100613795D02*
X56494400Y-100685224D01*
X56494400Y-100685224D02*
X56565828Y-100613795D01*
X56565828Y-100613795D02*
X56494400Y-100542367D01*
X56494400Y-100542367D02*
X56422971Y-100613795D01*
X56422971Y-100613795D02*
X56565828Y-100613795D01*
X55065828Y-101613796D02*
X55065828Y-101756653D01*
X55065828Y-101756653D02*
X55137257Y-101899510D01*
X55137257Y-101899510D02*
X55208685Y-101970939D01*
X55208685Y-101970939D02*
X55351542Y-102042367D01*
X55351542Y-102042367D02*
X55637257Y-102113796D01*
X55637257Y-102113796D02*
X55994400Y-102113796D01*
X55994400Y-102113796D02*
X56280114Y-102042367D01*
X56280114Y-102042367D02*
X56422971Y-101970939D01*
X56422971Y-101970939D02*
X56494400Y-101899510D01*
X56494400Y-101899510D02*
X56565828Y-101756653D01*
X56565828Y-101756653D02*
X56565828Y-101613796D01*
X56565828Y-101613796D02*
X56494400Y-101470939D01*
X56494400Y-101470939D02*
X56422971Y-101399510D01*
X56422971Y-101399510D02*
X56280114Y-101328081D01*
X56280114Y-101328081D02*
X55994400Y-101256653D01*
X55994400Y-101256653D02*
X55637257Y-101256653D01*
X55637257Y-101256653D02*
X55351542Y-101328081D01*
X55351542Y-101328081D02*
X55208685Y-101399510D01*
X55208685Y-101399510D02*
X55137257Y-101470939D01*
X55137257Y-101470939D02*
X55065828Y-101613796D01*
X61324400Y-93828082D02*
X61395828Y-94042368D01*
X61395828Y-94042368D02*
X61395828Y-94399510D01*
X61395828Y-94399510D02*
X61324400Y-94542368D01*
X61324400Y-94542368D02*
X61252971Y-94613796D01*
X61252971Y-94613796D02*
X61110114Y-94685225D01*
X61110114Y-94685225D02*
X60967257Y-94685225D01*
X60967257Y-94685225D02*
X60824400Y-94613796D01*
X60824400Y-94613796D02*
X60752971Y-94542368D01*
X60752971Y-94542368D02*
X60681542Y-94399510D01*
X60681542Y-94399510D02*
X60610114Y-94113796D01*
X60610114Y-94113796D02*
X60538685Y-93970939D01*
X60538685Y-93970939D02*
X60467257Y-93899510D01*
X60467257Y-93899510D02*
X60324400Y-93828082D01*
X60324400Y-93828082D02*
X60181542Y-93828082D01*
X60181542Y-93828082D02*
X60038685Y-93899510D01*
X60038685Y-93899510D02*
X59967257Y-93970939D01*
X59967257Y-93970939D02*
X59895828Y-94113796D01*
X59895828Y-94113796D02*
X59895828Y-94470939D01*
X59895828Y-94470939D02*
X59967257Y-94685225D01*
X61395828Y-95328081D02*
X59895828Y-95328081D01*
X59895828Y-95328081D02*
X61395828Y-96185224D01*
X61395828Y-96185224D02*
X59895828Y-96185224D01*
D11*
X102401666Y-112849819D02*
X102734999Y-112373628D01*
X102973094Y-112849819D02*
X102973094Y-111849819D01*
X102973094Y-111849819D02*
X102592142Y-111849819D01*
X102592142Y-111849819D02*
X102496904Y-111897438D01*
X102496904Y-111897438D02*
X102449285Y-111945057D01*
X102449285Y-111945057D02*
X102401666Y-112040295D01*
X102401666Y-112040295D02*
X102401666Y-112183152D01*
X102401666Y-112183152D02*
X102449285Y-112278390D01*
X102449285Y-112278390D02*
X102496904Y-112326009D01*
X102496904Y-112326009D02*
X102592142Y-112373628D01*
X102592142Y-112373628D02*
X102973094Y-112373628D01*
X102020713Y-111945057D02*
X101973094Y-111897438D01*
X101973094Y-111897438D02*
X101877856Y-111849819D01*
X101877856Y-111849819D02*
X101639761Y-111849819D01*
X101639761Y-111849819D02*
X101544523Y-111897438D01*
X101544523Y-111897438D02*
X101496904Y-111945057D01*
X101496904Y-111945057D02*
X101449285Y-112040295D01*
X101449285Y-112040295D02*
X101449285Y-112135533D01*
X101449285Y-112135533D02*
X101496904Y-112278390D01*
X101496904Y-112278390D02*
X102068332Y-112849819D01*
X102068332Y-112849819D02*
X101449285Y-112849819D01*
X79992857Y-82684580D02*
X80040476Y-82732200D01*
X80040476Y-82732200D02*
X80183333Y-82779819D01*
X80183333Y-82779819D02*
X80278571Y-82779819D01*
X80278571Y-82779819D02*
X80421428Y-82732200D01*
X80421428Y-82732200D02*
X80516666Y-82636961D01*
X80516666Y-82636961D02*
X80564285Y-82541723D01*
X80564285Y-82541723D02*
X80611904Y-82351247D01*
X80611904Y-82351247D02*
X80611904Y-82208390D01*
X80611904Y-82208390D02*
X80564285Y-82017914D01*
X80564285Y-82017914D02*
X80516666Y-81922676D01*
X80516666Y-81922676D02*
X80421428Y-81827438D01*
X80421428Y-81827438D02*
X80278571Y-81779819D01*
X80278571Y-81779819D02*
X80183333Y-81779819D01*
X80183333Y-81779819D02*
X80040476Y-81827438D01*
X80040476Y-81827438D02*
X79992857Y-81875057D01*
X79040476Y-82779819D02*
X79611904Y-82779819D01*
X79326190Y-82779819D02*
X79326190Y-81779819D01*
X79326190Y-81779819D02*
X79421428Y-81922676D01*
X79421428Y-81922676D02*
X79516666Y-82017914D01*
X79516666Y-82017914D02*
X79611904Y-82065533D01*
X78135714Y-81779819D02*
X78611904Y-81779819D01*
X78611904Y-81779819D02*
X78659523Y-82256009D01*
X78659523Y-82256009D02*
X78611904Y-82208390D01*
X78611904Y-82208390D02*
X78516666Y-82160771D01*
X78516666Y-82160771D02*
X78278571Y-82160771D01*
X78278571Y-82160771D02*
X78183333Y-82208390D01*
X78183333Y-82208390D02*
X78135714Y-82256009D01*
X78135714Y-82256009D02*
X78088095Y-82351247D01*
X78088095Y-82351247D02*
X78088095Y-82589342D01*
X78088095Y-82589342D02*
X78135714Y-82684580D01*
X78135714Y-82684580D02*
X78183333Y-82732200D01*
X78183333Y-82732200D02*
X78278571Y-82779819D01*
X78278571Y-82779819D02*
X78516666Y-82779819D01*
X78516666Y-82779819D02*
X78611904Y-82732200D01*
X78611904Y-82732200D02*
X78659523Y-82684580D01*
X94151666Y-86539819D02*
X94484999Y-86063628D01*
X94723094Y-86539819D02*
X94723094Y-85539819D01*
X94723094Y-85539819D02*
X94342142Y-85539819D01*
X94342142Y-85539819D02*
X94246904Y-85587438D01*
X94246904Y-85587438D02*
X94199285Y-85635057D01*
X94199285Y-85635057D02*
X94151666Y-85730295D01*
X94151666Y-85730295D02*
X94151666Y-85873152D01*
X94151666Y-85873152D02*
X94199285Y-85968390D01*
X94199285Y-85968390D02*
X94246904Y-86016009D01*
X94246904Y-86016009D02*
X94342142Y-86063628D01*
X94342142Y-86063628D02*
X94723094Y-86063628D01*
X93818332Y-85539819D02*
X93199285Y-85539819D01*
X93199285Y-85539819D02*
X93532618Y-85920771D01*
X93532618Y-85920771D02*
X93389761Y-85920771D01*
X93389761Y-85920771D02*
X93294523Y-85968390D01*
X93294523Y-85968390D02*
X93246904Y-86016009D01*
X93246904Y-86016009D02*
X93199285Y-86111247D01*
X93199285Y-86111247D02*
X93199285Y-86349342D01*
X93199285Y-86349342D02*
X93246904Y-86444580D01*
X93246904Y-86444580D02*
X93294523Y-86492200D01*
X93294523Y-86492200D02*
X93389761Y-86539819D01*
X93389761Y-86539819D02*
X93675475Y-86539819D01*
X93675475Y-86539819D02*
X93770713Y-86492200D01*
X93770713Y-86492200D02*
X93818332Y-86444580D01*
X63385666Y-94040819D02*
X63718999Y-93564628D01*
X63957094Y-94040819D02*
X63957094Y-93040819D01*
X63957094Y-93040819D02*
X63576142Y-93040819D01*
X63576142Y-93040819D02*
X63480904Y-93088438D01*
X63480904Y-93088438D02*
X63433285Y-93136057D01*
X63433285Y-93136057D02*
X63385666Y-93231295D01*
X63385666Y-93231295D02*
X63385666Y-93374152D01*
X63385666Y-93374152D02*
X63433285Y-93469390D01*
X63433285Y-93469390D02*
X63480904Y-93517009D01*
X63480904Y-93517009D02*
X63576142Y-93564628D01*
X63576142Y-93564628D02*
X63957094Y-93564628D01*
X62814237Y-93469390D02*
X62909475Y-93421771D01*
X62909475Y-93421771D02*
X62957094Y-93374152D01*
X62957094Y-93374152D02*
X63004713Y-93278914D01*
X63004713Y-93278914D02*
X63004713Y-93231295D01*
X63004713Y-93231295D02*
X62957094Y-93136057D01*
X62957094Y-93136057D02*
X62909475Y-93088438D01*
X62909475Y-93088438D02*
X62814237Y-93040819D01*
X62814237Y-93040819D02*
X62623761Y-93040819D01*
X62623761Y-93040819D02*
X62528523Y-93088438D01*
X62528523Y-93088438D02*
X62480904Y-93136057D01*
X62480904Y-93136057D02*
X62433285Y-93231295D01*
X62433285Y-93231295D02*
X62433285Y-93278914D01*
X62433285Y-93278914D02*
X62480904Y-93374152D01*
X62480904Y-93374152D02*
X62528523Y-93421771D01*
X62528523Y-93421771D02*
X62623761Y-93469390D01*
X62623761Y-93469390D02*
X62814237Y-93469390D01*
X62814237Y-93469390D02*
X62909475Y-93517009D01*
X62909475Y-93517009D02*
X62957094Y-93564628D01*
X62957094Y-93564628D02*
X63004713Y-93659866D01*
X63004713Y-93659866D02*
X63004713Y-93850342D01*
X63004713Y-93850342D02*
X62957094Y-93945580D01*
X62957094Y-93945580D02*
X62909475Y-93993200D01*
X62909475Y-93993200D02*
X62814237Y-94040819D01*
X62814237Y-94040819D02*
X62623761Y-94040819D01*
X62623761Y-94040819D02*
X62528523Y-93993200D01*
X62528523Y-93993200D02*
X62480904Y-93945580D01*
X62480904Y-93945580D02*
X62433285Y-93850342D01*
X62433285Y-93850342D02*
X62433285Y-93659866D01*
X62433285Y-93659866D02*
X62480904Y-93564628D01*
X62480904Y-93564628D02*
X62528523Y-93517009D01*
X62528523Y-93517009D02*
X62623761Y-93469390D01*
X63458523Y-106174819D02*
X63791856Y-105698628D01*
X64029951Y-106174819D02*
X64029951Y-105174819D01*
X64029951Y-105174819D02*
X63648999Y-105174819D01*
X63648999Y-105174819D02*
X63553761Y-105222438D01*
X63553761Y-105222438D02*
X63506142Y-105270057D01*
X63506142Y-105270057D02*
X63458523Y-105365295D01*
X63458523Y-105365295D02*
X63458523Y-105508152D01*
X63458523Y-105508152D02*
X63506142Y-105603390D01*
X63506142Y-105603390D02*
X63553761Y-105651009D01*
X63553761Y-105651009D02*
X63648999Y-105698628D01*
X63648999Y-105698628D02*
X64029951Y-105698628D01*
X62982332Y-106174819D02*
X62791856Y-106174819D01*
X62791856Y-106174819D02*
X62696618Y-106127200D01*
X62696618Y-106127200D02*
X62648999Y-106079580D01*
X62648999Y-106079580D02*
X62553761Y-105936723D01*
X62553761Y-105936723D02*
X62506142Y-105746247D01*
X62506142Y-105746247D02*
X62506142Y-105365295D01*
X62506142Y-105365295D02*
X62553761Y-105270057D01*
X62553761Y-105270057D02*
X62601380Y-105222438D01*
X62601380Y-105222438D02*
X62696618Y-105174819D01*
X62696618Y-105174819D02*
X62887094Y-105174819D01*
X62887094Y-105174819D02*
X62982332Y-105222438D01*
X62982332Y-105222438D02*
X63029951Y-105270057D01*
X63029951Y-105270057D02*
X63077570Y-105365295D01*
X63077570Y-105365295D02*
X63077570Y-105603390D01*
X63077570Y-105603390D02*
X63029951Y-105698628D01*
X63029951Y-105698628D02*
X62982332Y-105746247D01*
X62982332Y-105746247D02*
X62887094Y-105793866D01*
X62887094Y-105793866D02*
X62696618Y-105793866D01*
X62696618Y-105793866D02*
X62601380Y-105746247D01*
X62601380Y-105746247D02*
X62553761Y-105698628D01*
X62553761Y-105698628D02*
X62506142Y-105603390D01*
X85449580Y-89527142D02*
X85497200Y-89479523D01*
X85497200Y-89479523D02*
X85544819Y-89336666D01*
X85544819Y-89336666D02*
X85544819Y-89241428D01*
X85544819Y-89241428D02*
X85497200Y-89098571D01*
X85497200Y-89098571D02*
X85401961Y-89003333D01*
X85401961Y-89003333D02*
X85306723Y-88955714D01*
X85306723Y-88955714D02*
X85116247Y-88908095D01*
X85116247Y-88908095D02*
X84973390Y-88908095D01*
X84973390Y-88908095D02*
X84782914Y-88955714D01*
X84782914Y-88955714D02*
X84687676Y-89003333D01*
X84687676Y-89003333D02*
X84592438Y-89098571D01*
X84592438Y-89098571D02*
X84544819Y-89241428D01*
X84544819Y-89241428D02*
X84544819Y-89336666D01*
X84544819Y-89336666D02*
X84592438Y-89479523D01*
X84592438Y-89479523D02*
X84640057Y-89527142D01*
X85544819Y-90479523D02*
X85544819Y-89908095D01*
X85544819Y-90193809D02*
X84544819Y-90193809D01*
X84544819Y-90193809D02*
X84687676Y-90098571D01*
X84687676Y-90098571D02*
X84782914Y-90003333D01*
X84782914Y-90003333D02*
X84830533Y-89908095D01*
X84640057Y-90860476D02*
X84592438Y-90908095D01*
X84592438Y-90908095D02*
X84544819Y-91003333D01*
X84544819Y-91003333D02*
X84544819Y-91241428D01*
X84544819Y-91241428D02*
X84592438Y-91336666D01*
X84592438Y-91336666D02*
X84640057Y-91384285D01*
X84640057Y-91384285D02*
X84735295Y-91431904D01*
X84735295Y-91431904D02*
X84830533Y-91431904D01*
X84830533Y-91431904D02*
X84973390Y-91384285D01*
X84973390Y-91384285D02*
X85544819Y-90812857D01*
X85544819Y-90812857D02*
X85544819Y-91431904D01*
X90796666Y-92024819D02*
X91129999Y-91548628D01*
X91368094Y-92024819D02*
X91368094Y-91024819D01*
X91368094Y-91024819D02*
X90987142Y-91024819D01*
X90987142Y-91024819D02*
X90891904Y-91072438D01*
X90891904Y-91072438D02*
X90844285Y-91120057D01*
X90844285Y-91120057D02*
X90796666Y-91215295D01*
X90796666Y-91215295D02*
X90796666Y-91358152D01*
X90796666Y-91358152D02*
X90844285Y-91453390D01*
X90844285Y-91453390D02*
X90891904Y-91501009D01*
X90891904Y-91501009D02*
X90987142Y-91548628D01*
X90987142Y-91548628D02*
X91368094Y-91548628D01*
X89939523Y-91358152D02*
X89939523Y-92024819D01*
X90177618Y-90977200D02*
X90415713Y-91691485D01*
X90415713Y-91691485D02*
X89796666Y-91691485D01*
X67725908Y-84531529D02*
X67773527Y-84579149D01*
X67773527Y-84579149D02*
X67916384Y-84626768D01*
X67916384Y-84626768D02*
X68011622Y-84626768D01*
X68011622Y-84626768D02*
X68154479Y-84579149D01*
X68154479Y-84579149D02*
X68249717Y-84483910D01*
X68249717Y-84483910D02*
X68297336Y-84388672D01*
X68297336Y-84388672D02*
X68344955Y-84198196D01*
X68344955Y-84198196D02*
X68344955Y-84055339D01*
X68344955Y-84055339D02*
X68297336Y-83864863D01*
X68297336Y-83864863D02*
X68249717Y-83769625D01*
X68249717Y-83769625D02*
X68154479Y-83674387D01*
X68154479Y-83674387D02*
X68011622Y-83626768D01*
X68011622Y-83626768D02*
X67916384Y-83626768D01*
X67916384Y-83626768D02*
X67773527Y-83674387D01*
X67773527Y-83674387D02*
X67725908Y-83722006D01*
X66773527Y-84626768D02*
X67344955Y-84626768D01*
X67059241Y-84626768D02*
X67059241Y-83626768D01*
X67059241Y-83626768D02*
X67154479Y-83769625D01*
X67154479Y-83769625D02*
X67249717Y-83864863D01*
X67249717Y-83864863D02*
X67344955Y-83912482D01*
X65916384Y-83626768D02*
X66106860Y-83626768D01*
X66106860Y-83626768D02*
X66202098Y-83674387D01*
X66202098Y-83674387D02*
X66249717Y-83722006D01*
X66249717Y-83722006D02*
X66344955Y-83864863D01*
X66344955Y-83864863D02*
X66392574Y-84055339D01*
X66392574Y-84055339D02*
X66392574Y-84436291D01*
X66392574Y-84436291D02*
X66344955Y-84531529D01*
X66344955Y-84531529D02*
X66297336Y-84579149D01*
X66297336Y-84579149D02*
X66202098Y-84626768D01*
X66202098Y-84626768D02*
X66011622Y-84626768D01*
X66011622Y-84626768D02*
X65916384Y-84579149D01*
X65916384Y-84579149D02*
X65868765Y-84531529D01*
X65868765Y-84531529D02*
X65821146Y-84436291D01*
X65821146Y-84436291D02*
X65821146Y-84198196D01*
X65821146Y-84198196D02*
X65868765Y-84102958D01*
X65868765Y-84102958D02*
X65916384Y-84055339D01*
X65916384Y-84055339D02*
X66011622Y-84007720D01*
X66011622Y-84007720D02*
X66202098Y-84007720D01*
X66202098Y-84007720D02*
X66297336Y-84055339D01*
X66297336Y-84055339D02*
X66344955Y-84102958D01*
X66344955Y-84102958D02*
X66392574Y-84198196D01*
X83639819Y-89368333D02*
X83163628Y-89035000D01*
X83639819Y-88796905D02*
X82639819Y-88796905D01*
X82639819Y-88796905D02*
X82639819Y-89177857D01*
X82639819Y-89177857D02*
X82687438Y-89273095D01*
X82687438Y-89273095D02*
X82735057Y-89320714D01*
X82735057Y-89320714D02*
X82830295Y-89368333D01*
X82830295Y-89368333D02*
X82973152Y-89368333D01*
X82973152Y-89368333D02*
X83068390Y-89320714D01*
X83068390Y-89320714D02*
X83116009Y-89273095D01*
X83116009Y-89273095D02*
X83163628Y-89177857D01*
X83163628Y-89177857D02*
X83163628Y-88796905D01*
X82639819Y-90225476D02*
X82639819Y-90035000D01*
X82639819Y-90035000D02*
X82687438Y-89939762D01*
X82687438Y-89939762D02*
X82735057Y-89892143D01*
X82735057Y-89892143D02*
X82877914Y-89796905D01*
X82877914Y-89796905D02*
X83068390Y-89749286D01*
X83068390Y-89749286D02*
X83449342Y-89749286D01*
X83449342Y-89749286D02*
X83544580Y-89796905D01*
X83544580Y-89796905D02*
X83592200Y-89844524D01*
X83592200Y-89844524D02*
X83639819Y-89939762D01*
X83639819Y-89939762D02*
X83639819Y-90130238D01*
X83639819Y-90130238D02*
X83592200Y-90225476D01*
X83592200Y-90225476D02*
X83544580Y-90273095D01*
X83544580Y-90273095D02*
X83449342Y-90320714D01*
X83449342Y-90320714D02*
X83211247Y-90320714D01*
X83211247Y-90320714D02*
X83116009Y-90273095D01*
X83116009Y-90273095D02*
X83068390Y-90225476D01*
X83068390Y-90225476D02*
X83020771Y-90130238D01*
X83020771Y-90130238D02*
X83020771Y-89939762D01*
X83020771Y-89939762D02*
X83068390Y-89844524D01*
X83068390Y-89844524D02*
X83116009Y-89796905D01*
X83116009Y-89796905D02*
X83211247Y-89749286D01*
X81099819Y-91908333D02*
X80623628Y-91575000D01*
X81099819Y-91336905D02*
X80099819Y-91336905D01*
X80099819Y-91336905D02*
X80099819Y-91717857D01*
X80099819Y-91717857D02*
X80147438Y-91813095D01*
X80147438Y-91813095D02*
X80195057Y-91860714D01*
X80195057Y-91860714D02*
X80290295Y-91908333D01*
X80290295Y-91908333D02*
X80433152Y-91908333D01*
X80433152Y-91908333D02*
X80528390Y-91860714D01*
X80528390Y-91860714D02*
X80576009Y-91813095D01*
X80576009Y-91813095D02*
X80623628Y-91717857D01*
X80623628Y-91717857D02*
X80623628Y-91336905D01*
X80099819Y-92813095D02*
X80099819Y-92336905D01*
X80099819Y-92336905D02*
X80576009Y-92289286D01*
X80576009Y-92289286D02*
X80528390Y-92336905D01*
X80528390Y-92336905D02*
X80480771Y-92432143D01*
X80480771Y-92432143D02*
X80480771Y-92670238D01*
X80480771Y-92670238D02*
X80528390Y-92765476D01*
X80528390Y-92765476D02*
X80576009Y-92813095D01*
X80576009Y-92813095D02*
X80671247Y-92860714D01*
X80671247Y-92860714D02*
X80909342Y-92860714D01*
X80909342Y-92860714D02*
X81004580Y-92813095D01*
X81004580Y-92813095D02*
X81052200Y-92765476D01*
X81052200Y-92765476D02*
X81099819Y-92670238D01*
X81099819Y-92670238D02*
X81099819Y-92432143D01*
X81099819Y-92432143D02*
X81052200Y-92336905D01*
X81052200Y-92336905D02*
X81004580Y-92289286D01*
X81927857Y-111920621D02*
X81975476Y-111968241D01*
X81975476Y-111968241D02*
X82118333Y-112015860D01*
X82118333Y-112015860D02*
X82213571Y-112015860D01*
X82213571Y-112015860D02*
X82356428Y-111968241D01*
X82356428Y-111968241D02*
X82451666Y-111873002D01*
X82451666Y-111873002D02*
X82499285Y-111777764D01*
X82499285Y-111777764D02*
X82546904Y-111587288D01*
X82546904Y-111587288D02*
X82546904Y-111444431D01*
X82546904Y-111444431D02*
X82499285Y-111253955D01*
X82499285Y-111253955D02*
X82451666Y-111158717D01*
X82451666Y-111158717D02*
X82356428Y-111063479D01*
X82356428Y-111063479D02*
X82213571Y-111015860D01*
X82213571Y-111015860D02*
X82118333Y-111015860D01*
X82118333Y-111015860D02*
X81975476Y-111063479D01*
X81975476Y-111063479D02*
X81927857Y-111111098D01*
X81546904Y-111111098D02*
X81499285Y-111063479D01*
X81499285Y-111063479D02*
X81404047Y-111015860D01*
X81404047Y-111015860D02*
X81165952Y-111015860D01*
X81165952Y-111015860D02*
X81070714Y-111063479D01*
X81070714Y-111063479D02*
X81023095Y-111111098D01*
X81023095Y-111111098D02*
X80975476Y-111206336D01*
X80975476Y-111206336D02*
X80975476Y-111301574D01*
X80975476Y-111301574D02*
X81023095Y-111444431D01*
X81023095Y-111444431D02*
X81594523Y-112015860D01*
X81594523Y-112015860D02*
X80975476Y-112015860D01*
X80023095Y-112015860D02*
X80594523Y-112015860D01*
X80308809Y-112015860D02*
X80308809Y-111015860D01*
X80308809Y-111015860D02*
X80404047Y-111158717D01*
X80404047Y-111158717D02*
X80499285Y-111253955D01*
X80499285Y-111253955D02*
X80594523Y-111301574D01*
X60332857Y-103864580D02*
X60380476Y-103912200D01*
X60380476Y-103912200D02*
X60523333Y-103959819D01*
X60523333Y-103959819D02*
X60618571Y-103959819D01*
X60618571Y-103959819D02*
X60761428Y-103912200D01*
X60761428Y-103912200D02*
X60856666Y-103816961D01*
X60856666Y-103816961D02*
X60904285Y-103721723D01*
X60904285Y-103721723D02*
X60951904Y-103531247D01*
X60951904Y-103531247D02*
X60951904Y-103388390D01*
X60951904Y-103388390D02*
X60904285Y-103197914D01*
X60904285Y-103197914D02*
X60856666Y-103102676D01*
X60856666Y-103102676D02*
X60761428Y-103007438D01*
X60761428Y-103007438D02*
X60618571Y-102959819D01*
X60618571Y-102959819D02*
X60523333Y-102959819D01*
X60523333Y-102959819D02*
X60380476Y-103007438D01*
X60380476Y-103007438D02*
X60332857Y-103055057D01*
X59380476Y-103959819D02*
X59951904Y-103959819D01*
X59666190Y-103959819D02*
X59666190Y-102959819D01*
X59666190Y-102959819D02*
X59761428Y-103102676D01*
X59761428Y-103102676D02*
X59856666Y-103197914D01*
X59856666Y-103197914D02*
X59951904Y-103245533D01*
X59047142Y-102959819D02*
X58380476Y-102959819D01*
X58380476Y-102959819D02*
X58809047Y-103959819D01*
D12*
%TO.C,J7*%
X100057949Y-96157051D02*
G75*
G03*
X99295949Y-96157051I-381000J0D01*
G01*
X99295949Y-96157051D02*
G75*
G03*
X100057949Y-96157051I381000J0D01*
G01*
%TO.C,C15*%
X82085000Y-83353733D02*
X82085000Y-83646267D01*
X81065000Y-83353733D02*
X81065000Y-83646267D01*
%TO.C,R3*%
X92597500Y-86740276D02*
X92597500Y-87249724D01*
X91552500Y-86740276D02*
X91552500Y-87249724D01*
%TO.C,R8*%
X64882500Y-94234724D02*
X64882500Y-93725276D01*
X65927500Y-94234724D02*
X65927500Y-93725276D01*
%TO.C,R9*%
X63546581Y-107672500D02*
X63037133Y-107672500D01*
X63546581Y-106627500D02*
X63037133Y-106627500D01*
%TO.C,J1*%
X85055749Y-103691651D02*
X85055749Y-106351651D01*
X82455749Y-103691651D02*
X85055749Y-103691651D01*
X82455749Y-103691651D02*
X82455749Y-106351651D01*
X81185749Y-103691651D02*
X79855749Y-103691651D01*
X79855749Y-103691651D02*
X79855749Y-105021651D01*
X82455749Y-106351651D02*
X85055749Y-106351651D01*
%TO.C,C12*%
X84561949Y-87159318D02*
X84561949Y-86866784D01*
X85581949Y-87159318D02*
X85581949Y-86866784D01*
%TO.C,R4*%
X92187500Y-92964724D02*
X92187500Y-92455276D01*
X93232500Y-92964724D02*
X93232500Y-92455276D01*
%TO.C,C16*%
X70475000Y-81358959D02*
X70475000Y-82608959D01*
X69850000Y-81983959D02*
X71100000Y-81983959D01*
X67720000Y-88176041D02*
X80380000Y-88176041D01*
X67720000Y-88216041D02*
X80380000Y-88216041D01*
X67720000Y-88256041D02*
X80380000Y-88256041D01*
X67721000Y-88296041D02*
X80379000Y-88296041D01*
X67722000Y-88336041D02*
X80378000Y-88336041D01*
X67723000Y-88376041D02*
X80377000Y-88376041D01*
X67724000Y-88416041D02*
X80376000Y-88416041D01*
X67726000Y-88456041D02*
X80374000Y-88456041D01*
X67728000Y-88496041D02*
X80372000Y-88496041D01*
X67730000Y-88536041D02*
X80370000Y-88536041D01*
X67732000Y-88576041D02*
X80368000Y-88576041D01*
X67735000Y-88616041D02*
X80365000Y-88616041D01*
X67738000Y-88656041D02*
X80362000Y-88656041D01*
X67741000Y-88696041D02*
X80359000Y-88696041D01*
X67744000Y-88736041D02*
X80356000Y-88736041D01*
X67748000Y-88776041D02*
X80352000Y-88776041D01*
X67752000Y-88816041D02*
X80348000Y-88816041D01*
X67756000Y-88856041D02*
X80344000Y-88856041D01*
X67760000Y-88897041D02*
X80340000Y-88897041D01*
X67765000Y-88937041D02*
X80335000Y-88937041D01*
X67770000Y-88977041D02*
X80330000Y-88977041D01*
X67775000Y-89017041D02*
X80325000Y-89017041D01*
X67781000Y-89057041D02*
X80319000Y-89057041D01*
X67786000Y-89097041D02*
X80314000Y-89097041D01*
X67792000Y-89137041D02*
X80308000Y-89137041D01*
X67798000Y-89177041D02*
X80302000Y-89177041D01*
X67805000Y-89217041D02*
X80295000Y-89217041D01*
X75490000Y-89257041D02*
X80288000Y-89257041D01*
X67812000Y-89257041D02*
X72610000Y-89257041D01*
X75490000Y-89297041D02*
X80281000Y-89297041D01*
X67819000Y-89297041D02*
X72610000Y-89297041D01*
X75490000Y-89337041D02*
X80274000Y-89337041D01*
X67826000Y-89337041D02*
X72610000Y-89337041D01*
X75490000Y-89377041D02*
X80266000Y-89377041D01*
X67834000Y-89377041D02*
X72610000Y-89377041D01*
X75490000Y-89417041D02*
X80259000Y-89417041D01*
X67841000Y-89417041D02*
X72610000Y-89417041D01*
X75490000Y-89457041D02*
X80251000Y-89457041D01*
X67849000Y-89457041D02*
X72610000Y-89457041D01*
X75490000Y-89497041D02*
X80242000Y-89497041D01*
X67858000Y-89497041D02*
X72610000Y-89497041D01*
X75490000Y-89537041D02*
X80234000Y-89537041D01*
X67866000Y-89537041D02*
X72610000Y-89537041D01*
X75490000Y-89577041D02*
X80225000Y-89577041D01*
X67875000Y-89577041D02*
X72610000Y-89577041D01*
X75490000Y-89617041D02*
X80216000Y-89617041D01*
X67884000Y-89617041D02*
X72610000Y-89617041D01*
X75490000Y-89657041D02*
X80206000Y-89657041D01*
X67894000Y-89657041D02*
X72610000Y-89657041D01*
X75490000Y-89697041D02*
X80196000Y-89697041D01*
X67904000Y-89697041D02*
X72610000Y-89697041D01*
X75490000Y-89737041D02*
X80187000Y-89737041D01*
X67913000Y-89737041D02*
X72610000Y-89737041D01*
X75490000Y-89777041D02*
X80176000Y-89777041D01*
X67924000Y-89777041D02*
X72610000Y-89777041D01*
X75490000Y-89817041D02*
X80166000Y-89817041D01*
X67934000Y-89817041D02*
X72610000Y-89817041D01*
X75490000Y-89857041D02*
X80155000Y-89857041D01*
X67945000Y-89857041D02*
X72610000Y-89857041D01*
X75490000Y-89897041D02*
X80144000Y-89897041D01*
X67956000Y-89897041D02*
X72610000Y-89897041D01*
X75490000Y-89937041D02*
X80133000Y-89937041D01*
X67967000Y-89937041D02*
X72610000Y-89937041D01*
X75490000Y-89977041D02*
X80121000Y-89977041D01*
X67979000Y-89977041D02*
X72610000Y-89977041D01*
X75490000Y-90017041D02*
X80109000Y-90017041D01*
X67991000Y-90017041D02*
X72610000Y-90017041D01*
X75490000Y-90057041D02*
X80097000Y-90057041D01*
X68003000Y-90057041D02*
X72610000Y-90057041D01*
X75490000Y-90097041D02*
X80084000Y-90097041D01*
X68016000Y-90097041D02*
X72610000Y-90097041D01*
X75490000Y-90137041D02*
X80071000Y-90137041D01*
X68029000Y-90137041D02*
X72610000Y-90137041D01*
X75490000Y-90177041D02*
X80058000Y-90177041D01*
X68042000Y-90177041D02*
X72610000Y-90177041D01*
X75490000Y-90217041D02*
X80045000Y-90217041D01*
X68055000Y-90217041D02*
X72610000Y-90217041D01*
X75490000Y-90257041D02*
X80031000Y-90257041D01*
X68069000Y-90257041D02*
X72610000Y-90257041D01*
X75490000Y-90297041D02*
X80017000Y-90297041D01*
X68083000Y-90297041D02*
X72610000Y-90297041D01*
X75490000Y-90337041D02*
X80003000Y-90337041D01*
X68097000Y-90337041D02*
X72610000Y-90337041D01*
X75490000Y-90377041D02*
X79989000Y-90377041D01*
X68111000Y-90377041D02*
X72610000Y-90377041D01*
X75490000Y-90417041D02*
X79974000Y-90417041D01*
X68126000Y-90417041D02*
X72610000Y-90417041D01*
X75490000Y-90457041D02*
X79958000Y-90457041D01*
X68142000Y-90457041D02*
X72610000Y-90457041D01*
X75490000Y-90497041D02*
X79943000Y-90497041D01*
X68157000Y-90497041D02*
X72610000Y-90497041D01*
X75490000Y-90537041D02*
X79927000Y-90537041D01*
X68173000Y-90537041D02*
X72610000Y-90537041D01*
X75490000Y-90577041D02*
X79911000Y-90577041D01*
X68189000Y-90577041D02*
X72610000Y-90577041D01*
X75490000Y-90617041D02*
X79895000Y-90617041D01*
X68205000Y-90617041D02*
X72610000Y-90617041D01*
X75490000Y-90657041D02*
X79878000Y-90657041D01*
X68222000Y-90657041D02*
X72610000Y-90657041D01*
X75490000Y-90697041D02*
X79861000Y-90697041D01*
X68239000Y-90697041D02*
X72610000Y-90697041D01*
X75490000Y-90737041D02*
X79843000Y-90737041D01*
X68257000Y-90737041D02*
X72610000Y-90737041D01*
X75490000Y-90777041D02*
X79826000Y-90777041D01*
X68274000Y-90777041D02*
X72610000Y-90777041D01*
X75490000Y-90817041D02*
X79808000Y-90817041D01*
X68292000Y-90817041D02*
X72610000Y-90817041D01*
X75490000Y-90857041D02*
X79789000Y-90857041D01*
X68311000Y-90857041D02*
X72610000Y-90857041D01*
X75490000Y-90897041D02*
X79771000Y-90897041D01*
X68329000Y-90897041D02*
X72610000Y-90897041D01*
X75490000Y-90937041D02*
X79752000Y-90937041D01*
X68348000Y-90937041D02*
X72610000Y-90937041D01*
X75490000Y-90977041D02*
X79732000Y-90977041D01*
X68368000Y-90977041D02*
X72610000Y-90977041D01*
X75490000Y-91017041D02*
X79712000Y-91017041D01*
X68388000Y-91017041D02*
X72610000Y-91017041D01*
X75490000Y-91057041D02*
X79692000Y-91057041D01*
X68408000Y-91057041D02*
X72610000Y-91057041D01*
X75490000Y-91097041D02*
X79672000Y-91097041D01*
X68428000Y-91097041D02*
X72610000Y-91097041D01*
X75490000Y-91137041D02*
X79651000Y-91137041D01*
X68449000Y-91137041D02*
X72610000Y-91137041D01*
X75490000Y-91177041D02*
X79630000Y-91177041D01*
X68470000Y-91177041D02*
X72610000Y-91177041D01*
X75490000Y-91217041D02*
X79608000Y-91217041D01*
X68492000Y-91217041D02*
X72610000Y-91217041D01*
X75490000Y-91257041D02*
X79586000Y-91257041D01*
X68514000Y-91257041D02*
X72610000Y-91257041D01*
X75490000Y-91297041D02*
X79564000Y-91297041D01*
X68536000Y-91297041D02*
X72610000Y-91297041D01*
X75490000Y-91337041D02*
X79541000Y-91337041D01*
X68559000Y-91337041D02*
X72610000Y-91337041D01*
X75490000Y-91377041D02*
X79518000Y-91377041D01*
X68582000Y-91377041D02*
X72610000Y-91377041D01*
X75490000Y-91417041D02*
X79495000Y-91417041D01*
X68605000Y-91417041D02*
X72610000Y-91417041D01*
X75490000Y-91457041D02*
X79471000Y-91457041D01*
X68629000Y-91457041D02*
X72610000Y-91457041D01*
X75490000Y-91497041D02*
X79447000Y-91497041D01*
X68653000Y-91497041D02*
X72610000Y-91497041D01*
X75490000Y-91537041D02*
X79422000Y-91537041D01*
X68678000Y-91537041D02*
X72610000Y-91537041D01*
X75490000Y-91577041D02*
X79397000Y-91577041D01*
X68703000Y-91577041D02*
X72610000Y-91577041D01*
X75490000Y-91617041D02*
X79372000Y-91617041D01*
X68728000Y-91617041D02*
X72610000Y-91617041D01*
X75490000Y-91657041D02*
X79346000Y-91657041D01*
X68754000Y-91657041D02*
X72610000Y-91657041D01*
X75490000Y-91697041D02*
X79320000Y-91697041D01*
X68780000Y-91697041D02*
X72610000Y-91697041D01*
X75490000Y-91737041D02*
X79293000Y-91737041D01*
X68807000Y-91737041D02*
X72610000Y-91737041D01*
X75490000Y-91777041D02*
X79266000Y-91777041D01*
X68834000Y-91777041D02*
X72610000Y-91777041D01*
X75490000Y-91817041D02*
X79238000Y-91817041D01*
X68862000Y-91817041D02*
X72610000Y-91817041D01*
X75490000Y-91857041D02*
X79210000Y-91857041D01*
X68890000Y-91857041D02*
X72610000Y-91857041D01*
X75490000Y-91897041D02*
X79181000Y-91897041D01*
X68919000Y-91897041D02*
X72610000Y-91897041D01*
X75490000Y-91937041D02*
X79152000Y-91937041D01*
X68948000Y-91937041D02*
X72610000Y-91937041D01*
X75490000Y-91977041D02*
X79123000Y-91977041D01*
X68977000Y-91977041D02*
X72610000Y-91977041D01*
X75490000Y-92017041D02*
X79093000Y-92017041D01*
X69007000Y-92017041D02*
X72610000Y-92017041D01*
X75490000Y-92057041D02*
X79062000Y-92057041D01*
X69038000Y-92057041D02*
X72610000Y-92057041D01*
X75490000Y-92097041D02*
X79032000Y-92097041D01*
X69068000Y-92097041D02*
X72610000Y-92097041D01*
X69100000Y-92137041D02*
X79000000Y-92137041D01*
X69132000Y-92177041D02*
X78968000Y-92177041D01*
X69165000Y-92217041D02*
X78935000Y-92217041D01*
X69198000Y-92257041D02*
X78902000Y-92257041D01*
X69231000Y-92297041D02*
X78869000Y-92297041D01*
X69265000Y-92337041D02*
X78835000Y-92337041D01*
X69300000Y-92377041D02*
X78800000Y-92377041D01*
X69336000Y-92417041D02*
X78764000Y-92417041D01*
X69372000Y-92457041D02*
X78728000Y-92457041D01*
X69408000Y-92497041D02*
X78692000Y-92497041D01*
X69445000Y-92537041D02*
X78655000Y-92537041D01*
X69483000Y-92577041D02*
X78617000Y-92577041D01*
X69522000Y-92617041D02*
X78578000Y-92617041D01*
X69561000Y-92657041D02*
X78539000Y-92657041D01*
X69601000Y-92697041D02*
X78499000Y-92697041D01*
X69642000Y-92737041D02*
X78458000Y-92737041D01*
X69683000Y-92777041D02*
X78417000Y-92777041D01*
X69725000Y-92817041D02*
X78375000Y-92817041D01*
X69768000Y-92857041D02*
X78332000Y-92857041D01*
X69812000Y-92897041D02*
X78288000Y-92897041D01*
X69856000Y-92937041D02*
X78244000Y-92937041D01*
X69902000Y-92977041D02*
X78198000Y-92977041D01*
X69948000Y-93017041D02*
X78152000Y-93017041D01*
X69995000Y-93057041D02*
X78105000Y-93057041D01*
X70043000Y-93097041D02*
X78057000Y-93097041D01*
X70093000Y-93137041D02*
X78007000Y-93137041D01*
X70143000Y-93177041D02*
X77957000Y-93177041D01*
X70194000Y-93217041D02*
X77906000Y-93217041D01*
X70246000Y-93257041D02*
X77854000Y-93257041D01*
X70300000Y-93297041D02*
X77800000Y-93297041D01*
X70354000Y-93337041D02*
X77746000Y-93337041D01*
X70410000Y-93377041D02*
X77690000Y-93377041D01*
X70467000Y-93417041D02*
X77633000Y-93417041D01*
X70526000Y-93457041D02*
X77574000Y-93457041D01*
X70586000Y-93497041D02*
X77514000Y-93497041D01*
X70648000Y-93537041D02*
X77452000Y-93537041D01*
X70711000Y-93577041D02*
X77389000Y-93577041D01*
X70775000Y-93617041D02*
X77325000Y-93617041D01*
X70842000Y-93657041D02*
X77258000Y-93657041D01*
X70910000Y-93697041D02*
X77190000Y-93697041D01*
X70981000Y-93737041D02*
X77119000Y-93737041D01*
X71054000Y-93777041D02*
X77046000Y-93777041D01*
X71129000Y-93817041D02*
X76971000Y-93817041D01*
X71206000Y-93857041D02*
X76894000Y-93857041D01*
X71286000Y-93897041D02*
X76814000Y-93897041D01*
X71369000Y-93937041D02*
X76731000Y-93937041D01*
X71456000Y-93977041D02*
X76644000Y-93977041D01*
X71546000Y-94017041D02*
X76554000Y-94017041D01*
X71640000Y-94057041D02*
X76460000Y-94057041D01*
X71738000Y-94097041D02*
X76362000Y-94097041D01*
X71841000Y-94137041D02*
X76259000Y-94137041D01*
X71950000Y-94177041D02*
X76150000Y-94177041D01*
X72066000Y-94217041D02*
X76034000Y-94217041D01*
X72189000Y-94257041D02*
X75911000Y-94257041D01*
X72322000Y-94297041D02*
X75778000Y-94297041D01*
X72467000Y-94337041D02*
X75633000Y-94337041D01*
X72628000Y-94377041D02*
X75472000Y-94377041D01*
X72809000Y-94417041D02*
X75291000Y-94417041D01*
X73022000Y-94457041D02*
X75078000Y-94457041D01*
X73293000Y-94497041D02*
X74807000Y-94497041D01*
X73733000Y-94537041D02*
X74367000Y-94537041D01*
X80420000Y-88176041D02*
G75*
G03*
X67680000Y-88176041I-6370000J0D01*
G01*
X67680000Y-88176041D02*
G75*
G03*
X80420000Y-88176041I6370000J0D01*
G01*
%TO.C,J5*%
X95215749Y-103691651D02*
X95215749Y-106351651D01*
X92615749Y-103691651D02*
X95215749Y-103691651D01*
X92615749Y-103691651D02*
X92615749Y-106351651D01*
X91345749Y-103691651D02*
X90015749Y-103691651D01*
X90015749Y-103691651D02*
X90015749Y-105021651D01*
X92615749Y-106351651D02*
X95215749Y-106351651D01*
%TO.C,J6*%
X85055749Y-96071651D02*
X85055749Y-98731651D01*
X82455749Y-96071651D02*
X85055749Y-96071651D01*
X82455749Y-96071651D02*
X82455749Y-98731651D01*
X81185749Y-96071651D02*
X79855749Y-96071651D01*
X79855749Y-96071651D02*
X79855749Y-97401651D01*
X82455749Y-98731651D02*
X85055749Y-98731651D01*
%TO.C,J3*%
X74895749Y-103691651D02*
X74895749Y-106351651D01*
X72295749Y-103691651D02*
X74895749Y-103691651D01*
X72295749Y-103691651D02*
X72295749Y-106351651D01*
X71025749Y-103691651D02*
X69695749Y-103691651D01*
X69695749Y-103691651D02*
X69695749Y-105021651D01*
X72295749Y-106351651D02*
X74895749Y-106351651D01*
%TO.C,R6*%
X83707500Y-86740276D02*
X83707500Y-87249724D01*
X82662500Y-86740276D02*
X82662500Y-87249724D01*
%TO.C,J2*%
X95215749Y-96071651D02*
X95215749Y-98731651D01*
X92615749Y-96071651D02*
X95215749Y-96071651D01*
X92615749Y-96071651D02*
X92615749Y-98731651D01*
X91345749Y-96071651D02*
X90015749Y-96071651D01*
X90015749Y-96071651D02*
X90015749Y-97401651D01*
X92615749Y-98731651D02*
X95215749Y-98731651D01*
%TO.C,R5*%
X82027500Y-92964724D02*
X82027500Y-92455276D01*
X83072500Y-92964724D02*
X83072500Y-92455276D01*
%TO.C,C21*%
X70725000Y-109783959D02*
X70725000Y-111033959D01*
X70100000Y-110408959D02*
X71350000Y-110408959D01*
X67970000Y-116601041D02*
X80630000Y-116601041D01*
X67970000Y-116641041D02*
X80630000Y-116641041D01*
X67970000Y-116681041D02*
X80630000Y-116681041D01*
X67971000Y-116721041D02*
X80629000Y-116721041D01*
X67972000Y-116761041D02*
X80628000Y-116761041D01*
X67973000Y-116801041D02*
X80627000Y-116801041D01*
X67974000Y-116841041D02*
X80626000Y-116841041D01*
X67976000Y-116881041D02*
X80624000Y-116881041D01*
X67978000Y-116921041D02*
X80622000Y-116921041D01*
X67980000Y-116961041D02*
X80620000Y-116961041D01*
X67982000Y-117001041D02*
X80618000Y-117001041D01*
X67985000Y-117041041D02*
X80615000Y-117041041D01*
X67988000Y-117081041D02*
X80612000Y-117081041D01*
X67991000Y-117121041D02*
X80609000Y-117121041D01*
X67994000Y-117161041D02*
X80606000Y-117161041D01*
X67998000Y-117201041D02*
X80602000Y-117201041D01*
X68002000Y-117241041D02*
X80598000Y-117241041D01*
X68006000Y-117281041D02*
X80594000Y-117281041D01*
X68010000Y-117322041D02*
X80590000Y-117322041D01*
X68015000Y-117362041D02*
X80585000Y-117362041D01*
X68020000Y-117402041D02*
X80580000Y-117402041D01*
X68025000Y-117442041D02*
X80575000Y-117442041D01*
X68031000Y-117482041D02*
X80569000Y-117482041D01*
X68036000Y-117522041D02*
X80564000Y-117522041D01*
X68042000Y-117562041D02*
X80558000Y-117562041D01*
X68048000Y-117602041D02*
X80552000Y-117602041D01*
X68055000Y-117642041D02*
X80545000Y-117642041D01*
X75740000Y-117682041D02*
X80538000Y-117682041D01*
X68062000Y-117682041D02*
X72860000Y-117682041D01*
X75740000Y-117722041D02*
X80531000Y-117722041D01*
X68069000Y-117722041D02*
X72860000Y-117722041D01*
X75740000Y-117762041D02*
X80524000Y-117762041D01*
X68076000Y-117762041D02*
X72860000Y-117762041D01*
X75740000Y-117802041D02*
X80516000Y-117802041D01*
X68084000Y-117802041D02*
X72860000Y-117802041D01*
X75740000Y-117842041D02*
X80509000Y-117842041D01*
X68091000Y-117842041D02*
X72860000Y-117842041D01*
X75740000Y-117882041D02*
X80501000Y-117882041D01*
X68099000Y-117882041D02*
X72860000Y-117882041D01*
X75740000Y-117922041D02*
X80492000Y-117922041D01*
X68108000Y-117922041D02*
X72860000Y-117922041D01*
X75740000Y-117962041D02*
X80484000Y-117962041D01*
X68116000Y-117962041D02*
X72860000Y-117962041D01*
X75740000Y-118002041D02*
X80475000Y-118002041D01*
X68125000Y-118002041D02*
X72860000Y-118002041D01*
X75740000Y-118042041D02*
X80466000Y-118042041D01*
X68134000Y-118042041D02*
X72860000Y-118042041D01*
X75740000Y-118082041D02*
X80456000Y-118082041D01*
X68144000Y-118082041D02*
X72860000Y-118082041D01*
X75740000Y-118122041D02*
X80446000Y-118122041D01*
X68154000Y-118122041D02*
X72860000Y-118122041D01*
X75740000Y-118162041D02*
X80437000Y-118162041D01*
X68163000Y-118162041D02*
X72860000Y-118162041D01*
X75740000Y-118202041D02*
X80426000Y-118202041D01*
X68174000Y-118202041D02*
X72860000Y-118202041D01*
X75740000Y-118242041D02*
X80416000Y-118242041D01*
X68184000Y-118242041D02*
X72860000Y-118242041D01*
X75740000Y-118282041D02*
X80405000Y-118282041D01*
X68195000Y-118282041D02*
X72860000Y-118282041D01*
X75740000Y-118322041D02*
X80394000Y-118322041D01*
X68206000Y-118322041D02*
X72860000Y-118322041D01*
X75740000Y-118362041D02*
X80383000Y-118362041D01*
X68217000Y-118362041D02*
X72860000Y-118362041D01*
X75740000Y-118402041D02*
X80371000Y-118402041D01*
X68229000Y-118402041D02*
X72860000Y-118402041D01*
X75740000Y-118442041D02*
X80359000Y-118442041D01*
X68241000Y-118442041D02*
X72860000Y-118442041D01*
X75740000Y-118482041D02*
X80347000Y-118482041D01*
X68253000Y-118482041D02*
X72860000Y-118482041D01*
X75740000Y-118522041D02*
X80334000Y-118522041D01*
X68266000Y-118522041D02*
X72860000Y-118522041D01*
X75740000Y-118562041D02*
X80321000Y-118562041D01*
X68279000Y-118562041D02*
X72860000Y-118562041D01*
X75740000Y-118602041D02*
X80308000Y-118602041D01*
X68292000Y-118602041D02*
X72860000Y-118602041D01*
X75740000Y-118642041D02*
X80295000Y-118642041D01*
X68305000Y-118642041D02*
X72860000Y-118642041D01*
X75740000Y-118682041D02*
X80281000Y-118682041D01*
X68319000Y-118682041D02*
X72860000Y-118682041D01*
X75740000Y-118722041D02*
X80267000Y-118722041D01*
X68333000Y-118722041D02*
X72860000Y-118722041D01*
X75740000Y-118762041D02*
X80253000Y-118762041D01*
X68347000Y-118762041D02*
X72860000Y-118762041D01*
X75740000Y-118802041D02*
X80239000Y-118802041D01*
X68361000Y-118802041D02*
X72860000Y-118802041D01*
X75740000Y-118842041D02*
X80224000Y-118842041D01*
X68376000Y-118842041D02*
X72860000Y-118842041D01*
X75740000Y-118882041D02*
X80208000Y-118882041D01*
X68392000Y-118882041D02*
X72860000Y-118882041D01*
X75740000Y-118922041D02*
X80193000Y-118922041D01*
X68407000Y-118922041D02*
X72860000Y-118922041D01*
X75740000Y-118962041D02*
X80177000Y-118962041D01*
X68423000Y-118962041D02*
X72860000Y-118962041D01*
X75740000Y-119002041D02*
X80161000Y-119002041D01*
X68439000Y-119002041D02*
X72860000Y-119002041D01*
X75740000Y-119042041D02*
X80145000Y-119042041D01*
X68455000Y-119042041D02*
X72860000Y-119042041D01*
X75740000Y-119082041D02*
X80128000Y-119082041D01*
X68472000Y-119082041D02*
X72860000Y-119082041D01*
X75740000Y-119122041D02*
X80111000Y-119122041D01*
X68489000Y-119122041D02*
X72860000Y-119122041D01*
X75740000Y-119162041D02*
X80093000Y-119162041D01*
X68507000Y-119162041D02*
X72860000Y-119162041D01*
X75740000Y-119202041D02*
X80076000Y-119202041D01*
X68524000Y-119202041D02*
X72860000Y-119202041D01*
X75740000Y-119242041D02*
X80058000Y-119242041D01*
X68542000Y-119242041D02*
X72860000Y-119242041D01*
X75740000Y-119282041D02*
X80039000Y-119282041D01*
X68561000Y-119282041D02*
X72860000Y-119282041D01*
X75740000Y-119322041D02*
X80021000Y-119322041D01*
X68579000Y-119322041D02*
X72860000Y-119322041D01*
X75740000Y-119362041D02*
X80002000Y-119362041D01*
X68598000Y-119362041D02*
X72860000Y-119362041D01*
X75740000Y-119402041D02*
X79982000Y-119402041D01*
X68618000Y-119402041D02*
X72860000Y-119402041D01*
X75740000Y-119442041D02*
X79962000Y-119442041D01*
X68638000Y-119442041D02*
X72860000Y-119442041D01*
X75740000Y-119482041D02*
X79942000Y-119482041D01*
X68658000Y-119482041D02*
X72860000Y-119482041D01*
X75740000Y-119522041D02*
X79922000Y-119522041D01*
X68678000Y-119522041D02*
X72860000Y-119522041D01*
X75740000Y-119562041D02*
X79901000Y-119562041D01*
X68699000Y-119562041D02*
X72860000Y-119562041D01*
X75740000Y-119602041D02*
X79880000Y-119602041D01*
X68720000Y-119602041D02*
X72860000Y-119602041D01*
X75740000Y-119642041D02*
X79858000Y-119642041D01*
X68742000Y-119642041D02*
X72860000Y-119642041D01*
X75740000Y-119682041D02*
X79836000Y-119682041D01*
X68764000Y-119682041D02*
X72860000Y-119682041D01*
X75740000Y-119722041D02*
X79814000Y-119722041D01*
X68786000Y-119722041D02*
X72860000Y-119722041D01*
X75740000Y-119762041D02*
X79791000Y-119762041D01*
X68809000Y-119762041D02*
X72860000Y-119762041D01*
X75740000Y-119802041D02*
X79768000Y-119802041D01*
X68832000Y-119802041D02*
X72860000Y-119802041D01*
X75740000Y-119842041D02*
X79745000Y-119842041D01*
X68855000Y-119842041D02*
X72860000Y-119842041D01*
X75740000Y-119882041D02*
X79721000Y-119882041D01*
X68879000Y-119882041D02*
X72860000Y-119882041D01*
X75740000Y-119922041D02*
X79697000Y-119922041D01*
X68903000Y-119922041D02*
X72860000Y-119922041D01*
X75740000Y-119962041D02*
X79672000Y-119962041D01*
X68928000Y-119962041D02*
X72860000Y-119962041D01*
X75740000Y-120002041D02*
X79647000Y-120002041D01*
X68953000Y-120002041D02*
X72860000Y-120002041D01*
X75740000Y-120042041D02*
X79622000Y-120042041D01*
X68978000Y-120042041D02*
X72860000Y-120042041D01*
X75740000Y-120082041D02*
X79596000Y-120082041D01*
X69004000Y-120082041D02*
X72860000Y-120082041D01*
X75740000Y-120122041D02*
X79570000Y-120122041D01*
X69030000Y-120122041D02*
X72860000Y-120122041D01*
X75740000Y-120162041D02*
X79543000Y-120162041D01*
X69057000Y-120162041D02*
X72860000Y-120162041D01*
X75740000Y-120202041D02*
X79516000Y-120202041D01*
X69084000Y-120202041D02*
X72860000Y-120202041D01*
X75740000Y-120242041D02*
X79488000Y-120242041D01*
X69112000Y-120242041D02*
X72860000Y-120242041D01*
X75740000Y-120282041D02*
X79460000Y-120282041D01*
X69140000Y-120282041D02*
X72860000Y-120282041D01*
X75740000Y-120322041D02*
X79431000Y-120322041D01*
X69169000Y-120322041D02*
X72860000Y-120322041D01*
X75740000Y-120362041D02*
X79402000Y-120362041D01*
X69198000Y-120362041D02*
X72860000Y-120362041D01*
X75740000Y-120402041D02*
X79373000Y-120402041D01*
X69227000Y-120402041D02*
X72860000Y-120402041D01*
X75740000Y-120442041D02*
X79343000Y-120442041D01*
X69257000Y-120442041D02*
X72860000Y-120442041D01*
X75740000Y-120482041D02*
X79312000Y-120482041D01*
X69288000Y-120482041D02*
X72860000Y-120482041D01*
X75740000Y-120522041D02*
X79282000Y-120522041D01*
X69318000Y-120522041D02*
X72860000Y-120522041D01*
X69350000Y-120562041D02*
X79250000Y-120562041D01*
X69382000Y-120602041D02*
X79218000Y-120602041D01*
X69415000Y-120642041D02*
X79185000Y-120642041D01*
X69448000Y-120682041D02*
X79152000Y-120682041D01*
X69481000Y-120722041D02*
X79119000Y-120722041D01*
X69515000Y-120762041D02*
X79085000Y-120762041D01*
X69550000Y-120802041D02*
X79050000Y-120802041D01*
X69586000Y-120842041D02*
X79014000Y-120842041D01*
X69622000Y-120882041D02*
X78978000Y-120882041D01*
X69658000Y-120922041D02*
X78942000Y-120922041D01*
X69695000Y-120962041D02*
X78905000Y-120962041D01*
X69733000Y-121002041D02*
X78867000Y-121002041D01*
X69772000Y-121042041D02*
X78828000Y-121042041D01*
X69811000Y-121082041D02*
X78789000Y-121082041D01*
X69851000Y-121122041D02*
X78749000Y-121122041D01*
X69892000Y-121162041D02*
X78708000Y-121162041D01*
X69933000Y-121202041D02*
X78667000Y-121202041D01*
X69975000Y-121242041D02*
X78625000Y-121242041D01*
X70018000Y-121282041D02*
X78582000Y-121282041D01*
X70062000Y-121322041D02*
X78538000Y-121322041D01*
X70106000Y-121362041D02*
X78494000Y-121362041D01*
X70152000Y-121402041D02*
X78448000Y-121402041D01*
X70198000Y-121442041D02*
X78402000Y-121442041D01*
X70245000Y-121482041D02*
X78355000Y-121482041D01*
X70293000Y-121522041D02*
X78307000Y-121522041D01*
X70343000Y-121562041D02*
X78257000Y-121562041D01*
X70393000Y-121602041D02*
X78207000Y-121602041D01*
X70444000Y-121642041D02*
X78156000Y-121642041D01*
X70496000Y-121682041D02*
X78104000Y-121682041D01*
X70550000Y-121722041D02*
X78050000Y-121722041D01*
X70604000Y-121762041D02*
X77996000Y-121762041D01*
X70660000Y-121802041D02*
X77940000Y-121802041D01*
X70717000Y-121842041D02*
X77883000Y-121842041D01*
X70776000Y-121882041D02*
X77824000Y-121882041D01*
X70836000Y-121922041D02*
X77764000Y-121922041D01*
X70898000Y-121962041D02*
X77702000Y-121962041D01*
X70961000Y-122002041D02*
X77639000Y-122002041D01*
X71025000Y-122042041D02*
X77575000Y-122042041D01*
X71092000Y-122082041D02*
X77508000Y-122082041D01*
X71160000Y-122122041D02*
X77440000Y-122122041D01*
X71231000Y-122162041D02*
X77369000Y-122162041D01*
X71304000Y-122202041D02*
X77296000Y-122202041D01*
X71379000Y-122242041D02*
X77221000Y-122242041D01*
X71456000Y-122282041D02*
X77144000Y-122282041D01*
X71536000Y-122322041D02*
X77064000Y-122322041D01*
X71619000Y-122362041D02*
X76981000Y-122362041D01*
X71706000Y-122402041D02*
X76894000Y-122402041D01*
X71796000Y-122442041D02*
X76804000Y-122442041D01*
X71890000Y-122482041D02*
X76710000Y-122482041D01*
X71988000Y-122522041D02*
X76612000Y-122522041D01*
X72091000Y-122562041D02*
X76509000Y-122562041D01*
X72200000Y-122602041D02*
X76400000Y-122602041D01*
X72316000Y-122642041D02*
X76284000Y-122642041D01*
X72439000Y-122682041D02*
X76161000Y-122682041D01*
X72572000Y-122722041D02*
X76028000Y-122722041D01*
X72717000Y-122762041D02*
X75883000Y-122762041D01*
X72878000Y-122802041D02*
X75722000Y-122802041D01*
X73059000Y-122842041D02*
X75541000Y-122842041D01*
X73272000Y-122882041D02*
X75328000Y-122882041D01*
X73543000Y-122922041D02*
X75057000Y-122922041D01*
X73983000Y-122962041D02*
X74617000Y-122962041D01*
X80670000Y-116601041D02*
G75*
G03*
X67930000Y-116601041I-6370000J0D01*
G01*
X67930000Y-116601041D02*
G75*
G03*
X80670000Y-116601041I6370000J0D01*
G01*
%TO.C,C17*%
X56643216Y-104033051D02*
X56350682Y-104033051D01*
X56643216Y-103013051D02*
X56350682Y-103013051D01*
%TO.C,J4*%
X74895749Y-96071651D02*
X74895749Y-98731651D01*
X72295749Y-96071651D02*
X74895749Y-96071651D01*
X72295749Y-96071651D02*
X72295749Y-98731651D01*
X71025749Y-96071651D02*
X69695749Y-96071651D01*
X69695749Y-96071651D02*
X69695749Y-97401651D01*
X72295749Y-98731651D02*
X74895749Y-98731651D01*
%TD*%
M02*
