%TF.GenerationSoftware,KiCad,Pcbnew,7.0.10*%
%TF.CreationDate,2025-02-18T11:07:13-08:00*%
%TF.ProjectId,flow-controller,666c6f77-2d63-46f6-9e74-726f6c6c6572,rev?*%
%TF.SameCoordinates,Original*%
%TF.FileFunction,Drillmap*%
%TF.FilePolarity,Positive*%
%FSLAX45Y45*%
G04 Gerber Fmt 4.5, Leading zero omitted, Abs format (unit mm)*
G04 Created by KiCad (PCBNEW 7.0.10) date 2025-02-18 11:07:13*
%MOMM*%
%LPD*%
G01*
G04 APERTURE LIST*
%ADD10C,0.100000*%
%ADD11C,0.200000*%
%ADD12C,0.102000*%
%ADD13C,0.120000*%
G04 APERTURE END LIST*
D10*
X5078195Y-12320805D02*
X5078195Y-8383805D01*
X5332195Y-8129805D02*
G75*
G03*
X5078195Y-8383805I0J-254000D01*
G01*
X10155655Y-11571505D02*
G75*
G03*
X9825455Y-11571505I-165100J0D01*
G01*
X9825455Y-11571505D02*
G75*
G03*
X10155655Y-11571505I165100J0D01*
G01*
X12698195Y-8383805D02*
G75*
G03*
X12444195Y-8129805I-254005J-5D01*
G01*
X12444195Y-12574805D02*
X5332195Y-12574805D01*
X6345655Y-9031505D02*
G75*
G03*
X6015455Y-9031505I-165100J0D01*
G01*
X6015455Y-9031505D02*
G75*
G03*
X6345655Y-9031505I165100J0D01*
G01*
X12444195Y-12574815D02*
G75*
G03*
X12698195Y-12320805I-5J254005D01*
G01*
X6345655Y-11571505D02*
G75*
G03*
X6015455Y-11571505I-165100J0D01*
G01*
X6015455Y-11571505D02*
G75*
G03*
X6345655Y-11571505I165100J0D01*
G01*
X5078195Y-12320805D02*
G75*
G03*
X5332195Y-12574805I253995J-5D01*
G01*
X12698195Y-8383805D02*
X12698195Y-12320805D01*
X5332195Y-8129805D02*
X12444195Y-8129805D01*
D11*
D10*
X5380695Y-10210305D02*
X5410695Y-10240305D01*
X5410695Y-10210305D02*
X5380695Y-10240305D01*
X5444195Y-10146805D02*
X5474195Y-10176805D01*
X5474195Y-10146805D02*
X5444195Y-10176805D01*
X5571195Y-9448305D02*
X5601195Y-9478305D01*
X5601195Y-9448305D02*
X5571195Y-9478305D01*
X5577195Y-10845305D02*
X5607195Y-10875305D01*
X5607195Y-10845305D02*
X5577195Y-10875305D01*
X5577195Y-10943555D02*
X5607195Y-10973555D01*
X5607195Y-10943555D02*
X5577195Y-10973555D01*
X5825195Y-9575305D02*
X5855195Y-9605305D01*
X5855195Y-9575305D02*
X5825195Y-9605305D01*
X5825195Y-9702305D02*
X5855195Y-9732305D01*
X5855195Y-9702305D02*
X5825195Y-9732305D01*
X5825195Y-9829305D02*
X5855195Y-9859305D01*
X5855195Y-9829305D02*
X5825195Y-9859305D01*
X5825195Y-9956305D02*
X5855195Y-9986305D01*
X5855195Y-9956305D02*
X5825195Y-9986305D01*
X5825195Y-10083305D02*
X5855195Y-10113305D01*
X5855195Y-10083305D02*
X5825195Y-10113305D01*
X5825195Y-10464305D02*
X5855195Y-10494305D01*
X5855195Y-10464305D02*
X5825195Y-10494305D01*
X5825195Y-10591305D02*
X5855195Y-10621305D01*
X5855195Y-10591305D02*
X5825195Y-10621305D01*
X5825195Y-10718305D02*
X5855195Y-10748305D01*
X5855195Y-10718305D02*
X5825195Y-10748305D01*
X5952195Y-9575305D02*
X5982195Y-9605305D01*
X5982195Y-9575305D02*
X5952195Y-9605305D01*
X5952195Y-9702305D02*
X5982195Y-9732305D01*
X5982195Y-9702305D02*
X5952195Y-9732305D01*
X5952195Y-9829305D02*
X5982195Y-9859305D01*
X5982195Y-9829305D02*
X5952195Y-9859305D01*
X5952195Y-9956305D02*
X5982195Y-9986305D01*
X5982195Y-9956305D02*
X5952195Y-9986305D01*
X5952195Y-10083305D02*
X5982195Y-10113305D01*
X5982195Y-10083305D02*
X5952195Y-10113305D01*
X5952195Y-10210305D02*
X5982195Y-10240305D01*
X5982195Y-10210305D02*
X5952195Y-10240305D01*
X5952195Y-10337305D02*
X5982195Y-10367305D01*
X5982195Y-10337305D02*
X5952195Y-10367305D01*
X5952195Y-10464305D02*
X5982195Y-10494305D01*
X5982195Y-10464305D02*
X5952195Y-10494305D01*
X5952195Y-10591305D02*
X5982195Y-10621305D01*
X5982195Y-10591305D02*
X5952195Y-10621305D01*
X5952195Y-10718305D02*
X5982195Y-10748305D01*
X5982195Y-10718305D02*
X5952195Y-10748305D01*
X6079195Y-9829305D02*
X6109195Y-9859305D01*
X6109195Y-9829305D02*
X6079195Y-9859305D01*
X6079195Y-9956305D02*
X6109195Y-9986305D01*
X6109195Y-9956305D02*
X6079195Y-9986305D01*
X6079195Y-10083305D02*
X6109195Y-10113305D01*
X6109195Y-10083305D02*
X6079195Y-10113305D01*
X6079195Y-10210305D02*
X6109195Y-10240305D01*
X6109195Y-10210305D02*
X6079195Y-10240305D01*
X6079195Y-10337305D02*
X6109195Y-10367305D01*
X6109195Y-10337305D02*
X6079195Y-10367305D01*
X6079195Y-10464305D02*
X6109195Y-10494305D01*
X6109195Y-10464305D02*
X6079195Y-10494305D01*
X6079195Y-10591305D02*
X6109195Y-10621305D01*
X6109195Y-10591305D02*
X6079195Y-10621305D01*
X6079195Y-10718305D02*
X6109195Y-10748305D01*
X6109195Y-10718305D02*
X6079195Y-10748305D01*
X6523695Y-10083305D02*
X6553695Y-10113305D01*
X6553695Y-10083305D02*
X6523695Y-10113305D01*
X6525500Y-9637000D02*
X6555500Y-9667000D01*
X6555500Y-9637000D02*
X6525500Y-9667000D01*
X6587195Y-10718305D02*
X6617195Y-10748305D01*
X6617195Y-10718305D02*
X6587195Y-10748305D01*
X6714195Y-10273805D02*
X6744195Y-10303805D01*
X6744195Y-10273805D02*
X6714195Y-10303805D01*
X6841195Y-9956305D02*
X6871195Y-9986305D01*
X6871195Y-9956305D02*
X6841195Y-9986305D01*
X6841195Y-10210305D02*
X6871195Y-10240305D01*
X6871195Y-10210305D02*
X6841195Y-10240305D01*
X6968195Y-10019805D02*
X6998195Y-10049805D01*
X6998195Y-10019805D02*
X6968195Y-10049805D01*
X6968195Y-10146805D02*
X6998195Y-10176805D01*
X6998195Y-10146805D02*
X6968195Y-10176805D01*
X7095195Y-10083305D02*
X7125195Y-10113305D01*
X7125195Y-10083305D02*
X7095195Y-10113305D01*
X8007500Y-8222500D02*
X8037500Y-8252500D01*
X8037500Y-8222500D02*
X8007500Y-8252500D01*
X8047695Y-8559305D02*
X8077695Y-8589305D01*
X8077695Y-8559305D02*
X8047695Y-8589305D01*
X8049500Y-8938500D02*
X8079500Y-8968500D01*
X8079500Y-8938500D02*
X8049500Y-8968500D01*
X8049500Y-9065500D02*
X8079500Y-9095500D01*
X8079500Y-9065500D02*
X8049500Y-9095500D01*
X8049500Y-9192500D02*
X8079500Y-9222500D01*
X8079500Y-9192500D02*
X8049500Y-9222500D01*
X8174695Y-8813305D02*
X8204695Y-8843305D01*
X8204695Y-8813305D02*
X8174695Y-8843305D01*
X8174695Y-8940305D02*
X8204695Y-8970305D01*
X8204695Y-8940305D02*
X8174695Y-8970305D01*
X8174695Y-9511805D02*
X8204695Y-9541805D01*
X8204695Y-9511805D02*
X8174695Y-9541805D01*
X8301695Y-8368805D02*
X8331695Y-8398805D01*
X8331695Y-8368805D02*
X8301695Y-8398805D01*
X8301695Y-8940305D02*
X8331695Y-8970305D01*
X8331695Y-8940305D02*
X8301695Y-8970305D01*
X8365195Y-8241805D02*
X8395195Y-8271805D01*
X8395195Y-8241805D02*
X8365195Y-8271805D01*
X8428695Y-8368805D02*
X8458695Y-8398805D01*
X8458695Y-8368805D02*
X8428695Y-8398805D01*
X8428695Y-8940305D02*
X8458695Y-8970305D01*
X8458695Y-8940305D02*
X8428695Y-8970305D01*
X8428695Y-9067305D02*
X8458695Y-9097305D01*
X8458695Y-9067305D02*
X8428695Y-9097305D01*
X8555695Y-8940305D02*
X8585695Y-8970305D01*
X8585695Y-8940305D02*
X8555695Y-8970305D01*
X8555695Y-9067305D02*
X8585695Y-9097305D01*
X8585695Y-9067305D02*
X8555695Y-9097305D01*
X8555695Y-10273805D02*
X8585695Y-10303805D01*
X8585695Y-10273805D02*
X8555695Y-10303805D01*
X8619195Y-10210305D02*
X8649195Y-10240305D01*
X8649195Y-10210305D02*
X8619195Y-10240305D01*
X8682695Y-8813305D02*
X8712695Y-8843305D01*
X8712695Y-8813305D02*
X8682695Y-8843305D01*
X8682695Y-8940305D02*
X8712695Y-8970305D01*
X8712695Y-8940305D02*
X8682695Y-8970305D01*
X8682695Y-9067305D02*
X8712695Y-9097305D01*
X8712695Y-9067305D02*
X8682695Y-9097305D01*
X8682695Y-10146805D02*
X8712695Y-10176805D01*
X8712695Y-10146805D02*
X8682695Y-10176805D01*
X8684500Y-8430500D02*
X8714500Y-8460500D01*
X8714500Y-8430500D02*
X8684500Y-8460500D01*
X8809695Y-8813305D02*
X8839695Y-8843305D01*
X8839695Y-8813305D02*
X8809695Y-8843305D01*
X8809695Y-8940305D02*
X8839695Y-8970305D01*
X8839695Y-8940305D02*
X8809695Y-8970305D01*
X8809695Y-9067305D02*
X8839695Y-9097305D01*
X8839695Y-9067305D02*
X8809695Y-9097305D01*
X8809695Y-10083305D02*
X8839695Y-10113305D01*
X8839695Y-10083305D02*
X8809695Y-10113305D01*
X8811500Y-9510000D02*
X8841500Y-9540000D01*
X8841500Y-9510000D02*
X8811500Y-9540000D01*
X8873195Y-10019805D02*
X8903195Y-10049805D01*
X8903195Y-10019805D02*
X8873195Y-10049805D01*
X8873195Y-10337305D02*
X8903195Y-10367305D01*
X8903195Y-10337305D02*
X8873195Y-10367305D01*
X8936695Y-8813305D02*
X8966695Y-8843305D01*
X8966695Y-8813305D02*
X8936695Y-8843305D01*
X8936695Y-8940305D02*
X8966695Y-8970305D01*
X8966695Y-8940305D02*
X8936695Y-8970305D01*
X8936695Y-9067305D02*
X8966695Y-9097305D01*
X8966695Y-9067305D02*
X8936695Y-9097305D01*
X9063695Y-8813305D02*
X9093695Y-8843305D01*
X9093695Y-8813305D02*
X9063695Y-8843305D01*
X9063695Y-8940305D02*
X9093695Y-8970305D01*
X9093695Y-8940305D02*
X9063695Y-8970305D01*
X9063695Y-9067305D02*
X9093695Y-9097305D01*
X9093695Y-9067305D02*
X9063695Y-9097305D01*
X9190695Y-8940305D02*
X9220695Y-8970305D01*
X9220695Y-8940305D02*
X9190695Y-8970305D01*
X9254195Y-9511805D02*
X9284195Y-9541805D01*
X9284195Y-9511805D02*
X9254195Y-9541805D01*
X9317695Y-8355855D02*
X9347695Y-8385855D01*
X9347695Y-8355855D02*
X9317695Y-8385855D01*
X9317695Y-8940305D02*
X9347695Y-8970305D01*
X9347695Y-8940305D02*
X9317695Y-8970305D01*
X9444695Y-8495805D02*
X9474695Y-8525805D01*
X9474695Y-8495805D02*
X9444695Y-8525805D01*
X9446500Y-8811500D02*
X9476500Y-8841500D01*
X9476500Y-8811500D02*
X9446500Y-8841500D01*
X9446500Y-8938500D02*
X9476500Y-8968500D01*
X9476500Y-8938500D02*
X9446500Y-8968500D01*
X9446500Y-9065500D02*
X9476500Y-9095500D01*
X9476500Y-9065500D02*
X9446500Y-9095500D01*
X9446500Y-9192500D02*
X9476500Y-9222500D01*
X9476500Y-9192500D02*
X9446500Y-9222500D01*
X9762195Y-10210305D02*
X9792195Y-10240305D01*
X9792195Y-10210305D02*
X9762195Y-10240305D01*
X10016195Y-9702305D02*
X10046195Y-9732305D01*
X10046195Y-9702305D02*
X10016195Y-9732305D01*
X10079695Y-8432305D02*
X10109695Y-8462305D01*
X10109695Y-8432305D02*
X10079695Y-8462305D01*
X10079695Y-9384805D02*
X10109695Y-9414805D01*
X10109695Y-9384805D02*
X10079695Y-9414805D01*
X10143195Y-9702305D02*
X10173195Y-9732305D01*
X10173195Y-9702305D02*
X10143195Y-9732305D01*
X10145000Y-8240000D02*
X10175000Y-8270000D01*
X10175000Y-8240000D02*
X10145000Y-8270000D01*
X10145000Y-12240500D02*
X10175000Y-12270500D01*
X10175000Y-12240500D02*
X10145000Y-12270500D01*
X10206695Y-8622805D02*
X10236695Y-8652805D01*
X10236695Y-8622805D02*
X10206695Y-8652805D01*
X10206695Y-9003805D02*
X10236695Y-9033805D01*
X10236695Y-9003805D02*
X10206695Y-9033805D01*
X10206695Y-9384805D02*
X10236695Y-9414805D01*
X10236695Y-9384805D02*
X10206695Y-9414805D01*
X10208500Y-11034000D02*
X10238500Y-11064000D01*
X10238500Y-11034000D02*
X10208500Y-11064000D01*
X10333695Y-9384805D02*
X10363695Y-9414805D01*
X10363695Y-9384805D02*
X10333695Y-9414805D01*
X10333695Y-9638805D02*
X10363695Y-9668805D01*
X10363695Y-9638805D02*
X10333695Y-9668805D01*
X10333695Y-10718305D02*
X10363695Y-10748305D01*
X10363695Y-10718305D02*
X10333695Y-10748305D01*
X10524195Y-9829305D02*
X10554195Y-9859305D01*
X10554195Y-9829305D02*
X10524195Y-9859305D01*
X10526000Y-8240000D02*
X10556000Y-8270000D01*
X10556000Y-8240000D02*
X10526000Y-8270000D01*
X10587695Y-9956305D02*
X10617695Y-9986305D01*
X10617695Y-9956305D02*
X10587695Y-9986305D01*
X10651195Y-9829305D02*
X10681195Y-9859305D01*
X10681195Y-9829305D02*
X10651195Y-9859305D01*
X10778195Y-9194305D02*
X10808195Y-9224305D01*
X10808195Y-9194305D02*
X10778195Y-9224305D01*
X10841695Y-8559305D02*
X10871695Y-8589305D01*
X10871695Y-8559305D02*
X10841695Y-8589305D01*
X10841695Y-8813305D02*
X10871695Y-8843305D01*
X10871695Y-8813305D02*
X10841695Y-8843305D01*
X10905195Y-8876805D02*
X10935195Y-8906805D01*
X10935195Y-8876805D02*
X10905195Y-8906805D01*
X10968695Y-8559305D02*
X10998695Y-8589305D01*
X10998695Y-8559305D02*
X10968695Y-8589305D01*
X10968695Y-10337305D02*
X10998695Y-10367305D01*
X10998695Y-10337305D02*
X10968695Y-10367305D01*
X10968695Y-10654805D02*
X10998695Y-10684805D01*
X10998695Y-10654805D02*
X10968695Y-10684805D01*
X10968695Y-10781805D02*
X10998695Y-10811805D01*
X10998695Y-10781805D02*
X10968695Y-10811805D01*
X11095695Y-8559305D02*
X11125695Y-8589305D01*
X11125695Y-8559305D02*
X11095695Y-8589305D01*
X11095695Y-10337305D02*
X11125695Y-10367305D01*
X11125695Y-10337305D02*
X11095695Y-10367305D01*
X11095695Y-10781805D02*
X11125695Y-10811805D01*
X11125695Y-10781805D02*
X11095695Y-10811805D01*
X11159195Y-9448305D02*
X11189195Y-9478305D01*
X11189195Y-9448305D02*
X11159195Y-9478305D01*
X11168243Y-8822353D02*
X11198243Y-8852353D01*
X11198243Y-8822353D02*
X11168243Y-8852353D01*
X11222695Y-10337305D02*
X11252695Y-10367305D01*
X11252695Y-10337305D02*
X11222695Y-10367305D01*
X11286195Y-8559305D02*
X11316195Y-8589305D01*
X11316195Y-8559305D02*
X11286195Y-8589305D01*
X11286195Y-8749805D02*
X11316195Y-8779805D01*
X11316195Y-8749805D02*
X11286195Y-8779805D01*
X11349695Y-9384805D02*
X11379695Y-9414805D01*
X11379695Y-9384805D02*
X11349695Y-9414805D01*
X11413195Y-8686305D02*
X11443195Y-8716305D01*
X11443195Y-8686305D02*
X11413195Y-8716305D01*
X11413195Y-9511805D02*
X11443195Y-9541805D01*
X11443195Y-9511805D02*
X11413195Y-9541805D01*
X11413195Y-11416805D02*
X11443195Y-11446805D01*
X11443195Y-11416805D02*
X11413195Y-11446805D01*
X11413195Y-11670805D02*
X11443195Y-11700805D01*
X11443195Y-11670805D02*
X11413195Y-11700805D01*
X11413195Y-11924805D02*
X11443195Y-11954805D01*
X11443195Y-11924805D02*
X11413195Y-11954805D01*
X11413195Y-12178805D02*
X11443195Y-12208805D01*
X11443195Y-12178805D02*
X11413195Y-12208805D01*
X11476695Y-9321305D02*
X11506695Y-9351305D01*
X11506695Y-9321305D02*
X11476695Y-9351305D01*
X11476695Y-9892805D02*
X11506695Y-9922805D01*
X11506695Y-9892805D02*
X11476695Y-9922805D01*
X11476695Y-10019805D02*
X11506695Y-10049805D01*
X11506695Y-10019805D02*
X11476695Y-10049805D01*
X11476695Y-10464305D02*
X11506695Y-10494305D01*
X11506695Y-10464305D02*
X11476695Y-10494305D01*
X11476695Y-10591305D02*
X11506695Y-10621305D01*
X11506695Y-10591305D02*
X11476695Y-10621305D01*
X11476695Y-10718305D02*
X11506695Y-10748305D01*
X11506695Y-10718305D02*
X11476695Y-10748305D01*
X11476695Y-10845305D02*
X11506695Y-10875305D01*
X11506695Y-10845305D02*
X11476695Y-10875305D01*
X11476695Y-10972305D02*
X11506695Y-11002305D01*
X11506695Y-10972305D02*
X11476695Y-11002305D01*
X11540195Y-8495805D02*
X11570195Y-8525805D01*
X11570195Y-8495805D02*
X11540195Y-8525805D01*
X11540195Y-8622805D02*
X11570195Y-8652805D01*
X11570195Y-8622805D02*
X11540195Y-8652805D01*
X11540195Y-9194305D02*
X11570195Y-9224305D01*
X11570195Y-9194305D02*
X11540195Y-9224305D01*
X11603695Y-8876805D02*
X11633695Y-8906805D01*
X11633695Y-8876805D02*
X11603695Y-8906805D01*
X11603695Y-9448305D02*
X11633695Y-9478305D01*
X11633695Y-9448305D02*
X11603695Y-9478305D01*
X11603695Y-9829305D02*
X11633695Y-9859305D01*
X11633695Y-9829305D02*
X11603695Y-9859305D01*
X11603695Y-10273805D02*
X11633695Y-10303805D01*
X11633695Y-10273805D02*
X11603695Y-10303805D01*
X11605500Y-10970500D02*
X11635500Y-11000500D01*
X11635500Y-10970500D02*
X11605500Y-11000500D01*
X11732500Y-10907000D02*
X11762500Y-10937000D01*
X11762500Y-10907000D02*
X11732500Y-10937000D01*
X11794195Y-10273805D02*
X11824195Y-10303805D01*
X11824195Y-10273805D02*
X11794195Y-10303805D01*
X11796000Y-10018000D02*
X11826000Y-10048000D01*
X11826000Y-10018000D02*
X11796000Y-10048000D01*
X11857695Y-8241805D02*
X11887695Y-8271805D01*
X11887695Y-8241805D02*
X11857695Y-8271805D01*
X11857695Y-9702305D02*
X11887695Y-9732305D01*
X11887695Y-9702305D02*
X11857695Y-9732305D01*
X11921195Y-8368805D02*
X11951195Y-8398805D01*
X11951195Y-8368805D02*
X11921195Y-8398805D01*
X11921195Y-11416805D02*
X11951195Y-11446805D01*
X11951195Y-11416805D02*
X11921195Y-11446805D01*
X11984695Y-10273805D02*
X12014695Y-10303805D01*
X12014695Y-10273805D02*
X11984695Y-10303805D01*
X12048195Y-9638805D02*
X12078195Y-9668805D01*
X12078195Y-9638805D02*
X12048195Y-9668805D01*
X12048195Y-9765805D02*
X12078195Y-9795805D01*
X12078195Y-9765805D02*
X12048195Y-9795805D01*
X12111695Y-10527805D02*
X12141695Y-10557805D01*
X12141695Y-10527805D02*
X12111695Y-10557805D01*
X12177000Y-12177000D02*
X12207000Y-12207000D01*
X12207000Y-12177000D02*
X12177000Y-12207000D01*
X12177000Y-12304000D02*
X12207000Y-12334000D01*
X12207000Y-12304000D02*
X12177000Y-12334000D01*
X12238695Y-9067305D02*
X12268695Y-9097305D01*
X12268695Y-9067305D02*
X12238695Y-9097305D01*
X12238695Y-10527805D02*
X12268695Y-10557805D01*
X12268695Y-10527805D02*
X12238695Y-10557805D01*
X12238695Y-10654805D02*
X12268695Y-10684805D01*
X12268695Y-10654805D02*
X12238695Y-10684805D01*
X12238695Y-10781805D02*
X12268695Y-10811805D01*
X12268695Y-10781805D02*
X12238695Y-10811805D01*
X12238695Y-10908805D02*
X12268695Y-10938805D01*
X12268695Y-10908805D02*
X12238695Y-10938805D01*
X12304000Y-9954500D02*
X12334000Y-9984500D01*
X12334000Y-9954500D02*
X12304000Y-9984500D01*
X12304000Y-10081500D02*
X12334000Y-10111500D01*
X12334000Y-10081500D02*
X12304000Y-10111500D01*
X12304000Y-11288000D02*
X12334000Y-11318000D01*
X12334000Y-11288000D02*
X12304000Y-11318000D01*
X12304000Y-12177000D02*
X12334000Y-12207000D01*
X12334000Y-12177000D02*
X12304000Y-12207000D01*
X12304000Y-12304000D02*
X12334000Y-12334000D01*
X12334000Y-12304000D02*
X12304000Y-12334000D01*
X12367500Y-8240000D02*
X12397500Y-8270000D01*
X12397500Y-8240000D02*
X12367500Y-8270000D01*
X12429195Y-9067305D02*
X12459195Y-9097305D01*
X12459195Y-9067305D02*
X12429195Y-9097305D01*
X12431000Y-8938500D02*
X12461000Y-8968500D01*
X12461000Y-8938500D02*
X12431000Y-8968500D01*
X12431000Y-9954500D02*
X12461000Y-9984500D01*
X12461000Y-9954500D02*
X12431000Y-9984500D01*
X12431000Y-10081500D02*
X12461000Y-10111500D01*
X12461000Y-10081500D02*
X12431000Y-10111500D01*
X12431000Y-11161000D02*
X12461000Y-11191000D01*
X12461000Y-11161000D02*
X12431000Y-11191000D01*
X12431000Y-11288000D02*
X12461000Y-11318000D01*
X12461000Y-11288000D02*
X12431000Y-11318000D01*
X12431000Y-12177000D02*
X12461000Y-12207000D01*
X12461000Y-12177000D02*
X12431000Y-12207000D01*
X12431000Y-12304000D02*
X12461000Y-12334000D01*
X12461000Y-12304000D02*
X12431000Y-12334000D01*
X12558000Y-8494000D02*
X12588000Y-8524000D01*
X12588000Y-8494000D02*
X12558000Y-8524000D01*
X12558000Y-8621000D02*
X12588000Y-8651000D01*
X12588000Y-8621000D02*
X12558000Y-8651000D01*
X12558000Y-8938500D02*
X12588000Y-8968500D01*
X12588000Y-8938500D02*
X12558000Y-8968500D01*
X12558000Y-9954500D02*
X12588000Y-9984500D01*
X12588000Y-9954500D02*
X12558000Y-9984500D01*
X12558000Y-10081500D02*
X12588000Y-10111500D01*
X12588000Y-10081500D02*
X12558000Y-10111500D01*
X12558000Y-11034000D02*
X12588000Y-11064000D01*
X12588000Y-11034000D02*
X12558000Y-11064000D01*
X12558000Y-11161000D02*
X12588000Y-11191000D01*
X12588000Y-11161000D02*
X12558000Y-11191000D01*
X12558000Y-11288000D02*
X12588000Y-11318000D01*
X12588000Y-11288000D02*
X12558000Y-11318000D01*
X12558000Y-11415000D02*
X12588000Y-11445000D01*
X12588000Y-11415000D02*
X12558000Y-11445000D01*
X12558000Y-11542000D02*
X12588000Y-11572000D01*
X12588000Y-11542000D02*
X12558000Y-11572000D01*
X12558000Y-12177000D02*
X12588000Y-12207000D01*
X12588000Y-12177000D02*
X12558000Y-12207000D01*
X12558000Y-12304000D02*
X12588000Y-12334000D01*
X12588000Y-12304000D02*
X12558000Y-12334000D01*
X10003255Y-10098305D02*
G75*
G03*
X9932135Y-10098305I-35560J0D01*
G01*
X9932135Y-10098305D02*
G75*
G03*
X10003255Y-10098305I35560J0D01*
G01*
X10003255Y-10225305D02*
G75*
G03*
X9932135Y-10225305I-35560J0D01*
G01*
X9932135Y-10225305D02*
G75*
G03*
X10003255Y-10225305I35560J0D01*
G01*
X10003255Y-10352305D02*
G75*
G03*
X9932135Y-10352305I-35560J0D01*
G01*
X9932135Y-10352305D02*
G75*
G03*
X10003255Y-10352305I35560J0D01*
G01*
X10003255Y-10479305D02*
G75*
G03*
X9932135Y-10479305I-35560J0D01*
G01*
X9932135Y-10479305D02*
G75*
G03*
X10003255Y-10479305I35560J0D01*
G01*
X10003255Y-10606305D02*
G75*
G03*
X9932135Y-10606305I-35560J0D01*
G01*
X9932135Y-10606305D02*
G75*
G03*
X10003255Y-10606305I35560J0D01*
G01*
X10130255Y-10098305D02*
G75*
G03*
X10059135Y-10098305I-35560J0D01*
G01*
X10059135Y-10098305D02*
G75*
G03*
X10130255Y-10098305I35560J0D01*
G01*
X10130255Y-10225305D02*
G75*
G03*
X10059135Y-10225305I-35560J0D01*
G01*
X10059135Y-10225305D02*
G75*
G03*
X10130255Y-10225305I35560J0D01*
G01*
X10130255Y-10352305D02*
G75*
G03*
X10059135Y-10352305I-35560J0D01*
G01*
X10059135Y-10352305D02*
G75*
G03*
X10130255Y-10352305I35560J0D01*
G01*
X10130255Y-10479305D02*
G75*
G03*
X10059135Y-10479305I-35560J0D01*
G01*
X10059135Y-10479305D02*
G75*
G03*
X10130255Y-10479305I35560J0D01*
G01*
X10130255Y-10606305D02*
G75*
G03*
X10059135Y-10606305I-35560J0D01*
G01*
X10059135Y-10606305D02*
G75*
G03*
X10130255Y-10606305I35560J0D01*
G01*
X7102575Y-9690165D02*
X7102575Y-9790165D01*
X7052575Y-9740165D02*
X7152575Y-9740165D01*
X7102575Y-10452165D02*
X7102575Y-10552165D01*
X7052575Y-10502165D02*
X7152575Y-10502165D01*
X7356575Y-9690165D02*
X7356575Y-9790165D01*
X7306575Y-9740165D02*
X7406575Y-9740165D01*
X7356575Y-10452165D02*
X7356575Y-10552165D01*
X7306575Y-10502165D02*
X7406575Y-10502165D01*
X8118575Y-9690165D02*
X8118575Y-9790165D01*
X8068575Y-9740165D02*
X8168575Y-9740165D01*
X8118575Y-10452165D02*
X8118575Y-10552165D01*
X8068575Y-10502165D02*
X8168575Y-10502165D01*
X8372575Y-9690165D02*
X8372575Y-9790165D01*
X8322575Y-9740165D02*
X8422575Y-9740165D01*
X8372575Y-10452165D02*
X8372575Y-10552165D01*
X8322575Y-10502165D02*
X8422575Y-10502165D01*
X9134575Y-9690165D02*
X9134575Y-9790165D01*
X9084575Y-9740165D02*
X9184575Y-9740165D01*
X9134575Y-10452165D02*
X9134575Y-10552165D01*
X9084575Y-10502165D02*
X9184575Y-10502165D01*
X9388575Y-9690165D02*
X9388575Y-9790165D01*
X9338575Y-9740165D02*
X9438575Y-9740165D01*
X9388575Y-10452165D02*
X9388575Y-10552165D01*
X9338575Y-10502165D02*
X9438575Y-10502165D01*
D12*
X8416258Y-11420063D02*
X8416258Y-11347937D01*
X8344132Y-11347937D01*
X8344132Y-11420063D01*
X8416258Y-11420063D01*
X8416258Y-11720063D02*
X8416258Y-11647937D01*
X8344132Y-11647937D01*
X8344132Y-11720063D01*
X8416258Y-11720063D01*
X10721563Y-11420063D02*
X10721563Y-11347937D01*
X10649437Y-11347937D01*
X10649437Y-11420063D01*
X10721563Y-11420063D01*
X10721563Y-11720063D02*
X10721563Y-11647937D01*
X10649437Y-11647937D01*
X10649437Y-11720063D01*
X10721563Y-11720063D01*
X11021563Y-11420063D02*
X11021563Y-11347937D01*
X10949437Y-11347937D01*
X10949437Y-11420063D01*
X11021563Y-11420063D01*
X11021563Y-11720063D02*
X11021563Y-11647937D01*
X10949437Y-11647937D01*
X10949437Y-11720063D01*
X11021563Y-11720063D01*
D13*
X7405000Y-8627604D02*
X7465000Y-8567604D01*
X7405000Y-8507604D01*
X7345000Y-8567604D01*
X7405000Y-8627604D01*
X7405000Y-9127604D02*
X7465000Y-9067604D01*
X7405000Y-9007604D01*
X7345000Y-9067604D01*
X7405000Y-9127604D01*
X7430000Y-11470104D02*
X7490000Y-11410104D01*
X7430000Y-11350104D01*
X7370000Y-11410104D01*
X7430000Y-11470104D01*
X7430000Y-11970104D02*
X7490000Y-11910104D01*
X7430000Y-11850104D01*
X7370000Y-11910104D01*
X7430000Y-11970104D01*
D11*
X5333972Y-12891289D02*
X5333972Y-12691289D01*
X5333972Y-12691289D02*
X5381591Y-12691289D01*
X5381591Y-12691289D02*
X5410162Y-12700813D01*
X5410162Y-12700813D02*
X5429210Y-12719860D01*
X5429210Y-12719860D02*
X5438734Y-12738908D01*
X5438734Y-12738908D02*
X5448257Y-12777003D01*
X5448257Y-12777003D02*
X5448257Y-12805575D01*
X5448257Y-12805575D02*
X5438734Y-12843670D01*
X5438734Y-12843670D02*
X5429210Y-12862717D01*
X5429210Y-12862717D02*
X5410162Y-12881765D01*
X5410162Y-12881765D02*
X5381591Y-12891289D01*
X5381591Y-12891289D02*
X5333972Y-12891289D01*
X5533972Y-12891289D02*
X5533972Y-12757955D01*
X5533972Y-12796051D02*
X5543496Y-12777003D01*
X5543496Y-12777003D02*
X5553019Y-12767479D01*
X5553019Y-12767479D02*
X5572067Y-12757955D01*
X5572067Y-12757955D02*
X5591115Y-12757955D01*
X5657781Y-12891289D02*
X5657781Y-12757955D01*
X5657781Y-12691289D02*
X5648257Y-12700813D01*
X5648257Y-12700813D02*
X5657781Y-12710336D01*
X5657781Y-12710336D02*
X5667305Y-12700813D01*
X5667305Y-12700813D02*
X5657781Y-12691289D01*
X5657781Y-12691289D02*
X5657781Y-12710336D01*
X5781591Y-12891289D02*
X5762543Y-12881765D01*
X5762543Y-12881765D02*
X5753019Y-12862717D01*
X5753019Y-12862717D02*
X5753019Y-12691289D01*
X5886353Y-12891289D02*
X5867305Y-12881765D01*
X5867305Y-12881765D02*
X5857781Y-12862717D01*
X5857781Y-12862717D02*
X5857781Y-12691289D01*
X6114924Y-12891289D02*
X6114924Y-12691289D01*
X6114924Y-12691289D02*
X6181591Y-12834146D01*
X6181591Y-12834146D02*
X6248257Y-12691289D01*
X6248257Y-12691289D02*
X6248257Y-12891289D01*
X6429210Y-12891289D02*
X6429210Y-12786527D01*
X6429210Y-12786527D02*
X6419686Y-12767479D01*
X6419686Y-12767479D02*
X6400638Y-12757955D01*
X6400638Y-12757955D02*
X6362543Y-12757955D01*
X6362543Y-12757955D02*
X6343495Y-12767479D01*
X6429210Y-12881765D02*
X6410162Y-12891289D01*
X6410162Y-12891289D02*
X6362543Y-12891289D01*
X6362543Y-12891289D02*
X6343495Y-12881765D01*
X6343495Y-12881765D02*
X6333972Y-12862717D01*
X6333972Y-12862717D02*
X6333972Y-12843670D01*
X6333972Y-12843670D02*
X6343495Y-12824622D01*
X6343495Y-12824622D02*
X6362543Y-12815098D01*
X6362543Y-12815098D02*
X6410162Y-12815098D01*
X6410162Y-12815098D02*
X6429210Y-12805575D01*
X6524448Y-12757955D02*
X6524448Y-12957955D01*
X6524448Y-12767479D02*
X6543495Y-12757955D01*
X6543495Y-12757955D02*
X6581591Y-12757955D01*
X6581591Y-12757955D02*
X6600638Y-12767479D01*
X6600638Y-12767479D02*
X6610162Y-12777003D01*
X6610162Y-12777003D02*
X6619686Y-12796051D01*
X6619686Y-12796051D02*
X6619686Y-12853194D01*
X6619686Y-12853194D02*
X6610162Y-12872241D01*
X6610162Y-12872241D02*
X6600638Y-12881765D01*
X6600638Y-12881765D02*
X6581591Y-12891289D01*
X6581591Y-12891289D02*
X6543495Y-12891289D01*
X6543495Y-12891289D02*
X6524448Y-12881765D01*
X6705400Y-12872241D02*
X6714924Y-12881765D01*
X6714924Y-12881765D02*
X6705400Y-12891289D01*
X6705400Y-12891289D02*
X6695876Y-12881765D01*
X6695876Y-12881765D02*
X6705400Y-12872241D01*
X6705400Y-12872241D02*
X6705400Y-12891289D01*
X6705400Y-12767479D02*
X6714924Y-12777003D01*
X6714924Y-12777003D02*
X6705400Y-12786527D01*
X6705400Y-12786527D02*
X6695876Y-12777003D01*
X6695876Y-12777003D02*
X6705400Y-12767479D01*
X6705400Y-12767479D02*
X6705400Y-12786527D01*
D10*
X5043195Y-13204805D02*
X5073195Y-13234805D01*
X5073195Y-13204805D02*
X5043195Y-13234805D01*
D11*
X5372067Y-13111289D02*
X5391115Y-13111289D01*
X5391115Y-13111289D02*
X5410162Y-13120813D01*
X5410162Y-13120813D02*
X5419686Y-13130336D01*
X5419686Y-13130336D02*
X5429210Y-13149384D01*
X5429210Y-13149384D02*
X5438734Y-13187479D01*
X5438734Y-13187479D02*
X5438734Y-13235098D01*
X5438734Y-13235098D02*
X5429210Y-13273194D01*
X5429210Y-13273194D02*
X5419686Y-13292241D01*
X5419686Y-13292241D02*
X5410162Y-13301765D01*
X5410162Y-13301765D02*
X5391115Y-13311289D01*
X5391115Y-13311289D02*
X5372067Y-13311289D01*
X5372067Y-13311289D02*
X5353019Y-13301765D01*
X5353019Y-13301765D02*
X5343496Y-13292241D01*
X5343496Y-13292241D02*
X5333972Y-13273194D01*
X5333972Y-13273194D02*
X5324448Y-13235098D01*
X5324448Y-13235098D02*
X5324448Y-13187479D01*
X5324448Y-13187479D02*
X5333972Y-13149384D01*
X5333972Y-13149384D02*
X5343496Y-13130336D01*
X5343496Y-13130336D02*
X5353019Y-13120813D01*
X5353019Y-13120813D02*
X5372067Y-13111289D01*
X5524448Y-13292241D02*
X5533972Y-13301765D01*
X5533972Y-13301765D02*
X5524448Y-13311289D01*
X5524448Y-13311289D02*
X5514924Y-13301765D01*
X5514924Y-13301765D02*
X5524448Y-13292241D01*
X5524448Y-13292241D02*
X5524448Y-13311289D01*
X5600638Y-13111289D02*
X5724448Y-13111289D01*
X5724448Y-13111289D02*
X5657781Y-13187479D01*
X5657781Y-13187479D02*
X5686353Y-13187479D01*
X5686353Y-13187479D02*
X5705400Y-13197003D01*
X5705400Y-13197003D02*
X5714924Y-13206527D01*
X5714924Y-13206527D02*
X5724448Y-13225575D01*
X5724448Y-13225575D02*
X5724448Y-13273194D01*
X5724448Y-13273194D02*
X5714924Y-13292241D01*
X5714924Y-13292241D02*
X5705400Y-13301765D01*
X5705400Y-13301765D02*
X5686353Y-13311289D01*
X5686353Y-13311289D02*
X5629210Y-13311289D01*
X5629210Y-13311289D02*
X5610162Y-13301765D01*
X5610162Y-13301765D02*
X5600638Y-13292241D01*
X5848257Y-13111289D02*
X5867305Y-13111289D01*
X5867305Y-13111289D02*
X5886353Y-13120813D01*
X5886353Y-13120813D02*
X5895876Y-13130336D01*
X5895876Y-13130336D02*
X5905400Y-13149384D01*
X5905400Y-13149384D02*
X5914924Y-13187479D01*
X5914924Y-13187479D02*
X5914924Y-13235098D01*
X5914924Y-13235098D02*
X5905400Y-13273194D01*
X5905400Y-13273194D02*
X5895876Y-13292241D01*
X5895876Y-13292241D02*
X5886353Y-13301765D01*
X5886353Y-13301765D02*
X5867305Y-13311289D01*
X5867305Y-13311289D02*
X5848257Y-13311289D01*
X5848257Y-13311289D02*
X5829210Y-13301765D01*
X5829210Y-13301765D02*
X5819686Y-13292241D01*
X5819686Y-13292241D02*
X5810162Y-13273194D01*
X5810162Y-13273194D02*
X5800638Y-13235098D01*
X5800638Y-13235098D02*
X5800638Y-13187479D01*
X5800638Y-13187479D02*
X5810162Y-13149384D01*
X5810162Y-13149384D02*
X5819686Y-13130336D01*
X5819686Y-13130336D02*
X5829210Y-13120813D01*
X5829210Y-13120813D02*
X5848257Y-13111289D01*
X6038734Y-13111289D02*
X6057781Y-13111289D01*
X6057781Y-13111289D02*
X6076829Y-13120813D01*
X6076829Y-13120813D02*
X6086353Y-13130336D01*
X6086353Y-13130336D02*
X6095876Y-13149384D01*
X6095876Y-13149384D02*
X6105400Y-13187479D01*
X6105400Y-13187479D02*
X6105400Y-13235098D01*
X6105400Y-13235098D02*
X6095876Y-13273194D01*
X6095876Y-13273194D02*
X6086353Y-13292241D01*
X6086353Y-13292241D02*
X6076829Y-13301765D01*
X6076829Y-13301765D02*
X6057781Y-13311289D01*
X6057781Y-13311289D02*
X6038734Y-13311289D01*
X6038734Y-13311289D02*
X6019686Y-13301765D01*
X6019686Y-13301765D02*
X6010162Y-13292241D01*
X6010162Y-13292241D02*
X6000638Y-13273194D01*
X6000638Y-13273194D02*
X5991115Y-13235098D01*
X5991115Y-13235098D02*
X5991115Y-13187479D01*
X5991115Y-13187479D02*
X6000638Y-13149384D01*
X6000638Y-13149384D02*
X6010162Y-13130336D01*
X6010162Y-13130336D02*
X6019686Y-13120813D01*
X6019686Y-13120813D02*
X6038734Y-13111289D01*
X6191115Y-13311289D02*
X6191115Y-13177955D01*
X6191115Y-13197003D02*
X6200638Y-13187479D01*
X6200638Y-13187479D02*
X6219686Y-13177955D01*
X6219686Y-13177955D02*
X6248257Y-13177955D01*
X6248257Y-13177955D02*
X6267305Y-13187479D01*
X6267305Y-13187479D02*
X6276829Y-13206527D01*
X6276829Y-13206527D02*
X6276829Y-13311289D01*
X6276829Y-13206527D02*
X6286353Y-13187479D01*
X6286353Y-13187479D02*
X6305400Y-13177955D01*
X6305400Y-13177955D02*
X6333972Y-13177955D01*
X6333972Y-13177955D02*
X6353019Y-13187479D01*
X6353019Y-13187479D02*
X6362543Y-13206527D01*
X6362543Y-13206527D02*
X6362543Y-13311289D01*
X6457781Y-13311289D02*
X6457781Y-13177955D01*
X6457781Y-13197003D02*
X6467305Y-13187479D01*
X6467305Y-13187479D02*
X6486353Y-13177955D01*
X6486353Y-13177955D02*
X6514924Y-13177955D01*
X6514924Y-13177955D02*
X6533972Y-13187479D01*
X6533972Y-13187479D02*
X6543496Y-13206527D01*
X6543496Y-13206527D02*
X6543496Y-13311289D01*
X6543496Y-13206527D02*
X6553019Y-13187479D01*
X6553019Y-13187479D02*
X6572067Y-13177955D01*
X6572067Y-13177955D02*
X6600638Y-13177955D01*
X6600638Y-13177955D02*
X6619686Y-13187479D01*
X6619686Y-13187479D02*
X6629210Y-13206527D01*
X6629210Y-13206527D02*
X6629210Y-13311289D01*
X7019686Y-13101765D02*
X6848258Y-13358908D01*
X7276829Y-13111289D02*
X7295877Y-13111289D01*
X7295877Y-13111289D02*
X7314924Y-13120813D01*
X7314924Y-13120813D02*
X7324448Y-13130336D01*
X7324448Y-13130336D02*
X7333972Y-13149384D01*
X7333972Y-13149384D02*
X7343496Y-13187479D01*
X7343496Y-13187479D02*
X7343496Y-13235098D01*
X7343496Y-13235098D02*
X7333972Y-13273194D01*
X7333972Y-13273194D02*
X7324448Y-13292241D01*
X7324448Y-13292241D02*
X7314924Y-13301765D01*
X7314924Y-13301765D02*
X7295877Y-13311289D01*
X7295877Y-13311289D02*
X7276829Y-13311289D01*
X7276829Y-13311289D02*
X7257781Y-13301765D01*
X7257781Y-13301765D02*
X7248258Y-13292241D01*
X7248258Y-13292241D02*
X7238734Y-13273194D01*
X7238734Y-13273194D02*
X7229210Y-13235098D01*
X7229210Y-13235098D02*
X7229210Y-13187479D01*
X7229210Y-13187479D02*
X7238734Y-13149384D01*
X7238734Y-13149384D02*
X7248258Y-13130336D01*
X7248258Y-13130336D02*
X7257781Y-13120813D01*
X7257781Y-13120813D02*
X7276829Y-13111289D01*
X7429210Y-13292241D02*
X7438734Y-13301765D01*
X7438734Y-13301765D02*
X7429210Y-13311289D01*
X7429210Y-13311289D02*
X7419686Y-13301765D01*
X7419686Y-13301765D02*
X7429210Y-13292241D01*
X7429210Y-13292241D02*
X7429210Y-13311289D01*
X7562543Y-13111289D02*
X7581591Y-13111289D01*
X7581591Y-13111289D02*
X7600639Y-13120813D01*
X7600639Y-13120813D02*
X7610162Y-13130336D01*
X7610162Y-13130336D02*
X7619686Y-13149384D01*
X7619686Y-13149384D02*
X7629210Y-13187479D01*
X7629210Y-13187479D02*
X7629210Y-13235098D01*
X7629210Y-13235098D02*
X7619686Y-13273194D01*
X7619686Y-13273194D02*
X7610162Y-13292241D01*
X7610162Y-13292241D02*
X7600639Y-13301765D01*
X7600639Y-13301765D02*
X7581591Y-13311289D01*
X7581591Y-13311289D02*
X7562543Y-13311289D01*
X7562543Y-13311289D02*
X7543496Y-13301765D01*
X7543496Y-13301765D02*
X7533972Y-13292241D01*
X7533972Y-13292241D02*
X7524448Y-13273194D01*
X7524448Y-13273194D02*
X7514924Y-13235098D01*
X7514924Y-13235098D02*
X7514924Y-13187479D01*
X7514924Y-13187479D02*
X7524448Y-13149384D01*
X7524448Y-13149384D02*
X7533972Y-13130336D01*
X7533972Y-13130336D02*
X7543496Y-13120813D01*
X7543496Y-13120813D02*
X7562543Y-13111289D01*
X7819686Y-13311289D02*
X7705400Y-13311289D01*
X7762543Y-13311289D02*
X7762543Y-13111289D01*
X7762543Y-13111289D02*
X7743496Y-13139860D01*
X7743496Y-13139860D02*
X7724448Y-13158908D01*
X7724448Y-13158908D02*
X7705400Y-13168432D01*
X8010162Y-13311289D02*
X7895877Y-13311289D01*
X7953019Y-13311289D02*
X7953019Y-13111289D01*
X7953019Y-13111289D02*
X7933972Y-13139860D01*
X7933972Y-13139860D02*
X7914924Y-13158908D01*
X7914924Y-13158908D02*
X7895877Y-13168432D01*
X8124448Y-13197003D02*
X8105400Y-13187479D01*
X8105400Y-13187479D02*
X8095877Y-13177955D01*
X8095877Y-13177955D02*
X8086353Y-13158908D01*
X8086353Y-13158908D02*
X8086353Y-13149384D01*
X8086353Y-13149384D02*
X8095877Y-13130336D01*
X8095877Y-13130336D02*
X8105400Y-13120813D01*
X8105400Y-13120813D02*
X8124448Y-13111289D01*
X8124448Y-13111289D02*
X8162543Y-13111289D01*
X8162543Y-13111289D02*
X8181591Y-13120813D01*
X8181591Y-13120813D02*
X8191115Y-13130336D01*
X8191115Y-13130336D02*
X8200639Y-13149384D01*
X8200639Y-13149384D02*
X8200639Y-13158908D01*
X8200639Y-13158908D02*
X8191115Y-13177955D01*
X8191115Y-13177955D02*
X8181591Y-13187479D01*
X8181591Y-13187479D02*
X8162543Y-13197003D01*
X8162543Y-13197003D02*
X8124448Y-13197003D01*
X8124448Y-13197003D02*
X8105400Y-13206527D01*
X8105400Y-13206527D02*
X8095877Y-13216051D01*
X8095877Y-13216051D02*
X8086353Y-13235098D01*
X8086353Y-13235098D02*
X8086353Y-13273194D01*
X8086353Y-13273194D02*
X8095877Y-13292241D01*
X8095877Y-13292241D02*
X8105400Y-13301765D01*
X8105400Y-13301765D02*
X8124448Y-13311289D01*
X8124448Y-13311289D02*
X8162543Y-13311289D01*
X8162543Y-13311289D02*
X8181591Y-13301765D01*
X8181591Y-13301765D02*
X8191115Y-13292241D01*
X8191115Y-13292241D02*
X8200639Y-13273194D01*
X8200639Y-13273194D02*
X8200639Y-13235098D01*
X8200639Y-13235098D02*
X8191115Y-13216051D01*
X8191115Y-13216051D02*
X8181591Y-13206527D01*
X8181591Y-13206527D02*
X8162543Y-13197003D01*
X8276829Y-13111289D02*
X8276829Y-13149384D01*
X8353020Y-13111289D02*
X8353020Y-13149384D01*
X8648258Y-13387479D02*
X8638734Y-13377955D01*
X8638734Y-13377955D02*
X8619686Y-13349384D01*
X8619686Y-13349384D02*
X8610163Y-13330336D01*
X8610163Y-13330336D02*
X8600639Y-13301765D01*
X8600639Y-13301765D02*
X8591115Y-13254146D01*
X8591115Y-13254146D02*
X8591115Y-13216051D01*
X8591115Y-13216051D02*
X8600639Y-13168432D01*
X8600639Y-13168432D02*
X8610163Y-13139860D01*
X8610163Y-13139860D02*
X8619686Y-13120813D01*
X8619686Y-13120813D02*
X8638734Y-13092241D01*
X8638734Y-13092241D02*
X8648258Y-13082717D01*
X8829210Y-13311289D02*
X8714924Y-13311289D01*
X8772067Y-13311289D02*
X8772067Y-13111289D01*
X8772067Y-13111289D02*
X8753020Y-13139860D01*
X8753020Y-13139860D02*
X8733972Y-13158908D01*
X8733972Y-13158908D02*
X8714924Y-13168432D01*
X8943496Y-13197003D02*
X8924448Y-13187479D01*
X8924448Y-13187479D02*
X8914924Y-13177955D01*
X8914924Y-13177955D02*
X8905401Y-13158908D01*
X8905401Y-13158908D02*
X8905401Y-13149384D01*
X8905401Y-13149384D02*
X8914924Y-13130336D01*
X8914924Y-13130336D02*
X8924448Y-13120813D01*
X8924448Y-13120813D02*
X8943496Y-13111289D01*
X8943496Y-13111289D02*
X8981591Y-13111289D01*
X8981591Y-13111289D02*
X9000639Y-13120813D01*
X9000639Y-13120813D02*
X9010163Y-13130336D01*
X9010163Y-13130336D02*
X9019686Y-13149384D01*
X9019686Y-13149384D02*
X9019686Y-13158908D01*
X9019686Y-13158908D02*
X9010163Y-13177955D01*
X9010163Y-13177955D02*
X9000639Y-13187479D01*
X9000639Y-13187479D02*
X8981591Y-13197003D01*
X8981591Y-13197003D02*
X8943496Y-13197003D01*
X8943496Y-13197003D02*
X8924448Y-13206527D01*
X8924448Y-13206527D02*
X8914924Y-13216051D01*
X8914924Y-13216051D02*
X8905401Y-13235098D01*
X8905401Y-13235098D02*
X8905401Y-13273194D01*
X8905401Y-13273194D02*
X8914924Y-13292241D01*
X8914924Y-13292241D02*
X8924448Y-13301765D01*
X8924448Y-13301765D02*
X8943496Y-13311289D01*
X8943496Y-13311289D02*
X8981591Y-13311289D01*
X8981591Y-13311289D02*
X9000639Y-13301765D01*
X9000639Y-13301765D02*
X9010163Y-13292241D01*
X9010163Y-13292241D02*
X9019686Y-13273194D01*
X9019686Y-13273194D02*
X9019686Y-13235098D01*
X9019686Y-13235098D02*
X9010163Y-13216051D01*
X9010163Y-13216051D02*
X9000639Y-13206527D01*
X9000639Y-13206527D02*
X8981591Y-13197003D01*
X9191115Y-13111289D02*
X9153020Y-13111289D01*
X9153020Y-13111289D02*
X9133972Y-13120813D01*
X9133972Y-13120813D02*
X9124448Y-13130336D01*
X9124448Y-13130336D02*
X9105401Y-13158908D01*
X9105401Y-13158908D02*
X9095877Y-13197003D01*
X9095877Y-13197003D02*
X9095877Y-13273194D01*
X9095877Y-13273194D02*
X9105401Y-13292241D01*
X9105401Y-13292241D02*
X9114924Y-13301765D01*
X9114924Y-13301765D02*
X9133972Y-13311289D01*
X9133972Y-13311289D02*
X9172067Y-13311289D01*
X9172067Y-13311289D02*
X9191115Y-13301765D01*
X9191115Y-13301765D02*
X9200639Y-13292241D01*
X9200639Y-13292241D02*
X9210163Y-13273194D01*
X9210163Y-13273194D02*
X9210163Y-13225575D01*
X9210163Y-13225575D02*
X9200639Y-13206527D01*
X9200639Y-13206527D02*
X9191115Y-13197003D01*
X9191115Y-13197003D02*
X9172067Y-13187479D01*
X9172067Y-13187479D02*
X9133972Y-13187479D01*
X9133972Y-13187479D02*
X9114924Y-13197003D01*
X9114924Y-13197003D02*
X9105401Y-13206527D01*
X9105401Y-13206527D02*
X9095877Y-13225575D01*
X9448258Y-13311289D02*
X9448258Y-13111289D01*
X9533972Y-13311289D02*
X9533972Y-13206527D01*
X9533972Y-13206527D02*
X9524448Y-13187479D01*
X9524448Y-13187479D02*
X9505401Y-13177955D01*
X9505401Y-13177955D02*
X9476829Y-13177955D01*
X9476829Y-13177955D02*
X9457782Y-13187479D01*
X9457782Y-13187479D02*
X9448258Y-13197003D01*
X9657782Y-13311289D02*
X9638734Y-13301765D01*
X9638734Y-13301765D02*
X9629210Y-13292241D01*
X9629210Y-13292241D02*
X9619686Y-13273194D01*
X9619686Y-13273194D02*
X9619686Y-13216051D01*
X9619686Y-13216051D02*
X9629210Y-13197003D01*
X9629210Y-13197003D02*
X9638734Y-13187479D01*
X9638734Y-13187479D02*
X9657782Y-13177955D01*
X9657782Y-13177955D02*
X9686353Y-13177955D01*
X9686353Y-13177955D02*
X9705401Y-13187479D01*
X9705401Y-13187479D02*
X9714925Y-13197003D01*
X9714925Y-13197003D02*
X9724448Y-13216051D01*
X9724448Y-13216051D02*
X9724448Y-13273194D01*
X9724448Y-13273194D02*
X9714925Y-13292241D01*
X9714925Y-13292241D02*
X9705401Y-13301765D01*
X9705401Y-13301765D02*
X9686353Y-13311289D01*
X9686353Y-13311289D02*
X9657782Y-13311289D01*
X9838734Y-13311289D02*
X9819686Y-13301765D01*
X9819686Y-13301765D02*
X9810163Y-13282717D01*
X9810163Y-13282717D02*
X9810163Y-13111289D01*
X9991115Y-13301765D02*
X9972067Y-13311289D01*
X9972067Y-13311289D02*
X9933972Y-13311289D01*
X9933972Y-13311289D02*
X9914925Y-13301765D01*
X9914925Y-13301765D02*
X9905401Y-13282717D01*
X9905401Y-13282717D02*
X9905401Y-13206527D01*
X9905401Y-13206527D02*
X9914925Y-13187479D01*
X9914925Y-13187479D02*
X9933972Y-13177955D01*
X9933972Y-13177955D02*
X9972067Y-13177955D01*
X9972067Y-13177955D02*
X9991115Y-13187479D01*
X9991115Y-13187479D02*
X10000639Y-13206527D01*
X10000639Y-13206527D02*
X10000639Y-13225575D01*
X10000639Y-13225575D02*
X9905401Y-13244622D01*
X10076829Y-13301765D02*
X10095877Y-13311289D01*
X10095877Y-13311289D02*
X10133972Y-13311289D01*
X10133972Y-13311289D02*
X10153020Y-13301765D01*
X10153020Y-13301765D02*
X10162544Y-13282717D01*
X10162544Y-13282717D02*
X10162544Y-13273194D01*
X10162544Y-13273194D02*
X10153020Y-13254146D01*
X10153020Y-13254146D02*
X10133972Y-13244622D01*
X10133972Y-13244622D02*
X10105401Y-13244622D01*
X10105401Y-13244622D02*
X10086353Y-13235098D01*
X10086353Y-13235098D02*
X10076829Y-13216051D01*
X10076829Y-13216051D02*
X10076829Y-13206527D01*
X10076829Y-13206527D02*
X10086353Y-13187479D01*
X10086353Y-13187479D02*
X10105401Y-13177955D01*
X10105401Y-13177955D02*
X10133972Y-13177955D01*
X10133972Y-13177955D02*
X10153020Y-13187479D01*
X10229210Y-13387479D02*
X10238734Y-13377955D01*
X10238734Y-13377955D02*
X10257782Y-13349384D01*
X10257782Y-13349384D02*
X10267306Y-13330336D01*
X10267306Y-13330336D02*
X10276829Y-13301765D01*
X10276829Y-13301765D02*
X10286353Y-13254146D01*
X10286353Y-13254146D02*
X10286353Y-13216051D01*
X10286353Y-13216051D02*
X10276829Y-13168432D01*
X10276829Y-13168432D02*
X10267306Y-13139860D01*
X10267306Y-13139860D02*
X10257782Y-13120813D01*
X10257782Y-13120813D02*
X10238734Y-13092241D01*
X10238734Y-13092241D02*
X10229210Y-13082717D01*
D10*
X5073195Y-13483805D02*
G75*
G03*
X5002075Y-13483805I-35560J0D01*
G01*
X5002075Y-13483805D02*
G75*
G03*
X5073195Y-13483805I35560J0D01*
G01*
D11*
X5372067Y-13375289D02*
X5391115Y-13375289D01*
X5391115Y-13375289D02*
X5410162Y-13384813D01*
X5410162Y-13384813D02*
X5419686Y-13394336D01*
X5419686Y-13394336D02*
X5429210Y-13413384D01*
X5429210Y-13413384D02*
X5438734Y-13451479D01*
X5438734Y-13451479D02*
X5438734Y-13499098D01*
X5438734Y-13499098D02*
X5429210Y-13537194D01*
X5429210Y-13537194D02*
X5419686Y-13556241D01*
X5419686Y-13556241D02*
X5410162Y-13565765D01*
X5410162Y-13565765D02*
X5391115Y-13575289D01*
X5391115Y-13575289D02*
X5372067Y-13575289D01*
X5372067Y-13575289D02*
X5353019Y-13565765D01*
X5353019Y-13565765D02*
X5343496Y-13556241D01*
X5343496Y-13556241D02*
X5333972Y-13537194D01*
X5333972Y-13537194D02*
X5324448Y-13499098D01*
X5324448Y-13499098D02*
X5324448Y-13451479D01*
X5324448Y-13451479D02*
X5333972Y-13413384D01*
X5333972Y-13413384D02*
X5343496Y-13394336D01*
X5343496Y-13394336D02*
X5353019Y-13384813D01*
X5353019Y-13384813D02*
X5372067Y-13375289D01*
X5524448Y-13556241D02*
X5533972Y-13565765D01*
X5533972Y-13565765D02*
X5524448Y-13575289D01*
X5524448Y-13575289D02*
X5514924Y-13565765D01*
X5514924Y-13565765D02*
X5524448Y-13556241D01*
X5524448Y-13556241D02*
X5524448Y-13575289D01*
X5600638Y-13375289D02*
X5733972Y-13375289D01*
X5733972Y-13375289D02*
X5648257Y-13575289D01*
X5914924Y-13575289D02*
X5800638Y-13575289D01*
X5857781Y-13575289D02*
X5857781Y-13375289D01*
X5857781Y-13375289D02*
X5838734Y-13403860D01*
X5838734Y-13403860D02*
X5819686Y-13422908D01*
X5819686Y-13422908D02*
X5800638Y-13432432D01*
X6105400Y-13575289D02*
X5991115Y-13575289D01*
X6048257Y-13575289D02*
X6048257Y-13375289D01*
X6048257Y-13375289D02*
X6029210Y-13403860D01*
X6029210Y-13403860D02*
X6010162Y-13422908D01*
X6010162Y-13422908D02*
X5991115Y-13432432D01*
X6191115Y-13575289D02*
X6191115Y-13441955D01*
X6191115Y-13461003D02*
X6200638Y-13451479D01*
X6200638Y-13451479D02*
X6219686Y-13441955D01*
X6219686Y-13441955D02*
X6248257Y-13441955D01*
X6248257Y-13441955D02*
X6267305Y-13451479D01*
X6267305Y-13451479D02*
X6276829Y-13470527D01*
X6276829Y-13470527D02*
X6276829Y-13575289D01*
X6276829Y-13470527D02*
X6286353Y-13451479D01*
X6286353Y-13451479D02*
X6305400Y-13441955D01*
X6305400Y-13441955D02*
X6333972Y-13441955D01*
X6333972Y-13441955D02*
X6353019Y-13451479D01*
X6353019Y-13451479D02*
X6362543Y-13470527D01*
X6362543Y-13470527D02*
X6362543Y-13575289D01*
X6457781Y-13575289D02*
X6457781Y-13441955D01*
X6457781Y-13461003D02*
X6467305Y-13451479D01*
X6467305Y-13451479D02*
X6486353Y-13441955D01*
X6486353Y-13441955D02*
X6514924Y-13441955D01*
X6514924Y-13441955D02*
X6533972Y-13451479D01*
X6533972Y-13451479D02*
X6543496Y-13470527D01*
X6543496Y-13470527D02*
X6543496Y-13575289D01*
X6543496Y-13470527D02*
X6553019Y-13451479D01*
X6553019Y-13451479D02*
X6572067Y-13441955D01*
X6572067Y-13441955D02*
X6600638Y-13441955D01*
X6600638Y-13441955D02*
X6619686Y-13451479D01*
X6619686Y-13451479D02*
X6629210Y-13470527D01*
X6629210Y-13470527D02*
X6629210Y-13575289D01*
X7019686Y-13365765D02*
X6848258Y-13622908D01*
X7276829Y-13375289D02*
X7295877Y-13375289D01*
X7295877Y-13375289D02*
X7314924Y-13384813D01*
X7314924Y-13384813D02*
X7324448Y-13394336D01*
X7324448Y-13394336D02*
X7333972Y-13413384D01*
X7333972Y-13413384D02*
X7343496Y-13451479D01*
X7343496Y-13451479D02*
X7343496Y-13499098D01*
X7343496Y-13499098D02*
X7333972Y-13537194D01*
X7333972Y-13537194D02*
X7324448Y-13556241D01*
X7324448Y-13556241D02*
X7314924Y-13565765D01*
X7314924Y-13565765D02*
X7295877Y-13575289D01*
X7295877Y-13575289D02*
X7276829Y-13575289D01*
X7276829Y-13575289D02*
X7257781Y-13565765D01*
X7257781Y-13565765D02*
X7248258Y-13556241D01*
X7248258Y-13556241D02*
X7238734Y-13537194D01*
X7238734Y-13537194D02*
X7229210Y-13499098D01*
X7229210Y-13499098D02*
X7229210Y-13451479D01*
X7229210Y-13451479D02*
X7238734Y-13413384D01*
X7238734Y-13413384D02*
X7248258Y-13394336D01*
X7248258Y-13394336D02*
X7257781Y-13384813D01*
X7257781Y-13384813D02*
X7276829Y-13375289D01*
X7429210Y-13556241D02*
X7438734Y-13565765D01*
X7438734Y-13565765D02*
X7429210Y-13575289D01*
X7429210Y-13575289D02*
X7419686Y-13565765D01*
X7419686Y-13565765D02*
X7429210Y-13556241D01*
X7429210Y-13556241D02*
X7429210Y-13575289D01*
X7562543Y-13375289D02*
X7581591Y-13375289D01*
X7581591Y-13375289D02*
X7600639Y-13384813D01*
X7600639Y-13384813D02*
X7610162Y-13394336D01*
X7610162Y-13394336D02*
X7619686Y-13413384D01*
X7619686Y-13413384D02*
X7629210Y-13451479D01*
X7629210Y-13451479D02*
X7629210Y-13499098D01*
X7629210Y-13499098D02*
X7619686Y-13537194D01*
X7619686Y-13537194D02*
X7610162Y-13556241D01*
X7610162Y-13556241D02*
X7600639Y-13565765D01*
X7600639Y-13565765D02*
X7581591Y-13575289D01*
X7581591Y-13575289D02*
X7562543Y-13575289D01*
X7562543Y-13575289D02*
X7543496Y-13565765D01*
X7543496Y-13565765D02*
X7533972Y-13556241D01*
X7533972Y-13556241D02*
X7524448Y-13537194D01*
X7524448Y-13537194D02*
X7514924Y-13499098D01*
X7514924Y-13499098D02*
X7514924Y-13451479D01*
X7514924Y-13451479D02*
X7524448Y-13413384D01*
X7524448Y-13413384D02*
X7533972Y-13394336D01*
X7533972Y-13394336D02*
X7543496Y-13384813D01*
X7543496Y-13384813D02*
X7562543Y-13375289D01*
X7705400Y-13394336D02*
X7714924Y-13384813D01*
X7714924Y-13384813D02*
X7733972Y-13375289D01*
X7733972Y-13375289D02*
X7781591Y-13375289D01*
X7781591Y-13375289D02*
X7800639Y-13384813D01*
X7800639Y-13384813D02*
X7810162Y-13394336D01*
X7810162Y-13394336D02*
X7819686Y-13413384D01*
X7819686Y-13413384D02*
X7819686Y-13432432D01*
X7819686Y-13432432D02*
X7810162Y-13461003D01*
X7810162Y-13461003D02*
X7695877Y-13575289D01*
X7695877Y-13575289D02*
X7819686Y-13575289D01*
X7933972Y-13461003D02*
X7914924Y-13451479D01*
X7914924Y-13451479D02*
X7905400Y-13441955D01*
X7905400Y-13441955D02*
X7895877Y-13422908D01*
X7895877Y-13422908D02*
X7895877Y-13413384D01*
X7895877Y-13413384D02*
X7905400Y-13394336D01*
X7905400Y-13394336D02*
X7914924Y-13384813D01*
X7914924Y-13384813D02*
X7933972Y-13375289D01*
X7933972Y-13375289D02*
X7972067Y-13375289D01*
X7972067Y-13375289D02*
X7991115Y-13384813D01*
X7991115Y-13384813D02*
X8000639Y-13394336D01*
X8000639Y-13394336D02*
X8010162Y-13413384D01*
X8010162Y-13413384D02*
X8010162Y-13422908D01*
X8010162Y-13422908D02*
X8000639Y-13441955D01*
X8000639Y-13441955D02*
X7991115Y-13451479D01*
X7991115Y-13451479D02*
X7972067Y-13461003D01*
X7972067Y-13461003D02*
X7933972Y-13461003D01*
X7933972Y-13461003D02*
X7914924Y-13470527D01*
X7914924Y-13470527D02*
X7905400Y-13480051D01*
X7905400Y-13480051D02*
X7895877Y-13499098D01*
X7895877Y-13499098D02*
X7895877Y-13537194D01*
X7895877Y-13537194D02*
X7905400Y-13556241D01*
X7905400Y-13556241D02*
X7914924Y-13565765D01*
X7914924Y-13565765D02*
X7933972Y-13575289D01*
X7933972Y-13575289D02*
X7972067Y-13575289D01*
X7972067Y-13575289D02*
X7991115Y-13565765D01*
X7991115Y-13565765D02*
X8000639Y-13556241D01*
X8000639Y-13556241D02*
X8010162Y-13537194D01*
X8010162Y-13537194D02*
X8010162Y-13499098D01*
X8010162Y-13499098D02*
X8000639Y-13480051D01*
X8000639Y-13480051D02*
X7991115Y-13470527D01*
X7991115Y-13470527D02*
X7972067Y-13461003D01*
X8133972Y-13375289D02*
X8153020Y-13375289D01*
X8153020Y-13375289D02*
X8172067Y-13384813D01*
X8172067Y-13384813D02*
X8181591Y-13394336D01*
X8181591Y-13394336D02*
X8191115Y-13413384D01*
X8191115Y-13413384D02*
X8200639Y-13451479D01*
X8200639Y-13451479D02*
X8200639Y-13499098D01*
X8200639Y-13499098D02*
X8191115Y-13537194D01*
X8191115Y-13537194D02*
X8181591Y-13556241D01*
X8181591Y-13556241D02*
X8172067Y-13565765D01*
X8172067Y-13565765D02*
X8153020Y-13575289D01*
X8153020Y-13575289D02*
X8133972Y-13575289D01*
X8133972Y-13575289D02*
X8114924Y-13565765D01*
X8114924Y-13565765D02*
X8105400Y-13556241D01*
X8105400Y-13556241D02*
X8095877Y-13537194D01*
X8095877Y-13537194D02*
X8086353Y-13499098D01*
X8086353Y-13499098D02*
X8086353Y-13451479D01*
X8086353Y-13451479D02*
X8095877Y-13413384D01*
X8095877Y-13413384D02*
X8105400Y-13394336D01*
X8105400Y-13394336D02*
X8114924Y-13384813D01*
X8114924Y-13384813D02*
X8133972Y-13375289D01*
X8276829Y-13375289D02*
X8276829Y-13413384D01*
X8353020Y-13375289D02*
X8353020Y-13413384D01*
X8648258Y-13651479D02*
X8638734Y-13641955D01*
X8638734Y-13641955D02*
X8619686Y-13613384D01*
X8619686Y-13613384D02*
X8610163Y-13594336D01*
X8610163Y-13594336D02*
X8600639Y-13565765D01*
X8600639Y-13565765D02*
X8591115Y-13518146D01*
X8591115Y-13518146D02*
X8591115Y-13480051D01*
X8591115Y-13480051D02*
X8600639Y-13432432D01*
X8600639Y-13432432D02*
X8610163Y-13403860D01*
X8610163Y-13403860D02*
X8619686Y-13384813D01*
X8619686Y-13384813D02*
X8638734Y-13356241D01*
X8638734Y-13356241D02*
X8648258Y-13346717D01*
X8829210Y-13575289D02*
X8714924Y-13575289D01*
X8772067Y-13575289D02*
X8772067Y-13375289D01*
X8772067Y-13375289D02*
X8753020Y-13403860D01*
X8753020Y-13403860D02*
X8733972Y-13422908D01*
X8733972Y-13422908D02*
X8714924Y-13432432D01*
X8953020Y-13375289D02*
X8972067Y-13375289D01*
X8972067Y-13375289D02*
X8991115Y-13384813D01*
X8991115Y-13384813D02*
X9000639Y-13394336D01*
X9000639Y-13394336D02*
X9010163Y-13413384D01*
X9010163Y-13413384D02*
X9019686Y-13451479D01*
X9019686Y-13451479D02*
X9019686Y-13499098D01*
X9019686Y-13499098D02*
X9010163Y-13537194D01*
X9010163Y-13537194D02*
X9000639Y-13556241D01*
X9000639Y-13556241D02*
X8991115Y-13565765D01*
X8991115Y-13565765D02*
X8972067Y-13575289D01*
X8972067Y-13575289D02*
X8953020Y-13575289D01*
X8953020Y-13575289D02*
X8933972Y-13565765D01*
X8933972Y-13565765D02*
X8924448Y-13556241D01*
X8924448Y-13556241D02*
X8914924Y-13537194D01*
X8914924Y-13537194D02*
X8905401Y-13499098D01*
X8905401Y-13499098D02*
X8905401Y-13451479D01*
X8905401Y-13451479D02*
X8914924Y-13413384D01*
X8914924Y-13413384D02*
X8924448Y-13394336D01*
X8924448Y-13394336D02*
X8933972Y-13384813D01*
X8933972Y-13384813D02*
X8953020Y-13375289D01*
X9257782Y-13575289D02*
X9257782Y-13375289D01*
X9343496Y-13575289D02*
X9343496Y-13470527D01*
X9343496Y-13470527D02*
X9333972Y-13451479D01*
X9333972Y-13451479D02*
X9314925Y-13441955D01*
X9314925Y-13441955D02*
X9286353Y-13441955D01*
X9286353Y-13441955D02*
X9267305Y-13451479D01*
X9267305Y-13451479D02*
X9257782Y-13461003D01*
X9467305Y-13575289D02*
X9448258Y-13565765D01*
X9448258Y-13565765D02*
X9438734Y-13556241D01*
X9438734Y-13556241D02*
X9429210Y-13537194D01*
X9429210Y-13537194D02*
X9429210Y-13480051D01*
X9429210Y-13480051D02*
X9438734Y-13461003D01*
X9438734Y-13461003D02*
X9448258Y-13451479D01*
X9448258Y-13451479D02*
X9467305Y-13441955D01*
X9467305Y-13441955D02*
X9495877Y-13441955D01*
X9495877Y-13441955D02*
X9514925Y-13451479D01*
X9514925Y-13451479D02*
X9524448Y-13461003D01*
X9524448Y-13461003D02*
X9533972Y-13480051D01*
X9533972Y-13480051D02*
X9533972Y-13537194D01*
X9533972Y-13537194D02*
X9524448Y-13556241D01*
X9524448Y-13556241D02*
X9514925Y-13565765D01*
X9514925Y-13565765D02*
X9495877Y-13575289D01*
X9495877Y-13575289D02*
X9467305Y-13575289D01*
X9648258Y-13575289D02*
X9629210Y-13565765D01*
X9629210Y-13565765D02*
X9619686Y-13546717D01*
X9619686Y-13546717D02*
X9619686Y-13375289D01*
X9800639Y-13565765D02*
X9781591Y-13575289D01*
X9781591Y-13575289D02*
X9743496Y-13575289D01*
X9743496Y-13575289D02*
X9724448Y-13565765D01*
X9724448Y-13565765D02*
X9714925Y-13546717D01*
X9714925Y-13546717D02*
X9714925Y-13470527D01*
X9714925Y-13470527D02*
X9724448Y-13451479D01*
X9724448Y-13451479D02*
X9743496Y-13441955D01*
X9743496Y-13441955D02*
X9781591Y-13441955D01*
X9781591Y-13441955D02*
X9800639Y-13451479D01*
X9800639Y-13451479D02*
X9810163Y-13470527D01*
X9810163Y-13470527D02*
X9810163Y-13489575D01*
X9810163Y-13489575D02*
X9714925Y-13508622D01*
X9886353Y-13565765D02*
X9905401Y-13575289D01*
X9905401Y-13575289D02*
X9943496Y-13575289D01*
X9943496Y-13575289D02*
X9962544Y-13565765D01*
X9962544Y-13565765D02*
X9972067Y-13546717D01*
X9972067Y-13546717D02*
X9972067Y-13537194D01*
X9972067Y-13537194D02*
X9962544Y-13518146D01*
X9962544Y-13518146D02*
X9943496Y-13508622D01*
X9943496Y-13508622D02*
X9914925Y-13508622D01*
X9914925Y-13508622D02*
X9895877Y-13499098D01*
X9895877Y-13499098D02*
X9886353Y-13480051D01*
X9886353Y-13480051D02*
X9886353Y-13470527D01*
X9886353Y-13470527D02*
X9895877Y-13451479D01*
X9895877Y-13451479D02*
X9914925Y-13441955D01*
X9914925Y-13441955D02*
X9943496Y-13441955D01*
X9943496Y-13441955D02*
X9962544Y-13451479D01*
X10038734Y-13651479D02*
X10048258Y-13641955D01*
X10048258Y-13641955D02*
X10067306Y-13613384D01*
X10067306Y-13613384D02*
X10076829Y-13594336D01*
X10076829Y-13594336D02*
X10086353Y-13565765D01*
X10086353Y-13565765D02*
X10095877Y-13518146D01*
X10095877Y-13518146D02*
X10095877Y-13480051D01*
X10095877Y-13480051D02*
X10086353Y-13432432D01*
X10086353Y-13432432D02*
X10076829Y-13403860D01*
X10076829Y-13403860D02*
X10067306Y-13384813D01*
X10067306Y-13384813D02*
X10048258Y-13356241D01*
X10048258Y-13356241D02*
X10038734Y-13346717D01*
D10*
X5023195Y-13697805D02*
X5023195Y-13797805D01*
X4973195Y-13747805D02*
X5073195Y-13747805D01*
D11*
X5438734Y-13839289D02*
X5324448Y-13839289D01*
X5381591Y-13839289D02*
X5381591Y-13639289D01*
X5381591Y-13639289D02*
X5362543Y-13667860D01*
X5362543Y-13667860D02*
X5343496Y-13686908D01*
X5343496Y-13686908D02*
X5324448Y-13696432D01*
X5524448Y-13820241D02*
X5533972Y-13829765D01*
X5533972Y-13829765D02*
X5524448Y-13839289D01*
X5524448Y-13839289D02*
X5514924Y-13829765D01*
X5514924Y-13829765D02*
X5524448Y-13820241D01*
X5524448Y-13820241D02*
X5524448Y-13839289D01*
X5657781Y-13639289D02*
X5676829Y-13639289D01*
X5676829Y-13639289D02*
X5695876Y-13648813D01*
X5695876Y-13648813D02*
X5705400Y-13658336D01*
X5705400Y-13658336D02*
X5714924Y-13677384D01*
X5714924Y-13677384D02*
X5724448Y-13715479D01*
X5724448Y-13715479D02*
X5724448Y-13763098D01*
X5724448Y-13763098D02*
X5714924Y-13801194D01*
X5714924Y-13801194D02*
X5705400Y-13820241D01*
X5705400Y-13820241D02*
X5695876Y-13829765D01*
X5695876Y-13829765D02*
X5676829Y-13839289D01*
X5676829Y-13839289D02*
X5657781Y-13839289D01*
X5657781Y-13839289D02*
X5638734Y-13829765D01*
X5638734Y-13829765D02*
X5629210Y-13820241D01*
X5629210Y-13820241D02*
X5619686Y-13801194D01*
X5619686Y-13801194D02*
X5610162Y-13763098D01*
X5610162Y-13763098D02*
X5610162Y-13715479D01*
X5610162Y-13715479D02*
X5619686Y-13677384D01*
X5619686Y-13677384D02*
X5629210Y-13658336D01*
X5629210Y-13658336D02*
X5638734Y-13648813D01*
X5638734Y-13648813D02*
X5657781Y-13639289D01*
X5848257Y-13639289D02*
X5867305Y-13639289D01*
X5867305Y-13639289D02*
X5886353Y-13648813D01*
X5886353Y-13648813D02*
X5895876Y-13658336D01*
X5895876Y-13658336D02*
X5905400Y-13677384D01*
X5905400Y-13677384D02*
X5914924Y-13715479D01*
X5914924Y-13715479D02*
X5914924Y-13763098D01*
X5914924Y-13763098D02*
X5905400Y-13801194D01*
X5905400Y-13801194D02*
X5895876Y-13820241D01*
X5895876Y-13820241D02*
X5886353Y-13829765D01*
X5886353Y-13829765D02*
X5867305Y-13839289D01*
X5867305Y-13839289D02*
X5848257Y-13839289D01*
X5848257Y-13839289D02*
X5829210Y-13829765D01*
X5829210Y-13829765D02*
X5819686Y-13820241D01*
X5819686Y-13820241D02*
X5810162Y-13801194D01*
X5810162Y-13801194D02*
X5800638Y-13763098D01*
X5800638Y-13763098D02*
X5800638Y-13715479D01*
X5800638Y-13715479D02*
X5810162Y-13677384D01*
X5810162Y-13677384D02*
X5819686Y-13658336D01*
X5819686Y-13658336D02*
X5829210Y-13648813D01*
X5829210Y-13648813D02*
X5848257Y-13639289D01*
X6038734Y-13639289D02*
X6057781Y-13639289D01*
X6057781Y-13639289D02*
X6076829Y-13648813D01*
X6076829Y-13648813D02*
X6086353Y-13658336D01*
X6086353Y-13658336D02*
X6095876Y-13677384D01*
X6095876Y-13677384D02*
X6105400Y-13715479D01*
X6105400Y-13715479D02*
X6105400Y-13763098D01*
X6105400Y-13763098D02*
X6095876Y-13801194D01*
X6095876Y-13801194D02*
X6086353Y-13820241D01*
X6086353Y-13820241D02*
X6076829Y-13829765D01*
X6076829Y-13829765D02*
X6057781Y-13839289D01*
X6057781Y-13839289D02*
X6038734Y-13839289D01*
X6038734Y-13839289D02*
X6019686Y-13829765D01*
X6019686Y-13829765D02*
X6010162Y-13820241D01*
X6010162Y-13820241D02*
X6000638Y-13801194D01*
X6000638Y-13801194D02*
X5991115Y-13763098D01*
X5991115Y-13763098D02*
X5991115Y-13715479D01*
X5991115Y-13715479D02*
X6000638Y-13677384D01*
X6000638Y-13677384D02*
X6010162Y-13658336D01*
X6010162Y-13658336D02*
X6019686Y-13648813D01*
X6019686Y-13648813D02*
X6038734Y-13639289D01*
X6191115Y-13839289D02*
X6191115Y-13705955D01*
X6191115Y-13725003D02*
X6200638Y-13715479D01*
X6200638Y-13715479D02*
X6219686Y-13705955D01*
X6219686Y-13705955D02*
X6248257Y-13705955D01*
X6248257Y-13705955D02*
X6267305Y-13715479D01*
X6267305Y-13715479D02*
X6276829Y-13734527D01*
X6276829Y-13734527D02*
X6276829Y-13839289D01*
X6276829Y-13734527D02*
X6286353Y-13715479D01*
X6286353Y-13715479D02*
X6305400Y-13705955D01*
X6305400Y-13705955D02*
X6333972Y-13705955D01*
X6333972Y-13705955D02*
X6353019Y-13715479D01*
X6353019Y-13715479D02*
X6362543Y-13734527D01*
X6362543Y-13734527D02*
X6362543Y-13839289D01*
X6457781Y-13839289D02*
X6457781Y-13705955D01*
X6457781Y-13725003D02*
X6467305Y-13715479D01*
X6467305Y-13715479D02*
X6486353Y-13705955D01*
X6486353Y-13705955D02*
X6514924Y-13705955D01*
X6514924Y-13705955D02*
X6533972Y-13715479D01*
X6533972Y-13715479D02*
X6543496Y-13734527D01*
X6543496Y-13734527D02*
X6543496Y-13839289D01*
X6543496Y-13734527D02*
X6553019Y-13715479D01*
X6553019Y-13715479D02*
X6572067Y-13705955D01*
X6572067Y-13705955D02*
X6600638Y-13705955D01*
X6600638Y-13705955D02*
X6619686Y-13715479D01*
X6619686Y-13715479D02*
X6629210Y-13734527D01*
X6629210Y-13734527D02*
X6629210Y-13839289D01*
X7019686Y-13629765D02*
X6848258Y-13886908D01*
X7276829Y-13639289D02*
X7295877Y-13639289D01*
X7295877Y-13639289D02*
X7314924Y-13648813D01*
X7314924Y-13648813D02*
X7324448Y-13658336D01*
X7324448Y-13658336D02*
X7333972Y-13677384D01*
X7333972Y-13677384D02*
X7343496Y-13715479D01*
X7343496Y-13715479D02*
X7343496Y-13763098D01*
X7343496Y-13763098D02*
X7333972Y-13801194D01*
X7333972Y-13801194D02*
X7324448Y-13820241D01*
X7324448Y-13820241D02*
X7314924Y-13829765D01*
X7314924Y-13829765D02*
X7295877Y-13839289D01*
X7295877Y-13839289D02*
X7276829Y-13839289D01*
X7276829Y-13839289D02*
X7257781Y-13829765D01*
X7257781Y-13829765D02*
X7248258Y-13820241D01*
X7248258Y-13820241D02*
X7238734Y-13801194D01*
X7238734Y-13801194D02*
X7229210Y-13763098D01*
X7229210Y-13763098D02*
X7229210Y-13715479D01*
X7229210Y-13715479D02*
X7238734Y-13677384D01*
X7238734Y-13677384D02*
X7248258Y-13658336D01*
X7248258Y-13658336D02*
X7257781Y-13648813D01*
X7257781Y-13648813D02*
X7276829Y-13639289D01*
X7429210Y-13820241D02*
X7438734Y-13829765D01*
X7438734Y-13829765D02*
X7429210Y-13839289D01*
X7429210Y-13839289D02*
X7419686Y-13829765D01*
X7419686Y-13829765D02*
X7429210Y-13820241D01*
X7429210Y-13820241D02*
X7429210Y-13839289D01*
X7562543Y-13639289D02*
X7581591Y-13639289D01*
X7581591Y-13639289D02*
X7600639Y-13648813D01*
X7600639Y-13648813D02*
X7610162Y-13658336D01*
X7610162Y-13658336D02*
X7619686Y-13677384D01*
X7619686Y-13677384D02*
X7629210Y-13715479D01*
X7629210Y-13715479D02*
X7629210Y-13763098D01*
X7629210Y-13763098D02*
X7619686Y-13801194D01*
X7619686Y-13801194D02*
X7610162Y-13820241D01*
X7610162Y-13820241D02*
X7600639Y-13829765D01*
X7600639Y-13829765D02*
X7581591Y-13839289D01*
X7581591Y-13839289D02*
X7562543Y-13839289D01*
X7562543Y-13839289D02*
X7543496Y-13829765D01*
X7543496Y-13829765D02*
X7533972Y-13820241D01*
X7533972Y-13820241D02*
X7524448Y-13801194D01*
X7524448Y-13801194D02*
X7514924Y-13763098D01*
X7514924Y-13763098D02*
X7514924Y-13715479D01*
X7514924Y-13715479D02*
X7524448Y-13677384D01*
X7524448Y-13677384D02*
X7533972Y-13658336D01*
X7533972Y-13658336D02*
X7543496Y-13648813D01*
X7543496Y-13648813D02*
X7562543Y-13639289D01*
X7695877Y-13639289D02*
X7819686Y-13639289D01*
X7819686Y-13639289D02*
X7753019Y-13715479D01*
X7753019Y-13715479D02*
X7781591Y-13715479D01*
X7781591Y-13715479D02*
X7800639Y-13725003D01*
X7800639Y-13725003D02*
X7810162Y-13734527D01*
X7810162Y-13734527D02*
X7819686Y-13753575D01*
X7819686Y-13753575D02*
X7819686Y-13801194D01*
X7819686Y-13801194D02*
X7810162Y-13820241D01*
X7810162Y-13820241D02*
X7800639Y-13829765D01*
X7800639Y-13829765D02*
X7781591Y-13839289D01*
X7781591Y-13839289D02*
X7724448Y-13839289D01*
X7724448Y-13839289D02*
X7705400Y-13829765D01*
X7705400Y-13829765D02*
X7695877Y-13820241D01*
X7914924Y-13839289D02*
X7953019Y-13839289D01*
X7953019Y-13839289D02*
X7972067Y-13829765D01*
X7972067Y-13829765D02*
X7981591Y-13820241D01*
X7981591Y-13820241D02*
X8000639Y-13791670D01*
X8000639Y-13791670D02*
X8010162Y-13753575D01*
X8010162Y-13753575D02*
X8010162Y-13677384D01*
X8010162Y-13677384D02*
X8000639Y-13658336D01*
X8000639Y-13658336D02*
X7991115Y-13648813D01*
X7991115Y-13648813D02*
X7972067Y-13639289D01*
X7972067Y-13639289D02*
X7933972Y-13639289D01*
X7933972Y-13639289D02*
X7914924Y-13648813D01*
X7914924Y-13648813D02*
X7905400Y-13658336D01*
X7905400Y-13658336D02*
X7895877Y-13677384D01*
X7895877Y-13677384D02*
X7895877Y-13725003D01*
X7895877Y-13725003D02*
X7905400Y-13744051D01*
X7905400Y-13744051D02*
X7914924Y-13753575D01*
X7914924Y-13753575D02*
X7933972Y-13763098D01*
X7933972Y-13763098D02*
X7972067Y-13763098D01*
X7972067Y-13763098D02*
X7991115Y-13753575D01*
X7991115Y-13753575D02*
X8000639Y-13744051D01*
X8000639Y-13744051D02*
X8010162Y-13725003D01*
X8181591Y-13705955D02*
X8181591Y-13839289D01*
X8133972Y-13629765D02*
X8086353Y-13772622D01*
X8086353Y-13772622D02*
X8210162Y-13772622D01*
X8276829Y-13639289D02*
X8276829Y-13677384D01*
X8353020Y-13639289D02*
X8353020Y-13677384D01*
X8648258Y-13915479D02*
X8638734Y-13905955D01*
X8638734Y-13905955D02*
X8619686Y-13877384D01*
X8619686Y-13877384D02*
X8610163Y-13858336D01*
X8610163Y-13858336D02*
X8600639Y-13829765D01*
X8600639Y-13829765D02*
X8591115Y-13782146D01*
X8591115Y-13782146D02*
X8591115Y-13744051D01*
X8591115Y-13744051D02*
X8600639Y-13696432D01*
X8600639Y-13696432D02*
X8610163Y-13667860D01*
X8610163Y-13667860D02*
X8619686Y-13648813D01*
X8619686Y-13648813D02*
X8638734Y-13620241D01*
X8638734Y-13620241D02*
X8648258Y-13610717D01*
X8829210Y-13839289D02*
X8714924Y-13839289D01*
X8772067Y-13839289D02*
X8772067Y-13639289D01*
X8772067Y-13639289D02*
X8753020Y-13667860D01*
X8753020Y-13667860D02*
X8733972Y-13686908D01*
X8733972Y-13686908D02*
X8714924Y-13696432D01*
X8905401Y-13658336D02*
X8914924Y-13648813D01*
X8914924Y-13648813D02*
X8933972Y-13639289D01*
X8933972Y-13639289D02*
X8981591Y-13639289D01*
X8981591Y-13639289D02*
X9000639Y-13648813D01*
X9000639Y-13648813D02*
X9010163Y-13658336D01*
X9010163Y-13658336D02*
X9019686Y-13677384D01*
X9019686Y-13677384D02*
X9019686Y-13696432D01*
X9019686Y-13696432D02*
X9010163Y-13725003D01*
X9010163Y-13725003D02*
X8895877Y-13839289D01*
X8895877Y-13839289D02*
X9019686Y-13839289D01*
X9257782Y-13839289D02*
X9257782Y-13639289D01*
X9343496Y-13839289D02*
X9343496Y-13734527D01*
X9343496Y-13734527D02*
X9333972Y-13715479D01*
X9333972Y-13715479D02*
X9314925Y-13705955D01*
X9314925Y-13705955D02*
X9286353Y-13705955D01*
X9286353Y-13705955D02*
X9267305Y-13715479D01*
X9267305Y-13715479D02*
X9257782Y-13725003D01*
X9467305Y-13839289D02*
X9448258Y-13829765D01*
X9448258Y-13829765D02*
X9438734Y-13820241D01*
X9438734Y-13820241D02*
X9429210Y-13801194D01*
X9429210Y-13801194D02*
X9429210Y-13744051D01*
X9429210Y-13744051D02*
X9438734Y-13725003D01*
X9438734Y-13725003D02*
X9448258Y-13715479D01*
X9448258Y-13715479D02*
X9467305Y-13705955D01*
X9467305Y-13705955D02*
X9495877Y-13705955D01*
X9495877Y-13705955D02*
X9514925Y-13715479D01*
X9514925Y-13715479D02*
X9524448Y-13725003D01*
X9524448Y-13725003D02*
X9533972Y-13744051D01*
X9533972Y-13744051D02*
X9533972Y-13801194D01*
X9533972Y-13801194D02*
X9524448Y-13820241D01*
X9524448Y-13820241D02*
X9514925Y-13829765D01*
X9514925Y-13829765D02*
X9495877Y-13839289D01*
X9495877Y-13839289D02*
X9467305Y-13839289D01*
X9648258Y-13839289D02*
X9629210Y-13829765D01*
X9629210Y-13829765D02*
X9619686Y-13810717D01*
X9619686Y-13810717D02*
X9619686Y-13639289D01*
X9800639Y-13829765D02*
X9781591Y-13839289D01*
X9781591Y-13839289D02*
X9743496Y-13839289D01*
X9743496Y-13839289D02*
X9724448Y-13829765D01*
X9724448Y-13829765D02*
X9714925Y-13810717D01*
X9714925Y-13810717D02*
X9714925Y-13734527D01*
X9714925Y-13734527D02*
X9724448Y-13715479D01*
X9724448Y-13715479D02*
X9743496Y-13705955D01*
X9743496Y-13705955D02*
X9781591Y-13705955D01*
X9781591Y-13705955D02*
X9800639Y-13715479D01*
X9800639Y-13715479D02*
X9810163Y-13734527D01*
X9810163Y-13734527D02*
X9810163Y-13753575D01*
X9810163Y-13753575D02*
X9714925Y-13772622D01*
X9886353Y-13829765D02*
X9905401Y-13839289D01*
X9905401Y-13839289D02*
X9943496Y-13839289D01*
X9943496Y-13839289D02*
X9962544Y-13829765D01*
X9962544Y-13829765D02*
X9972067Y-13810717D01*
X9972067Y-13810717D02*
X9972067Y-13801194D01*
X9972067Y-13801194D02*
X9962544Y-13782146D01*
X9962544Y-13782146D02*
X9943496Y-13772622D01*
X9943496Y-13772622D02*
X9914925Y-13772622D01*
X9914925Y-13772622D02*
X9895877Y-13763098D01*
X9895877Y-13763098D02*
X9886353Y-13744051D01*
X9886353Y-13744051D02*
X9886353Y-13734527D01*
X9886353Y-13734527D02*
X9895877Y-13715479D01*
X9895877Y-13715479D02*
X9914925Y-13705955D01*
X9914925Y-13705955D02*
X9943496Y-13705955D01*
X9943496Y-13705955D02*
X9962544Y-13715479D01*
X10038734Y-13915479D02*
X10048258Y-13905955D01*
X10048258Y-13905955D02*
X10067306Y-13877384D01*
X10067306Y-13877384D02*
X10076829Y-13858336D01*
X10076829Y-13858336D02*
X10086353Y-13829765D01*
X10086353Y-13829765D02*
X10095877Y-13782146D01*
X10095877Y-13782146D02*
X10095877Y-13744051D01*
X10095877Y-13744051D02*
X10086353Y-13696432D01*
X10086353Y-13696432D02*
X10076829Y-13667860D01*
X10076829Y-13667860D02*
X10067306Y-13648813D01*
X10067306Y-13648813D02*
X10048258Y-13620241D01*
X10048258Y-13620241D02*
X10038734Y-13610717D01*
D12*
X5058258Y-14047868D02*
X5058258Y-13975742D01*
X4986132Y-13975742D01*
X4986132Y-14047868D01*
X5058258Y-14047868D01*
D11*
X5438734Y-14103289D02*
X5324448Y-14103289D01*
X5381591Y-14103289D02*
X5381591Y-13903289D01*
X5381591Y-13903289D02*
X5362543Y-13931860D01*
X5362543Y-13931860D02*
X5343496Y-13950908D01*
X5343496Y-13950908D02*
X5324448Y-13960432D01*
X5524448Y-14084241D02*
X5533972Y-14093765D01*
X5533972Y-14093765D02*
X5524448Y-14103289D01*
X5524448Y-14103289D02*
X5514924Y-14093765D01*
X5514924Y-14093765D02*
X5524448Y-14084241D01*
X5524448Y-14084241D02*
X5524448Y-14103289D01*
X5657781Y-13903289D02*
X5676829Y-13903289D01*
X5676829Y-13903289D02*
X5695876Y-13912813D01*
X5695876Y-13912813D02*
X5705400Y-13922336D01*
X5705400Y-13922336D02*
X5714924Y-13941384D01*
X5714924Y-13941384D02*
X5724448Y-13979479D01*
X5724448Y-13979479D02*
X5724448Y-14027098D01*
X5724448Y-14027098D02*
X5714924Y-14065194D01*
X5714924Y-14065194D02*
X5705400Y-14084241D01*
X5705400Y-14084241D02*
X5695876Y-14093765D01*
X5695876Y-14093765D02*
X5676829Y-14103289D01*
X5676829Y-14103289D02*
X5657781Y-14103289D01*
X5657781Y-14103289D02*
X5638734Y-14093765D01*
X5638734Y-14093765D02*
X5629210Y-14084241D01*
X5629210Y-14084241D02*
X5619686Y-14065194D01*
X5619686Y-14065194D02*
X5610162Y-14027098D01*
X5610162Y-14027098D02*
X5610162Y-13979479D01*
X5610162Y-13979479D02*
X5619686Y-13941384D01*
X5619686Y-13941384D02*
X5629210Y-13922336D01*
X5629210Y-13922336D02*
X5638734Y-13912813D01*
X5638734Y-13912813D02*
X5657781Y-13903289D01*
X5800638Y-13922336D02*
X5810162Y-13912813D01*
X5810162Y-13912813D02*
X5829210Y-13903289D01*
X5829210Y-13903289D02*
X5876829Y-13903289D01*
X5876829Y-13903289D02*
X5895876Y-13912813D01*
X5895876Y-13912813D02*
X5905400Y-13922336D01*
X5905400Y-13922336D02*
X5914924Y-13941384D01*
X5914924Y-13941384D02*
X5914924Y-13960432D01*
X5914924Y-13960432D02*
X5905400Y-13989003D01*
X5905400Y-13989003D02*
X5791115Y-14103289D01*
X5791115Y-14103289D02*
X5914924Y-14103289D01*
X6038734Y-13903289D02*
X6057781Y-13903289D01*
X6057781Y-13903289D02*
X6076829Y-13912813D01*
X6076829Y-13912813D02*
X6086353Y-13922336D01*
X6086353Y-13922336D02*
X6095876Y-13941384D01*
X6095876Y-13941384D02*
X6105400Y-13979479D01*
X6105400Y-13979479D02*
X6105400Y-14027098D01*
X6105400Y-14027098D02*
X6095876Y-14065194D01*
X6095876Y-14065194D02*
X6086353Y-14084241D01*
X6086353Y-14084241D02*
X6076829Y-14093765D01*
X6076829Y-14093765D02*
X6057781Y-14103289D01*
X6057781Y-14103289D02*
X6038734Y-14103289D01*
X6038734Y-14103289D02*
X6019686Y-14093765D01*
X6019686Y-14093765D02*
X6010162Y-14084241D01*
X6010162Y-14084241D02*
X6000638Y-14065194D01*
X6000638Y-14065194D02*
X5991115Y-14027098D01*
X5991115Y-14027098D02*
X5991115Y-13979479D01*
X5991115Y-13979479D02*
X6000638Y-13941384D01*
X6000638Y-13941384D02*
X6010162Y-13922336D01*
X6010162Y-13922336D02*
X6019686Y-13912813D01*
X6019686Y-13912813D02*
X6038734Y-13903289D01*
X6191115Y-14103289D02*
X6191115Y-13969955D01*
X6191115Y-13989003D02*
X6200638Y-13979479D01*
X6200638Y-13979479D02*
X6219686Y-13969955D01*
X6219686Y-13969955D02*
X6248257Y-13969955D01*
X6248257Y-13969955D02*
X6267305Y-13979479D01*
X6267305Y-13979479D02*
X6276829Y-13998527D01*
X6276829Y-13998527D02*
X6276829Y-14103289D01*
X6276829Y-13998527D02*
X6286353Y-13979479D01*
X6286353Y-13979479D02*
X6305400Y-13969955D01*
X6305400Y-13969955D02*
X6333972Y-13969955D01*
X6333972Y-13969955D02*
X6353019Y-13979479D01*
X6353019Y-13979479D02*
X6362543Y-13998527D01*
X6362543Y-13998527D02*
X6362543Y-14103289D01*
X6457781Y-14103289D02*
X6457781Y-13969955D01*
X6457781Y-13989003D02*
X6467305Y-13979479D01*
X6467305Y-13979479D02*
X6486353Y-13969955D01*
X6486353Y-13969955D02*
X6514924Y-13969955D01*
X6514924Y-13969955D02*
X6533972Y-13979479D01*
X6533972Y-13979479D02*
X6543496Y-13998527D01*
X6543496Y-13998527D02*
X6543496Y-14103289D01*
X6543496Y-13998527D02*
X6553019Y-13979479D01*
X6553019Y-13979479D02*
X6572067Y-13969955D01*
X6572067Y-13969955D02*
X6600638Y-13969955D01*
X6600638Y-13969955D02*
X6619686Y-13979479D01*
X6619686Y-13979479D02*
X6629210Y-13998527D01*
X6629210Y-13998527D02*
X6629210Y-14103289D01*
X7019686Y-13893765D02*
X6848258Y-14150908D01*
X7276829Y-13903289D02*
X7295877Y-13903289D01*
X7295877Y-13903289D02*
X7314924Y-13912813D01*
X7314924Y-13912813D02*
X7324448Y-13922336D01*
X7324448Y-13922336D02*
X7333972Y-13941384D01*
X7333972Y-13941384D02*
X7343496Y-13979479D01*
X7343496Y-13979479D02*
X7343496Y-14027098D01*
X7343496Y-14027098D02*
X7333972Y-14065194D01*
X7333972Y-14065194D02*
X7324448Y-14084241D01*
X7324448Y-14084241D02*
X7314924Y-14093765D01*
X7314924Y-14093765D02*
X7295877Y-14103289D01*
X7295877Y-14103289D02*
X7276829Y-14103289D01*
X7276829Y-14103289D02*
X7257781Y-14093765D01*
X7257781Y-14093765D02*
X7248258Y-14084241D01*
X7248258Y-14084241D02*
X7238734Y-14065194D01*
X7238734Y-14065194D02*
X7229210Y-14027098D01*
X7229210Y-14027098D02*
X7229210Y-13979479D01*
X7229210Y-13979479D02*
X7238734Y-13941384D01*
X7238734Y-13941384D02*
X7248258Y-13922336D01*
X7248258Y-13922336D02*
X7257781Y-13912813D01*
X7257781Y-13912813D02*
X7276829Y-13903289D01*
X7429210Y-14084241D02*
X7438734Y-14093765D01*
X7438734Y-14093765D02*
X7429210Y-14103289D01*
X7429210Y-14103289D02*
X7419686Y-14093765D01*
X7419686Y-14093765D02*
X7429210Y-14084241D01*
X7429210Y-14084241D02*
X7429210Y-14103289D01*
X7562543Y-13903289D02*
X7581591Y-13903289D01*
X7581591Y-13903289D02*
X7600639Y-13912813D01*
X7600639Y-13912813D02*
X7610162Y-13922336D01*
X7610162Y-13922336D02*
X7619686Y-13941384D01*
X7619686Y-13941384D02*
X7629210Y-13979479D01*
X7629210Y-13979479D02*
X7629210Y-14027098D01*
X7629210Y-14027098D02*
X7619686Y-14065194D01*
X7619686Y-14065194D02*
X7610162Y-14084241D01*
X7610162Y-14084241D02*
X7600639Y-14093765D01*
X7600639Y-14093765D02*
X7581591Y-14103289D01*
X7581591Y-14103289D02*
X7562543Y-14103289D01*
X7562543Y-14103289D02*
X7543496Y-14093765D01*
X7543496Y-14093765D02*
X7533972Y-14084241D01*
X7533972Y-14084241D02*
X7524448Y-14065194D01*
X7524448Y-14065194D02*
X7514924Y-14027098D01*
X7514924Y-14027098D02*
X7514924Y-13979479D01*
X7514924Y-13979479D02*
X7524448Y-13941384D01*
X7524448Y-13941384D02*
X7533972Y-13922336D01*
X7533972Y-13922336D02*
X7543496Y-13912813D01*
X7543496Y-13912813D02*
X7562543Y-13903289D01*
X7800639Y-13969955D02*
X7800639Y-14103289D01*
X7753019Y-13893765D02*
X7705400Y-14036622D01*
X7705400Y-14036622D02*
X7829210Y-14036622D01*
X7943496Y-13903289D02*
X7962543Y-13903289D01*
X7962543Y-13903289D02*
X7981591Y-13912813D01*
X7981591Y-13912813D02*
X7991115Y-13922336D01*
X7991115Y-13922336D02*
X8000639Y-13941384D01*
X8000639Y-13941384D02*
X8010162Y-13979479D01*
X8010162Y-13979479D02*
X8010162Y-14027098D01*
X8010162Y-14027098D02*
X8000639Y-14065194D01*
X8000639Y-14065194D02*
X7991115Y-14084241D01*
X7991115Y-14084241D02*
X7981591Y-14093765D01*
X7981591Y-14093765D02*
X7962543Y-14103289D01*
X7962543Y-14103289D02*
X7943496Y-14103289D01*
X7943496Y-14103289D02*
X7924448Y-14093765D01*
X7924448Y-14093765D02*
X7914924Y-14084241D01*
X7914924Y-14084241D02*
X7905400Y-14065194D01*
X7905400Y-14065194D02*
X7895877Y-14027098D01*
X7895877Y-14027098D02*
X7895877Y-13979479D01*
X7895877Y-13979479D02*
X7905400Y-13941384D01*
X7905400Y-13941384D02*
X7914924Y-13922336D01*
X7914924Y-13922336D02*
X7924448Y-13912813D01*
X7924448Y-13912813D02*
X7943496Y-13903289D01*
X8086353Y-13922336D02*
X8095877Y-13912813D01*
X8095877Y-13912813D02*
X8114924Y-13903289D01*
X8114924Y-13903289D02*
X8162543Y-13903289D01*
X8162543Y-13903289D02*
X8181591Y-13912813D01*
X8181591Y-13912813D02*
X8191115Y-13922336D01*
X8191115Y-13922336D02*
X8200639Y-13941384D01*
X8200639Y-13941384D02*
X8200639Y-13960432D01*
X8200639Y-13960432D02*
X8191115Y-13989003D01*
X8191115Y-13989003D02*
X8076829Y-14103289D01*
X8076829Y-14103289D02*
X8200639Y-14103289D01*
X8276829Y-13903289D02*
X8276829Y-13941384D01*
X8353020Y-13903289D02*
X8353020Y-13941384D01*
X8648258Y-14179479D02*
X8638734Y-14169955D01*
X8638734Y-14169955D02*
X8619686Y-14141384D01*
X8619686Y-14141384D02*
X8610163Y-14122336D01*
X8610163Y-14122336D02*
X8600639Y-14093765D01*
X8600639Y-14093765D02*
X8591115Y-14046146D01*
X8591115Y-14046146D02*
X8591115Y-14008051D01*
X8591115Y-14008051D02*
X8600639Y-13960432D01*
X8600639Y-13960432D02*
X8610163Y-13931860D01*
X8610163Y-13931860D02*
X8619686Y-13912813D01*
X8619686Y-13912813D02*
X8638734Y-13884241D01*
X8638734Y-13884241D02*
X8648258Y-13874717D01*
X8810163Y-13903289D02*
X8772067Y-13903289D01*
X8772067Y-13903289D02*
X8753020Y-13912813D01*
X8753020Y-13912813D02*
X8743496Y-13922336D01*
X8743496Y-13922336D02*
X8724448Y-13950908D01*
X8724448Y-13950908D02*
X8714924Y-13989003D01*
X8714924Y-13989003D02*
X8714924Y-14065194D01*
X8714924Y-14065194D02*
X8724448Y-14084241D01*
X8724448Y-14084241D02*
X8733972Y-14093765D01*
X8733972Y-14093765D02*
X8753020Y-14103289D01*
X8753020Y-14103289D02*
X8791115Y-14103289D01*
X8791115Y-14103289D02*
X8810163Y-14093765D01*
X8810163Y-14093765D02*
X8819686Y-14084241D01*
X8819686Y-14084241D02*
X8829210Y-14065194D01*
X8829210Y-14065194D02*
X8829210Y-14017575D01*
X8829210Y-14017575D02*
X8819686Y-13998527D01*
X8819686Y-13998527D02*
X8810163Y-13989003D01*
X8810163Y-13989003D02*
X8791115Y-13979479D01*
X8791115Y-13979479D02*
X8753020Y-13979479D01*
X8753020Y-13979479D02*
X8733972Y-13989003D01*
X8733972Y-13989003D02*
X8724448Y-13998527D01*
X8724448Y-13998527D02*
X8714924Y-14017575D01*
X9067305Y-14103289D02*
X9067305Y-13903289D01*
X9153020Y-14103289D02*
X9153020Y-13998527D01*
X9153020Y-13998527D02*
X9143496Y-13979479D01*
X9143496Y-13979479D02*
X9124448Y-13969955D01*
X9124448Y-13969955D02*
X9095877Y-13969955D01*
X9095877Y-13969955D02*
X9076829Y-13979479D01*
X9076829Y-13979479D02*
X9067305Y-13989003D01*
X9276829Y-14103289D02*
X9257782Y-14093765D01*
X9257782Y-14093765D02*
X9248258Y-14084241D01*
X9248258Y-14084241D02*
X9238734Y-14065194D01*
X9238734Y-14065194D02*
X9238734Y-14008051D01*
X9238734Y-14008051D02*
X9248258Y-13989003D01*
X9248258Y-13989003D02*
X9257782Y-13979479D01*
X9257782Y-13979479D02*
X9276829Y-13969955D01*
X9276829Y-13969955D02*
X9305401Y-13969955D01*
X9305401Y-13969955D02*
X9324448Y-13979479D01*
X9324448Y-13979479D02*
X9333972Y-13989003D01*
X9333972Y-13989003D02*
X9343496Y-14008051D01*
X9343496Y-14008051D02*
X9343496Y-14065194D01*
X9343496Y-14065194D02*
X9333972Y-14084241D01*
X9333972Y-14084241D02*
X9324448Y-14093765D01*
X9324448Y-14093765D02*
X9305401Y-14103289D01*
X9305401Y-14103289D02*
X9276829Y-14103289D01*
X9457782Y-14103289D02*
X9438734Y-14093765D01*
X9438734Y-14093765D02*
X9429210Y-14074717D01*
X9429210Y-14074717D02*
X9429210Y-13903289D01*
X9610163Y-14093765D02*
X9591115Y-14103289D01*
X9591115Y-14103289D02*
X9553020Y-14103289D01*
X9553020Y-14103289D02*
X9533972Y-14093765D01*
X9533972Y-14093765D02*
X9524448Y-14074717D01*
X9524448Y-14074717D02*
X9524448Y-13998527D01*
X9524448Y-13998527D02*
X9533972Y-13979479D01*
X9533972Y-13979479D02*
X9553020Y-13969955D01*
X9553020Y-13969955D02*
X9591115Y-13969955D01*
X9591115Y-13969955D02*
X9610163Y-13979479D01*
X9610163Y-13979479D02*
X9619686Y-13998527D01*
X9619686Y-13998527D02*
X9619686Y-14017575D01*
X9619686Y-14017575D02*
X9524448Y-14036622D01*
X9695877Y-14093765D02*
X9714925Y-14103289D01*
X9714925Y-14103289D02*
X9753020Y-14103289D01*
X9753020Y-14103289D02*
X9772067Y-14093765D01*
X9772067Y-14093765D02*
X9781591Y-14074717D01*
X9781591Y-14074717D02*
X9781591Y-14065194D01*
X9781591Y-14065194D02*
X9772067Y-14046146D01*
X9772067Y-14046146D02*
X9753020Y-14036622D01*
X9753020Y-14036622D02*
X9724448Y-14036622D01*
X9724448Y-14036622D02*
X9705401Y-14027098D01*
X9705401Y-14027098D02*
X9695877Y-14008051D01*
X9695877Y-14008051D02*
X9695877Y-13998527D01*
X9695877Y-13998527D02*
X9705401Y-13979479D01*
X9705401Y-13979479D02*
X9724448Y-13969955D01*
X9724448Y-13969955D02*
X9753020Y-13969955D01*
X9753020Y-13969955D02*
X9772067Y-13979479D01*
X9848258Y-14179479D02*
X9857782Y-14169955D01*
X9857782Y-14169955D02*
X9876829Y-14141384D01*
X9876829Y-14141384D02*
X9886353Y-14122336D01*
X9886353Y-14122336D02*
X9895877Y-14093765D01*
X9895877Y-14093765D02*
X9905401Y-14046146D01*
X9905401Y-14046146D02*
X9905401Y-14008051D01*
X9905401Y-14008051D02*
X9895877Y-13960432D01*
X9895877Y-13960432D02*
X9886353Y-13931860D01*
X9886353Y-13931860D02*
X9876829Y-13912813D01*
X9876829Y-13912813D02*
X9857782Y-13884241D01*
X9857782Y-13884241D02*
X9848258Y-13874717D01*
D13*
X5013195Y-14335805D02*
X5073195Y-14275805D01*
X5013195Y-14215805D01*
X4953195Y-14275805D01*
X5013195Y-14335805D01*
D11*
X5438734Y-14367289D02*
X5324448Y-14367289D01*
X5381591Y-14367289D02*
X5381591Y-14167289D01*
X5381591Y-14167289D02*
X5362543Y-14195860D01*
X5362543Y-14195860D02*
X5343496Y-14214908D01*
X5343496Y-14214908D02*
X5324448Y-14224432D01*
X5524448Y-14348241D02*
X5533972Y-14357765D01*
X5533972Y-14357765D02*
X5524448Y-14367289D01*
X5524448Y-14367289D02*
X5514924Y-14357765D01*
X5514924Y-14357765D02*
X5524448Y-14348241D01*
X5524448Y-14348241D02*
X5524448Y-14367289D01*
X5610162Y-14186336D02*
X5619686Y-14176813D01*
X5619686Y-14176813D02*
X5638734Y-14167289D01*
X5638734Y-14167289D02*
X5686353Y-14167289D01*
X5686353Y-14167289D02*
X5705400Y-14176813D01*
X5705400Y-14176813D02*
X5714924Y-14186336D01*
X5714924Y-14186336D02*
X5724448Y-14205384D01*
X5724448Y-14205384D02*
X5724448Y-14224432D01*
X5724448Y-14224432D02*
X5714924Y-14253003D01*
X5714924Y-14253003D02*
X5600638Y-14367289D01*
X5600638Y-14367289D02*
X5724448Y-14367289D01*
X5848257Y-14167289D02*
X5867305Y-14167289D01*
X5867305Y-14167289D02*
X5886353Y-14176813D01*
X5886353Y-14176813D02*
X5895876Y-14186336D01*
X5895876Y-14186336D02*
X5905400Y-14205384D01*
X5905400Y-14205384D02*
X5914924Y-14243479D01*
X5914924Y-14243479D02*
X5914924Y-14291098D01*
X5914924Y-14291098D02*
X5905400Y-14329194D01*
X5905400Y-14329194D02*
X5895876Y-14348241D01*
X5895876Y-14348241D02*
X5886353Y-14357765D01*
X5886353Y-14357765D02*
X5867305Y-14367289D01*
X5867305Y-14367289D02*
X5848257Y-14367289D01*
X5848257Y-14367289D02*
X5829210Y-14357765D01*
X5829210Y-14357765D02*
X5819686Y-14348241D01*
X5819686Y-14348241D02*
X5810162Y-14329194D01*
X5810162Y-14329194D02*
X5800638Y-14291098D01*
X5800638Y-14291098D02*
X5800638Y-14243479D01*
X5800638Y-14243479D02*
X5810162Y-14205384D01*
X5810162Y-14205384D02*
X5819686Y-14186336D01*
X5819686Y-14186336D02*
X5829210Y-14176813D01*
X5829210Y-14176813D02*
X5848257Y-14167289D01*
X6038734Y-14167289D02*
X6057781Y-14167289D01*
X6057781Y-14167289D02*
X6076829Y-14176813D01*
X6076829Y-14176813D02*
X6086353Y-14186336D01*
X6086353Y-14186336D02*
X6095876Y-14205384D01*
X6095876Y-14205384D02*
X6105400Y-14243479D01*
X6105400Y-14243479D02*
X6105400Y-14291098D01*
X6105400Y-14291098D02*
X6095876Y-14329194D01*
X6095876Y-14329194D02*
X6086353Y-14348241D01*
X6086353Y-14348241D02*
X6076829Y-14357765D01*
X6076829Y-14357765D02*
X6057781Y-14367289D01*
X6057781Y-14367289D02*
X6038734Y-14367289D01*
X6038734Y-14367289D02*
X6019686Y-14357765D01*
X6019686Y-14357765D02*
X6010162Y-14348241D01*
X6010162Y-14348241D02*
X6000638Y-14329194D01*
X6000638Y-14329194D02*
X5991115Y-14291098D01*
X5991115Y-14291098D02*
X5991115Y-14243479D01*
X5991115Y-14243479D02*
X6000638Y-14205384D01*
X6000638Y-14205384D02*
X6010162Y-14186336D01*
X6010162Y-14186336D02*
X6019686Y-14176813D01*
X6019686Y-14176813D02*
X6038734Y-14167289D01*
X6191115Y-14367289D02*
X6191115Y-14233955D01*
X6191115Y-14253003D02*
X6200638Y-14243479D01*
X6200638Y-14243479D02*
X6219686Y-14233955D01*
X6219686Y-14233955D02*
X6248257Y-14233955D01*
X6248257Y-14233955D02*
X6267305Y-14243479D01*
X6267305Y-14243479D02*
X6276829Y-14262527D01*
X6276829Y-14262527D02*
X6276829Y-14367289D01*
X6276829Y-14262527D02*
X6286353Y-14243479D01*
X6286353Y-14243479D02*
X6305400Y-14233955D01*
X6305400Y-14233955D02*
X6333972Y-14233955D01*
X6333972Y-14233955D02*
X6353019Y-14243479D01*
X6353019Y-14243479D02*
X6362543Y-14262527D01*
X6362543Y-14262527D02*
X6362543Y-14367289D01*
X6457781Y-14367289D02*
X6457781Y-14233955D01*
X6457781Y-14253003D02*
X6467305Y-14243479D01*
X6467305Y-14243479D02*
X6486353Y-14233955D01*
X6486353Y-14233955D02*
X6514924Y-14233955D01*
X6514924Y-14233955D02*
X6533972Y-14243479D01*
X6533972Y-14243479D02*
X6543496Y-14262527D01*
X6543496Y-14262527D02*
X6543496Y-14367289D01*
X6543496Y-14262527D02*
X6553019Y-14243479D01*
X6553019Y-14243479D02*
X6572067Y-14233955D01*
X6572067Y-14233955D02*
X6600638Y-14233955D01*
X6600638Y-14233955D02*
X6619686Y-14243479D01*
X6619686Y-14243479D02*
X6629210Y-14262527D01*
X6629210Y-14262527D02*
X6629210Y-14367289D01*
X7019686Y-14157765D02*
X6848258Y-14414908D01*
X7276829Y-14167289D02*
X7295877Y-14167289D01*
X7295877Y-14167289D02*
X7314924Y-14176813D01*
X7314924Y-14176813D02*
X7324448Y-14186336D01*
X7324448Y-14186336D02*
X7333972Y-14205384D01*
X7333972Y-14205384D02*
X7343496Y-14243479D01*
X7343496Y-14243479D02*
X7343496Y-14291098D01*
X7343496Y-14291098D02*
X7333972Y-14329194D01*
X7333972Y-14329194D02*
X7324448Y-14348241D01*
X7324448Y-14348241D02*
X7314924Y-14357765D01*
X7314924Y-14357765D02*
X7295877Y-14367289D01*
X7295877Y-14367289D02*
X7276829Y-14367289D01*
X7276829Y-14367289D02*
X7257781Y-14357765D01*
X7257781Y-14357765D02*
X7248258Y-14348241D01*
X7248258Y-14348241D02*
X7238734Y-14329194D01*
X7238734Y-14329194D02*
X7229210Y-14291098D01*
X7229210Y-14291098D02*
X7229210Y-14243479D01*
X7229210Y-14243479D02*
X7238734Y-14205384D01*
X7238734Y-14205384D02*
X7248258Y-14186336D01*
X7248258Y-14186336D02*
X7257781Y-14176813D01*
X7257781Y-14176813D02*
X7276829Y-14167289D01*
X7429210Y-14348241D02*
X7438734Y-14357765D01*
X7438734Y-14357765D02*
X7429210Y-14367289D01*
X7429210Y-14367289D02*
X7419686Y-14357765D01*
X7419686Y-14357765D02*
X7429210Y-14348241D01*
X7429210Y-14348241D02*
X7429210Y-14367289D01*
X7562543Y-14167289D02*
X7581591Y-14167289D01*
X7581591Y-14167289D02*
X7600639Y-14176813D01*
X7600639Y-14176813D02*
X7610162Y-14186336D01*
X7610162Y-14186336D02*
X7619686Y-14205384D01*
X7619686Y-14205384D02*
X7629210Y-14243479D01*
X7629210Y-14243479D02*
X7629210Y-14291098D01*
X7629210Y-14291098D02*
X7619686Y-14329194D01*
X7619686Y-14329194D02*
X7610162Y-14348241D01*
X7610162Y-14348241D02*
X7600639Y-14357765D01*
X7600639Y-14357765D02*
X7581591Y-14367289D01*
X7581591Y-14367289D02*
X7562543Y-14367289D01*
X7562543Y-14367289D02*
X7543496Y-14357765D01*
X7543496Y-14357765D02*
X7533972Y-14348241D01*
X7533972Y-14348241D02*
X7524448Y-14329194D01*
X7524448Y-14329194D02*
X7514924Y-14291098D01*
X7514924Y-14291098D02*
X7514924Y-14243479D01*
X7514924Y-14243479D02*
X7524448Y-14205384D01*
X7524448Y-14205384D02*
X7533972Y-14186336D01*
X7533972Y-14186336D02*
X7543496Y-14176813D01*
X7543496Y-14176813D02*
X7562543Y-14167289D01*
X7800639Y-14233955D02*
X7800639Y-14367289D01*
X7753019Y-14157765D02*
X7705400Y-14300622D01*
X7705400Y-14300622D02*
X7829210Y-14300622D01*
X7886353Y-14167289D02*
X8019686Y-14167289D01*
X8019686Y-14167289D02*
X7933972Y-14367289D01*
X8086353Y-14186336D02*
X8095877Y-14176813D01*
X8095877Y-14176813D02*
X8114924Y-14167289D01*
X8114924Y-14167289D02*
X8162543Y-14167289D01*
X8162543Y-14167289D02*
X8181591Y-14176813D01*
X8181591Y-14176813D02*
X8191115Y-14186336D01*
X8191115Y-14186336D02*
X8200639Y-14205384D01*
X8200639Y-14205384D02*
X8200639Y-14224432D01*
X8200639Y-14224432D02*
X8191115Y-14253003D01*
X8191115Y-14253003D02*
X8076829Y-14367289D01*
X8076829Y-14367289D02*
X8200639Y-14367289D01*
X8276829Y-14167289D02*
X8276829Y-14205384D01*
X8353020Y-14167289D02*
X8353020Y-14205384D01*
X8648258Y-14443479D02*
X8638734Y-14433955D01*
X8638734Y-14433955D02*
X8619686Y-14405384D01*
X8619686Y-14405384D02*
X8610163Y-14386336D01*
X8610163Y-14386336D02*
X8600639Y-14357765D01*
X8600639Y-14357765D02*
X8591115Y-14310146D01*
X8591115Y-14310146D02*
X8591115Y-14272051D01*
X8591115Y-14272051D02*
X8600639Y-14224432D01*
X8600639Y-14224432D02*
X8610163Y-14195860D01*
X8610163Y-14195860D02*
X8619686Y-14176813D01*
X8619686Y-14176813D02*
X8638734Y-14148241D01*
X8638734Y-14148241D02*
X8648258Y-14138717D01*
X8810163Y-14233955D02*
X8810163Y-14367289D01*
X8762543Y-14157765D02*
X8714924Y-14300622D01*
X8714924Y-14300622D02*
X8838734Y-14300622D01*
X9067305Y-14367289D02*
X9067305Y-14167289D01*
X9153020Y-14367289D02*
X9153020Y-14262527D01*
X9153020Y-14262527D02*
X9143496Y-14243479D01*
X9143496Y-14243479D02*
X9124448Y-14233955D01*
X9124448Y-14233955D02*
X9095877Y-14233955D01*
X9095877Y-14233955D02*
X9076829Y-14243479D01*
X9076829Y-14243479D02*
X9067305Y-14253003D01*
X9276829Y-14367289D02*
X9257782Y-14357765D01*
X9257782Y-14357765D02*
X9248258Y-14348241D01*
X9248258Y-14348241D02*
X9238734Y-14329194D01*
X9238734Y-14329194D02*
X9238734Y-14272051D01*
X9238734Y-14272051D02*
X9248258Y-14253003D01*
X9248258Y-14253003D02*
X9257782Y-14243479D01*
X9257782Y-14243479D02*
X9276829Y-14233955D01*
X9276829Y-14233955D02*
X9305401Y-14233955D01*
X9305401Y-14233955D02*
X9324448Y-14243479D01*
X9324448Y-14243479D02*
X9333972Y-14253003D01*
X9333972Y-14253003D02*
X9343496Y-14272051D01*
X9343496Y-14272051D02*
X9343496Y-14329194D01*
X9343496Y-14329194D02*
X9333972Y-14348241D01*
X9333972Y-14348241D02*
X9324448Y-14357765D01*
X9324448Y-14357765D02*
X9305401Y-14367289D01*
X9305401Y-14367289D02*
X9276829Y-14367289D01*
X9457782Y-14367289D02*
X9438734Y-14357765D01*
X9438734Y-14357765D02*
X9429210Y-14338717D01*
X9429210Y-14338717D02*
X9429210Y-14167289D01*
X9610163Y-14357765D02*
X9591115Y-14367289D01*
X9591115Y-14367289D02*
X9553020Y-14367289D01*
X9553020Y-14367289D02*
X9533972Y-14357765D01*
X9533972Y-14357765D02*
X9524448Y-14338717D01*
X9524448Y-14338717D02*
X9524448Y-14262527D01*
X9524448Y-14262527D02*
X9533972Y-14243479D01*
X9533972Y-14243479D02*
X9553020Y-14233955D01*
X9553020Y-14233955D02*
X9591115Y-14233955D01*
X9591115Y-14233955D02*
X9610163Y-14243479D01*
X9610163Y-14243479D02*
X9619686Y-14262527D01*
X9619686Y-14262527D02*
X9619686Y-14281575D01*
X9619686Y-14281575D02*
X9524448Y-14300622D01*
X9695877Y-14357765D02*
X9714925Y-14367289D01*
X9714925Y-14367289D02*
X9753020Y-14367289D01*
X9753020Y-14367289D02*
X9772067Y-14357765D01*
X9772067Y-14357765D02*
X9781591Y-14338717D01*
X9781591Y-14338717D02*
X9781591Y-14329194D01*
X9781591Y-14329194D02*
X9772067Y-14310146D01*
X9772067Y-14310146D02*
X9753020Y-14300622D01*
X9753020Y-14300622D02*
X9724448Y-14300622D01*
X9724448Y-14300622D02*
X9705401Y-14291098D01*
X9705401Y-14291098D02*
X9695877Y-14272051D01*
X9695877Y-14272051D02*
X9695877Y-14262527D01*
X9695877Y-14262527D02*
X9705401Y-14243479D01*
X9705401Y-14243479D02*
X9724448Y-14233955D01*
X9724448Y-14233955D02*
X9753020Y-14233955D01*
X9753020Y-14233955D02*
X9772067Y-14243479D01*
X9848258Y-14443479D02*
X9857782Y-14433955D01*
X9857782Y-14433955D02*
X9876829Y-14405384D01*
X9876829Y-14405384D02*
X9886353Y-14386336D01*
X9886353Y-14386336D02*
X9895877Y-14357765D01*
X9895877Y-14357765D02*
X9905401Y-14310146D01*
X9905401Y-14310146D02*
X9905401Y-14272051D01*
X9905401Y-14272051D02*
X9895877Y-14224432D01*
X9895877Y-14224432D02*
X9886353Y-14195860D01*
X9886353Y-14195860D02*
X9876829Y-14176813D01*
X9876829Y-14176813D02*
X9857782Y-14148241D01*
X9857782Y-14148241D02*
X9848258Y-14138717D01*
M02*
