M48
; DRILL file {KiCad 7.0.10} date Tue Feb 18 11:07:12 2025
; FORMAT={-:-/ absolute / inch / decimal}
; #@! TF.CreationDate,2025-02-18T11:07:12-08:00
; #@! TF.GenerationSoftware,Kicad,Pcbnew,7.0.10
; #@! TF.FileFunction,Plated,1,4,PTH
FMAT,2
INCH
; #@! TA.AperFunction,Plated,PTH,ViaDrill
T1C0.0118
; #@! TA.AperFunction,Plated,PTH,ComponentDrill
T2C0.0280
; #@! TA.AperFunction,Plated,PTH,ComponentDrill
T3C0.0394
; #@! TA.AperFunction,Plated,PTH,ComponentDrill
T4C0.0402
; #@! TA.AperFunction,Plated,PTH,ComponentDrill
T5C0.0472
%
G90
G05
T1
X2.1243Y-4.0257
X2.1493Y-4.0007
X2.1993Y-3.7257
X2.2017Y-4.2757
X2.2017Y-4.3144
X2.2993Y-3.7757
X2.2993Y-3.8257
X2.2993Y-3.8757
X2.2993Y-3.9257
X2.2993Y-3.9757
X2.2993Y-4.1257
X2.2993Y-4.1757
X2.2993Y-4.2257
X2.3493Y-3.7757
X2.3493Y-3.8257
X2.3493Y-3.8757
X2.3493Y-3.9257
X2.3493Y-3.9757
X2.3493Y-4.0257
X2.3493Y-4.0757
X2.3493Y-4.1257
X2.3493Y-4.1757
X2.3493Y-4.2257
X2.3993Y-3.8757
X2.3993Y-3.9257
X2.3993Y-3.9757
X2.3993Y-4.0257
X2.3993Y-4.0757
X2.3993Y-4.1257
X2.3993Y-4.1757
X2.3993Y-4.2257
X2.5743Y-3.9757
X2.575Y-3.8
X2.5993Y-4.2257
X2.6493Y-4.0507
X2.6993Y-3.9257
X2.6993Y-4.0257
X2.7493Y-3.9507
X2.7493Y-4.0007
X2.7993Y-3.9757
X3.1585Y-3.2431
X3.1743Y-3.3757
X3.175Y-3.525
X3.175Y-3.575
X3.175Y-3.625
X3.2243Y-3.4757
X3.2243Y-3.5257
X3.2243Y-3.7507
X3.2743Y-3.3007
X3.2743Y-3.5257
X3.2993Y-3.2507
X3.3243Y-3.3007
X3.3243Y-3.5257
X3.3243Y-3.5757
X3.3743Y-3.5257
X3.3743Y-3.5757
X3.3743Y-4.0507
X3.3993Y-4.0257
X3.4243Y-3.4757
X3.4243Y-3.5257
X3.4243Y-3.5757
X3.4243Y-4.0007
X3.425Y-3.325
X3.4743Y-3.4757
X3.4743Y-3.5257
X3.4743Y-3.5757
X3.4743Y-3.9757
X3.475Y-3.75
X3.4993Y-3.9507
X3.4993Y-4.0757
X3.5243Y-3.4757
X3.5243Y-3.5257
X3.5243Y-3.5757
X3.5743Y-3.4757
X3.5743Y-3.5257
X3.5743Y-3.5757
X3.6243Y-3.5257
X3.6493Y-3.7507
X3.6743Y-3.2956
X3.6743Y-3.5257
X3.7243Y-3.3507
X3.725Y-3.475
X3.725Y-3.525
X3.725Y-3.575
X3.725Y-3.625
X3.8493Y-4.0257
X3.9493Y-3.8257
X3.9743Y-3.3257
X3.9743Y-3.7007
X3.9993Y-3.8257
X4.0Y-3.25
X4.0Y-4.825
X4.0243Y-3.4007
X4.0243Y-3.5507
X4.0243Y-3.7007
X4.025Y-4.35
X4.0743Y-3.7007
X4.0743Y-3.8007
X4.0743Y-4.2257
X4.1493Y-3.8757
X4.15Y-3.25
X4.1743Y-3.9257
X4.1993Y-3.8757
X4.2493Y-3.6257
X4.2743Y-3.3757
X4.2743Y-3.4757
X4.2993Y-3.5007
X4.3243Y-3.3757
X4.3243Y-4.0757
X4.3243Y-4.2007
X4.3243Y-4.2507
X4.3743Y-3.3757
X4.3743Y-4.0757
X4.3743Y-4.2507
X4.3993Y-3.7257
X4.4029Y-3.4793
X4.4243Y-4.0757
X4.4493Y-3.3757
X4.4493Y-3.4507
X4.4743Y-3.7007
X4.4993Y-3.4257
X4.4993Y-3.7507
X4.4993Y-4.5007
X4.4993Y-4.6007
X4.4993Y-4.7007
X4.4993Y-4.8007
X4.5243Y-3.6757
X4.5243Y-3.9007
X4.5243Y-3.9507
X4.5243Y-4.1257
X4.5243Y-4.1757
X4.5243Y-4.2257
X4.5243Y-4.2757
X4.5243Y-4.3257
X4.5493Y-3.3507
X4.5493Y-3.4007
X4.5493Y-3.6257
X4.5743Y-3.5007
X4.5743Y-3.7257
X4.5743Y-3.8757
X4.5743Y-4.0507
X4.575Y-4.325
X4.625Y-4.3
X4.6493Y-4.0507
X4.65Y-3.95
X4.6743Y-3.2507
X4.6743Y-3.8257
X4.6993Y-3.3007
X4.6993Y-4.5007
X4.7243Y-4.0507
X4.7493Y-3.8007
X4.7493Y-3.8507
X4.7743Y-4.1507
X4.8Y-4.8
X4.8Y-4.85
X4.8243Y-3.5757
X4.8243Y-4.1507
X4.8243Y-4.2007
X4.8243Y-4.2507
X4.8243Y-4.3007
X4.85Y-3.925
X4.85Y-3.975
X4.85Y-4.45
X4.85Y-4.8
X4.85Y-4.85
X4.875Y-3.25
X4.8993Y-3.5757
X4.9Y-3.525
X4.9Y-3.925
X4.9Y-3.975
X4.9Y-4.4
X4.9Y-4.45
X4.9Y-4.8
X4.9Y-4.85
X4.95Y-3.35
X4.95Y-3.4
X4.95Y-3.525
X4.95Y-3.925
X4.95Y-3.975
X4.95Y-4.35
X4.95Y-4.4
X4.95Y-4.45
X4.95Y-4.5
X4.95Y-4.55
X4.95Y-4.8
X4.95Y-4.85
T2
X3.9243Y-3.9757
X3.9243Y-4.0257
X3.9243Y-4.0757
X3.9243Y-4.1257
X3.9243Y-4.1757
X3.9743Y-3.9757
X3.9743Y-4.0257
X3.9743Y-4.0757
X3.9743Y-4.1257
X3.9743Y-4.1757
T3
X2.7963Y-3.8347
X2.7963Y-4.1347
X2.8963Y-3.8347
X2.8963Y-4.1347
X3.1963Y-3.8347
X3.1963Y-4.1347
X3.2963Y-3.8347
X3.2963Y-4.1347
X3.5963Y-3.8347
X3.5963Y-4.1347
X3.6963Y-3.8347
X3.6963Y-4.1347
T4
X3.2993Y-4.4819
X3.2993Y-4.6
X4.2069Y-4.4819
X4.2069Y-4.6
X4.325Y-4.4819
X4.325Y-4.6
T5
X2.9154Y-3.3731
X2.9154Y-3.5699
X2.9252Y-4.4922
X2.9252Y-4.689
M30
