%TF.GenerationSoftware,KiCad,Pcbnew,7.0.10*%
%TF.CreationDate,2025-02-18T11:07:13-08:00*%
%TF.ProjectId,flow-controller,666c6f77-2d63-46f6-9e74-726f6c6c6572,rev?*%
%TF.SameCoordinates,Original*%
%TF.FileFunction,Drillmap*%
%TF.FilePolarity,Positive*%
%FSLAX45Y45*%
G04 Gerber Fmt 4.5, Leading zero omitted, Abs format (unit mm)*
G04 Created by KiCad (PCBNEW 7.0.10) date 2025-02-18 11:07:13*
%MOMM*%
%LPD*%
G01*
G04 APERTURE LIST*
%ADD10C,0.100000*%
%ADD11C,0.200000*%
%ADD12C,0.299999*%
G04 APERTURE END LIST*
D10*
X5078195Y-12320805D02*
X5078195Y-8383805D01*
X5332195Y-8129805D02*
G75*
G03*
X5078195Y-8383805I0J-254000D01*
G01*
X10155655Y-11571505D02*
G75*
G03*
X9825455Y-11571505I-165100J0D01*
G01*
X9825455Y-11571505D02*
G75*
G03*
X10155655Y-11571505I165100J0D01*
G01*
X12698195Y-8383805D02*
G75*
G03*
X12444195Y-8129805I-254005J-5D01*
G01*
X12444195Y-12574805D02*
X5332195Y-12574805D01*
X6345655Y-9031505D02*
G75*
G03*
X6015455Y-9031505I-165100J0D01*
G01*
X6015455Y-9031505D02*
G75*
G03*
X6345655Y-9031505I165100J0D01*
G01*
X12444195Y-12574815D02*
G75*
G03*
X12698195Y-12320805I-5J254005D01*
G01*
X6345655Y-11571505D02*
G75*
G03*
X6015455Y-11571505I-165100J0D01*
G01*
X6015455Y-11571505D02*
G75*
G03*
X6345655Y-11571505I165100J0D01*
G01*
X5078195Y-12320805D02*
G75*
G03*
X5332195Y-12574805I253995J-5D01*
G01*
X12698195Y-8383805D02*
X12698195Y-12320805D01*
X5332195Y-8129805D02*
X12444195Y-8129805D01*
D11*
D12*
X8230195Y-11966000D02*
X8530195Y-12266000D01*
X8530195Y-11966000D02*
X8230195Y-12266000D01*
X10685500Y-11966000D02*
X10985500Y-12266000D01*
X10985500Y-11966000D02*
X10685500Y-12266000D01*
D11*
X5333972Y-12891289D02*
X5333972Y-12691289D01*
X5333972Y-12691289D02*
X5381591Y-12691289D01*
X5381591Y-12691289D02*
X5410162Y-12700813D01*
X5410162Y-12700813D02*
X5429210Y-12719860D01*
X5429210Y-12719860D02*
X5438734Y-12738908D01*
X5438734Y-12738908D02*
X5448257Y-12777003D01*
X5448257Y-12777003D02*
X5448257Y-12805575D01*
X5448257Y-12805575D02*
X5438734Y-12843670D01*
X5438734Y-12843670D02*
X5429210Y-12862717D01*
X5429210Y-12862717D02*
X5410162Y-12881765D01*
X5410162Y-12881765D02*
X5381591Y-12891289D01*
X5381591Y-12891289D02*
X5333972Y-12891289D01*
X5533972Y-12891289D02*
X5533972Y-12757955D01*
X5533972Y-12796051D02*
X5543496Y-12777003D01*
X5543496Y-12777003D02*
X5553019Y-12767479D01*
X5553019Y-12767479D02*
X5572067Y-12757955D01*
X5572067Y-12757955D02*
X5591115Y-12757955D01*
X5657781Y-12891289D02*
X5657781Y-12757955D01*
X5657781Y-12691289D02*
X5648257Y-12700813D01*
X5648257Y-12700813D02*
X5657781Y-12710336D01*
X5657781Y-12710336D02*
X5667305Y-12700813D01*
X5667305Y-12700813D02*
X5657781Y-12691289D01*
X5657781Y-12691289D02*
X5657781Y-12710336D01*
X5781591Y-12891289D02*
X5762543Y-12881765D01*
X5762543Y-12881765D02*
X5753019Y-12862717D01*
X5753019Y-12862717D02*
X5753019Y-12691289D01*
X5886353Y-12891289D02*
X5867305Y-12881765D01*
X5867305Y-12881765D02*
X5857781Y-12862717D01*
X5857781Y-12862717D02*
X5857781Y-12691289D01*
X6114924Y-12891289D02*
X6114924Y-12691289D01*
X6114924Y-12691289D02*
X6181591Y-12834146D01*
X6181591Y-12834146D02*
X6248257Y-12691289D01*
X6248257Y-12691289D02*
X6248257Y-12891289D01*
X6429210Y-12891289D02*
X6429210Y-12786527D01*
X6429210Y-12786527D02*
X6419686Y-12767479D01*
X6419686Y-12767479D02*
X6400638Y-12757955D01*
X6400638Y-12757955D02*
X6362543Y-12757955D01*
X6362543Y-12757955D02*
X6343495Y-12767479D01*
X6429210Y-12881765D02*
X6410162Y-12891289D01*
X6410162Y-12891289D02*
X6362543Y-12891289D01*
X6362543Y-12891289D02*
X6343495Y-12881765D01*
X6343495Y-12881765D02*
X6333972Y-12862717D01*
X6333972Y-12862717D02*
X6333972Y-12843670D01*
X6333972Y-12843670D02*
X6343495Y-12824622D01*
X6343495Y-12824622D02*
X6362543Y-12815098D01*
X6362543Y-12815098D02*
X6410162Y-12815098D01*
X6410162Y-12815098D02*
X6429210Y-12805575D01*
X6524448Y-12757955D02*
X6524448Y-12957955D01*
X6524448Y-12767479D02*
X6543495Y-12757955D01*
X6543495Y-12757955D02*
X6581591Y-12757955D01*
X6581591Y-12757955D02*
X6600638Y-12767479D01*
X6600638Y-12767479D02*
X6610162Y-12777003D01*
X6610162Y-12777003D02*
X6619686Y-12796051D01*
X6619686Y-12796051D02*
X6619686Y-12853194D01*
X6619686Y-12853194D02*
X6610162Y-12872241D01*
X6610162Y-12872241D02*
X6600638Y-12881765D01*
X6600638Y-12881765D02*
X6581591Y-12891289D01*
X6581591Y-12891289D02*
X6543495Y-12891289D01*
X6543495Y-12891289D02*
X6524448Y-12881765D01*
X6705400Y-12872241D02*
X6714924Y-12881765D01*
X6714924Y-12881765D02*
X6705400Y-12891289D01*
X6705400Y-12891289D02*
X6695876Y-12881765D01*
X6695876Y-12881765D02*
X6705400Y-12872241D01*
X6705400Y-12872241D02*
X6705400Y-12891289D01*
X6705400Y-12767479D02*
X6714924Y-12777003D01*
X6714924Y-12777003D02*
X6705400Y-12786527D01*
X6705400Y-12786527D02*
X6695876Y-12777003D01*
X6695876Y-12777003D02*
X6705400Y-12767479D01*
X6705400Y-12767479D02*
X6705400Y-12786527D01*
X4873195Y-13119805D02*
X5073195Y-13319805D01*
X5073195Y-13119805D02*
X4873195Y-13319805D01*
X5314924Y-13111289D02*
X5438734Y-13111289D01*
X5438734Y-13111289D02*
X5372067Y-13187479D01*
X5372067Y-13187479D02*
X5400638Y-13187479D01*
X5400638Y-13187479D02*
X5419686Y-13197003D01*
X5419686Y-13197003D02*
X5429210Y-13206527D01*
X5429210Y-13206527D02*
X5438734Y-13225575D01*
X5438734Y-13225575D02*
X5438734Y-13273194D01*
X5438734Y-13273194D02*
X5429210Y-13292241D01*
X5429210Y-13292241D02*
X5419686Y-13301765D01*
X5419686Y-13301765D02*
X5400638Y-13311289D01*
X5400638Y-13311289D02*
X5343496Y-13311289D01*
X5343496Y-13311289D02*
X5324448Y-13301765D01*
X5324448Y-13301765D02*
X5314924Y-13292241D01*
X5524448Y-13292241D02*
X5533972Y-13301765D01*
X5533972Y-13301765D02*
X5524448Y-13311289D01*
X5524448Y-13311289D02*
X5514924Y-13301765D01*
X5514924Y-13301765D02*
X5524448Y-13292241D01*
X5524448Y-13292241D02*
X5524448Y-13311289D01*
X5657781Y-13111289D02*
X5676829Y-13111289D01*
X5676829Y-13111289D02*
X5695876Y-13120813D01*
X5695876Y-13120813D02*
X5705400Y-13130336D01*
X5705400Y-13130336D02*
X5714924Y-13149384D01*
X5714924Y-13149384D02*
X5724448Y-13187479D01*
X5724448Y-13187479D02*
X5724448Y-13235098D01*
X5724448Y-13235098D02*
X5714924Y-13273194D01*
X5714924Y-13273194D02*
X5705400Y-13292241D01*
X5705400Y-13292241D02*
X5695876Y-13301765D01*
X5695876Y-13301765D02*
X5676829Y-13311289D01*
X5676829Y-13311289D02*
X5657781Y-13311289D01*
X5657781Y-13311289D02*
X5638734Y-13301765D01*
X5638734Y-13301765D02*
X5629210Y-13292241D01*
X5629210Y-13292241D02*
X5619686Y-13273194D01*
X5619686Y-13273194D02*
X5610162Y-13235098D01*
X5610162Y-13235098D02*
X5610162Y-13187479D01*
X5610162Y-13187479D02*
X5619686Y-13149384D01*
X5619686Y-13149384D02*
X5629210Y-13130336D01*
X5629210Y-13130336D02*
X5638734Y-13120813D01*
X5638734Y-13120813D02*
X5657781Y-13111289D01*
X5848257Y-13111289D02*
X5867305Y-13111289D01*
X5867305Y-13111289D02*
X5886353Y-13120813D01*
X5886353Y-13120813D02*
X5895876Y-13130336D01*
X5895876Y-13130336D02*
X5905400Y-13149384D01*
X5905400Y-13149384D02*
X5914924Y-13187479D01*
X5914924Y-13187479D02*
X5914924Y-13235098D01*
X5914924Y-13235098D02*
X5905400Y-13273194D01*
X5905400Y-13273194D02*
X5895876Y-13292241D01*
X5895876Y-13292241D02*
X5886353Y-13301765D01*
X5886353Y-13301765D02*
X5867305Y-13311289D01*
X5867305Y-13311289D02*
X5848257Y-13311289D01*
X5848257Y-13311289D02*
X5829210Y-13301765D01*
X5829210Y-13301765D02*
X5819686Y-13292241D01*
X5819686Y-13292241D02*
X5810162Y-13273194D01*
X5810162Y-13273194D02*
X5800638Y-13235098D01*
X5800638Y-13235098D02*
X5800638Y-13187479D01*
X5800638Y-13187479D02*
X5810162Y-13149384D01*
X5810162Y-13149384D02*
X5819686Y-13130336D01*
X5819686Y-13130336D02*
X5829210Y-13120813D01*
X5829210Y-13120813D02*
X5848257Y-13111289D01*
X6038734Y-13111289D02*
X6057781Y-13111289D01*
X6057781Y-13111289D02*
X6076829Y-13120813D01*
X6076829Y-13120813D02*
X6086353Y-13130336D01*
X6086353Y-13130336D02*
X6095876Y-13149384D01*
X6095876Y-13149384D02*
X6105400Y-13187479D01*
X6105400Y-13187479D02*
X6105400Y-13235098D01*
X6105400Y-13235098D02*
X6095876Y-13273194D01*
X6095876Y-13273194D02*
X6086353Y-13292241D01*
X6086353Y-13292241D02*
X6076829Y-13301765D01*
X6076829Y-13301765D02*
X6057781Y-13311289D01*
X6057781Y-13311289D02*
X6038734Y-13311289D01*
X6038734Y-13311289D02*
X6019686Y-13301765D01*
X6019686Y-13301765D02*
X6010162Y-13292241D01*
X6010162Y-13292241D02*
X6000638Y-13273194D01*
X6000638Y-13273194D02*
X5991115Y-13235098D01*
X5991115Y-13235098D02*
X5991115Y-13187479D01*
X5991115Y-13187479D02*
X6000638Y-13149384D01*
X6000638Y-13149384D02*
X6010162Y-13130336D01*
X6010162Y-13130336D02*
X6019686Y-13120813D01*
X6019686Y-13120813D02*
X6038734Y-13111289D01*
X6191115Y-13311289D02*
X6191115Y-13177955D01*
X6191115Y-13197003D02*
X6200638Y-13187479D01*
X6200638Y-13187479D02*
X6219686Y-13177955D01*
X6219686Y-13177955D02*
X6248257Y-13177955D01*
X6248257Y-13177955D02*
X6267305Y-13187479D01*
X6267305Y-13187479D02*
X6276829Y-13206527D01*
X6276829Y-13206527D02*
X6276829Y-13311289D01*
X6276829Y-13206527D02*
X6286353Y-13187479D01*
X6286353Y-13187479D02*
X6305400Y-13177955D01*
X6305400Y-13177955D02*
X6333972Y-13177955D01*
X6333972Y-13177955D02*
X6353019Y-13187479D01*
X6353019Y-13187479D02*
X6362543Y-13206527D01*
X6362543Y-13206527D02*
X6362543Y-13311289D01*
X6457781Y-13311289D02*
X6457781Y-13177955D01*
X6457781Y-13197003D02*
X6467305Y-13187479D01*
X6467305Y-13187479D02*
X6486353Y-13177955D01*
X6486353Y-13177955D02*
X6514924Y-13177955D01*
X6514924Y-13177955D02*
X6533972Y-13187479D01*
X6533972Y-13187479D02*
X6543496Y-13206527D01*
X6543496Y-13206527D02*
X6543496Y-13311289D01*
X6543496Y-13206527D02*
X6553019Y-13187479D01*
X6553019Y-13187479D02*
X6572067Y-13177955D01*
X6572067Y-13177955D02*
X6600638Y-13177955D01*
X6600638Y-13177955D02*
X6619686Y-13187479D01*
X6619686Y-13187479D02*
X6629210Y-13206527D01*
X6629210Y-13206527D02*
X6629210Y-13311289D01*
X7019686Y-13101765D02*
X6848258Y-13358908D01*
X7276829Y-13111289D02*
X7295877Y-13111289D01*
X7295877Y-13111289D02*
X7314924Y-13120813D01*
X7314924Y-13120813D02*
X7324448Y-13130336D01*
X7324448Y-13130336D02*
X7333972Y-13149384D01*
X7333972Y-13149384D02*
X7343496Y-13187479D01*
X7343496Y-13187479D02*
X7343496Y-13235098D01*
X7343496Y-13235098D02*
X7333972Y-13273194D01*
X7333972Y-13273194D02*
X7324448Y-13292241D01*
X7324448Y-13292241D02*
X7314924Y-13301765D01*
X7314924Y-13301765D02*
X7295877Y-13311289D01*
X7295877Y-13311289D02*
X7276829Y-13311289D01*
X7276829Y-13311289D02*
X7257781Y-13301765D01*
X7257781Y-13301765D02*
X7248258Y-13292241D01*
X7248258Y-13292241D02*
X7238734Y-13273194D01*
X7238734Y-13273194D02*
X7229210Y-13235098D01*
X7229210Y-13235098D02*
X7229210Y-13187479D01*
X7229210Y-13187479D02*
X7238734Y-13149384D01*
X7238734Y-13149384D02*
X7248258Y-13130336D01*
X7248258Y-13130336D02*
X7257781Y-13120813D01*
X7257781Y-13120813D02*
X7276829Y-13111289D01*
X7429210Y-13292241D02*
X7438734Y-13301765D01*
X7438734Y-13301765D02*
X7429210Y-13311289D01*
X7429210Y-13311289D02*
X7419686Y-13301765D01*
X7419686Y-13301765D02*
X7429210Y-13292241D01*
X7429210Y-13292241D02*
X7429210Y-13311289D01*
X7629210Y-13311289D02*
X7514924Y-13311289D01*
X7572067Y-13311289D02*
X7572067Y-13111289D01*
X7572067Y-13111289D02*
X7553019Y-13139860D01*
X7553019Y-13139860D02*
X7533972Y-13158908D01*
X7533972Y-13158908D02*
X7514924Y-13168432D01*
X7819686Y-13311289D02*
X7705400Y-13311289D01*
X7762543Y-13311289D02*
X7762543Y-13111289D01*
X7762543Y-13111289D02*
X7743496Y-13139860D01*
X7743496Y-13139860D02*
X7724448Y-13158908D01*
X7724448Y-13158908D02*
X7705400Y-13168432D01*
X7933972Y-13197003D02*
X7914924Y-13187479D01*
X7914924Y-13187479D02*
X7905400Y-13177955D01*
X7905400Y-13177955D02*
X7895877Y-13158908D01*
X7895877Y-13158908D02*
X7895877Y-13149384D01*
X7895877Y-13149384D02*
X7905400Y-13130336D01*
X7905400Y-13130336D02*
X7914924Y-13120813D01*
X7914924Y-13120813D02*
X7933972Y-13111289D01*
X7933972Y-13111289D02*
X7972067Y-13111289D01*
X7972067Y-13111289D02*
X7991115Y-13120813D01*
X7991115Y-13120813D02*
X8000639Y-13130336D01*
X8000639Y-13130336D02*
X8010162Y-13149384D01*
X8010162Y-13149384D02*
X8010162Y-13158908D01*
X8010162Y-13158908D02*
X8000639Y-13177955D01*
X8000639Y-13177955D02*
X7991115Y-13187479D01*
X7991115Y-13187479D02*
X7972067Y-13197003D01*
X7972067Y-13197003D02*
X7933972Y-13197003D01*
X7933972Y-13197003D02*
X7914924Y-13206527D01*
X7914924Y-13206527D02*
X7905400Y-13216051D01*
X7905400Y-13216051D02*
X7895877Y-13235098D01*
X7895877Y-13235098D02*
X7895877Y-13273194D01*
X7895877Y-13273194D02*
X7905400Y-13292241D01*
X7905400Y-13292241D02*
X7914924Y-13301765D01*
X7914924Y-13301765D02*
X7933972Y-13311289D01*
X7933972Y-13311289D02*
X7972067Y-13311289D01*
X7972067Y-13311289D02*
X7991115Y-13301765D01*
X7991115Y-13301765D02*
X8000639Y-13292241D01*
X8000639Y-13292241D02*
X8010162Y-13273194D01*
X8010162Y-13273194D02*
X8010162Y-13235098D01*
X8010162Y-13235098D02*
X8000639Y-13216051D01*
X8000639Y-13216051D02*
X7991115Y-13206527D01*
X7991115Y-13206527D02*
X7972067Y-13197003D01*
X8200639Y-13311289D02*
X8086353Y-13311289D01*
X8143496Y-13311289D02*
X8143496Y-13111289D01*
X8143496Y-13111289D02*
X8124448Y-13139860D01*
X8124448Y-13139860D02*
X8105400Y-13158908D01*
X8105400Y-13158908D02*
X8086353Y-13168432D01*
X8276829Y-13111289D02*
X8276829Y-13149384D01*
X8353020Y-13111289D02*
X8353020Y-13149384D01*
X8648258Y-13387479D02*
X8638734Y-13377955D01*
X8638734Y-13377955D02*
X8619686Y-13349384D01*
X8619686Y-13349384D02*
X8610163Y-13330336D01*
X8610163Y-13330336D02*
X8600639Y-13301765D01*
X8600639Y-13301765D02*
X8591115Y-13254146D01*
X8591115Y-13254146D02*
X8591115Y-13216051D01*
X8591115Y-13216051D02*
X8600639Y-13168432D01*
X8600639Y-13168432D02*
X8610163Y-13139860D01*
X8610163Y-13139860D02*
X8619686Y-13120813D01*
X8619686Y-13120813D02*
X8638734Y-13092241D01*
X8638734Y-13092241D02*
X8648258Y-13082717D01*
X8714924Y-13130336D02*
X8724448Y-13120813D01*
X8724448Y-13120813D02*
X8743496Y-13111289D01*
X8743496Y-13111289D02*
X8791115Y-13111289D01*
X8791115Y-13111289D02*
X8810163Y-13120813D01*
X8810163Y-13120813D02*
X8819686Y-13130336D01*
X8819686Y-13130336D02*
X8829210Y-13149384D01*
X8829210Y-13149384D02*
X8829210Y-13168432D01*
X8829210Y-13168432D02*
X8819686Y-13197003D01*
X8819686Y-13197003D02*
X8705401Y-13311289D01*
X8705401Y-13311289D02*
X8829210Y-13311289D01*
X9067305Y-13311289D02*
X9067305Y-13111289D01*
X9153020Y-13311289D02*
X9153020Y-13206527D01*
X9153020Y-13206527D02*
X9143496Y-13187479D01*
X9143496Y-13187479D02*
X9124448Y-13177955D01*
X9124448Y-13177955D02*
X9095877Y-13177955D01*
X9095877Y-13177955D02*
X9076829Y-13187479D01*
X9076829Y-13187479D02*
X9067305Y-13197003D01*
X9276829Y-13311289D02*
X9257782Y-13301765D01*
X9257782Y-13301765D02*
X9248258Y-13292241D01*
X9248258Y-13292241D02*
X9238734Y-13273194D01*
X9238734Y-13273194D02*
X9238734Y-13216051D01*
X9238734Y-13216051D02*
X9248258Y-13197003D01*
X9248258Y-13197003D02*
X9257782Y-13187479D01*
X9257782Y-13187479D02*
X9276829Y-13177955D01*
X9276829Y-13177955D02*
X9305401Y-13177955D01*
X9305401Y-13177955D02*
X9324448Y-13187479D01*
X9324448Y-13187479D02*
X9333972Y-13197003D01*
X9333972Y-13197003D02*
X9343496Y-13216051D01*
X9343496Y-13216051D02*
X9343496Y-13273194D01*
X9343496Y-13273194D02*
X9333972Y-13292241D01*
X9333972Y-13292241D02*
X9324448Y-13301765D01*
X9324448Y-13301765D02*
X9305401Y-13311289D01*
X9305401Y-13311289D02*
X9276829Y-13311289D01*
X9457782Y-13311289D02*
X9438734Y-13301765D01*
X9438734Y-13301765D02*
X9429210Y-13282717D01*
X9429210Y-13282717D02*
X9429210Y-13111289D01*
X9610163Y-13301765D02*
X9591115Y-13311289D01*
X9591115Y-13311289D02*
X9553020Y-13311289D01*
X9553020Y-13311289D02*
X9533972Y-13301765D01*
X9533972Y-13301765D02*
X9524448Y-13282717D01*
X9524448Y-13282717D02*
X9524448Y-13206527D01*
X9524448Y-13206527D02*
X9533972Y-13187479D01*
X9533972Y-13187479D02*
X9553020Y-13177955D01*
X9553020Y-13177955D02*
X9591115Y-13177955D01*
X9591115Y-13177955D02*
X9610163Y-13187479D01*
X9610163Y-13187479D02*
X9619686Y-13206527D01*
X9619686Y-13206527D02*
X9619686Y-13225575D01*
X9619686Y-13225575D02*
X9524448Y-13244622D01*
X9695877Y-13301765D02*
X9714925Y-13311289D01*
X9714925Y-13311289D02*
X9753020Y-13311289D01*
X9753020Y-13311289D02*
X9772067Y-13301765D01*
X9772067Y-13301765D02*
X9781591Y-13282717D01*
X9781591Y-13282717D02*
X9781591Y-13273194D01*
X9781591Y-13273194D02*
X9772067Y-13254146D01*
X9772067Y-13254146D02*
X9753020Y-13244622D01*
X9753020Y-13244622D02*
X9724448Y-13244622D01*
X9724448Y-13244622D02*
X9705401Y-13235098D01*
X9705401Y-13235098D02*
X9695877Y-13216051D01*
X9695877Y-13216051D02*
X9695877Y-13206527D01*
X9695877Y-13206527D02*
X9705401Y-13187479D01*
X9705401Y-13187479D02*
X9724448Y-13177955D01*
X9724448Y-13177955D02*
X9753020Y-13177955D01*
X9753020Y-13177955D02*
X9772067Y-13187479D01*
X9848258Y-13387479D02*
X9857782Y-13377955D01*
X9857782Y-13377955D02*
X9876829Y-13349384D01*
X9876829Y-13349384D02*
X9886353Y-13330336D01*
X9886353Y-13330336D02*
X9895877Y-13301765D01*
X9895877Y-13301765D02*
X9905401Y-13254146D01*
X9905401Y-13254146D02*
X9905401Y-13216051D01*
X9905401Y-13216051D02*
X9895877Y-13168432D01*
X9895877Y-13168432D02*
X9886353Y-13139860D01*
X9886353Y-13139860D02*
X9876829Y-13120813D01*
X9876829Y-13120813D02*
X9857782Y-13092241D01*
X9857782Y-13092241D02*
X9848258Y-13082717D01*
X10210163Y-13387479D02*
X10200639Y-13377955D01*
X10200639Y-13377955D02*
X10181591Y-13349384D01*
X10181591Y-13349384D02*
X10172067Y-13330336D01*
X10172067Y-13330336D02*
X10162544Y-13301765D01*
X10162544Y-13301765D02*
X10153020Y-13254146D01*
X10153020Y-13254146D02*
X10153020Y-13216051D01*
X10153020Y-13216051D02*
X10162544Y-13168432D01*
X10162544Y-13168432D02*
X10172067Y-13139860D01*
X10172067Y-13139860D02*
X10181591Y-13120813D01*
X10181591Y-13120813D02*
X10200639Y-13092241D01*
X10200639Y-13092241D02*
X10210163Y-13082717D01*
X10286353Y-13177955D02*
X10286353Y-13311289D01*
X10286353Y-13197003D02*
X10295877Y-13187479D01*
X10295877Y-13187479D02*
X10314925Y-13177955D01*
X10314925Y-13177955D02*
X10343496Y-13177955D01*
X10343496Y-13177955D02*
X10362544Y-13187479D01*
X10362544Y-13187479D02*
X10372067Y-13206527D01*
X10372067Y-13206527D02*
X10372067Y-13311289D01*
X10495877Y-13311289D02*
X10476829Y-13301765D01*
X10476829Y-13301765D02*
X10467306Y-13292241D01*
X10467306Y-13292241D02*
X10457782Y-13273194D01*
X10457782Y-13273194D02*
X10457782Y-13216051D01*
X10457782Y-13216051D02*
X10467306Y-13197003D01*
X10467306Y-13197003D02*
X10476829Y-13187479D01*
X10476829Y-13187479D02*
X10495877Y-13177955D01*
X10495877Y-13177955D02*
X10524448Y-13177955D01*
X10524448Y-13177955D02*
X10543496Y-13187479D01*
X10543496Y-13187479D02*
X10553020Y-13197003D01*
X10553020Y-13197003D02*
X10562544Y-13216051D01*
X10562544Y-13216051D02*
X10562544Y-13273194D01*
X10562544Y-13273194D02*
X10553020Y-13292241D01*
X10553020Y-13292241D02*
X10543496Y-13301765D01*
X10543496Y-13301765D02*
X10524448Y-13311289D01*
X10524448Y-13311289D02*
X10495877Y-13311289D01*
X10619687Y-13177955D02*
X10695877Y-13177955D01*
X10648258Y-13111289D02*
X10648258Y-13282717D01*
X10648258Y-13282717D02*
X10657782Y-13301765D01*
X10657782Y-13301765D02*
X10676829Y-13311289D01*
X10676829Y-13311289D02*
X10695877Y-13311289D01*
X10914925Y-13177955D02*
X10914925Y-13377955D01*
X10914925Y-13187479D02*
X10933972Y-13177955D01*
X10933972Y-13177955D02*
X10972068Y-13177955D01*
X10972068Y-13177955D02*
X10991115Y-13187479D01*
X10991115Y-13187479D02*
X11000639Y-13197003D01*
X11000639Y-13197003D02*
X11010163Y-13216051D01*
X11010163Y-13216051D02*
X11010163Y-13273194D01*
X11010163Y-13273194D02*
X11000639Y-13292241D01*
X11000639Y-13292241D02*
X10991115Y-13301765D01*
X10991115Y-13301765D02*
X10972068Y-13311289D01*
X10972068Y-13311289D02*
X10933972Y-13311289D01*
X10933972Y-13311289D02*
X10914925Y-13301765D01*
X11124448Y-13311289D02*
X11105401Y-13301765D01*
X11105401Y-13301765D02*
X11095877Y-13282717D01*
X11095877Y-13282717D02*
X11095877Y-13111289D01*
X11286353Y-13311289D02*
X11286353Y-13206527D01*
X11286353Y-13206527D02*
X11276829Y-13187479D01*
X11276829Y-13187479D02*
X11257782Y-13177955D01*
X11257782Y-13177955D02*
X11219686Y-13177955D01*
X11219686Y-13177955D02*
X11200639Y-13187479D01*
X11286353Y-13301765D02*
X11267306Y-13311289D01*
X11267306Y-13311289D02*
X11219686Y-13311289D01*
X11219686Y-13311289D02*
X11200639Y-13301765D01*
X11200639Y-13301765D02*
X11191115Y-13282717D01*
X11191115Y-13282717D02*
X11191115Y-13263670D01*
X11191115Y-13263670D02*
X11200639Y-13244622D01*
X11200639Y-13244622D02*
X11219686Y-13235098D01*
X11219686Y-13235098D02*
X11267306Y-13235098D01*
X11267306Y-13235098D02*
X11286353Y-13225575D01*
X11353020Y-13177955D02*
X11429210Y-13177955D01*
X11381591Y-13111289D02*
X11381591Y-13282717D01*
X11381591Y-13282717D02*
X11391115Y-13301765D01*
X11391115Y-13301765D02*
X11410163Y-13311289D01*
X11410163Y-13311289D02*
X11429210Y-13311289D01*
X11572067Y-13301765D02*
X11553020Y-13311289D01*
X11553020Y-13311289D02*
X11514925Y-13311289D01*
X11514925Y-13311289D02*
X11495877Y-13301765D01*
X11495877Y-13301765D02*
X11486353Y-13282717D01*
X11486353Y-13282717D02*
X11486353Y-13206527D01*
X11486353Y-13206527D02*
X11495877Y-13187479D01*
X11495877Y-13187479D02*
X11514925Y-13177955D01*
X11514925Y-13177955D02*
X11553020Y-13177955D01*
X11553020Y-13177955D02*
X11572067Y-13187479D01*
X11572067Y-13187479D02*
X11581591Y-13206527D01*
X11581591Y-13206527D02*
X11581591Y-13225575D01*
X11581591Y-13225575D02*
X11486353Y-13244622D01*
X11753020Y-13311289D02*
X11753020Y-13111289D01*
X11753020Y-13301765D02*
X11733972Y-13311289D01*
X11733972Y-13311289D02*
X11695877Y-13311289D01*
X11695877Y-13311289D02*
X11676829Y-13301765D01*
X11676829Y-13301765D02*
X11667306Y-13292241D01*
X11667306Y-13292241D02*
X11657782Y-13273194D01*
X11657782Y-13273194D02*
X11657782Y-13216051D01*
X11657782Y-13216051D02*
X11667306Y-13197003D01*
X11667306Y-13197003D02*
X11676829Y-13187479D01*
X11676829Y-13187479D02*
X11695877Y-13177955D01*
X11695877Y-13177955D02*
X11733972Y-13177955D01*
X11733972Y-13177955D02*
X11753020Y-13187479D01*
X11829210Y-13387479D02*
X11838734Y-13377955D01*
X11838734Y-13377955D02*
X11857782Y-13349384D01*
X11857782Y-13349384D02*
X11867306Y-13330336D01*
X11867306Y-13330336D02*
X11876829Y-13301765D01*
X11876829Y-13301765D02*
X11886353Y-13254146D01*
X11886353Y-13254146D02*
X11886353Y-13216051D01*
X11886353Y-13216051D02*
X11876829Y-13168432D01*
X11876829Y-13168432D02*
X11867306Y-13139860D01*
X11867306Y-13139860D02*
X11857782Y-13120813D01*
X11857782Y-13120813D02*
X11838734Y-13092241D01*
X11838734Y-13092241D02*
X11829210Y-13082717D01*
M02*
