%TF.GenerationSoftware,KiCad,Pcbnew,7.0.10*%
%TF.CreationDate,2025-02-18T11:07:04-08:00*%
%TF.ProjectId,flow-controller,666c6f77-2d63-46f6-9e74-726f6c6c6572,rev?*%
%TF.SameCoordinates,Original*%
%TF.FileFunction,Copper,L2,Inr*%
%TF.FilePolarity,Positive*%
%FSLAX46Y46*%
G04 Gerber Fmt 4.6, Leading zero omitted, Abs format (unit mm)*
G04 Created by KiCad (PCBNEW 7.0.10) date 2025-02-18 11:07:04*
%MOMM*%
%LPD*%
G01*
G04 APERTURE LIST*
%TA.AperFunction,ComponentPad*%
%ADD10C,1.168400*%
%TD*%
%TA.AperFunction,ComponentPad*%
%ADD11R,1.520000X1.520000*%
%TD*%
%TA.AperFunction,ComponentPad*%
%ADD12C,1.520000*%
%TD*%
%TA.AperFunction,ComponentPad*%
%ADD13R,1.700000X1.700000*%
%TD*%
%TA.AperFunction,ComponentPad*%
%ADD14O,1.700000X1.700000*%
%TD*%
%TA.AperFunction,ComponentPad*%
%ADD15R,2.400000X2.400000*%
%TD*%
%TA.AperFunction,ComponentPad*%
%ADD16C,2.400000*%
%TD*%
%TA.AperFunction,ViaPad*%
%ADD17C,0.500000*%
%TD*%
G04 APERTURE END LIST*
D10*
%TO.N,/MCU/JTAG_VCC*%
%TO.C,J7*%
X99676949Y-100983051D03*
%TO.N,/MCU/TMS*%
X100946949Y-100983051D03*
%TO.N,GND*%
X99676949Y-102253051D03*
%TO.N,/MCU/TCK*%
X100946949Y-102253051D03*
%TO.N,GND*%
X99676949Y-103523051D03*
%TO.N,/MCU/TDO*%
X100946949Y-103523051D03*
%TO.N,/MCU/SBWTCK*%
X99676949Y-104793051D03*
%TO.N,/MCU/TDI*%
X100946949Y-104793051D03*
%TO.N,GND*%
X99676949Y-106063051D03*
%TO.N,/MCU/RST*%
X100946949Y-106063051D03*
%TD*%
D11*
%TO.N,Net-(D1-A)*%
%TO.C,J8*%
X83801949Y-116840000D03*
D12*
%TO.N,+BATT*%
X83801949Y-113840001D03*
%TD*%
D11*
%TO.N,GND*%
%TO.C,J9*%
X109855000Y-116840000D03*
D12*
%TO.N,/RS232 Transceiver/T1OUT*%
X106855001Y-116840000D03*
%TO.N,/RS232 Transceiver/R1IN*%
X109855000Y-113840001D03*
%TO.N,+BATT*%
X106855001Y-113840001D03*
%TD*%
D13*
%TO.N,/Motor Driver 1/DO2*%
%TO.C,J1*%
X81185749Y-105021651D03*
D14*
%TO.N,/Motor Driver 1/DO1*%
X83725749Y-105021651D03*
%TD*%
D15*
%TO.N,+BATT*%
%TO.C,C16*%
X74050000Y-85676041D03*
D16*
%TO.N,GND*%
X74050000Y-90676041D03*
%TD*%
D13*
%TO.N,/Motor Driver 1/AO2*%
%TO.C,J5*%
X91345749Y-105021651D03*
D14*
%TO.N,/Motor Driver 1/AO1*%
X93885749Y-105021651D03*
%TD*%
D13*
%TO.N,/Motor Driver 1/CO2*%
%TO.C,J6*%
X81185749Y-97401651D03*
D14*
%TO.N,/Motor Driver 1/CO1*%
X83725749Y-97401651D03*
%TD*%
D13*
%TO.N,/Motor Driver 2/CO2*%
%TO.C,J3*%
X71025749Y-105021651D03*
D14*
%TO.N,/Motor Driver 2/CO1*%
X73565749Y-105021651D03*
%TD*%
D13*
%TO.N,/Motor Driver 1/BO2*%
%TO.C,J2*%
X91345749Y-97401651D03*
D14*
%TO.N,/Motor Driver 1/BO1*%
X93885749Y-97401651D03*
%TD*%
D15*
%TO.N,+BATT*%
%TO.C,C21*%
X74300000Y-114101041D03*
D16*
%TO.N,GND*%
X74300000Y-119101041D03*
%TD*%
D13*
%TO.N,/Motor Driver 2/BO2*%
%TO.C,J4*%
X71025749Y-97401651D03*
D14*
%TO.N,/Motor Driver 2/BO1*%
X73565749Y-97401651D03*
%TD*%
D17*
%TO.N,GND*%
X123190000Y-100965000D03*
X107931949Y-92093051D03*
X125730000Y-114300000D03*
X58401949Y-99713051D03*
X115551949Y-92093051D03*
X114281949Y-116858051D03*
X84436949Y-89553051D03*
X80645000Y-90805000D03*
X123190000Y-113030000D03*
X60941949Y-98443051D03*
X58401949Y-98443051D03*
X59671949Y-103523051D03*
X109836949Y-106698051D03*
X58401949Y-104793051D03*
X85706949Y-89553051D03*
X88265000Y-95250000D03*
X125730000Y-99695000D03*
X86995000Y-84455000D03*
X58401949Y-97173051D03*
X125730000Y-113030000D03*
X118091949Y-102888051D03*
X118110000Y-100330000D03*
X120631949Y-97808051D03*
X90786949Y-88283051D03*
X80225000Y-82375000D03*
X125730000Y-111760000D03*
X105410000Y-82550000D03*
X59671949Y-95903051D03*
X114281949Y-119398051D03*
X94615000Y-88265000D03*
X60941949Y-100983051D03*
X123825000Y-82550000D03*
X105391949Y-98443051D03*
X89516949Y-89553051D03*
X59671949Y-107333051D03*
X89516949Y-88283051D03*
X102216949Y-86378051D03*
X60941949Y-106063051D03*
X111106949Y-107968051D03*
X103486949Y-107333051D03*
X100311949Y-97173051D03*
X59671949Y-106063051D03*
X116205000Y-109855000D03*
X60941949Y-104793051D03*
X59671949Y-104793051D03*
X125730000Y-110490000D03*
X94615000Y-89535000D03*
X101581949Y-97173051D03*
X94615000Y-92075000D03*
X83166949Y-89553051D03*
X60941949Y-99713051D03*
X86976949Y-89553051D03*
X60941949Y-102253051D03*
X119361949Y-114318051D03*
X58401949Y-95903051D03*
X124460000Y-99695000D03*
X109836949Y-107968051D03*
X54591949Y-101618051D03*
X59671949Y-98443051D03*
X80645000Y-89535000D03*
X93326949Y-89553051D03*
X85706949Y-90823051D03*
X86976949Y-90823051D03*
X100946949Y-93998051D03*
X125730000Y-89535000D03*
X103486949Y-93998051D03*
X88246949Y-90823051D03*
X58401949Y-106063051D03*
X86976949Y-88283051D03*
X88246949Y-88283051D03*
X81896949Y-89553051D03*
X58401949Y-100983051D03*
X120631949Y-96538051D03*
X114281949Y-114318051D03*
X60941949Y-103523051D03*
X125730000Y-86360000D03*
X114281949Y-121938051D03*
X59671949Y-100983051D03*
X125730000Y-100965000D03*
X124460000Y-89535000D03*
X90786949Y-89553051D03*
X94615000Y-90805000D03*
X102216949Y-93998051D03*
X92056949Y-89553051D03*
X109836949Y-103523051D03*
X124460000Y-113030000D03*
X116186949Y-98443051D03*
X101600000Y-82550000D03*
X112376949Y-103523051D03*
X65386949Y-100983051D03*
X102216949Y-90188051D03*
X124460000Y-111760000D03*
X59671949Y-102253051D03*
X88246949Y-89553051D03*
X123190000Y-99695000D03*
X119996949Y-102888051D03*
X124460000Y-100965000D03*
X60941949Y-107333051D03*
X89516949Y-90823051D03*
X118726949Y-82568051D03*
X59671949Y-97173051D03*
X80645000Y-92075000D03*
X84436949Y-90823051D03*
X125730000Y-115570000D03*
X90786949Y-90823051D03*
X59671949Y-99713051D03*
X125730000Y-85090000D03*
X58401949Y-107333051D03*
X117475000Y-109220000D03*
%TO.N,+3V3*%
X111106949Y-103523051D03*
X119361949Y-83838051D03*
X118726949Y-97173051D03*
X100946949Y-84473051D03*
X121920000Y-123190000D03*
X124460000Y-121920000D03*
X121920000Y-121920000D03*
X123190000Y-123190000D03*
X102235000Y-110490000D03*
X123190000Y-121920000D03*
X114916949Y-100348051D03*
X125730000Y-123190000D03*
X124460000Y-123190000D03*
X103486949Y-96538051D03*
X125730000Y-121920000D03*
X101600000Y-122555000D03*
%TO.N,+BATT*%
X81896949Y-88283051D03*
X94596949Y-85108051D03*
X122536949Y-109238051D03*
X55861949Y-94633051D03*
X122536949Y-106698051D03*
X122536949Y-105428051D03*
X55921949Y-109585551D03*
X80626949Y-85743051D03*
X122536949Y-107968051D03*
X55921949Y-108603051D03*
X121266949Y-105428051D03*
X83801949Y-82568051D03*
%TO.N,/MCU/JTAG_VCC*%
X97771949Y-102253051D03*
%TO.N,/MCU/TMS*%
X113646949Y-93998051D03*
%TO.N,/MCU/TCK*%
X114916949Y-93363051D03*
%TO.N,/MCU/TDO*%
X114281949Y-95268051D03*
%TO.N,/MCU/TDI*%
X116186949Y-94633051D03*
%TO.N,/MCU/RST*%
X115551949Y-86378051D03*
%TO.N,/RS232 Transceiver/R1IN*%
X114916949Y-106063051D03*
%TO.N,/RS232 Transceiver/T1OUT*%
X114916949Y-104793051D03*
%TO.N,Net-(U5-AISEN)*%
X93326949Y-83708551D03*
%TO.N,Net-(U5-BISEN)*%
X92691949Y-95268051D03*
%TO.N,Net-(U5-CISEN)*%
X81896949Y-95268051D03*
%TO.N,Net-(U5-DISEN)*%
X83166949Y-83838051D03*
%TO.N,Net-(U6-BISEN)*%
X65405000Y-96520000D03*
%TO.N,Net-(U6-CISEN)*%
X66021949Y-107333051D03*
%TO.N,/MCU/PUMP_RELAY*%
X111741949Y-94633051D03*
X106026949Y-99713051D03*
%TO.N,/MCU/R1OUT*%
X114916949Y-107333051D03*
X114916949Y-99078051D03*
%TO.N,/MCU/T1IN*%
X116186949Y-88918051D03*
X114916949Y-109873051D03*
%TO.N,Net-(U1-P8.2)*%
X124441949Y-90823051D03*
X115551949Y-85108051D03*
%TO.N,Net-(U1-P8.3)*%
X113011949Y-85743051D03*
X122536949Y-90823051D03*
%TO.N,/MCU/SDATA*%
X111106949Y-85743051D03*
X86341949Y-102253051D03*
X68561949Y-102253051D03*
%TO.N,/MCU/SCLK*%
X86976949Y-101618051D03*
X69831949Y-101618051D03*
X109836949Y-85743051D03*
%TO.N,/MCU/B_CS*%
X108566949Y-85743051D03*
X68561949Y-99713051D03*
%TO.N,/MCU/ONOFF*%
X106661949Y-98443051D03*
X116186949Y-102888051D03*
X114281949Y-87013051D03*
X114916949Y-108603051D03*
%TO.N,/MCU/A_CS*%
X113011949Y-87648051D03*
X88881949Y-103523051D03*
%TO.N,/MCU/SSTB*%
X67291949Y-102888051D03*
X85706949Y-102888051D03*
X111832432Y-88373534D03*
%TO.N,/MCU/nRESET*%
X88881949Y-100348051D03*
X69831949Y-100348051D03*
X108566949Y-88283051D03*
%TO.N,/MCU/nSLEEP*%
X71101949Y-100983051D03*
X88246949Y-100983051D03*
X109201949Y-88918051D03*
%TO.N,/Motor Driver 1/VREF1*%
X84436949Y-83838051D03*
%TO.N,/Motor Driver 2/VREF2*%
X53956949Y-102253051D03*
%TD*%
%TA.AperFunction,Conductor*%
%TO.N,GND*%
G36*
X100085662Y-102308211D02*
G01*
X100119147Y-102369534D01*
X100121301Y-102382925D01*
X100125992Y-102427551D01*
X100125993Y-102427554D01*
X100125993Y-102427555D01*
X100180209Y-102594418D01*
X100180212Y-102594424D01*
X100267942Y-102746377D01*
X100320797Y-102805079D01*
X100351027Y-102868071D01*
X100342401Y-102937406D01*
X100320797Y-102971023D01*
X100267942Y-103029724D01*
X100180212Y-103181677D01*
X100180209Y-103181683D01*
X100125993Y-103348546D01*
X100125991Y-103348557D01*
X100121301Y-103393172D01*
X100094716Y-103457786D01*
X100085662Y-103467889D01*
X100034063Y-103519488D01*
X100036235Y-103493280D01*
X100007101Y-103378233D01*
X99942190Y-103278879D01*
X99848536Y-103205986D01*
X99736288Y-103167451D01*
X99678996Y-103167451D01*
X99958396Y-102888051D01*
X99678996Y-102608651D01*
X99706415Y-102608651D01*
X99794009Y-102594034D01*
X99898383Y-102537550D01*
X99978762Y-102450235D01*
X100026434Y-102341553D01*
X100033518Y-102256067D01*
X100085662Y-102308211D01*
G37*
%TD.AperFunction*%
%TA.AperFunction,Conductor*%
G36*
X124445419Y-81298745D02*
G01*
X124557619Y-81305049D01*
X124726298Y-81315256D01*
X124739548Y-81316778D01*
X124871730Y-81339239D01*
X124872902Y-81339446D01*
X125018139Y-81366064D01*
X125030103Y-81368877D01*
X125162691Y-81407076D01*
X125165181Y-81407822D01*
X125302094Y-81450487D01*
X125312628Y-81454302D01*
X125441660Y-81507751D01*
X125445050Y-81509215D01*
X125574234Y-81567357D01*
X125583302Y-81571894D01*
X125706320Y-81639885D01*
X125710402Y-81642245D01*
X125830958Y-81715125D01*
X125838498Y-81720069D01*
X125953506Y-81801672D01*
X125958135Y-81805125D01*
X126066138Y-81889740D01*
X126068694Y-81891743D01*
X126074832Y-81896880D01*
X126180082Y-81990938D01*
X126185116Y-81995698D01*
X126284300Y-82094882D01*
X126289063Y-82099919D01*
X126383113Y-82205161D01*
X126388255Y-82211304D01*
X126474850Y-82321833D01*
X126478337Y-82326507D01*
X126559921Y-82441488D01*
X126564883Y-82449054D01*
X126637733Y-82569562D01*
X126640133Y-82573712D01*
X126658656Y-82607226D01*
X126708097Y-82696682D01*
X126712644Y-82705771D01*
X126770773Y-82834925D01*
X126772258Y-82838363D01*
X126825691Y-82967357D01*
X126829516Y-82977919D01*
X126872154Y-83114743D01*
X126872922Y-83117307D01*
X126911121Y-83249895D01*
X126913936Y-83261869D01*
X126940512Y-83406874D01*
X126940792Y-83408456D01*
X126963218Y-83540436D01*
X126964744Y-83553718D01*
X126974948Y-83722347D01*
X126974979Y-83722882D01*
X126981254Y-83834579D01*
X126981449Y-83841534D01*
X126981449Y-123204573D01*
X126981254Y-123211524D01*
X126975432Y-123315221D01*
X126975398Y-123315794D01*
X126964609Y-123493265D01*
X126963086Y-123506509D01*
X126942085Y-123630129D01*
X126941806Y-123631711D01*
X126913678Y-123785214D01*
X126910864Y-123797189D01*
X126877657Y-123912465D01*
X126874211Y-123924426D01*
X126873442Y-123926989D01*
X126829132Y-124069194D01*
X126825308Y-124079757D01*
X126773521Y-124204787D01*
X126772036Y-124208224D01*
X126712100Y-124341406D01*
X126707552Y-124350497D01*
X126641385Y-124470222D01*
X126638974Y-124474391D01*
X126564152Y-124598167D01*
X126559165Y-124605773D01*
X126479587Y-124717931D01*
X126476068Y-124722648D01*
X126387280Y-124835982D01*
X126382129Y-124842136D01*
X126290291Y-124944907D01*
X126285513Y-124949962D01*
X126183842Y-125051637D01*
X126178788Y-125056414D01*
X126076011Y-125148266D01*
X126069856Y-125153419D01*
X125956522Y-125242213D01*
X125951806Y-125245731D01*
X125839651Y-125325314D01*
X125832044Y-125330302D01*
X125708261Y-125405133D01*
X125704093Y-125407543D01*
X125584386Y-125473706D01*
X125575296Y-125478255D01*
X125442112Y-125538199D01*
X125438675Y-125539684D01*
X125313662Y-125591470D01*
X125303099Y-125595295D01*
X125160865Y-125639620D01*
X125158301Y-125640388D01*
X125031075Y-125677043D01*
X125019100Y-125679858D01*
X124865693Y-125707974D01*
X124864112Y-125708254D01*
X124740462Y-125729265D01*
X124727178Y-125730791D01*
X124535090Y-125742414D01*
X124534558Y-125742445D01*
X124455969Y-125746861D01*
X124447155Y-125747356D01*
X124440203Y-125747551D01*
X53325427Y-125747551D01*
X53318476Y-125747356D01*
X53313796Y-125747093D01*
X53206754Y-125741083D01*
X53206222Y-125741052D01*
X53037614Y-125730857D01*
X53024328Y-125729331D01*
X52892381Y-125706913D01*
X52890802Y-125706634D01*
X52745754Y-125680056D01*
X52733777Y-125677241D01*
X52601224Y-125639055D01*
X52598661Y-125638287D01*
X52461803Y-125595642D01*
X52451240Y-125591817D01*
X52322247Y-125538387D01*
X52318810Y-125536903D01*
X52279126Y-125519043D01*
X52189633Y-125478767D01*
X52180560Y-125474227D01*
X52179617Y-125473706D01*
X52171457Y-125469196D01*
X52057597Y-125406267D01*
X52053430Y-125403858D01*
X52009905Y-125377547D01*
X51932923Y-125331010D01*
X51925342Y-125326038D01*
X51861304Y-125280601D01*
X51810429Y-125244503D01*
X51805713Y-125240986D01*
X51695179Y-125154390D01*
X51689024Y-125149238D01*
X51687936Y-125148266D01*
X51583801Y-125055205D01*
X51578747Y-125050426D01*
X51479572Y-124951251D01*
X51474793Y-124946197D01*
X51436741Y-124903617D01*
X51380752Y-124840964D01*
X51375617Y-124834830D01*
X51336430Y-124784811D01*
X51289012Y-124724285D01*
X51285495Y-124719569D01*
X51284333Y-124717931D01*
X51203952Y-124604644D01*
X51198997Y-124597089D01*
X51126131Y-124476553D01*
X51123731Y-124472401D01*
X51090642Y-124412531D01*
X51055760Y-124349417D01*
X51051241Y-124340386D01*
X50993079Y-124211151D01*
X50991611Y-124207751D01*
X50990383Y-124204787D01*
X50938175Y-124078744D01*
X50934361Y-124068211D01*
X50891689Y-123931264D01*
X50890966Y-123928851D01*
X50852751Y-123796199D01*
X50849947Y-123784267D01*
X50823351Y-123639125D01*
X50823085Y-123637617D01*
X50800663Y-123505639D01*
X50799144Y-123492417D01*
X50788931Y-123323517D01*
X50782644Y-123211523D01*
X50782449Y-123204574D01*
X50782449Y-123190000D01*
X121414353Y-123190000D01*
X121434834Y-123332456D01*
X121494622Y-123463371D01*
X121494623Y-123463373D01*
X121588872Y-123572143D01*
X121709947Y-123649953D01*
X121709950Y-123649954D01*
X121709949Y-123649954D01*
X121848036Y-123690499D01*
X121848038Y-123690500D01*
X121848039Y-123690500D01*
X121991962Y-123690500D01*
X121991962Y-123690499D01*
X122130053Y-123649953D01*
X122251128Y-123572143D01*
X122345377Y-123463373D01*
X122405165Y-123332457D01*
X122425647Y-123190000D01*
X122684353Y-123190000D01*
X122704834Y-123332456D01*
X122764622Y-123463371D01*
X122764623Y-123463373D01*
X122858872Y-123572143D01*
X122979947Y-123649953D01*
X122979950Y-123649954D01*
X122979949Y-123649954D01*
X123118036Y-123690499D01*
X123118038Y-123690500D01*
X123118039Y-123690500D01*
X123261962Y-123690500D01*
X123261962Y-123690499D01*
X123400053Y-123649953D01*
X123521128Y-123572143D01*
X123615377Y-123463373D01*
X123675165Y-123332457D01*
X123695647Y-123190000D01*
X123954353Y-123190000D01*
X123974834Y-123332456D01*
X124034622Y-123463371D01*
X124034623Y-123463373D01*
X124128872Y-123572143D01*
X124249947Y-123649953D01*
X124249950Y-123649954D01*
X124249949Y-123649954D01*
X124388036Y-123690499D01*
X124388038Y-123690500D01*
X124388039Y-123690500D01*
X124531962Y-123690500D01*
X124531962Y-123690499D01*
X124670053Y-123649953D01*
X124791128Y-123572143D01*
X124885377Y-123463373D01*
X124945165Y-123332457D01*
X124965647Y-123190000D01*
X125224353Y-123190000D01*
X125244834Y-123332456D01*
X125304622Y-123463371D01*
X125304623Y-123463373D01*
X125398872Y-123572143D01*
X125519947Y-123649953D01*
X125519950Y-123649954D01*
X125519949Y-123649954D01*
X125658036Y-123690499D01*
X125658038Y-123690500D01*
X125658039Y-123690500D01*
X125801962Y-123690500D01*
X125801962Y-123690499D01*
X125940053Y-123649953D01*
X126061128Y-123572143D01*
X126155377Y-123463373D01*
X126215165Y-123332457D01*
X126235647Y-123190000D01*
X126215165Y-123047543D01*
X126155377Y-122916627D01*
X126061128Y-122807857D01*
X125940053Y-122730047D01*
X125940051Y-122730046D01*
X125940049Y-122730045D01*
X125940050Y-122730045D01*
X125801963Y-122689500D01*
X125801961Y-122689500D01*
X125658039Y-122689500D01*
X125658036Y-122689500D01*
X125519949Y-122730045D01*
X125398873Y-122807856D01*
X125304623Y-122916626D01*
X125304622Y-122916628D01*
X125244834Y-123047543D01*
X125224353Y-123190000D01*
X124965647Y-123190000D01*
X124945165Y-123047543D01*
X124885377Y-122916627D01*
X124791128Y-122807857D01*
X124670053Y-122730047D01*
X124670051Y-122730046D01*
X124670049Y-122730045D01*
X124670050Y-122730045D01*
X124531963Y-122689500D01*
X124531961Y-122689500D01*
X124388039Y-122689500D01*
X124388036Y-122689500D01*
X124249949Y-122730045D01*
X124128873Y-122807856D01*
X124034623Y-122916626D01*
X124034622Y-122916628D01*
X123974834Y-123047543D01*
X123954353Y-123190000D01*
X123695647Y-123190000D01*
X123675165Y-123047543D01*
X123615377Y-122916627D01*
X123521128Y-122807857D01*
X123400053Y-122730047D01*
X123400051Y-122730046D01*
X123400049Y-122730045D01*
X123400050Y-122730045D01*
X123261963Y-122689500D01*
X123261961Y-122689500D01*
X123118039Y-122689500D01*
X123118036Y-122689500D01*
X122979949Y-122730045D01*
X122858873Y-122807856D01*
X122764623Y-122916626D01*
X122764622Y-122916628D01*
X122704834Y-123047543D01*
X122684353Y-123190000D01*
X122425647Y-123190000D01*
X122405165Y-123047543D01*
X122345377Y-122916627D01*
X122251128Y-122807857D01*
X122130053Y-122730047D01*
X122130051Y-122730046D01*
X122130049Y-122730045D01*
X122130050Y-122730045D01*
X121991963Y-122689500D01*
X121991961Y-122689500D01*
X121848039Y-122689500D01*
X121848036Y-122689500D01*
X121709949Y-122730045D01*
X121588873Y-122807856D01*
X121494623Y-122916626D01*
X121494622Y-122916628D01*
X121434834Y-123047543D01*
X121414353Y-123190000D01*
X50782449Y-123190000D01*
X50782449Y-121291186D01*
X82051449Y-121291186D01*
X82070790Y-121419500D01*
X82090553Y-121550614D01*
X82090554Y-121550616D01*
X82090555Y-121550622D01*
X82167887Y-121801325D01*
X82281716Y-122037695D01*
X82281717Y-122037696D01*
X82281719Y-122037699D01*
X82281721Y-122037703D01*
X82320818Y-122095047D01*
X82429516Y-122254478D01*
X82607963Y-122446800D01*
X82607967Y-122446803D01*
X82607968Y-122446804D01*
X82813092Y-122610385D01*
X83040306Y-122741567D01*
X83284533Y-122837419D01*
X83540319Y-122895801D01*
X83540325Y-122895801D01*
X83540328Y-122895802D01*
X83736433Y-122910498D01*
X83736452Y-122910498D01*
X83736455Y-122910499D01*
X83736457Y-122910499D01*
X83867441Y-122910499D01*
X83867443Y-122910499D01*
X83867445Y-122910498D01*
X83867464Y-122910498D01*
X84063569Y-122895802D01*
X84063571Y-122895801D01*
X84063579Y-122895801D01*
X84319365Y-122837419D01*
X84563592Y-122741567D01*
X84790806Y-122610385D01*
X84860257Y-122555000D01*
X101094353Y-122555000D01*
X101114834Y-122697456D01*
X101174622Y-122828371D01*
X101174623Y-122828373D01*
X101268872Y-122937143D01*
X101389947Y-123014953D01*
X101389950Y-123014954D01*
X101389949Y-123014954D01*
X101528036Y-123055499D01*
X101528038Y-123055500D01*
X101528039Y-123055500D01*
X101671962Y-123055500D01*
X101671962Y-123055499D01*
X101810053Y-123014953D01*
X101931128Y-122937143D01*
X102025377Y-122828373D01*
X102085165Y-122697457D01*
X102105647Y-122555000D01*
X102085165Y-122412543D01*
X102025377Y-122281627D01*
X101931128Y-122172857D01*
X101810053Y-122095047D01*
X101810051Y-122095046D01*
X101810049Y-122095045D01*
X101810050Y-122095045D01*
X101671963Y-122054500D01*
X101671961Y-122054500D01*
X101528039Y-122054500D01*
X101528036Y-122054500D01*
X101389949Y-122095045D01*
X101268873Y-122172856D01*
X101174623Y-122281626D01*
X101174622Y-122281628D01*
X101114834Y-122412543D01*
X101094353Y-122555000D01*
X84860257Y-122555000D01*
X84995930Y-122446804D01*
X85020337Y-122420500D01*
X85035894Y-122403732D01*
X85174382Y-122254478D01*
X85322177Y-122037703D01*
X85436012Y-121801322D01*
X85513345Y-121550614D01*
X85552448Y-121291186D01*
X106604500Y-121291186D01*
X106623841Y-121419500D01*
X106643604Y-121550614D01*
X106643605Y-121550616D01*
X106643606Y-121550622D01*
X106720938Y-121801325D01*
X106834767Y-122037695D01*
X106834768Y-122037696D01*
X106834770Y-122037699D01*
X106834772Y-122037703D01*
X106873869Y-122095047D01*
X106982567Y-122254478D01*
X107161014Y-122446800D01*
X107161018Y-122446803D01*
X107161019Y-122446804D01*
X107366143Y-122610385D01*
X107593357Y-122741567D01*
X107837584Y-122837419D01*
X108093370Y-122895801D01*
X108093376Y-122895801D01*
X108093379Y-122895802D01*
X108289484Y-122910498D01*
X108289503Y-122910498D01*
X108289506Y-122910499D01*
X108289508Y-122910499D01*
X108420492Y-122910499D01*
X108420494Y-122910499D01*
X108420496Y-122910498D01*
X108420515Y-122910498D01*
X108616620Y-122895802D01*
X108616622Y-122895801D01*
X108616630Y-122895801D01*
X108872416Y-122837419D01*
X109116643Y-122741567D01*
X109343857Y-122610385D01*
X109548981Y-122446804D01*
X109573388Y-122420500D01*
X109588945Y-122403732D01*
X109727433Y-122254478D01*
X109875228Y-122037703D01*
X109931911Y-121920000D01*
X121414353Y-121920000D01*
X121434834Y-122062456D01*
X121494622Y-122193371D01*
X121494623Y-122193373D01*
X121588872Y-122302143D01*
X121709947Y-122379953D01*
X121709950Y-122379954D01*
X121709949Y-122379954D01*
X121848036Y-122420499D01*
X121848038Y-122420500D01*
X121848039Y-122420500D01*
X121991962Y-122420500D01*
X121991962Y-122420499D01*
X122130053Y-122379953D01*
X122251128Y-122302143D01*
X122345377Y-122193373D01*
X122405165Y-122062457D01*
X122425647Y-121920000D01*
X122684353Y-121920000D01*
X122704834Y-122062456D01*
X122764622Y-122193371D01*
X122764623Y-122193373D01*
X122858872Y-122302143D01*
X122979947Y-122379953D01*
X122979950Y-122379954D01*
X122979949Y-122379954D01*
X123118036Y-122420499D01*
X123118038Y-122420500D01*
X123118039Y-122420500D01*
X123261962Y-122420500D01*
X123261962Y-122420499D01*
X123400053Y-122379953D01*
X123521128Y-122302143D01*
X123615377Y-122193373D01*
X123675165Y-122062457D01*
X123695647Y-121920000D01*
X123954353Y-121920000D01*
X123974834Y-122062456D01*
X124034622Y-122193371D01*
X124034623Y-122193373D01*
X124128872Y-122302143D01*
X124249947Y-122379953D01*
X124249950Y-122379954D01*
X124249949Y-122379954D01*
X124388036Y-122420499D01*
X124388038Y-122420500D01*
X124388039Y-122420500D01*
X124531962Y-122420500D01*
X124531962Y-122420499D01*
X124670053Y-122379953D01*
X124791128Y-122302143D01*
X124885377Y-122193373D01*
X124945165Y-122062457D01*
X124965647Y-121920000D01*
X125224353Y-121920000D01*
X125244834Y-122062456D01*
X125304622Y-122193371D01*
X125304623Y-122193373D01*
X125398872Y-122302143D01*
X125519947Y-122379953D01*
X125519950Y-122379954D01*
X125519949Y-122379954D01*
X125658036Y-122420499D01*
X125658038Y-122420500D01*
X125658039Y-122420500D01*
X125801962Y-122420500D01*
X125801962Y-122420499D01*
X125940053Y-122379953D01*
X126061128Y-122302143D01*
X126155377Y-122193373D01*
X126215165Y-122062457D01*
X126235647Y-121920000D01*
X126215165Y-121777543D01*
X126155377Y-121646627D01*
X126061128Y-121537857D01*
X125940053Y-121460047D01*
X125940051Y-121460046D01*
X125940049Y-121460045D01*
X125940050Y-121460045D01*
X125801963Y-121419500D01*
X125801961Y-121419500D01*
X125658039Y-121419500D01*
X125658036Y-121419500D01*
X125519949Y-121460045D01*
X125398873Y-121537856D01*
X125304623Y-121646626D01*
X125304622Y-121646628D01*
X125244834Y-121777543D01*
X125224353Y-121920000D01*
X124965647Y-121920000D01*
X124945165Y-121777543D01*
X124885377Y-121646627D01*
X124791128Y-121537857D01*
X124670053Y-121460047D01*
X124670051Y-121460046D01*
X124670049Y-121460045D01*
X124670050Y-121460045D01*
X124531963Y-121419500D01*
X124531961Y-121419500D01*
X124388039Y-121419500D01*
X124388036Y-121419500D01*
X124249949Y-121460045D01*
X124128873Y-121537856D01*
X124034623Y-121646626D01*
X124034622Y-121646628D01*
X123974834Y-121777543D01*
X123954353Y-121920000D01*
X123695647Y-121920000D01*
X123675165Y-121777543D01*
X123615377Y-121646627D01*
X123521128Y-121537857D01*
X123400053Y-121460047D01*
X123400051Y-121460046D01*
X123400049Y-121460045D01*
X123400050Y-121460045D01*
X123261963Y-121419500D01*
X123261961Y-121419500D01*
X123118039Y-121419500D01*
X123118036Y-121419500D01*
X122979949Y-121460045D01*
X122858873Y-121537856D01*
X122764623Y-121646626D01*
X122764622Y-121646628D01*
X122704834Y-121777543D01*
X122684353Y-121920000D01*
X122425647Y-121920000D01*
X122405165Y-121777543D01*
X122345377Y-121646627D01*
X122251128Y-121537857D01*
X122130053Y-121460047D01*
X122130051Y-121460046D01*
X122130049Y-121460045D01*
X122130050Y-121460045D01*
X121991963Y-121419500D01*
X121991961Y-121419500D01*
X121848039Y-121419500D01*
X121848036Y-121419500D01*
X121709949Y-121460045D01*
X121588873Y-121537856D01*
X121494623Y-121646626D01*
X121494622Y-121646628D01*
X121434834Y-121777543D01*
X121414353Y-121920000D01*
X109931911Y-121920000D01*
X109989063Y-121801322D01*
X110066396Y-121550614D01*
X110105500Y-121291181D01*
X110105500Y-121028817D01*
X110066396Y-120769384D01*
X109989063Y-120518676D01*
X109964552Y-120467779D01*
X109875232Y-120282302D01*
X109875231Y-120282301D01*
X109875230Y-120282300D01*
X109875228Y-120282295D01*
X109727433Y-120065520D01*
X109717441Y-120054752D01*
X109548985Y-119873197D01*
X109508250Y-119840712D01*
X109343857Y-119709613D01*
X109116643Y-119578431D01*
X108872416Y-119482579D01*
X108872411Y-119482577D01*
X108872402Y-119482575D01*
X108654818Y-119432913D01*
X108616630Y-119424197D01*
X108616629Y-119424196D01*
X108616625Y-119424196D01*
X108616620Y-119424195D01*
X108420515Y-119409499D01*
X108420494Y-119409499D01*
X108289506Y-119409499D01*
X108289484Y-119409499D01*
X108093379Y-119424195D01*
X108093374Y-119424196D01*
X107837597Y-119482575D01*
X107837578Y-119482581D01*
X107593356Y-119578431D01*
X107366143Y-119709613D01*
X107161014Y-119873197D01*
X106982567Y-120065519D01*
X106834768Y-120282301D01*
X106834767Y-120282302D01*
X106720938Y-120518672D01*
X106643606Y-120769375D01*
X106643605Y-120769380D01*
X106643604Y-120769384D01*
X106628853Y-120867246D01*
X106604500Y-121028811D01*
X106604500Y-121291186D01*
X85552448Y-121291186D01*
X85552449Y-121291181D01*
X85552449Y-121028817D01*
X85513345Y-120769384D01*
X85436012Y-120518676D01*
X85411501Y-120467779D01*
X85322181Y-120282302D01*
X85322180Y-120282301D01*
X85322179Y-120282300D01*
X85322177Y-120282295D01*
X85174382Y-120065520D01*
X85164390Y-120054752D01*
X84995934Y-119873197D01*
X84955199Y-119840712D01*
X84790806Y-119709613D01*
X84563592Y-119578431D01*
X84319365Y-119482579D01*
X84319360Y-119482577D01*
X84319351Y-119482575D01*
X84101767Y-119432913D01*
X84063579Y-119424197D01*
X84063578Y-119424196D01*
X84063574Y-119424196D01*
X84063569Y-119424195D01*
X83867464Y-119409499D01*
X83867443Y-119409499D01*
X83736455Y-119409499D01*
X83736433Y-119409499D01*
X83540328Y-119424195D01*
X83540323Y-119424196D01*
X83284546Y-119482575D01*
X83284527Y-119482581D01*
X83040305Y-119578431D01*
X82813092Y-119709613D01*
X82607963Y-119873197D01*
X82429516Y-120065519D01*
X82281717Y-120282301D01*
X82281716Y-120282302D01*
X82167887Y-120518672D01*
X82090555Y-120769375D01*
X82090554Y-120769380D01*
X82090553Y-120769384D01*
X82075802Y-120867246D01*
X82051449Y-121028811D01*
X82051449Y-121291186D01*
X50782449Y-121291186D01*
X50782449Y-119101045D01*
X72595233Y-119101045D01*
X72614273Y-119355120D01*
X72670968Y-119603518D01*
X72670973Y-119603535D01*
X72764058Y-119840712D01*
X72764057Y-119840712D01*
X72891454Y-120061368D01*
X72891461Y-120061379D01*
X72933452Y-120114032D01*
X72933453Y-120114033D01*
X73737226Y-119310260D01*
X73775901Y-119403629D01*
X73872075Y-119528966D01*
X73997412Y-119625140D01*
X74090779Y-119663813D01*
X73286813Y-120467779D01*
X73447616Y-120577412D01*
X73447624Y-120577417D01*
X73677176Y-120687962D01*
X73677174Y-120687962D01*
X73920652Y-120763065D01*
X73920658Y-120763067D01*
X74172595Y-120801040D01*
X74172604Y-120801041D01*
X74427396Y-120801041D01*
X74427404Y-120801040D01*
X74679341Y-120763067D01*
X74679347Y-120763065D01*
X74922824Y-120687962D01*
X75152376Y-120577417D01*
X75152377Y-120577416D01*
X75313185Y-120467779D01*
X74509220Y-119663813D01*
X74602588Y-119625140D01*
X74727925Y-119528966D01*
X74824099Y-119403630D01*
X74862773Y-119310261D01*
X75666544Y-120114033D01*
X75666546Y-120114032D01*
X75708544Y-120061371D01*
X75835941Y-119840712D01*
X75929026Y-119603535D01*
X75929031Y-119603518D01*
X75985726Y-119355120D01*
X76004767Y-119101045D01*
X76004767Y-119101036D01*
X75985726Y-118846961D01*
X75929031Y-118598563D01*
X75929026Y-118598546D01*
X75835941Y-118361369D01*
X75835942Y-118361369D01*
X75708545Y-118140713D01*
X75666545Y-118088047D01*
X74862772Y-118891820D01*
X74824099Y-118798453D01*
X74727925Y-118673116D01*
X74602588Y-118576942D01*
X74509219Y-118538267D01*
X75313185Y-117734301D01*
X75152397Y-117624678D01*
X82791449Y-117624678D01*
X82805981Y-117697735D01*
X82805982Y-117697739D01*
X82805983Y-117697740D01*
X82861348Y-117780601D01*
X82944077Y-117835878D01*
X82944209Y-117835966D01*
X82944213Y-117835967D01*
X83017270Y-117850499D01*
X83017273Y-117850500D01*
X83017275Y-117850500D01*
X84586625Y-117850500D01*
X84586626Y-117850499D01*
X84659689Y-117835966D01*
X84742550Y-117780601D01*
X84797915Y-117697740D01*
X84812449Y-117624674D01*
X84812449Y-116055326D01*
X84812449Y-116055323D01*
X84812448Y-116055321D01*
X84797916Y-115982264D01*
X84797915Y-115982260D01*
X84742550Y-115899399D01*
X84687184Y-115862405D01*
X84659688Y-115844033D01*
X84659684Y-115844032D01*
X84586626Y-115829500D01*
X84586623Y-115829500D01*
X83017275Y-115829500D01*
X83017272Y-115829500D01*
X82944213Y-115844032D01*
X82944209Y-115844033D01*
X82861348Y-115899399D01*
X82805982Y-115982260D01*
X82805981Y-115982264D01*
X82791449Y-116055321D01*
X82791449Y-117624678D01*
X75152397Y-117624678D01*
X75152384Y-117624669D01*
X75152376Y-117624664D01*
X74922823Y-117514119D01*
X74922825Y-117514119D01*
X74679347Y-117439016D01*
X74679341Y-117439014D01*
X74427404Y-117401041D01*
X74172595Y-117401041D01*
X73920658Y-117439014D01*
X73920652Y-117439016D01*
X73677175Y-117514119D01*
X73447622Y-117624666D01*
X73447609Y-117624673D01*
X73286813Y-117734300D01*
X74090780Y-118538267D01*
X73997412Y-118576942D01*
X73872075Y-118673116D01*
X73775901Y-118798452D01*
X73737226Y-118891821D01*
X72933452Y-118088047D01*
X72891457Y-118140708D01*
X72764058Y-118361369D01*
X72670973Y-118598546D01*
X72670968Y-118598563D01*
X72614273Y-118846961D01*
X72595233Y-119101036D01*
X72595233Y-119101045D01*
X50782449Y-119101045D01*
X50782449Y-115715050D01*
X60148942Y-115715050D01*
X60156712Y-115813775D01*
X60157094Y-115823504D01*
X60157094Y-115844792D01*
X60160422Y-115865805D01*
X60161567Y-115875472D01*
X60163648Y-115901903D01*
X60169338Y-115974201D01*
X60169338Y-115974204D01*
X60169339Y-115974206D01*
X60192454Y-116070490D01*
X60194353Y-116080037D01*
X60197683Y-116101064D01*
X60204262Y-116121313D01*
X60206904Y-116130679D01*
X60230022Y-116226972D01*
X60267918Y-116318461D01*
X60271286Y-116327590D01*
X60277864Y-116347834D01*
X60287527Y-116366799D01*
X60291601Y-116375637D01*
X60329500Y-116467135D01*
X60381241Y-116551567D01*
X60385998Y-116560060D01*
X60395665Y-116579032D01*
X60408177Y-116596254D01*
X60413585Y-116604348D01*
X60465323Y-116688777D01*
X60465327Y-116688782D01*
X60529644Y-116764087D01*
X60535666Y-116771727D01*
X60544044Y-116783258D01*
X60548177Y-116788946D01*
X60563222Y-116803991D01*
X60569831Y-116811140D01*
X60634151Y-116886449D01*
X60709467Y-116950775D01*
X60716601Y-116957370D01*
X60731653Y-116972422D01*
X60731656Y-116972424D01*
X60748880Y-116984939D01*
X60756524Y-116990965D01*
X60831817Y-117055272D01*
X60831818Y-117055273D01*
X60851537Y-117067357D01*
X60916269Y-117107024D01*
X60924334Y-117112413D01*
X60941570Y-117124936D01*
X60960546Y-117134604D01*
X60969008Y-117139343D01*
X61053465Y-117191099D01*
X61144985Y-117229007D01*
X61153780Y-117233062D01*
X61172762Y-117242734D01*
X61193021Y-117249316D01*
X61202126Y-117252676D01*
X61238301Y-117267660D01*
X61293625Y-117290577D01*
X61293624Y-117290577D01*
X61322252Y-117297449D01*
X61389924Y-117313696D01*
X61399264Y-117316329D01*
X61419535Y-117322916D01*
X61440569Y-117326247D01*
X61450087Y-117328139D01*
X61546399Y-117351262D01*
X61645147Y-117359033D01*
X61654757Y-117360171D01*
X61675813Y-117363506D01*
X61675816Y-117363506D01*
X61697095Y-117363506D01*
X61706823Y-117363887D01*
X61805549Y-117371658D01*
X61904274Y-117363887D01*
X61914003Y-117363506D01*
X61935281Y-117363506D01*
X61935285Y-117363506D01*
X61956346Y-117360170D01*
X61965947Y-117359034D01*
X62064699Y-117351262D01*
X62161015Y-117328138D01*
X62170528Y-117326247D01*
X62191557Y-117322917D01*
X62191558Y-117322917D01*
X62191559Y-117322916D01*
X62191563Y-117322916D01*
X62211833Y-117316329D01*
X62221169Y-117313697D01*
X62284129Y-117298581D01*
X62317454Y-117290582D01*
X62317457Y-117290580D01*
X62317469Y-117290578D01*
X62408988Y-117252669D01*
X62418073Y-117249317D01*
X62438336Y-117242734D01*
X62457325Y-117233058D01*
X62466099Y-117229013D01*
X62557633Y-117191099D01*
X62642095Y-117139340D01*
X62650538Y-117134611D01*
X62669528Y-117124936D01*
X62686763Y-117112413D01*
X62694828Y-117107024D01*
X62779278Y-117055274D01*
X62854605Y-116990938D01*
X62862209Y-116984944D01*
X62879445Y-116972422D01*
X62894504Y-116957362D01*
X62901616Y-116950787D01*
X62976947Y-116886449D01*
X63041285Y-116811118D01*
X63047860Y-116804006D01*
X63062920Y-116788947D01*
X63075442Y-116771711D01*
X63081436Y-116764107D01*
X63145772Y-116688780D01*
X63197522Y-116604330D01*
X63202911Y-116596265D01*
X63215434Y-116579030D01*
X63225109Y-116560040D01*
X63229838Y-116551597D01*
X63281597Y-116467135D01*
X63319511Y-116375601D01*
X63323556Y-116366827D01*
X63333232Y-116347838D01*
X63339815Y-116327575D01*
X63343167Y-116318490D01*
X63381076Y-116226971D01*
X63404195Y-116130671D01*
X63406827Y-116121335D01*
X63413414Y-116101065D01*
X63416745Y-116080030D01*
X63418636Y-116070517D01*
X63441760Y-115974201D01*
X63449532Y-115875449D01*
X63450671Y-115865826D01*
X63454004Y-115844787D01*
X63454615Y-115813589D01*
X63454971Y-115806333D01*
X63462156Y-115715051D01*
X63462156Y-115715050D01*
X98248942Y-115715050D01*
X98256712Y-115813775D01*
X98257094Y-115823504D01*
X98257094Y-115844792D01*
X98260422Y-115865805D01*
X98261567Y-115875472D01*
X98263648Y-115901903D01*
X98269338Y-115974201D01*
X98269338Y-115974204D01*
X98269339Y-115974206D01*
X98292454Y-116070490D01*
X98294353Y-116080037D01*
X98297683Y-116101064D01*
X98304262Y-116121313D01*
X98306904Y-116130679D01*
X98330022Y-116226972D01*
X98367918Y-116318461D01*
X98371286Y-116327590D01*
X98377864Y-116347834D01*
X98387527Y-116366799D01*
X98391601Y-116375637D01*
X98429500Y-116467135D01*
X98481241Y-116551567D01*
X98485998Y-116560060D01*
X98495665Y-116579032D01*
X98508177Y-116596254D01*
X98513585Y-116604348D01*
X98565323Y-116688777D01*
X98565327Y-116688782D01*
X98629644Y-116764087D01*
X98635666Y-116771727D01*
X98644044Y-116783258D01*
X98648177Y-116788946D01*
X98663222Y-116803991D01*
X98669831Y-116811140D01*
X98734151Y-116886449D01*
X98809467Y-116950775D01*
X98816601Y-116957370D01*
X98831653Y-116972422D01*
X98831656Y-116972424D01*
X98848880Y-116984939D01*
X98856524Y-116990965D01*
X98931817Y-117055272D01*
X98931818Y-117055273D01*
X98951537Y-117067357D01*
X99016269Y-117107024D01*
X99024334Y-117112413D01*
X99041570Y-117124936D01*
X99060546Y-117134604D01*
X99069008Y-117139343D01*
X99153465Y-117191099D01*
X99244985Y-117229007D01*
X99253780Y-117233062D01*
X99272762Y-117242734D01*
X99293021Y-117249316D01*
X99302126Y-117252676D01*
X99338301Y-117267660D01*
X99393625Y-117290577D01*
X99393624Y-117290577D01*
X99422252Y-117297449D01*
X99489924Y-117313696D01*
X99499264Y-117316329D01*
X99519535Y-117322916D01*
X99540569Y-117326247D01*
X99550087Y-117328139D01*
X99646399Y-117351262D01*
X99745147Y-117359033D01*
X99754757Y-117360171D01*
X99775813Y-117363506D01*
X99775816Y-117363506D01*
X99797095Y-117363506D01*
X99806823Y-117363887D01*
X99905549Y-117371658D01*
X100004274Y-117363887D01*
X100014003Y-117363506D01*
X100035281Y-117363506D01*
X100035285Y-117363506D01*
X100056346Y-117360170D01*
X100065947Y-117359034D01*
X100164699Y-117351262D01*
X100261015Y-117328138D01*
X100270528Y-117326247D01*
X100291557Y-117322917D01*
X100291558Y-117322917D01*
X100291559Y-117322916D01*
X100291563Y-117322916D01*
X100311833Y-117316329D01*
X100321169Y-117313697D01*
X100384129Y-117298581D01*
X100417454Y-117290582D01*
X100417457Y-117290580D01*
X100417469Y-117290578D01*
X100508988Y-117252669D01*
X100518073Y-117249317D01*
X100538336Y-117242734D01*
X100557325Y-117233058D01*
X100566099Y-117229013D01*
X100657633Y-117191099D01*
X100742095Y-117139340D01*
X100750538Y-117134611D01*
X100769528Y-117124936D01*
X100786763Y-117112413D01*
X100794828Y-117107024D01*
X100879278Y-117055274D01*
X100954605Y-116990938D01*
X100962209Y-116984944D01*
X100979445Y-116972422D01*
X100994504Y-116957362D01*
X101001616Y-116950787D01*
X101076947Y-116886449D01*
X101116618Y-116840000D01*
X105839612Y-116840000D01*
X105859122Y-117038095D01*
X105916904Y-117228574D01*
X106010732Y-117404114D01*
X106010736Y-117404121D01*
X106137012Y-117557988D01*
X106290879Y-117684264D01*
X106290886Y-117684268D01*
X106466426Y-117778096D01*
X106466428Y-117778097D01*
X106656908Y-117835879D01*
X106855001Y-117855389D01*
X107053094Y-117835879D01*
X107243574Y-117778097D01*
X107419121Y-117684265D01*
X107463500Y-117647844D01*
X108595000Y-117647844D01*
X108601401Y-117707372D01*
X108601403Y-117707379D01*
X108651645Y-117842086D01*
X108651649Y-117842093D01*
X108737809Y-117957187D01*
X108737812Y-117957190D01*
X108852906Y-118043350D01*
X108852913Y-118043354D01*
X108987620Y-118093596D01*
X108987627Y-118093598D01*
X109047155Y-118099999D01*
X109047172Y-118100000D01*
X109605000Y-118100000D01*
X109605000Y-117286494D01*
X109709839Y-117334373D01*
X109818527Y-117350000D01*
X109891473Y-117350000D01*
X110000161Y-117334373D01*
X110105000Y-117286494D01*
X110105000Y-118100000D01*
X110662828Y-118100000D01*
X110662844Y-118099999D01*
X110722372Y-118093598D01*
X110722379Y-118093596D01*
X110857086Y-118043354D01*
X110857093Y-118043350D01*
X110972187Y-117957190D01*
X110972190Y-117957187D01*
X111058350Y-117842093D01*
X111058354Y-117842086D01*
X111108596Y-117707379D01*
X111108598Y-117707372D01*
X111114999Y-117647844D01*
X111115000Y-117647827D01*
X111115000Y-117090000D01*
X110300572Y-117090000D01*
X110323682Y-117054040D01*
X110365000Y-116913327D01*
X110365000Y-116766673D01*
X110323682Y-116625960D01*
X110300572Y-116590000D01*
X111115000Y-116590000D01*
X111115000Y-116032172D01*
X111114999Y-116032155D01*
X111108598Y-115972627D01*
X111108596Y-115972620D01*
X111058354Y-115837913D01*
X111058350Y-115837906D01*
X110972190Y-115722812D01*
X110972187Y-115722809D01*
X110857093Y-115636649D01*
X110857086Y-115636645D01*
X110722379Y-115586403D01*
X110722372Y-115586401D01*
X110662844Y-115580000D01*
X110105000Y-115580000D01*
X110105000Y-116393505D01*
X110000161Y-116345627D01*
X109891473Y-116330000D01*
X109818527Y-116330000D01*
X109709839Y-116345627D01*
X109605000Y-116393505D01*
X109605000Y-115580000D01*
X109047155Y-115580000D01*
X108987627Y-115586401D01*
X108987620Y-115586403D01*
X108852913Y-115636645D01*
X108852906Y-115636649D01*
X108737812Y-115722809D01*
X108737809Y-115722812D01*
X108651649Y-115837906D01*
X108651645Y-115837913D01*
X108601403Y-115972620D01*
X108601401Y-115972627D01*
X108595000Y-116032155D01*
X108595000Y-116590000D01*
X109409428Y-116590000D01*
X109386318Y-116625960D01*
X109345000Y-116766673D01*
X109345000Y-116913327D01*
X109386318Y-117054040D01*
X109409428Y-117090000D01*
X108595000Y-117090000D01*
X108595000Y-117647844D01*
X107463500Y-117647844D01*
X107572989Y-117557988D01*
X107699266Y-117404120D01*
X107793098Y-117228573D01*
X107850880Y-117038093D01*
X107870390Y-116840000D01*
X107850880Y-116641907D01*
X107793098Y-116451427D01*
X107769110Y-116406549D01*
X107699269Y-116275885D01*
X107699265Y-116275878D01*
X107572989Y-116122011D01*
X107419122Y-115995735D01*
X107419115Y-115995731D01*
X107243575Y-115901903D01*
X107053096Y-115844121D01*
X106855001Y-115824611D01*
X106656905Y-115844121D01*
X106466426Y-115901903D01*
X106290886Y-115995731D01*
X106290879Y-115995735D01*
X106137012Y-116122011D01*
X106010736Y-116275878D01*
X106010732Y-116275885D01*
X105916904Y-116451425D01*
X105859122Y-116641904D01*
X105839612Y-116840000D01*
X101116618Y-116840000D01*
X101141285Y-116811118D01*
X101147860Y-116804006D01*
X101162920Y-116788947D01*
X101175442Y-116771711D01*
X101181436Y-116764107D01*
X101245772Y-116688780D01*
X101297522Y-116604330D01*
X101302911Y-116596265D01*
X101315434Y-116579030D01*
X101325109Y-116560040D01*
X101329838Y-116551597D01*
X101381597Y-116467135D01*
X101419511Y-116375601D01*
X101423556Y-116366827D01*
X101433232Y-116347838D01*
X101439815Y-116327575D01*
X101443167Y-116318490D01*
X101481076Y-116226971D01*
X101504195Y-116130671D01*
X101506827Y-116121335D01*
X101513414Y-116101065D01*
X101516745Y-116080030D01*
X101518636Y-116070517D01*
X101541760Y-115974201D01*
X101549532Y-115875449D01*
X101550671Y-115865826D01*
X101554004Y-115844787D01*
X101554615Y-115813589D01*
X101554971Y-115806333D01*
X101562156Y-115715051D01*
X101554971Y-115623769D01*
X101554615Y-115616510D01*
X101554004Y-115585315D01*
X101550669Y-115564259D01*
X101549530Y-115554630D01*
X101541760Y-115455901D01*
X101518637Y-115359589D01*
X101516745Y-115350070D01*
X101513414Y-115329037D01*
X101506827Y-115308766D01*
X101504191Y-115299415D01*
X101481075Y-115203126D01*
X101443178Y-115111638D01*
X101439814Y-115102523D01*
X101433232Y-115082264D01*
X101423560Y-115063282D01*
X101419505Y-115054487D01*
X101381597Y-114962967D01*
X101329841Y-114878510D01*
X101325102Y-114870048D01*
X101315434Y-114851072D01*
X101302911Y-114833836D01*
X101297522Y-114825771D01*
X101257855Y-114761039D01*
X101245771Y-114741320D01*
X101245770Y-114741319D01*
X101181463Y-114666026D01*
X101175437Y-114658382D01*
X101165167Y-114644249D01*
X101162920Y-114641155D01*
X101147865Y-114626100D01*
X101141273Y-114618969D01*
X101076947Y-114543653D01*
X101001638Y-114479333D01*
X100994489Y-114472724D01*
X100979444Y-114457679D01*
X100973756Y-114453546D01*
X100962225Y-114445168D01*
X100954585Y-114439146D01*
X100879280Y-114374829D01*
X100879275Y-114374825D01*
X100794846Y-114323087D01*
X100786752Y-114317679D01*
X100769530Y-114305167D01*
X100750558Y-114295500D01*
X100742065Y-114290743D01*
X100657633Y-114239002D01*
X100566135Y-114201103D01*
X100557297Y-114197029D01*
X100538332Y-114187366D01*
X100518088Y-114180788D01*
X100508959Y-114177420D01*
X100417470Y-114139524D01*
X100321177Y-114116406D01*
X100311811Y-114113764D01*
X100291561Y-114107185D01*
X100291564Y-114107185D01*
X100270535Y-114103855D01*
X100260988Y-114101956D01*
X100164703Y-114078841D01*
X100164704Y-114078841D01*
X100164702Y-114078840D01*
X100164699Y-114078840D01*
X100118400Y-114075196D01*
X100065970Y-114071069D01*
X100056303Y-114069924D01*
X100035290Y-114066596D01*
X100035285Y-114066596D01*
X100014003Y-114066596D01*
X100004274Y-114066214D01*
X99905549Y-114058444D01*
X99806824Y-114066214D01*
X99797095Y-114066596D01*
X99775814Y-114066596D01*
X99775813Y-114066596D01*
X99759512Y-114069177D01*
X99754794Y-114069925D01*
X99745128Y-114071069D01*
X99646398Y-114078840D01*
X99646388Y-114078842D01*
X99550110Y-114101955D01*
X99540568Y-114103853D01*
X99519545Y-114107183D01*
X99519529Y-114107187D01*
X99499292Y-114113763D01*
X99489921Y-114116406D01*
X99393629Y-114139523D01*
X99302132Y-114177422D01*
X99293006Y-114180789D01*
X99272766Y-114187366D01*
X99272757Y-114187370D01*
X99253797Y-114197030D01*
X99244962Y-114201103D01*
X99153461Y-114239004D01*
X99069019Y-114290749D01*
X99060534Y-114295502D01*
X99041572Y-114305164D01*
X99041558Y-114305173D01*
X99024347Y-114317677D01*
X99016259Y-114323081D01*
X98931832Y-114374819D01*
X98931820Y-114374828D01*
X98856516Y-114439142D01*
X98848877Y-114445164D01*
X98831658Y-114457675D01*
X98831655Y-114457678D01*
X98816598Y-114472734D01*
X98809454Y-114479337D01*
X98734151Y-114543653D01*
X98669835Y-114618956D01*
X98663232Y-114626100D01*
X98648176Y-114641157D01*
X98648173Y-114641160D01*
X98635662Y-114658379D01*
X98629640Y-114666018D01*
X98565326Y-114741322D01*
X98565317Y-114741334D01*
X98513579Y-114825761D01*
X98508175Y-114833849D01*
X98495671Y-114851060D01*
X98495662Y-114851074D01*
X98486000Y-114870036D01*
X98481247Y-114878521D01*
X98429502Y-114962963D01*
X98391601Y-115054464D01*
X98387528Y-115063299D01*
X98377868Y-115082259D01*
X98377864Y-115082268D01*
X98371287Y-115102508D01*
X98367920Y-115111634D01*
X98330021Y-115203131D01*
X98306904Y-115299423D01*
X98304261Y-115308794D01*
X98297685Y-115329031D01*
X98297681Y-115329047D01*
X98294351Y-115350070D01*
X98292453Y-115359612D01*
X98269340Y-115455890D01*
X98269338Y-115455900D01*
X98261567Y-115554630D01*
X98260423Y-115564296D01*
X98257094Y-115585315D01*
X98257094Y-115606596D01*
X98256712Y-115616325D01*
X98248942Y-115715050D01*
X63462156Y-115715050D01*
X63454971Y-115623769D01*
X63454615Y-115616510D01*
X63454004Y-115585315D01*
X63450669Y-115564259D01*
X63449530Y-115554630D01*
X63441760Y-115455901D01*
X63418637Y-115359589D01*
X63416745Y-115350070D01*
X63413414Y-115329037D01*
X63412336Y-115325719D01*
X72849500Y-115325719D01*
X72864032Y-115398776D01*
X72864033Y-115398780D01*
X72864034Y-115398781D01*
X72919399Y-115481642D01*
X73002260Y-115537007D01*
X73002264Y-115537008D01*
X73075321Y-115551540D01*
X73075324Y-115551541D01*
X73075326Y-115551541D01*
X75524676Y-115551541D01*
X75524677Y-115551540D01*
X75597740Y-115537007D01*
X75680601Y-115481642D01*
X75735966Y-115398781D01*
X75750500Y-115325715D01*
X75750500Y-113840001D01*
X82786560Y-113840001D01*
X82806070Y-114038096D01*
X82863852Y-114228575D01*
X82957680Y-114404115D01*
X82957684Y-114404122D01*
X83083960Y-114557989D01*
X83237827Y-114684265D01*
X83237834Y-114684269D01*
X83413374Y-114778097D01*
X83413376Y-114778098D01*
X83603856Y-114835880D01*
X83801949Y-114855390D01*
X84000042Y-114835880D01*
X84190522Y-114778098D01*
X84366069Y-114684266D01*
X84519937Y-114557989D01*
X84646214Y-114404121D01*
X84740046Y-114228574D01*
X84797828Y-114038094D01*
X84817338Y-113840001D01*
X105839612Y-113840001D01*
X105859122Y-114038096D01*
X105916904Y-114228575D01*
X106010732Y-114404115D01*
X106010736Y-114404122D01*
X106137012Y-114557989D01*
X106290879Y-114684265D01*
X106290886Y-114684269D01*
X106466426Y-114778097D01*
X106466428Y-114778098D01*
X106656908Y-114835880D01*
X106855001Y-114855390D01*
X107053094Y-114835880D01*
X107243574Y-114778098D01*
X107419121Y-114684266D01*
X107572989Y-114557989D01*
X107699266Y-114404121D01*
X107793098Y-114228574D01*
X107850880Y-114038094D01*
X107870390Y-113840001D01*
X108839611Y-113840001D01*
X108859121Y-114038096D01*
X108916903Y-114228575D01*
X109010731Y-114404115D01*
X109010735Y-114404122D01*
X109137011Y-114557989D01*
X109290878Y-114684265D01*
X109290885Y-114684269D01*
X109466425Y-114778097D01*
X109466427Y-114778098D01*
X109656907Y-114835880D01*
X109855000Y-114855390D01*
X110053093Y-114835880D01*
X110243573Y-114778098D01*
X110419120Y-114684266D01*
X110572988Y-114557989D01*
X110699265Y-114404121D01*
X110793097Y-114228574D01*
X110850879Y-114038094D01*
X110870389Y-113840001D01*
X110850879Y-113641908D01*
X110793097Y-113451428D01*
X110699265Y-113275881D01*
X110699264Y-113275879D01*
X110572988Y-113122012D01*
X110419121Y-112995736D01*
X110419114Y-112995732D01*
X110243574Y-112901904D01*
X110053095Y-112844122D01*
X109855000Y-112824612D01*
X109656904Y-112844122D01*
X109466425Y-112901904D01*
X109290885Y-112995732D01*
X109290878Y-112995736D01*
X109137011Y-113122012D01*
X109010735Y-113275879D01*
X109010731Y-113275886D01*
X108916903Y-113451426D01*
X108859121Y-113641905D01*
X108839611Y-113840001D01*
X107870390Y-113840001D01*
X107850880Y-113641908D01*
X107793098Y-113451428D01*
X107699266Y-113275881D01*
X107699265Y-113275879D01*
X107572989Y-113122012D01*
X107419122Y-112995736D01*
X107419115Y-112995732D01*
X107243575Y-112901904D01*
X107053096Y-112844122D01*
X106855001Y-112824612D01*
X106656905Y-112844122D01*
X106466426Y-112901904D01*
X106290886Y-112995732D01*
X106290879Y-112995736D01*
X106137012Y-113122012D01*
X106010736Y-113275879D01*
X106010732Y-113275886D01*
X105916904Y-113451426D01*
X105859122Y-113641905D01*
X105839612Y-113840001D01*
X84817338Y-113840001D01*
X84797828Y-113641908D01*
X84740046Y-113451428D01*
X84646214Y-113275881D01*
X84646213Y-113275879D01*
X84519937Y-113122012D01*
X84366070Y-112995736D01*
X84366063Y-112995732D01*
X84190523Y-112901904D01*
X84000044Y-112844122D01*
X83801949Y-112824612D01*
X83603853Y-112844122D01*
X83413374Y-112901904D01*
X83237834Y-112995732D01*
X83237827Y-112995736D01*
X83083960Y-113122012D01*
X82957684Y-113275879D01*
X82957680Y-113275886D01*
X82863852Y-113451426D01*
X82806070Y-113641905D01*
X82786560Y-113840001D01*
X75750500Y-113840001D01*
X75750500Y-112876367D01*
X75750500Y-112876364D01*
X75750499Y-112876362D01*
X75735967Y-112803305D01*
X75735966Y-112803301D01*
X75680601Y-112720440D01*
X75597740Y-112665075D01*
X75597739Y-112665074D01*
X75597735Y-112665073D01*
X75524677Y-112650541D01*
X75524674Y-112650541D01*
X73075326Y-112650541D01*
X73075323Y-112650541D01*
X73002264Y-112665073D01*
X73002260Y-112665074D01*
X72919399Y-112720440D01*
X72864033Y-112803301D01*
X72864032Y-112803305D01*
X72849500Y-112876362D01*
X72849500Y-115325719D01*
X63412336Y-115325719D01*
X63406827Y-115308766D01*
X63404191Y-115299415D01*
X63381075Y-115203126D01*
X63343178Y-115111638D01*
X63339814Y-115102523D01*
X63333232Y-115082264D01*
X63323560Y-115063282D01*
X63319505Y-115054487D01*
X63281597Y-114962967D01*
X63229841Y-114878510D01*
X63225102Y-114870048D01*
X63215434Y-114851072D01*
X63202911Y-114833836D01*
X63197522Y-114825771D01*
X63157855Y-114761039D01*
X63145771Y-114741320D01*
X63145770Y-114741319D01*
X63081463Y-114666026D01*
X63075437Y-114658382D01*
X63065167Y-114644249D01*
X63062920Y-114641155D01*
X63047865Y-114626100D01*
X63041273Y-114618969D01*
X62976947Y-114543653D01*
X62901638Y-114479333D01*
X62894489Y-114472724D01*
X62879444Y-114457679D01*
X62873756Y-114453546D01*
X62862225Y-114445168D01*
X62854585Y-114439146D01*
X62779280Y-114374829D01*
X62779275Y-114374825D01*
X62694846Y-114323087D01*
X62686752Y-114317679D01*
X62669530Y-114305167D01*
X62650558Y-114295500D01*
X62642065Y-114290743D01*
X62557633Y-114239002D01*
X62466135Y-114201103D01*
X62457297Y-114197029D01*
X62438332Y-114187366D01*
X62418088Y-114180788D01*
X62408959Y-114177420D01*
X62317470Y-114139524D01*
X62221177Y-114116406D01*
X62211811Y-114113764D01*
X62191561Y-114107185D01*
X62191564Y-114107185D01*
X62170535Y-114103855D01*
X62160988Y-114101956D01*
X62064703Y-114078841D01*
X62064704Y-114078841D01*
X62064702Y-114078840D01*
X62064699Y-114078840D01*
X62018400Y-114075196D01*
X61965970Y-114071069D01*
X61956303Y-114069924D01*
X61935290Y-114066596D01*
X61935285Y-114066596D01*
X61914003Y-114066596D01*
X61904274Y-114066214D01*
X61805549Y-114058444D01*
X61706824Y-114066214D01*
X61697095Y-114066596D01*
X61675814Y-114066596D01*
X61675813Y-114066596D01*
X61659512Y-114069177D01*
X61654794Y-114069925D01*
X61645128Y-114071069D01*
X61546398Y-114078840D01*
X61546388Y-114078842D01*
X61450110Y-114101955D01*
X61440568Y-114103853D01*
X61419545Y-114107183D01*
X61419529Y-114107187D01*
X61399292Y-114113763D01*
X61389921Y-114116406D01*
X61293629Y-114139523D01*
X61202132Y-114177422D01*
X61193006Y-114180789D01*
X61172766Y-114187366D01*
X61172757Y-114187370D01*
X61153797Y-114197030D01*
X61144962Y-114201103D01*
X61053461Y-114239004D01*
X60969019Y-114290749D01*
X60960534Y-114295502D01*
X60941572Y-114305164D01*
X60941558Y-114305173D01*
X60924347Y-114317677D01*
X60916259Y-114323081D01*
X60831832Y-114374819D01*
X60831820Y-114374828D01*
X60756516Y-114439142D01*
X60748877Y-114445164D01*
X60731658Y-114457675D01*
X60731655Y-114457678D01*
X60716598Y-114472734D01*
X60709454Y-114479337D01*
X60634151Y-114543653D01*
X60569835Y-114618956D01*
X60563232Y-114626100D01*
X60548176Y-114641157D01*
X60548173Y-114641160D01*
X60535662Y-114658379D01*
X60529640Y-114666018D01*
X60465326Y-114741322D01*
X60465317Y-114741334D01*
X60413579Y-114825761D01*
X60408175Y-114833849D01*
X60395671Y-114851060D01*
X60395662Y-114851074D01*
X60386000Y-114870036D01*
X60381247Y-114878521D01*
X60329502Y-114962963D01*
X60291601Y-115054464D01*
X60287528Y-115063299D01*
X60277868Y-115082259D01*
X60277864Y-115082268D01*
X60271287Y-115102508D01*
X60267920Y-115111634D01*
X60230021Y-115203131D01*
X60206904Y-115299423D01*
X60204261Y-115308794D01*
X60197685Y-115329031D01*
X60197681Y-115329047D01*
X60194351Y-115350070D01*
X60192453Y-115359612D01*
X60169340Y-115455890D01*
X60169338Y-115455900D01*
X60161567Y-115554630D01*
X60160423Y-115564296D01*
X60157094Y-115585315D01*
X60157094Y-115606596D01*
X60156712Y-115616325D01*
X60148942Y-115715050D01*
X50782449Y-115715050D01*
X50782449Y-110490000D01*
X101729353Y-110490000D01*
X101749834Y-110632456D01*
X101809622Y-110763371D01*
X101809623Y-110763373D01*
X101903872Y-110872143D01*
X102024947Y-110949953D01*
X102024950Y-110949954D01*
X102024949Y-110949954D01*
X102163036Y-110990499D01*
X102163038Y-110990500D01*
X102163039Y-110990500D01*
X102306962Y-110990500D01*
X102306962Y-110990499D01*
X102445053Y-110949953D01*
X102566128Y-110872143D01*
X102660377Y-110763373D01*
X102720165Y-110632457D01*
X102740647Y-110490000D01*
X102720165Y-110347543D01*
X102660377Y-110216627D01*
X102566128Y-110107857D01*
X102445053Y-110030047D01*
X102445051Y-110030046D01*
X102445049Y-110030045D01*
X102445050Y-110030045D01*
X102306963Y-109989500D01*
X102306961Y-109989500D01*
X102163039Y-109989500D01*
X102163036Y-109989500D01*
X102024949Y-110030045D01*
X101903873Y-110107856D01*
X101809623Y-110216626D01*
X101809622Y-110216628D01*
X101749834Y-110347543D01*
X101729353Y-110490000D01*
X50782449Y-110490000D01*
X50782449Y-109585551D01*
X55416302Y-109585551D01*
X55436783Y-109728007D01*
X55496571Y-109858922D01*
X55496572Y-109858924D01*
X55590821Y-109967694D01*
X55711896Y-110045504D01*
X55711899Y-110045505D01*
X55711898Y-110045505D01*
X55849985Y-110086050D01*
X55849987Y-110086051D01*
X55849988Y-110086051D01*
X55993911Y-110086051D01*
X55993911Y-110086050D01*
X56132002Y-110045504D01*
X56253077Y-109967694D01*
X56335085Y-109873051D01*
X114411302Y-109873051D01*
X114431783Y-110015507D01*
X114445483Y-110045505D01*
X114491572Y-110146424D01*
X114585821Y-110255194D01*
X114706896Y-110333004D01*
X114706899Y-110333005D01*
X114706898Y-110333005D01*
X114844985Y-110373550D01*
X114844987Y-110373551D01*
X114844988Y-110373551D01*
X114988911Y-110373551D01*
X114988911Y-110373550D01*
X115127002Y-110333004D01*
X115248077Y-110255194D01*
X115342326Y-110146424D01*
X115402114Y-110015508D01*
X115422596Y-109873051D01*
X115402114Y-109730594D01*
X115342326Y-109599678D01*
X115248077Y-109490908D01*
X115127002Y-109413098D01*
X115127000Y-109413097D01*
X115126998Y-109413096D01*
X115126999Y-109413096D01*
X114988912Y-109372551D01*
X114988910Y-109372551D01*
X114844988Y-109372551D01*
X114844985Y-109372551D01*
X114706898Y-109413096D01*
X114585822Y-109490907D01*
X114491572Y-109599677D01*
X114491571Y-109599679D01*
X114431783Y-109730594D01*
X114411302Y-109873051D01*
X56335085Y-109873051D01*
X56347326Y-109858924D01*
X56407114Y-109728008D01*
X56427596Y-109585551D01*
X56407114Y-109443094D01*
X56347326Y-109312178D01*
X56283095Y-109238051D01*
X122031302Y-109238051D01*
X122051783Y-109380507D01*
X122111571Y-109511422D01*
X122111572Y-109511424D01*
X122205821Y-109620194D01*
X122326896Y-109698004D01*
X122326899Y-109698005D01*
X122326898Y-109698005D01*
X122464985Y-109738550D01*
X122464987Y-109738551D01*
X122464988Y-109738551D01*
X122608911Y-109738551D01*
X122608911Y-109738550D01*
X122747002Y-109698004D01*
X122868077Y-109620194D01*
X122962326Y-109511424D01*
X123022114Y-109380508D01*
X123042596Y-109238051D01*
X123022114Y-109095594D01*
X122962326Y-108964678D01*
X122868077Y-108855908D01*
X122747002Y-108778098D01*
X122747000Y-108778097D01*
X122746998Y-108778096D01*
X122746999Y-108778096D01*
X122608912Y-108737551D01*
X122608910Y-108737551D01*
X122464988Y-108737551D01*
X122464985Y-108737551D01*
X122326898Y-108778096D01*
X122205822Y-108855907D01*
X122111572Y-108964677D01*
X122111571Y-108964679D01*
X122051783Y-109095594D01*
X122031302Y-109238051D01*
X56283095Y-109238051D01*
X56253077Y-109203408D01*
X56245622Y-109198617D01*
X56199867Y-109145816D01*
X56189922Y-109076657D01*
X56218945Y-109013101D01*
X56245621Y-108989985D01*
X56253077Y-108985194D01*
X56347326Y-108876424D01*
X56407114Y-108745508D01*
X56427596Y-108603051D01*
X114411302Y-108603051D01*
X114431783Y-108745507D01*
X114491571Y-108876422D01*
X114491572Y-108876424D01*
X114585821Y-108985194D01*
X114706896Y-109063004D01*
X114706899Y-109063005D01*
X114706898Y-109063005D01*
X114844985Y-109103550D01*
X114844987Y-109103551D01*
X114844988Y-109103551D01*
X114988911Y-109103551D01*
X114988911Y-109103550D01*
X115127002Y-109063004D01*
X115248077Y-108985194D01*
X115342326Y-108876424D01*
X115402114Y-108745508D01*
X115422596Y-108603051D01*
X115402114Y-108460594D01*
X115342326Y-108329678D01*
X115248077Y-108220908D01*
X115127002Y-108143098D01*
X115127000Y-108143097D01*
X115126998Y-108143096D01*
X115126999Y-108143096D01*
X114988912Y-108102551D01*
X114988910Y-108102551D01*
X114844988Y-108102551D01*
X114844985Y-108102551D01*
X114706898Y-108143096D01*
X114585822Y-108220907D01*
X114491572Y-108329677D01*
X114491571Y-108329679D01*
X114431783Y-108460594D01*
X114411302Y-108603051D01*
X56427596Y-108603051D01*
X56407114Y-108460594D01*
X56347326Y-108329678D01*
X56253077Y-108220908D01*
X56132002Y-108143098D01*
X56132000Y-108143097D01*
X56131998Y-108143096D01*
X56131999Y-108143096D01*
X55993912Y-108102551D01*
X55993910Y-108102551D01*
X55849988Y-108102551D01*
X55849985Y-108102551D01*
X55711898Y-108143096D01*
X55590822Y-108220907D01*
X55496572Y-108329677D01*
X55496571Y-108329679D01*
X55436783Y-108460594D01*
X55416302Y-108603051D01*
X55436783Y-108745507D01*
X55496571Y-108876422D01*
X55496572Y-108876424D01*
X55590821Y-108985194D01*
X55590823Y-108985195D01*
X55598277Y-108989986D01*
X55644032Y-109042790D01*
X55653975Y-109111948D01*
X55624950Y-109175504D01*
X55598277Y-109198616D01*
X55590823Y-109203406D01*
X55496572Y-109312177D01*
X55496571Y-109312179D01*
X55436783Y-109443094D01*
X55416302Y-109585551D01*
X50782449Y-109585551D01*
X50782449Y-107968051D01*
X122031302Y-107968051D01*
X122051783Y-108110507D01*
X122111571Y-108241422D01*
X122111572Y-108241424D01*
X122205821Y-108350194D01*
X122326896Y-108428004D01*
X122326899Y-108428005D01*
X122326898Y-108428005D01*
X122464985Y-108468550D01*
X122464987Y-108468551D01*
X122464988Y-108468551D01*
X122608911Y-108468551D01*
X122608911Y-108468550D01*
X122747002Y-108428004D01*
X122868077Y-108350194D01*
X122962326Y-108241424D01*
X123022114Y-108110508D01*
X123042596Y-107968051D01*
X123022114Y-107825594D01*
X122962326Y-107694678D01*
X122868077Y-107585908D01*
X122747002Y-107508098D01*
X122747000Y-107508097D01*
X122746998Y-107508096D01*
X122746999Y-107508096D01*
X122608912Y-107467551D01*
X122608910Y-107467551D01*
X122464988Y-107467551D01*
X122464985Y-107467551D01*
X122326898Y-107508096D01*
X122205822Y-107585907D01*
X122111572Y-107694677D01*
X122111571Y-107694679D01*
X122051783Y-107825594D01*
X122031302Y-107968051D01*
X50782449Y-107968051D01*
X50782449Y-107333051D01*
X65516302Y-107333051D01*
X65536783Y-107475507D01*
X65596571Y-107606422D01*
X65596572Y-107606424D01*
X65690821Y-107715194D01*
X65811896Y-107793004D01*
X65811899Y-107793005D01*
X65811898Y-107793005D01*
X65949985Y-107833550D01*
X65949987Y-107833551D01*
X65949988Y-107833551D01*
X66093911Y-107833551D01*
X66093911Y-107833550D01*
X66232002Y-107793004D01*
X66353077Y-107715194D01*
X66447326Y-107606424D01*
X66507114Y-107475508D01*
X66527596Y-107333051D01*
X114411302Y-107333051D01*
X114431783Y-107475507D01*
X114491571Y-107606422D01*
X114491572Y-107606424D01*
X114585821Y-107715194D01*
X114706896Y-107793004D01*
X114706899Y-107793005D01*
X114706898Y-107793005D01*
X114844985Y-107833550D01*
X114844987Y-107833551D01*
X114844988Y-107833551D01*
X114988911Y-107833551D01*
X114988911Y-107833550D01*
X115127002Y-107793004D01*
X115248077Y-107715194D01*
X115342326Y-107606424D01*
X115402114Y-107475508D01*
X115422596Y-107333051D01*
X115402114Y-107190594D01*
X115342326Y-107059678D01*
X115248077Y-106950908D01*
X115127002Y-106873098D01*
X115127000Y-106873097D01*
X115126998Y-106873096D01*
X115126999Y-106873096D01*
X114988912Y-106832551D01*
X114988910Y-106832551D01*
X114844988Y-106832551D01*
X114844985Y-106832551D01*
X114706898Y-106873096D01*
X114585822Y-106950907D01*
X114491572Y-107059677D01*
X114491571Y-107059679D01*
X114431783Y-107190594D01*
X114411302Y-107333051D01*
X66527596Y-107333051D01*
X66507114Y-107190594D01*
X66447326Y-107059678D01*
X66353077Y-106950908D01*
X66232002Y-106873098D01*
X66232000Y-106873097D01*
X66231998Y-106873096D01*
X66231999Y-106873096D01*
X66093912Y-106832551D01*
X66093910Y-106832551D01*
X65949988Y-106832551D01*
X65949985Y-106832551D01*
X65811898Y-106873096D01*
X65690822Y-106950907D01*
X65596572Y-107059677D01*
X65596571Y-107059679D01*
X65536783Y-107190594D01*
X65516302Y-107333051D01*
X50782449Y-107333051D01*
X50782449Y-105896329D01*
X69925249Y-105896329D01*
X69939781Y-105969386D01*
X69939782Y-105969390D01*
X69939783Y-105969391D01*
X69995148Y-106052252D01*
X70078009Y-106107617D01*
X70078013Y-106107618D01*
X70151070Y-106122150D01*
X70151073Y-106122151D01*
X70151075Y-106122151D01*
X71900425Y-106122151D01*
X71900426Y-106122150D01*
X71973489Y-106107617D01*
X72056350Y-106052252D01*
X72111715Y-105969391D01*
X72126249Y-105896325D01*
X72126249Y-105021651D01*
X72460534Y-105021651D01*
X72479351Y-105224733D01*
X72535166Y-105420898D01*
X72535171Y-105420911D01*
X72626076Y-105603472D01*
X72748986Y-105766232D01*
X72899707Y-105903631D01*
X72899709Y-105903633D01*
X72998890Y-105965043D01*
X73073112Y-106010999D01*
X73263293Y-106084675D01*
X73463773Y-106122151D01*
X73463775Y-106122151D01*
X73667723Y-106122151D01*
X73667725Y-106122151D01*
X73868205Y-106084675D01*
X74058386Y-106010999D01*
X74231790Y-105903632D01*
X74239801Y-105896329D01*
X80085249Y-105896329D01*
X80099781Y-105969386D01*
X80099782Y-105969390D01*
X80099783Y-105969391D01*
X80155148Y-106052252D01*
X80238009Y-106107617D01*
X80238013Y-106107618D01*
X80311070Y-106122150D01*
X80311073Y-106122151D01*
X80311075Y-106122151D01*
X82060425Y-106122151D01*
X82060426Y-106122150D01*
X82133489Y-106107617D01*
X82216350Y-106052252D01*
X82271715Y-105969391D01*
X82286249Y-105896325D01*
X82286249Y-105021651D01*
X82620534Y-105021651D01*
X82639351Y-105224733D01*
X82695166Y-105420898D01*
X82695171Y-105420911D01*
X82786076Y-105603472D01*
X82908986Y-105766232D01*
X83059707Y-105903631D01*
X83059709Y-105903633D01*
X83158890Y-105965043D01*
X83233112Y-106010999D01*
X83423293Y-106084675D01*
X83623773Y-106122151D01*
X83623775Y-106122151D01*
X83827723Y-106122151D01*
X83827725Y-106122151D01*
X84028205Y-106084675D01*
X84218386Y-106010999D01*
X84391790Y-105903632D01*
X84399801Y-105896329D01*
X90245249Y-105896329D01*
X90259781Y-105969386D01*
X90259782Y-105969390D01*
X90259783Y-105969391D01*
X90315148Y-106052252D01*
X90398009Y-106107617D01*
X90398013Y-106107618D01*
X90471070Y-106122150D01*
X90471073Y-106122151D01*
X90471075Y-106122151D01*
X92220425Y-106122151D01*
X92220426Y-106122150D01*
X92293489Y-106107617D01*
X92376350Y-106052252D01*
X92431715Y-105969391D01*
X92446249Y-105896325D01*
X92446249Y-105021651D01*
X92780534Y-105021651D01*
X92799351Y-105224733D01*
X92855166Y-105420898D01*
X92855171Y-105420911D01*
X92946076Y-105603472D01*
X93068986Y-105766232D01*
X93219707Y-105903631D01*
X93219709Y-105903633D01*
X93318890Y-105965043D01*
X93393112Y-106010999D01*
X93583293Y-106084675D01*
X93783773Y-106122151D01*
X93783775Y-106122151D01*
X93987723Y-106122151D01*
X93987725Y-106122151D01*
X94188205Y-106084675D01*
X94244023Y-106063051D01*
X98588104Y-106063051D01*
X98606643Y-106263121D01*
X98661632Y-106456390D01*
X98750861Y-106635585D01*
X99319834Y-106066612D01*
X99317663Y-106092822D01*
X99346797Y-106207869D01*
X99411708Y-106307223D01*
X99505362Y-106380116D01*
X99617610Y-106418651D01*
X99674902Y-106418651D01*
X99107737Y-106985813D01*
X99191608Y-107037744D01*
X99191609Y-107037745D01*
X99378973Y-107110329D01*
X99576485Y-107147251D01*
X99777413Y-107147251D01*
X99974923Y-107110329D01*
X99974924Y-107110329D01*
X100162294Y-107037741D01*
X100246158Y-106985814D01*
X100246158Y-106985813D01*
X99678997Y-106418651D01*
X99706415Y-106418651D01*
X99794009Y-106404034D01*
X99898383Y-106347550D01*
X99978762Y-106260235D01*
X100026434Y-106151553D01*
X100033518Y-106066067D01*
X100085662Y-106118211D01*
X100119147Y-106179534D01*
X100121301Y-106192925D01*
X100125992Y-106237551D01*
X100125993Y-106237554D01*
X100125993Y-106237555D01*
X100180209Y-106404418D01*
X100180212Y-106404424D01*
X100267942Y-106556377D01*
X100385343Y-106686766D01*
X100385350Y-106686772D01*
X100527295Y-106789901D01*
X100527300Y-106789904D01*
X100687587Y-106861269D01*
X100687592Y-106861271D01*
X100859218Y-106897751D01*
X100859219Y-106897751D01*
X101034678Y-106897751D01*
X101034680Y-106897751D01*
X101206306Y-106861271D01*
X101366598Y-106789904D01*
X101493023Y-106698051D01*
X122031302Y-106698051D01*
X122051783Y-106840507D01*
X122111571Y-106971422D01*
X122111572Y-106971424D01*
X122205821Y-107080194D01*
X122326896Y-107158004D01*
X122326899Y-107158005D01*
X122326898Y-107158005D01*
X122464985Y-107198550D01*
X122464987Y-107198551D01*
X122464988Y-107198551D01*
X122608911Y-107198551D01*
X122608911Y-107198550D01*
X122747002Y-107158004D01*
X122868077Y-107080194D01*
X122962326Y-106971424D01*
X123022114Y-106840508D01*
X123042596Y-106698051D01*
X123022114Y-106555594D01*
X122962326Y-106424678D01*
X122868077Y-106315908D01*
X122747002Y-106238098D01*
X122747000Y-106238097D01*
X122746998Y-106238096D01*
X122746999Y-106238096D01*
X122608912Y-106197551D01*
X122608910Y-106197551D01*
X122464988Y-106197551D01*
X122464985Y-106197551D01*
X122326898Y-106238096D01*
X122205822Y-106315907D01*
X122111572Y-106424677D01*
X122111571Y-106424679D01*
X122051783Y-106555594D01*
X122031302Y-106698051D01*
X101493023Y-106698051D01*
X101508549Y-106686771D01*
X101625955Y-106556378D01*
X101713686Y-106404424D01*
X101767906Y-106237551D01*
X101786247Y-106063051D01*
X114411302Y-106063051D01*
X114431783Y-106205507D01*
X114491571Y-106336422D01*
X114491572Y-106336424D01*
X114585821Y-106445194D01*
X114706896Y-106523004D01*
X114706899Y-106523005D01*
X114706898Y-106523005D01*
X114844985Y-106563550D01*
X114844987Y-106563551D01*
X114844988Y-106563551D01*
X114988911Y-106563551D01*
X114988911Y-106563550D01*
X115127002Y-106523004D01*
X115248077Y-106445194D01*
X115342326Y-106336424D01*
X115402114Y-106205508D01*
X115422596Y-106063051D01*
X115402114Y-105920594D01*
X115342326Y-105789678D01*
X115248077Y-105680908D01*
X115127002Y-105603098D01*
X115127000Y-105603097D01*
X115126998Y-105603096D01*
X115126999Y-105603096D01*
X114988912Y-105562551D01*
X114988910Y-105562551D01*
X114844988Y-105562551D01*
X114844985Y-105562551D01*
X114706898Y-105603096D01*
X114585822Y-105680907D01*
X114491572Y-105789677D01*
X114491571Y-105789679D01*
X114431783Y-105920594D01*
X114411302Y-106063051D01*
X101786247Y-106063051D01*
X101767906Y-105888551D01*
X101735780Y-105789677D01*
X101713688Y-105721683D01*
X101713685Y-105721677D01*
X101683685Y-105669716D01*
X101655980Y-105621729D01*
X101625956Y-105569725D01*
X101581094Y-105519901D01*
X101573099Y-105511021D01*
X101542870Y-105448032D01*
X101545356Y-105428051D01*
X120761302Y-105428051D01*
X120781783Y-105570507D01*
X120841571Y-105701422D01*
X120841572Y-105701424D01*
X120935821Y-105810194D01*
X121056896Y-105888004D01*
X121056899Y-105888005D01*
X121056898Y-105888005D01*
X121194985Y-105928550D01*
X121194987Y-105928551D01*
X121194988Y-105928551D01*
X121338911Y-105928551D01*
X121338911Y-105928550D01*
X121477002Y-105888004D01*
X121598077Y-105810194D01*
X121692326Y-105701424D01*
X121752114Y-105570508D01*
X121772596Y-105428051D01*
X122031302Y-105428051D01*
X122051783Y-105570507D01*
X122111571Y-105701422D01*
X122111572Y-105701424D01*
X122205821Y-105810194D01*
X122326896Y-105888004D01*
X122326899Y-105888005D01*
X122326898Y-105888005D01*
X122464985Y-105928550D01*
X122464987Y-105928551D01*
X122464988Y-105928551D01*
X122608911Y-105928551D01*
X122608911Y-105928550D01*
X122747002Y-105888004D01*
X122868077Y-105810194D01*
X122962326Y-105701424D01*
X123022114Y-105570508D01*
X123042596Y-105428051D01*
X123022114Y-105285594D01*
X122962326Y-105154678D01*
X122868077Y-105045908D01*
X122747002Y-104968098D01*
X122747000Y-104968097D01*
X122746998Y-104968096D01*
X122746999Y-104968096D01*
X122608912Y-104927551D01*
X122608910Y-104927551D01*
X122464988Y-104927551D01*
X122464985Y-104927551D01*
X122326898Y-104968096D01*
X122205822Y-105045907D01*
X122111572Y-105154677D01*
X122111571Y-105154679D01*
X122051783Y-105285594D01*
X122031302Y-105428051D01*
X121772596Y-105428051D01*
X121752114Y-105285594D01*
X121692326Y-105154678D01*
X121598077Y-105045908D01*
X121477002Y-104968098D01*
X121477000Y-104968097D01*
X121476998Y-104968096D01*
X121476999Y-104968096D01*
X121338912Y-104927551D01*
X121338910Y-104927551D01*
X121194988Y-104927551D01*
X121194985Y-104927551D01*
X121056898Y-104968096D01*
X120935822Y-105045907D01*
X120841572Y-105154677D01*
X120841571Y-105154679D01*
X120781783Y-105285594D01*
X120761302Y-105428051D01*
X101545356Y-105428051D01*
X101551495Y-105378697D01*
X101573098Y-105345081D01*
X101625955Y-105286378D01*
X101713686Y-105134424D01*
X101767906Y-104967551D01*
X101786247Y-104793051D01*
X114411302Y-104793051D01*
X114431783Y-104935507D01*
X114491571Y-105066422D01*
X114491572Y-105066424D01*
X114585821Y-105175194D01*
X114706896Y-105253004D01*
X114706899Y-105253005D01*
X114706898Y-105253005D01*
X114844985Y-105293550D01*
X114844987Y-105293551D01*
X114844988Y-105293551D01*
X114988911Y-105293551D01*
X114988911Y-105293550D01*
X115127002Y-105253004D01*
X115248077Y-105175194D01*
X115342326Y-105066424D01*
X115402114Y-104935508D01*
X115422596Y-104793051D01*
X115402114Y-104650594D01*
X115342326Y-104519678D01*
X115248077Y-104410908D01*
X115127002Y-104333098D01*
X115127000Y-104333097D01*
X115126998Y-104333096D01*
X115126999Y-104333096D01*
X114988912Y-104292551D01*
X114988910Y-104292551D01*
X114844988Y-104292551D01*
X114844985Y-104292551D01*
X114706898Y-104333096D01*
X114585822Y-104410907D01*
X114491572Y-104519677D01*
X114491571Y-104519679D01*
X114431783Y-104650594D01*
X114411302Y-104793051D01*
X101786247Y-104793051D01*
X101767906Y-104618551D01*
X101713686Y-104451678D01*
X101645224Y-104333098D01*
X101625956Y-104299725D01*
X101605556Y-104277069D01*
X101573099Y-104241021D01*
X101542870Y-104178032D01*
X101551495Y-104108697D01*
X101573098Y-104075081D01*
X101625955Y-104016378D01*
X101713686Y-103864424D01*
X101767906Y-103697551D01*
X101786247Y-103523051D01*
X110601302Y-103523051D01*
X110621783Y-103665507D01*
X110636418Y-103697552D01*
X110681572Y-103796424D01*
X110775821Y-103905194D01*
X110896896Y-103983004D01*
X110896899Y-103983005D01*
X110896898Y-103983005D01*
X111034985Y-104023550D01*
X111034987Y-104023551D01*
X111034988Y-104023551D01*
X111178911Y-104023551D01*
X111178911Y-104023550D01*
X111317002Y-103983004D01*
X111438077Y-103905194D01*
X111532326Y-103796424D01*
X111592114Y-103665508D01*
X111612596Y-103523051D01*
X111592114Y-103380594D01*
X111532326Y-103249678D01*
X111438077Y-103140908D01*
X111317002Y-103063098D01*
X111317000Y-103063097D01*
X111316998Y-103063096D01*
X111316999Y-103063096D01*
X111178912Y-103022551D01*
X111178910Y-103022551D01*
X111034988Y-103022551D01*
X111034985Y-103022551D01*
X110896898Y-103063096D01*
X110775822Y-103140907D01*
X110681572Y-103249677D01*
X110681571Y-103249679D01*
X110621783Y-103380594D01*
X110601302Y-103523051D01*
X101786247Y-103523051D01*
X101767906Y-103348551D01*
X101735780Y-103249677D01*
X101713688Y-103181683D01*
X101713685Y-103181677D01*
X101706653Y-103169498D01*
X101645224Y-103063098D01*
X101625956Y-103029725D01*
X101617917Y-103020797D01*
X101573099Y-102971021D01*
X101542870Y-102908032D01*
X101545356Y-102888051D01*
X115681302Y-102888051D01*
X115701783Y-103030507D01*
X115761571Y-103161422D01*
X115761572Y-103161424D01*
X115855821Y-103270194D01*
X115976896Y-103348004D01*
X115976899Y-103348005D01*
X115976898Y-103348005D01*
X116114985Y-103388550D01*
X116114987Y-103388551D01*
X116114988Y-103388551D01*
X116258911Y-103388551D01*
X116258911Y-103388550D01*
X116397002Y-103348004D01*
X116518077Y-103270194D01*
X116612326Y-103161424D01*
X116672114Y-103030508D01*
X116692596Y-102888051D01*
X116672114Y-102745594D01*
X116612326Y-102614678D01*
X116518077Y-102505908D01*
X116397002Y-102428098D01*
X116397000Y-102428097D01*
X116396998Y-102428096D01*
X116396999Y-102428096D01*
X116258912Y-102387551D01*
X116258910Y-102387551D01*
X116114988Y-102387551D01*
X116114985Y-102387551D01*
X115976898Y-102428096D01*
X115855822Y-102505907D01*
X115761572Y-102614677D01*
X115761571Y-102614679D01*
X115701783Y-102745594D01*
X115681302Y-102888051D01*
X101545356Y-102888051D01*
X101551495Y-102838697D01*
X101573098Y-102805081D01*
X101625955Y-102746378D01*
X101713686Y-102594424D01*
X101767906Y-102427551D01*
X101786247Y-102253051D01*
X101767906Y-102078551D01*
X101735780Y-101979677D01*
X101713688Y-101911683D01*
X101713685Y-101911677D01*
X101683685Y-101859716D01*
X101645224Y-101793098D01*
X101625956Y-101759725D01*
X101581094Y-101709901D01*
X101573099Y-101701021D01*
X101542870Y-101638032D01*
X101551495Y-101568697D01*
X101573098Y-101535081D01*
X101625955Y-101476378D01*
X101713686Y-101324424D01*
X101767906Y-101157551D01*
X101786247Y-100983051D01*
X101767906Y-100808551D01*
X101713686Y-100641678D01*
X101625955Y-100489724D01*
X101581949Y-100440850D01*
X101508554Y-100359335D01*
X101508547Y-100359329D01*
X101493024Y-100348051D01*
X114411302Y-100348051D01*
X114431783Y-100490507D01*
X114491571Y-100621422D01*
X114491572Y-100621424D01*
X114585821Y-100730194D01*
X114706896Y-100808004D01*
X114706899Y-100808005D01*
X114706898Y-100808005D01*
X114844985Y-100848550D01*
X114844987Y-100848551D01*
X114844988Y-100848551D01*
X114988911Y-100848551D01*
X114988911Y-100848550D01*
X115127002Y-100808004D01*
X115248077Y-100730194D01*
X115342326Y-100621424D01*
X115402114Y-100490508D01*
X115422596Y-100348051D01*
X115402114Y-100205594D01*
X115342326Y-100074678D01*
X115248077Y-99965908D01*
X115127002Y-99888098D01*
X115127000Y-99888097D01*
X115126998Y-99888096D01*
X115126999Y-99888096D01*
X114988912Y-99847551D01*
X114988910Y-99847551D01*
X114844988Y-99847551D01*
X114844985Y-99847551D01*
X114706898Y-99888096D01*
X114585822Y-99965907D01*
X114491572Y-100074677D01*
X114491571Y-100074679D01*
X114431783Y-100205594D01*
X114411302Y-100348051D01*
X101493024Y-100348051D01*
X101366602Y-100256200D01*
X101366597Y-100256197D01*
X101206310Y-100184832D01*
X101206305Y-100184830D01*
X101071159Y-100156104D01*
X101034680Y-100148351D01*
X100859218Y-100148351D01*
X100829133Y-100154745D01*
X100687592Y-100184830D01*
X100687587Y-100184832D01*
X100527300Y-100256197D01*
X100527295Y-100256200D01*
X100384834Y-100359705D01*
X100319028Y-100383185D01*
X100250974Y-100367360D01*
X100239064Y-100359705D01*
X100096602Y-100256200D01*
X100096597Y-100256197D01*
X99936310Y-100184832D01*
X99936305Y-100184830D01*
X99801159Y-100156104D01*
X99764680Y-100148351D01*
X99589218Y-100148351D01*
X99559133Y-100154745D01*
X99417592Y-100184830D01*
X99417587Y-100184832D01*
X99257300Y-100256197D01*
X99257295Y-100256200D01*
X99115350Y-100359329D01*
X99115343Y-100359335D01*
X98997942Y-100489724D01*
X98910212Y-100641677D01*
X98910209Y-100641683D01*
X98855992Y-100808549D01*
X98837651Y-100983051D01*
X98855992Y-101157552D01*
X98910209Y-101324418D01*
X98910212Y-101324424D01*
X98997942Y-101476377D01*
X99115343Y-101606766D01*
X99115350Y-101606772D01*
X99257295Y-101709901D01*
X99257300Y-101709904D01*
X99417587Y-101781269D01*
X99417588Y-101781269D01*
X99417592Y-101781271D01*
X99560888Y-101811729D01*
X99622370Y-101844921D01*
X99622789Y-101845338D01*
X99674902Y-101897451D01*
X99647483Y-101897451D01*
X99559889Y-101912068D01*
X99455515Y-101968552D01*
X99375136Y-102055867D01*
X99327464Y-102164549D01*
X99320380Y-102250034D01*
X98750861Y-101680515D01*
X98750860Y-101680515D01*
X98661634Y-101859706D01*
X98661630Y-101859716D01*
X98606643Y-102052980D01*
X98588104Y-102253050D01*
X98588104Y-102253051D01*
X98606643Y-102453121D01*
X98661632Y-102646390D01*
X98754443Y-102832778D01*
X98754617Y-102833758D01*
X98776077Y-102800369D01*
X99319834Y-102256612D01*
X99317663Y-102282822D01*
X99346797Y-102397869D01*
X99411708Y-102497223D01*
X99505362Y-102570116D01*
X99617610Y-102608651D01*
X99674902Y-102608651D01*
X99395502Y-102888051D01*
X99674902Y-103167451D01*
X99647483Y-103167451D01*
X99559889Y-103182068D01*
X99455515Y-103238552D01*
X99375136Y-103325867D01*
X99327464Y-103434549D01*
X99320380Y-103520034D01*
X98776077Y-102975731D01*
X98755819Y-102938632D01*
X98754443Y-102943321D01*
X98661634Y-103129706D01*
X98661630Y-103129716D01*
X98606643Y-103322980D01*
X98588104Y-103523050D01*
X98588104Y-103523051D01*
X98606643Y-103723121D01*
X98661632Y-103916390D01*
X98750861Y-104095585D01*
X99319834Y-103526612D01*
X99317663Y-103552822D01*
X99346797Y-103667869D01*
X99411708Y-103767223D01*
X99505362Y-103840116D01*
X99617610Y-103878651D01*
X99674902Y-103878651D01*
X99622788Y-103930764D01*
X99561465Y-103964248D01*
X99560889Y-103964372D01*
X99417592Y-103994830D01*
X99417587Y-103994832D01*
X99257300Y-104066197D01*
X99257295Y-104066200D01*
X99115350Y-104169329D01*
X99115343Y-104169335D01*
X98997942Y-104299724D01*
X98910212Y-104451677D01*
X98910209Y-104451683D01*
X98855992Y-104618549D01*
X98837651Y-104793051D01*
X98855992Y-104967552D01*
X98910209Y-105134418D01*
X98910212Y-105134424D01*
X98997942Y-105286377D01*
X99115343Y-105416766D01*
X99115350Y-105416772D01*
X99257295Y-105519901D01*
X99257300Y-105519904D01*
X99417587Y-105591269D01*
X99417588Y-105591269D01*
X99417592Y-105591271D01*
X99560888Y-105621729D01*
X99622370Y-105654921D01*
X99622789Y-105655338D01*
X99674902Y-105707451D01*
X99647483Y-105707451D01*
X99559889Y-105722068D01*
X99455515Y-105778552D01*
X99375136Y-105865867D01*
X99327464Y-105974549D01*
X99320380Y-106060034D01*
X98750861Y-105490515D01*
X98750860Y-105490515D01*
X98661634Y-105669706D01*
X98661630Y-105669716D01*
X98606643Y-105862980D01*
X98588104Y-106063050D01*
X98588104Y-106063051D01*
X94244023Y-106063051D01*
X94378386Y-106010999D01*
X94551790Y-105903632D01*
X94702513Y-105766230D01*
X94825422Y-105603472D01*
X94916331Y-105420901D01*
X94972146Y-105224734D01*
X94990964Y-105021651D01*
X94972146Y-104818568D01*
X94916331Y-104622401D01*
X94825422Y-104439830D01*
X94702513Y-104277072D01*
X94702511Y-104277069D01*
X94551790Y-104139670D01*
X94551788Y-104139668D01*
X94378391Y-104032306D01*
X94378384Y-104032302D01*
X94251130Y-103983004D01*
X94188205Y-103958627D01*
X93987725Y-103921151D01*
X93783773Y-103921151D01*
X93583293Y-103958627D01*
X93583290Y-103958627D01*
X93583290Y-103958628D01*
X93393113Y-104032302D01*
X93393106Y-104032306D01*
X93219709Y-104139668D01*
X93219707Y-104139670D01*
X93068986Y-104277069D01*
X92946076Y-104439829D01*
X92855171Y-104622390D01*
X92855166Y-104622403D01*
X92799351Y-104818568D01*
X92780534Y-105021650D01*
X92780534Y-105021651D01*
X92446249Y-105021651D01*
X92446249Y-104146977D01*
X92446249Y-104146974D01*
X92446248Y-104146972D01*
X92431716Y-104073915D01*
X92431715Y-104073911D01*
X92426561Y-104066197D01*
X92376350Y-103991050D01*
X92293489Y-103935685D01*
X92293488Y-103935684D01*
X92293484Y-103935683D01*
X92220426Y-103921151D01*
X92220423Y-103921151D01*
X90471075Y-103921151D01*
X90471072Y-103921151D01*
X90398013Y-103935683D01*
X90398009Y-103935684D01*
X90315148Y-103991050D01*
X90259782Y-104073911D01*
X90259781Y-104073915D01*
X90245249Y-104146972D01*
X90245249Y-105896329D01*
X84399801Y-105896329D01*
X84542513Y-105766230D01*
X84665422Y-105603472D01*
X84756331Y-105420901D01*
X84812146Y-105224734D01*
X84830964Y-105021651D01*
X84812146Y-104818568D01*
X84756331Y-104622401D01*
X84665422Y-104439830D01*
X84542513Y-104277072D01*
X84542511Y-104277069D01*
X84391790Y-104139670D01*
X84391788Y-104139668D01*
X84218391Y-104032306D01*
X84218384Y-104032302D01*
X84091130Y-103983004D01*
X84028205Y-103958627D01*
X83827725Y-103921151D01*
X83623773Y-103921151D01*
X83423293Y-103958627D01*
X83423290Y-103958627D01*
X83423290Y-103958628D01*
X83233113Y-104032302D01*
X83233106Y-104032306D01*
X83059709Y-104139668D01*
X83059707Y-104139670D01*
X82908986Y-104277069D01*
X82786076Y-104439829D01*
X82695171Y-104622390D01*
X82695166Y-104622403D01*
X82639351Y-104818568D01*
X82620534Y-105021650D01*
X82620534Y-105021651D01*
X82286249Y-105021651D01*
X82286249Y-104146977D01*
X82286249Y-104146974D01*
X82286248Y-104146972D01*
X82271716Y-104073915D01*
X82271715Y-104073911D01*
X82266561Y-104066197D01*
X82216350Y-103991050D01*
X82133489Y-103935685D01*
X82133488Y-103935684D01*
X82133484Y-103935683D01*
X82060426Y-103921151D01*
X82060423Y-103921151D01*
X80311075Y-103921151D01*
X80311072Y-103921151D01*
X80238013Y-103935683D01*
X80238009Y-103935684D01*
X80155148Y-103991050D01*
X80099782Y-104073911D01*
X80099781Y-104073915D01*
X80085249Y-104146972D01*
X80085249Y-105896329D01*
X74239801Y-105896329D01*
X74382513Y-105766230D01*
X74505422Y-105603472D01*
X74596331Y-105420901D01*
X74652146Y-105224734D01*
X74670964Y-105021651D01*
X74652146Y-104818568D01*
X74596331Y-104622401D01*
X74505422Y-104439830D01*
X74382513Y-104277072D01*
X74382511Y-104277069D01*
X74231790Y-104139670D01*
X74231788Y-104139668D01*
X74058391Y-104032306D01*
X74058384Y-104032302D01*
X73931130Y-103983004D01*
X73868205Y-103958627D01*
X73667725Y-103921151D01*
X73463773Y-103921151D01*
X73263293Y-103958627D01*
X73263290Y-103958627D01*
X73263290Y-103958628D01*
X73073113Y-104032302D01*
X73073106Y-104032306D01*
X72899709Y-104139668D01*
X72899707Y-104139670D01*
X72748986Y-104277069D01*
X72626076Y-104439829D01*
X72535171Y-104622390D01*
X72535166Y-104622403D01*
X72479351Y-104818568D01*
X72460534Y-105021650D01*
X72460534Y-105021651D01*
X72126249Y-105021651D01*
X72126249Y-104146977D01*
X72126249Y-104146974D01*
X72126248Y-104146972D01*
X72111716Y-104073915D01*
X72111715Y-104073911D01*
X72106561Y-104066197D01*
X72056350Y-103991050D01*
X71973489Y-103935685D01*
X71973488Y-103935684D01*
X71973484Y-103935683D01*
X71900426Y-103921151D01*
X71900423Y-103921151D01*
X70151075Y-103921151D01*
X70151072Y-103921151D01*
X70078013Y-103935683D01*
X70078009Y-103935684D01*
X69995148Y-103991050D01*
X69939782Y-104073911D01*
X69939781Y-104073915D01*
X69925249Y-104146972D01*
X69925249Y-105896329D01*
X50782449Y-105896329D01*
X50782449Y-103523051D01*
X88376302Y-103523051D01*
X88396783Y-103665507D01*
X88411418Y-103697552D01*
X88456572Y-103796424D01*
X88550821Y-103905194D01*
X88671896Y-103983004D01*
X88671899Y-103983005D01*
X88671898Y-103983005D01*
X88809985Y-104023550D01*
X88809987Y-104023551D01*
X88809988Y-104023551D01*
X88953911Y-104023551D01*
X88953911Y-104023550D01*
X89092002Y-103983004D01*
X89213077Y-103905194D01*
X89307326Y-103796424D01*
X89367114Y-103665508D01*
X89387596Y-103523051D01*
X89367114Y-103380594D01*
X89307326Y-103249678D01*
X89213077Y-103140908D01*
X89092002Y-103063098D01*
X89092000Y-103063097D01*
X89091998Y-103063096D01*
X89091999Y-103063096D01*
X88953912Y-103022551D01*
X88953910Y-103022551D01*
X88809988Y-103022551D01*
X88809985Y-103022551D01*
X88671898Y-103063096D01*
X88550822Y-103140907D01*
X88456572Y-103249677D01*
X88456571Y-103249679D01*
X88396783Y-103380594D01*
X88376302Y-103523051D01*
X50782449Y-103523051D01*
X50782449Y-102888051D01*
X66786302Y-102888051D01*
X66806783Y-103030507D01*
X66866571Y-103161422D01*
X66866572Y-103161424D01*
X66960821Y-103270194D01*
X67081896Y-103348004D01*
X67081899Y-103348005D01*
X67081898Y-103348005D01*
X67219985Y-103388550D01*
X67219987Y-103388551D01*
X67219988Y-103388551D01*
X67363911Y-103388551D01*
X67363911Y-103388550D01*
X67502002Y-103348004D01*
X67623077Y-103270194D01*
X67717326Y-103161424D01*
X67777114Y-103030508D01*
X67797596Y-102888051D01*
X85201302Y-102888051D01*
X85221783Y-103030507D01*
X85281571Y-103161422D01*
X85281572Y-103161424D01*
X85375821Y-103270194D01*
X85496896Y-103348004D01*
X85496899Y-103348005D01*
X85496898Y-103348005D01*
X85634985Y-103388550D01*
X85634987Y-103388551D01*
X85634988Y-103388551D01*
X85778911Y-103388551D01*
X85778911Y-103388550D01*
X85917002Y-103348004D01*
X86038077Y-103270194D01*
X86132326Y-103161424D01*
X86192114Y-103030508D01*
X86212596Y-102888051D01*
X86212596Y-102888050D01*
X86212596Y-102879182D01*
X86215921Y-102879182D01*
X86223583Y-102826005D01*
X86269354Y-102773215D01*
X86336362Y-102753551D01*
X86413911Y-102753551D01*
X86413911Y-102753550D01*
X86552002Y-102713004D01*
X86673077Y-102635194D01*
X86767326Y-102526424D01*
X86827114Y-102395508D01*
X86847596Y-102253051D01*
X97266302Y-102253051D01*
X97286783Y-102395507D01*
X97346571Y-102526422D01*
X97346572Y-102526424D01*
X97440821Y-102635194D01*
X97561896Y-102713004D01*
X97561899Y-102713005D01*
X97561898Y-102713005D01*
X97699985Y-102753550D01*
X97699987Y-102753551D01*
X97699988Y-102753551D01*
X97843911Y-102753551D01*
X97843911Y-102753550D01*
X97982002Y-102713004D01*
X98103077Y-102635194D01*
X98197326Y-102526424D01*
X98257114Y-102395508D01*
X98277596Y-102253051D01*
X98257114Y-102110594D01*
X98197326Y-101979678D01*
X98103077Y-101870908D01*
X97982002Y-101793098D01*
X97982000Y-101793097D01*
X97981998Y-101793096D01*
X97981999Y-101793096D01*
X97843912Y-101752551D01*
X97843910Y-101752551D01*
X97699988Y-101752551D01*
X97699985Y-101752551D01*
X97561898Y-101793096D01*
X97440822Y-101870907D01*
X97346572Y-101979677D01*
X97346571Y-101979679D01*
X97286783Y-102110594D01*
X97266302Y-102253051D01*
X86847596Y-102253051D01*
X86847596Y-102253050D01*
X86847596Y-102244182D01*
X86850921Y-102244182D01*
X86858583Y-102191005D01*
X86904354Y-102138215D01*
X86971362Y-102118551D01*
X87048911Y-102118551D01*
X87048911Y-102118550D01*
X87187002Y-102078004D01*
X87308077Y-102000194D01*
X87402326Y-101891424D01*
X87462114Y-101760508D01*
X87482596Y-101618051D01*
X87462114Y-101475594D01*
X87402326Y-101344678D01*
X87308077Y-101235908D01*
X87187002Y-101158098D01*
X87187000Y-101158097D01*
X87186998Y-101158096D01*
X87186999Y-101158096D01*
X87048912Y-101117551D01*
X87048910Y-101117551D01*
X86904988Y-101117551D01*
X86904985Y-101117551D01*
X86766898Y-101158096D01*
X86645822Y-101235907D01*
X86551572Y-101344677D01*
X86551571Y-101344679D01*
X86491783Y-101475594D01*
X86471302Y-101618051D01*
X86471302Y-101626920D01*
X86467977Y-101626920D01*
X86460315Y-101680097D01*
X86414544Y-101732887D01*
X86347536Y-101752551D01*
X86269985Y-101752551D01*
X86131898Y-101793096D01*
X86010822Y-101870907D01*
X85916572Y-101979677D01*
X85916571Y-101979679D01*
X85856783Y-102110594D01*
X85836302Y-102253051D01*
X85836302Y-102261920D01*
X85832977Y-102261920D01*
X85825315Y-102315097D01*
X85779544Y-102367887D01*
X85712536Y-102387551D01*
X85634985Y-102387551D01*
X85496898Y-102428096D01*
X85375822Y-102505907D01*
X85281572Y-102614677D01*
X85281571Y-102614679D01*
X85221783Y-102745594D01*
X85201302Y-102888051D01*
X67797596Y-102888051D01*
X67777114Y-102745594D01*
X67717326Y-102614678D01*
X67623077Y-102505908D01*
X67502002Y-102428098D01*
X67502000Y-102428097D01*
X67501998Y-102428096D01*
X67501999Y-102428096D01*
X67363912Y-102387551D01*
X67363910Y-102387551D01*
X67219988Y-102387551D01*
X67219985Y-102387551D01*
X67081898Y-102428096D01*
X66960822Y-102505907D01*
X66866572Y-102614677D01*
X66866571Y-102614679D01*
X66806783Y-102745594D01*
X66786302Y-102888051D01*
X50782449Y-102888051D01*
X50782449Y-102253051D01*
X53451302Y-102253051D01*
X53471783Y-102395507D01*
X53531571Y-102526422D01*
X53531572Y-102526424D01*
X53625821Y-102635194D01*
X53746896Y-102713004D01*
X53746899Y-102713005D01*
X53746898Y-102713005D01*
X53884985Y-102753550D01*
X53884987Y-102753551D01*
X53884988Y-102753551D01*
X54028911Y-102753551D01*
X54028911Y-102753550D01*
X54167002Y-102713004D01*
X54288077Y-102635194D01*
X54382326Y-102526424D01*
X54442114Y-102395508D01*
X54462596Y-102253051D01*
X68056302Y-102253051D01*
X68076783Y-102395507D01*
X68136571Y-102526422D01*
X68136572Y-102526424D01*
X68230821Y-102635194D01*
X68351896Y-102713004D01*
X68351899Y-102713005D01*
X68351898Y-102713005D01*
X68489985Y-102753550D01*
X68489987Y-102753551D01*
X68489988Y-102753551D01*
X68633911Y-102753551D01*
X68633911Y-102753550D01*
X68772002Y-102713004D01*
X68893077Y-102635194D01*
X68987326Y-102526424D01*
X69047114Y-102395508D01*
X69067596Y-102253051D01*
X69047114Y-102110594D01*
X68987326Y-101979678D01*
X68893077Y-101870908D01*
X68772002Y-101793098D01*
X68772000Y-101793097D01*
X68771998Y-101793096D01*
X68771999Y-101793096D01*
X68633912Y-101752551D01*
X68633910Y-101752551D01*
X68489988Y-101752551D01*
X68489985Y-101752551D01*
X68351898Y-101793096D01*
X68230822Y-101870907D01*
X68136572Y-101979677D01*
X68136571Y-101979679D01*
X68076783Y-102110594D01*
X68056302Y-102253051D01*
X54462596Y-102253051D01*
X54442114Y-102110594D01*
X54382326Y-101979678D01*
X54288077Y-101870908D01*
X54167002Y-101793098D01*
X54167000Y-101793097D01*
X54166998Y-101793096D01*
X54166999Y-101793096D01*
X54028912Y-101752551D01*
X54028910Y-101752551D01*
X53884988Y-101752551D01*
X53884985Y-101752551D01*
X53746898Y-101793096D01*
X53625822Y-101870907D01*
X53531572Y-101979677D01*
X53531571Y-101979679D01*
X53471783Y-102110594D01*
X53451302Y-102253051D01*
X50782449Y-102253051D01*
X50782449Y-101618051D01*
X69326302Y-101618051D01*
X69346783Y-101760507D01*
X69406571Y-101891422D01*
X69406572Y-101891424D01*
X69500821Y-102000194D01*
X69621896Y-102078004D01*
X69621899Y-102078005D01*
X69621898Y-102078005D01*
X69759985Y-102118550D01*
X69759987Y-102118551D01*
X69759988Y-102118551D01*
X69903911Y-102118551D01*
X69903911Y-102118550D01*
X70042002Y-102078004D01*
X70163077Y-102000194D01*
X70257326Y-101891424D01*
X70317114Y-101760508D01*
X70337596Y-101618051D01*
X70317114Y-101475594D01*
X70257326Y-101344678D01*
X70163077Y-101235908D01*
X70042002Y-101158098D01*
X70042000Y-101158097D01*
X70041998Y-101158096D01*
X70041999Y-101158096D01*
X69903912Y-101117551D01*
X69903910Y-101117551D01*
X69759988Y-101117551D01*
X69759985Y-101117551D01*
X69621898Y-101158096D01*
X69500822Y-101235907D01*
X69406572Y-101344677D01*
X69406571Y-101344679D01*
X69346783Y-101475594D01*
X69326302Y-101618051D01*
X50782449Y-101618051D01*
X50782449Y-100983051D01*
X70596302Y-100983051D01*
X70616783Y-101125507D01*
X70676571Y-101256422D01*
X70676572Y-101256424D01*
X70770821Y-101365194D01*
X70891896Y-101443004D01*
X70891899Y-101443005D01*
X70891898Y-101443005D01*
X71029985Y-101483550D01*
X71029987Y-101483551D01*
X71029988Y-101483551D01*
X71173911Y-101483551D01*
X71173911Y-101483550D01*
X71312002Y-101443004D01*
X71433077Y-101365194D01*
X71527326Y-101256424D01*
X71587114Y-101125508D01*
X71607596Y-100983051D01*
X87741302Y-100983051D01*
X87761783Y-101125507D01*
X87821571Y-101256422D01*
X87821572Y-101256424D01*
X87915821Y-101365194D01*
X88036896Y-101443004D01*
X88036899Y-101443005D01*
X88036898Y-101443005D01*
X88174985Y-101483550D01*
X88174987Y-101483551D01*
X88174988Y-101483551D01*
X88318911Y-101483551D01*
X88318911Y-101483550D01*
X88457002Y-101443004D01*
X88578077Y-101365194D01*
X88672326Y-101256424D01*
X88732114Y-101125508D01*
X88752596Y-100983051D01*
X88752596Y-100983050D01*
X88752596Y-100974182D01*
X88755921Y-100974182D01*
X88763583Y-100921005D01*
X88809354Y-100868215D01*
X88876362Y-100848551D01*
X88953911Y-100848551D01*
X88953911Y-100848550D01*
X89092002Y-100808004D01*
X89213077Y-100730194D01*
X89307326Y-100621424D01*
X89367114Y-100490508D01*
X89387596Y-100348051D01*
X89367114Y-100205594D01*
X89307326Y-100074678D01*
X89213077Y-99965908D01*
X89092002Y-99888098D01*
X89092000Y-99888097D01*
X89091998Y-99888096D01*
X89091999Y-99888096D01*
X88953912Y-99847551D01*
X88953910Y-99847551D01*
X88809988Y-99847551D01*
X88809985Y-99847551D01*
X88671898Y-99888096D01*
X88550822Y-99965907D01*
X88456572Y-100074677D01*
X88456571Y-100074679D01*
X88396783Y-100205594D01*
X88376302Y-100348051D01*
X88376302Y-100356920D01*
X88372977Y-100356920D01*
X88365315Y-100410097D01*
X88319544Y-100462887D01*
X88252536Y-100482551D01*
X88174985Y-100482551D01*
X88036898Y-100523096D01*
X87915822Y-100600907D01*
X87821572Y-100709677D01*
X87821571Y-100709679D01*
X87761783Y-100840594D01*
X87741302Y-100983051D01*
X71607596Y-100983051D01*
X71587114Y-100840594D01*
X71527326Y-100709678D01*
X71433077Y-100600908D01*
X71312002Y-100523098D01*
X71312000Y-100523097D01*
X71311998Y-100523096D01*
X71311999Y-100523096D01*
X71173912Y-100482551D01*
X71173910Y-100482551D01*
X71029988Y-100482551D01*
X71029985Y-100482551D01*
X70891898Y-100523096D01*
X70770822Y-100600907D01*
X70676572Y-100709677D01*
X70676571Y-100709679D01*
X70616783Y-100840594D01*
X70596302Y-100983051D01*
X50782449Y-100983051D01*
X50782449Y-100348051D01*
X69326302Y-100348051D01*
X69346783Y-100490507D01*
X69406571Y-100621422D01*
X69406572Y-100621424D01*
X69500821Y-100730194D01*
X69621896Y-100808004D01*
X69621899Y-100808005D01*
X69621898Y-100808005D01*
X69759985Y-100848550D01*
X69759987Y-100848551D01*
X69759988Y-100848551D01*
X69903911Y-100848551D01*
X69903911Y-100848550D01*
X70042002Y-100808004D01*
X70163077Y-100730194D01*
X70257326Y-100621424D01*
X70317114Y-100490508D01*
X70337596Y-100348051D01*
X70317114Y-100205594D01*
X70257326Y-100074678D01*
X70163077Y-99965908D01*
X70042002Y-99888098D01*
X70042000Y-99888097D01*
X70041998Y-99888096D01*
X70041999Y-99888096D01*
X69903912Y-99847551D01*
X69903910Y-99847551D01*
X69759988Y-99847551D01*
X69759985Y-99847551D01*
X69621898Y-99888096D01*
X69500822Y-99965907D01*
X69406572Y-100074677D01*
X69406571Y-100074679D01*
X69346783Y-100205594D01*
X69326302Y-100348051D01*
X50782449Y-100348051D01*
X50782449Y-99713051D01*
X68056302Y-99713051D01*
X68076783Y-99855507D01*
X68136571Y-99986422D01*
X68136572Y-99986424D01*
X68230821Y-100095194D01*
X68351896Y-100173004D01*
X68351899Y-100173005D01*
X68351898Y-100173005D01*
X68489985Y-100213550D01*
X68489987Y-100213551D01*
X68489988Y-100213551D01*
X68633911Y-100213551D01*
X68633911Y-100213550D01*
X68772002Y-100173004D01*
X68893077Y-100095194D01*
X68987326Y-99986424D01*
X69047114Y-99855508D01*
X69067596Y-99713051D01*
X105521302Y-99713051D01*
X105541783Y-99855507D01*
X105601571Y-99986422D01*
X105601572Y-99986424D01*
X105695821Y-100095194D01*
X105816896Y-100173004D01*
X105816899Y-100173005D01*
X105816898Y-100173005D01*
X105954985Y-100213550D01*
X105954987Y-100213551D01*
X105954988Y-100213551D01*
X106098911Y-100213551D01*
X106098911Y-100213550D01*
X106237002Y-100173004D01*
X106358077Y-100095194D01*
X106452326Y-99986424D01*
X106512114Y-99855508D01*
X106532596Y-99713051D01*
X106512114Y-99570594D01*
X106452326Y-99439678D01*
X106358077Y-99330908D01*
X106237002Y-99253098D01*
X106237000Y-99253097D01*
X106236998Y-99253096D01*
X106236999Y-99253096D01*
X106098912Y-99212551D01*
X106098910Y-99212551D01*
X105954988Y-99212551D01*
X105954985Y-99212551D01*
X105816898Y-99253096D01*
X105695822Y-99330907D01*
X105601572Y-99439677D01*
X105601571Y-99439679D01*
X105541783Y-99570594D01*
X105521302Y-99713051D01*
X69067596Y-99713051D01*
X69047114Y-99570594D01*
X68987326Y-99439678D01*
X68893077Y-99330908D01*
X68772002Y-99253098D01*
X68772000Y-99253097D01*
X68771998Y-99253096D01*
X68771999Y-99253096D01*
X68633912Y-99212551D01*
X68633910Y-99212551D01*
X68489988Y-99212551D01*
X68489985Y-99212551D01*
X68351898Y-99253096D01*
X68230822Y-99330907D01*
X68136572Y-99439677D01*
X68136571Y-99439679D01*
X68076783Y-99570594D01*
X68056302Y-99713051D01*
X50782449Y-99713051D01*
X50782449Y-99078051D01*
X114411302Y-99078051D01*
X114431783Y-99220507D01*
X114491571Y-99351422D01*
X114491572Y-99351424D01*
X114585821Y-99460194D01*
X114706896Y-99538004D01*
X114706899Y-99538005D01*
X114706898Y-99538005D01*
X114844985Y-99578550D01*
X114844987Y-99578551D01*
X114844988Y-99578551D01*
X114988911Y-99578551D01*
X114988911Y-99578550D01*
X115127002Y-99538004D01*
X115248077Y-99460194D01*
X115342326Y-99351424D01*
X115402114Y-99220508D01*
X115422596Y-99078051D01*
X115402114Y-98935594D01*
X115342326Y-98804678D01*
X115248077Y-98695908D01*
X115127002Y-98618098D01*
X115127000Y-98618097D01*
X115126998Y-98618096D01*
X115126999Y-98618096D01*
X114988912Y-98577551D01*
X114988910Y-98577551D01*
X114844988Y-98577551D01*
X114844985Y-98577551D01*
X114706898Y-98618096D01*
X114585822Y-98695907D01*
X114491572Y-98804677D01*
X114491571Y-98804679D01*
X114431783Y-98935594D01*
X114411302Y-99078051D01*
X50782449Y-99078051D01*
X50782449Y-98276329D01*
X69925249Y-98276329D01*
X69939781Y-98349386D01*
X69939782Y-98349390D01*
X69939783Y-98349391D01*
X69995148Y-98432252D01*
X70078009Y-98487617D01*
X70078013Y-98487618D01*
X70151070Y-98502150D01*
X70151073Y-98502151D01*
X70151075Y-98502151D01*
X71900425Y-98502151D01*
X71900426Y-98502150D01*
X71973489Y-98487617D01*
X72056350Y-98432252D01*
X72111715Y-98349391D01*
X72126249Y-98276325D01*
X72126249Y-97401651D01*
X72460534Y-97401651D01*
X72479351Y-97604733D01*
X72535166Y-97800898D01*
X72535171Y-97800911D01*
X72626076Y-97983472D01*
X72748986Y-98146232D01*
X72899707Y-98283631D01*
X72899709Y-98283633D01*
X72998890Y-98345043D01*
X73073112Y-98390999D01*
X73263293Y-98464675D01*
X73463773Y-98502151D01*
X73463775Y-98502151D01*
X73667723Y-98502151D01*
X73667725Y-98502151D01*
X73868205Y-98464675D01*
X74058386Y-98390999D01*
X74231790Y-98283632D01*
X74239801Y-98276329D01*
X80085249Y-98276329D01*
X80099781Y-98349386D01*
X80099782Y-98349390D01*
X80099783Y-98349391D01*
X80155148Y-98432252D01*
X80238009Y-98487617D01*
X80238013Y-98487618D01*
X80311070Y-98502150D01*
X80311073Y-98502151D01*
X80311075Y-98502151D01*
X82060425Y-98502151D01*
X82060426Y-98502150D01*
X82133489Y-98487617D01*
X82216350Y-98432252D01*
X82271715Y-98349391D01*
X82286249Y-98276325D01*
X82286249Y-97401651D01*
X82620534Y-97401651D01*
X82639351Y-97604733D01*
X82695166Y-97800898D01*
X82695171Y-97800911D01*
X82786076Y-97983472D01*
X82908986Y-98146232D01*
X83059707Y-98283631D01*
X83059709Y-98283633D01*
X83158890Y-98345043D01*
X83233112Y-98390999D01*
X83423293Y-98464675D01*
X83623773Y-98502151D01*
X83623775Y-98502151D01*
X83827723Y-98502151D01*
X83827725Y-98502151D01*
X84028205Y-98464675D01*
X84218386Y-98390999D01*
X84391790Y-98283632D01*
X84399801Y-98276329D01*
X90245249Y-98276329D01*
X90259781Y-98349386D01*
X90259782Y-98349390D01*
X90259783Y-98349391D01*
X90315148Y-98432252D01*
X90398009Y-98487617D01*
X90398013Y-98487618D01*
X90471070Y-98502150D01*
X90471073Y-98502151D01*
X90471075Y-98502151D01*
X92220425Y-98502151D01*
X92220426Y-98502150D01*
X92293489Y-98487617D01*
X92376350Y-98432252D01*
X92431715Y-98349391D01*
X92446249Y-98276325D01*
X92446249Y-97401651D01*
X92780534Y-97401651D01*
X92799351Y-97604733D01*
X92855166Y-97800898D01*
X92855171Y-97800911D01*
X92946076Y-97983472D01*
X93068986Y-98146232D01*
X93219707Y-98283631D01*
X93219709Y-98283633D01*
X93318890Y-98345043D01*
X93393112Y-98390999D01*
X93583293Y-98464675D01*
X93783773Y-98502151D01*
X93783775Y-98502151D01*
X93987723Y-98502151D01*
X93987725Y-98502151D01*
X94188205Y-98464675D01*
X94244023Y-98443051D01*
X106156302Y-98443051D01*
X106176783Y-98585507D01*
X106236571Y-98716422D01*
X106236572Y-98716424D01*
X106330821Y-98825194D01*
X106451896Y-98903004D01*
X106451899Y-98903005D01*
X106451898Y-98903005D01*
X106589985Y-98943550D01*
X106589987Y-98943551D01*
X106589988Y-98943551D01*
X106733911Y-98943551D01*
X106733911Y-98943550D01*
X106872002Y-98903004D01*
X106993077Y-98825194D01*
X107087326Y-98716424D01*
X107147114Y-98585508D01*
X107167596Y-98443051D01*
X107147114Y-98300594D01*
X107087326Y-98169678D01*
X106993077Y-98060908D01*
X106872002Y-97983098D01*
X106872000Y-97983097D01*
X106871998Y-97983096D01*
X106871999Y-97983096D01*
X106733912Y-97942551D01*
X106733910Y-97942551D01*
X106589988Y-97942551D01*
X106589985Y-97942551D01*
X106451898Y-97983096D01*
X106330822Y-98060907D01*
X106236572Y-98169677D01*
X106236571Y-98169679D01*
X106176783Y-98300594D01*
X106156302Y-98443051D01*
X94244023Y-98443051D01*
X94378386Y-98390999D01*
X94551790Y-98283632D01*
X94702513Y-98146230D01*
X94825422Y-97983472D01*
X94916331Y-97800901D01*
X94972146Y-97604734D01*
X94990964Y-97401651D01*
X94972146Y-97198568D01*
X94964886Y-97173051D01*
X118221302Y-97173051D01*
X118241783Y-97315507D01*
X118301571Y-97446422D01*
X118301572Y-97446424D01*
X118395821Y-97555194D01*
X118516896Y-97633004D01*
X118516899Y-97633005D01*
X118516898Y-97633005D01*
X118654985Y-97673550D01*
X118654987Y-97673551D01*
X118654988Y-97673551D01*
X118798911Y-97673551D01*
X118798911Y-97673550D01*
X118937002Y-97633004D01*
X119058077Y-97555194D01*
X119152326Y-97446424D01*
X119212114Y-97315508D01*
X119232596Y-97173051D01*
X119212114Y-97030594D01*
X119152326Y-96899678D01*
X119058077Y-96790908D01*
X118937002Y-96713098D01*
X118937000Y-96713097D01*
X118936998Y-96713096D01*
X118936999Y-96713096D01*
X118798912Y-96672551D01*
X118798910Y-96672551D01*
X118654988Y-96672551D01*
X118654985Y-96672551D01*
X118516898Y-96713096D01*
X118395822Y-96790907D01*
X118301572Y-96899677D01*
X118301571Y-96899679D01*
X118241783Y-97030594D01*
X118221302Y-97173051D01*
X94964886Y-97173051D01*
X94916331Y-97002401D01*
X94914142Y-96998005D01*
X94865181Y-96899677D01*
X94825422Y-96819830D01*
X94702513Y-96657072D01*
X94702511Y-96657069D01*
X94571953Y-96538051D01*
X102981302Y-96538051D01*
X103001783Y-96680507D01*
X103053327Y-96793371D01*
X103061572Y-96811424D01*
X103155821Y-96920194D01*
X103276896Y-96998004D01*
X103276899Y-96998005D01*
X103276898Y-96998005D01*
X103414985Y-97038550D01*
X103414987Y-97038551D01*
X103414988Y-97038551D01*
X103558911Y-97038551D01*
X103558911Y-97038550D01*
X103682027Y-97002401D01*
X103696999Y-96998005D01*
X103696999Y-96998004D01*
X103697002Y-96998004D01*
X103818077Y-96920194D01*
X103912326Y-96811424D01*
X103972114Y-96680508D01*
X103992596Y-96538051D01*
X103972114Y-96395594D01*
X103912326Y-96264678D01*
X103818077Y-96155908D01*
X103697002Y-96078098D01*
X103697000Y-96078097D01*
X103696998Y-96078096D01*
X103696999Y-96078096D01*
X103558912Y-96037551D01*
X103558910Y-96037551D01*
X103414988Y-96037551D01*
X103414985Y-96037551D01*
X103276898Y-96078096D01*
X103155822Y-96155907D01*
X103061572Y-96264677D01*
X103061571Y-96264679D01*
X103001783Y-96395594D01*
X102981302Y-96538051D01*
X94571953Y-96538051D01*
X94551790Y-96519670D01*
X94551788Y-96519668D01*
X94378391Y-96412306D01*
X94378384Y-96412302D01*
X94271899Y-96371050D01*
X94188205Y-96338627D01*
X93987725Y-96301151D01*
X93783773Y-96301151D01*
X93583293Y-96338627D01*
X93583290Y-96338627D01*
X93583290Y-96338628D01*
X93393113Y-96412302D01*
X93393106Y-96412306D01*
X93219709Y-96519668D01*
X93219707Y-96519670D01*
X93068986Y-96657069D01*
X92946076Y-96819829D01*
X92855171Y-97002390D01*
X92855166Y-97002403D01*
X92799351Y-97198568D01*
X92780534Y-97401650D01*
X92780534Y-97401651D01*
X92446249Y-97401651D01*
X92446249Y-96526977D01*
X92446249Y-96526974D01*
X92446248Y-96526972D01*
X92431716Y-96453915D01*
X92431715Y-96453911D01*
X92376350Y-96371050D01*
X92293489Y-96315685D01*
X92293488Y-96315684D01*
X92293484Y-96315683D01*
X92220426Y-96301151D01*
X92220423Y-96301151D01*
X90471075Y-96301151D01*
X90471072Y-96301151D01*
X90398013Y-96315683D01*
X90398009Y-96315684D01*
X90315148Y-96371050D01*
X90259782Y-96453911D01*
X90259781Y-96453915D01*
X90245249Y-96526972D01*
X90245249Y-98276329D01*
X84399801Y-98276329D01*
X84542513Y-98146230D01*
X84665422Y-97983472D01*
X84756331Y-97800901D01*
X84812146Y-97604734D01*
X84830964Y-97401651D01*
X84812146Y-97198568D01*
X84756331Y-97002401D01*
X84754142Y-96998005D01*
X84705181Y-96899677D01*
X84665422Y-96819830D01*
X84542513Y-96657072D01*
X84542511Y-96657069D01*
X84391790Y-96519670D01*
X84391788Y-96519668D01*
X84218391Y-96412306D01*
X84218384Y-96412302D01*
X84111899Y-96371050D01*
X84028205Y-96338627D01*
X83827725Y-96301151D01*
X83623773Y-96301151D01*
X83423293Y-96338627D01*
X83423290Y-96338627D01*
X83423290Y-96338628D01*
X83233113Y-96412302D01*
X83233106Y-96412306D01*
X83059709Y-96519668D01*
X83059707Y-96519670D01*
X82908986Y-96657069D01*
X82786076Y-96819829D01*
X82695171Y-97002390D01*
X82695166Y-97002403D01*
X82639351Y-97198568D01*
X82620534Y-97401650D01*
X82620534Y-97401651D01*
X82286249Y-97401651D01*
X82286249Y-96526977D01*
X82286249Y-96526974D01*
X82286248Y-96526972D01*
X82271716Y-96453915D01*
X82271715Y-96453911D01*
X82216350Y-96371050D01*
X82133489Y-96315685D01*
X82133488Y-96315684D01*
X82133484Y-96315683D01*
X82060426Y-96301151D01*
X82060423Y-96301151D01*
X80311075Y-96301151D01*
X80311072Y-96301151D01*
X80238013Y-96315683D01*
X80238009Y-96315684D01*
X80155148Y-96371050D01*
X80099782Y-96453911D01*
X80099781Y-96453915D01*
X80085249Y-96526972D01*
X80085249Y-98276329D01*
X74239801Y-98276329D01*
X74382513Y-98146230D01*
X74505422Y-97983472D01*
X74596331Y-97800901D01*
X74652146Y-97604734D01*
X74670964Y-97401651D01*
X74652146Y-97198568D01*
X74596331Y-97002401D01*
X74594142Y-96998005D01*
X74545181Y-96899677D01*
X74505422Y-96819830D01*
X74382513Y-96657072D01*
X74382511Y-96657069D01*
X74231790Y-96519670D01*
X74231788Y-96519668D01*
X74058391Y-96412306D01*
X74058384Y-96412302D01*
X73951899Y-96371050D01*
X73868205Y-96338627D01*
X73667725Y-96301151D01*
X73463773Y-96301151D01*
X73263293Y-96338627D01*
X73263290Y-96338627D01*
X73263290Y-96338628D01*
X73073113Y-96412302D01*
X73073106Y-96412306D01*
X72899709Y-96519668D01*
X72899707Y-96519670D01*
X72748986Y-96657069D01*
X72626076Y-96819829D01*
X72535171Y-97002390D01*
X72535166Y-97002403D01*
X72479351Y-97198568D01*
X72460534Y-97401650D01*
X72460534Y-97401651D01*
X72126249Y-97401651D01*
X72126249Y-96526977D01*
X72126249Y-96526974D01*
X72126248Y-96526972D01*
X72111716Y-96453915D01*
X72111715Y-96453911D01*
X72056350Y-96371050D01*
X71973489Y-96315685D01*
X71973488Y-96315684D01*
X71973484Y-96315683D01*
X71900426Y-96301151D01*
X71900423Y-96301151D01*
X70151075Y-96301151D01*
X70151072Y-96301151D01*
X70078013Y-96315683D01*
X70078009Y-96315684D01*
X69995148Y-96371050D01*
X69939782Y-96453911D01*
X69939781Y-96453915D01*
X69925249Y-96526972D01*
X69925249Y-98276329D01*
X50782449Y-98276329D01*
X50782449Y-96520000D01*
X64899353Y-96520000D01*
X64919834Y-96662456D01*
X64942961Y-96713096D01*
X64979623Y-96793373D01*
X65073872Y-96902143D01*
X65194947Y-96979953D01*
X65194950Y-96979954D01*
X65194949Y-96979954D01*
X65333036Y-97020499D01*
X65333038Y-97020500D01*
X65333039Y-97020500D01*
X65476962Y-97020500D01*
X65476962Y-97020499D01*
X65615053Y-96979953D01*
X65736128Y-96902143D01*
X65830377Y-96793373D01*
X65890165Y-96662457D01*
X65910647Y-96520000D01*
X65890165Y-96377543D01*
X65830377Y-96246627D01*
X65736128Y-96137857D01*
X65615053Y-96060047D01*
X65615051Y-96060046D01*
X65615049Y-96060045D01*
X65615050Y-96060045D01*
X65476963Y-96019500D01*
X65476961Y-96019500D01*
X65333039Y-96019500D01*
X65333036Y-96019500D01*
X65194949Y-96060045D01*
X65073873Y-96137856D01*
X64979623Y-96246626D01*
X64979622Y-96246628D01*
X64919834Y-96377543D01*
X64899353Y-96520000D01*
X50782449Y-96520000D01*
X50782449Y-95268051D01*
X81391302Y-95268051D01*
X81411783Y-95410507D01*
X81471571Y-95541422D01*
X81471572Y-95541424D01*
X81565821Y-95650194D01*
X81686896Y-95728004D01*
X81686899Y-95728005D01*
X81686898Y-95728005D01*
X81824985Y-95768550D01*
X81824987Y-95768551D01*
X81824988Y-95768551D01*
X81968911Y-95768551D01*
X81968911Y-95768550D01*
X82107002Y-95728004D01*
X82228077Y-95650194D01*
X82322326Y-95541424D01*
X82382114Y-95410508D01*
X82402596Y-95268051D01*
X92186302Y-95268051D01*
X92206783Y-95410507D01*
X92266571Y-95541422D01*
X92266572Y-95541424D01*
X92360821Y-95650194D01*
X92481896Y-95728004D01*
X92481899Y-95728005D01*
X92481898Y-95728005D01*
X92619985Y-95768550D01*
X92619987Y-95768551D01*
X92619988Y-95768551D01*
X92763911Y-95768551D01*
X92763911Y-95768550D01*
X92902002Y-95728004D01*
X93023077Y-95650194D01*
X93117326Y-95541424D01*
X93177114Y-95410508D01*
X93197596Y-95268051D01*
X113776302Y-95268051D01*
X113796783Y-95410507D01*
X113856571Y-95541422D01*
X113856572Y-95541424D01*
X113950821Y-95650194D01*
X114071896Y-95728004D01*
X114071899Y-95728005D01*
X114071898Y-95728005D01*
X114209985Y-95768550D01*
X114209987Y-95768551D01*
X114209988Y-95768551D01*
X114353911Y-95768551D01*
X114353911Y-95768550D01*
X114492002Y-95728004D01*
X114613077Y-95650194D01*
X114707326Y-95541424D01*
X114767114Y-95410508D01*
X114787596Y-95268051D01*
X114767114Y-95125594D01*
X114707326Y-94994678D01*
X114613077Y-94885908D01*
X114492002Y-94808098D01*
X114492000Y-94808097D01*
X114491998Y-94808096D01*
X114491999Y-94808096D01*
X114353912Y-94767551D01*
X114353910Y-94767551D01*
X114209988Y-94767551D01*
X114209985Y-94767551D01*
X114071898Y-94808096D01*
X113950822Y-94885907D01*
X113856572Y-94994677D01*
X113856571Y-94994679D01*
X113796783Y-95125594D01*
X113776302Y-95268051D01*
X93197596Y-95268051D01*
X93177114Y-95125594D01*
X93117326Y-94994678D01*
X93023077Y-94885908D01*
X92902002Y-94808098D01*
X92902000Y-94808097D01*
X92901998Y-94808096D01*
X92901999Y-94808096D01*
X92763912Y-94767551D01*
X92763910Y-94767551D01*
X92619988Y-94767551D01*
X92619985Y-94767551D01*
X92481898Y-94808096D01*
X92360822Y-94885907D01*
X92266572Y-94994677D01*
X92266571Y-94994679D01*
X92206783Y-95125594D01*
X92186302Y-95268051D01*
X82402596Y-95268051D01*
X82382114Y-95125594D01*
X82322326Y-94994678D01*
X82228077Y-94885908D01*
X82107002Y-94808098D01*
X82107000Y-94808097D01*
X82106998Y-94808096D01*
X82106999Y-94808096D01*
X81968912Y-94767551D01*
X81968910Y-94767551D01*
X81824988Y-94767551D01*
X81824985Y-94767551D01*
X81686898Y-94808096D01*
X81565822Y-94885907D01*
X81471572Y-94994677D01*
X81471571Y-94994679D01*
X81411783Y-95125594D01*
X81391302Y-95268051D01*
X50782449Y-95268051D01*
X50782449Y-94633051D01*
X55356302Y-94633051D01*
X55376783Y-94775507D01*
X55436571Y-94906422D01*
X55436572Y-94906424D01*
X55530821Y-95015194D01*
X55651896Y-95093004D01*
X55651899Y-95093005D01*
X55651898Y-95093005D01*
X55789985Y-95133550D01*
X55789987Y-95133551D01*
X55789988Y-95133551D01*
X55933911Y-95133551D01*
X55933911Y-95133550D01*
X56072002Y-95093004D01*
X56193077Y-95015194D01*
X56287326Y-94906424D01*
X56347114Y-94775508D01*
X56367596Y-94633051D01*
X111236302Y-94633051D01*
X111256783Y-94775507D01*
X111316571Y-94906422D01*
X111316572Y-94906424D01*
X111410821Y-95015194D01*
X111531896Y-95093004D01*
X111531899Y-95093005D01*
X111531898Y-95093005D01*
X111669985Y-95133550D01*
X111669987Y-95133551D01*
X111669988Y-95133551D01*
X111813911Y-95133551D01*
X111813911Y-95133550D01*
X111952002Y-95093004D01*
X112073077Y-95015194D01*
X112167326Y-94906424D01*
X112227114Y-94775508D01*
X112247596Y-94633051D01*
X115681302Y-94633051D01*
X115701783Y-94775507D01*
X115761571Y-94906422D01*
X115761572Y-94906424D01*
X115855821Y-95015194D01*
X115976896Y-95093004D01*
X115976899Y-95093005D01*
X115976898Y-95093005D01*
X116114985Y-95133550D01*
X116114987Y-95133551D01*
X116114988Y-95133551D01*
X116258911Y-95133551D01*
X116258911Y-95133550D01*
X116397002Y-95093004D01*
X116518077Y-95015194D01*
X116612326Y-94906424D01*
X116672114Y-94775508D01*
X116692596Y-94633051D01*
X116672114Y-94490594D01*
X116612326Y-94359678D01*
X116518077Y-94250908D01*
X116397002Y-94173098D01*
X116397000Y-94173097D01*
X116396998Y-94173096D01*
X116396999Y-94173096D01*
X116258912Y-94132551D01*
X116258910Y-94132551D01*
X116114988Y-94132551D01*
X116114985Y-94132551D01*
X115976898Y-94173096D01*
X115855822Y-94250907D01*
X115761572Y-94359677D01*
X115761571Y-94359679D01*
X115701783Y-94490594D01*
X115681302Y-94633051D01*
X112247596Y-94633051D01*
X112227114Y-94490594D01*
X112167326Y-94359678D01*
X112073077Y-94250908D01*
X111952002Y-94173098D01*
X111952000Y-94173097D01*
X111951998Y-94173096D01*
X111951999Y-94173096D01*
X111813912Y-94132551D01*
X111813910Y-94132551D01*
X111669988Y-94132551D01*
X111669985Y-94132551D01*
X111531898Y-94173096D01*
X111410822Y-94250907D01*
X111316572Y-94359677D01*
X111316571Y-94359679D01*
X111256783Y-94490594D01*
X111236302Y-94633051D01*
X56367596Y-94633051D01*
X56347114Y-94490594D01*
X56287326Y-94359678D01*
X56193077Y-94250908D01*
X56072002Y-94173098D01*
X56072000Y-94173097D01*
X56071998Y-94173096D01*
X56071999Y-94173096D01*
X55933912Y-94132551D01*
X55933910Y-94132551D01*
X55789988Y-94132551D01*
X55789985Y-94132551D01*
X55651898Y-94173096D01*
X55530822Y-94250907D01*
X55436572Y-94359677D01*
X55436571Y-94359679D01*
X55376783Y-94490594D01*
X55356302Y-94633051D01*
X50782449Y-94633051D01*
X50782449Y-93998051D01*
X113141302Y-93998051D01*
X113161783Y-94140507D01*
X113221571Y-94271422D01*
X113221572Y-94271424D01*
X113315821Y-94380194D01*
X113436896Y-94458004D01*
X113436899Y-94458005D01*
X113436898Y-94458005D01*
X113574985Y-94498550D01*
X113574987Y-94498551D01*
X113574988Y-94498551D01*
X113718911Y-94498551D01*
X113718911Y-94498550D01*
X113857002Y-94458004D01*
X113978077Y-94380194D01*
X114072326Y-94271424D01*
X114132114Y-94140508D01*
X114152596Y-93998051D01*
X114132114Y-93855594D01*
X114072326Y-93724678D01*
X113978077Y-93615908D01*
X113857002Y-93538098D01*
X113857000Y-93538097D01*
X113856998Y-93538096D01*
X113856999Y-93538096D01*
X113718912Y-93497551D01*
X113718910Y-93497551D01*
X113574988Y-93497551D01*
X113574985Y-93497551D01*
X113436898Y-93538096D01*
X113315822Y-93615907D01*
X113221572Y-93724677D01*
X113221571Y-93724679D01*
X113161783Y-93855594D01*
X113141302Y-93998051D01*
X50782449Y-93998051D01*
X50782449Y-93363051D01*
X114411302Y-93363051D01*
X114431783Y-93505507D01*
X114491571Y-93636422D01*
X114491572Y-93636424D01*
X114585821Y-93745194D01*
X114706896Y-93823004D01*
X114706899Y-93823005D01*
X114706898Y-93823005D01*
X114844985Y-93863550D01*
X114844987Y-93863551D01*
X114844988Y-93863551D01*
X114988911Y-93863551D01*
X114988911Y-93863550D01*
X115127002Y-93823004D01*
X115248077Y-93745194D01*
X115342326Y-93636424D01*
X115402114Y-93505508D01*
X115422596Y-93363051D01*
X115402114Y-93220594D01*
X115342326Y-93089678D01*
X115248077Y-92980908D01*
X115127002Y-92903098D01*
X115127000Y-92903097D01*
X115126998Y-92903096D01*
X115126999Y-92903096D01*
X114988912Y-92862551D01*
X114988910Y-92862551D01*
X114844988Y-92862551D01*
X114844985Y-92862551D01*
X114706898Y-92903096D01*
X114585822Y-92980907D01*
X114491572Y-93089677D01*
X114491571Y-93089679D01*
X114431783Y-93220594D01*
X114411302Y-93363051D01*
X50782449Y-93363051D01*
X50782449Y-90315051D01*
X60148942Y-90315051D01*
X60153538Y-90373453D01*
X60156712Y-90413775D01*
X60157094Y-90423504D01*
X60157094Y-90444792D01*
X60160422Y-90465805D01*
X60161567Y-90475472D01*
X60165026Y-90519410D01*
X60169338Y-90574201D01*
X60169338Y-90574204D01*
X60169339Y-90574206D01*
X60192454Y-90670490D01*
X60194353Y-90680037D01*
X60197683Y-90701064D01*
X60204262Y-90721313D01*
X60206904Y-90730679D01*
X60230022Y-90826972D01*
X60267918Y-90918461D01*
X60271286Y-90927590D01*
X60277864Y-90947834D01*
X60287527Y-90966799D01*
X60291601Y-90975637D01*
X60329500Y-91067135D01*
X60381241Y-91151567D01*
X60385998Y-91160060D01*
X60395665Y-91179032D01*
X60408177Y-91196254D01*
X60413585Y-91204348D01*
X60465323Y-91288777D01*
X60465327Y-91288782D01*
X60529644Y-91364087D01*
X60535666Y-91371727D01*
X60544044Y-91383258D01*
X60548177Y-91388946D01*
X60563222Y-91403991D01*
X60569831Y-91411140D01*
X60634151Y-91486449D01*
X60709467Y-91550775D01*
X60716601Y-91557370D01*
X60731653Y-91572422D01*
X60731656Y-91572424D01*
X60748880Y-91584939D01*
X60756524Y-91590965D01*
X60831817Y-91655272D01*
X60831818Y-91655273D01*
X60851537Y-91667357D01*
X60916269Y-91707024D01*
X60924334Y-91712413D01*
X60941570Y-91724936D01*
X60960546Y-91734604D01*
X60969008Y-91739343D01*
X61053465Y-91791099D01*
X61144985Y-91829007D01*
X61153780Y-91833062D01*
X61172762Y-91842734D01*
X61193021Y-91849316D01*
X61202126Y-91852676D01*
X61238301Y-91867660D01*
X61293625Y-91890577D01*
X61293624Y-91890577D01*
X61322252Y-91897449D01*
X61389924Y-91913696D01*
X61399264Y-91916329D01*
X61419535Y-91922916D01*
X61440569Y-91926247D01*
X61450087Y-91928139D01*
X61546399Y-91951262D01*
X61645147Y-91959033D01*
X61654757Y-91960171D01*
X61675813Y-91963506D01*
X61675816Y-91963506D01*
X61697095Y-91963506D01*
X61706823Y-91963887D01*
X61805549Y-91971658D01*
X61904274Y-91963887D01*
X61914003Y-91963506D01*
X61935281Y-91963506D01*
X61935285Y-91963506D01*
X61956346Y-91960170D01*
X61965947Y-91959034D01*
X62064699Y-91951262D01*
X62161015Y-91928138D01*
X62170528Y-91926247D01*
X62191557Y-91922917D01*
X62191558Y-91922917D01*
X62191559Y-91922916D01*
X62191563Y-91922916D01*
X62211833Y-91916329D01*
X62221169Y-91913697D01*
X62284129Y-91898581D01*
X62317454Y-91890582D01*
X62317457Y-91890580D01*
X62317469Y-91890578D01*
X62408988Y-91852669D01*
X62418073Y-91849317D01*
X62438336Y-91842734D01*
X62457325Y-91833058D01*
X62466099Y-91829013D01*
X62557633Y-91791099D01*
X62642095Y-91739340D01*
X62650538Y-91734611D01*
X62669528Y-91724936D01*
X62686763Y-91712413D01*
X62694828Y-91707024D01*
X62779278Y-91655274D01*
X62854605Y-91590938D01*
X62862209Y-91584944D01*
X62879445Y-91572422D01*
X62894504Y-91557362D01*
X62901616Y-91550787D01*
X62976947Y-91486449D01*
X63041285Y-91411118D01*
X63047860Y-91404006D01*
X63062920Y-91388947D01*
X63075442Y-91371711D01*
X63081436Y-91364107D01*
X63145772Y-91288780D01*
X63197522Y-91204330D01*
X63202911Y-91196265D01*
X63215434Y-91179030D01*
X63225109Y-91160040D01*
X63229838Y-91151597D01*
X63281597Y-91067135D01*
X63319511Y-90975601D01*
X63323556Y-90966827D01*
X63333232Y-90947838D01*
X63339815Y-90927575D01*
X63343167Y-90918490D01*
X63381076Y-90826971D01*
X63404195Y-90730671D01*
X63406827Y-90721335D01*
X63413414Y-90701065D01*
X63416745Y-90680030D01*
X63417537Y-90676045D01*
X72345233Y-90676045D01*
X72364273Y-90930120D01*
X72420968Y-91178518D01*
X72420973Y-91178535D01*
X72514058Y-91415712D01*
X72514057Y-91415712D01*
X72641454Y-91636368D01*
X72641461Y-91636379D01*
X72683452Y-91689032D01*
X72683453Y-91689033D01*
X73487226Y-90885260D01*
X73525901Y-90978629D01*
X73622075Y-91103966D01*
X73747412Y-91200140D01*
X73840779Y-91238813D01*
X73036813Y-92042779D01*
X73197616Y-92152412D01*
X73197624Y-92152417D01*
X73427176Y-92262962D01*
X73427174Y-92262962D01*
X73670652Y-92338065D01*
X73670658Y-92338067D01*
X73922595Y-92376040D01*
X73922604Y-92376041D01*
X74177396Y-92376041D01*
X74177404Y-92376040D01*
X74429341Y-92338067D01*
X74429347Y-92338065D01*
X74672824Y-92262962D01*
X74902376Y-92152417D01*
X74902377Y-92152416D01*
X75063185Y-92042779D01*
X74259220Y-91238813D01*
X74352588Y-91200140D01*
X74477925Y-91103966D01*
X74574099Y-90978630D01*
X74612773Y-90885261D01*
X75416544Y-91689033D01*
X75416546Y-91689032D01*
X75458544Y-91636371D01*
X75585941Y-91415712D01*
X75679026Y-91178535D01*
X75679031Y-91178518D01*
X75735726Y-90930120D01*
X75743750Y-90823051D01*
X122031302Y-90823051D01*
X122051783Y-90965507D01*
X122098196Y-91067135D01*
X122111572Y-91096424D01*
X122205821Y-91205194D01*
X122326896Y-91283004D01*
X122326899Y-91283005D01*
X122326898Y-91283005D01*
X122464985Y-91323550D01*
X122464987Y-91323551D01*
X122464988Y-91323551D01*
X122608911Y-91323551D01*
X122608911Y-91323550D01*
X122727344Y-91288776D01*
X122746999Y-91283005D01*
X122746999Y-91283004D01*
X122747002Y-91283004D01*
X122868077Y-91205194D01*
X122962326Y-91096424D01*
X123022114Y-90965508D01*
X123042596Y-90823051D01*
X123936302Y-90823051D01*
X123956783Y-90965507D01*
X124003196Y-91067135D01*
X124016572Y-91096424D01*
X124110821Y-91205194D01*
X124231896Y-91283004D01*
X124231899Y-91283005D01*
X124231898Y-91283005D01*
X124369985Y-91323550D01*
X124369987Y-91323551D01*
X124369988Y-91323551D01*
X124513911Y-91323551D01*
X124513911Y-91323550D01*
X124632344Y-91288776D01*
X124651999Y-91283005D01*
X124651999Y-91283004D01*
X124652002Y-91283004D01*
X124773077Y-91205194D01*
X124867326Y-91096424D01*
X124927114Y-90965508D01*
X124947596Y-90823051D01*
X124927114Y-90680594D01*
X124867326Y-90549678D01*
X124773077Y-90440908D01*
X124652002Y-90363098D01*
X124652000Y-90363097D01*
X124651998Y-90363096D01*
X124651999Y-90363096D01*
X124513912Y-90322551D01*
X124513910Y-90322551D01*
X124369988Y-90322551D01*
X124369985Y-90322551D01*
X124231898Y-90363096D01*
X124110822Y-90440907D01*
X124016572Y-90549677D01*
X124016571Y-90549679D01*
X123956783Y-90680594D01*
X123936302Y-90823051D01*
X123042596Y-90823051D01*
X123022114Y-90680594D01*
X122962326Y-90549678D01*
X122868077Y-90440908D01*
X122747002Y-90363098D01*
X122747000Y-90363097D01*
X122746998Y-90363096D01*
X122746999Y-90363096D01*
X122608912Y-90322551D01*
X122608910Y-90322551D01*
X122464988Y-90322551D01*
X122464985Y-90322551D01*
X122326898Y-90363096D01*
X122205822Y-90440907D01*
X122111572Y-90549677D01*
X122111571Y-90549679D01*
X122051783Y-90680594D01*
X122031302Y-90823051D01*
X75743750Y-90823051D01*
X75754767Y-90676045D01*
X75754767Y-90676036D01*
X75735726Y-90421961D01*
X75679031Y-90173563D01*
X75679026Y-90173546D01*
X75585941Y-89936369D01*
X75585942Y-89936369D01*
X75458545Y-89715713D01*
X75416545Y-89663047D01*
X74612772Y-90466820D01*
X74574099Y-90373453D01*
X74477925Y-90248116D01*
X74352588Y-90151942D01*
X74259219Y-90113267D01*
X75063185Y-89309301D01*
X74902384Y-89199669D01*
X74902376Y-89199664D01*
X74672823Y-89089119D01*
X74672825Y-89089119D01*
X74429347Y-89014016D01*
X74429341Y-89014014D01*
X74177404Y-88976041D01*
X73922595Y-88976041D01*
X73670658Y-89014014D01*
X73670652Y-89014016D01*
X73427175Y-89089119D01*
X73197622Y-89199666D01*
X73197609Y-89199673D01*
X73036813Y-89309300D01*
X73840780Y-90113267D01*
X73747412Y-90151942D01*
X73622075Y-90248116D01*
X73525901Y-90373452D01*
X73487226Y-90466821D01*
X72683452Y-89663047D01*
X72641457Y-89715708D01*
X72514058Y-89936369D01*
X72420973Y-90173546D01*
X72420968Y-90173563D01*
X72364273Y-90421961D01*
X72345233Y-90676036D01*
X72345233Y-90676045D01*
X63417537Y-90676045D01*
X63418636Y-90670517D01*
X63441760Y-90574201D01*
X63449532Y-90475449D01*
X63450671Y-90465826D01*
X63454004Y-90444787D01*
X63454615Y-90413589D01*
X63454971Y-90406333D01*
X63462156Y-90315051D01*
X63454971Y-90223769D01*
X63454615Y-90216510D01*
X63454004Y-90185315D01*
X63450669Y-90164259D01*
X63449530Y-90154630D01*
X63441760Y-90055901D01*
X63418637Y-89959589D01*
X63416745Y-89950070D01*
X63413414Y-89929037D01*
X63406827Y-89908766D01*
X63404191Y-89899415D01*
X63381075Y-89803126D01*
X63343178Y-89711638D01*
X63339814Y-89702523D01*
X63333232Y-89682264D01*
X63323560Y-89663282D01*
X63319505Y-89654487D01*
X63281597Y-89562967D01*
X63229841Y-89478510D01*
X63225102Y-89470048D01*
X63215434Y-89451072D01*
X63202911Y-89433836D01*
X63197522Y-89425771D01*
X63157855Y-89361039D01*
X63145771Y-89341320D01*
X63145770Y-89341319D01*
X63081463Y-89266026D01*
X63075437Y-89258382D01*
X63065167Y-89244249D01*
X63062920Y-89241155D01*
X63047865Y-89226100D01*
X63041273Y-89218969D01*
X62976947Y-89143653D01*
X62901638Y-89079333D01*
X62894489Y-89072724D01*
X62879444Y-89057679D01*
X62873756Y-89053546D01*
X62862225Y-89045168D01*
X62854585Y-89039146D01*
X62779280Y-88974829D01*
X62779275Y-88974825D01*
X62694846Y-88923087D01*
X62686752Y-88917679D01*
X62669530Y-88905167D01*
X62650558Y-88895500D01*
X62642065Y-88890743D01*
X62557633Y-88839002D01*
X62466135Y-88801103D01*
X62457297Y-88797029D01*
X62438332Y-88787366D01*
X62418088Y-88780788D01*
X62408959Y-88777420D01*
X62317470Y-88739524D01*
X62221177Y-88716406D01*
X62211811Y-88713764D01*
X62191561Y-88707185D01*
X62191564Y-88707185D01*
X62170535Y-88703855D01*
X62160988Y-88701956D01*
X62064703Y-88678841D01*
X62064704Y-88678841D01*
X62064702Y-88678840D01*
X62064699Y-88678840D01*
X62018400Y-88675196D01*
X61965970Y-88671069D01*
X61956303Y-88669924D01*
X61935290Y-88666596D01*
X61935285Y-88666596D01*
X61914003Y-88666596D01*
X61904274Y-88666214D01*
X61805549Y-88658444D01*
X61706824Y-88666214D01*
X61697095Y-88666596D01*
X61675814Y-88666596D01*
X61675813Y-88666596D01*
X61659512Y-88669177D01*
X61654794Y-88669925D01*
X61645128Y-88671069D01*
X61546398Y-88678840D01*
X61546388Y-88678842D01*
X61450110Y-88701955D01*
X61440568Y-88703853D01*
X61419545Y-88707183D01*
X61419529Y-88707187D01*
X61399292Y-88713763D01*
X61389921Y-88716406D01*
X61293629Y-88739523D01*
X61202132Y-88777422D01*
X61193006Y-88780789D01*
X61172766Y-88787366D01*
X61172757Y-88787370D01*
X61153797Y-88797030D01*
X61144962Y-88801103D01*
X61053461Y-88839004D01*
X60969019Y-88890749D01*
X60960534Y-88895502D01*
X60941572Y-88905164D01*
X60941558Y-88905173D01*
X60924347Y-88917677D01*
X60916259Y-88923081D01*
X60831832Y-88974819D01*
X60831820Y-88974828D01*
X60756516Y-89039142D01*
X60748877Y-89045164D01*
X60731658Y-89057675D01*
X60731655Y-89057678D01*
X60716598Y-89072734D01*
X60709454Y-89079337D01*
X60634151Y-89143653D01*
X60569835Y-89218956D01*
X60563232Y-89226100D01*
X60548176Y-89241157D01*
X60548173Y-89241160D01*
X60535662Y-89258379D01*
X60529640Y-89266018D01*
X60465326Y-89341322D01*
X60465317Y-89341334D01*
X60413579Y-89425761D01*
X60408175Y-89433849D01*
X60395671Y-89451060D01*
X60395662Y-89451074D01*
X60386000Y-89470036D01*
X60381247Y-89478521D01*
X60329502Y-89562963D01*
X60291601Y-89654464D01*
X60287528Y-89663299D01*
X60277868Y-89682259D01*
X60277864Y-89682268D01*
X60271287Y-89702508D01*
X60267920Y-89711634D01*
X60230021Y-89803131D01*
X60206904Y-89899423D01*
X60204261Y-89908794D01*
X60197685Y-89929031D01*
X60197681Y-89929047D01*
X60194351Y-89950070D01*
X60192453Y-89959612D01*
X60169340Y-90055890D01*
X60169338Y-90055900D01*
X60161567Y-90154630D01*
X60160423Y-90164296D01*
X60157094Y-90185315D01*
X60157094Y-90206596D01*
X60156712Y-90216325D01*
X60156698Y-90216510D01*
X60148942Y-90315051D01*
X50782449Y-90315051D01*
X50782449Y-88283051D01*
X81391302Y-88283051D01*
X81411783Y-88425507D01*
X81471571Y-88556422D01*
X81471572Y-88556424D01*
X81565821Y-88665194D01*
X81686896Y-88743004D01*
X81686899Y-88743005D01*
X81686898Y-88743005D01*
X81794056Y-88774468D01*
X81815581Y-88780789D01*
X81824985Y-88783550D01*
X81824987Y-88783551D01*
X81824988Y-88783551D01*
X81968911Y-88783551D01*
X81968911Y-88783550D01*
X82076070Y-88752086D01*
X82106999Y-88743005D01*
X82106999Y-88743004D01*
X82107002Y-88743004D01*
X82228077Y-88665194D01*
X82322326Y-88556424D01*
X82382114Y-88425508D01*
X82402596Y-88283051D01*
X108061302Y-88283051D01*
X108081783Y-88425507D01*
X108141571Y-88556422D01*
X108141572Y-88556424D01*
X108235821Y-88665194D01*
X108356896Y-88743004D01*
X108356899Y-88743005D01*
X108356898Y-88743005D01*
X108464056Y-88774468D01*
X108485581Y-88780789D01*
X108494985Y-88783550D01*
X108494987Y-88783551D01*
X108572536Y-88783551D01*
X108639575Y-88803236D01*
X108685330Y-88856040D01*
X108692979Y-88909182D01*
X108696302Y-88909182D01*
X108696302Y-88918050D01*
X108716783Y-89060507D01*
X108722367Y-89072734D01*
X108776572Y-89191424D01*
X108870821Y-89300194D01*
X108991896Y-89378004D01*
X108991899Y-89378005D01*
X108991898Y-89378005D01*
X109129985Y-89418550D01*
X109129987Y-89418551D01*
X109129988Y-89418551D01*
X109273911Y-89418551D01*
X109273911Y-89418550D01*
X109412002Y-89378004D01*
X109533077Y-89300194D01*
X109627326Y-89191424D01*
X109687114Y-89060508D01*
X109707596Y-88918051D01*
X115681302Y-88918051D01*
X115701783Y-89060507D01*
X115707367Y-89072734D01*
X115761572Y-89191424D01*
X115855821Y-89300194D01*
X115976896Y-89378004D01*
X115976899Y-89378005D01*
X115976898Y-89378005D01*
X116114985Y-89418550D01*
X116114987Y-89418551D01*
X116114988Y-89418551D01*
X116258911Y-89418551D01*
X116258911Y-89418550D01*
X116397002Y-89378004D01*
X116518077Y-89300194D01*
X116612326Y-89191424D01*
X116672114Y-89060508D01*
X116692596Y-88918051D01*
X116672114Y-88775594D01*
X116612326Y-88644678D01*
X116518077Y-88535908D01*
X116397002Y-88458098D01*
X116397000Y-88458097D01*
X116396998Y-88458096D01*
X116396999Y-88458096D01*
X116258912Y-88417551D01*
X116258910Y-88417551D01*
X116114988Y-88417551D01*
X116114985Y-88417551D01*
X115976898Y-88458096D01*
X115855822Y-88535907D01*
X115761572Y-88644677D01*
X115761571Y-88644679D01*
X115701783Y-88775594D01*
X115681302Y-88918051D01*
X109707596Y-88918051D01*
X109687114Y-88775594D01*
X109627326Y-88644678D01*
X109533077Y-88535908D01*
X109412002Y-88458098D01*
X109412000Y-88458097D01*
X109411998Y-88458096D01*
X109411999Y-88458096D01*
X109273912Y-88417551D01*
X109273910Y-88417551D01*
X109196362Y-88417551D01*
X109129323Y-88397866D01*
X109108239Y-88373534D01*
X111326785Y-88373534D01*
X111347266Y-88515990D01*
X111406037Y-88644678D01*
X111407055Y-88646907D01*
X111501304Y-88755677D01*
X111622379Y-88833487D01*
X111622382Y-88833488D01*
X111622381Y-88833488D01*
X111760468Y-88874033D01*
X111760470Y-88874034D01*
X111760471Y-88874034D01*
X111904394Y-88874034D01*
X111904394Y-88874033D01*
X112023699Y-88839003D01*
X112042482Y-88833488D01*
X112042482Y-88833487D01*
X112042485Y-88833487D01*
X112163560Y-88755677D01*
X112257809Y-88646907D01*
X112317597Y-88515991D01*
X112338079Y-88373534D01*
X112317597Y-88231077D01*
X112257809Y-88100161D01*
X112163560Y-87991391D01*
X112042485Y-87913581D01*
X112042483Y-87913580D01*
X112042481Y-87913579D01*
X112042482Y-87913579D01*
X111904395Y-87873034D01*
X111904393Y-87873034D01*
X111760471Y-87873034D01*
X111760468Y-87873034D01*
X111622381Y-87913579D01*
X111501305Y-87991390D01*
X111407055Y-88100160D01*
X111407054Y-88100162D01*
X111347266Y-88231077D01*
X111326785Y-88373534D01*
X109108239Y-88373534D01*
X109083568Y-88345062D01*
X109075919Y-88291920D01*
X109072596Y-88291920D01*
X109072596Y-88283051D01*
X109052114Y-88140594D01*
X108992326Y-88009679D01*
X108992325Y-88009677D01*
X108976479Y-87991390D01*
X108898077Y-87900908D01*
X108777002Y-87823098D01*
X108777000Y-87823097D01*
X108776998Y-87823096D01*
X108776999Y-87823096D01*
X108638912Y-87782551D01*
X108638910Y-87782551D01*
X108494988Y-87782551D01*
X108494985Y-87782551D01*
X108356898Y-87823096D01*
X108235822Y-87900907D01*
X108141572Y-88009677D01*
X108141571Y-88009679D01*
X108081783Y-88140594D01*
X108061302Y-88283051D01*
X82402596Y-88283051D01*
X82382114Y-88140594D01*
X82322326Y-88009678D01*
X82228077Y-87900908D01*
X82107002Y-87823098D01*
X82107000Y-87823097D01*
X82106998Y-87823096D01*
X82106999Y-87823096D01*
X81968912Y-87782551D01*
X81968910Y-87782551D01*
X81824988Y-87782551D01*
X81824985Y-87782551D01*
X81686898Y-87823096D01*
X81565822Y-87900907D01*
X81471572Y-88009677D01*
X81471571Y-88009679D01*
X81411783Y-88140594D01*
X81391302Y-88283051D01*
X50782449Y-88283051D01*
X50782449Y-87648051D01*
X112506302Y-87648051D01*
X112526783Y-87790507D01*
X112582989Y-87913579D01*
X112586572Y-87921424D01*
X112680821Y-88030194D01*
X112801896Y-88108004D01*
X112801899Y-88108005D01*
X112801898Y-88108005D01*
X112939985Y-88148550D01*
X112939987Y-88148551D01*
X112939988Y-88148551D01*
X113083911Y-88148551D01*
X113083911Y-88148550D01*
X113222002Y-88108004D01*
X113343077Y-88030194D01*
X113437326Y-87921424D01*
X113497114Y-87790508D01*
X113517596Y-87648051D01*
X113497114Y-87505594D01*
X113437326Y-87374678D01*
X113343077Y-87265908D01*
X113222002Y-87188098D01*
X113222000Y-87188097D01*
X113221998Y-87188096D01*
X113221999Y-87188096D01*
X113083912Y-87147551D01*
X113083910Y-87147551D01*
X112939988Y-87147551D01*
X112939985Y-87147551D01*
X112801898Y-87188096D01*
X112680822Y-87265907D01*
X112586572Y-87374677D01*
X112586571Y-87374679D01*
X112526783Y-87505594D01*
X112506302Y-87648051D01*
X50782449Y-87648051D01*
X50782449Y-86900719D01*
X72599500Y-86900719D01*
X72614032Y-86973776D01*
X72614033Y-86973780D01*
X72614034Y-86973781D01*
X72669399Y-87056642D01*
X72752260Y-87112007D01*
X72752264Y-87112008D01*
X72825321Y-87126540D01*
X72825324Y-87126541D01*
X72825326Y-87126541D01*
X75274676Y-87126541D01*
X75274677Y-87126540D01*
X75347740Y-87112007D01*
X75430601Y-87056642D01*
X75459727Y-87013051D01*
X113776302Y-87013051D01*
X113796783Y-87155507D01*
X113856571Y-87286422D01*
X113856572Y-87286424D01*
X113950821Y-87395194D01*
X114071896Y-87473004D01*
X114071899Y-87473005D01*
X114071898Y-87473005D01*
X114209985Y-87513550D01*
X114209987Y-87513551D01*
X114209988Y-87513551D01*
X114353911Y-87513551D01*
X114353911Y-87513550D01*
X114492002Y-87473004D01*
X114613077Y-87395194D01*
X114707326Y-87286424D01*
X114767114Y-87155508D01*
X114787596Y-87013051D01*
X114767114Y-86870594D01*
X114707326Y-86739678D01*
X114613077Y-86630908D01*
X114492002Y-86553098D01*
X114492000Y-86553097D01*
X114491998Y-86553096D01*
X114491999Y-86553096D01*
X114353912Y-86512551D01*
X114353910Y-86512551D01*
X114209988Y-86512551D01*
X114209985Y-86512551D01*
X114071898Y-86553096D01*
X113950822Y-86630907D01*
X113856572Y-86739677D01*
X113856571Y-86739679D01*
X113796783Y-86870594D01*
X113776302Y-87013051D01*
X75459727Y-87013051D01*
X75485966Y-86973781D01*
X75500500Y-86900715D01*
X75500500Y-86378051D01*
X115046302Y-86378051D01*
X115066783Y-86520507D01*
X115126571Y-86651422D01*
X115126572Y-86651424D01*
X115220821Y-86760194D01*
X115341896Y-86838004D01*
X115341899Y-86838005D01*
X115341898Y-86838005D01*
X115479985Y-86878550D01*
X115479987Y-86878551D01*
X115479988Y-86878551D01*
X115623911Y-86878551D01*
X115623911Y-86878550D01*
X115762002Y-86838004D01*
X115883077Y-86760194D01*
X115977326Y-86651424D01*
X116037114Y-86520508D01*
X116057596Y-86378051D01*
X116037114Y-86235594D01*
X115977326Y-86104678D01*
X115883077Y-85995908D01*
X115762002Y-85918098D01*
X115762000Y-85918097D01*
X115761998Y-85918096D01*
X115761999Y-85918096D01*
X115623912Y-85877551D01*
X115623910Y-85877551D01*
X115479988Y-85877551D01*
X115479985Y-85877551D01*
X115341898Y-85918096D01*
X115220822Y-85995907D01*
X115126572Y-86104677D01*
X115126571Y-86104679D01*
X115066783Y-86235594D01*
X115046302Y-86378051D01*
X75500500Y-86378051D01*
X75500500Y-85743051D01*
X80121302Y-85743051D01*
X80141783Y-85885507D01*
X80201571Y-86016422D01*
X80201572Y-86016424D01*
X80295821Y-86125194D01*
X80416896Y-86203004D01*
X80416899Y-86203005D01*
X80416898Y-86203005D01*
X80554985Y-86243550D01*
X80554987Y-86243551D01*
X80554988Y-86243551D01*
X80698911Y-86243551D01*
X80698911Y-86243550D01*
X80837002Y-86203004D01*
X80958077Y-86125194D01*
X81052326Y-86016424D01*
X81112114Y-85885508D01*
X81132596Y-85743051D01*
X108061302Y-85743051D01*
X108081783Y-85885507D01*
X108141571Y-86016422D01*
X108141572Y-86016424D01*
X108235821Y-86125194D01*
X108356896Y-86203004D01*
X108356899Y-86203005D01*
X108356898Y-86203005D01*
X108494985Y-86243550D01*
X108494987Y-86243551D01*
X108494988Y-86243551D01*
X108638911Y-86243551D01*
X108638911Y-86243550D01*
X108777002Y-86203004D01*
X108898077Y-86125194D01*
X108992326Y-86016424D01*
X109052114Y-85885508D01*
X109072596Y-85743051D01*
X109331302Y-85743051D01*
X109351783Y-85885507D01*
X109411571Y-86016422D01*
X109411572Y-86016424D01*
X109505821Y-86125194D01*
X109626896Y-86203004D01*
X109626899Y-86203005D01*
X109626898Y-86203005D01*
X109764985Y-86243550D01*
X109764987Y-86243551D01*
X109764988Y-86243551D01*
X109908911Y-86243551D01*
X109908911Y-86243550D01*
X110047002Y-86203004D01*
X110168077Y-86125194D01*
X110262326Y-86016424D01*
X110322114Y-85885508D01*
X110342596Y-85743051D01*
X110601302Y-85743051D01*
X110621783Y-85885507D01*
X110681571Y-86016422D01*
X110681572Y-86016424D01*
X110775821Y-86125194D01*
X110896896Y-86203004D01*
X110896899Y-86203005D01*
X110896898Y-86203005D01*
X111034985Y-86243550D01*
X111034987Y-86243551D01*
X111034988Y-86243551D01*
X111178911Y-86243551D01*
X111178911Y-86243550D01*
X111317002Y-86203004D01*
X111438077Y-86125194D01*
X111532326Y-86016424D01*
X111592114Y-85885508D01*
X111612596Y-85743051D01*
X112506302Y-85743051D01*
X112526783Y-85885507D01*
X112586571Y-86016422D01*
X112586572Y-86016424D01*
X112680821Y-86125194D01*
X112801896Y-86203004D01*
X112801899Y-86203005D01*
X112801898Y-86203005D01*
X112939985Y-86243550D01*
X112939987Y-86243551D01*
X112939988Y-86243551D01*
X113083911Y-86243551D01*
X113083911Y-86243550D01*
X113222002Y-86203004D01*
X113343077Y-86125194D01*
X113437326Y-86016424D01*
X113497114Y-85885508D01*
X113517596Y-85743051D01*
X113497114Y-85600594D01*
X113437326Y-85469678D01*
X113343077Y-85360908D01*
X113222002Y-85283098D01*
X113222000Y-85283097D01*
X113221998Y-85283096D01*
X113221999Y-85283096D01*
X113083912Y-85242551D01*
X113083910Y-85242551D01*
X112939988Y-85242551D01*
X112939985Y-85242551D01*
X112801898Y-85283096D01*
X112680822Y-85360907D01*
X112586572Y-85469677D01*
X112586571Y-85469679D01*
X112526783Y-85600594D01*
X112506302Y-85743051D01*
X111612596Y-85743051D01*
X111592114Y-85600594D01*
X111532326Y-85469678D01*
X111438077Y-85360908D01*
X111317002Y-85283098D01*
X111317000Y-85283097D01*
X111316998Y-85283096D01*
X111316999Y-85283096D01*
X111178912Y-85242551D01*
X111178910Y-85242551D01*
X111034988Y-85242551D01*
X111034985Y-85242551D01*
X110896898Y-85283096D01*
X110775822Y-85360907D01*
X110681572Y-85469677D01*
X110681571Y-85469679D01*
X110621783Y-85600594D01*
X110601302Y-85743051D01*
X110342596Y-85743051D01*
X110322114Y-85600594D01*
X110262326Y-85469678D01*
X110168077Y-85360908D01*
X110047002Y-85283098D01*
X110047000Y-85283097D01*
X110046998Y-85283096D01*
X110046999Y-85283096D01*
X109908912Y-85242551D01*
X109908910Y-85242551D01*
X109764988Y-85242551D01*
X109764985Y-85242551D01*
X109626898Y-85283096D01*
X109505822Y-85360907D01*
X109411572Y-85469677D01*
X109411571Y-85469679D01*
X109351783Y-85600594D01*
X109331302Y-85743051D01*
X109072596Y-85743051D01*
X109052114Y-85600594D01*
X108992326Y-85469678D01*
X108898077Y-85360908D01*
X108777002Y-85283098D01*
X108777000Y-85283097D01*
X108776998Y-85283096D01*
X108776999Y-85283096D01*
X108638912Y-85242551D01*
X108638910Y-85242551D01*
X108494988Y-85242551D01*
X108494985Y-85242551D01*
X108356898Y-85283096D01*
X108235822Y-85360907D01*
X108141572Y-85469677D01*
X108141571Y-85469679D01*
X108081783Y-85600594D01*
X108061302Y-85743051D01*
X81132596Y-85743051D01*
X81112114Y-85600594D01*
X81052326Y-85469678D01*
X80958077Y-85360908D01*
X80837002Y-85283098D01*
X80837000Y-85283097D01*
X80836998Y-85283096D01*
X80836999Y-85283096D01*
X80698912Y-85242551D01*
X80698910Y-85242551D01*
X80554988Y-85242551D01*
X80554985Y-85242551D01*
X80416898Y-85283096D01*
X80295822Y-85360907D01*
X80201572Y-85469677D01*
X80201571Y-85469679D01*
X80141783Y-85600594D01*
X80121302Y-85743051D01*
X75500500Y-85743051D01*
X75500500Y-85108051D01*
X94091302Y-85108051D01*
X94111783Y-85250507D01*
X94171571Y-85381422D01*
X94171572Y-85381424D01*
X94265821Y-85490194D01*
X94386896Y-85568004D01*
X94386899Y-85568005D01*
X94386898Y-85568005D01*
X94524985Y-85608550D01*
X94524987Y-85608551D01*
X94524988Y-85608551D01*
X94668911Y-85608551D01*
X94668911Y-85608550D01*
X94807002Y-85568004D01*
X94928077Y-85490194D01*
X95022326Y-85381424D01*
X95082114Y-85250508D01*
X95102596Y-85108051D01*
X115046302Y-85108051D01*
X115066783Y-85250507D01*
X115126571Y-85381422D01*
X115126572Y-85381424D01*
X115220821Y-85490194D01*
X115341896Y-85568004D01*
X115341899Y-85568005D01*
X115341898Y-85568005D01*
X115479985Y-85608550D01*
X115479987Y-85608551D01*
X115479988Y-85608551D01*
X115623911Y-85608551D01*
X115623911Y-85608550D01*
X115762002Y-85568004D01*
X115883077Y-85490194D01*
X115977326Y-85381424D01*
X116037114Y-85250508D01*
X116057596Y-85108051D01*
X116037114Y-84965594D01*
X115977326Y-84834678D01*
X115883077Y-84725908D01*
X115762002Y-84648098D01*
X115762000Y-84648097D01*
X115761998Y-84648096D01*
X115761999Y-84648096D01*
X115623912Y-84607551D01*
X115623910Y-84607551D01*
X115479988Y-84607551D01*
X115479985Y-84607551D01*
X115341898Y-84648096D01*
X115220822Y-84725907D01*
X115126572Y-84834677D01*
X115126571Y-84834679D01*
X115066783Y-84965594D01*
X115046302Y-85108051D01*
X95102596Y-85108051D01*
X95082114Y-84965594D01*
X95022326Y-84834678D01*
X94928077Y-84725908D01*
X94807002Y-84648098D01*
X94807000Y-84648097D01*
X94806998Y-84648096D01*
X94806999Y-84648096D01*
X94668912Y-84607551D01*
X94668910Y-84607551D01*
X94524988Y-84607551D01*
X94524985Y-84607551D01*
X94386898Y-84648096D01*
X94265822Y-84725907D01*
X94171572Y-84834677D01*
X94171571Y-84834679D01*
X94111783Y-84965594D01*
X94091302Y-85108051D01*
X75500500Y-85108051D01*
X75500500Y-84473051D01*
X100441302Y-84473051D01*
X100461783Y-84615507D01*
X100521571Y-84746422D01*
X100521572Y-84746424D01*
X100615821Y-84855194D01*
X100736896Y-84933004D01*
X100736899Y-84933005D01*
X100736898Y-84933005D01*
X100874985Y-84973550D01*
X100874987Y-84973551D01*
X100874988Y-84973551D01*
X101018911Y-84973551D01*
X101018911Y-84973550D01*
X101157002Y-84933004D01*
X101278077Y-84855194D01*
X101372326Y-84746424D01*
X101432114Y-84615508D01*
X101452596Y-84473051D01*
X101432114Y-84330594D01*
X101372326Y-84199678D01*
X101278077Y-84090908D01*
X101157002Y-84013098D01*
X101157000Y-84013097D01*
X101156998Y-84013096D01*
X101156999Y-84013096D01*
X101018912Y-83972551D01*
X101018910Y-83972551D01*
X100874988Y-83972551D01*
X100874985Y-83972551D01*
X100736898Y-84013096D01*
X100615822Y-84090907D01*
X100521572Y-84199677D01*
X100521571Y-84199679D01*
X100461783Y-84330594D01*
X100441302Y-84473051D01*
X75500500Y-84473051D01*
X75500500Y-84451367D01*
X75500500Y-84451364D01*
X75500499Y-84451362D01*
X75485967Y-84378305D01*
X75485966Y-84378301D01*
X75459406Y-84338551D01*
X75430601Y-84295440D01*
X75347740Y-84240075D01*
X75347739Y-84240074D01*
X75347735Y-84240073D01*
X75274677Y-84225541D01*
X75274674Y-84225541D01*
X72825326Y-84225541D01*
X72825323Y-84225541D01*
X72752264Y-84240073D01*
X72752260Y-84240074D01*
X72669399Y-84295440D01*
X72614033Y-84378301D01*
X72614032Y-84378305D01*
X72599500Y-84451362D01*
X72599500Y-86900719D01*
X50782449Y-86900719D01*
X50782449Y-83841531D01*
X50782547Y-83838051D01*
X82661302Y-83838051D01*
X82681783Y-83980507D01*
X82741571Y-84111422D01*
X82741572Y-84111424D01*
X82835821Y-84220194D01*
X82956896Y-84298004D01*
X82956899Y-84298005D01*
X82956898Y-84298005D01*
X83094985Y-84338550D01*
X83094987Y-84338551D01*
X83094988Y-84338551D01*
X83238911Y-84338551D01*
X83238911Y-84338550D01*
X83377002Y-84298004D01*
X83498077Y-84220194D01*
X83592326Y-84111424D01*
X83652114Y-83980508D01*
X83672596Y-83838051D01*
X83931302Y-83838051D01*
X83951783Y-83980507D01*
X84011571Y-84111422D01*
X84011572Y-84111424D01*
X84105821Y-84220194D01*
X84226896Y-84298004D01*
X84226899Y-84298005D01*
X84226898Y-84298005D01*
X84364985Y-84338550D01*
X84364987Y-84338551D01*
X84364988Y-84338551D01*
X84508911Y-84338551D01*
X84508911Y-84338550D01*
X84647002Y-84298004D01*
X84768077Y-84220194D01*
X84862326Y-84111424D01*
X84922114Y-83980508D01*
X84942596Y-83838051D01*
X84923977Y-83708551D01*
X92821302Y-83708551D01*
X92841783Y-83851007D01*
X92897291Y-83972551D01*
X92901572Y-83981924D01*
X92995821Y-84090694D01*
X93116896Y-84168504D01*
X93116899Y-84168505D01*
X93116898Y-84168505D01*
X93254985Y-84209050D01*
X93254987Y-84209051D01*
X93254988Y-84209051D01*
X93398911Y-84209051D01*
X93398911Y-84209050D01*
X93537002Y-84168504D01*
X93658077Y-84090694D01*
X93752326Y-83981924D01*
X93812114Y-83851008D01*
X93813977Y-83838051D01*
X118856302Y-83838051D01*
X118876783Y-83980507D01*
X118936571Y-84111422D01*
X118936572Y-84111424D01*
X119030821Y-84220194D01*
X119151896Y-84298004D01*
X119151899Y-84298005D01*
X119151898Y-84298005D01*
X119289985Y-84338550D01*
X119289987Y-84338551D01*
X119289988Y-84338551D01*
X119433911Y-84338551D01*
X119433911Y-84338550D01*
X119572002Y-84298004D01*
X119693077Y-84220194D01*
X119787326Y-84111424D01*
X119847114Y-83980508D01*
X119867596Y-83838051D01*
X119847114Y-83695594D01*
X119787326Y-83564678D01*
X119693077Y-83455908D01*
X119572002Y-83378098D01*
X119572000Y-83378097D01*
X119571998Y-83378096D01*
X119571999Y-83378096D01*
X119433912Y-83337551D01*
X119433910Y-83337551D01*
X119289988Y-83337551D01*
X119289985Y-83337551D01*
X119151898Y-83378096D01*
X119030822Y-83455907D01*
X118936572Y-83564677D01*
X118936571Y-83564679D01*
X118876783Y-83695594D01*
X118856302Y-83838051D01*
X93813977Y-83838051D01*
X93832596Y-83708551D01*
X93812114Y-83566094D01*
X93752326Y-83435178D01*
X93658077Y-83326408D01*
X93537002Y-83248598D01*
X93537000Y-83248597D01*
X93536998Y-83248596D01*
X93536999Y-83248596D01*
X93398912Y-83208051D01*
X93398910Y-83208051D01*
X93254988Y-83208051D01*
X93254985Y-83208051D01*
X93116898Y-83248596D01*
X92995822Y-83326407D01*
X92901572Y-83435177D01*
X92901571Y-83435179D01*
X92841783Y-83566094D01*
X92821302Y-83708551D01*
X84923977Y-83708551D01*
X84922114Y-83695594D01*
X84862326Y-83564678D01*
X84768077Y-83455908D01*
X84647002Y-83378098D01*
X84647000Y-83378097D01*
X84646998Y-83378096D01*
X84646999Y-83378096D01*
X84508912Y-83337551D01*
X84508910Y-83337551D01*
X84364988Y-83337551D01*
X84364985Y-83337551D01*
X84226898Y-83378096D01*
X84105822Y-83455907D01*
X84011572Y-83564677D01*
X84011571Y-83564679D01*
X83951783Y-83695594D01*
X83931302Y-83838051D01*
X83672596Y-83838051D01*
X83652114Y-83695594D01*
X83592326Y-83564678D01*
X83498077Y-83455908D01*
X83377002Y-83378098D01*
X83377000Y-83378097D01*
X83376998Y-83378096D01*
X83376999Y-83378096D01*
X83238912Y-83337551D01*
X83238910Y-83337551D01*
X83094988Y-83337551D01*
X83094985Y-83337551D01*
X82956898Y-83378096D01*
X82835822Y-83455907D01*
X82741572Y-83564677D01*
X82741571Y-83564679D01*
X82681783Y-83695594D01*
X82661302Y-83838051D01*
X50782547Y-83838051D01*
X50782644Y-83834578D01*
X50788910Y-83723000D01*
X50788941Y-83722466D01*
X50789783Y-83708551D01*
X50799152Y-83553674D01*
X50800673Y-83540436D01*
X50823081Y-83408549D01*
X50823310Y-83407251D01*
X50849963Y-83261815D01*
X50852771Y-83249866D01*
X50890937Y-83117391D01*
X50891695Y-83114865D01*
X50906127Y-83068550D01*
X50934382Y-82977875D01*
X50938191Y-82967357D01*
X50991622Y-82838363D01*
X50993085Y-82834978D01*
X50993109Y-82834925D01*
X51051261Y-82705714D01*
X51055785Y-82696673D01*
X51123743Y-82573713D01*
X51126101Y-82569635D01*
X51127059Y-82568051D01*
X83296302Y-82568051D01*
X83316783Y-82710507D01*
X83373604Y-82834925D01*
X83376572Y-82841424D01*
X83470821Y-82950194D01*
X83591896Y-83028004D01*
X83591899Y-83028005D01*
X83591898Y-83028005D01*
X83729985Y-83068550D01*
X83729987Y-83068551D01*
X83729988Y-83068551D01*
X83873911Y-83068551D01*
X83873911Y-83068550D01*
X84012002Y-83028004D01*
X84133077Y-82950194D01*
X84227326Y-82841424D01*
X84287114Y-82710508D01*
X84307596Y-82568051D01*
X84287114Y-82425594D01*
X84227326Y-82294678D01*
X84133077Y-82185908D01*
X84012002Y-82108098D01*
X84012000Y-82108097D01*
X84011998Y-82108096D01*
X84011999Y-82108096D01*
X83873912Y-82067551D01*
X83873910Y-82067551D01*
X83729988Y-82067551D01*
X83729985Y-82067551D01*
X83591898Y-82108096D01*
X83470822Y-82185907D01*
X83376572Y-82294677D01*
X83376571Y-82294679D01*
X83316783Y-82425594D01*
X83296302Y-82568051D01*
X51127059Y-82568051D01*
X51199023Y-82449007D01*
X51203975Y-82441456D01*
X51285517Y-82326533D01*
X51288990Y-82321876D01*
X51375660Y-82211250D01*
X51380771Y-82205144D01*
X51474805Y-82099919D01*
X51479525Y-82094927D01*
X51578834Y-81995617D01*
X51583805Y-81990918D01*
X51689051Y-81896864D01*
X51695145Y-81891763D01*
X51805787Y-81805081D01*
X51810383Y-81801652D01*
X51925366Y-81720068D01*
X51932910Y-81715121D01*
X52053555Y-81642189D01*
X52057588Y-81639856D01*
X52180581Y-81571880D01*
X52189614Y-81567362D01*
X52318928Y-81509162D01*
X52322220Y-81507740D01*
X52451277Y-81454282D01*
X52461749Y-81450490D01*
X52598863Y-81407764D01*
X52601169Y-81407072D01*
X52733781Y-81368867D01*
X52745713Y-81366063D01*
X52891218Y-81339398D01*
X52892382Y-81339193D01*
X53024327Y-81316774D01*
X53037572Y-81315253D01*
X53206876Y-81305011D01*
X53318441Y-81298746D01*
X53325392Y-81298551D01*
X124438467Y-81298551D01*
X124445419Y-81298745D01*
G37*
%TD.AperFunction*%
%TD*%
M02*
