%TF.GenerationSoftware,KiCad,Pcbnew,7.0.10*%
%TF.CreationDate,2025-02-18T11:07:04-08:00*%
%TF.ProjectId,flow-controller,666c6f77-2d63-46f6-9e74-726f6c6c6572,rev?*%
%TF.SameCoordinates,Original*%
%TF.FileFunction,Copper,L4,Bot*%
%TF.FilePolarity,Positive*%
%FSLAX46Y46*%
G04 Gerber Fmt 4.6, Leading zero omitted, Abs format (unit mm)*
G04 Created by KiCad (PCBNEW 7.0.10) date 2025-02-18 11:07:04*
%MOMM*%
%LPD*%
G01*
G04 APERTURE LIST*
G04 Aperture macros list*
%AMRoundRect*
0 Rectangle with rounded corners*
0 $1 Rounding radius*
0 $2 $3 $4 $5 $6 $7 $8 $9 X,Y pos of 4 corners*
0 Add a 4 corners polygon primitive as box body*
4,1,4,$2,$3,$4,$5,$6,$7,$8,$9,$2,$3,0*
0 Add four circle primitives for the rounded corners*
1,1,$1+$1,$2,$3*
1,1,$1+$1,$4,$5*
1,1,$1+$1,$6,$7*
1,1,$1+$1,$8,$9*
0 Add four rect primitives between the rounded corners*
20,1,$1+$1,$2,$3,$4,$5,0*
20,1,$1+$1,$4,$5,$6,$7,0*
20,1,$1+$1,$6,$7,$8,$9,0*
20,1,$1+$1,$8,$9,$2,$3,0*%
G04 Aperture macros list end*
%TA.AperFunction,ComponentPad*%
%ADD10C,1.168400*%
%TD*%
%TA.AperFunction,ComponentPad*%
%ADD11R,1.520000X1.520000*%
%TD*%
%TA.AperFunction,ComponentPad*%
%ADD12C,1.520000*%
%TD*%
%TA.AperFunction,SMDPad,CuDef*%
%ADD13RoundRect,0.237500X-0.237500X0.300000X-0.237500X-0.300000X0.237500X-0.300000X0.237500X0.300000X0*%
%TD*%
%TA.AperFunction,SMDPad,CuDef*%
%ADD14RoundRect,0.237500X-0.237500X0.250000X-0.237500X-0.250000X0.237500X-0.250000X0.237500X0.250000X0*%
%TD*%
%TA.AperFunction,SMDPad,CuDef*%
%ADD15RoundRect,0.237500X0.237500X-0.250000X0.237500X0.250000X-0.237500X0.250000X-0.237500X-0.250000X0*%
%TD*%
%TA.AperFunction,SMDPad,CuDef*%
%ADD16RoundRect,0.237500X0.250000X0.237500X-0.250000X0.237500X-0.250000X-0.237500X0.250000X-0.237500X0*%
%TD*%
%TA.AperFunction,ComponentPad*%
%ADD17R,1.700000X1.700000*%
%TD*%
%TA.AperFunction,ComponentPad*%
%ADD18O,1.700000X1.700000*%
%TD*%
%TA.AperFunction,SMDPad,CuDef*%
%ADD19RoundRect,0.237500X0.237500X-0.300000X0.237500X0.300000X-0.237500X0.300000X-0.237500X-0.300000X0*%
%TD*%
%TA.AperFunction,ComponentPad*%
%ADD20R,2.400000X2.400000*%
%TD*%
%TA.AperFunction,ComponentPad*%
%ADD21C,2.400000*%
%TD*%
%TA.AperFunction,SMDPad,CuDef*%
%ADD22RoundRect,0.237500X0.300000X0.237500X-0.300000X0.237500X-0.300000X-0.237500X0.300000X-0.237500X0*%
%TD*%
%TA.AperFunction,ViaPad*%
%ADD23C,0.500000*%
%TD*%
%TA.AperFunction,Conductor*%
%ADD24C,0.250000*%
%TD*%
G04 APERTURE END LIST*
D10*
%TO.P,J7,1,1*%
%TO.N,/MCU/JTAG_VCC*%
X99676949Y-100983051D03*
%TO.P,J7,2,2*%
%TO.N,/MCU/TMS*%
X100946949Y-100983051D03*
%TO.P,J7,3,3*%
%TO.N,GND*%
X99676949Y-102253051D03*
%TO.P,J7,4,4*%
%TO.N,/MCU/TCK*%
X100946949Y-102253051D03*
%TO.P,J7,5,5*%
%TO.N,GND*%
X99676949Y-103523051D03*
%TO.P,J7,6,6*%
%TO.N,/MCU/TDO*%
X100946949Y-103523051D03*
%TO.P,J7,7,7*%
%TO.N,/MCU/SBWTCK*%
X99676949Y-104793051D03*
%TO.P,J7,8,8*%
%TO.N,/MCU/TDI*%
X100946949Y-104793051D03*
%TO.P,J7,9,9*%
%TO.N,GND*%
X99676949Y-106063051D03*
%TO.P,J7,10,10*%
%TO.N,/MCU/RST*%
X100946949Y-106063051D03*
%TD*%
D11*
%TO.P,J8,1,Pin_1*%
%TO.N,Net-(D1-A)*%
X83801949Y-116840000D03*
D12*
%TO.P,J8,2,Pin_2*%
%TO.N,+BATT*%
X83801949Y-113840001D03*
%TD*%
D11*
%TO.P,J9,1,1*%
%TO.N,GND*%
X109855000Y-116840000D03*
D12*
%TO.P,J9,2,2*%
%TO.N,/RS232 Transceiver/T1OUT*%
X106855001Y-116840000D03*
%TO.P,J9,3,3*%
%TO.N,/RS232 Transceiver/R1IN*%
X109855000Y-113840001D03*
%TO.P,J9,4,4*%
%TO.N,+BATT*%
X106855001Y-113840001D03*
%TD*%
D13*
%TO.P,C15,1*%
%TO.N,GND*%
X81575000Y-82637500D03*
%TO.P,C15,2*%
%TO.N,+BATT*%
X81575000Y-84362500D03*
%TD*%
D14*
%TO.P,R3,1*%
%TO.N,Net-(U5-AISEN)*%
X92075000Y-86082500D03*
%TO.P,R3,2*%
%TO.N,GND*%
X92075000Y-87907500D03*
%TD*%
D15*
%TO.P,R8,1*%
%TO.N,Net-(U6-BISEN)*%
X65405000Y-94892500D03*
%TO.P,R8,2*%
%TO.N,GND*%
X65405000Y-93067500D03*
%TD*%
D16*
%TO.P,R9,1*%
%TO.N,Net-(U6-CISEN)*%
X64204357Y-107150000D03*
%TO.P,R9,2*%
%TO.N,GND*%
X62379357Y-107150000D03*
%TD*%
D17*
%TO.P,J1,1,Pin_1*%
%TO.N,/Motor Driver 1/DO2*%
X81185749Y-105021651D03*
D18*
%TO.P,J1,2,Pin_2*%
%TO.N,/Motor Driver 1/DO1*%
X83725749Y-105021651D03*
%TD*%
D19*
%TO.P,C12,1*%
%TO.N,GND*%
X85071949Y-87875551D03*
%TO.P,C12,2*%
%TO.N,/Motor Driver 1/VREF1*%
X85071949Y-86150551D03*
%TD*%
D15*
%TO.P,R4,1*%
%TO.N,Net-(U5-BISEN)*%
X92710000Y-93622500D03*
%TO.P,R4,2*%
%TO.N,GND*%
X92710000Y-91797500D03*
%TD*%
D20*
%TO.P,C16,1*%
%TO.N,+BATT*%
X74050000Y-85676041D03*
D21*
%TO.P,C16,2*%
%TO.N,GND*%
X74050000Y-90676041D03*
%TD*%
D17*
%TO.P,J5,1,Pin_1*%
%TO.N,/Motor Driver 1/AO2*%
X91345749Y-105021651D03*
D18*
%TO.P,J5,2,Pin_2*%
%TO.N,/Motor Driver 1/AO1*%
X93885749Y-105021651D03*
%TD*%
D17*
%TO.P,J6,1,Pin_1*%
%TO.N,/Motor Driver 1/CO2*%
X81185749Y-97401651D03*
D18*
%TO.P,J6,2,Pin_2*%
%TO.N,/Motor Driver 1/CO1*%
X83725749Y-97401651D03*
%TD*%
D17*
%TO.P,J3,1,Pin_1*%
%TO.N,/Motor Driver 2/CO2*%
X71025749Y-105021651D03*
D18*
%TO.P,J3,2,Pin_2*%
%TO.N,/Motor Driver 2/CO1*%
X73565749Y-105021651D03*
%TD*%
D14*
%TO.P,R6,1*%
%TO.N,Net-(U5-DISEN)*%
X83185000Y-86082500D03*
%TO.P,R6,2*%
%TO.N,GND*%
X83185000Y-87907500D03*
%TD*%
D17*
%TO.P,J2,1,Pin_1*%
%TO.N,/Motor Driver 1/BO2*%
X91345749Y-97401651D03*
D18*
%TO.P,J2,2,Pin_2*%
%TO.N,/Motor Driver 1/BO1*%
X93885749Y-97401651D03*
%TD*%
D15*
%TO.P,R5,1*%
%TO.N,Net-(U5-CISEN)*%
X82550000Y-93622500D03*
%TO.P,R5,2*%
%TO.N,GND*%
X82550000Y-91797500D03*
%TD*%
D20*
%TO.P,C21,1*%
%TO.N,+BATT*%
X74300000Y-114101041D03*
D21*
%TO.P,C21,2*%
%TO.N,GND*%
X74300000Y-119101041D03*
%TD*%
D22*
%TO.P,C17,1*%
%TO.N,GND*%
X57359449Y-103523051D03*
%TO.P,C17,2*%
%TO.N,/Motor Driver 2/VREF2*%
X55634449Y-103523051D03*
%TD*%
D17*
%TO.P,J4,1,Pin_1*%
%TO.N,/Motor Driver 2/BO2*%
X71025749Y-97401651D03*
D18*
%TO.P,J4,2,Pin_2*%
%TO.N,/Motor Driver 2/BO1*%
X73565749Y-97401651D03*
%TD*%
D23*
%TO.N,GND*%
X123190000Y-100965000D03*
X107931949Y-92093051D03*
X125730000Y-114300000D03*
X58401949Y-99713051D03*
X115551949Y-92093051D03*
X114281949Y-116858051D03*
X84436949Y-89553051D03*
X80645000Y-90805000D03*
X123190000Y-113030000D03*
X60941949Y-98443051D03*
X58401949Y-98443051D03*
X59671949Y-103523051D03*
X109836949Y-106698051D03*
X58401949Y-104793051D03*
X85706949Y-89553051D03*
X88265000Y-95250000D03*
X125730000Y-99695000D03*
X86995000Y-84455000D03*
X58401949Y-97173051D03*
X125730000Y-113030000D03*
X118091949Y-102888051D03*
X118110000Y-100330000D03*
X120631949Y-97808051D03*
X90786949Y-88283051D03*
X80225000Y-82375000D03*
X125730000Y-111760000D03*
X105410000Y-82550000D03*
X59671949Y-95903051D03*
X114281949Y-119398051D03*
X94615000Y-88265000D03*
X60941949Y-100983051D03*
X123825000Y-82550000D03*
X105391949Y-98443051D03*
X89516949Y-89553051D03*
X59671949Y-107333051D03*
X89516949Y-88283051D03*
X102216949Y-86378051D03*
X60941949Y-106063051D03*
X111106949Y-107968051D03*
X103486949Y-107333051D03*
X100311949Y-97173051D03*
X59671949Y-106063051D03*
X116205000Y-109855000D03*
X60941949Y-104793051D03*
X59671949Y-104793051D03*
X125730000Y-110490000D03*
X94615000Y-89535000D03*
X101581949Y-97173051D03*
X94615000Y-92075000D03*
X83166949Y-89553051D03*
X60941949Y-99713051D03*
X86976949Y-89553051D03*
X60941949Y-102253051D03*
X119361949Y-114318051D03*
X58401949Y-95903051D03*
X124460000Y-99695000D03*
X109836949Y-107968051D03*
X54591949Y-101618051D03*
X59671949Y-98443051D03*
X80645000Y-89535000D03*
X93326949Y-89553051D03*
X85706949Y-90823051D03*
X86976949Y-90823051D03*
X100946949Y-93998051D03*
X125730000Y-89535000D03*
X103486949Y-93998051D03*
X88246949Y-90823051D03*
X58401949Y-106063051D03*
X86976949Y-88283051D03*
X88246949Y-88283051D03*
X81896949Y-89553051D03*
X58401949Y-100983051D03*
X120631949Y-96538051D03*
X114281949Y-114318051D03*
X60941949Y-103523051D03*
X125730000Y-86360000D03*
X114281949Y-121938051D03*
X59671949Y-100983051D03*
X125730000Y-100965000D03*
X124460000Y-89535000D03*
X90786949Y-89553051D03*
X94615000Y-90805000D03*
X102216949Y-93998051D03*
X92056949Y-89553051D03*
X109836949Y-103523051D03*
X124460000Y-113030000D03*
X116186949Y-98443051D03*
X101600000Y-82550000D03*
X112376949Y-103523051D03*
X65386949Y-100983051D03*
X102216949Y-90188051D03*
X124460000Y-111760000D03*
X59671949Y-102253051D03*
X88246949Y-89553051D03*
X123190000Y-99695000D03*
X119996949Y-102888051D03*
X124460000Y-100965000D03*
X60941949Y-107333051D03*
X89516949Y-90823051D03*
X118726949Y-82568051D03*
X59671949Y-97173051D03*
X80645000Y-92075000D03*
X84436949Y-90823051D03*
X125730000Y-115570000D03*
X90786949Y-90823051D03*
X59671949Y-99713051D03*
X125730000Y-85090000D03*
X58401949Y-107333051D03*
X117475000Y-109220000D03*
%TO.N,+3V3*%
X111106949Y-103523051D03*
X119361949Y-83838051D03*
X118726949Y-97173051D03*
X100946949Y-84473051D03*
X121920000Y-123190000D03*
X124460000Y-121920000D03*
X121920000Y-121920000D03*
X123190000Y-123190000D03*
X102235000Y-110490000D03*
X123190000Y-121920000D03*
X114916949Y-100348051D03*
X125730000Y-123190000D03*
X124460000Y-123190000D03*
X103486949Y-96538051D03*
X125730000Y-121920000D03*
X101600000Y-122555000D03*
%TO.N,+BATT*%
X81896949Y-88283051D03*
X94596949Y-85108051D03*
X122536949Y-109238051D03*
X55861949Y-94633051D03*
X122536949Y-106698051D03*
X122536949Y-105428051D03*
X55921949Y-109585551D03*
X80626949Y-85743051D03*
X122536949Y-107968051D03*
X55921949Y-108603051D03*
X121266949Y-105428051D03*
X83801949Y-82568051D03*
%TO.N,/MCU/JTAG_VCC*%
X97771949Y-102253051D03*
%TO.N,/MCU/TMS*%
X113646949Y-93998051D03*
%TO.N,/MCU/TCK*%
X114916949Y-93363051D03*
%TO.N,/MCU/TDO*%
X114281949Y-95268051D03*
%TO.N,/MCU/TDI*%
X116186949Y-94633051D03*
%TO.N,/MCU/RST*%
X115551949Y-86378051D03*
%TO.N,/RS232 Transceiver/R1IN*%
X114916949Y-106063051D03*
%TO.N,/RS232 Transceiver/T1OUT*%
X114916949Y-104793051D03*
%TO.N,Net-(U5-AISEN)*%
X93326949Y-83708551D03*
%TO.N,Net-(U5-BISEN)*%
X92691949Y-95268051D03*
%TO.N,Net-(U5-CISEN)*%
X81896949Y-95268051D03*
%TO.N,Net-(U5-DISEN)*%
X83166949Y-83838051D03*
%TO.N,Net-(U6-BISEN)*%
X65405000Y-96520000D03*
%TO.N,Net-(U6-CISEN)*%
X66021949Y-107333051D03*
%TO.N,/MCU/PUMP_RELAY*%
X111741949Y-94633051D03*
X106026949Y-99713051D03*
%TO.N,/MCU/R1OUT*%
X114916949Y-107333051D03*
X114916949Y-99078051D03*
%TO.N,/MCU/T1IN*%
X116186949Y-88918051D03*
X114916949Y-109873051D03*
%TO.N,Net-(U1-P8.2)*%
X124441949Y-90823051D03*
X115551949Y-85108051D03*
%TO.N,Net-(U1-P8.3)*%
X113011949Y-85743051D03*
X122536949Y-90823051D03*
%TO.N,/MCU/SDATA*%
X111106949Y-85743051D03*
X86341949Y-102253051D03*
X68561949Y-102253051D03*
%TO.N,/MCU/SCLK*%
X86976949Y-101618051D03*
X69831949Y-101618051D03*
X109836949Y-85743051D03*
%TO.N,/MCU/B_CS*%
X108566949Y-85743051D03*
X68561949Y-99713051D03*
%TO.N,/MCU/ONOFF*%
X106661949Y-98443051D03*
X116186949Y-102888051D03*
X114281949Y-87013051D03*
X114916949Y-108603051D03*
%TO.N,/MCU/A_CS*%
X113011949Y-87648051D03*
X88881949Y-103523051D03*
%TO.N,/MCU/SSTB*%
X67291949Y-102888051D03*
X85706949Y-102888051D03*
X111832432Y-88373534D03*
%TO.N,/MCU/nRESET*%
X88881949Y-100348051D03*
X69831949Y-100348051D03*
X108566949Y-88283051D03*
%TO.N,/MCU/nSLEEP*%
X71101949Y-100983051D03*
X88246949Y-100983051D03*
X109201949Y-88918051D03*
%TO.N,/Motor Driver 1/VREF1*%
X84436949Y-83838051D03*
%TO.N,/Motor Driver 2/VREF2*%
X53956949Y-102253051D03*
%TD*%
D24*
%TO.N,GND*%
X80487500Y-82637500D02*
X80225000Y-82375000D01*
X81575000Y-82637500D02*
X80487500Y-82637500D01*
%TO.N,+BATT*%
X81575000Y-84795000D02*
X80626949Y-85743051D01*
X81575000Y-84362500D02*
X81575000Y-84795000D01*
%TO.N,/MCU/JTAG_VCC*%
X97771949Y-102253051D02*
X99041949Y-100983051D01*
X99041949Y-100983051D02*
X99676949Y-100983051D01*
%TO.N,/MCU/TMS*%
X106661949Y-100983051D02*
X113646949Y-93998051D01*
X100946949Y-100983051D02*
X106661949Y-100983051D01*
%TO.N,/MCU/TCK*%
X114916949Y-93541224D02*
X114916949Y-93363051D01*
X100946949Y-102253051D02*
X106205122Y-102253051D01*
X106205122Y-102253051D02*
X114916949Y-93541224D01*
%TO.N,/MCU/TDO*%
X100946949Y-103523051D02*
X106026949Y-103523051D01*
X106026949Y-103523051D02*
X114281949Y-95268051D01*
%TO.N,/MCU/TDI*%
X100946949Y-104793051D02*
X106026949Y-104793051D01*
X106026949Y-104793051D02*
X116186949Y-94633051D01*
%TO.N,/MCU/RST*%
X115551949Y-86378051D02*
X115551949Y-89553051D01*
X105570122Y-106063051D02*
X100946949Y-106063051D01*
X116761949Y-94871224D02*
X105570122Y-106063051D01*
X115551949Y-89553051D02*
X116761949Y-90763051D01*
X116761949Y-90763051D02*
X116761949Y-94871224D01*
%TO.N,/RS232 Transceiver/R1IN*%
X111741949Y-109238051D02*
X114916949Y-106063051D01*
X111741949Y-109238051D02*
X111741949Y-111953052D01*
X111741949Y-111953052D02*
X109855000Y-113840001D01*
%TO.N,/RS232 Transceiver/T1OUT*%
X108566949Y-104793051D02*
X105200000Y-108160000D01*
X114916949Y-104793051D02*
X108566949Y-104793051D01*
X105200000Y-108160000D02*
X105200000Y-115184999D01*
X105200000Y-115184999D02*
X106855001Y-116840000D01*
%TO.N,Net-(U5-AISEN)*%
X93326949Y-84830551D02*
X92075000Y-86082500D01*
X93326949Y-83708551D02*
X93326949Y-84830551D01*
%TO.N,Net-(U5-BISEN)*%
X92691949Y-95268051D02*
X92691949Y-93640551D01*
X92691949Y-93640551D02*
X92710000Y-93622500D01*
%TO.N,Net-(U5-CISEN)*%
X82550000Y-93622500D02*
X82550000Y-94615000D01*
X82550000Y-94615000D02*
X81896949Y-95268051D01*
%TO.N,Net-(U5-DISEN)*%
X83166949Y-83838051D02*
X83185000Y-83856102D01*
X83185000Y-83856102D02*
X83185000Y-86082500D01*
%TO.N,Net-(U6-BISEN)*%
X65405000Y-96520000D02*
X65405000Y-94892500D01*
%TO.N,Net-(U6-CISEN)*%
X64387408Y-107333051D02*
X64204357Y-107150000D01*
X66021949Y-107333051D02*
X64387408Y-107333051D01*
%TO.N,/MCU/PUMP_RELAY*%
X106026949Y-99713051D02*
X106661949Y-99713051D01*
X106661949Y-99713051D02*
X111741949Y-94633051D01*
%TO.N,/MCU/R1OUT*%
X115551949Y-99713051D02*
X114916949Y-99078051D01*
X114916949Y-107333051D02*
X115551949Y-106698051D01*
X115551949Y-106698051D02*
X115551949Y-99713051D01*
%TO.N,/MCU/T1IN*%
X117211949Y-107578051D02*
X114916949Y-109873051D01*
X116186949Y-88918051D02*
X117211949Y-89943051D01*
X117211949Y-89943051D02*
X117211949Y-107578051D01*
%TO.N,Net-(U1-P8.2)*%
X115551949Y-85108051D02*
X118726949Y-85108051D01*
X124441949Y-90823051D02*
X118726949Y-85108051D01*
%TO.N,Net-(U1-P8.3)*%
X117456949Y-85743051D02*
X116821949Y-85743051D01*
X122536949Y-90823051D02*
X117456949Y-85743051D01*
X113011949Y-85743051D02*
X116821949Y-85743051D01*
%TO.N,/MCU/SDATA*%
X109381518Y-90188051D02*
X111106949Y-88462620D01*
X99212533Y-92563051D02*
X103200706Y-92563051D01*
X97956949Y-98897239D02*
X97956949Y-93818635D01*
X105575706Y-90188051D02*
X109381518Y-90188051D01*
X111106949Y-88462620D02*
X111106949Y-85743051D01*
X103200706Y-92563051D02*
X105575706Y-90188051D01*
X86341949Y-102253051D02*
X94601137Y-102253051D01*
X94601137Y-102253051D02*
X97956949Y-98897239D01*
X68561949Y-102253051D02*
X86341949Y-102253051D01*
X97956949Y-93818635D02*
X99212533Y-92563051D01*
%TO.N,/MCU/SCLK*%
X69831949Y-101618051D02*
X86976949Y-101618051D01*
X105634310Y-89493051D02*
X109440122Y-89493051D01*
X103014310Y-92113051D02*
X105634310Y-89493051D01*
X97506949Y-93632239D02*
X99026137Y-92113051D01*
X99026137Y-92113051D02*
X103014310Y-92113051D01*
X94599741Y-101618051D02*
X97506949Y-98710843D01*
X109440122Y-89493051D02*
X109836949Y-89096224D01*
X86976949Y-101618051D02*
X94599741Y-101618051D01*
X97506949Y-98710843D02*
X97506949Y-93632239D01*
X109836949Y-89096224D02*
X109836949Y-85743051D01*
%TO.N,/MCU/B_CS*%
X102455122Y-90763051D02*
X105385122Y-87833051D01*
X68561949Y-99713051D02*
X94595553Y-99713051D01*
X94595553Y-99713051D02*
X96156949Y-98151655D01*
X96156949Y-93073051D02*
X98466949Y-90763051D01*
X106476949Y-87833051D02*
X108566949Y-85743051D01*
X98466949Y-90763051D02*
X102455122Y-90763051D01*
X105385122Y-87833051D02*
X106476949Y-87833051D01*
X96156949Y-98151655D02*
X96156949Y-93073051D01*
%TO.N,/MCU/ONOFF*%
X114281949Y-87013051D02*
X114281949Y-90823051D01*
X114281949Y-90823051D02*
X106661949Y-98443051D01*
X116186949Y-107333051D02*
X116186949Y-102888051D01*
X114916949Y-108603051D02*
X116186949Y-107333051D01*
%TO.N,/MCU/A_CS*%
X94603929Y-103523051D02*
X88881949Y-103523051D01*
X113011949Y-87648051D02*
X113011949Y-89553051D01*
X113011949Y-89553051D02*
X103546949Y-99018051D01*
X99108929Y-99018051D02*
X94603929Y-103523051D01*
X103546949Y-99018051D02*
X99108929Y-99018051D01*
%TO.N,/MCU/SSTB*%
X103387102Y-93013051D02*
X99398929Y-93013051D01*
X105577102Y-90823051D02*
X103387102Y-93013051D01*
X109382914Y-90823051D02*
X105577102Y-90823051D01*
X111832432Y-88373534D02*
X109382914Y-90823051D01*
X67291949Y-102888051D02*
X85706949Y-102888051D01*
X98406949Y-94005031D02*
X98406949Y-99083635D01*
X98406949Y-99083635D02*
X94602533Y-102888051D01*
X94602533Y-102888051D02*
X85706949Y-102888051D01*
X99398929Y-93013051D02*
X98406949Y-94005031D01*
%TO.N,/MCU/nRESET*%
X69831949Y-100348051D02*
X88881949Y-100348051D01*
X96606949Y-93259447D02*
X98653345Y-91213051D01*
X105571518Y-88283051D02*
X108566949Y-88283051D01*
X88881949Y-100348051D02*
X94596949Y-100348051D01*
X96606949Y-98338051D02*
X96606949Y-93259447D01*
X102641518Y-91213051D02*
X105571518Y-88283051D01*
X94596949Y-100348051D02*
X96606949Y-98338051D01*
X98653345Y-91213051D02*
X102641518Y-91213051D01*
%TO.N,/MCU/nSLEEP*%
X71101949Y-100983051D02*
X88246949Y-100983051D01*
X102827914Y-91663051D02*
X105572914Y-88918051D01*
X94598345Y-100983051D02*
X97056949Y-98524447D01*
X98839741Y-91663051D02*
X102827914Y-91663051D01*
X97056949Y-93445843D02*
X98839741Y-91663051D01*
X88246949Y-100983051D02*
X94598345Y-100983051D01*
X97056949Y-98524447D02*
X97056949Y-93445843D01*
X105572914Y-88918051D02*
X109201949Y-88918051D01*
%TO.N,/Motor Driver 1/VREF1*%
X84436949Y-83838051D02*
X85071949Y-84473051D01*
X85071949Y-84473051D02*
X85071949Y-86150551D01*
%TO.N,/Motor Driver 2/VREF2*%
X55634449Y-103523051D02*
X55226949Y-103523051D01*
X55226949Y-103523051D02*
X53956949Y-102253051D01*
%TD*%
%TA.AperFunction,Conductor*%
%TO.N,GND*%
G36*
X100085662Y-102308211D02*
G01*
X100119147Y-102369534D01*
X100121301Y-102382925D01*
X100125992Y-102427551D01*
X100125993Y-102427554D01*
X100125993Y-102427555D01*
X100180209Y-102594418D01*
X100180212Y-102594424D01*
X100267942Y-102746377D01*
X100320797Y-102805079D01*
X100351027Y-102868071D01*
X100342401Y-102937406D01*
X100320797Y-102971023D01*
X100267942Y-103029724D01*
X100180212Y-103181677D01*
X100180209Y-103181683D01*
X100125993Y-103348546D01*
X100125991Y-103348557D01*
X100121301Y-103393172D01*
X100094716Y-103457786D01*
X100085662Y-103467889D01*
X100034063Y-103519488D01*
X100036235Y-103493280D01*
X100007101Y-103378233D01*
X99942190Y-103278879D01*
X99848536Y-103205986D01*
X99736288Y-103167451D01*
X99678996Y-103167451D01*
X99958396Y-102888051D01*
X99678996Y-102608651D01*
X99706415Y-102608651D01*
X99794009Y-102594034D01*
X99898383Y-102537550D01*
X99978762Y-102450235D01*
X100026434Y-102341553D01*
X100033518Y-102256067D01*
X100085662Y-102308211D01*
G37*
%TD.AperFunction*%
%TA.AperFunction,Conductor*%
G36*
X124445419Y-81298745D02*
G01*
X124557619Y-81305049D01*
X124726298Y-81315256D01*
X124739548Y-81316778D01*
X124871730Y-81339239D01*
X124872902Y-81339446D01*
X125018139Y-81366064D01*
X125030103Y-81368877D01*
X125162691Y-81407076D01*
X125165181Y-81407822D01*
X125302094Y-81450487D01*
X125312628Y-81454302D01*
X125441660Y-81507751D01*
X125445050Y-81509215D01*
X125574234Y-81567357D01*
X125583302Y-81571894D01*
X125706320Y-81639885D01*
X125710402Y-81642245D01*
X125830958Y-81715125D01*
X125838498Y-81720069D01*
X125953506Y-81801672D01*
X125958135Y-81805125D01*
X126066138Y-81889740D01*
X126068694Y-81891743D01*
X126074832Y-81896880D01*
X126180082Y-81990938D01*
X126185116Y-81995698D01*
X126284300Y-82094882D01*
X126289063Y-82099919D01*
X126383113Y-82205161D01*
X126388255Y-82211304D01*
X126474850Y-82321833D01*
X126478337Y-82326507D01*
X126559921Y-82441488D01*
X126564883Y-82449054D01*
X126637733Y-82569562D01*
X126640133Y-82573712D01*
X126658656Y-82607226D01*
X126708097Y-82696682D01*
X126712644Y-82705771D01*
X126770773Y-82834925D01*
X126772258Y-82838363D01*
X126825691Y-82967357D01*
X126829516Y-82977919D01*
X126872154Y-83114743D01*
X126872922Y-83117307D01*
X126911121Y-83249895D01*
X126913936Y-83261869D01*
X126940512Y-83406874D01*
X126940792Y-83408456D01*
X126963218Y-83540436D01*
X126964744Y-83553718D01*
X126974948Y-83722347D01*
X126974979Y-83722882D01*
X126980784Y-83826222D01*
X126981254Y-83834579D01*
X126981449Y-83841534D01*
X126981449Y-118621000D01*
X126961764Y-118688039D01*
X126908960Y-118733794D01*
X126857449Y-118745000D01*
X121409000Y-118745000D01*
X121341961Y-118725315D01*
X121296206Y-118672511D01*
X121285000Y-118621000D01*
X121285000Y-114935000D01*
X114935000Y-114935000D01*
X114935000Y-124460000D01*
X126422572Y-124460000D01*
X126489611Y-124479685D01*
X126535366Y-124532489D01*
X126545310Y-124601647D01*
X126523702Y-124655754D01*
X126479579Y-124717941D01*
X126476061Y-124722659D01*
X126387280Y-124835983D01*
X126382129Y-124842136D01*
X126290291Y-124944907D01*
X126285513Y-124949962D01*
X126183842Y-125051637D01*
X126178788Y-125056414D01*
X126076011Y-125148266D01*
X126069856Y-125153419D01*
X125956522Y-125242213D01*
X125951806Y-125245731D01*
X125839651Y-125325314D01*
X125832044Y-125330302D01*
X125708261Y-125405133D01*
X125704093Y-125407543D01*
X125584386Y-125473706D01*
X125575296Y-125478255D01*
X125442112Y-125538199D01*
X125438675Y-125539684D01*
X125313662Y-125591470D01*
X125303099Y-125595295D01*
X125160865Y-125639620D01*
X125158301Y-125640388D01*
X125031075Y-125677043D01*
X125019100Y-125679858D01*
X124865693Y-125707974D01*
X124864112Y-125708254D01*
X124740462Y-125729265D01*
X124727178Y-125730791D01*
X124535090Y-125742414D01*
X124534558Y-125742445D01*
X124455969Y-125746861D01*
X124447155Y-125747356D01*
X124440203Y-125747551D01*
X53325427Y-125747551D01*
X53318476Y-125747356D01*
X53313796Y-125747093D01*
X53206754Y-125741083D01*
X53206222Y-125741052D01*
X53037614Y-125730857D01*
X53024328Y-125729331D01*
X52892381Y-125706913D01*
X52890802Y-125706634D01*
X52745754Y-125680056D01*
X52733777Y-125677241D01*
X52601224Y-125639055D01*
X52598661Y-125638287D01*
X52461803Y-125595642D01*
X52451240Y-125591817D01*
X52322247Y-125538387D01*
X52318810Y-125536903D01*
X52279126Y-125519043D01*
X52189633Y-125478767D01*
X52180560Y-125474227D01*
X52179617Y-125473706D01*
X52171457Y-125469196D01*
X52057597Y-125406267D01*
X52053430Y-125403858D01*
X52009905Y-125377547D01*
X51932923Y-125331010D01*
X51925342Y-125326038D01*
X51861304Y-125280601D01*
X51810429Y-125244503D01*
X51805713Y-125240986D01*
X51695179Y-125154390D01*
X51689024Y-125149238D01*
X51687936Y-125148266D01*
X51583801Y-125055205D01*
X51578747Y-125050426D01*
X51479572Y-124951251D01*
X51474793Y-124946197D01*
X51436741Y-124903617D01*
X51380752Y-124840964D01*
X51375617Y-124834830D01*
X51336430Y-124784811D01*
X51289012Y-124724285D01*
X51285495Y-124719569D01*
X51284340Y-124717941D01*
X51203952Y-124604644D01*
X51198997Y-124597089D01*
X51126131Y-124476553D01*
X51123731Y-124472401D01*
X51090642Y-124412531D01*
X51055760Y-124349417D01*
X51051241Y-124340386D01*
X50993079Y-124211151D01*
X50991611Y-124207751D01*
X50938175Y-124078744D01*
X50934361Y-124068211D01*
X50891689Y-123931264D01*
X50890966Y-123928851D01*
X50852751Y-123796199D01*
X50849947Y-123784267D01*
X50823351Y-123639125D01*
X50823085Y-123637617D01*
X50800663Y-123505639D01*
X50799144Y-123492417D01*
X50788931Y-123323517D01*
X50782644Y-123211523D01*
X50782449Y-123204574D01*
X50782449Y-121291186D01*
X82051449Y-121291186D01*
X82070790Y-121419500D01*
X82090553Y-121550614D01*
X82090554Y-121550616D01*
X82090555Y-121550622D01*
X82167887Y-121801325D01*
X82281716Y-122037695D01*
X82281717Y-122037696D01*
X82281719Y-122037699D01*
X82281721Y-122037703D01*
X82320818Y-122095047D01*
X82429516Y-122254478D01*
X82607963Y-122446800D01*
X82607967Y-122446803D01*
X82607968Y-122446804D01*
X82813092Y-122610385D01*
X83040306Y-122741567D01*
X83284533Y-122837419D01*
X83540319Y-122895801D01*
X83540325Y-122895801D01*
X83540328Y-122895802D01*
X83736433Y-122910498D01*
X83736452Y-122910498D01*
X83736455Y-122910499D01*
X83736457Y-122910499D01*
X83867441Y-122910499D01*
X83867443Y-122910499D01*
X83867445Y-122910498D01*
X83867464Y-122910498D01*
X84063569Y-122895802D01*
X84063571Y-122895801D01*
X84063579Y-122895801D01*
X84319365Y-122837419D01*
X84563592Y-122741567D01*
X84790806Y-122610385D01*
X84860257Y-122555000D01*
X101094353Y-122555000D01*
X101114834Y-122697456D01*
X101174622Y-122828371D01*
X101174623Y-122828373D01*
X101268872Y-122937143D01*
X101389947Y-123014953D01*
X101389950Y-123014954D01*
X101389949Y-123014954D01*
X101528036Y-123055499D01*
X101528038Y-123055500D01*
X101528039Y-123055500D01*
X101671962Y-123055500D01*
X101671962Y-123055499D01*
X101810053Y-123014953D01*
X101931128Y-122937143D01*
X102025377Y-122828373D01*
X102085165Y-122697457D01*
X102105647Y-122555000D01*
X102085165Y-122412543D01*
X102025377Y-122281627D01*
X101931128Y-122172857D01*
X101810053Y-122095047D01*
X101810051Y-122095046D01*
X101810049Y-122095045D01*
X101810050Y-122095045D01*
X101671963Y-122054500D01*
X101671961Y-122054500D01*
X101528039Y-122054500D01*
X101528036Y-122054500D01*
X101389949Y-122095045D01*
X101268873Y-122172856D01*
X101174623Y-122281626D01*
X101174622Y-122281628D01*
X101114834Y-122412543D01*
X101094353Y-122555000D01*
X84860257Y-122555000D01*
X84995930Y-122446804D01*
X85020337Y-122420500D01*
X85035894Y-122403732D01*
X85174382Y-122254478D01*
X85322177Y-122037703D01*
X85436012Y-121801322D01*
X85513345Y-121550614D01*
X85552448Y-121291186D01*
X106604500Y-121291186D01*
X106623841Y-121419500D01*
X106643604Y-121550614D01*
X106643605Y-121550616D01*
X106643606Y-121550622D01*
X106720938Y-121801325D01*
X106834767Y-122037695D01*
X106834768Y-122037696D01*
X106834770Y-122037699D01*
X106834772Y-122037703D01*
X106873869Y-122095047D01*
X106982567Y-122254478D01*
X107161014Y-122446800D01*
X107161018Y-122446803D01*
X107161019Y-122446804D01*
X107366143Y-122610385D01*
X107593357Y-122741567D01*
X107837584Y-122837419D01*
X108093370Y-122895801D01*
X108093376Y-122895801D01*
X108093379Y-122895802D01*
X108289484Y-122910498D01*
X108289503Y-122910498D01*
X108289506Y-122910499D01*
X108289508Y-122910499D01*
X108420492Y-122910499D01*
X108420494Y-122910499D01*
X108420496Y-122910498D01*
X108420515Y-122910498D01*
X108616620Y-122895802D01*
X108616622Y-122895801D01*
X108616630Y-122895801D01*
X108872416Y-122837419D01*
X109116643Y-122741567D01*
X109343857Y-122610385D01*
X109548981Y-122446804D01*
X109573388Y-122420500D01*
X109588945Y-122403732D01*
X109727433Y-122254478D01*
X109875228Y-122037703D01*
X109989063Y-121801322D01*
X110066396Y-121550614D01*
X110105500Y-121291181D01*
X110105500Y-121028817D01*
X110066396Y-120769384D01*
X109989063Y-120518676D01*
X109964552Y-120467779D01*
X109875232Y-120282302D01*
X109875231Y-120282301D01*
X109875230Y-120282300D01*
X109875228Y-120282295D01*
X109727433Y-120065520D01*
X109717441Y-120054752D01*
X109548985Y-119873197D01*
X109508250Y-119840712D01*
X109343857Y-119709613D01*
X109116643Y-119578431D01*
X108872416Y-119482579D01*
X108872411Y-119482577D01*
X108872402Y-119482575D01*
X108654818Y-119432913D01*
X108616630Y-119424197D01*
X108616629Y-119424196D01*
X108616625Y-119424196D01*
X108616620Y-119424195D01*
X108420515Y-119409499D01*
X108420494Y-119409499D01*
X108289506Y-119409499D01*
X108289484Y-119409499D01*
X108093379Y-119424195D01*
X108093374Y-119424196D01*
X107837597Y-119482575D01*
X107837578Y-119482581D01*
X107593356Y-119578431D01*
X107366143Y-119709613D01*
X107161014Y-119873197D01*
X106982567Y-120065519D01*
X106834768Y-120282301D01*
X106834767Y-120282302D01*
X106720938Y-120518672D01*
X106643606Y-120769375D01*
X106643605Y-120769380D01*
X106643604Y-120769384D01*
X106628853Y-120867246D01*
X106604500Y-121028811D01*
X106604500Y-121291186D01*
X85552448Y-121291186D01*
X85552449Y-121291181D01*
X85552449Y-121028817D01*
X85513345Y-120769384D01*
X85436012Y-120518676D01*
X85411501Y-120467779D01*
X85322181Y-120282302D01*
X85322180Y-120282301D01*
X85322179Y-120282300D01*
X85322177Y-120282295D01*
X85174382Y-120065520D01*
X85164390Y-120054752D01*
X84995934Y-119873197D01*
X84955199Y-119840712D01*
X84790806Y-119709613D01*
X84563592Y-119578431D01*
X84319365Y-119482579D01*
X84319360Y-119482577D01*
X84319351Y-119482575D01*
X84101767Y-119432913D01*
X84063579Y-119424197D01*
X84063578Y-119424196D01*
X84063574Y-119424196D01*
X84063569Y-119424195D01*
X83867464Y-119409499D01*
X83867443Y-119409499D01*
X83736455Y-119409499D01*
X83736433Y-119409499D01*
X83540328Y-119424195D01*
X83540323Y-119424196D01*
X83284546Y-119482575D01*
X83284527Y-119482581D01*
X83040305Y-119578431D01*
X82813092Y-119709613D01*
X82607963Y-119873197D01*
X82429516Y-120065519D01*
X82281717Y-120282301D01*
X82281716Y-120282302D01*
X82167887Y-120518672D01*
X82090555Y-120769375D01*
X82090554Y-120769380D01*
X82090553Y-120769384D01*
X82075802Y-120867246D01*
X82051449Y-121028811D01*
X82051449Y-121291186D01*
X50782449Y-121291186D01*
X50782449Y-119101045D01*
X72595233Y-119101045D01*
X72614273Y-119355120D01*
X72670968Y-119603518D01*
X72670973Y-119603535D01*
X72764058Y-119840712D01*
X72764057Y-119840712D01*
X72891454Y-120061368D01*
X72891461Y-120061379D01*
X72933452Y-120114032D01*
X72933453Y-120114033D01*
X73737226Y-119310260D01*
X73775901Y-119403629D01*
X73872075Y-119528966D01*
X73997412Y-119625140D01*
X74090779Y-119663813D01*
X73286813Y-120467779D01*
X73447616Y-120577412D01*
X73447624Y-120577417D01*
X73677176Y-120687962D01*
X73677174Y-120687962D01*
X73920652Y-120763065D01*
X73920658Y-120763067D01*
X74172595Y-120801040D01*
X74172604Y-120801041D01*
X74427396Y-120801041D01*
X74427404Y-120801040D01*
X74679341Y-120763067D01*
X74679347Y-120763065D01*
X74922824Y-120687962D01*
X75152376Y-120577417D01*
X75152377Y-120577416D01*
X75313185Y-120467779D01*
X74509220Y-119663813D01*
X74602588Y-119625140D01*
X74727925Y-119528966D01*
X74824099Y-119403630D01*
X74862773Y-119310261D01*
X75666544Y-120114033D01*
X75666546Y-120114032D01*
X75708544Y-120061371D01*
X75835941Y-119840712D01*
X75929026Y-119603535D01*
X75929031Y-119603518D01*
X75985726Y-119355120D01*
X76004767Y-119101045D01*
X76004767Y-119101036D01*
X75985726Y-118846961D01*
X75929031Y-118598563D01*
X75929026Y-118598546D01*
X75835941Y-118361369D01*
X75835942Y-118361369D01*
X75708545Y-118140713D01*
X75666545Y-118088047D01*
X74862772Y-118891820D01*
X74824099Y-118798453D01*
X74727925Y-118673116D01*
X74602588Y-118576942D01*
X74509219Y-118538267D01*
X75313185Y-117734301D01*
X75152397Y-117624678D01*
X82791449Y-117624678D01*
X82805981Y-117697735D01*
X82805982Y-117697739D01*
X82805983Y-117697740D01*
X82861348Y-117780601D01*
X82944077Y-117835878D01*
X82944209Y-117835966D01*
X82944213Y-117835967D01*
X83017270Y-117850499D01*
X83017273Y-117850500D01*
X83017275Y-117850500D01*
X84586625Y-117850500D01*
X84586626Y-117850499D01*
X84659689Y-117835966D01*
X84742550Y-117780601D01*
X84797915Y-117697740D01*
X84812449Y-117624674D01*
X84812449Y-116055326D01*
X84812449Y-116055323D01*
X84812448Y-116055321D01*
X84797916Y-115982264D01*
X84797915Y-115982260D01*
X84742550Y-115899399D01*
X84674082Y-115853651D01*
X84659688Y-115844033D01*
X84659684Y-115844032D01*
X84586626Y-115829500D01*
X84586623Y-115829500D01*
X83017275Y-115829500D01*
X83017272Y-115829500D01*
X82944213Y-115844032D01*
X82944209Y-115844033D01*
X82861348Y-115899399D01*
X82805982Y-115982260D01*
X82805981Y-115982264D01*
X82791449Y-116055321D01*
X82791449Y-117624678D01*
X75152397Y-117624678D01*
X75152384Y-117624669D01*
X75152376Y-117624664D01*
X74922823Y-117514119D01*
X74922825Y-117514119D01*
X74679347Y-117439016D01*
X74679341Y-117439014D01*
X74427404Y-117401041D01*
X74172595Y-117401041D01*
X73920658Y-117439014D01*
X73920652Y-117439016D01*
X73677175Y-117514119D01*
X73447622Y-117624666D01*
X73447609Y-117624673D01*
X73286813Y-117734300D01*
X74090780Y-118538267D01*
X73997412Y-118576942D01*
X73872075Y-118673116D01*
X73775901Y-118798452D01*
X73737226Y-118891821D01*
X72933452Y-118088047D01*
X72891457Y-118140708D01*
X72764058Y-118361369D01*
X72670973Y-118598546D01*
X72670968Y-118598563D01*
X72614273Y-118846961D01*
X72595233Y-119101036D01*
X72595233Y-119101045D01*
X50782449Y-119101045D01*
X50782449Y-115715050D01*
X60148942Y-115715050D01*
X60156712Y-115813775D01*
X60157094Y-115823504D01*
X60157094Y-115844792D01*
X60160422Y-115865805D01*
X60161567Y-115875472D01*
X60165694Y-115927902D01*
X60169338Y-115974201D01*
X60169338Y-115974204D01*
X60169339Y-115974206D01*
X60192454Y-116070490D01*
X60194353Y-116080037D01*
X60197683Y-116101064D01*
X60204262Y-116121313D01*
X60206904Y-116130679D01*
X60230022Y-116226972D01*
X60267918Y-116318461D01*
X60271286Y-116327590D01*
X60277864Y-116347834D01*
X60287527Y-116366799D01*
X60291601Y-116375637D01*
X60329500Y-116467135D01*
X60381241Y-116551567D01*
X60385998Y-116560060D01*
X60395665Y-116579032D01*
X60408177Y-116596254D01*
X60413585Y-116604348D01*
X60465323Y-116688777D01*
X60465327Y-116688782D01*
X60529644Y-116764087D01*
X60535666Y-116771727D01*
X60544044Y-116783258D01*
X60548177Y-116788946D01*
X60563222Y-116803991D01*
X60569831Y-116811140D01*
X60634151Y-116886449D01*
X60709467Y-116950775D01*
X60716601Y-116957370D01*
X60731653Y-116972422D01*
X60731656Y-116972424D01*
X60748880Y-116984939D01*
X60756524Y-116990965D01*
X60831817Y-117055272D01*
X60831818Y-117055273D01*
X60851537Y-117067357D01*
X60916269Y-117107024D01*
X60924334Y-117112413D01*
X60941570Y-117124936D01*
X60960546Y-117134604D01*
X60969008Y-117139343D01*
X61053465Y-117191099D01*
X61144985Y-117229007D01*
X61153780Y-117233062D01*
X61172762Y-117242734D01*
X61193021Y-117249316D01*
X61202126Y-117252676D01*
X61238301Y-117267660D01*
X61293625Y-117290577D01*
X61293624Y-117290577D01*
X61322252Y-117297449D01*
X61389924Y-117313696D01*
X61399264Y-117316329D01*
X61419535Y-117322916D01*
X61440569Y-117326247D01*
X61450087Y-117328139D01*
X61546399Y-117351262D01*
X61645147Y-117359033D01*
X61654757Y-117360171D01*
X61675813Y-117363506D01*
X61675816Y-117363506D01*
X61697095Y-117363506D01*
X61706823Y-117363887D01*
X61805549Y-117371658D01*
X61904274Y-117363887D01*
X61914003Y-117363506D01*
X61935281Y-117363506D01*
X61935285Y-117363506D01*
X61956346Y-117360170D01*
X61965947Y-117359034D01*
X62064699Y-117351262D01*
X62161015Y-117328138D01*
X62170528Y-117326247D01*
X62191557Y-117322917D01*
X62191558Y-117322917D01*
X62191559Y-117322916D01*
X62191563Y-117322916D01*
X62211833Y-117316329D01*
X62221169Y-117313697D01*
X62284129Y-117298581D01*
X62317454Y-117290582D01*
X62317457Y-117290580D01*
X62317469Y-117290578D01*
X62408988Y-117252669D01*
X62418073Y-117249317D01*
X62438336Y-117242734D01*
X62457325Y-117233058D01*
X62466099Y-117229013D01*
X62557633Y-117191099D01*
X62642095Y-117139340D01*
X62650538Y-117134611D01*
X62669528Y-117124936D01*
X62686763Y-117112413D01*
X62694828Y-117107024D01*
X62779278Y-117055274D01*
X62854605Y-116990938D01*
X62862209Y-116984944D01*
X62879445Y-116972422D01*
X62894504Y-116957362D01*
X62901616Y-116950787D01*
X62976947Y-116886449D01*
X63041285Y-116811118D01*
X63047860Y-116804006D01*
X63062920Y-116788947D01*
X63075442Y-116771711D01*
X63081436Y-116764107D01*
X63145772Y-116688780D01*
X63197522Y-116604330D01*
X63202911Y-116596265D01*
X63215434Y-116579030D01*
X63225109Y-116560040D01*
X63229838Y-116551597D01*
X63281597Y-116467135D01*
X63319511Y-116375601D01*
X63323556Y-116366827D01*
X63333232Y-116347838D01*
X63339815Y-116327575D01*
X63343167Y-116318490D01*
X63381076Y-116226971D01*
X63404195Y-116130671D01*
X63406827Y-116121335D01*
X63413414Y-116101065D01*
X63416745Y-116080030D01*
X63418636Y-116070517D01*
X63441760Y-115974201D01*
X63449532Y-115875449D01*
X63450671Y-115865826D01*
X63454004Y-115844787D01*
X63454615Y-115813589D01*
X63454971Y-115806333D01*
X63462156Y-115715051D01*
X63462156Y-115715050D01*
X98248942Y-115715050D01*
X98256712Y-115813775D01*
X98257094Y-115823504D01*
X98257094Y-115844792D01*
X98260422Y-115865805D01*
X98261567Y-115875472D01*
X98265694Y-115927902D01*
X98269338Y-115974201D01*
X98269338Y-115974204D01*
X98269339Y-115974206D01*
X98292454Y-116070490D01*
X98294353Y-116080037D01*
X98297683Y-116101064D01*
X98304262Y-116121313D01*
X98306904Y-116130679D01*
X98330022Y-116226972D01*
X98367918Y-116318461D01*
X98371286Y-116327590D01*
X98377864Y-116347834D01*
X98387527Y-116366799D01*
X98391601Y-116375637D01*
X98429500Y-116467135D01*
X98481241Y-116551567D01*
X98485998Y-116560060D01*
X98495665Y-116579032D01*
X98508177Y-116596254D01*
X98513585Y-116604348D01*
X98565323Y-116688777D01*
X98565327Y-116688782D01*
X98629644Y-116764087D01*
X98635666Y-116771727D01*
X98644044Y-116783258D01*
X98648177Y-116788946D01*
X98663222Y-116803991D01*
X98669831Y-116811140D01*
X98734151Y-116886449D01*
X98809467Y-116950775D01*
X98816601Y-116957370D01*
X98831653Y-116972422D01*
X98831656Y-116972424D01*
X98848880Y-116984939D01*
X98856524Y-116990965D01*
X98931817Y-117055272D01*
X98931818Y-117055273D01*
X98951537Y-117067357D01*
X99016269Y-117107024D01*
X99024334Y-117112413D01*
X99041570Y-117124936D01*
X99060546Y-117134604D01*
X99069008Y-117139343D01*
X99153465Y-117191099D01*
X99244985Y-117229007D01*
X99253780Y-117233062D01*
X99272762Y-117242734D01*
X99293021Y-117249316D01*
X99302126Y-117252676D01*
X99338301Y-117267660D01*
X99393625Y-117290577D01*
X99393624Y-117290577D01*
X99422252Y-117297449D01*
X99489924Y-117313696D01*
X99499264Y-117316329D01*
X99519535Y-117322916D01*
X99540569Y-117326247D01*
X99550087Y-117328139D01*
X99646399Y-117351262D01*
X99745147Y-117359033D01*
X99754757Y-117360171D01*
X99775813Y-117363506D01*
X99775816Y-117363506D01*
X99797095Y-117363506D01*
X99806823Y-117363887D01*
X99905549Y-117371658D01*
X100004274Y-117363887D01*
X100014003Y-117363506D01*
X100035281Y-117363506D01*
X100035285Y-117363506D01*
X100056346Y-117360170D01*
X100065947Y-117359034D01*
X100164699Y-117351262D01*
X100261015Y-117328138D01*
X100270528Y-117326247D01*
X100291557Y-117322917D01*
X100291558Y-117322917D01*
X100291559Y-117322916D01*
X100291563Y-117322916D01*
X100311833Y-117316329D01*
X100321169Y-117313697D01*
X100384129Y-117298581D01*
X100417454Y-117290582D01*
X100417457Y-117290580D01*
X100417469Y-117290578D01*
X100508988Y-117252669D01*
X100518073Y-117249317D01*
X100538336Y-117242734D01*
X100557325Y-117233058D01*
X100566099Y-117229013D01*
X100657633Y-117191099D01*
X100742095Y-117139340D01*
X100750538Y-117134611D01*
X100769528Y-117124936D01*
X100786763Y-117112413D01*
X100794828Y-117107024D01*
X100879278Y-117055274D01*
X100954605Y-116990938D01*
X100962209Y-116984944D01*
X100979445Y-116972422D01*
X100994504Y-116957362D01*
X101001616Y-116950787D01*
X101076947Y-116886449D01*
X101141285Y-116811118D01*
X101147860Y-116804006D01*
X101162920Y-116788947D01*
X101175442Y-116771711D01*
X101181436Y-116764107D01*
X101245772Y-116688780D01*
X101297522Y-116604330D01*
X101302911Y-116596265D01*
X101315434Y-116579030D01*
X101325109Y-116560040D01*
X101329838Y-116551597D01*
X101381597Y-116467135D01*
X101419511Y-116375601D01*
X101423556Y-116366827D01*
X101433232Y-116347838D01*
X101439815Y-116327575D01*
X101443167Y-116318490D01*
X101481076Y-116226971D01*
X101504195Y-116130671D01*
X101506827Y-116121335D01*
X101513414Y-116101065D01*
X101516745Y-116080030D01*
X101518636Y-116070517D01*
X101541760Y-115974201D01*
X101549532Y-115875449D01*
X101550671Y-115865826D01*
X101554004Y-115844787D01*
X101554615Y-115813589D01*
X101554971Y-115806333D01*
X101562156Y-115715051D01*
X101554971Y-115623769D01*
X101554615Y-115616510D01*
X101554004Y-115585315D01*
X101550669Y-115564259D01*
X101549530Y-115554630D01*
X101541760Y-115455901D01*
X101518637Y-115359589D01*
X101516745Y-115350070D01*
X101513414Y-115329037D01*
X101506827Y-115308766D01*
X101504191Y-115299415D01*
X101502801Y-115293626D01*
X101484193Y-115216113D01*
X101481075Y-115203126D01*
X101443178Y-115111638D01*
X101439814Y-115102523D01*
X101433232Y-115082264D01*
X101423560Y-115063282D01*
X101419505Y-115054487D01*
X101381597Y-114962967D01*
X101329841Y-114878510D01*
X101325102Y-114870048D01*
X101315434Y-114851072D01*
X101302911Y-114833836D01*
X101297522Y-114825771D01*
X101257855Y-114761039D01*
X101245771Y-114741320D01*
X101245770Y-114741319D01*
X101181463Y-114666026D01*
X101175437Y-114658382D01*
X101165167Y-114644249D01*
X101162920Y-114641155D01*
X101147865Y-114626100D01*
X101141273Y-114618969D01*
X101076947Y-114543653D01*
X101001638Y-114479333D01*
X100994489Y-114472724D01*
X100979444Y-114457679D01*
X100973756Y-114453546D01*
X100962225Y-114445168D01*
X100954585Y-114439146D01*
X100879280Y-114374829D01*
X100879275Y-114374825D01*
X100794846Y-114323087D01*
X100786752Y-114317679D01*
X100769530Y-114305167D01*
X100750558Y-114295500D01*
X100742065Y-114290743D01*
X100657633Y-114239002D01*
X100566135Y-114201103D01*
X100557297Y-114197029D01*
X100538332Y-114187366D01*
X100518088Y-114180788D01*
X100508959Y-114177420D01*
X100417470Y-114139524D01*
X100321177Y-114116406D01*
X100311811Y-114113764D01*
X100291561Y-114107185D01*
X100291564Y-114107185D01*
X100270535Y-114103855D01*
X100260988Y-114101956D01*
X100164703Y-114078841D01*
X100164704Y-114078841D01*
X100164702Y-114078840D01*
X100164699Y-114078840D01*
X100118400Y-114075196D01*
X100065970Y-114071069D01*
X100056303Y-114069924D01*
X100035290Y-114066596D01*
X100035285Y-114066596D01*
X100014003Y-114066596D01*
X100004274Y-114066214D01*
X99905549Y-114058444D01*
X99806824Y-114066214D01*
X99797095Y-114066596D01*
X99775814Y-114066596D01*
X99775813Y-114066596D01*
X99759512Y-114069177D01*
X99754794Y-114069925D01*
X99745128Y-114071069D01*
X99646398Y-114078840D01*
X99646388Y-114078842D01*
X99550110Y-114101955D01*
X99540568Y-114103853D01*
X99519545Y-114107183D01*
X99519529Y-114107187D01*
X99499292Y-114113763D01*
X99489921Y-114116406D01*
X99393629Y-114139523D01*
X99302132Y-114177422D01*
X99293006Y-114180789D01*
X99272766Y-114187366D01*
X99272757Y-114187370D01*
X99253797Y-114197030D01*
X99244962Y-114201103D01*
X99153461Y-114239004D01*
X99069019Y-114290749D01*
X99060534Y-114295502D01*
X99041572Y-114305164D01*
X99041558Y-114305173D01*
X99024347Y-114317677D01*
X99016259Y-114323081D01*
X98931832Y-114374819D01*
X98931820Y-114374828D01*
X98856516Y-114439142D01*
X98848877Y-114445164D01*
X98831658Y-114457675D01*
X98831655Y-114457678D01*
X98816598Y-114472734D01*
X98809454Y-114479337D01*
X98734151Y-114543653D01*
X98669835Y-114618956D01*
X98663232Y-114626100D01*
X98648176Y-114641157D01*
X98648173Y-114641160D01*
X98635662Y-114658379D01*
X98629640Y-114666018D01*
X98565326Y-114741322D01*
X98565317Y-114741334D01*
X98513579Y-114825761D01*
X98508175Y-114833849D01*
X98495671Y-114851060D01*
X98495662Y-114851074D01*
X98486000Y-114870036D01*
X98481247Y-114878521D01*
X98429502Y-114962963D01*
X98391601Y-115054464D01*
X98387528Y-115063299D01*
X98377868Y-115082259D01*
X98377864Y-115082268D01*
X98371287Y-115102508D01*
X98367920Y-115111634D01*
X98330021Y-115203131D01*
X98306904Y-115299423D01*
X98304261Y-115308794D01*
X98297685Y-115329031D01*
X98297681Y-115329047D01*
X98294351Y-115350070D01*
X98292453Y-115359612D01*
X98269340Y-115455890D01*
X98269338Y-115455900D01*
X98261567Y-115554630D01*
X98260423Y-115564296D01*
X98257094Y-115585315D01*
X98257094Y-115606596D01*
X98256712Y-115616325D01*
X98248942Y-115715050D01*
X63462156Y-115715050D01*
X63454971Y-115623769D01*
X63454615Y-115616510D01*
X63454004Y-115585315D01*
X63450669Y-115564259D01*
X63449530Y-115554630D01*
X63441760Y-115455901D01*
X63418637Y-115359589D01*
X63416745Y-115350070D01*
X63413414Y-115329037D01*
X63412336Y-115325719D01*
X72849500Y-115325719D01*
X72864032Y-115398776D01*
X72864033Y-115398780D01*
X72864034Y-115398781D01*
X72919399Y-115481642D01*
X73002260Y-115537007D01*
X73002264Y-115537008D01*
X73075321Y-115551540D01*
X73075324Y-115551541D01*
X73075326Y-115551541D01*
X75524676Y-115551541D01*
X75524677Y-115551540D01*
X75597740Y-115537007D01*
X75680601Y-115481642D01*
X75735966Y-115398781D01*
X75750500Y-115325715D01*
X75750500Y-113840001D01*
X82786560Y-113840001D01*
X82806070Y-114038096D01*
X82863852Y-114228575D01*
X82957680Y-114404115D01*
X82957684Y-114404122D01*
X83083960Y-114557989D01*
X83237827Y-114684265D01*
X83237834Y-114684269D01*
X83413374Y-114778097D01*
X83413376Y-114778098D01*
X83603856Y-114835880D01*
X83801949Y-114855390D01*
X84000042Y-114835880D01*
X84190522Y-114778098D01*
X84366069Y-114684266D01*
X84519937Y-114557989D01*
X84646214Y-114404121D01*
X84740046Y-114228574D01*
X84797828Y-114038094D01*
X84817338Y-113840001D01*
X84797828Y-113641908D01*
X84740046Y-113451428D01*
X84646214Y-113275881D01*
X84646213Y-113275879D01*
X84519937Y-113122012D01*
X84366070Y-112995736D01*
X84366063Y-112995732D01*
X84190523Y-112901904D01*
X84000044Y-112844122D01*
X83801949Y-112824612D01*
X83603853Y-112844122D01*
X83413374Y-112901904D01*
X83237834Y-112995732D01*
X83237827Y-112995736D01*
X83083960Y-113122012D01*
X82957684Y-113275879D01*
X82957680Y-113275886D01*
X82863852Y-113451426D01*
X82806070Y-113641905D01*
X82786560Y-113840001D01*
X75750500Y-113840001D01*
X75750500Y-112876367D01*
X75750500Y-112876364D01*
X75750499Y-112876362D01*
X75735967Y-112803305D01*
X75735966Y-112803301D01*
X75680601Y-112720440D01*
X75597740Y-112665075D01*
X75597739Y-112665074D01*
X75597735Y-112665073D01*
X75524677Y-112650541D01*
X75524674Y-112650541D01*
X73075326Y-112650541D01*
X73075323Y-112650541D01*
X73002264Y-112665073D01*
X73002260Y-112665074D01*
X72919399Y-112720440D01*
X72864033Y-112803301D01*
X72864032Y-112803305D01*
X72849500Y-112876362D01*
X72849500Y-115325719D01*
X63412336Y-115325719D01*
X63406827Y-115308766D01*
X63404191Y-115299415D01*
X63402801Y-115293626D01*
X63384193Y-115216113D01*
X63381075Y-115203126D01*
X63343178Y-115111638D01*
X63339814Y-115102523D01*
X63333232Y-115082264D01*
X63323560Y-115063282D01*
X63319505Y-115054487D01*
X63281597Y-114962967D01*
X63229841Y-114878510D01*
X63225102Y-114870048D01*
X63215434Y-114851072D01*
X63202911Y-114833836D01*
X63197522Y-114825771D01*
X63157855Y-114761039D01*
X63145771Y-114741320D01*
X63145770Y-114741319D01*
X63081463Y-114666026D01*
X63075437Y-114658382D01*
X63065167Y-114644249D01*
X63062920Y-114641155D01*
X63047865Y-114626100D01*
X63041273Y-114618969D01*
X62976947Y-114543653D01*
X62901638Y-114479333D01*
X62894489Y-114472724D01*
X62879444Y-114457679D01*
X62873756Y-114453546D01*
X62862225Y-114445168D01*
X62854585Y-114439146D01*
X62779280Y-114374829D01*
X62779275Y-114374825D01*
X62694846Y-114323087D01*
X62686752Y-114317679D01*
X62669530Y-114305167D01*
X62650558Y-114295500D01*
X62642065Y-114290743D01*
X62557633Y-114239002D01*
X62466135Y-114201103D01*
X62457297Y-114197029D01*
X62438332Y-114187366D01*
X62418088Y-114180788D01*
X62408959Y-114177420D01*
X62317470Y-114139524D01*
X62221177Y-114116406D01*
X62211811Y-114113764D01*
X62191561Y-114107185D01*
X62191564Y-114107185D01*
X62170535Y-114103855D01*
X62160988Y-114101956D01*
X62064703Y-114078841D01*
X62064704Y-114078841D01*
X62064702Y-114078840D01*
X62064699Y-114078840D01*
X62018400Y-114075196D01*
X61965970Y-114071069D01*
X61956303Y-114069924D01*
X61935290Y-114066596D01*
X61935285Y-114066596D01*
X61914003Y-114066596D01*
X61904274Y-114066214D01*
X61805549Y-114058444D01*
X61706824Y-114066214D01*
X61697095Y-114066596D01*
X61675814Y-114066596D01*
X61675813Y-114066596D01*
X61659512Y-114069177D01*
X61654794Y-114069925D01*
X61645128Y-114071069D01*
X61546398Y-114078840D01*
X61546388Y-114078842D01*
X61450110Y-114101955D01*
X61440568Y-114103853D01*
X61419545Y-114107183D01*
X61419529Y-114107187D01*
X61399292Y-114113763D01*
X61389921Y-114116406D01*
X61293629Y-114139523D01*
X61202132Y-114177422D01*
X61193006Y-114180789D01*
X61172766Y-114187366D01*
X61172757Y-114187370D01*
X61153797Y-114197030D01*
X61144962Y-114201103D01*
X61053461Y-114239004D01*
X60969019Y-114290749D01*
X60960534Y-114295502D01*
X60941572Y-114305164D01*
X60941558Y-114305173D01*
X60924347Y-114317677D01*
X60916259Y-114323081D01*
X60831832Y-114374819D01*
X60831820Y-114374828D01*
X60756516Y-114439142D01*
X60748877Y-114445164D01*
X60731658Y-114457675D01*
X60731655Y-114457678D01*
X60716598Y-114472734D01*
X60709454Y-114479337D01*
X60634151Y-114543653D01*
X60569835Y-114618956D01*
X60563232Y-114626100D01*
X60548176Y-114641157D01*
X60548173Y-114641160D01*
X60535662Y-114658379D01*
X60529640Y-114666018D01*
X60465326Y-114741322D01*
X60465317Y-114741334D01*
X60413579Y-114825761D01*
X60408175Y-114833849D01*
X60395671Y-114851060D01*
X60395662Y-114851074D01*
X60386000Y-114870036D01*
X60381247Y-114878521D01*
X60329502Y-114962963D01*
X60291601Y-115054464D01*
X60287528Y-115063299D01*
X60277868Y-115082259D01*
X60277864Y-115082268D01*
X60271287Y-115102508D01*
X60267920Y-115111634D01*
X60230021Y-115203131D01*
X60206904Y-115299423D01*
X60204261Y-115308794D01*
X60197685Y-115329031D01*
X60197681Y-115329047D01*
X60194351Y-115350070D01*
X60192453Y-115359612D01*
X60169340Y-115455890D01*
X60169338Y-115455900D01*
X60161567Y-115554630D01*
X60160423Y-115564296D01*
X60157094Y-115585315D01*
X60157094Y-115606596D01*
X60156712Y-115616325D01*
X60148942Y-115715050D01*
X50782449Y-115715050D01*
X50782449Y-110490000D01*
X101729353Y-110490000D01*
X101749834Y-110632456D01*
X101809622Y-110763371D01*
X101809623Y-110763373D01*
X101903872Y-110872143D01*
X102024947Y-110949953D01*
X102024950Y-110949954D01*
X102024949Y-110949954D01*
X102163036Y-110990499D01*
X102163038Y-110990500D01*
X102163039Y-110990500D01*
X102306962Y-110990500D01*
X102306962Y-110990499D01*
X102445053Y-110949953D01*
X102566128Y-110872143D01*
X102660377Y-110763373D01*
X102720165Y-110632457D01*
X102740647Y-110490000D01*
X102720165Y-110347543D01*
X102660377Y-110216627D01*
X102566128Y-110107857D01*
X102445053Y-110030047D01*
X102445051Y-110030046D01*
X102445049Y-110030045D01*
X102445050Y-110030045D01*
X102306963Y-109989500D01*
X102306961Y-109989500D01*
X102163039Y-109989500D01*
X102163036Y-109989500D01*
X102024949Y-110030045D01*
X101903873Y-110107856D01*
X101809623Y-110216626D01*
X101809622Y-110216628D01*
X101749834Y-110347543D01*
X101729353Y-110490000D01*
X50782449Y-110490000D01*
X50782449Y-102253051D01*
X53451302Y-102253051D01*
X53471783Y-102395507D01*
X53523386Y-102508500D01*
X53531572Y-102526424D01*
X53625821Y-102635194D01*
X53732785Y-102703935D01*
X53738523Y-102707855D01*
X53741091Y-102709716D01*
X53741094Y-102709719D01*
X53964317Y-102840232D01*
X54067963Y-102900831D01*
X54093057Y-102920196D01*
X54451597Y-103278736D01*
X54466577Y-103296870D01*
X54591949Y-103481953D01*
X54591949Y-108603051D01*
X55416302Y-108603051D01*
X55436783Y-108745507D01*
X55496571Y-108876422D01*
X55496572Y-108876424D01*
X55590821Y-108985194D01*
X55590823Y-108985195D01*
X55598277Y-108989986D01*
X55644032Y-109042790D01*
X55653975Y-109111948D01*
X55624950Y-109175504D01*
X55598277Y-109198616D01*
X55590823Y-109203406D01*
X55496572Y-109312177D01*
X55496571Y-109312179D01*
X55436783Y-109443094D01*
X55416302Y-109585551D01*
X55436783Y-109728007D01*
X55452325Y-109762038D01*
X55496572Y-109858924D01*
X55590821Y-109967694D01*
X55711896Y-110045504D01*
X55711899Y-110045505D01*
X55711898Y-110045505D01*
X55849985Y-110086050D01*
X55849987Y-110086051D01*
X55849988Y-110086051D01*
X55993911Y-110086051D01*
X55993911Y-110086050D01*
X56132002Y-110045504D01*
X56253077Y-109967694D01*
X56347326Y-109858924D01*
X56407114Y-109728008D01*
X56427596Y-109585551D01*
X56407114Y-109443094D01*
X56347326Y-109312178D01*
X56253077Y-109203408D01*
X56245622Y-109198617D01*
X56199867Y-109145816D01*
X56189922Y-109076657D01*
X56218945Y-109013101D01*
X56245621Y-108989985D01*
X56253077Y-108985194D01*
X56347326Y-108876424D01*
X56407114Y-108745508D01*
X56427596Y-108603051D01*
X64751949Y-108603051D01*
X64751949Y-107820141D01*
X65203664Y-107711961D01*
X65232544Y-107708551D01*
X65453964Y-107708551D01*
X65485400Y-107712601D01*
X65851668Y-107808596D01*
X65859595Y-107809350D01*
X65882768Y-107813813D01*
X65949988Y-107833551D01*
X65949989Y-107833551D01*
X66093911Y-107833551D01*
X66093911Y-107833550D01*
X66232002Y-107793004D01*
X66353077Y-107715194D01*
X66447326Y-107606424D01*
X66507114Y-107475508D01*
X66527596Y-107333051D01*
X66507114Y-107190594D01*
X66447326Y-107059678D01*
X66353077Y-106950908D01*
X66232002Y-106873098D01*
X66232000Y-106873097D01*
X66231998Y-106873096D01*
X66231999Y-106873096D01*
X66093912Y-106832551D01*
X66093910Y-106832551D01*
X65949988Y-106832551D01*
X65881901Y-106852541D01*
X65854422Y-106857339D01*
X65851669Y-106857504D01*
X65851667Y-106857504D01*
X65545049Y-106937866D01*
X65495288Y-106950908D01*
X65485398Y-106953500D01*
X65453961Y-106957551D01*
X65312203Y-106957551D01*
X65245164Y-106937866D01*
X65231910Y-106928044D01*
X64796967Y-106558461D01*
X64785684Y-106550942D01*
X64772666Y-106541196D01*
X64751949Y-106525687D01*
X64751949Y-105896329D01*
X69925249Y-105896329D01*
X69939781Y-105969386D01*
X69939782Y-105969390D01*
X69939783Y-105969391D01*
X69995148Y-106052252D01*
X70078009Y-106107617D01*
X70078013Y-106107618D01*
X70151070Y-106122150D01*
X70151073Y-106122151D01*
X70151075Y-106122151D01*
X71900425Y-106122151D01*
X71900426Y-106122150D01*
X71973489Y-106107617D01*
X72056350Y-106052252D01*
X72111715Y-105969391D01*
X72126249Y-105896325D01*
X72126249Y-105021651D01*
X72460534Y-105021651D01*
X72479351Y-105224733D01*
X72535166Y-105420898D01*
X72535171Y-105420911D01*
X72626076Y-105603472D01*
X72748986Y-105766232D01*
X72899707Y-105903631D01*
X72899709Y-105903633D01*
X72998890Y-105965043D01*
X73073112Y-106010999D01*
X73263293Y-106084675D01*
X73463773Y-106122151D01*
X73463775Y-106122151D01*
X73667723Y-106122151D01*
X73667725Y-106122151D01*
X73868205Y-106084675D01*
X74058386Y-106010999D01*
X74231790Y-105903632D01*
X74239801Y-105896329D01*
X80085249Y-105896329D01*
X80099781Y-105969386D01*
X80099782Y-105969390D01*
X80099783Y-105969391D01*
X80155148Y-106052252D01*
X80238009Y-106107617D01*
X80238013Y-106107618D01*
X80311070Y-106122150D01*
X80311073Y-106122151D01*
X80311075Y-106122151D01*
X82060425Y-106122151D01*
X82060426Y-106122150D01*
X82133489Y-106107617D01*
X82216350Y-106052252D01*
X82271715Y-105969391D01*
X82286249Y-105896325D01*
X82286249Y-105021651D01*
X82620534Y-105021651D01*
X82639351Y-105224733D01*
X82695166Y-105420898D01*
X82695171Y-105420911D01*
X82786076Y-105603472D01*
X82908986Y-105766232D01*
X83059707Y-105903631D01*
X83059709Y-105903633D01*
X83158890Y-105965043D01*
X83233112Y-106010999D01*
X83423293Y-106084675D01*
X83623773Y-106122151D01*
X83623775Y-106122151D01*
X83827723Y-106122151D01*
X83827725Y-106122151D01*
X84028205Y-106084675D01*
X84218386Y-106010999D01*
X84391790Y-105903632D01*
X84542513Y-105766230D01*
X84665422Y-105603472D01*
X84756331Y-105420901D01*
X84812146Y-105224734D01*
X84830964Y-105021651D01*
X84812146Y-104818568D01*
X84756331Y-104622401D01*
X84665422Y-104439830D01*
X84542513Y-104277072D01*
X84542511Y-104277069D01*
X84391790Y-104139670D01*
X84391788Y-104139668D01*
X84218391Y-104032306D01*
X84218384Y-104032302D01*
X84091130Y-103983004D01*
X84028205Y-103958627D01*
X83827725Y-103921151D01*
X83623773Y-103921151D01*
X83423293Y-103958627D01*
X83423290Y-103958627D01*
X83423290Y-103958628D01*
X83233113Y-104032302D01*
X83233106Y-104032306D01*
X83059709Y-104139668D01*
X83059707Y-104139670D01*
X82908986Y-104277069D01*
X82786076Y-104439829D01*
X82695171Y-104622390D01*
X82695166Y-104622403D01*
X82639351Y-104818568D01*
X82620534Y-105021650D01*
X82620534Y-105021651D01*
X82286249Y-105021651D01*
X82286249Y-104146977D01*
X82286249Y-104146974D01*
X82286248Y-104146972D01*
X82271716Y-104073915D01*
X82271715Y-104073911D01*
X82249189Y-104040198D01*
X82216350Y-103991050D01*
X82160984Y-103954056D01*
X82133488Y-103935684D01*
X82133484Y-103935683D01*
X82060426Y-103921151D01*
X82060423Y-103921151D01*
X80311075Y-103921151D01*
X80311072Y-103921151D01*
X80238013Y-103935683D01*
X80238009Y-103935684D01*
X80155148Y-103991050D01*
X80099782Y-104073911D01*
X80099781Y-104073915D01*
X80085249Y-104146972D01*
X80085249Y-105896329D01*
X74239801Y-105896329D01*
X74382513Y-105766230D01*
X74505422Y-105603472D01*
X74596331Y-105420901D01*
X74652146Y-105224734D01*
X74670964Y-105021651D01*
X74652146Y-104818568D01*
X74596331Y-104622401D01*
X74505422Y-104439830D01*
X74382513Y-104277072D01*
X74382511Y-104277069D01*
X74231790Y-104139670D01*
X74231788Y-104139668D01*
X74058391Y-104032306D01*
X74058384Y-104032302D01*
X73931130Y-103983004D01*
X73868205Y-103958627D01*
X73667725Y-103921151D01*
X73463773Y-103921151D01*
X73263293Y-103958627D01*
X73263290Y-103958627D01*
X73263290Y-103958628D01*
X73073113Y-104032302D01*
X73073106Y-104032306D01*
X72899709Y-104139668D01*
X72899707Y-104139670D01*
X72748986Y-104277069D01*
X72626076Y-104439829D01*
X72535171Y-104622390D01*
X72535166Y-104622403D01*
X72479351Y-104818568D01*
X72460534Y-105021650D01*
X72460534Y-105021651D01*
X72126249Y-105021651D01*
X72126249Y-104146977D01*
X72126249Y-104146974D01*
X72126248Y-104146972D01*
X72111716Y-104073915D01*
X72111715Y-104073911D01*
X72089189Y-104040198D01*
X72056350Y-103991050D01*
X72000984Y-103954056D01*
X71973488Y-103935684D01*
X71973484Y-103935683D01*
X71900426Y-103921151D01*
X71900423Y-103921151D01*
X70151075Y-103921151D01*
X70151072Y-103921151D01*
X70078013Y-103935683D01*
X70078009Y-103935684D01*
X69995148Y-103991050D01*
X69939782Y-104073911D01*
X69939781Y-104073915D01*
X69925249Y-104146972D01*
X69925249Y-105896329D01*
X64751949Y-105896329D01*
X64751949Y-102888051D01*
X66786302Y-102888051D01*
X66806783Y-103030507D01*
X66858942Y-103144717D01*
X66866572Y-103161424D01*
X66960821Y-103270194D01*
X67081896Y-103348004D01*
X67081899Y-103348005D01*
X67081898Y-103348005D01*
X67219985Y-103388550D01*
X67219987Y-103388551D01*
X67219988Y-103388551D01*
X67363912Y-103388551D01*
X67363912Y-103388550D01*
X67431987Y-103368560D01*
X67459505Y-103363759D01*
X67462228Y-103363596D01*
X67828496Y-103267601D01*
X67859933Y-103263551D01*
X85138964Y-103263551D01*
X85170400Y-103267601D01*
X85536668Y-103363596D01*
X85544595Y-103364350D01*
X85567768Y-103368813D01*
X85634988Y-103388551D01*
X85634989Y-103388551D01*
X85778912Y-103388551D01*
X85778912Y-103388550D01*
X85846987Y-103368560D01*
X85874505Y-103363759D01*
X85877228Y-103363596D01*
X86243496Y-103267601D01*
X86274933Y-103263551D01*
X88270508Y-103263551D01*
X88337547Y-103283236D01*
X88383302Y-103336040D01*
X88393246Y-103405197D01*
X88376302Y-103523050D01*
X88396783Y-103665507D01*
X88421777Y-103720235D01*
X88456572Y-103796424D01*
X88550821Y-103905194D01*
X88671896Y-103983004D01*
X88671899Y-103983005D01*
X88671898Y-103983005D01*
X88809985Y-104023550D01*
X88809987Y-104023551D01*
X88809988Y-104023551D01*
X88953912Y-104023551D01*
X88953912Y-104023550D01*
X89021987Y-104003560D01*
X89049505Y-103998759D01*
X89052228Y-103998596D01*
X89418496Y-103902601D01*
X89449933Y-103898551D01*
X90146840Y-103898551D01*
X90213879Y-103918236D01*
X90259634Y-103971040D01*
X90269578Y-104040198D01*
X90261401Y-104070004D01*
X90259781Y-104073913D01*
X90245249Y-104146972D01*
X90245249Y-105896329D01*
X90259781Y-105969386D01*
X90259782Y-105969390D01*
X90259783Y-105969391D01*
X90315148Y-106052252D01*
X90398009Y-106107617D01*
X90398013Y-106107618D01*
X90471070Y-106122150D01*
X90471073Y-106122151D01*
X90471075Y-106122151D01*
X92220425Y-106122151D01*
X92220426Y-106122150D01*
X92293489Y-106107617D01*
X92376350Y-106052252D01*
X92431715Y-105969391D01*
X92446249Y-105896325D01*
X92446249Y-104146977D01*
X92446249Y-104146974D01*
X92446248Y-104146972D01*
X92431716Y-104073913D01*
X92430097Y-104070004D01*
X92422628Y-104000535D01*
X92453903Y-103938056D01*
X92513991Y-103902403D01*
X92544658Y-103898551D01*
X93173314Y-103898551D01*
X93240353Y-103918236D01*
X93286108Y-103971040D01*
X93296052Y-104040198D01*
X93267027Y-104103754D01*
X93238594Y-104127975D01*
X93232430Y-104131793D01*
X93219704Y-104139672D01*
X93068986Y-104277069D01*
X92946076Y-104439829D01*
X92855171Y-104622390D01*
X92855166Y-104622403D01*
X92799351Y-104818568D01*
X92780534Y-105021650D01*
X92780534Y-105021651D01*
X92799351Y-105224733D01*
X92855166Y-105420898D01*
X92855171Y-105420911D01*
X92946076Y-105603472D01*
X93068986Y-105766232D01*
X93219707Y-105903631D01*
X93219709Y-105903633D01*
X93318890Y-105965043D01*
X93393112Y-106010999D01*
X93583293Y-106084675D01*
X93783773Y-106122151D01*
X93783775Y-106122151D01*
X93987723Y-106122151D01*
X93987725Y-106122151D01*
X94188205Y-106084675D01*
X94378386Y-106010999D01*
X94551790Y-105903632D01*
X94702513Y-105766230D01*
X94825422Y-105603472D01*
X94916331Y-105420901D01*
X94972146Y-105224734D01*
X94990964Y-105021651D01*
X94972146Y-104818568D01*
X94916331Y-104622401D01*
X94825422Y-104439830D01*
X94702513Y-104277072D01*
X94702511Y-104277069D01*
X94551793Y-104139672D01*
X94551787Y-104139668D01*
X94539065Y-104131791D01*
X94492431Y-104079765D01*
X94481327Y-104010783D01*
X94509279Y-103946749D01*
X94567414Y-103907992D01*
X94589007Y-103903317D01*
X94619606Y-103899503D01*
X94634943Y-103898551D01*
X94635041Y-103898551D01*
X94635043Y-103898551D01*
X94655572Y-103895124D01*
X94660602Y-103894392D01*
X94712555Y-103887917D01*
X94712557Y-103887915D01*
X94720070Y-103885679D01*
X94727535Y-103883117D01*
X94727535Y-103883116D01*
X94727539Y-103883116D01*
X94773565Y-103858208D01*
X94778122Y-103855863D01*
X94810332Y-103840116D01*
X94825140Y-103832877D01*
X94825142Y-103832874D01*
X94831523Y-103828319D01*
X94837749Y-103823472D01*
X94837755Y-103823470D01*
X94873222Y-103784941D01*
X94876724Y-103781291D01*
X96404965Y-102253051D01*
X97266302Y-102253051D01*
X97286783Y-102395507D01*
X97338386Y-102508500D01*
X97346572Y-102526424D01*
X97440821Y-102635194D01*
X97561896Y-102713004D01*
X97561899Y-102713005D01*
X97561898Y-102713005D01*
X97699985Y-102753550D01*
X97699987Y-102753551D01*
X97699988Y-102753551D01*
X97843911Y-102753551D01*
X97843911Y-102753550D01*
X97982002Y-102713004D01*
X98103077Y-102635194D01*
X98197326Y-102526424D01*
X98197329Y-102526418D01*
X98210553Y-102497461D01*
X98225642Y-102474277D01*
X98225039Y-102473840D01*
X98228613Y-102468908D01*
X98228616Y-102468905D01*
X98361300Y-102241967D01*
X98412129Y-102194031D01*
X98480807Y-102181184D01*
X98545529Y-102207506D01*
X98585745Y-102264642D01*
X98591816Y-102293114D01*
X98606643Y-102453121D01*
X98661632Y-102646390D01*
X98754443Y-102832778D01*
X98754617Y-102833758D01*
X98776077Y-102800369D01*
X99319834Y-102256611D01*
X99317663Y-102282822D01*
X99346797Y-102397869D01*
X99411708Y-102497223D01*
X99505362Y-102570116D01*
X99617610Y-102608651D01*
X99674902Y-102608651D01*
X99395502Y-102888051D01*
X99674902Y-103167451D01*
X99647483Y-103167451D01*
X99559889Y-103182068D01*
X99455515Y-103238552D01*
X99375136Y-103325867D01*
X99327464Y-103434549D01*
X99320380Y-103520034D01*
X98776077Y-102975731D01*
X98755819Y-102938632D01*
X98754443Y-102943321D01*
X98661634Y-103129706D01*
X98661630Y-103129716D01*
X98606643Y-103322980D01*
X98588104Y-103523050D01*
X98588104Y-103523051D01*
X98606643Y-103723121D01*
X98661632Y-103916390D01*
X98750861Y-104095585D01*
X99319834Y-103526612D01*
X99317663Y-103552822D01*
X99346797Y-103667869D01*
X99411708Y-103767223D01*
X99505362Y-103840116D01*
X99617610Y-103878651D01*
X99674902Y-103878651D01*
X99622788Y-103930764D01*
X99561465Y-103964248D01*
X99560889Y-103964372D01*
X99417592Y-103994830D01*
X99417587Y-103994832D01*
X99257300Y-104066197D01*
X99257295Y-104066200D01*
X99115350Y-104169329D01*
X99115343Y-104169335D01*
X98997942Y-104299724D01*
X98910212Y-104451677D01*
X98910209Y-104451683D01*
X98855992Y-104618549D01*
X98837651Y-104793051D01*
X98855992Y-104967552D01*
X98910209Y-105134418D01*
X98910212Y-105134424D01*
X98997942Y-105286377D01*
X99115343Y-105416766D01*
X99115350Y-105416772D01*
X99257295Y-105519901D01*
X99257300Y-105519904D01*
X99417587Y-105591269D01*
X99417588Y-105591269D01*
X99417592Y-105591271D01*
X99560888Y-105621729D01*
X99622370Y-105654921D01*
X99622789Y-105655338D01*
X99674902Y-105707451D01*
X99647483Y-105707451D01*
X99559889Y-105722068D01*
X99455515Y-105778552D01*
X99375136Y-105865867D01*
X99327464Y-105974549D01*
X99320380Y-106060034D01*
X98750861Y-105490515D01*
X98750860Y-105490515D01*
X98661634Y-105669706D01*
X98661630Y-105669716D01*
X98606643Y-105862980D01*
X98588104Y-106063050D01*
X98588104Y-106063051D01*
X98606643Y-106263121D01*
X98661632Y-106456390D01*
X98750861Y-106635585D01*
X99319834Y-106066612D01*
X99317663Y-106092822D01*
X99346797Y-106207869D01*
X99411708Y-106307223D01*
X99505362Y-106380116D01*
X99617610Y-106418651D01*
X99674902Y-106418651D01*
X99107737Y-106985813D01*
X99191608Y-107037744D01*
X99191609Y-107037745D01*
X99378973Y-107110329D01*
X99576485Y-107147251D01*
X99777413Y-107147251D01*
X99974923Y-107110329D01*
X99974924Y-107110329D01*
X100162294Y-107037741D01*
X100246158Y-106985814D01*
X100246158Y-106985813D01*
X99678997Y-106418651D01*
X99706415Y-106418651D01*
X99794009Y-106404034D01*
X99898383Y-106347550D01*
X99978762Y-106260235D01*
X100026434Y-106151553D01*
X100033518Y-106066067D01*
X100085662Y-106118211D01*
X100119147Y-106179534D01*
X100121301Y-106192925D01*
X100125992Y-106237551D01*
X100125993Y-106237554D01*
X100125993Y-106237555D01*
X100180209Y-106404418D01*
X100180212Y-106404424D01*
X100267942Y-106556377D01*
X100385343Y-106686766D01*
X100385350Y-106686772D01*
X100527295Y-106789901D01*
X100527300Y-106789904D01*
X100687587Y-106861269D01*
X100687590Y-106861270D01*
X100687592Y-106861271D01*
X100859218Y-106897751D01*
X100859219Y-106897751D01*
X101034678Y-106897751D01*
X101034680Y-106897751D01*
X101206306Y-106861271D01*
X101248977Y-106842271D01*
X101272673Y-106834468D01*
X101284128Y-106831940D01*
X101614850Y-106686772D01*
X102156523Y-106449008D01*
X102206362Y-106438551D01*
X105518318Y-106438551D01*
X105543763Y-106441190D01*
X105546846Y-106441836D01*
X105554390Y-106443418D01*
X105585798Y-106439502D01*
X105601136Y-106438551D01*
X105601234Y-106438551D01*
X105601236Y-106438551D01*
X105621765Y-106435124D01*
X105626795Y-106434392D01*
X105678748Y-106427917D01*
X105678750Y-106427915D01*
X105686263Y-106425679D01*
X105693728Y-106423117D01*
X105693728Y-106423116D01*
X105693732Y-106423116D01*
X105739758Y-106398208D01*
X105744315Y-106395863D01*
X105776525Y-106380116D01*
X105791333Y-106372877D01*
X105791335Y-106372874D01*
X105797716Y-106368319D01*
X105803942Y-106363472D01*
X105803948Y-106363470D01*
X105839415Y-106324941D01*
X105842917Y-106321291D01*
X108641157Y-103523051D01*
X110601302Y-103523051D01*
X110621783Y-103665507D01*
X110646777Y-103720235D01*
X110681572Y-103796424D01*
X110775821Y-103905194D01*
X110896896Y-103983004D01*
X110896899Y-103983005D01*
X110896898Y-103983005D01*
X111034985Y-104023550D01*
X111034987Y-104023551D01*
X111034988Y-104023551D01*
X111178911Y-104023551D01*
X111178911Y-104023550D01*
X111317002Y-103983004D01*
X111438077Y-103905194D01*
X111532326Y-103796424D01*
X111592114Y-103665508D01*
X111612596Y-103523051D01*
X111592114Y-103380594D01*
X111532326Y-103249678D01*
X111438077Y-103140908D01*
X111317002Y-103063098D01*
X111317000Y-103063097D01*
X111316998Y-103063096D01*
X111316999Y-103063096D01*
X111178912Y-103022551D01*
X111178910Y-103022551D01*
X111034988Y-103022551D01*
X111034985Y-103022551D01*
X110896898Y-103063096D01*
X110775822Y-103140907D01*
X110681572Y-103249677D01*
X110681571Y-103249679D01*
X110621783Y-103380594D01*
X110601302Y-103523051D01*
X108641157Y-103523051D01*
X116624770Y-95539439D01*
X116686091Y-95505956D01*
X116755783Y-95510940D01*
X116811716Y-95552812D01*
X116836133Y-95618276D01*
X116836449Y-95627122D01*
X116836449Y-102541114D01*
X116816764Y-102608153D01*
X116763960Y-102653908D01*
X116694802Y-102663852D01*
X116631246Y-102634827D01*
X116618966Y-102620660D01*
X116618134Y-102621381D01*
X116612106Y-102614424D01*
X116518077Y-102505908D01*
X116397002Y-102428098D01*
X116397000Y-102428097D01*
X116396998Y-102428096D01*
X116396999Y-102428096D01*
X116258912Y-102387551D01*
X116258910Y-102387551D01*
X116114988Y-102387551D01*
X116086382Y-102395950D01*
X116016512Y-102395949D01*
X115957735Y-102358173D01*
X115928711Y-102294617D01*
X115927449Y-102276972D01*
X115927449Y-99764854D01*
X115930088Y-99739409D01*
X115930126Y-99739226D01*
X115932316Y-99728783D01*
X115928401Y-99697374D01*
X115927449Y-99682036D01*
X115927449Y-99681941D01*
X115927449Y-99681937D01*
X115924027Y-99661435D01*
X115923288Y-99656360D01*
X115919508Y-99626037D01*
X115916815Y-99604426D01*
X115916813Y-99604422D01*
X115914570Y-99596888D01*
X115912014Y-99589442D01*
X115912014Y-99589441D01*
X115887108Y-99543420D01*
X115884771Y-99538880D01*
X115881948Y-99533106D01*
X115861775Y-99491840D01*
X115861772Y-99491837D01*
X115861772Y-99491836D01*
X115857229Y-99485472D01*
X115852369Y-99479227D01*
X115852368Y-99479225D01*
X115813841Y-99443758D01*
X115810167Y-99440232D01*
X115584094Y-99214159D01*
X115564729Y-99189065D01*
X115373620Y-98862200D01*
X115372780Y-98861183D01*
X115371661Y-98859395D01*
X115370758Y-98858103D01*
X115370823Y-98858057D01*
X115355596Y-98833733D01*
X115342330Y-98804685D01*
X115342325Y-98804677D01*
X115248077Y-98695908D01*
X115127002Y-98618098D01*
X115127000Y-98618097D01*
X115126998Y-98618096D01*
X115126999Y-98618096D01*
X114988912Y-98577551D01*
X114988910Y-98577551D01*
X114844988Y-98577551D01*
X114844985Y-98577551D01*
X114706898Y-98618096D01*
X114585822Y-98695907D01*
X114491572Y-98804677D01*
X114491571Y-98804679D01*
X114431783Y-98935594D01*
X114411302Y-99078051D01*
X114431783Y-99220507D01*
X114483386Y-99333500D01*
X114491572Y-99351424D01*
X114585821Y-99460194D01*
X114692785Y-99528935D01*
X114698523Y-99532855D01*
X114701091Y-99534716D01*
X114701094Y-99534719D01*
X114762453Y-99570594D01*
X114857280Y-99626037D01*
X114905218Y-99676867D01*
X114918065Y-99745545D01*
X114891743Y-99810267D01*
X114834607Y-99850483D01*
X114829628Y-99852060D01*
X114706898Y-99888096D01*
X114585822Y-99965907D01*
X114491572Y-100074677D01*
X114491571Y-100074679D01*
X114431783Y-100205594D01*
X114411302Y-100348051D01*
X114431783Y-100490507D01*
X114468650Y-100571232D01*
X114491572Y-100621424D01*
X114585821Y-100730194D01*
X114706896Y-100808004D01*
X114706899Y-100808005D01*
X114706898Y-100808005D01*
X114844985Y-100848550D01*
X114844987Y-100848551D01*
X114844988Y-100848551D01*
X114988910Y-100848551D01*
X115017515Y-100840152D01*
X115087383Y-100840152D01*
X115146161Y-100877925D01*
X115175187Y-100941481D01*
X115176449Y-100959129D01*
X115176449Y-104181972D01*
X115156764Y-104249011D01*
X115103960Y-104294766D01*
X115034802Y-104304710D01*
X115017516Y-104300950D01*
X114988910Y-104292551D01*
X114844988Y-104292551D01*
X114776901Y-104312541D01*
X114749422Y-104317339D01*
X114746669Y-104317504D01*
X114746667Y-104317504D01*
X114380398Y-104413500D01*
X114348961Y-104417551D01*
X108618753Y-104417551D01*
X108593308Y-104414912D01*
X108582681Y-104412684D01*
X108551273Y-104416599D01*
X108535935Y-104417551D01*
X108535835Y-104417551D01*
X108515349Y-104420969D01*
X108510287Y-104421707D01*
X108500648Y-104422908D01*
X108458319Y-104428185D01*
X108450806Y-104430422D01*
X108443335Y-104432987D01*
X108397320Y-104457888D01*
X108392769Y-104460231D01*
X108345741Y-104483222D01*
X108339324Y-104487804D01*
X108333123Y-104492630D01*
X108297666Y-104531146D01*
X108294120Y-104534841D01*
X104971108Y-107857852D01*
X104951254Y-107873976D01*
X104942165Y-107879914D01*
X104942164Y-107879915D01*
X104922720Y-107904896D01*
X104912574Y-107916388D01*
X104912483Y-107916479D01*
X104912474Y-107916489D01*
X104900402Y-107933397D01*
X104897341Y-107937503D01*
X104865192Y-107978808D01*
X104861447Y-107985729D01*
X104857988Y-107992804D01*
X104843057Y-108042955D01*
X104841495Y-108047831D01*
X104824500Y-108097338D01*
X104823206Y-108105092D01*
X104822231Y-108112911D01*
X104824394Y-108165191D01*
X104824500Y-108170316D01*
X104824500Y-115133195D01*
X104821862Y-115158633D01*
X104819633Y-115169267D01*
X104819633Y-115169269D01*
X104823548Y-115200674D01*
X104824500Y-115216012D01*
X104824500Y-115216115D01*
X104827918Y-115236602D01*
X104828657Y-115241668D01*
X104835134Y-115293626D01*
X104837373Y-115301146D01*
X104839935Y-115308610D01*
X104864827Y-115354607D01*
X104867171Y-115359160D01*
X104890172Y-115406207D01*
X104894742Y-115412608D01*
X104899581Y-115418825D01*
X104938107Y-115454291D01*
X104941779Y-115457815D01*
X105868652Y-116384688D01*
X105902137Y-116446011D01*
X105899632Y-116508364D01*
X105859121Y-116641908D01*
X105839612Y-116840000D01*
X105859122Y-117038095D01*
X105916904Y-117228574D01*
X106010732Y-117404114D01*
X106010736Y-117404121D01*
X106137012Y-117557988D01*
X106290879Y-117684264D01*
X106290886Y-117684268D01*
X106466426Y-117778096D01*
X106466428Y-117778097D01*
X106656908Y-117835879D01*
X106855001Y-117855389D01*
X107053094Y-117835879D01*
X107243574Y-117778097D01*
X107419121Y-117684265D01*
X107463500Y-117647844D01*
X108595000Y-117647844D01*
X108601401Y-117707372D01*
X108601403Y-117707379D01*
X108651645Y-117842086D01*
X108651649Y-117842093D01*
X108737809Y-117957187D01*
X108737812Y-117957190D01*
X108852906Y-118043350D01*
X108852913Y-118043354D01*
X108987620Y-118093596D01*
X108987627Y-118093598D01*
X109047155Y-118099999D01*
X109047172Y-118100000D01*
X109605000Y-118100000D01*
X109605000Y-117286494D01*
X109709839Y-117334373D01*
X109818527Y-117350000D01*
X109891473Y-117350000D01*
X110000161Y-117334373D01*
X110105000Y-117286494D01*
X110105000Y-118100000D01*
X110662828Y-118100000D01*
X110662844Y-118099999D01*
X110722372Y-118093598D01*
X110722379Y-118093596D01*
X110857086Y-118043354D01*
X110857093Y-118043350D01*
X110972187Y-117957190D01*
X110972190Y-117957187D01*
X111058350Y-117842093D01*
X111058354Y-117842086D01*
X111108596Y-117707379D01*
X111108598Y-117707372D01*
X111114999Y-117647844D01*
X111115000Y-117647827D01*
X111115000Y-117090000D01*
X110300572Y-117090000D01*
X110323682Y-117054040D01*
X110365000Y-116913327D01*
X110365000Y-116766673D01*
X110323682Y-116625960D01*
X110300572Y-116590000D01*
X111115000Y-116590000D01*
X111115000Y-116032172D01*
X111114999Y-116032155D01*
X111108598Y-115972627D01*
X111108596Y-115972620D01*
X111058354Y-115837913D01*
X111058350Y-115837906D01*
X110972190Y-115722812D01*
X110972187Y-115722809D01*
X110857093Y-115636649D01*
X110857086Y-115636645D01*
X110722379Y-115586403D01*
X110722372Y-115586401D01*
X110662844Y-115580000D01*
X110105000Y-115580000D01*
X110105000Y-116393505D01*
X110000161Y-116345627D01*
X109891473Y-116330000D01*
X109818527Y-116330000D01*
X109709839Y-116345627D01*
X109605000Y-116393505D01*
X109605000Y-115580000D01*
X109047155Y-115580000D01*
X108987627Y-115586401D01*
X108987620Y-115586403D01*
X108852913Y-115636645D01*
X108852906Y-115636649D01*
X108737812Y-115722809D01*
X108737809Y-115722812D01*
X108651649Y-115837906D01*
X108651645Y-115837913D01*
X108601403Y-115972620D01*
X108601401Y-115972627D01*
X108595000Y-116032155D01*
X108595000Y-116590000D01*
X109409428Y-116590000D01*
X109386318Y-116625960D01*
X109345000Y-116766673D01*
X109345000Y-116913327D01*
X109386318Y-117054040D01*
X109409428Y-117090000D01*
X108595000Y-117090000D01*
X108595000Y-117647844D01*
X107463500Y-117647844D01*
X107572989Y-117557988D01*
X107699266Y-117404120D01*
X107793098Y-117228573D01*
X107850880Y-117038093D01*
X107870390Y-116840000D01*
X107850880Y-116641907D01*
X107793098Y-116451427D01*
X107757425Y-116384688D01*
X107699269Y-116275885D01*
X107699265Y-116275878D01*
X107572989Y-116122011D01*
X107419122Y-115995735D01*
X107419115Y-115995731D01*
X107243575Y-115901903D01*
X107053096Y-115844121D01*
X106855001Y-115824611D01*
X106656909Y-115844120D01*
X106523365Y-115884631D01*
X106453498Y-115885254D01*
X106399689Y-115853651D01*
X105611819Y-115065780D01*
X105578334Y-115004457D01*
X105575500Y-114978099D01*
X105575500Y-113840001D01*
X105839612Y-113840001D01*
X105859122Y-114038096D01*
X105916904Y-114228575D01*
X106010732Y-114404115D01*
X106010736Y-114404122D01*
X106137012Y-114557989D01*
X106290879Y-114684265D01*
X106290886Y-114684269D01*
X106466426Y-114778097D01*
X106466428Y-114778098D01*
X106656908Y-114835880D01*
X106855001Y-114855390D01*
X107053094Y-114835880D01*
X107243574Y-114778098D01*
X107419121Y-114684266D01*
X107572989Y-114557989D01*
X107699266Y-114404121D01*
X107793098Y-114228574D01*
X107850880Y-114038094D01*
X107870390Y-113840001D01*
X107850880Y-113641908D01*
X107793098Y-113451428D01*
X107699266Y-113275881D01*
X107699265Y-113275879D01*
X107572989Y-113122012D01*
X107419122Y-112995736D01*
X107419115Y-112995732D01*
X107243575Y-112901904D01*
X107053096Y-112844122D01*
X106855001Y-112824612D01*
X106656905Y-112844122D01*
X106466426Y-112901904D01*
X106290886Y-112995732D01*
X106290879Y-112995736D01*
X106137012Y-113122012D01*
X106010736Y-113275879D01*
X106010732Y-113275886D01*
X105916904Y-113451426D01*
X105859122Y-113641905D01*
X105839612Y-113840001D01*
X105575500Y-113840001D01*
X105575500Y-108366899D01*
X105595185Y-108299860D01*
X105611819Y-108279218D01*
X108686168Y-105204870D01*
X108747491Y-105171385D01*
X108773849Y-105168551D01*
X114348964Y-105168551D01*
X114380400Y-105172601D01*
X114746668Y-105268596D01*
X114754595Y-105269350D01*
X114777768Y-105273813D01*
X114844988Y-105293551D01*
X114844989Y-105293551D01*
X114988910Y-105293551D01*
X115017515Y-105285152D01*
X115087383Y-105285152D01*
X115146161Y-105322925D01*
X115175187Y-105386481D01*
X115176449Y-105404129D01*
X115176449Y-105451972D01*
X115156764Y-105519011D01*
X115103960Y-105564766D01*
X115034802Y-105574710D01*
X115017516Y-105570950D01*
X114988910Y-105562551D01*
X114844988Y-105562551D01*
X114844985Y-105562551D01*
X114706898Y-105603096D01*
X114585821Y-105680908D01*
X114585819Y-105680909D01*
X114491574Y-105789675D01*
X114491569Y-105789682D01*
X114478344Y-105818640D01*
X114463259Y-105841825D01*
X114463858Y-105842259D01*
X114460285Y-105847188D01*
X114460282Y-105847192D01*
X114460281Y-105847194D01*
X114308017Y-106107618D01*
X114269165Y-106174068D01*
X114249800Y-106199161D01*
X111513057Y-108935903D01*
X111493203Y-108952027D01*
X111484114Y-108957965D01*
X111484113Y-108957966D01*
X111464669Y-108982947D01*
X111454523Y-108994439D01*
X111454432Y-108994530D01*
X111454423Y-108994540D01*
X111442351Y-109011448D01*
X111439290Y-109015554D01*
X111407141Y-109056859D01*
X111403396Y-109063780D01*
X111399937Y-109070855D01*
X111385006Y-109121006D01*
X111383444Y-109125882D01*
X111366449Y-109175389D01*
X111365155Y-109183143D01*
X111364180Y-109190962D01*
X111366343Y-109243242D01*
X111366449Y-109248367D01*
X111366449Y-111746152D01*
X111346764Y-111813191D01*
X111330130Y-111833833D01*
X110310310Y-112853652D01*
X110248987Y-112887137D01*
X110186633Y-112884631D01*
X110053095Y-112844122D01*
X109855000Y-112824612D01*
X109656904Y-112844122D01*
X109466425Y-112901904D01*
X109290885Y-112995732D01*
X109290878Y-112995736D01*
X109137011Y-113122012D01*
X109010735Y-113275879D01*
X109010731Y-113275886D01*
X108916903Y-113451426D01*
X108859121Y-113641905D01*
X108839611Y-113840001D01*
X108859121Y-114038096D01*
X108916903Y-114228575D01*
X109010731Y-114404115D01*
X109010735Y-114404122D01*
X109137011Y-114557989D01*
X109290878Y-114684265D01*
X109290885Y-114684269D01*
X109466425Y-114778097D01*
X109466427Y-114778098D01*
X109656907Y-114835880D01*
X109855000Y-114855390D01*
X110053093Y-114835880D01*
X110243573Y-114778098D01*
X110419120Y-114684266D01*
X110572988Y-114557989D01*
X110699265Y-114404121D01*
X110793097Y-114228574D01*
X110850879Y-114038094D01*
X110870389Y-113840001D01*
X110853153Y-113665000D01*
X118745000Y-113665000D01*
X121285000Y-113665000D01*
X121285000Y-112457000D01*
X121304685Y-112389961D01*
X121334600Y-112357800D01*
X123825000Y-110490000D01*
X123825000Y-104140000D01*
X119380000Y-104140000D01*
X119380000Y-109825727D01*
X119366909Y-109881181D01*
X118832523Y-110949954D01*
X118745000Y-111125000D01*
X118745000Y-113665000D01*
X110853153Y-113665000D01*
X110850879Y-113641908D01*
X110810369Y-113508365D01*
X110809745Y-113438498D01*
X110841346Y-113384690D01*
X111970841Y-112255196D01*
X111990690Y-112239077D01*
X111999785Y-112233136D01*
X112019221Y-112208162D01*
X112029399Y-112196639D01*
X112029469Y-112196570D01*
X112041556Y-112179638D01*
X112044615Y-112175537D01*
X112058015Y-112158320D01*
X112076758Y-112134241D01*
X112076760Y-112134234D01*
X112080496Y-112127332D01*
X112083952Y-112120259D01*
X112083959Y-112120251D01*
X112098904Y-112070047D01*
X112100432Y-112065276D01*
X112117449Y-112015712D01*
X112117449Y-112015708D01*
X112118739Y-112007976D01*
X112119717Y-112000137D01*
X112117555Y-111947859D01*
X112117449Y-111942735D01*
X112117449Y-109444949D01*
X112137134Y-109377910D01*
X112153763Y-109357273D01*
X114206808Y-107304227D01*
X114268131Y-107270743D01*
X114337823Y-107275727D01*
X114393756Y-107317599D01*
X114417227Y-107374262D01*
X114431783Y-107475507D01*
X114491571Y-107606422D01*
X114491572Y-107606424D01*
X114585821Y-107715194D01*
X114706896Y-107793004D01*
X114706899Y-107793005D01*
X114706897Y-107793005D01*
X114829625Y-107829040D01*
X114888403Y-107866813D01*
X114917429Y-107930369D01*
X114907486Y-107999527D01*
X114861731Y-108052332D01*
X114857279Y-108055062D01*
X114701097Y-108146379D01*
X114696993Y-108149246D01*
X114696908Y-108149125D01*
X114692450Y-108152381D01*
X114585822Y-108220907D01*
X114585815Y-108220913D01*
X114491574Y-108329673D01*
X114491571Y-108329679D01*
X114431783Y-108460594D01*
X114411302Y-108603051D01*
X114431783Y-108745507D01*
X114491571Y-108876422D01*
X114491572Y-108876424D01*
X114585821Y-108985194D01*
X114706896Y-109063004D01*
X114706899Y-109063005D01*
X114706898Y-109063005D01*
X114829626Y-109099041D01*
X114888405Y-109136815D01*
X114917430Y-109200370D01*
X114907487Y-109269529D01*
X114861732Y-109322333D01*
X114857279Y-109325064D01*
X114701093Y-109416382D01*
X114696993Y-109419246D01*
X114696908Y-109419125D01*
X114692450Y-109422381D01*
X114585822Y-109490907D01*
X114585815Y-109490913D01*
X114491574Y-109599673D01*
X114491571Y-109599679D01*
X114431783Y-109730594D01*
X114411302Y-109873051D01*
X114431783Y-110015507D01*
X114465305Y-110088908D01*
X114491572Y-110146424D01*
X114585821Y-110255194D01*
X114706896Y-110333004D01*
X114706899Y-110333005D01*
X114706898Y-110333005D01*
X114844985Y-110373550D01*
X114844987Y-110373551D01*
X114844988Y-110373551D01*
X114988911Y-110373551D01*
X114988911Y-110373550D01*
X115127002Y-110333004D01*
X115248077Y-110255194D01*
X115342326Y-110146424D01*
X115355553Y-110117461D01*
X115370642Y-110094277D01*
X115370039Y-110093840D01*
X115373613Y-110088908D01*
X115373616Y-110088905D01*
X115564730Y-109762032D01*
X115584087Y-109736948D01*
X117440838Y-107880197D01*
X117460695Y-107864073D01*
X117469785Y-107858135D01*
X117489220Y-107833163D01*
X117499405Y-107821632D01*
X117499405Y-107821631D01*
X117499468Y-107821569D01*
X117511579Y-107804604D01*
X117514576Y-107800585D01*
X117546758Y-107759240D01*
X117546760Y-107759232D01*
X117550496Y-107752331D01*
X117553952Y-107745258D01*
X117553959Y-107745250D01*
X117568904Y-107695046D01*
X117570432Y-107690275D01*
X117587449Y-107640711D01*
X117587449Y-107640707D01*
X117588739Y-107632975D01*
X117589717Y-107625136D01*
X117587555Y-107572858D01*
X117587449Y-107567734D01*
X117587449Y-97173051D01*
X118221302Y-97173051D01*
X118241783Y-97315507D01*
X118301571Y-97446422D01*
X118301572Y-97446424D01*
X118395821Y-97555194D01*
X118516896Y-97633004D01*
X118516899Y-97633005D01*
X118516898Y-97633005D01*
X118654985Y-97673550D01*
X118654987Y-97673551D01*
X118654988Y-97673551D01*
X118798911Y-97673551D01*
X118798911Y-97673550D01*
X118937002Y-97633004D01*
X119058077Y-97555194D01*
X119152326Y-97446424D01*
X119212114Y-97315508D01*
X119232596Y-97173051D01*
X119212114Y-97030594D01*
X119152326Y-96899678D01*
X119058077Y-96790908D01*
X118937002Y-96713098D01*
X118937000Y-96713097D01*
X118936998Y-96713096D01*
X118936999Y-96713096D01*
X118798912Y-96672551D01*
X118798910Y-96672551D01*
X118654988Y-96672551D01*
X118654985Y-96672551D01*
X118516898Y-96713096D01*
X118395822Y-96790907D01*
X118301572Y-96899677D01*
X118301571Y-96899679D01*
X118241783Y-97030594D01*
X118221302Y-97173051D01*
X117587449Y-97173051D01*
X117587449Y-89994855D01*
X117590088Y-89969410D01*
X117590734Y-89966326D01*
X117592316Y-89958783D01*
X117589188Y-89933690D01*
X117588401Y-89927373D01*
X117587449Y-89912036D01*
X117587449Y-89911940D01*
X117587449Y-89911937D01*
X117584024Y-89891420D01*
X117583290Y-89886376D01*
X117576815Y-89834425D01*
X117576813Y-89834421D01*
X117574571Y-89826891D01*
X117572014Y-89819446D01*
X117572014Y-89819441D01*
X117547097Y-89773399D01*
X117544777Y-89768891D01*
X117521775Y-89721840D01*
X117521774Y-89721839D01*
X117521774Y-89721838D01*
X117517225Y-89715467D01*
X117512369Y-89709227D01*
X117512368Y-89709225D01*
X117473841Y-89673758D01*
X117470167Y-89670232D01*
X116854094Y-89054158D01*
X116834729Y-89029064D01*
X116643620Y-88702200D01*
X116643418Y-88701956D01*
X116642779Y-88701181D01*
X116641661Y-88699395D01*
X116640758Y-88698103D01*
X116640823Y-88698057D01*
X116625596Y-88673733D01*
X116612330Y-88644685D01*
X116612325Y-88644677D01*
X116574505Y-88601030D01*
X116518077Y-88535908D01*
X116397002Y-88458098D01*
X116397000Y-88458097D01*
X116396998Y-88458096D01*
X116396999Y-88458096D01*
X116258912Y-88417551D01*
X116258910Y-88417551D01*
X116114988Y-88417551D01*
X116086382Y-88425950D01*
X116016512Y-88425949D01*
X115957735Y-88388173D01*
X115928711Y-88324617D01*
X115927449Y-88306972D01*
X115927449Y-86946035D01*
X115931500Y-86914598D01*
X115931501Y-86914595D01*
X116027494Y-86548330D01*
X116027494Y-86548328D01*
X116028763Y-86543487D01*
X116029549Y-86543693D01*
X116036004Y-86522939D01*
X116036394Y-86522083D01*
X116037114Y-86520508D01*
X116057596Y-86378051D01*
X116047961Y-86311035D01*
X116040652Y-86260197D01*
X116050596Y-86191039D01*
X116096351Y-86138235D01*
X116163390Y-86118551D01*
X116759289Y-86118551D01*
X117250050Y-86118551D01*
X117317089Y-86138236D01*
X117337730Y-86154869D01*
X119608368Y-88425508D01*
X121869802Y-90686942D01*
X121889167Y-90712036D01*
X122080276Y-91038900D01*
X122081116Y-91039917D01*
X122082233Y-91041702D01*
X122083139Y-91042998D01*
X122083073Y-91043043D01*
X122098301Y-91067366D01*
X122111572Y-91096424D01*
X122205821Y-91205194D01*
X122326896Y-91283004D01*
X122326899Y-91283005D01*
X122326898Y-91283005D01*
X122464985Y-91323550D01*
X122464987Y-91323551D01*
X122464988Y-91323551D01*
X122608911Y-91323551D01*
X122608911Y-91323550D01*
X122727344Y-91288776D01*
X122746999Y-91283005D01*
X122746999Y-91283004D01*
X122747002Y-91283004D01*
X122868077Y-91205194D01*
X122962326Y-91096424D01*
X123022114Y-90965508D01*
X123042596Y-90823051D01*
X123022114Y-90680594D01*
X122962326Y-90549678D01*
X122868077Y-90440908D01*
X122761124Y-90372174D01*
X122755393Y-90368259D01*
X122752803Y-90366382D01*
X122425935Y-90175270D01*
X122400841Y-90155905D01*
X117940168Y-85695232D01*
X117906683Y-85633909D01*
X117911667Y-85564217D01*
X117953539Y-85508284D01*
X118019003Y-85483867D01*
X118027849Y-85483551D01*
X118520050Y-85483551D01*
X118587089Y-85503236D01*
X118607731Y-85519870D01*
X123774801Y-90686940D01*
X123794166Y-90712034D01*
X123985276Y-91038900D01*
X123986116Y-91039917D01*
X123987233Y-91041702D01*
X123988139Y-91042998D01*
X123988073Y-91043043D01*
X124003301Y-91067366D01*
X124016572Y-91096424D01*
X124110821Y-91205194D01*
X124231896Y-91283004D01*
X124231899Y-91283005D01*
X124231898Y-91283005D01*
X124369985Y-91323550D01*
X124369987Y-91323551D01*
X124369988Y-91323551D01*
X124513911Y-91323551D01*
X124513911Y-91323550D01*
X124632344Y-91288776D01*
X124651999Y-91283005D01*
X124651999Y-91283004D01*
X124652002Y-91283004D01*
X124773077Y-91205194D01*
X124867326Y-91096424D01*
X124927114Y-90965508D01*
X124947596Y-90823051D01*
X124927114Y-90680594D01*
X124867326Y-90549678D01*
X124773077Y-90440908D01*
X124666124Y-90372174D01*
X124660393Y-90368259D01*
X124657803Y-90366382D01*
X124330933Y-90175269D01*
X124305839Y-90155904D01*
X119029098Y-84879162D01*
X119012971Y-84859303D01*
X119007035Y-84850218D01*
X119007034Y-84850217D01*
X119007033Y-84850215D01*
X118982058Y-84830776D01*
X118970540Y-84820604D01*
X118970464Y-84820528D01*
X118953544Y-84808449D01*
X118949428Y-84805380D01*
X118908138Y-84773241D01*
X118901223Y-84769499D01*
X118894146Y-84766039D01*
X118843992Y-84751107D01*
X118839116Y-84749545D01*
X118789611Y-84732551D01*
X118781872Y-84731259D01*
X118774034Y-84730282D01*
X118723150Y-84732387D01*
X118721755Y-84732445D01*
X118716633Y-84732551D01*
X116119931Y-84732551D01*
X116088494Y-84728500D01*
X116078604Y-84725908D01*
X115722229Y-84632506D01*
X115722216Y-84632504D01*
X115714295Y-84631749D01*
X115691130Y-84627287D01*
X115623910Y-84607551D01*
X115479988Y-84607551D01*
X115479985Y-84607551D01*
X115341898Y-84648096D01*
X115220822Y-84725907D01*
X115126572Y-84834677D01*
X115126571Y-84834679D01*
X115066783Y-84965594D01*
X115046302Y-85108051D01*
X115063246Y-85225905D01*
X115053302Y-85295063D01*
X115007547Y-85347867D01*
X114940508Y-85367551D01*
X113579931Y-85367551D01*
X113548494Y-85363500D01*
X113538604Y-85360908D01*
X113182229Y-85267506D01*
X113182216Y-85267504D01*
X113174295Y-85266749D01*
X113151130Y-85262287D01*
X113083910Y-85242551D01*
X112939988Y-85242551D01*
X112939985Y-85242551D01*
X112801898Y-85283096D01*
X112680822Y-85360907D01*
X112586572Y-85469677D01*
X112586571Y-85469679D01*
X112526783Y-85600594D01*
X112506302Y-85743051D01*
X112526783Y-85885507D01*
X112536973Y-85907819D01*
X112586572Y-86016424D01*
X112680821Y-86125194D01*
X112801896Y-86203004D01*
X112801899Y-86203005D01*
X112801898Y-86203005D01*
X112939985Y-86243550D01*
X112939987Y-86243551D01*
X112939988Y-86243551D01*
X113083912Y-86243551D01*
X113083912Y-86243550D01*
X113151987Y-86223560D01*
X113179505Y-86218759D01*
X113182228Y-86218596D01*
X113548496Y-86122601D01*
X113579933Y-86118551D01*
X114940508Y-86118551D01*
X115007547Y-86138236D01*
X115053302Y-86191040D01*
X115063246Y-86260197D01*
X115055937Y-86311035D01*
X115046302Y-86378051D01*
X115048139Y-86390829D01*
X115066783Y-86520507D01*
X115067806Y-86522746D01*
X115074960Y-86542819D01*
X115076403Y-86548327D01*
X115076404Y-86548331D01*
X115146099Y-86814251D01*
X115172398Y-86914595D01*
X115176449Y-86946032D01*
X115176449Y-89501247D01*
X115173811Y-89526685D01*
X115171582Y-89537319D01*
X115171582Y-89537321D01*
X115175497Y-89568726D01*
X115176449Y-89584064D01*
X115176449Y-89584167D01*
X115179867Y-89604654D01*
X115180606Y-89609720D01*
X115187083Y-89661678D01*
X115189322Y-89669198D01*
X115191884Y-89676662D01*
X115216776Y-89722659D01*
X115219120Y-89727212D01*
X115242121Y-89774259D01*
X115246691Y-89780660D01*
X115251530Y-89786877D01*
X115290057Y-89822344D01*
X115293729Y-89825868D01*
X116350130Y-90882269D01*
X116383615Y-90943592D01*
X116386449Y-90969950D01*
X116386449Y-94008551D01*
X116366764Y-94075590D01*
X116313960Y-94121345D01*
X116262449Y-94132551D01*
X116114985Y-94132551D01*
X115976898Y-94173096D01*
X115855821Y-94250908D01*
X115855819Y-94250909D01*
X115761574Y-94359675D01*
X115761569Y-94359682D01*
X115748344Y-94388640D01*
X115733259Y-94411825D01*
X115733858Y-94412259D01*
X115730285Y-94417188D01*
X115730282Y-94417192D01*
X115730281Y-94417194D01*
X115587223Y-94661872D01*
X115539165Y-94744068D01*
X115519800Y-94769161D01*
X114992089Y-95296872D01*
X114930766Y-95330357D01*
X114861074Y-95325373D01*
X114805141Y-95283501D01*
X114781670Y-95226837D01*
X114776257Y-95189190D01*
X114767114Y-95125594D01*
X114707326Y-94994678D01*
X114613077Y-94885908D01*
X114492002Y-94808098D01*
X114492001Y-94808097D01*
X114492000Y-94808097D01*
X114452202Y-94796411D01*
X114393424Y-94758636D01*
X114364400Y-94695080D01*
X114374344Y-94625921D01*
X114399455Y-94589755D01*
X114928035Y-94061174D01*
X114946607Y-94045900D01*
X114957977Y-94038268D01*
X115163587Y-93831772D01*
X115167466Y-93828044D01*
X115174781Y-93821310D01*
X115174785Y-93821308D01*
X115174787Y-93821304D01*
X115176093Y-93820103D01*
X115182896Y-93812381D01*
X115266574Y-93728345D01*
X115275307Y-93715255D01*
X115284734Y-93702886D01*
X115342326Y-93636424D01*
X115402114Y-93505508D01*
X115422596Y-93363051D01*
X115402114Y-93220594D01*
X115342326Y-93089678D01*
X115248077Y-92980908D01*
X115127002Y-92903098D01*
X115127000Y-92903097D01*
X115126998Y-92903096D01*
X115126999Y-92903096D01*
X114988912Y-92862551D01*
X114988910Y-92862551D01*
X114844988Y-92862551D01*
X114844985Y-92862551D01*
X114706898Y-92903096D01*
X114585822Y-92980907D01*
X114491572Y-93089677D01*
X114491571Y-93089679D01*
X114431784Y-93220592D01*
X114431781Y-93220602D01*
X114427275Y-93251943D01*
X114425567Y-93261273D01*
X114364480Y-93535301D01*
X114331132Y-93596002D01*
X114226914Y-93700220D01*
X114165591Y-93733705D01*
X114095899Y-93728721D01*
X114045520Y-93693742D01*
X113995858Y-93636429D01*
X113978077Y-93615908D01*
X113857002Y-93538098D01*
X113857000Y-93538097D01*
X113856998Y-93538096D01*
X113856999Y-93538096D01*
X113718912Y-93497551D01*
X113718910Y-93497551D01*
X113574988Y-93497551D01*
X113574985Y-93497551D01*
X113436898Y-93538096D01*
X113315821Y-93615908D01*
X113315819Y-93615909D01*
X113221574Y-93724675D01*
X113221569Y-93724682D01*
X113208344Y-93753640D01*
X113193259Y-93776825D01*
X113193858Y-93777259D01*
X113190285Y-93782188D01*
X113190282Y-93782192D01*
X113190281Y-93782194D01*
X113068520Y-93990448D01*
X112999165Y-94109068D01*
X112979800Y-94134161D01*
X112452089Y-94661872D01*
X112390766Y-94695357D01*
X112321074Y-94690373D01*
X112265141Y-94648501D01*
X112241670Y-94591837D01*
X112241370Y-94589753D01*
X112227114Y-94490594D01*
X112167326Y-94359678D01*
X112073077Y-94250908D01*
X111952002Y-94173098D01*
X111952000Y-94173097D01*
X111951998Y-94173096D01*
X111951999Y-94173096D01*
X111813912Y-94132551D01*
X111813910Y-94132551D01*
X111802847Y-94132551D01*
X111735808Y-94112866D01*
X111690053Y-94060062D01*
X111680109Y-93990904D01*
X111709134Y-93927348D01*
X111715166Y-93920870D01*
X112968689Y-92667347D01*
X114510838Y-91125197D01*
X114530695Y-91109073D01*
X114539785Y-91103135D01*
X114559220Y-91078163D01*
X114569405Y-91066632D01*
X114569405Y-91066631D01*
X114569468Y-91066569D01*
X114581579Y-91049604D01*
X114584576Y-91045585D01*
X114616758Y-91004240D01*
X114616760Y-91004232D01*
X114620496Y-90997329D01*
X114623955Y-90990254D01*
X114623959Y-90990250D01*
X114638891Y-90940092D01*
X114640435Y-90935269D01*
X114657449Y-90885711D01*
X114657449Y-90885709D01*
X114657450Y-90885707D01*
X114658740Y-90877975D01*
X114659717Y-90870137D01*
X114657555Y-90817858D01*
X114657449Y-90812734D01*
X114657449Y-87581035D01*
X114661500Y-87549598D01*
X114673033Y-87505594D01*
X114757494Y-87183330D01*
X114757494Y-87183328D01*
X114758763Y-87178487D01*
X114759549Y-87178693D01*
X114766004Y-87157939D01*
X114766394Y-87157083D01*
X114767114Y-87155508D01*
X114787596Y-87013051D01*
X114767114Y-86870594D01*
X114707326Y-86739678D01*
X114613077Y-86630908D01*
X114492002Y-86553098D01*
X114492000Y-86553097D01*
X114491998Y-86553096D01*
X114491999Y-86553096D01*
X114353912Y-86512551D01*
X114353910Y-86512551D01*
X114209988Y-86512551D01*
X114209985Y-86512551D01*
X114071898Y-86553096D01*
X113950822Y-86630907D01*
X113856572Y-86739677D01*
X113856571Y-86739679D01*
X113796783Y-86870594D01*
X113776302Y-87013051D01*
X113796783Y-87155507D01*
X113797806Y-87157746D01*
X113804960Y-87177819D01*
X113806403Y-87183327D01*
X113806404Y-87183331D01*
X113882320Y-87472987D01*
X113902398Y-87549595D01*
X113906449Y-87581032D01*
X113906449Y-90616150D01*
X113886764Y-90683189D01*
X113870130Y-90703831D01*
X106798056Y-97775904D01*
X106772962Y-97795269D01*
X106446093Y-97986382D01*
X106441993Y-97989246D01*
X106441908Y-97989125D01*
X106437450Y-97992381D01*
X106330822Y-98060907D01*
X106330815Y-98060913D01*
X106236574Y-98169673D01*
X106236571Y-98169679D01*
X106176783Y-98300594D01*
X106156302Y-98443051D01*
X106176783Y-98585507D01*
X106236571Y-98716422D01*
X106236572Y-98716424D01*
X106330821Y-98825194D01*
X106451896Y-98903004D01*
X106451899Y-98903005D01*
X106451898Y-98903005D01*
X106589985Y-98943550D01*
X106589987Y-98943551D01*
X106601048Y-98943551D01*
X106668087Y-98963236D01*
X106713842Y-99016040D01*
X106723786Y-99085198D01*
X106694761Y-99148754D01*
X106688741Y-99155219D01*
X106629802Y-99214159D01*
X106571777Y-99272184D01*
X106510454Y-99305668D01*
X106452659Y-99304451D01*
X106197229Y-99237506D01*
X106197216Y-99237504D01*
X106189295Y-99236749D01*
X106166130Y-99232287D01*
X106098910Y-99212551D01*
X105954988Y-99212551D01*
X105954985Y-99212551D01*
X105816898Y-99253096D01*
X105695822Y-99330907D01*
X105601572Y-99439677D01*
X105601571Y-99439679D01*
X105541783Y-99570594D01*
X105521302Y-99713051D01*
X105541783Y-99855507D01*
X105595477Y-99973079D01*
X105601572Y-99986424D01*
X105695821Y-100095194D01*
X105816896Y-100173004D01*
X105816899Y-100173005D01*
X105816898Y-100173005D01*
X105916479Y-100202244D01*
X105953111Y-100213000D01*
X105954985Y-100213550D01*
X105954987Y-100213551D01*
X105954988Y-100213551D01*
X106098912Y-100213551D01*
X106098912Y-100213550D01*
X106166987Y-100193560D01*
X106194505Y-100188759D01*
X106197228Y-100188596D01*
X106563496Y-100092601D01*
X106594933Y-100088551D01*
X106610145Y-100088551D01*
X106635590Y-100091190D01*
X106638673Y-100091836D01*
X106646217Y-100093418D01*
X106677625Y-100089502D01*
X106692963Y-100088551D01*
X106693061Y-100088551D01*
X106693063Y-100088551D01*
X106693066Y-100088550D01*
X106693070Y-100088550D01*
X106698429Y-100087655D01*
X106710180Y-100085694D01*
X106779545Y-100094070D01*
X106833370Y-100138619D01*
X106854566Y-100205196D01*
X106836403Y-100272664D01*
X106818279Y-100295682D01*
X106542730Y-100571232D01*
X106481407Y-100604717D01*
X106455049Y-100607551D01*
X102206363Y-100607551D01*
X102156524Y-100597094D01*
X101284160Y-100214175D01*
X101281711Y-100213115D01*
X101281277Y-100212931D01*
X101279377Y-100212130D01*
X101279373Y-100212128D01*
X101279371Y-100212128D01*
X101279366Y-100212127D01*
X101279359Y-100212125D01*
X101271459Y-100210540D01*
X101245418Y-100202244D01*
X101206304Y-100184830D01*
X101081005Y-100158197D01*
X101034680Y-100148351D01*
X100859218Y-100148351D01*
X100829133Y-100154745D01*
X100687592Y-100184830D01*
X100687587Y-100184832D01*
X100527300Y-100256197D01*
X100527295Y-100256200D01*
X100384834Y-100359705D01*
X100319028Y-100383185D01*
X100250974Y-100367360D01*
X100239064Y-100359705D01*
X100096602Y-100256200D01*
X100096597Y-100256197D01*
X99936310Y-100184832D01*
X99936305Y-100184830D01*
X99801159Y-100156104D01*
X99764680Y-100148351D01*
X99589218Y-100148351D01*
X99559133Y-100154745D01*
X99417592Y-100184830D01*
X99417587Y-100184832D01*
X99257300Y-100256197D01*
X99257295Y-100256200D01*
X99115351Y-100359328D01*
X99098638Y-100377890D01*
X99076457Y-100397290D01*
X99073076Y-100399600D01*
X99073067Y-100399607D01*
X98401959Y-101084780D01*
X98395094Y-101095229D01*
X98379144Y-101114817D01*
X97908057Y-101585903D01*
X97882964Y-101605268D01*
X97556088Y-101796385D01*
X97551993Y-101799246D01*
X97551908Y-101799125D01*
X97547450Y-101802381D01*
X97440822Y-101870907D01*
X97440815Y-101870913D01*
X97346574Y-101979673D01*
X97346571Y-101979679D01*
X97286783Y-102110594D01*
X97266302Y-102253051D01*
X96404965Y-102253051D01*
X99228147Y-99429870D01*
X99289470Y-99396385D01*
X99315828Y-99393551D01*
X103495145Y-99393551D01*
X103520590Y-99396190D01*
X103523673Y-99396836D01*
X103531217Y-99398418D01*
X103562625Y-99394502D01*
X103577963Y-99393551D01*
X103578061Y-99393551D01*
X103578063Y-99393551D01*
X103598592Y-99390124D01*
X103603622Y-99389392D01*
X103655575Y-99382917D01*
X103655577Y-99382915D01*
X103663090Y-99380679D01*
X103670555Y-99378117D01*
X103670555Y-99378116D01*
X103670559Y-99378116D01*
X103716585Y-99353208D01*
X103721142Y-99350863D01*
X103736051Y-99343573D01*
X103768160Y-99327877D01*
X103768162Y-99327874D01*
X103774543Y-99323319D01*
X103780769Y-99318472D01*
X103780775Y-99318470D01*
X103816242Y-99279941D01*
X103819744Y-99276291D01*
X113240838Y-89855197D01*
X113260695Y-89839073D01*
X113269785Y-89833135D01*
X113289220Y-89808163D01*
X113299405Y-89796632D01*
X113299405Y-89796631D01*
X113299468Y-89796569D01*
X113311579Y-89779604D01*
X113314576Y-89775585D01*
X113346758Y-89734240D01*
X113346760Y-89734232D01*
X113350496Y-89727329D01*
X113353955Y-89720254D01*
X113353959Y-89720250D01*
X113368891Y-89670092D01*
X113370435Y-89665269D01*
X113387449Y-89615711D01*
X113387449Y-89615709D01*
X113387450Y-89615707D01*
X113388740Y-89607975D01*
X113389717Y-89600137D01*
X113387555Y-89547858D01*
X113387449Y-89542734D01*
X113387449Y-88216035D01*
X113391500Y-88184598D01*
X113403033Y-88140594D01*
X113487494Y-87818330D01*
X113487494Y-87818328D01*
X113488763Y-87813487D01*
X113489549Y-87813693D01*
X113496004Y-87792939D01*
X113496394Y-87792083D01*
X113497114Y-87790508D01*
X113517596Y-87648051D01*
X113497114Y-87505594D01*
X113437326Y-87374678D01*
X113343077Y-87265908D01*
X113222002Y-87188098D01*
X113222000Y-87188097D01*
X113221998Y-87188096D01*
X113221999Y-87188096D01*
X113083912Y-87147551D01*
X113083910Y-87147551D01*
X112939988Y-87147551D01*
X112939985Y-87147551D01*
X112801898Y-87188096D01*
X112680822Y-87265907D01*
X112586572Y-87374677D01*
X112586571Y-87374679D01*
X112526783Y-87505594D01*
X112506302Y-87648051D01*
X112526783Y-87790507D01*
X112527806Y-87792746D01*
X112534960Y-87812819D01*
X112536403Y-87818327D01*
X112536404Y-87818331D01*
X112610269Y-88100161D01*
X112632398Y-88184595D01*
X112636449Y-88216032D01*
X112636449Y-89346151D01*
X112616764Y-89413190D01*
X112600130Y-89433832D01*
X103427730Y-98606232D01*
X103366407Y-98639717D01*
X103340049Y-98642551D01*
X99160733Y-98642551D01*
X99135288Y-98639912D01*
X99124661Y-98637684D01*
X99093253Y-98641599D01*
X99077915Y-98642551D01*
X99077815Y-98642551D01*
X99057329Y-98645969D01*
X99052267Y-98646707D01*
X99042628Y-98647908D01*
X99000299Y-98653185D01*
X98992786Y-98655422D01*
X98985317Y-98657986D01*
X98965462Y-98668731D01*
X98897134Y-98683324D01*
X98831762Y-98658658D01*
X98790104Y-98602566D01*
X98782449Y-98559674D01*
X98782449Y-96538051D01*
X102981302Y-96538051D01*
X103001783Y-96680507D01*
X103053327Y-96793371D01*
X103061572Y-96811424D01*
X103155821Y-96920194D01*
X103276896Y-96998004D01*
X103276899Y-96998005D01*
X103276898Y-96998005D01*
X103414985Y-97038550D01*
X103414987Y-97038551D01*
X103414988Y-97038551D01*
X103558911Y-97038551D01*
X103558911Y-97038550D01*
X103682027Y-97002401D01*
X103696999Y-96998005D01*
X103696999Y-96998004D01*
X103697002Y-96998004D01*
X103818077Y-96920194D01*
X103912326Y-96811424D01*
X103972114Y-96680508D01*
X103992596Y-96538051D01*
X103972114Y-96395594D01*
X103912326Y-96264678D01*
X103818077Y-96155908D01*
X103697002Y-96078098D01*
X103697000Y-96078097D01*
X103696998Y-96078096D01*
X103696999Y-96078096D01*
X103558912Y-96037551D01*
X103558910Y-96037551D01*
X103414988Y-96037551D01*
X103414985Y-96037551D01*
X103276898Y-96078096D01*
X103155822Y-96155907D01*
X103061572Y-96264677D01*
X103061571Y-96264679D01*
X103001783Y-96395594D01*
X102981302Y-96538051D01*
X98782449Y-96538051D01*
X98782449Y-94211930D01*
X98802134Y-94144891D01*
X98818768Y-94124249D01*
X99518147Y-93424870D01*
X99579470Y-93391385D01*
X99605828Y-93388551D01*
X103335298Y-93388551D01*
X103360743Y-93391190D01*
X103363826Y-93391836D01*
X103371370Y-93393418D01*
X103402778Y-93389502D01*
X103418116Y-93388551D01*
X103418214Y-93388551D01*
X103418216Y-93388551D01*
X103438745Y-93385124D01*
X103443775Y-93384392D01*
X103495728Y-93377917D01*
X103495730Y-93377915D01*
X103503243Y-93375679D01*
X103510708Y-93373117D01*
X103510708Y-93373116D01*
X103510712Y-93373116D01*
X103556738Y-93348208D01*
X103561295Y-93345863D01*
X103576204Y-93338573D01*
X103608313Y-93322877D01*
X103608315Y-93322874D01*
X103614696Y-93318319D01*
X103620922Y-93313472D01*
X103620928Y-93313470D01*
X103656395Y-93274941D01*
X103659897Y-93271291D01*
X105696320Y-91234870D01*
X105757643Y-91201385D01*
X105784001Y-91198551D01*
X109331110Y-91198551D01*
X109356555Y-91201190D01*
X109359638Y-91201836D01*
X109367182Y-91203418D01*
X109398590Y-91199502D01*
X109413928Y-91198551D01*
X109414026Y-91198551D01*
X109414028Y-91198551D01*
X109434557Y-91195124D01*
X109439587Y-91194392D01*
X109491540Y-91187917D01*
X109491542Y-91187915D01*
X109499055Y-91185679D01*
X109506520Y-91183117D01*
X109506520Y-91183116D01*
X109506524Y-91183116D01*
X109545184Y-91162194D01*
X109552550Y-91158208D01*
X109557107Y-91155863D01*
X109572016Y-91148573D01*
X109604125Y-91132877D01*
X109604127Y-91132874D01*
X109610508Y-91128319D01*
X109616734Y-91123473D01*
X109616740Y-91123470D01*
X109652230Y-91084916D01*
X109655708Y-91081292D01*
X111696330Y-89040672D01*
X111721416Y-89021313D01*
X112048286Y-88830201D01*
X112048295Y-88830193D01*
X112052388Y-88827335D01*
X112052475Y-88827460D01*
X112056915Y-88824212D01*
X112163560Y-88755677D01*
X112257809Y-88646907D01*
X112317597Y-88515991D01*
X112338079Y-88373534D01*
X112317597Y-88231077D01*
X112257809Y-88100161D01*
X112163560Y-87991391D01*
X112042485Y-87913581D01*
X112042483Y-87913580D01*
X112042481Y-87913579D01*
X112042482Y-87913579D01*
X111904395Y-87873034D01*
X111904393Y-87873034D01*
X111760471Y-87873034D01*
X111760468Y-87873034D01*
X111641383Y-87908000D01*
X111571513Y-87908000D01*
X111512736Y-87870225D01*
X111483711Y-87806669D01*
X111482449Y-87789023D01*
X111482449Y-86311035D01*
X111486500Y-86279598D01*
X111491585Y-86260197D01*
X111582494Y-85913330D01*
X111582494Y-85913328D01*
X111583763Y-85908487D01*
X111584549Y-85908693D01*
X111591004Y-85887939D01*
X111591394Y-85887083D01*
X111592114Y-85885508D01*
X111612596Y-85743051D01*
X111592114Y-85600594D01*
X111532326Y-85469678D01*
X111438077Y-85360908D01*
X111317002Y-85283098D01*
X111317000Y-85283097D01*
X111316998Y-85283096D01*
X111316999Y-85283096D01*
X111178912Y-85242551D01*
X111178910Y-85242551D01*
X111034988Y-85242551D01*
X111034985Y-85242551D01*
X110896898Y-85283096D01*
X110775822Y-85360907D01*
X110681572Y-85469677D01*
X110681571Y-85469679D01*
X110621783Y-85600594D01*
X110601302Y-85743051D01*
X110621783Y-85885507D01*
X110622806Y-85887746D01*
X110629960Y-85907819D01*
X110631403Y-85913327D01*
X110631404Y-85913331D01*
X110711674Y-86219601D01*
X110727398Y-86279595D01*
X110731449Y-86311032D01*
X110731449Y-88255720D01*
X110711764Y-88322759D01*
X110695130Y-88343401D01*
X110424130Y-88614401D01*
X110362807Y-88647886D01*
X110293115Y-88642902D01*
X110237182Y-88601030D01*
X110212765Y-88535566D01*
X110212449Y-88526720D01*
X110212449Y-86311035D01*
X110216500Y-86279598D01*
X110221585Y-86260197D01*
X110312494Y-85913330D01*
X110312494Y-85913328D01*
X110313763Y-85908487D01*
X110314549Y-85908693D01*
X110321004Y-85887939D01*
X110321394Y-85887083D01*
X110322114Y-85885508D01*
X110342596Y-85743051D01*
X110322114Y-85600594D01*
X110262326Y-85469678D01*
X110168077Y-85360908D01*
X110047002Y-85283098D01*
X110047000Y-85283097D01*
X110046998Y-85283096D01*
X110046999Y-85283096D01*
X109908912Y-85242551D01*
X109908910Y-85242551D01*
X109764988Y-85242551D01*
X109764985Y-85242551D01*
X109626898Y-85283096D01*
X109505822Y-85360907D01*
X109411572Y-85469677D01*
X109411571Y-85469679D01*
X109351783Y-85600594D01*
X109331302Y-85743051D01*
X109351783Y-85885507D01*
X109352806Y-85887746D01*
X109359960Y-85907819D01*
X109361403Y-85913327D01*
X109361404Y-85913331D01*
X109441674Y-86219601D01*
X109457398Y-86279595D01*
X109461449Y-86311032D01*
X109461449Y-88306972D01*
X109441764Y-88374011D01*
X109388960Y-88419766D01*
X109319802Y-88429710D01*
X109302516Y-88425950D01*
X109273910Y-88417551D01*
X109196362Y-88417551D01*
X109129323Y-88397866D01*
X109083568Y-88345062D01*
X109075919Y-88291920D01*
X109072596Y-88291920D01*
X109072596Y-88283051D01*
X109052114Y-88140594D01*
X108992326Y-88009679D01*
X108992325Y-88009677D01*
X108976479Y-87991390D01*
X108898077Y-87900908D01*
X108777002Y-87823098D01*
X108777000Y-87823097D01*
X108776998Y-87823096D01*
X108776999Y-87823096D01*
X108638912Y-87782551D01*
X108638910Y-87782551D01*
X108494988Y-87782551D01*
X108426901Y-87802541D01*
X108399422Y-87807339D01*
X108396669Y-87807504D01*
X108396667Y-87807504D01*
X108090049Y-87887866D01*
X108040288Y-87900908D01*
X108030398Y-87903500D01*
X107998961Y-87907551D01*
X107232848Y-87907551D01*
X107165809Y-87887866D01*
X107120054Y-87835062D01*
X107110110Y-87765904D01*
X107139135Y-87702348D01*
X107145167Y-87695870D01*
X107466360Y-87374677D01*
X108430845Y-86410190D01*
X108455931Y-86390831D01*
X108782803Y-86199718D01*
X108782812Y-86199710D01*
X108786905Y-86196852D01*
X108786992Y-86196977D01*
X108791432Y-86193729D01*
X108898077Y-86125194D01*
X108992326Y-86016424D01*
X109052114Y-85885508D01*
X109072596Y-85743051D01*
X109052114Y-85600594D01*
X108992326Y-85469678D01*
X108898077Y-85360908D01*
X108777002Y-85283098D01*
X108777000Y-85283097D01*
X108776998Y-85283096D01*
X108776999Y-85283096D01*
X108638912Y-85242551D01*
X108638910Y-85242551D01*
X108494988Y-85242551D01*
X108494985Y-85242551D01*
X108356898Y-85283096D01*
X108235821Y-85360908D01*
X108235819Y-85360909D01*
X108141574Y-85469675D01*
X108141569Y-85469682D01*
X108128344Y-85498640D01*
X108113259Y-85521825D01*
X108113858Y-85522259D01*
X108110285Y-85527188D01*
X108110282Y-85527192D01*
X108110281Y-85527194D01*
X107937358Y-85822951D01*
X107919166Y-85854066D01*
X107899801Y-85879159D01*
X106357730Y-87421232D01*
X106296407Y-87454717D01*
X106270049Y-87457551D01*
X105436925Y-87457551D01*
X105411480Y-87454912D01*
X105410550Y-87454717D01*
X105400854Y-87452684D01*
X105400853Y-87452684D01*
X105369445Y-87456599D01*
X105354107Y-87457551D01*
X105354008Y-87457551D01*
X105333522Y-87460969D01*
X105328460Y-87461707D01*
X105318821Y-87462908D01*
X105276492Y-87468185D01*
X105268979Y-87470422D01*
X105261508Y-87472987D01*
X105215493Y-87497888D01*
X105210942Y-87500231D01*
X105163914Y-87523222D01*
X105157497Y-87527804D01*
X105151296Y-87532630D01*
X105115839Y-87571146D01*
X105112293Y-87574841D01*
X102335903Y-90351232D01*
X102274580Y-90384717D01*
X102248222Y-90387551D01*
X98518753Y-90387551D01*
X98493306Y-90384912D01*
X98482680Y-90382684D01*
X98482679Y-90382684D01*
X98451274Y-90386599D01*
X98435935Y-90387551D01*
X98435833Y-90387551D01*
X98415316Y-90390974D01*
X98410271Y-90391709D01*
X98390145Y-90394218D01*
X98358317Y-90398186D01*
X98350793Y-90400426D01*
X98343337Y-90402986D01*
X98297306Y-90427895D01*
X98292756Y-90430237D01*
X98245740Y-90453222D01*
X98239347Y-90457786D01*
X98233122Y-90462631D01*
X98197678Y-90501133D01*
X98194132Y-90504828D01*
X95928057Y-92770903D01*
X95908203Y-92787027D01*
X95899114Y-92792965D01*
X95899113Y-92792966D01*
X95879669Y-92817947D01*
X95869523Y-92829439D01*
X95869432Y-92829530D01*
X95869423Y-92829540D01*
X95857351Y-92846448D01*
X95854290Y-92850554D01*
X95822141Y-92891859D01*
X95818396Y-92898780D01*
X95814937Y-92905855D01*
X95800006Y-92956006D01*
X95798444Y-92960882D01*
X95781449Y-93010389D01*
X95780155Y-93018143D01*
X95779180Y-93025962D01*
X95781343Y-93078242D01*
X95781449Y-93083367D01*
X95781449Y-97944755D01*
X95761764Y-98011794D01*
X95745130Y-98032436D01*
X94476334Y-99301232D01*
X94415011Y-99334717D01*
X94388653Y-99337551D01*
X69129931Y-99337551D01*
X69098494Y-99333500D01*
X69088604Y-99330908D01*
X68732229Y-99237506D01*
X68732216Y-99237504D01*
X68724295Y-99236749D01*
X68701130Y-99232287D01*
X68633910Y-99212551D01*
X68489988Y-99212551D01*
X68489985Y-99212551D01*
X68351898Y-99253096D01*
X68230822Y-99330907D01*
X68136572Y-99439677D01*
X68136571Y-99439679D01*
X68076783Y-99570594D01*
X68056302Y-99713051D01*
X68076783Y-99855507D01*
X68130477Y-99973079D01*
X68136572Y-99986424D01*
X68230821Y-100095194D01*
X68351896Y-100173004D01*
X68351899Y-100173005D01*
X68351898Y-100173005D01*
X68451479Y-100202244D01*
X68488111Y-100213000D01*
X68489985Y-100213550D01*
X68489987Y-100213551D01*
X68489988Y-100213551D01*
X68633912Y-100213551D01*
X68633912Y-100213550D01*
X68701987Y-100193560D01*
X68729505Y-100188759D01*
X68732228Y-100188596D01*
X69098496Y-100092601D01*
X69129933Y-100088551D01*
X69220508Y-100088551D01*
X69287547Y-100108236D01*
X69333302Y-100161040D01*
X69343246Y-100230197D01*
X69326302Y-100348050D01*
X69346783Y-100490507D01*
X69383650Y-100571232D01*
X69406572Y-100621424D01*
X69500821Y-100730194D01*
X69621896Y-100808004D01*
X69621899Y-100808005D01*
X69621898Y-100808005D01*
X69759985Y-100848550D01*
X69759987Y-100848551D01*
X69759988Y-100848551D01*
X69903912Y-100848551D01*
X69903912Y-100848550D01*
X69971987Y-100828560D01*
X69999505Y-100823759D01*
X70002228Y-100823596D01*
X70368496Y-100727601D01*
X70399933Y-100723551D01*
X70490508Y-100723551D01*
X70557547Y-100743236D01*
X70603302Y-100796040D01*
X70613246Y-100865197D01*
X70596302Y-100983050D01*
X70596302Y-100983051D01*
X70613246Y-101100905D01*
X70603302Y-101170063D01*
X70557547Y-101222867D01*
X70490508Y-101242551D01*
X70399931Y-101242551D01*
X70368494Y-101238500D01*
X70358604Y-101235908D01*
X70002229Y-101142506D01*
X70002216Y-101142504D01*
X69994295Y-101141749D01*
X69971130Y-101137287D01*
X69903910Y-101117551D01*
X69759988Y-101117551D01*
X69759985Y-101117551D01*
X69621898Y-101158096D01*
X69500822Y-101235907D01*
X69406572Y-101344677D01*
X69406571Y-101344679D01*
X69346783Y-101475594D01*
X69326302Y-101618051D01*
X69343246Y-101735905D01*
X69333302Y-101805063D01*
X69287547Y-101857867D01*
X69220508Y-101877551D01*
X69129931Y-101877551D01*
X69098494Y-101873500D01*
X69088623Y-101870913D01*
X68732229Y-101777506D01*
X68732216Y-101777504D01*
X68724295Y-101776749D01*
X68701130Y-101772287D01*
X68633910Y-101752551D01*
X68489988Y-101752551D01*
X68489985Y-101752551D01*
X68351898Y-101793096D01*
X68230822Y-101870907D01*
X68136572Y-101979677D01*
X68136571Y-101979679D01*
X68076783Y-102110594D01*
X68056302Y-102253051D01*
X68073246Y-102370905D01*
X68063302Y-102440063D01*
X68017547Y-102492867D01*
X67950508Y-102512551D01*
X67859931Y-102512551D01*
X67828494Y-102508500D01*
X67818604Y-102505908D01*
X67462229Y-102412506D01*
X67462216Y-102412504D01*
X67454295Y-102411749D01*
X67431130Y-102407287D01*
X67363910Y-102387551D01*
X67219988Y-102387551D01*
X67219985Y-102387551D01*
X67081898Y-102428096D01*
X66960822Y-102505907D01*
X66866572Y-102614677D01*
X66866571Y-102614679D01*
X66806783Y-102745594D01*
X66786302Y-102888051D01*
X64751949Y-102888051D01*
X64751949Y-98276329D01*
X69925249Y-98276329D01*
X69939781Y-98349386D01*
X69939782Y-98349390D01*
X69939783Y-98349391D01*
X69995148Y-98432252D01*
X70078009Y-98487617D01*
X70078013Y-98487618D01*
X70151070Y-98502150D01*
X70151073Y-98502151D01*
X70151075Y-98502151D01*
X71900425Y-98502151D01*
X71900426Y-98502150D01*
X71973489Y-98487617D01*
X72056350Y-98432252D01*
X72111715Y-98349391D01*
X72126249Y-98276325D01*
X72126249Y-97401651D01*
X72460534Y-97401651D01*
X72479351Y-97604733D01*
X72535166Y-97800898D01*
X72535171Y-97800911D01*
X72626076Y-97983472D01*
X72748986Y-98146232D01*
X72899707Y-98283631D01*
X72899709Y-98283633D01*
X72955608Y-98318244D01*
X73073112Y-98390999D01*
X73263293Y-98464675D01*
X73463773Y-98502151D01*
X73463775Y-98502151D01*
X73667723Y-98502151D01*
X73667725Y-98502151D01*
X73868205Y-98464675D01*
X74058386Y-98390999D01*
X74231790Y-98283632D01*
X74239801Y-98276329D01*
X80085249Y-98276329D01*
X80099781Y-98349386D01*
X80099782Y-98349390D01*
X80099783Y-98349391D01*
X80155148Y-98432252D01*
X80238009Y-98487617D01*
X80238013Y-98487618D01*
X80311070Y-98502150D01*
X80311073Y-98502151D01*
X80311075Y-98502151D01*
X82060425Y-98502151D01*
X82060426Y-98502150D01*
X82133489Y-98487617D01*
X82216350Y-98432252D01*
X82271715Y-98349391D01*
X82286249Y-98276325D01*
X82286249Y-97401651D01*
X82620534Y-97401651D01*
X82639351Y-97604733D01*
X82695166Y-97800898D01*
X82695171Y-97800911D01*
X82786076Y-97983472D01*
X82908986Y-98146232D01*
X83059707Y-98283631D01*
X83059709Y-98283633D01*
X83115608Y-98318244D01*
X83233112Y-98390999D01*
X83423293Y-98464675D01*
X83623773Y-98502151D01*
X83623775Y-98502151D01*
X83827723Y-98502151D01*
X83827725Y-98502151D01*
X84028205Y-98464675D01*
X84218386Y-98390999D01*
X84391790Y-98283632D01*
X84399801Y-98276329D01*
X90245249Y-98276329D01*
X90259781Y-98349386D01*
X90259782Y-98349390D01*
X90259783Y-98349391D01*
X90315148Y-98432252D01*
X90398009Y-98487617D01*
X90398013Y-98487618D01*
X90471070Y-98502150D01*
X90471073Y-98502151D01*
X90471075Y-98502151D01*
X92220425Y-98502151D01*
X92220426Y-98502150D01*
X92293489Y-98487617D01*
X92376350Y-98432252D01*
X92431715Y-98349391D01*
X92446249Y-98276325D01*
X92446249Y-97401651D01*
X92780534Y-97401651D01*
X92799351Y-97604733D01*
X92855166Y-97800898D01*
X92855171Y-97800911D01*
X92946076Y-97983472D01*
X93068986Y-98146232D01*
X93219707Y-98283631D01*
X93219709Y-98283633D01*
X93275608Y-98318244D01*
X93393112Y-98390999D01*
X93583293Y-98464675D01*
X93783773Y-98502151D01*
X93783775Y-98502151D01*
X93987723Y-98502151D01*
X93987725Y-98502151D01*
X94188205Y-98464675D01*
X94378386Y-98390999D01*
X94551790Y-98283632D01*
X94702513Y-98146230D01*
X94825422Y-97983472D01*
X94916331Y-97800901D01*
X94972146Y-97604734D01*
X94990964Y-97401651D01*
X94972146Y-97198568D01*
X94916331Y-97002401D01*
X94914142Y-96998005D01*
X94865181Y-96899677D01*
X94825422Y-96819830D01*
X94702513Y-96657072D01*
X94702511Y-96657069D01*
X94551790Y-96519670D01*
X94551788Y-96519668D01*
X94378391Y-96412306D01*
X94378384Y-96412302D01*
X94238884Y-96358260D01*
X94188205Y-96338627D01*
X93987725Y-96301151D01*
X93783773Y-96301151D01*
X93583293Y-96338627D01*
X93583290Y-96338627D01*
X93583290Y-96338628D01*
X93393113Y-96412302D01*
X93393106Y-96412306D01*
X93219709Y-96519668D01*
X93219707Y-96519670D01*
X93068986Y-96657069D01*
X92946076Y-96819829D01*
X92855171Y-97002390D01*
X92855166Y-97002403D01*
X92799351Y-97198568D01*
X92780534Y-97401650D01*
X92780534Y-97401651D01*
X92446249Y-97401651D01*
X92446249Y-96526977D01*
X92446249Y-96526974D01*
X92446248Y-96526972D01*
X92431716Y-96453915D01*
X92431715Y-96453911D01*
X92376350Y-96371050D01*
X92293489Y-96315685D01*
X92293488Y-96315684D01*
X92293484Y-96315683D01*
X92220426Y-96301151D01*
X92220423Y-96301151D01*
X90471075Y-96301151D01*
X90471072Y-96301151D01*
X90398013Y-96315683D01*
X90398009Y-96315684D01*
X90315148Y-96371050D01*
X90259782Y-96453911D01*
X90259781Y-96453915D01*
X90245249Y-96526972D01*
X90245249Y-98276329D01*
X84399801Y-98276329D01*
X84542513Y-98146230D01*
X84665422Y-97983472D01*
X84756331Y-97800901D01*
X84812146Y-97604734D01*
X84830964Y-97401651D01*
X84812146Y-97198568D01*
X84756331Y-97002401D01*
X84754142Y-96998005D01*
X84705181Y-96899677D01*
X84665422Y-96819830D01*
X84542513Y-96657072D01*
X84542511Y-96657069D01*
X84391790Y-96519670D01*
X84391788Y-96519668D01*
X84218391Y-96412306D01*
X84218384Y-96412302D01*
X84078884Y-96358260D01*
X84028205Y-96338627D01*
X83827725Y-96301151D01*
X83623773Y-96301151D01*
X83423293Y-96338627D01*
X83423290Y-96338627D01*
X83423290Y-96338628D01*
X83233113Y-96412302D01*
X83233106Y-96412306D01*
X83059709Y-96519668D01*
X83059707Y-96519670D01*
X82908986Y-96657069D01*
X82786076Y-96819829D01*
X82695171Y-97002390D01*
X82695166Y-97002403D01*
X82639351Y-97198568D01*
X82620534Y-97401650D01*
X82620534Y-97401651D01*
X82286249Y-97401651D01*
X82286249Y-96526977D01*
X82286249Y-96526974D01*
X82286248Y-96526972D01*
X82271716Y-96453915D01*
X82271715Y-96453911D01*
X82216350Y-96371050D01*
X82133489Y-96315685D01*
X82133488Y-96315684D01*
X82133484Y-96315683D01*
X82060426Y-96301151D01*
X82060423Y-96301151D01*
X80311075Y-96301151D01*
X80311072Y-96301151D01*
X80238013Y-96315683D01*
X80238009Y-96315684D01*
X80155148Y-96371050D01*
X80099782Y-96453911D01*
X80099781Y-96453915D01*
X80085249Y-96526972D01*
X80085249Y-98276329D01*
X74239801Y-98276329D01*
X74382513Y-98146230D01*
X74505422Y-97983472D01*
X74596331Y-97800901D01*
X74652146Y-97604734D01*
X74670964Y-97401651D01*
X74652146Y-97198568D01*
X74596331Y-97002401D01*
X74594142Y-96998005D01*
X74545181Y-96899677D01*
X74505422Y-96819830D01*
X74382513Y-96657072D01*
X74382511Y-96657069D01*
X74231790Y-96519670D01*
X74231788Y-96519668D01*
X74058391Y-96412306D01*
X74058384Y-96412302D01*
X73918884Y-96358260D01*
X73868205Y-96338627D01*
X73667725Y-96301151D01*
X73463773Y-96301151D01*
X73263293Y-96338627D01*
X73263290Y-96338627D01*
X73263290Y-96338628D01*
X73073113Y-96412302D01*
X73073106Y-96412306D01*
X72899709Y-96519668D01*
X72899707Y-96519670D01*
X72748986Y-96657069D01*
X72626076Y-96819829D01*
X72535171Y-97002390D01*
X72535166Y-97002403D01*
X72479351Y-97198568D01*
X72460534Y-97401650D01*
X72460534Y-97401651D01*
X72126249Y-97401651D01*
X72126249Y-96526977D01*
X72126249Y-96526974D01*
X72126248Y-96526972D01*
X72111716Y-96453915D01*
X72111715Y-96453911D01*
X72056350Y-96371050D01*
X71973489Y-96315685D01*
X71973488Y-96315684D01*
X71973484Y-96315683D01*
X71900426Y-96301151D01*
X71900423Y-96301151D01*
X70151075Y-96301151D01*
X70151072Y-96301151D01*
X70078013Y-96315683D01*
X70078009Y-96315684D01*
X69995148Y-96371050D01*
X69939782Y-96453911D01*
X69939781Y-96453915D01*
X69925249Y-96526972D01*
X69925249Y-98276329D01*
X64751949Y-98276329D01*
X64751949Y-95408516D01*
X65013595Y-95898521D01*
X65027808Y-95966930D01*
X65024161Y-95988365D01*
X64951744Y-96264677D01*
X64938376Y-96315683D01*
X64928187Y-96354558D01*
X64927418Y-96354356D01*
X64920950Y-96375101D01*
X64919834Y-96377542D01*
X64899353Y-96520000D01*
X64919834Y-96662456D01*
X64942961Y-96713096D01*
X64979623Y-96793373D01*
X65073872Y-96902143D01*
X65194947Y-96979953D01*
X65194950Y-96979954D01*
X65194949Y-96979954D01*
X65333036Y-97020499D01*
X65333038Y-97020500D01*
X65333039Y-97020500D01*
X65476962Y-97020500D01*
X65476962Y-97020499D01*
X65615053Y-96979953D01*
X65736128Y-96902143D01*
X65830377Y-96793373D01*
X65890165Y-96662457D01*
X65910647Y-96520000D01*
X65890165Y-96377543D01*
X65889144Y-96375307D01*
X65881989Y-96355233D01*
X65880545Y-96349724D01*
X65880545Y-96349719D01*
X65785838Y-95988361D01*
X65787884Y-95918523D01*
X65796399Y-95898529D01*
X66066287Y-95393087D01*
X66074124Y-95380769D01*
X66075207Y-95378785D01*
X66075207Y-95378784D01*
X66075212Y-95378778D01*
X66075291Y-95378565D01*
X66082095Y-95363483D01*
X66082571Y-95362593D01*
X66098310Y-95316951D01*
X66099296Y-95314202D01*
X66124251Y-95247299D01*
X66126587Y-95225570D01*
X66130499Y-95189190D01*
X66130500Y-95189173D01*
X66130500Y-94595826D01*
X66130499Y-94595809D01*
X66124251Y-94537700D01*
X66079304Y-94417194D01*
X66075212Y-94406222D01*
X65991116Y-94293884D01*
X65933709Y-94250909D01*
X65889543Y-94217846D01*
X65847673Y-94161912D01*
X65842689Y-94092221D01*
X65876175Y-94030898D01*
X65924853Y-94000873D01*
X65956303Y-93990451D01*
X65956311Y-93990448D01*
X66103034Y-93899947D01*
X66103038Y-93899944D01*
X66224944Y-93778038D01*
X66224947Y-93778034D01*
X66315448Y-93631311D01*
X66315453Y-93631300D01*
X66369680Y-93467652D01*
X66379999Y-93366654D01*
X66380000Y-93366641D01*
X66380000Y-93317500D01*
X64430001Y-93317500D01*
X64430001Y-93366654D01*
X64440319Y-93467652D01*
X64494546Y-93631300D01*
X64494551Y-93631311D01*
X64585052Y-93778034D01*
X64585055Y-93778038D01*
X64706961Y-93899944D01*
X64706965Y-93899947D01*
X64853688Y-93990448D01*
X64853701Y-93990454D01*
X64885147Y-94000874D01*
X64942592Y-94040646D01*
X64969416Y-94105161D01*
X64957102Y-94173937D01*
X64920456Y-94217846D01*
X64818884Y-94293883D01*
X64734789Y-94406219D01*
X64685748Y-94537700D01*
X64679500Y-94595809D01*
X64679500Y-94633051D01*
X56367596Y-94633051D01*
X56347114Y-94490594D01*
X56287326Y-94359678D01*
X56193077Y-94250908D01*
X56072002Y-94173098D01*
X56072000Y-94173097D01*
X56071998Y-94173096D01*
X56071999Y-94173096D01*
X55933912Y-94132551D01*
X55933910Y-94132551D01*
X55789988Y-94132551D01*
X55789985Y-94132551D01*
X55651898Y-94173096D01*
X55530822Y-94250907D01*
X55436572Y-94359677D01*
X55436571Y-94359679D01*
X55376783Y-94490594D01*
X55356302Y-94633050D01*
X55356302Y-94633051D01*
X54591949Y-94633051D01*
X54591949Y-102342205D01*
X54413620Y-102037200D01*
X54412780Y-102036183D01*
X54411661Y-102034395D01*
X54410758Y-102033103D01*
X54410823Y-102033057D01*
X54395596Y-102008733D01*
X54382330Y-101979685D01*
X54382325Y-101979677D01*
X54372685Y-101968552D01*
X54288077Y-101870908D01*
X54167002Y-101793098D01*
X54167000Y-101793097D01*
X54166998Y-101793096D01*
X54166999Y-101793096D01*
X54028912Y-101752551D01*
X54028910Y-101752551D01*
X53884988Y-101752551D01*
X53884985Y-101752551D01*
X53746898Y-101793096D01*
X53625822Y-101870907D01*
X53531572Y-101979677D01*
X53531571Y-101979679D01*
X53471783Y-102110594D01*
X53451302Y-102253051D01*
X50782449Y-102253051D01*
X50782449Y-92817500D01*
X64430000Y-92817500D01*
X65155000Y-92817500D01*
X65155000Y-92080000D01*
X65655000Y-92080000D01*
X65655000Y-92817500D01*
X66379999Y-92817500D01*
X66379999Y-92768360D01*
X66379998Y-92768345D01*
X66369680Y-92667347D01*
X66315453Y-92503699D01*
X66315448Y-92503688D01*
X66224947Y-92356965D01*
X66224944Y-92356961D01*
X66103038Y-92235055D01*
X66103034Y-92235052D01*
X65956311Y-92144551D01*
X65956300Y-92144546D01*
X65792652Y-92090319D01*
X65691654Y-92080000D01*
X65655000Y-92080000D01*
X65155000Y-92080000D01*
X65118361Y-92080000D01*
X65118343Y-92080001D01*
X65017347Y-92090319D01*
X64853699Y-92144546D01*
X64853688Y-92144551D01*
X64706965Y-92235052D01*
X64706961Y-92235055D01*
X64585055Y-92356961D01*
X64585052Y-92356965D01*
X64494551Y-92503688D01*
X64494546Y-92503699D01*
X64440319Y-92667347D01*
X64430000Y-92768345D01*
X64430000Y-92817500D01*
X50782449Y-92817500D01*
X50782449Y-90315051D01*
X60148942Y-90315051D01*
X60153538Y-90373453D01*
X60156712Y-90413775D01*
X60157094Y-90423504D01*
X60157094Y-90444792D01*
X60160422Y-90465805D01*
X60161567Y-90475472D01*
X60163587Y-90501133D01*
X60169338Y-90574201D01*
X60169338Y-90574204D01*
X60169339Y-90574206D01*
X60192454Y-90670490D01*
X60194353Y-90680037D01*
X60197683Y-90701064D01*
X60204262Y-90721313D01*
X60206904Y-90730679D01*
X60230022Y-90826972D01*
X60267918Y-90918461D01*
X60271286Y-90927590D01*
X60277864Y-90947834D01*
X60287527Y-90966799D01*
X60291601Y-90975637D01*
X60329500Y-91067135D01*
X60381241Y-91151567D01*
X60385998Y-91160060D01*
X60395665Y-91179032D01*
X60408177Y-91196254D01*
X60413585Y-91204348D01*
X60465323Y-91288777D01*
X60465327Y-91288782D01*
X60529644Y-91364087D01*
X60535666Y-91371727D01*
X60544044Y-91383258D01*
X60548177Y-91388946D01*
X60563222Y-91403991D01*
X60569831Y-91411140D01*
X60634151Y-91486449D01*
X60709467Y-91550775D01*
X60716601Y-91557370D01*
X60731653Y-91572422D01*
X60731656Y-91572424D01*
X60748880Y-91584939D01*
X60756524Y-91590965D01*
X60831817Y-91655272D01*
X60831818Y-91655273D01*
X60851537Y-91667357D01*
X60916269Y-91707024D01*
X60924334Y-91712413D01*
X60941570Y-91724936D01*
X60960546Y-91734604D01*
X60969008Y-91739343D01*
X61053465Y-91791099D01*
X61144985Y-91829007D01*
X61153780Y-91833062D01*
X61172762Y-91842734D01*
X61193021Y-91849316D01*
X61202126Y-91852676D01*
X61238301Y-91867660D01*
X61293625Y-91890577D01*
X61293624Y-91890577D01*
X61322252Y-91897449D01*
X61389924Y-91913696D01*
X61399264Y-91916329D01*
X61419535Y-91922916D01*
X61440569Y-91926247D01*
X61450087Y-91928139D01*
X61546399Y-91951262D01*
X61645147Y-91959033D01*
X61654757Y-91960171D01*
X61675813Y-91963506D01*
X61675816Y-91963506D01*
X61697095Y-91963506D01*
X61706823Y-91963887D01*
X61805549Y-91971658D01*
X61904274Y-91963887D01*
X61914003Y-91963506D01*
X61935281Y-91963506D01*
X61935285Y-91963506D01*
X61956346Y-91960170D01*
X61965947Y-91959034D01*
X62064699Y-91951262D01*
X62161015Y-91928138D01*
X62170528Y-91926247D01*
X62191557Y-91922917D01*
X62191558Y-91922917D01*
X62191559Y-91922916D01*
X62191563Y-91922916D01*
X62211833Y-91916329D01*
X62221169Y-91913697D01*
X62284129Y-91898581D01*
X62317454Y-91890582D01*
X62317457Y-91890580D01*
X62317469Y-91890578D01*
X62408988Y-91852669D01*
X62418073Y-91849317D01*
X62438336Y-91842734D01*
X62457325Y-91833058D01*
X62466099Y-91829013D01*
X62557633Y-91791099D01*
X62642095Y-91739340D01*
X62650538Y-91734611D01*
X62669528Y-91724936D01*
X62686763Y-91712413D01*
X62694828Y-91707024D01*
X62779278Y-91655274D01*
X62854605Y-91590938D01*
X62862209Y-91584944D01*
X62879445Y-91572422D01*
X62894504Y-91557362D01*
X62901616Y-91550787D01*
X62976947Y-91486449D01*
X63041285Y-91411118D01*
X63047860Y-91404006D01*
X63062920Y-91388947D01*
X63075442Y-91371711D01*
X63081436Y-91364107D01*
X63145772Y-91288780D01*
X63197522Y-91204330D01*
X63202911Y-91196265D01*
X63215434Y-91179030D01*
X63225109Y-91160040D01*
X63229838Y-91151597D01*
X63281597Y-91067135D01*
X63319511Y-90975601D01*
X63323556Y-90966827D01*
X63333232Y-90947838D01*
X63339815Y-90927575D01*
X63343167Y-90918490D01*
X63381076Y-90826971D01*
X63404195Y-90730671D01*
X63406827Y-90721335D01*
X63413414Y-90701065D01*
X63416745Y-90680030D01*
X63417537Y-90676045D01*
X72345233Y-90676045D01*
X72364273Y-90930120D01*
X72420968Y-91178518D01*
X72420973Y-91178535D01*
X72514058Y-91415712D01*
X72514057Y-91415712D01*
X72641454Y-91636368D01*
X72641461Y-91636379D01*
X72683452Y-91689032D01*
X72683453Y-91689033D01*
X73487226Y-90885260D01*
X73525901Y-90978629D01*
X73622075Y-91103966D01*
X73747412Y-91200140D01*
X73840779Y-91238813D01*
X73036813Y-92042779D01*
X73197616Y-92152412D01*
X73197624Y-92152417D01*
X73427176Y-92262962D01*
X73427174Y-92262962D01*
X73670652Y-92338065D01*
X73670658Y-92338067D01*
X73922595Y-92376040D01*
X73922604Y-92376041D01*
X74177396Y-92376041D01*
X74177404Y-92376040D01*
X74429341Y-92338067D01*
X74429347Y-92338065D01*
X74672824Y-92262962D01*
X74902376Y-92152417D01*
X74902377Y-92152416D01*
X75063185Y-92042779D01*
X74259220Y-91238813D01*
X74352588Y-91200140D01*
X74477925Y-91103966D01*
X74574099Y-90978630D01*
X74612773Y-90885261D01*
X75416544Y-91689033D01*
X75416546Y-91689032D01*
X75458544Y-91636371D01*
X75585941Y-91415712D01*
X75679026Y-91178535D01*
X75679031Y-91178518D01*
X75735726Y-90930120D01*
X75754767Y-90676045D01*
X75754767Y-90676036D01*
X75735726Y-90421961D01*
X75679031Y-90173563D01*
X75679026Y-90173546D01*
X75585941Y-89936369D01*
X75585942Y-89936369D01*
X75458545Y-89715713D01*
X75416545Y-89663047D01*
X74612772Y-90466820D01*
X74574099Y-90373453D01*
X74477925Y-90248116D01*
X74352588Y-90151942D01*
X74259219Y-90113267D01*
X75063185Y-89309301D01*
X74902384Y-89199669D01*
X74902376Y-89199664D01*
X74672823Y-89089119D01*
X74672825Y-89089119D01*
X74429347Y-89014016D01*
X74429341Y-89014014D01*
X74177404Y-88976041D01*
X73922595Y-88976041D01*
X73670658Y-89014014D01*
X73670652Y-89014016D01*
X73427175Y-89089119D01*
X73197622Y-89199666D01*
X73197609Y-89199673D01*
X73036813Y-89309300D01*
X73840780Y-90113267D01*
X73747412Y-90151942D01*
X73622075Y-90248116D01*
X73525901Y-90373452D01*
X73487226Y-90466821D01*
X72683452Y-89663047D01*
X72641457Y-89715708D01*
X72514058Y-89936369D01*
X72420973Y-90173546D01*
X72420968Y-90173563D01*
X72364273Y-90421961D01*
X72345233Y-90676036D01*
X72345233Y-90676045D01*
X63417537Y-90676045D01*
X63418636Y-90670517D01*
X63441760Y-90574201D01*
X63449532Y-90475449D01*
X63450671Y-90465826D01*
X63454004Y-90444787D01*
X63454615Y-90413589D01*
X63454971Y-90406333D01*
X63462156Y-90315051D01*
X63454971Y-90223769D01*
X63454615Y-90216510D01*
X63454004Y-90185315D01*
X63450669Y-90164259D01*
X63449530Y-90154630D01*
X63441760Y-90055901D01*
X63418637Y-89959589D01*
X63416745Y-89950070D01*
X63413414Y-89929037D01*
X63406827Y-89908766D01*
X63404191Y-89899415D01*
X63381075Y-89803126D01*
X63347403Y-89721838D01*
X63343174Y-89711628D01*
X63339814Y-89702523D01*
X63333232Y-89682264D01*
X63323560Y-89663282D01*
X63319505Y-89654487D01*
X63281597Y-89562967D01*
X63229841Y-89478510D01*
X63225102Y-89470048D01*
X63215434Y-89451072D01*
X63202911Y-89433836D01*
X63197522Y-89425771D01*
X63148731Y-89346151D01*
X63145771Y-89341320D01*
X63145770Y-89341319D01*
X63081463Y-89266026D01*
X63075437Y-89258382D01*
X63065167Y-89244249D01*
X63062920Y-89241155D01*
X63047865Y-89226100D01*
X63041273Y-89218969D01*
X62976947Y-89143653D01*
X62901638Y-89079333D01*
X62894489Y-89072724D01*
X62879444Y-89057679D01*
X62873756Y-89053546D01*
X62862225Y-89045168D01*
X62854585Y-89039146D01*
X62779280Y-88974829D01*
X62779275Y-88974825D01*
X62694846Y-88923087D01*
X62686752Y-88917679D01*
X62669530Y-88905167D01*
X62650558Y-88895500D01*
X62642065Y-88890743D01*
X62557633Y-88839002D01*
X62466135Y-88801103D01*
X62457297Y-88797029D01*
X62438332Y-88787366D01*
X62418088Y-88780788D01*
X62408959Y-88777420D01*
X62317470Y-88739524D01*
X62221177Y-88716406D01*
X62211811Y-88713764D01*
X62191561Y-88707185D01*
X62191564Y-88707185D01*
X62170535Y-88703855D01*
X62160988Y-88701956D01*
X62064703Y-88678841D01*
X62064704Y-88678841D01*
X62064702Y-88678840D01*
X62064699Y-88678840D01*
X62018400Y-88675196D01*
X61965970Y-88671069D01*
X61956303Y-88669924D01*
X61935290Y-88666596D01*
X61935285Y-88666596D01*
X61914003Y-88666596D01*
X61904274Y-88666214D01*
X61805549Y-88658444D01*
X61706824Y-88666214D01*
X61697095Y-88666596D01*
X61675814Y-88666596D01*
X61675813Y-88666596D01*
X61659512Y-88669177D01*
X61654794Y-88669925D01*
X61645128Y-88671069D01*
X61546398Y-88678840D01*
X61546388Y-88678842D01*
X61450110Y-88701955D01*
X61440568Y-88703853D01*
X61419545Y-88707183D01*
X61419529Y-88707187D01*
X61399292Y-88713763D01*
X61389921Y-88716406D01*
X61293629Y-88739523D01*
X61202132Y-88777422D01*
X61193006Y-88780789D01*
X61172766Y-88787366D01*
X61172757Y-88787370D01*
X61153797Y-88797030D01*
X61144962Y-88801103D01*
X61053461Y-88839004D01*
X60969019Y-88890749D01*
X60960534Y-88895502D01*
X60941572Y-88905164D01*
X60941558Y-88905173D01*
X60924347Y-88917677D01*
X60916259Y-88923081D01*
X60831832Y-88974819D01*
X60831820Y-88974828D01*
X60756516Y-89039142D01*
X60748877Y-89045164D01*
X60731658Y-89057675D01*
X60731655Y-89057678D01*
X60716598Y-89072734D01*
X60709454Y-89079337D01*
X60634151Y-89143653D01*
X60569835Y-89218956D01*
X60563232Y-89226100D01*
X60548176Y-89241157D01*
X60548173Y-89241160D01*
X60535662Y-89258379D01*
X60529640Y-89266018D01*
X60465326Y-89341322D01*
X60465317Y-89341334D01*
X60413579Y-89425761D01*
X60408175Y-89433849D01*
X60395671Y-89451060D01*
X60395662Y-89451074D01*
X60386000Y-89470036D01*
X60381247Y-89478521D01*
X60329502Y-89562963D01*
X60291601Y-89654464D01*
X60287528Y-89663299D01*
X60277868Y-89682259D01*
X60277864Y-89682268D01*
X60271287Y-89702508D01*
X60267920Y-89711634D01*
X60230021Y-89803131D01*
X60206904Y-89899423D01*
X60204261Y-89908794D01*
X60197685Y-89929031D01*
X60197681Y-89929047D01*
X60194351Y-89950070D01*
X60192453Y-89959612D01*
X60169340Y-90055890D01*
X60169338Y-90055900D01*
X60161567Y-90154630D01*
X60160423Y-90164296D01*
X60157094Y-90185315D01*
X60157094Y-90206596D01*
X60156712Y-90216325D01*
X60156698Y-90216510D01*
X60148942Y-90315051D01*
X50782449Y-90315051D01*
X50782449Y-86900719D01*
X72599500Y-86900719D01*
X72614032Y-86973776D01*
X72614033Y-86973780D01*
X72614034Y-86973781D01*
X72669399Y-87056642D01*
X72752260Y-87112007D01*
X72752264Y-87112008D01*
X72825321Y-87126540D01*
X72825324Y-87126541D01*
X72825326Y-87126541D01*
X75274676Y-87126541D01*
X75274677Y-87126540D01*
X75347740Y-87112007D01*
X75430601Y-87056642D01*
X75485966Y-86973781D01*
X75500500Y-86900715D01*
X75500500Y-85743051D01*
X80121302Y-85743051D01*
X80141783Y-85885507D01*
X80151973Y-85907819D01*
X80201572Y-86016424D01*
X80295821Y-86125194D01*
X80416896Y-86203004D01*
X80416899Y-86203005D01*
X80416898Y-86203005D01*
X80554985Y-86243550D01*
X80554987Y-86243551D01*
X80626825Y-86243551D01*
X80626242Y-94538758D01*
X80626949Y-94538762D01*
X80626949Y-94633051D01*
X81536969Y-94633051D01*
X81604008Y-94652736D01*
X81649763Y-94705540D01*
X81659707Y-94774698D01*
X81630682Y-94838254D01*
X81604009Y-94861366D01*
X81565822Y-94885907D01*
X81565815Y-94885913D01*
X81471574Y-94994673D01*
X81471571Y-94994679D01*
X81411783Y-95125594D01*
X81391302Y-95268051D01*
X81411783Y-95410507D01*
X81445305Y-95483908D01*
X81471572Y-95541424D01*
X81565821Y-95650194D01*
X81686896Y-95728004D01*
X81686899Y-95728005D01*
X81686898Y-95728005D01*
X81824985Y-95768550D01*
X81824987Y-95768551D01*
X81824988Y-95768551D01*
X81968911Y-95768551D01*
X81968911Y-95768550D01*
X82107002Y-95728004D01*
X82228077Y-95650194D01*
X82322326Y-95541424D01*
X82335553Y-95512461D01*
X82350642Y-95489277D01*
X82350039Y-95488840D01*
X82353613Y-95483908D01*
X82353616Y-95483905D01*
X82544730Y-95157032D01*
X82564087Y-95131948D01*
X82778889Y-94917146D01*
X82798746Y-94901022D01*
X82807836Y-94895084D01*
X82827282Y-94870098D01*
X82837460Y-94858576D01*
X82837520Y-94858517D01*
X82849597Y-94841600D01*
X82852663Y-94837489D01*
X82884809Y-94796189D01*
X82884810Y-94796183D01*
X82888543Y-94789287D01*
X82892005Y-94782205D01*
X82892010Y-94782199D01*
X82906958Y-94731987D01*
X82908505Y-94727163D01*
X82912069Y-94716783D01*
X82952457Y-94659769D01*
X83017258Y-94633642D01*
X83029348Y-94633051D01*
X92177515Y-94633051D01*
X92244554Y-94652736D01*
X92290309Y-94705540D01*
X92300253Y-94774698D01*
X92297465Y-94788479D01*
X92217653Y-95093004D01*
X92215136Y-95102609D01*
X92214367Y-95102407D01*
X92207899Y-95123152D01*
X92206783Y-95125593D01*
X92186302Y-95268051D01*
X92206783Y-95410507D01*
X92240305Y-95483908D01*
X92266572Y-95541424D01*
X92360821Y-95650194D01*
X92481896Y-95728004D01*
X92481899Y-95728005D01*
X92481898Y-95728005D01*
X92619985Y-95768550D01*
X92619987Y-95768551D01*
X92619988Y-95768551D01*
X92763911Y-95768551D01*
X92763911Y-95768550D01*
X92902002Y-95728004D01*
X93023077Y-95650194D01*
X93117326Y-95541424D01*
X93177114Y-95410508D01*
X93197596Y-95268051D01*
X93177114Y-95125594D01*
X93176093Y-95123358D01*
X93168938Y-95103284D01*
X93167494Y-95097775D01*
X93167494Y-95097770D01*
X93086435Y-94788486D01*
X93088481Y-94718648D01*
X93127960Y-94661001D01*
X93192338Y-94633849D01*
X93206384Y-94633051D01*
X94596949Y-94633051D01*
X94596949Y-85608551D01*
X94668911Y-85608551D01*
X94668911Y-85608550D01*
X94807002Y-85568004D01*
X94928077Y-85490194D01*
X95022326Y-85381424D01*
X95082114Y-85250508D01*
X95102596Y-85108051D01*
X95082114Y-84965594D01*
X95022326Y-84834678D01*
X94928077Y-84725908D01*
X94807002Y-84648098D01*
X94807000Y-84648097D01*
X94806998Y-84648096D01*
X94806999Y-84648096D01*
X94668912Y-84607551D01*
X94668910Y-84607551D01*
X94596949Y-84607551D01*
X94596949Y-84473051D01*
X100441302Y-84473051D01*
X100461783Y-84615507D01*
X100514646Y-84731259D01*
X100521572Y-84746424D01*
X100615821Y-84855194D01*
X100736896Y-84933004D01*
X100736899Y-84933005D01*
X100736898Y-84933005D01*
X100874985Y-84973550D01*
X100874987Y-84973551D01*
X100874988Y-84973551D01*
X101018911Y-84973551D01*
X101018911Y-84973550D01*
X101157002Y-84933004D01*
X101278077Y-84855194D01*
X101372326Y-84746424D01*
X101432114Y-84615508D01*
X101452596Y-84473051D01*
X101432114Y-84330594D01*
X101372326Y-84199678D01*
X101278077Y-84090908D01*
X101157002Y-84013098D01*
X101157000Y-84013097D01*
X101156998Y-84013096D01*
X101156999Y-84013096D01*
X101018912Y-83972551D01*
X101018910Y-83972551D01*
X100874988Y-83972551D01*
X100874985Y-83972551D01*
X100736898Y-84013096D01*
X100615822Y-84090907D01*
X100521572Y-84199677D01*
X100521571Y-84199679D01*
X100461783Y-84330594D01*
X100441302Y-84473051D01*
X94596949Y-84473051D01*
X93702449Y-84473051D01*
X93702449Y-84276535D01*
X93706500Y-84245098D01*
X93706501Y-84245095D01*
X93802494Y-83878830D01*
X93802494Y-83878828D01*
X93803763Y-83873987D01*
X93804549Y-83874193D01*
X93811004Y-83853439D01*
X93811394Y-83852583D01*
X93812114Y-83851008D01*
X93813977Y-83838051D01*
X118856302Y-83838051D01*
X118876783Y-83980507D01*
X118936571Y-84111422D01*
X118936572Y-84111424D01*
X119030821Y-84220194D01*
X119151896Y-84298004D01*
X119151899Y-84298005D01*
X119151898Y-84298005D01*
X119289985Y-84338550D01*
X119289987Y-84338551D01*
X119289988Y-84338551D01*
X119433911Y-84338551D01*
X119433911Y-84338550D01*
X119572002Y-84298004D01*
X119693077Y-84220194D01*
X119787326Y-84111424D01*
X119847114Y-83980508D01*
X119867596Y-83838051D01*
X119847114Y-83695594D01*
X119787326Y-83564678D01*
X119693077Y-83455908D01*
X119572002Y-83378098D01*
X119572000Y-83378097D01*
X119571998Y-83378096D01*
X119571999Y-83378096D01*
X119433912Y-83337551D01*
X119433910Y-83337551D01*
X119289988Y-83337551D01*
X119289985Y-83337551D01*
X119151898Y-83378096D01*
X119030822Y-83455907D01*
X118936572Y-83564677D01*
X118936571Y-83564679D01*
X118876783Y-83695594D01*
X118856302Y-83838051D01*
X93813977Y-83838051D01*
X93832596Y-83708551D01*
X93812114Y-83566094D01*
X93752326Y-83435178D01*
X93658077Y-83326408D01*
X93537002Y-83248598D01*
X93537000Y-83248597D01*
X93536998Y-83248596D01*
X93536999Y-83248596D01*
X93398912Y-83208051D01*
X93398910Y-83208051D01*
X93254988Y-83208051D01*
X93254985Y-83208051D01*
X93116898Y-83248596D01*
X92995822Y-83326407D01*
X92901572Y-83435177D01*
X92901571Y-83435179D01*
X92841783Y-83566094D01*
X92821302Y-83708551D01*
X92841783Y-83851007D01*
X92842806Y-83853246D01*
X92849960Y-83873319D01*
X92851403Y-83878827D01*
X92851404Y-83878831D01*
X92946082Y-84240073D01*
X92947398Y-84245095D01*
X92951449Y-84276532D01*
X92951449Y-84473051D01*
X85450355Y-84473051D01*
X85448401Y-84457374D01*
X85447449Y-84442036D01*
X85447449Y-84441941D01*
X85447449Y-84441937D01*
X85444027Y-84421435D01*
X85443288Y-84416360D01*
X85442245Y-84407994D01*
X85436815Y-84364426D01*
X85436813Y-84364422D01*
X85434570Y-84356888D01*
X85432014Y-84349442D01*
X85432014Y-84349441D01*
X85407108Y-84303420D01*
X85404771Y-84298880D01*
X85401948Y-84293106D01*
X85381775Y-84251840D01*
X85381772Y-84251837D01*
X85381772Y-84251836D01*
X85377229Y-84245472D01*
X85372369Y-84239227D01*
X85372368Y-84239225D01*
X85333841Y-84203758D01*
X85330167Y-84200232D01*
X85104094Y-83974159D01*
X85084729Y-83949065D01*
X84893620Y-83622200D01*
X84892780Y-83621183D01*
X84891661Y-83619395D01*
X84890758Y-83618103D01*
X84890823Y-83618057D01*
X84875596Y-83593733D01*
X84862330Y-83564685D01*
X84862325Y-83564677D01*
X84841304Y-83540417D01*
X84768077Y-83455908D01*
X84647002Y-83378098D01*
X84647000Y-83378097D01*
X84646998Y-83378096D01*
X84646999Y-83378096D01*
X84508912Y-83337551D01*
X84508910Y-83337551D01*
X84364988Y-83337551D01*
X84364985Y-83337551D01*
X84226898Y-83378096D01*
X84105822Y-83455907D01*
X84011572Y-83564677D01*
X84011571Y-83564679D01*
X83951783Y-83695594D01*
X83931302Y-83838051D01*
X83951783Y-83980507D01*
X84011571Y-84111422D01*
X84011572Y-84111424D01*
X84105821Y-84220194D01*
X84212785Y-84288935D01*
X84218523Y-84292855D01*
X84221091Y-84294716D01*
X84221094Y-84294719D01*
X84499291Y-84457374D01*
X84526105Y-84473051D01*
X83560500Y-84473051D01*
X83560500Y-84398392D01*
X83563381Y-84371819D01*
X83643733Y-84005569D01*
X83652063Y-83980618D01*
X83652114Y-83980508D01*
X83672596Y-83838051D01*
X83652114Y-83695594D01*
X83592326Y-83564678D01*
X83498077Y-83455908D01*
X83377002Y-83378098D01*
X83377000Y-83378097D01*
X83376998Y-83378096D01*
X83376999Y-83378096D01*
X83238912Y-83337551D01*
X83238910Y-83337551D01*
X83094988Y-83337551D01*
X83094985Y-83337551D01*
X82956898Y-83378096D01*
X82835822Y-83455907D01*
X82741572Y-83564677D01*
X82741571Y-83564679D01*
X82681783Y-83695594D01*
X82661302Y-83838051D01*
X82681783Y-83980505D01*
X82681783Y-83980506D01*
X82681784Y-83980508D01*
X82685521Y-83988692D01*
X82694205Y-84015324D01*
X82695040Y-84019405D01*
X82803957Y-84371334D01*
X82809500Y-84407994D01*
X82809500Y-84473051D01*
X82300500Y-84473051D01*
X82300500Y-84015826D01*
X82300499Y-84015809D01*
X82294251Y-83957700D01*
X82264834Y-83878831D01*
X82245212Y-83826222D01*
X82178460Y-83737052D01*
X82154043Y-83671590D01*
X82168894Y-83603317D01*
X82212631Y-83557204D01*
X82273037Y-83519945D01*
X82394944Y-83398038D01*
X82394947Y-83398034D01*
X82485448Y-83251311D01*
X82485453Y-83251300D01*
X82539680Y-83087652D01*
X82549999Y-82986654D01*
X82550000Y-82986641D01*
X82550000Y-82887500D01*
X80600001Y-82887500D01*
X80600001Y-82986654D01*
X80610319Y-83087652D01*
X80664546Y-83251300D01*
X80664551Y-83251311D01*
X80755052Y-83398034D01*
X80755055Y-83398038D01*
X80876960Y-83519943D01*
X80937369Y-83557204D01*
X80984093Y-83609152D01*
X80995315Y-83678115D01*
X80971539Y-83737054D01*
X80904789Y-83826219D01*
X80855748Y-83957700D01*
X80849500Y-84015809D01*
X80849500Y-84473051D01*
X80626949Y-84473051D01*
X80626897Y-85209497D01*
X80571227Y-85239896D01*
X80562520Y-85241467D01*
X80554989Y-85242549D01*
X80416898Y-85283096D01*
X80295822Y-85360907D01*
X80201572Y-85469677D01*
X80201571Y-85469679D01*
X80141783Y-85600594D01*
X80121302Y-85743051D01*
X75500500Y-85743051D01*
X75500500Y-84451367D01*
X75500500Y-84451364D01*
X75500499Y-84451362D01*
X75485967Y-84378305D01*
X75485966Y-84378301D01*
X75481311Y-84371334D01*
X75430601Y-84295440D01*
X75356931Y-84246216D01*
X75347739Y-84240074D01*
X75347735Y-84240073D01*
X75274677Y-84225541D01*
X75274674Y-84225541D01*
X72825326Y-84225541D01*
X72825323Y-84225541D01*
X72752264Y-84240073D01*
X72752260Y-84240074D01*
X72669399Y-84295440D01*
X72614033Y-84378301D01*
X72614032Y-84378305D01*
X72599500Y-84451362D01*
X72599500Y-86900719D01*
X50782449Y-86900719D01*
X50782449Y-83841531D01*
X50782644Y-83834578D01*
X50788910Y-83723000D01*
X50788941Y-83722466D01*
X50789783Y-83708551D01*
X50799152Y-83553674D01*
X50800673Y-83540436D01*
X50823081Y-83408549D01*
X50823310Y-83407251D01*
X50849963Y-83261815D01*
X50852771Y-83249866D01*
X50890937Y-83117391D01*
X50891695Y-83114865D01*
X50906127Y-83068550D01*
X50934382Y-82977875D01*
X50938191Y-82967357D01*
X50991622Y-82838363D01*
X50993085Y-82834978D01*
X50993109Y-82834925D01*
X51051261Y-82705714D01*
X51055785Y-82696673D01*
X51123743Y-82573713D01*
X51126101Y-82569635D01*
X51127059Y-82568051D01*
X83296302Y-82568051D01*
X83316783Y-82710507D01*
X83373604Y-82834925D01*
X83376572Y-82841424D01*
X83470821Y-82950194D01*
X83591896Y-83028004D01*
X83591899Y-83028005D01*
X83591898Y-83028005D01*
X83729985Y-83068550D01*
X83729987Y-83068551D01*
X83729988Y-83068551D01*
X83873911Y-83068551D01*
X83873911Y-83068550D01*
X84012002Y-83028004D01*
X84133077Y-82950194D01*
X84227326Y-82841424D01*
X84287114Y-82710508D01*
X84307596Y-82568051D01*
X84287114Y-82425594D01*
X84227326Y-82294678D01*
X84133077Y-82185908D01*
X84012002Y-82108098D01*
X84012000Y-82108097D01*
X84011998Y-82108096D01*
X84011999Y-82108096D01*
X83873912Y-82067551D01*
X83873910Y-82067551D01*
X83729988Y-82067551D01*
X83729985Y-82067551D01*
X83591898Y-82108096D01*
X83470822Y-82185907D01*
X83376572Y-82294677D01*
X83376571Y-82294679D01*
X83316783Y-82425594D01*
X83296302Y-82568051D01*
X51127059Y-82568051D01*
X51199023Y-82449007D01*
X51203975Y-82441456D01*
X51242259Y-82387500D01*
X80600000Y-82387500D01*
X81325000Y-82387500D01*
X81325000Y-81600000D01*
X81825000Y-81600000D01*
X81825000Y-82387500D01*
X82549999Y-82387500D01*
X82549999Y-82288360D01*
X82549998Y-82288345D01*
X82539680Y-82187347D01*
X82485453Y-82023699D01*
X82485448Y-82023688D01*
X82394947Y-81876965D01*
X82394944Y-81876961D01*
X82273038Y-81755055D01*
X82273034Y-81755052D01*
X82126311Y-81664551D01*
X82126300Y-81664546D01*
X81962652Y-81610319D01*
X81861654Y-81600000D01*
X81825000Y-81600000D01*
X81325000Y-81600000D01*
X81288361Y-81600000D01*
X81288343Y-81600001D01*
X81187347Y-81610319D01*
X81023699Y-81664546D01*
X81023688Y-81664551D01*
X80876965Y-81755052D01*
X80876961Y-81755055D01*
X80755055Y-81876961D01*
X80755052Y-81876965D01*
X80664551Y-82023688D01*
X80664546Y-82023699D01*
X80610319Y-82187347D01*
X80600000Y-82288345D01*
X80600000Y-82387500D01*
X51242259Y-82387500D01*
X51285517Y-82326533D01*
X51288990Y-82321876D01*
X51375660Y-82211250D01*
X51380771Y-82205144D01*
X51474805Y-82099919D01*
X51479525Y-82094927D01*
X51578834Y-81995617D01*
X51583805Y-81990918D01*
X51689051Y-81896864D01*
X51695145Y-81891763D01*
X51805787Y-81805081D01*
X51810383Y-81801652D01*
X51925366Y-81720068D01*
X51932910Y-81715121D01*
X52053555Y-81642189D01*
X52057588Y-81639856D01*
X52180581Y-81571880D01*
X52189614Y-81567362D01*
X52318928Y-81509162D01*
X52322220Y-81507740D01*
X52451277Y-81454282D01*
X52461749Y-81450490D01*
X52598863Y-81407764D01*
X52601169Y-81407072D01*
X52733781Y-81368867D01*
X52745713Y-81366063D01*
X52891218Y-81339398D01*
X52892382Y-81339193D01*
X53024327Y-81316774D01*
X53037572Y-81315253D01*
X53206876Y-81305011D01*
X53318441Y-81298746D01*
X53325392Y-81298551D01*
X124438467Y-81298551D01*
X124445419Y-81298745D01*
G37*
%TD.AperFunction*%
%TD*%
%TA.AperFunction,Conductor*%
%TO.N,GND*%
G36*
X82809500Y-85015659D02*
G01*
X82794883Y-85074066D01*
X82523705Y-85581919D01*
X82515872Y-85594234D01*
X82514786Y-85596223D01*
X82514709Y-85596432D01*
X82507926Y-85611471D01*
X82507430Y-85612399D01*
X82507426Y-85612408D01*
X82491680Y-85658063D01*
X82490639Y-85660964D01*
X82465750Y-85727693D01*
X82465748Y-85727704D01*
X82459500Y-85785809D01*
X82459500Y-86379190D01*
X82465748Y-86437299D01*
X82488100Y-86497225D01*
X82514788Y-86568778D01*
X82598884Y-86681116D01*
X82606516Y-86686829D01*
X82700455Y-86757153D01*
X82742326Y-86813087D01*
X82747310Y-86882778D01*
X82713824Y-86944101D01*
X82665150Y-86974124D01*
X82633703Y-86984545D01*
X82633688Y-86984551D01*
X82486965Y-87075052D01*
X82486961Y-87075055D01*
X82365055Y-87196961D01*
X82365052Y-87196965D01*
X82274551Y-87343688D01*
X82274546Y-87343699D01*
X82220319Y-87507347D01*
X82210000Y-87608345D01*
X82210000Y-87687696D01*
X82190315Y-87754735D01*
X82137511Y-87800490D01*
X82068353Y-87810434D01*
X82051066Y-87806673D01*
X81968912Y-87782551D01*
X81968910Y-87782551D01*
X81824988Y-87782551D01*
X81824985Y-87782551D01*
X81686898Y-87823096D01*
X81565822Y-87900907D01*
X81471572Y-88009677D01*
X81471571Y-88009679D01*
X81411783Y-88140594D01*
X81391302Y-88283051D01*
X81411783Y-88425507D01*
X81469173Y-88551172D01*
X81471572Y-88556424D01*
X81565821Y-88665194D01*
X81686896Y-88743004D01*
X81686899Y-88743005D01*
X81686898Y-88743005D01*
X81824985Y-88783550D01*
X81824987Y-88783551D01*
X81824988Y-88783551D01*
X81968911Y-88783551D01*
X81968911Y-88783550D01*
X82107002Y-88743004D01*
X82228077Y-88665194D01*
X82228083Y-88665186D01*
X82234777Y-88659388D01*
X82236106Y-88660922D01*
X82285111Y-88629424D01*
X82354981Y-88629419D01*
X82407735Y-88660718D01*
X82486961Y-88739944D01*
X82486965Y-88739947D01*
X82633688Y-88830448D01*
X82633699Y-88830453D01*
X82797347Y-88884680D01*
X82898352Y-88894999D01*
X82935000Y-88894999D01*
X83435000Y-88894999D01*
X83471640Y-88894999D01*
X83471654Y-88894998D01*
X83572652Y-88884680D01*
X83736300Y-88830453D01*
X83736311Y-88830448D01*
X83883034Y-88739947D01*
X83883038Y-88739944D01*
X84004946Y-88618036D01*
X84017367Y-88597898D01*
X84069314Y-88551172D01*
X84138276Y-88539948D01*
X84202359Y-88567790D01*
X84228445Y-88597895D01*
X84252001Y-88636085D01*
X84252004Y-88636089D01*
X84373910Y-88757995D01*
X84373914Y-88757998D01*
X84520637Y-88848499D01*
X84520648Y-88848504D01*
X84684296Y-88902731D01*
X84785301Y-88913050D01*
X84821949Y-88913050D01*
X84821949Y-88125551D01*
X85321949Y-88125551D01*
X85321949Y-88913050D01*
X85358589Y-88913050D01*
X85358603Y-88913049D01*
X85459601Y-88902731D01*
X85623249Y-88848504D01*
X85623260Y-88848499D01*
X85769983Y-88757998D01*
X85769987Y-88757995D01*
X85891893Y-88636089D01*
X85891896Y-88636085D01*
X85982397Y-88489362D01*
X85982402Y-88489351D01*
X86036629Y-88325703D01*
X86046948Y-88224705D01*
X86046949Y-88224692D01*
X86046949Y-88157500D01*
X91100001Y-88157500D01*
X91100001Y-88206654D01*
X91110319Y-88307652D01*
X91164546Y-88471300D01*
X91164551Y-88471311D01*
X91255052Y-88618034D01*
X91255055Y-88618038D01*
X91376961Y-88739944D01*
X91376965Y-88739947D01*
X91523688Y-88830448D01*
X91523699Y-88830453D01*
X91687347Y-88884680D01*
X91788352Y-88894999D01*
X91825000Y-88894999D01*
X91825000Y-88157500D01*
X92325000Y-88157500D01*
X92325000Y-88894999D01*
X92361640Y-88894999D01*
X92361654Y-88894998D01*
X92462652Y-88884680D01*
X92626300Y-88830453D01*
X92626311Y-88830448D01*
X92773034Y-88739947D01*
X92773038Y-88739944D01*
X92894944Y-88618038D01*
X92894947Y-88618034D01*
X92985448Y-88471311D01*
X92985453Y-88471300D01*
X93039680Y-88307652D01*
X93049999Y-88206654D01*
X93050000Y-88206641D01*
X93050000Y-88157500D01*
X92325000Y-88157500D01*
X91825000Y-88157500D01*
X91100001Y-88157500D01*
X86046949Y-88157500D01*
X86046949Y-88125551D01*
X85321949Y-88125551D01*
X84821949Y-88125551D01*
X84199367Y-88125551D01*
X84146047Y-88154666D01*
X84119689Y-88157500D01*
X83435000Y-88157500D01*
X83435000Y-88894999D01*
X82935000Y-88894999D01*
X82935000Y-87781500D01*
X82954685Y-87714461D01*
X83007489Y-87668706D01*
X83059000Y-87657500D01*
X84057582Y-87657500D01*
X84110902Y-87628385D01*
X84137260Y-87625551D01*
X86046948Y-87625551D01*
X86046948Y-87526411D01*
X86046947Y-87526396D01*
X86036629Y-87425398D01*
X85982402Y-87261750D01*
X85982397Y-87261739D01*
X85891896Y-87115016D01*
X85891893Y-87115012D01*
X85769986Y-86993105D01*
X85709579Y-86955845D01*
X85662855Y-86903896D01*
X85651634Y-86834934D01*
X85675411Y-86775996D01*
X85742158Y-86686833D01*
X85742157Y-86686833D01*
X85742161Y-86686829D01*
X85791200Y-86555350D01*
X85797448Y-86497241D01*
X85797449Y-86497224D01*
X85797449Y-85803877D01*
X85797448Y-85803860D01*
X85794098Y-85772704D01*
X85791200Y-85745752D01*
X85791198Y-85745748D01*
X85791198Y-85745745D01*
X85757312Y-85654894D01*
X85754817Y-85647503D01*
X85749830Y-85631037D01*
X85749035Y-85629549D01*
X85742236Y-85614475D01*
X85742161Y-85614273D01*
X85742158Y-85614269D01*
X85742158Y-85614268D01*
X85741069Y-85612274D01*
X85733238Y-85599965D01*
X85471953Y-85110634D01*
X85462066Y-85092118D01*
X85447449Y-85033711D01*
X85447449Y-84524854D01*
X85450088Y-84499409D01*
X85450126Y-84499226D01*
X85452316Y-84488783D01*
X85450355Y-84473051D01*
X92951449Y-84473051D01*
X92951449Y-84623651D01*
X92931764Y-84690690D01*
X92915130Y-84711332D01*
X92617907Y-85008554D01*
X92577489Y-85035513D01*
X91850719Y-85335140D01*
X91803456Y-85344500D01*
X91790809Y-85344500D01*
X91732700Y-85350748D01*
X91601219Y-85399789D01*
X91488884Y-85483884D01*
X91404789Y-85596219D01*
X91355748Y-85727700D01*
X91349500Y-85785809D01*
X91349500Y-86379190D01*
X91355748Y-86437299D01*
X91378100Y-86497225D01*
X91404788Y-86568778D01*
X91488884Y-86681116D01*
X91496516Y-86686829D01*
X91590455Y-86757153D01*
X91632326Y-86813087D01*
X91637310Y-86882778D01*
X91603824Y-86944101D01*
X91555150Y-86974124D01*
X91523703Y-86984545D01*
X91523688Y-86984551D01*
X91376965Y-87075052D01*
X91376961Y-87075055D01*
X91255055Y-87196961D01*
X91255052Y-87196965D01*
X91164551Y-87343688D01*
X91164546Y-87343699D01*
X91110319Y-87507347D01*
X91100000Y-87608345D01*
X91100000Y-87657500D01*
X93049999Y-87657500D01*
X93049999Y-87608360D01*
X93049998Y-87608345D01*
X93039680Y-87507347D01*
X92985453Y-87343699D01*
X92985448Y-87343688D01*
X92894947Y-87196965D01*
X92894944Y-87196961D01*
X92773038Y-87075055D01*
X92773034Y-87075052D01*
X92626311Y-86984551D01*
X92626302Y-86984547D01*
X92594850Y-86974125D01*
X92537406Y-86934352D01*
X92510583Y-86869836D01*
X92522898Y-86801060D01*
X92559542Y-86757153D01*
X92661116Y-86681116D01*
X92745212Y-86568778D01*
X92794251Y-86437299D01*
X92800499Y-86379190D01*
X92800500Y-86379173D01*
X92800500Y-86367733D01*
X92810210Y-86319632D01*
X92842230Y-86243551D01*
X93121491Y-85580013D01*
X93148095Y-85540440D01*
X93555838Y-85132697D01*
X93575695Y-85116573D01*
X93584785Y-85110635D01*
X93604220Y-85085663D01*
X93614405Y-85074132D01*
X93614405Y-85074131D01*
X93614468Y-85074069D01*
X93626579Y-85057104D01*
X93629576Y-85053085D01*
X93661758Y-85011740D01*
X93661760Y-85011732D01*
X93665496Y-85004829D01*
X93668955Y-84997754D01*
X93668959Y-84997750D01*
X93683891Y-84947592D01*
X93685435Y-84942769D01*
X93702449Y-84893211D01*
X93702449Y-84893209D01*
X93702450Y-84893207D01*
X93703740Y-84885475D01*
X93704717Y-84877637D01*
X93702555Y-84825358D01*
X93702449Y-84820234D01*
X93702449Y-84473051D01*
X94596949Y-84473051D01*
X94596949Y-84607551D01*
X94524985Y-84607551D01*
X94386898Y-84648096D01*
X94265822Y-84725907D01*
X94171572Y-84834677D01*
X94171571Y-84834679D01*
X94111783Y-84965594D01*
X94091302Y-85108051D01*
X94111783Y-85250507D01*
X94171571Y-85381422D01*
X94171572Y-85381424D01*
X94265821Y-85490194D01*
X94386896Y-85568004D01*
X94386899Y-85568005D01*
X94386898Y-85568005D01*
X94482999Y-85596222D01*
X94524126Y-85608298D01*
X94524985Y-85608550D01*
X94524987Y-85608551D01*
X94596949Y-85608551D01*
X94596949Y-94633051D01*
X94596948Y-94633050D01*
X93299312Y-94624292D01*
X93232407Y-94604156D01*
X93187010Y-94551044D01*
X93177533Y-94481820D01*
X93192094Y-94439469D01*
X93368449Y-94126227D01*
X93377230Y-94112759D01*
X93380212Y-94108778D01*
X93382012Y-94103948D01*
X93383833Y-94099573D01*
X93384517Y-94097689D01*
X93384520Y-94097686D01*
X93391158Y-94079431D01*
X93391342Y-94078933D01*
X93429251Y-93977299D01*
X93431587Y-93955570D01*
X93435499Y-93919190D01*
X93435500Y-93919173D01*
X93435500Y-93325826D01*
X93435499Y-93325809D01*
X93429251Y-93267700D01*
X93414665Y-93228594D01*
X93380212Y-93136222D01*
X93296116Y-93023884D01*
X93296115Y-93023883D01*
X93194543Y-92947846D01*
X93152673Y-92891912D01*
X93147689Y-92822221D01*
X93181175Y-92760898D01*
X93229853Y-92730873D01*
X93261303Y-92720451D01*
X93261311Y-92720448D01*
X93408034Y-92629947D01*
X93408038Y-92629944D01*
X93529944Y-92508038D01*
X93529947Y-92508034D01*
X93620448Y-92361311D01*
X93620453Y-92361300D01*
X93674680Y-92197652D01*
X93684999Y-92096654D01*
X93685000Y-92096641D01*
X93685000Y-92047500D01*
X91735001Y-92047500D01*
X91735001Y-92096654D01*
X91745319Y-92197652D01*
X91799546Y-92361300D01*
X91799551Y-92361311D01*
X91890052Y-92508034D01*
X91890055Y-92508038D01*
X92011961Y-92629944D01*
X92011965Y-92629947D01*
X92158688Y-92720448D01*
X92158701Y-92720454D01*
X92190147Y-92730874D01*
X92247592Y-92770646D01*
X92274416Y-92835161D01*
X92262102Y-92903937D01*
X92225456Y-92947846D01*
X92123884Y-93023883D01*
X92039789Y-93136219D01*
X91990748Y-93267700D01*
X91984500Y-93325809D01*
X91984500Y-93919190D01*
X91990748Y-93977295D01*
X91990750Y-93977302D01*
X92020669Y-94057519D01*
X92023954Y-94067631D01*
X92029425Y-94087306D01*
X92035344Y-94099029D01*
X92038886Y-94107126D01*
X92044039Y-94116562D01*
X92043821Y-94116680D01*
X92046164Y-94120457D01*
X92205627Y-94436270D01*
X92218272Y-94504985D01*
X92191759Y-94569629D01*
X92134506Y-94609677D01*
X92094100Y-94616157D01*
X83186052Y-94556033D01*
X83119147Y-94535897D01*
X83073750Y-94482785D01*
X83064273Y-94413561D01*
X83077504Y-94373633D01*
X83211287Y-94123087D01*
X83219124Y-94110769D01*
X83220207Y-94108785D01*
X83220207Y-94108784D01*
X83220212Y-94108778D01*
X83220291Y-94108565D01*
X83227095Y-94093483D01*
X83227571Y-94092593D01*
X83243310Y-94046951D01*
X83244296Y-94044202D01*
X83269251Y-93977299D01*
X83271587Y-93955570D01*
X83275499Y-93919190D01*
X83275500Y-93919173D01*
X83275500Y-93325826D01*
X83275499Y-93325809D01*
X83269251Y-93267700D01*
X83254665Y-93228594D01*
X83220212Y-93136222D01*
X83136116Y-93023884D01*
X83136115Y-93023883D01*
X83034543Y-92947846D01*
X82992673Y-92891912D01*
X82987689Y-92822221D01*
X83021175Y-92760898D01*
X83069853Y-92730873D01*
X83101303Y-92720451D01*
X83101311Y-92720448D01*
X83248034Y-92629947D01*
X83248038Y-92629944D01*
X83369944Y-92508038D01*
X83369947Y-92508034D01*
X83460448Y-92361311D01*
X83460453Y-92361300D01*
X83514680Y-92197652D01*
X83524999Y-92096654D01*
X83525000Y-92096641D01*
X83525000Y-92047500D01*
X81575001Y-92047500D01*
X81575001Y-92096654D01*
X81585319Y-92197652D01*
X81639546Y-92361300D01*
X81639551Y-92361311D01*
X81730052Y-92508034D01*
X81730055Y-92508038D01*
X81851961Y-92629944D01*
X81851965Y-92629947D01*
X81998688Y-92720448D01*
X81998701Y-92720454D01*
X82030147Y-92730874D01*
X82087592Y-92770646D01*
X82114416Y-92835161D01*
X82102102Y-92903937D01*
X82065456Y-92947846D01*
X81963884Y-93023883D01*
X81879789Y-93136219D01*
X81830748Y-93267700D01*
X81824500Y-93325809D01*
X81824500Y-93919190D01*
X81830748Y-93977295D01*
X81830750Y-93977303D01*
X81865346Y-94070060D01*
X81867838Y-94077441D01*
X81872427Y-94092590D01*
X81872432Y-94092601D01*
X81872916Y-94093508D01*
X81879710Y-94108570D01*
X81879787Y-94108778D01*
X81880872Y-94110765D01*
X81888712Y-94123090D01*
X82017884Y-94365001D01*
X82032097Y-94433410D01*
X82007069Y-94498643D01*
X81950746Y-94539990D01*
X81907664Y-94547405D01*
X80626949Y-94538762D01*
X80626242Y-94538758D01*
X80626452Y-91547500D01*
X81575000Y-91547500D01*
X82300000Y-91547500D01*
X82300000Y-90810000D01*
X82800000Y-90810000D01*
X82800000Y-91547500D01*
X83524999Y-91547500D01*
X91735000Y-91547500D01*
X92460000Y-91547500D01*
X92460000Y-90810000D01*
X92960000Y-90810000D01*
X92960000Y-91547500D01*
X93684999Y-91547500D01*
X93684999Y-91498360D01*
X93684998Y-91498345D01*
X93674680Y-91397347D01*
X93620453Y-91233699D01*
X93620448Y-91233688D01*
X93529947Y-91086965D01*
X93529944Y-91086961D01*
X93408038Y-90965055D01*
X93408034Y-90965052D01*
X93261311Y-90874551D01*
X93261300Y-90874546D01*
X93097652Y-90820319D01*
X92996654Y-90810000D01*
X92960000Y-90810000D01*
X92460000Y-90810000D01*
X92423361Y-90810000D01*
X92423343Y-90810001D01*
X92322347Y-90820319D01*
X92158699Y-90874546D01*
X92158688Y-90874551D01*
X92011965Y-90965052D01*
X92011961Y-90965055D01*
X91890055Y-91086961D01*
X91890052Y-91086965D01*
X91799551Y-91233688D01*
X91799546Y-91233699D01*
X91745319Y-91397347D01*
X91735000Y-91498345D01*
X91735000Y-91547500D01*
X83524999Y-91547500D01*
X83524999Y-91498360D01*
X83524998Y-91498345D01*
X83514680Y-91397347D01*
X83460453Y-91233699D01*
X83460448Y-91233688D01*
X83369947Y-91086965D01*
X83369944Y-91086961D01*
X83248038Y-90965055D01*
X83248034Y-90965052D01*
X83101311Y-90874551D01*
X83101300Y-90874546D01*
X82937652Y-90820319D01*
X82836654Y-90810000D01*
X82800000Y-90810000D01*
X82300000Y-90810000D01*
X82263361Y-90810000D01*
X82263343Y-90810001D01*
X82162347Y-90820319D01*
X81998699Y-90874546D01*
X81998688Y-90874551D01*
X81851965Y-90965052D01*
X81851961Y-90965055D01*
X81730055Y-91086961D01*
X81730052Y-91086965D01*
X81639551Y-91233688D01*
X81639546Y-91233699D01*
X81585319Y-91397347D01*
X81575000Y-91498345D01*
X81575000Y-91547500D01*
X80626452Y-91547500D01*
X80626825Y-86243551D01*
X80698911Y-86243551D01*
X80698911Y-86243550D01*
X80837002Y-86203004D01*
X80958077Y-86125194D01*
X81052326Y-86016424D01*
X81112114Y-85885508D01*
X81122458Y-85813553D01*
X81151482Y-85750000D01*
X81157500Y-85743535D01*
X81714218Y-85186819D01*
X81775541Y-85153334D01*
X81801899Y-85150500D01*
X81859174Y-85150500D01*
X81859190Y-85150499D01*
X81917299Y-85144251D01*
X82048778Y-85095212D01*
X82161116Y-85011116D01*
X82245212Y-84898778D01*
X82294251Y-84767299D01*
X82298701Y-84725908D01*
X82300499Y-84709190D01*
X82300500Y-84709173D01*
X82300500Y-84473051D01*
X82809500Y-84473051D01*
X82809500Y-85015659D01*
G37*
%TD.AperFunction*%
%TA.AperFunction,Conductor*%
G36*
X84547963Y-84485831D02*
G01*
X84573057Y-84505196D01*
X84660130Y-84592269D01*
X84693615Y-84653592D01*
X84696449Y-84679950D01*
X84696449Y-85033710D01*
X84681832Y-85092117D01*
X84410655Y-85599968D01*
X84402819Y-85612289D01*
X84401735Y-85614274D01*
X84401661Y-85614475D01*
X84394875Y-85629524D01*
X84394068Y-85631034D01*
X84394062Y-85631049D01*
X84369396Y-85698900D01*
X84368221Y-85703020D01*
X84365164Y-85712324D01*
X84353531Y-85743520D01*
X84352697Y-85745755D01*
X84346449Y-85803860D01*
X84346449Y-86497241D01*
X84352697Y-86555350D01*
X84385216Y-86642535D01*
X84401737Y-86686829D01*
X84401738Y-86686830D01*
X84401739Y-86686833D01*
X84468487Y-86775996D01*
X84492905Y-86841460D01*
X84478054Y-86909733D01*
X84434319Y-86955845D01*
X84373911Y-86993105D01*
X84252003Y-87115013D01*
X84208307Y-87185855D01*
X84156358Y-87232579D01*
X84087396Y-87243800D01*
X84023314Y-87215956D01*
X84005502Y-87197667D01*
X84004942Y-87196959D01*
X83883038Y-87075055D01*
X83883034Y-87075052D01*
X83736311Y-86984551D01*
X83736302Y-86984547D01*
X83704850Y-86974125D01*
X83647406Y-86934352D01*
X83620583Y-86869836D01*
X83632898Y-86801060D01*
X83669542Y-86757153D01*
X83771116Y-86681116D01*
X83855212Y-86568778D01*
X83904251Y-86437299D01*
X83910499Y-86379190D01*
X83910500Y-86379173D01*
X83910500Y-85785826D01*
X83910499Y-85785809D01*
X83904251Y-85727702D01*
X83904250Y-85727700D01*
X83877095Y-85654894D01*
X83869650Y-85634932D01*
X83867156Y-85627545D01*
X83862571Y-85612406D01*
X83862087Y-85611501D01*
X83855285Y-85596418D01*
X83855212Y-85596222D01*
X83855210Y-85596219D01*
X83855210Y-85596218D01*
X83854127Y-85594235D01*
X83846287Y-85581909D01*
X83575117Y-85074067D01*
X83560500Y-85015660D01*
X83560500Y-84473051D01*
X84526105Y-84473051D01*
X84547963Y-84485831D01*
G37*
%TD.AperFunction*%
%TA.AperFunction,Conductor*%
G36*
X80849500Y-84709190D02*
G01*
X80855749Y-84767300D01*
X80855749Y-84767301D01*
X80886554Y-84849893D01*
X80891538Y-84919585D01*
X80858053Y-84980907D01*
X80632550Y-85206411D01*
X80626897Y-85209497D01*
X80626949Y-84473051D01*
X80849500Y-84473051D01*
X80849500Y-84709190D01*
G37*
%TD.AperFunction*%
%TD*%
%TA.AperFunction,Conductor*%
%TO.N,GND*%
G36*
X55376783Y-94775507D02*
G01*
X55436571Y-94906422D01*
X55436572Y-94906424D01*
X55530821Y-95015194D01*
X55651896Y-95093004D01*
X55651899Y-95093005D01*
X55651898Y-95093005D01*
X55789985Y-95133550D01*
X55789987Y-95133551D01*
X55789988Y-95133551D01*
X55933911Y-95133551D01*
X55933911Y-95133550D01*
X56072002Y-95093004D01*
X56193077Y-95015194D01*
X56287326Y-94906424D01*
X56347114Y-94775508D01*
X56367596Y-94633051D01*
X64679500Y-94633051D01*
X64679500Y-95189190D01*
X64685748Y-95247295D01*
X64685750Y-95247303D01*
X64720346Y-95340060D01*
X64722838Y-95347441D01*
X64727427Y-95362590D01*
X64727432Y-95362601D01*
X64727916Y-95363508D01*
X64734710Y-95378570D01*
X64734787Y-95378778D01*
X64735872Y-95380765D01*
X64743712Y-95393090D01*
X64751949Y-95408515D01*
X64751949Y-106525687D01*
X64690637Y-106479789D01*
X64690635Y-106479788D01*
X64664001Y-106469854D01*
X64559156Y-106430748D01*
X64501047Y-106424500D01*
X64501031Y-106424500D01*
X63907683Y-106424500D01*
X63907666Y-106424500D01*
X63849557Y-106430748D01*
X63718076Y-106479789D01*
X63605741Y-106563884D01*
X63521646Y-106676219D01*
X63472605Y-106807700D01*
X63466357Y-106865809D01*
X63466357Y-107434190D01*
X63472605Y-107492299D01*
X63490871Y-107541270D01*
X63521645Y-107623778D01*
X63605741Y-107736116D01*
X63718079Y-107820212D01*
X63807599Y-107853601D01*
X63849557Y-107869251D01*
X63907666Y-107875499D01*
X63907683Y-107875500D01*
X64501031Y-107875500D01*
X64501047Y-107875499D01*
X64551607Y-107870062D01*
X64559156Y-107869251D01*
X64581758Y-107860820D01*
X64608179Y-107854160D01*
X64612225Y-107853602D01*
X64612234Y-107853602D01*
X64751949Y-107820141D01*
X64751949Y-108603051D01*
X56427596Y-108603051D01*
X56407114Y-108460594D01*
X56347326Y-108329678D01*
X56253077Y-108220908D01*
X56132002Y-108143098D01*
X56132000Y-108143097D01*
X56131998Y-108143096D01*
X56131999Y-108143096D01*
X55993912Y-108102551D01*
X55993910Y-108102551D01*
X55849988Y-108102551D01*
X55849985Y-108102551D01*
X55711898Y-108143096D01*
X55590822Y-108220907D01*
X55496572Y-108329677D01*
X55496571Y-108329679D01*
X55436783Y-108460594D01*
X55416302Y-108603050D01*
X55416302Y-108603051D01*
X54591949Y-108603051D01*
X54591949Y-103481953D01*
X54845646Y-103856481D01*
X54859163Y-103882688D01*
X54901737Y-103996829D01*
X54985833Y-104109167D01*
X55098171Y-104193263D01*
X55190543Y-104227716D01*
X55229649Y-104242302D01*
X55287758Y-104248550D01*
X55287775Y-104248551D01*
X55981123Y-104248551D01*
X55981139Y-104248550D01*
X56039248Y-104242302D01*
X56170727Y-104193263D01*
X56283065Y-104109167D01*
X56367161Y-103996829D01*
X56416200Y-103865350D01*
X56417154Y-103856481D01*
X56422448Y-103807241D01*
X56422449Y-103807224D01*
X56422449Y-103238877D01*
X56422448Y-103238860D01*
X56416200Y-103180751D01*
X56401614Y-103141645D01*
X56367161Y-103049273D01*
X56283065Y-102936935D01*
X56215561Y-102886402D01*
X56170729Y-102852840D01*
X56170727Y-102852839D01*
X56144093Y-102842905D01*
X56039248Y-102803799D01*
X55981139Y-102797551D01*
X55981123Y-102797551D01*
X55796996Y-102797551D01*
X55767403Y-102793322D01*
X55767378Y-102793458D01*
X55764278Y-102792875D01*
X55762266Y-102792588D01*
X55761393Y-102792333D01*
X55001585Y-102725653D01*
X54936524Y-102700183D01*
X54924745Y-102689809D01*
X54624094Y-102389158D01*
X54604729Y-102364064D01*
X54591949Y-102342205D01*
X54591949Y-94633051D01*
X55356302Y-94633051D01*
X55376783Y-94775507D01*
G37*
%TD.AperFunction*%
%TD*%
%TA.AperFunction,Conductor*%
%TO.N,/MCU/RST*%
G36*
X115773540Y-86469796D02*
G01*
X115779849Y-86476152D01*
X115780341Y-86483555D01*
X115679238Y-86869317D01*
X115673825Y-86876451D01*
X115667920Y-86878051D01*
X115435978Y-86878051D01*
X115427705Y-86874624D01*
X115424660Y-86869317D01*
X115323556Y-86483555D01*
X115324774Y-86474684D01*
X115330355Y-86469797D01*
X115547433Y-86378940D01*
X115556386Y-86378908D01*
X115773540Y-86469796D01*
G37*
%TD.AperFunction*%
%TD*%
%TA.AperFunction,Conductor*%
%TO.N,/MCU/TCK*%
G36*
X114698814Y-93272641D02*
G01*
X114915460Y-93361444D01*
X114919328Y-93364029D01*
X115085536Y-93531572D01*
X115088930Y-93539859D01*
X115085521Y-93548067D01*
X114776924Y-93857990D01*
X114768658Y-93861435D01*
X114760378Y-93858026D01*
X114596419Y-93694067D01*
X114592992Y-93685794D01*
X114593271Y-93683253D01*
X114682960Y-93280921D01*
X114688105Y-93273593D01*
X114696926Y-93272048D01*
X114698814Y-93272641D01*
G37*
%TD.AperFunction*%
%TD*%
%TA.AperFunction,Conductor*%
%TO.N,Net-(U6-CISEN)*%
G36*
X64631524Y-106753163D02*
G01*
X65162733Y-107204547D01*
X65166819Y-107212515D01*
X65166857Y-107213462D01*
X65166857Y-107448822D01*
X65163430Y-107457095D01*
X65157882Y-107460200D01*
X64552727Y-107605128D01*
X64543883Y-107603722D01*
X64540634Y-107600759D01*
X64246793Y-107208051D01*
X64209551Y-107158279D01*
X64207339Y-107149603D01*
X64210812Y-107142836D01*
X64615845Y-106753642D01*
X64624182Y-106750382D01*
X64631524Y-106753163D01*
G37*
%TD.AperFunction*%
%TD*%
%TA.AperFunction,Conductor*%
%TO.N,/MCU/ONOFF*%
G36*
X116408540Y-102979796D02*
G01*
X116414849Y-102986152D01*
X116415341Y-102993555D01*
X116314238Y-103379317D01*
X116308825Y-103386451D01*
X116302920Y-103388051D01*
X116070978Y-103388051D01*
X116062705Y-103384624D01*
X116059660Y-103379317D01*
X115958556Y-102993555D01*
X115959774Y-102984684D01*
X115965355Y-102979797D01*
X116182433Y-102888940D01*
X116191386Y-102888908D01*
X116408540Y-102979796D01*
G37*
%TD.AperFunction*%
%TD*%
%TA.AperFunction,Conductor*%
%TO.N,/MCU/SDATA*%
G36*
X69053216Y-102125762D02*
G01*
X69060349Y-102131174D01*
X69061949Y-102137079D01*
X69061949Y-102369022D01*
X69058522Y-102377295D01*
X69053215Y-102380340D01*
X68667453Y-102481443D01*
X68658582Y-102480225D01*
X68653694Y-102474642D01*
X68562838Y-102257566D01*
X68562806Y-102248614D01*
X68653695Y-102031457D01*
X68660050Y-102025150D01*
X68667453Y-102024658D01*
X69053216Y-102125762D01*
G37*
%TD.AperFunction*%
%TD*%
%TA.AperFunction,Conductor*%
%TO.N,Net-(U5-BISEN)*%
G36*
X92717007Y-93626743D02*
G01*
X93158694Y-93957231D01*
X93163266Y-93964931D01*
X93161880Y-93972339D01*
X92820305Y-94579040D01*
X92813260Y-94584568D01*
X92810110Y-94585000D01*
X92574148Y-94585000D01*
X92565875Y-94581573D01*
X92563704Y-94578574D01*
X92257501Y-93972146D01*
X92256832Y-93963218D01*
X92260934Y-93957508D01*
X92702991Y-93626743D01*
X92711668Y-93624531D01*
X92717007Y-93626743D01*
G37*
%TD.AperFunction*%
%TD*%
%TA.AperFunction,Conductor*%
%TO.N,Net-(U1-P8.2)*%
G36*
X124184574Y-90385664D02*
G01*
X124528843Y-90586949D01*
X124534256Y-90594083D01*
X124533764Y-90601486D01*
X124444513Y-90819226D01*
X124438204Y-90825582D01*
X124438124Y-90825615D01*
X124220384Y-90914866D01*
X124211430Y-90914833D01*
X124205847Y-90909945D01*
X124004562Y-90565677D01*
X124003345Y-90556809D01*
X124006388Y-90551504D01*
X124170401Y-90387491D01*
X124178673Y-90384065D01*
X124184574Y-90385664D01*
G37*
%TD.AperFunction*%
%TD*%
%TA.AperFunction,Conductor*%
%TO.N,Net-(U6-CISEN)*%
G36*
X65925315Y-107105876D02*
G01*
X65930203Y-107111459D01*
X66021058Y-107328534D01*
X66021091Y-107337488D01*
X66021058Y-107337568D01*
X65930203Y-107554642D01*
X65923847Y-107560951D01*
X65916444Y-107561443D01*
X65530683Y-107460340D01*
X65523549Y-107454927D01*
X65521949Y-107449022D01*
X65521949Y-107217079D01*
X65525376Y-107208806D01*
X65530680Y-107205762D01*
X65916444Y-107104658D01*
X65925315Y-107105876D01*
G37*
%TD.AperFunction*%
%TD*%
%TA.AperFunction,Conductor*%
%TO.N,/MCU/PUMP_RELAY*%
G36*
X111520383Y-94541234D02*
G01*
X111738124Y-94630486D01*
X111744480Y-94636795D01*
X111744513Y-94636875D01*
X111833764Y-94854615D01*
X111833731Y-94863569D01*
X111828843Y-94869152D01*
X111484578Y-95070436D01*
X111475707Y-95071654D01*
X111470400Y-95068609D01*
X111306390Y-94904599D01*
X111302963Y-94896326D01*
X111304561Y-94890425D01*
X111505848Y-94546154D01*
X111512981Y-94540743D01*
X111520383Y-94541234D01*
G37*
%TD.AperFunction*%
%TD*%
%TA.AperFunction,Conductor*%
%TO.N,Net-(U5-BISEN)*%
G36*
X92816193Y-94771478D02*
G01*
X92819238Y-94776785D01*
X92920341Y-95162546D01*
X92919123Y-95171417D01*
X92913540Y-95176305D01*
X92696466Y-95267160D01*
X92687512Y-95267193D01*
X92687432Y-95267160D01*
X92470357Y-95176305D01*
X92464048Y-95169949D01*
X92463556Y-95162546D01*
X92564660Y-94776785D01*
X92570073Y-94769651D01*
X92575978Y-94768051D01*
X92807920Y-94768051D01*
X92816193Y-94771478D01*
G37*
%TD.AperFunction*%
%TD*%
%TA.AperFunction,Conductor*%
%TO.N,/MCU/JTAG_VCC*%
G36*
X98043497Y-101817492D02*
G01*
X98207507Y-101981502D01*
X98210934Y-101989775D01*
X98209334Y-101995680D01*
X98008050Y-102339945D01*
X98000916Y-102345358D01*
X97993513Y-102344866D01*
X97775773Y-102255615D01*
X97769417Y-102249306D01*
X97769384Y-102249226D01*
X97680133Y-102031486D01*
X97680166Y-102022532D01*
X97685052Y-102016950D01*
X98029322Y-101815664D01*
X98038190Y-101814447D01*
X98043497Y-101817492D01*
G37*
%TD.AperFunction*%
%TD*%
%TA.AperFunction,Conductor*%
%TO.N,Net-(U1-P8.2)*%
G36*
X116043216Y-84980762D02*
G01*
X116050349Y-84986174D01*
X116051949Y-84992079D01*
X116051949Y-85224022D01*
X116048522Y-85232295D01*
X116043215Y-85235340D01*
X115657453Y-85336443D01*
X115648582Y-85335225D01*
X115643694Y-85329642D01*
X115552838Y-85112566D01*
X115552806Y-85103614D01*
X115643695Y-84886457D01*
X115650050Y-84880150D01*
X115657453Y-84879658D01*
X116043216Y-84980762D01*
G37*
%TD.AperFunction*%
%TD*%
%TA.AperFunction,Conductor*%
%TO.N,/Motor Driver 2/VREF2*%
G36*
X54187467Y-102161268D02*
G01*
X54193050Y-102166156D01*
X54394334Y-102510422D01*
X54395552Y-102519292D01*
X54392507Y-102524599D01*
X54228497Y-102688609D01*
X54220224Y-102692036D01*
X54214320Y-102690436D01*
X53870054Y-102489152D01*
X53864641Y-102482018D01*
X53865132Y-102474616D01*
X53954385Y-102256873D01*
X53960692Y-102250519D01*
X54178514Y-102161235D01*
X54187467Y-102161268D01*
G37*
%TD.AperFunction*%
%TD*%
%TA.AperFunction,Conductor*%
%TO.N,Net-(U1-P8.3)*%
G36*
X113503216Y-85615762D02*
G01*
X113510349Y-85621174D01*
X113511949Y-85627079D01*
X113511949Y-85859022D01*
X113508522Y-85867295D01*
X113503215Y-85870340D01*
X113117453Y-85971443D01*
X113108582Y-85970225D01*
X113103694Y-85964642D01*
X113012838Y-85747566D01*
X113012806Y-85738614D01*
X113103695Y-85521457D01*
X113110050Y-85515150D01*
X113117453Y-85514658D01*
X113503216Y-85615762D01*
G37*
%TD.AperFunction*%
%TD*%
%TA.AperFunction,Conductor*%
%TO.N,/MCU/nRESET*%
G36*
X88785315Y-100120876D02*
G01*
X88790203Y-100126459D01*
X88881058Y-100343534D01*
X88881091Y-100352488D01*
X88881058Y-100352568D01*
X88790203Y-100569642D01*
X88783847Y-100575951D01*
X88776444Y-100576443D01*
X88390683Y-100475340D01*
X88383549Y-100469927D01*
X88381949Y-100464022D01*
X88381949Y-100232079D01*
X88385376Y-100223806D01*
X88390680Y-100220762D01*
X88776444Y-100119658D01*
X88785315Y-100120876D01*
G37*
%TD.AperFunction*%
%TD*%
%TA.AperFunction,Conductor*%
%TO.N,/MCU/nRESET*%
G36*
X70323216Y-100220762D02*
G01*
X70330349Y-100226174D01*
X70331949Y-100232079D01*
X70331949Y-100464022D01*
X70328522Y-100472295D01*
X70323215Y-100475340D01*
X69937453Y-100576443D01*
X69928582Y-100575225D01*
X69923694Y-100569642D01*
X69832838Y-100352566D01*
X69832806Y-100343614D01*
X69923695Y-100126457D01*
X69930050Y-100120150D01*
X69937453Y-100119658D01*
X70323216Y-100220762D01*
G37*
%TD.AperFunction*%
%TD*%
%TA.AperFunction,Conductor*%
%TO.N,Net-(U6-BISEN)*%
G36*
X65529244Y-96023427D02*
G01*
X65532289Y-96028734D01*
X65633392Y-96414495D01*
X65632174Y-96423366D01*
X65626591Y-96428254D01*
X65409517Y-96519109D01*
X65400563Y-96519142D01*
X65400483Y-96519109D01*
X65183408Y-96428254D01*
X65177099Y-96421898D01*
X65176607Y-96414495D01*
X65277711Y-96028734D01*
X65283124Y-96021600D01*
X65289029Y-96020000D01*
X65520971Y-96020000D01*
X65529244Y-96023427D01*
G37*
%TD.AperFunction*%
%TD*%
%TA.AperFunction,Conductor*%
%TO.N,/MCU/JTAG_VCC*%
G36*
X99272144Y-100578218D02*
G01*
X99674209Y-100978909D01*
X99677650Y-100987175D01*
X99677650Y-100987209D01*
X99677086Y-101452928D01*
X99673649Y-101461197D01*
X99666696Y-101464540D01*
X99501238Y-101483183D01*
X99375276Y-101527257D01*
X99369922Y-101527818D01*
X98757126Y-101449118D01*
X98750343Y-101445786D01*
X98584577Y-101280020D01*
X98581150Y-101271747D01*
X98584491Y-101263562D01*
X99255600Y-100578388D01*
X99263836Y-100574877D01*
X99272144Y-100578218D01*
G37*
%TD.AperFunction*%
%TD*%
%TA.AperFunction,Conductor*%
%TO.N,/Motor Driver 1/VREF1*%
G36*
X84667467Y-83746268D02*
G01*
X84673050Y-83751156D01*
X84874334Y-84095422D01*
X84875552Y-84104292D01*
X84872507Y-84109599D01*
X84708497Y-84273609D01*
X84700224Y-84277036D01*
X84694320Y-84275436D01*
X84350054Y-84074152D01*
X84344641Y-84067018D01*
X84345132Y-84059616D01*
X84434385Y-83841873D01*
X84440692Y-83835519D01*
X84658514Y-83746235D01*
X84667467Y-83746268D01*
G37*
%TD.AperFunction*%
%TD*%
%TA.AperFunction,Conductor*%
%TO.N,/MCU/RST*%
G36*
X101203699Y-105537887D02*
G01*
X102108353Y-105934980D01*
X102114550Y-105941442D01*
X102115349Y-105945692D01*
X102115349Y-106180409D01*
X102111922Y-106188682D01*
X102108352Y-106191122D01*
X101181435Y-106597986D01*
X101172482Y-106598174D01*
X101166019Y-106591976D01*
X101165930Y-106591767D01*
X100994777Y-106180409D01*
X100947817Y-106067543D01*
X100947804Y-106058592D01*
X101157378Y-105554889D01*
X101163719Y-105548569D01*
X101164271Y-105548358D01*
X101195137Y-105537558D01*
X101203699Y-105537887D01*
G37*
%TD.AperFunction*%
%TD*%
%TA.AperFunction,Conductor*%
%TO.N,/MCU/SCLK*%
G36*
X87468216Y-101490762D02*
G01*
X87475349Y-101496174D01*
X87476949Y-101502079D01*
X87476949Y-101734022D01*
X87473522Y-101742295D01*
X87468215Y-101745340D01*
X87082453Y-101846443D01*
X87073582Y-101845225D01*
X87068694Y-101839642D01*
X86977838Y-101622566D01*
X86977806Y-101613614D01*
X87068695Y-101396457D01*
X87075050Y-101390150D01*
X87082453Y-101389658D01*
X87468216Y-101490762D01*
G37*
%TD.AperFunction*%
%TD*%
%TA.AperFunction,Conductor*%
%TO.N,/MCU/nSLEEP*%
G36*
X88738216Y-100855762D02*
G01*
X88745349Y-100861174D01*
X88746949Y-100867079D01*
X88746949Y-101099022D01*
X88743522Y-101107295D01*
X88738215Y-101110340D01*
X88352453Y-101211443D01*
X88343582Y-101210225D01*
X88338694Y-101204642D01*
X88247838Y-100987566D01*
X88247806Y-100978614D01*
X88338695Y-100761457D01*
X88345050Y-100755150D01*
X88352453Y-100754658D01*
X88738216Y-100855762D01*
G37*
%TD.AperFunction*%
%TD*%
%TA.AperFunction,Conductor*%
%TO.N,/MCU/SCLK*%
G36*
X70323216Y-101490762D02*
G01*
X70330349Y-101496174D01*
X70331949Y-101502079D01*
X70331949Y-101734022D01*
X70328522Y-101742295D01*
X70323215Y-101745340D01*
X69937453Y-101846443D01*
X69928582Y-101845225D01*
X69923694Y-101839642D01*
X69832838Y-101622566D01*
X69832806Y-101613614D01*
X69923695Y-101396457D01*
X69930050Y-101390150D01*
X69937453Y-101389658D01*
X70323216Y-101490762D01*
G37*
%TD.AperFunction*%
%TD*%
%TA.AperFunction,Conductor*%
%TO.N,Net-(U1-P8.3)*%
G36*
X122279574Y-90385664D02*
G01*
X122623843Y-90586949D01*
X122629256Y-90594083D01*
X122628764Y-90601486D01*
X122539513Y-90819226D01*
X122533204Y-90825582D01*
X122533124Y-90825615D01*
X122315384Y-90914866D01*
X122306430Y-90914833D01*
X122300847Y-90909945D01*
X122099562Y-90565677D01*
X122098345Y-90556809D01*
X122101388Y-90551504D01*
X122265401Y-90387491D01*
X122273673Y-90384065D01*
X122279574Y-90385664D01*
G37*
%TD.AperFunction*%
%TD*%
%TA.AperFunction,Conductor*%
%TO.N,Net-(U5-DISEN)*%
G36*
X83343670Y-83911016D02*
G01*
X83388916Y-83929954D01*
X83395225Y-83936310D01*
X83395827Y-83943254D01*
X83312017Y-84325267D01*
X83306897Y-84332614D01*
X83300589Y-84334460D01*
X83068627Y-84334460D01*
X83060354Y-84331033D01*
X83057450Y-84326219D01*
X82939120Y-83943871D01*
X82939948Y-83934955D01*
X82945778Y-83929620D01*
X83162433Y-83838940D01*
X83171386Y-83838908D01*
X83343670Y-83911016D01*
G37*
%TD.AperFunction*%
%TD*%
%TA.AperFunction,Conductor*%
%TO.N,/MCU/SDATA*%
G36*
X111328540Y-85834796D02*
G01*
X111334849Y-85841152D01*
X111335341Y-85848555D01*
X111234238Y-86234317D01*
X111228825Y-86241451D01*
X111222920Y-86243051D01*
X110990978Y-86243051D01*
X110982705Y-86239624D01*
X110979660Y-86234317D01*
X110878556Y-85848555D01*
X110879774Y-85839684D01*
X110885355Y-85834797D01*
X111102433Y-85743940D01*
X111111386Y-85743908D01*
X111328540Y-85834796D01*
G37*
%TD.AperFunction*%
%TD*%
%TA.AperFunction,Conductor*%
%TO.N,/MCU/TMS*%
G36*
X113425383Y-93906234D02*
G01*
X113643124Y-93995486D01*
X113649480Y-94001795D01*
X113649513Y-94001875D01*
X113738764Y-94219615D01*
X113738731Y-94228569D01*
X113733843Y-94234152D01*
X113389578Y-94435436D01*
X113380707Y-94436654D01*
X113375400Y-94433609D01*
X113211390Y-94269599D01*
X113207963Y-94261326D01*
X113209561Y-94255425D01*
X113410848Y-93911154D01*
X113417981Y-93905743D01*
X113425383Y-93906234D01*
G37*
%TD.AperFunction*%
%TD*%
%TA.AperFunction,Conductor*%
%TO.N,Net-(U5-CISEN)*%
G36*
X82557007Y-93626743D02*
G01*
X82998877Y-93957368D01*
X83003449Y-93965068D01*
X83002189Y-93972247D01*
X82678305Y-94578811D01*
X82671385Y-94584495D01*
X82667984Y-94585000D01*
X82432016Y-94585000D01*
X82423743Y-94581573D01*
X82421695Y-94578811D01*
X82097810Y-93972247D01*
X82096936Y-93963335D01*
X82101120Y-93957369D01*
X82542991Y-93626743D01*
X82551668Y-93624531D01*
X82557007Y-93626743D01*
G37*
%TD.AperFunction*%
%TD*%
%TA.AperFunction,Conductor*%
%TO.N,Net-(U5-AISEN)*%
G36*
X92734672Y-85250780D02*
G01*
X92738450Y-85253309D01*
X92904146Y-85419005D01*
X92907573Y-85427278D01*
X92906657Y-85431817D01*
X92554504Y-86268548D01*
X92548136Y-86274844D01*
X92539262Y-86274826D01*
X92078996Y-86085145D01*
X92072653Y-86078825D01*
X92072515Y-86078477D01*
X91894738Y-85605610D01*
X91895035Y-85596662D01*
X91901229Y-85590678D01*
X92725718Y-85250765D01*
X92734672Y-85250780D01*
G37*
%TD.AperFunction*%
%TD*%
%TA.AperFunction,Conductor*%
%TO.N,/MCU/TDI*%
G36*
X115965383Y-94541234D02*
G01*
X116183124Y-94630486D01*
X116189480Y-94636795D01*
X116189513Y-94636875D01*
X116278764Y-94854615D01*
X116278731Y-94863569D01*
X116273843Y-94869152D01*
X115929578Y-95070436D01*
X115920707Y-95071654D01*
X115915400Y-95068609D01*
X115751390Y-94904599D01*
X115747963Y-94896326D01*
X115749561Y-94890425D01*
X115950848Y-94546154D01*
X115957981Y-94540743D01*
X115965383Y-94541234D01*
G37*
%TD.AperFunction*%
%TD*%
%TA.AperFunction,Conductor*%
%TO.N,/MCU/nSLEEP*%
G36*
X109105315Y-88690876D02*
G01*
X109110203Y-88696459D01*
X109201058Y-88913534D01*
X109201091Y-88922488D01*
X109201058Y-88922568D01*
X109110203Y-89139642D01*
X109103847Y-89145951D01*
X109096444Y-89146443D01*
X108710683Y-89045340D01*
X108703549Y-89039927D01*
X108701949Y-89034022D01*
X108701949Y-88802079D01*
X108705376Y-88793806D01*
X108710680Y-88790762D01*
X109096444Y-88689658D01*
X109105315Y-88690876D01*
G37*
%TD.AperFunction*%
%TD*%
%TA.AperFunction,Conductor*%
%TO.N,/MCU/TDO*%
G36*
X101203699Y-102997887D02*
G01*
X102108353Y-103394980D01*
X102114550Y-103401442D01*
X102115349Y-103405692D01*
X102115349Y-103640409D01*
X102111922Y-103648682D01*
X102108352Y-103651122D01*
X101203702Y-104048212D01*
X101195135Y-104048542D01*
X101164315Y-104037757D01*
X101157638Y-104031790D01*
X101157377Y-104031208D01*
X100947818Y-103527544D01*
X100947804Y-103518592D01*
X101157377Y-103014891D01*
X101163719Y-103008570D01*
X101164295Y-103008350D01*
X101195138Y-102997558D01*
X101203699Y-102997887D01*
G37*
%TD.AperFunction*%
%TD*%
%TA.AperFunction,Conductor*%
%TO.N,Net-(U6-BISEN)*%
G36*
X65412007Y-94896743D02*
G01*
X65853877Y-95227368D01*
X65858449Y-95235068D01*
X65857189Y-95242247D01*
X65533305Y-95848811D01*
X65526385Y-95854495D01*
X65522984Y-95855000D01*
X65287016Y-95855000D01*
X65278743Y-95851573D01*
X65276695Y-95848811D01*
X64952810Y-95242247D01*
X64951936Y-95233335D01*
X64956120Y-95227369D01*
X65397991Y-94896743D01*
X65406668Y-94894531D01*
X65412007Y-94896743D01*
G37*
%TD.AperFunction*%
%TD*%
%TA.AperFunction,Conductor*%
%TO.N,/MCU/ONOFF*%
G36*
X106933497Y-98007492D02*
G01*
X107097507Y-98171502D01*
X107100934Y-98179775D01*
X107099334Y-98185680D01*
X106898050Y-98529945D01*
X106890916Y-98535358D01*
X106883513Y-98534866D01*
X106665773Y-98445615D01*
X106659417Y-98439306D01*
X106659384Y-98439226D01*
X106570133Y-98221486D01*
X106570166Y-98212532D01*
X106575052Y-98206950D01*
X106919322Y-98005664D01*
X106928190Y-98004447D01*
X106933497Y-98007492D01*
G37*
%TD.AperFunction*%
%TD*%
%TA.AperFunction,Conductor*%
%TO.N,/MCU/SSTB*%
G36*
X85610315Y-102660876D02*
G01*
X85615203Y-102666459D01*
X85706058Y-102883534D01*
X85706091Y-102892488D01*
X85706058Y-102892568D01*
X85615203Y-103109642D01*
X85608847Y-103115951D01*
X85601444Y-103116443D01*
X85215683Y-103015340D01*
X85208549Y-103009927D01*
X85206949Y-103004022D01*
X85206949Y-102772079D01*
X85210376Y-102763806D01*
X85215680Y-102760762D01*
X85601444Y-102659658D01*
X85610315Y-102660876D01*
G37*
%TD.AperFunction*%
%TD*%
%TA.AperFunction,Conductor*%
%TO.N,/MCU/nSLEEP*%
G36*
X71593216Y-100855762D02*
G01*
X71600349Y-100861174D01*
X71601949Y-100867079D01*
X71601949Y-101099022D01*
X71598522Y-101107295D01*
X71593215Y-101110340D01*
X71207453Y-101211443D01*
X71198582Y-101210225D01*
X71193694Y-101204642D01*
X71102838Y-100987566D01*
X71102806Y-100978614D01*
X71193695Y-100761457D01*
X71200050Y-100755150D01*
X71207453Y-100754658D01*
X71593216Y-100855762D01*
G37*
%TD.AperFunction*%
%TD*%
%TA.AperFunction,Conductor*%
%TO.N,/MCU/ONOFF*%
G36*
X115188497Y-108167492D02*
G01*
X115352507Y-108331502D01*
X115355934Y-108339775D01*
X115354334Y-108345680D01*
X115153050Y-108689945D01*
X115145916Y-108695358D01*
X115138513Y-108694866D01*
X114920773Y-108605615D01*
X114914417Y-108599306D01*
X114914384Y-108599226D01*
X114825133Y-108381486D01*
X114825166Y-108372532D01*
X114830052Y-108366950D01*
X115174322Y-108165664D01*
X115183190Y-108164447D01*
X115188497Y-108167492D01*
G37*
%TD.AperFunction*%
%TD*%
%TA.AperFunction,Conductor*%
%TO.N,/MCU/T1IN*%
G36*
X116417467Y-88826268D02*
G01*
X116423050Y-88831156D01*
X116624334Y-89175422D01*
X116625552Y-89184292D01*
X116622507Y-89189599D01*
X116458497Y-89353609D01*
X116450224Y-89357036D01*
X116444320Y-89355436D01*
X116100054Y-89154152D01*
X116094641Y-89147018D01*
X116095132Y-89139616D01*
X116184385Y-88921873D01*
X116190692Y-88915519D01*
X116408514Y-88826235D01*
X116417467Y-88826268D01*
G37*
%TD.AperFunction*%
%TD*%
%TA.AperFunction,Conductor*%
%TO.N,/Motor Driver 1/VREF1*%
G36*
X85198206Y-85141478D02*
G01*
X85200254Y-85144240D01*
X85524448Y-85751383D01*
X85525322Y-85760295D01*
X85521744Y-85765775D01*
X85079566Y-86145018D01*
X85071055Y-86147803D01*
X85064332Y-86145018D01*
X84622153Y-85765775D01*
X84618104Y-85757788D01*
X84619448Y-85751385D01*
X84943644Y-85144239D01*
X84950564Y-85138556D01*
X84953965Y-85138051D01*
X85189933Y-85138051D01*
X85198206Y-85141478D01*
G37*
%TD.AperFunction*%
%TD*%
%TA.AperFunction,Conductor*%
%TO.N,/MCU/T1IN*%
G36*
X115188497Y-109437492D02*
G01*
X115352507Y-109601502D01*
X115355934Y-109609775D01*
X115354334Y-109615680D01*
X115153050Y-109959945D01*
X115145916Y-109965358D01*
X115138513Y-109964866D01*
X114920773Y-109875615D01*
X114914417Y-109869306D01*
X114914384Y-109869226D01*
X114825133Y-109651486D01*
X114825166Y-109642532D01*
X114830052Y-109636950D01*
X115174322Y-109435664D01*
X115183190Y-109434447D01*
X115188497Y-109437492D01*
G37*
%TD.AperFunction*%
%TD*%
%TA.AperFunction,Conductor*%
%TO.N,/MCU/B_CS*%
G36*
X69053216Y-99585762D02*
G01*
X69060349Y-99591174D01*
X69061949Y-99597079D01*
X69061949Y-99829022D01*
X69058522Y-99837295D01*
X69053215Y-99840340D01*
X68667453Y-99941443D01*
X68658582Y-99940225D01*
X68653694Y-99934642D01*
X68562838Y-99717566D01*
X68562806Y-99708614D01*
X68653695Y-99491457D01*
X68660050Y-99485150D01*
X68667453Y-99484658D01*
X69053216Y-99585762D01*
G37*
%TD.AperFunction*%
%TD*%
%TA.AperFunction,Conductor*%
%TO.N,/MCU/ONOFF*%
G36*
X114503540Y-87104796D02*
G01*
X114509849Y-87111152D01*
X114510341Y-87118555D01*
X114409238Y-87504317D01*
X114403825Y-87511451D01*
X114397920Y-87513051D01*
X114165978Y-87513051D01*
X114157705Y-87509624D01*
X114154660Y-87504317D01*
X114053556Y-87118555D01*
X114054774Y-87109684D01*
X114060355Y-87104797D01*
X114277433Y-87013940D01*
X114286386Y-87013908D01*
X114503540Y-87104796D01*
G37*
%TD.AperFunction*%
%TD*%
%TA.AperFunction,Conductor*%
%TO.N,Net-(U5-DISEN)*%
G36*
X83311257Y-85123427D02*
G01*
X83313305Y-85126189D01*
X83637189Y-85732752D01*
X83638063Y-85741664D01*
X83633877Y-85747631D01*
X83192009Y-86078255D01*
X83183332Y-86080468D01*
X83177991Y-86078255D01*
X82736122Y-85747631D01*
X82731550Y-85739931D01*
X82732810Y-85732752D01*
X83056695Y-85126189D01*
X83063615Y-85120505D01*
X83067016Y-85120000D01*
X83302984Y-85120000D01*
X83311257Y-85123427D01*
G37*
%TD.AperFunction*%
%TD*%
%TA.AperFunction,Conductor*%
%TO.N,/MCU/B_CS*%
G36*
X108345383Y-85651234D02*
G01*
X108563124Y-85740486D01*
X108569480Y-85746795D01*
X108569513Y-85746875D01*
X108658764Y-85964615D01*
X108658731Y-85973569D01*
X108653843Y-85979152D01*
X108309578Y-86180436D01*
X108300707Y-86181654D01*
X108295400Y-86178609D01*
X108131390Y-86014599D01*
X108127963Y-86006326D01*
X108129561Y-86000425D01*
X108330848Y-85656154D01*
X108337981Y-85650743D01*
X108345383Y-85651234D01*
G37*
%TD.AperFunction*%
%TD*%
%TA.AperFunction,Conductor*%
%TO.N,/MCU/TDO*%
G36*
X114060383Y-95176234D02*
G01*
X114278124Y-95265486D01*
X114284480Y-95271795D01*
X114284513Y-95271875D01*
X114373764Y-95489615D01*
X114373731Y-95498569D01*
X114368843Y-95504152D01*
X114024578Y-95705436D01*
X114015707Y-95706654D01*
X114010400Y-95703609D01*
X113846390Y-95539599D01*
X113842963Y-95531326D01*
X113844561Y-95525425D01*
X114045848Y-95181154D01*
X114052981Y-95175743D01*
X114060383Y-95176234D01*
G37*
%TD.AperFunction*%
%TD*%
%TA.AperFunction,Conductor*%
%TO.N,/MCU/SCLK*%
G36*
X86880315Y-101390876D02*
G01*
X86885203Y-101396459D01*
X86976058Y-101613534D01*
X86976091Y-101622488D01*
X86976058Y-101622568D01*
X86885203Y-101839642D01*
X86878847Y-101845951D01*
X86871444Y-101846443D01*
X86485683Y-101745340D01*
X86478549Y-101739927D01*
X86476949Y-101734022D01*
X86476949Y-101502079D01*
X86480376Y-101493806D01*
X86485680Y-101490762D01*
X86871444Y-101389658D01*
X86880315Y-101390876D01*
G37*
%TD.AperFunction*%
%TD*%
%TA.AperFunction,Conductor*%
%TO.N,/MCU/SSTB*%
G36*
X86198216Y-102760762D02*
G01*
X86205349Y-102766174D01*
X86206949Y-102772079D01*
X86206949Y-103004022D01*
X86203522Y-103012295D01*
X86198215Y-103015340D01*
X85812453Y-103116443D01*
X85803582Y-103115225D01*
X85798694Y-103109642D01*
X85707838Y-102892566D01*
X85707806Y-102883614D01*
X85798695Y-102666457D01*
X85805050Y-102660150D01*
X85812453Y-102659658D01*
X86198216Y-102760762D01*
G37*
%TD.AperFunction*%
%TD*%
%TA.AperFunction,Conductor*%
%TO.N,/MCU/SSTB*%
G36*
X111610866Y-88281717D02*
G01*
X111828607Y-88370969D01*
X111834963Y-88377278D01*
X111834996Y-88377358D01*
X111924247Y-88595098D01*
X111924214Y-88604052D01*
X111919326Y-88609635D01*
X111575061Y-88810919D01*
X111566190Y-88812137D01*
X111560883Y-88809092D01*
X111396873Y-88645082D01*
X111393446Y-88636809D01*
X111395044Y-88630908D01*
X111596331Y-88286637D01*
X111603464Y-88281226D01*
X111610866Y-88281717D01*
G37*
%TD.AperFunction*%
%TD*%
%TA.AperFunction,Conductor*%
%TO.N,/MCU/nSLEEP*%
G36*
X88150315Y-100755876D02*
G01*
X88155203Y-100761459D01*
X88246058Y-100978534D01*
X88246091Y-100987488D01*
X88246058Y-100987568D01*
X88155203Y-101204642D01*
X88148847Y-101210951D01*
X88141444Y-101211443D01*
X87755683Y-101110340D01*
X87748549Y-101104927D01*
X87746949Y-101099022D01*
X87746949Y-100867079D01*
X87750376Y-100858806D01*
X87755680Y-100855762D01*
X88141444Y-100754658D01*
X88150315Y-100755876D01*
G37*
%TD.AperFunction*%
%TD*%
%TA.AperFunction,Conductor*%
%TO.N,/MCU/SDATA*%
G36*
X86833216Y-102125762D02*
G01*
X86840349Y-102131174D01*
X86841949Y-102137079D01*
X86841949Y-102369022D01*
X86838522Y-102377295D01*
X86833215Y-102380340D01*
X86447453Y-102481443D01*
X86438582Y-102480225D01*
X86433694Y-102474642D01*
X86342838Y-102257566D01*
X86342806Y-102248614D01*
X86433695Y-102031457D01*
X86440050Y-102025150D01*
X86447453Y-102024658D01*
X86833216Y-102125762D01*
G37*
%TD.AperFunction*%
%TD*%
%TA.AperFunction,Conductor*%
%TO.N,/Motor Driver 2/VREF2*%
G36*
X54854896Y-102969263D02*
G01*
X55739058Y-103046856D01*
X55747000Y-103050993D01*
X55749690Y-103059534D01*
X55749394Y-103061317D01*
X55636489Y-103518361D01*
X55631178Y-103525571D01*
X55630129Y-103526133D01*
X55109205Y-103772322D01*
X55100261Y-103772759D01*
X55094520Y-103768307D01*
X54678103Y-103153563D01*
X54676302Y-103144793D01*
X54679516Y-103138732D01*
X54845603Y-102972645D01*
X54853875Y-102969219D01*
X54854896Y-102969263D01*
G37*
%TD.AperFunction*%
%TD*%
%TA.AperFunction,Conductor*%
%TO.N,/RS232 Transceiver/R1IN*%
G36*
X114695383Y-105971234D02*
G01*
X114913124Y-106060486D01*
X114919480Y-106066795D01*
X114919513Y-106066875D01*
X115008764Y-106284615D01*
X115008731Y-106293569D01*
X115003843Y-106299152D01*
X114659578Y-106500436D01*
X114650707Y-106501654D01*
X114645400Y-106498609D01*
X114481390Y-106334599D01*
X114477963Y-106326326D01*
X114479561Y-106320425D01*
X114680848Y-105976154D01*
X114687981Y-105970743D01*
X114695383Y-105971234D01*
G37*
%TD.AperFunction*%
%TD*%
%TA.AperFunction,Conductor*%
%TO.N,/MCU/R1OUT*%
G36*
X115147467Y-98986268D02*
G01*
X115153050Y-98991156D01*
X115354334Y-99335422D01*
X115355552Y-99344292D01*
X115352507Y-99349599D01*
X115188497Y-99513609D01*
X115180224Y-99517036D01*
X115174320Y-99515436D01*
X114830054Y-99314152D01*
X114824641Y-99307018D01*
X114825132Y-99299616D01*
X114914385Y-99081873D01*
X114920692Y-99075519D01*
X115138514Y-98986235D01*
X115147467Y-98986268D01*
G37*
%TD.AperFunction*%
%TD*%
%TA.AperFunction,Conductor*%
%TO.N,/MCU/nRESET*%
G36*
X108470315Y-88055876D02*
G01*
X108475203Y-88061459D01*
X108566058Y-88278534D01*
X108566091Y-88287488D01*
X108566058Y-88287568D01*
X108475203Y-88504642D01*
X108468847Y-88510951D01*
X108461444Y-88511443D01*
X108075683Y-88410340D01*
X108068549Y-88404927D01*
X108066949Y-88399022D01*
X108066949Y-88167079D01*
X108070376Y-88158806D01*
X108075680Y-88155762D01*
X108461444Y-88054658D01*
X108470315Y-88055876D01*
G37*
%TD.AperFunction*%
%TD*%
%TA.AperFunction,Conductor*%
%TO.N,/MCU/PUMP_RELAY*%
G36*
X106518216Y-99585762D02*
G01*
X106525349Y-99591174D01*
X106526949Y-99597079D01*
X106526949Y-99829022D01*
X106523522Y-99837295D01*
X106518215Y-99840340D01*
X106132453Y-99941443D01*
X106123582Y-99940225D01*
X106118694Y-99934642D01*
X106027838Y-99717566D01*
X106027806Y-99708614D01*
X106118695Y-99491457D01*
X106125050Y-99485150D01*
X106132453Y-99484658D01*
X106518216Y-99585762D01*
G37*
%TD.AperFunction*%
%TD*%
%TA.AperFunction,Conductor*%
%TO.N,/MCU/SDATA*%
G36*
X86245315Y-102025876D02*
G01*
X86250203Y-102031459D01*
X86341058Y-102248534D01*
X86341091Y-102257488D01*
X86341058Y-102257568D01*
X86250203Y-102474642D01*
X86243847Y-102480951D01*
X86236444Y-102481443D01*
X85850683Y-102380340D01*
X85843549Y-102374927D01*
X85841949Y-102369022D01*
X85841949Y-102137079D01*
X85845376Y-102128806D01*
X85850680Y-102125762D01*
X86236444Y-102024658D01*
X86245315Y-102025876D01*
G37*
%TD.AperFunction*%
%TD*%
%TA.AperFunction,Conductor*%
%TO.N,/MCU/nRESET*%
G36*
X89373216Y-100220762D02*
G01*
X89380349Y-100226174D01*
X89381949Y-100232079D01*
X89381949Y-100464022D01*
X89378522Y-100472295D01*
X89373215Y-100475340D01*
X88987453Y-100576443D01*
X88978582Y-100575225D01*
X88973694Y-100569642D01*
X88882838Y-100352566D01*
X88882806Y-100343614D01*
X88973695Y-100126457D01*
X88980050Y-100120150D01*
X88987453Y-100119658D01*
X89373216Y-100220762D01*
G37*
%TD.AperFunction*%
%TD*%
%TA.AperFunction,Conductor*%
%TO.N,Net-(U5-AISEN)*%
G36*
X93548540Y-83800296D02*
G01*
X93554849Y-83806652D01*
X93555341Y-83814055D01*
X93454238Y-84199817D01*
X93448825Y-84206951D01*
X93442920Y-84208551D01*
X93210978Y-84208551D01*
X93202705Y-84205124D01*
X93199660Y-84199817D01*
X93098556Y-83814055D01*
X93099774Y-83805184D01*
X93105355Y-83800297D01*
X93322433Y-83709440D01*
X93331386Y-83709408D01*
X93548540Y-83800296D01*
G37*
%TD.AperFunction*%
%TD*%
%TA.AperFunction,Conductor*%
%TO.N,/MCU/TCK*%
G36*
X101203699Y-101727887D02*
G01*
X102108353Y-102124980D01*
X102114550Y-102131442D01*
X102115349Y-102135692D01*
X102115349Y-102370409D01*
X102111922Y-102378682D01*
X102108352Y-102381122D01*
X101203702Y-102778212D01*
X101195135Y-102778542D01*
X101164314Y-102767757D01*
X101157637Y-102761790D01*
X101157383Y-102761223D01*
X100947817Y-102257543D01*
X100947804Y-102248592D01*
X101157377Y-101744891D01*
X101163719Y-101738570D01*
X101164295Y-101738350D01*
X101195138Y-101727558D01*
X101203699Y-101727887D01*
G37*
%TD.AperFunction*%
%TD*%
%TA.AperFunction,Conductor*%
%TO.N,/MCU/SCLK*%
G36*
X110058540Y-85834796D02*
G01*
X110064849Y-85841152D01*
X110065341Y-85848555D01*
X109964238Y-86234317D01*
X109958825Y-86241451D01*
X109952920Y-86243051D01*
X109720978Y-86243051D01*
X109712705Y-86239624D01*
X109709660Y-86234317D01*
X109608556Y-85848555D01*
X109609774Y-85839684D01*
X109615355Y-85834797D01*
X109832433Y-85743940D01*
X109841386Y-85743908D01*
X110058540Y-85834796D01*
G37*
%TD.AperFunction*%
%TD*%
%TA.AperFunction,Conductor*%
%TO.N,/MCU/A_CS*%
G36*
X113233540Y-87739796D02*
G01*
X113239849Y-87746152D01*
X113240341Y-87753555D01*
X113139238Y-88139317D01*
X113133825Y-88146451D01*
X113127920Y-88148051D01*
X112895978Y-88148051D01*
X112887705Y-88144624D01*
X112884660Y-88139317D01*
X112783556Y-87753555D01*
X112784774Y-87744684D01*
X112790355Y-87739797D01*
X113007433Y-87648940D01*
X113016386Y-87648908D01*
X113233540Y-87739796D01*
G37*
%TD.AperFunction*%
%TD*%
%TA.AperFunction,Conductor*%
%TO.N,/RS232 Transceiver/T1OUT*%
G36*
X114820315Y-104565876D02*
G01*
X114825203Y-104571459D01*
X114916058Y-104788534D01*
X114916091Y-104797488D01*
X114916058Y-104797568D01*
X114825203Y-105014642D01*
X114818847Y-105020951D01*
X114811444Y-105021443D01*
X114425683Y-104920340D01*
X114418549Y-104914927D01*
X114416949Y-104909022D01*
X114416949Y-104677079D01*
X114420376Y-104668806D01*
X114425680Y-104665762D01*
X114811444Y-104564658D01*
X114820315Y-104565876D01*
G37*
%TD.AperFunction*%
%TD*%
%TA.AperFunction,Conductor*%
%TO.N,/MCU/TMS*%
G36*
X101181226Y-100448026D02*
G01*
X101181423Y-100448110D01*
X102108353Y-100854980D01*
X102114550Y-100861442D01*
X102115349Y-100865692D01*
X102115349Y-101100409D01*
X102111922Y-101108682D01*
X102108352Y-101111122D01*
X101203702Y-101508212D01*
X101195135Y-101508542D01*
X101164314Y-101497757D01*
X101157637Y-101491790D01*
X101157383Y-101491223D01*
X100947817Y-100987543D01*
X100947804Y-100978592D01*
X101165931Y-100454332D01*
X101172272Y-100448012D01*
X101181226Y-100448026D01*
G37*
%TD.AperFunction*%
%TD*%
%TA.AperFunction,Conductor*%
%TO.N,Net-(U5-CISEN)*%
G36*
X82168497Y-94832492D02*
G01*
X82332507Y-94996502D01*
X82335934Y-95004775D01*
X82334334Y-95010680D01*
X82133050Y-95354945D01*
X82125916Y-95360358D01*
X82118513Y-95359866D01*
X81900773Y-95270615D01*
X81894417Y-95264306D01*
X81894384Y-95264226D01*
X81805133Y-95046486D01*
X81805166Y-95037532D01*
X81810052Y-95031950D01*
X82154322Y-94830664D01*
X82163190Y-94829447D01*
X82168497Y-94832492D01*
G37*
%TD.AperFunction*%
%TD*%
%TA.AperFunction,Conductor*%
%TO.N,/MCU/A_CS*%
G36*
X89373216Y-103395762D02*
G01*
X89380349Y-103401174D01*
X89381949Y-103407079D01*
X89381949Y-103639022D01*
X89378522Y-103647295D01*
X89373215Y-103650340D01*
X88987453Y-103751443D01*
X88978582Y-103750225D01*
X88973694Y-103744642D01*
X88882838Y-103527566D01*
X88882806Y-103518614D01*
X88973695Y-103301457D01*
X88980050Y-103295150D01*
X88987453Y-103294658D01*
X89373216Y-103395762D01*
G37*
%TD.AperFunction*%
%TD*%
%TA.AperFunction,Conductor*%
%TO.N,/MCU/SSTB*%
G36*
X67783216Y-102760762D02*
G01*
X67790349Y-102766174D01*
X67791949Y-102772079D01*
X67791949Y-103004022D01*
X67788522Y-103012295D01*
X67783215Y-103015340D01*
X67397453Y-103116443D01*
X67388582Y-103115225D01*
X67383694Y-103109642D01*
X67292838Y-102892566D01*
X67292806Y-102883614D01*
X67383695Y-102666457D01*
X67390050Y-102660150D01*
X67397453Y-102659658D01*
X67783216Y-102760762D01*
G37*
%TD.AperFunction*%
%TD*%
%TA.AperFunction,Conductor*%
%TO.N,/MCU/R1OUT*%
G36*
X115188497Y-106897492D02*
G01*
X115352507Y-107061502D01*
X115355934Y-107069775D01*
X115354334Y-107075680D01*
X115153050Y-107419945D01*
X115145916Y-107425358D01*
X115138513Y-107424866D01*
X114920773Y-107335615D01*
X114914417Y-107329306D01*
X114914384Y-107329226D01*
X114825133Y-107111486D01*
X114825166Y-107102532D01*
X114830052Y-107096950D01*
X115174322Y-106895664D01*
X115183190Y-106894447D01*
X115188497Y-106897492D01*
G37*
%TD.AperFunction*%
%TD*%
%TA.AperFunction,Conductor*%
%TO.N,/MCU/TDI*%
G36*
X101203699Y-104267887D02*
G01*
X102108353Y-104664980D01*
X102114550Y-104671442D01*
X102115349Y-104675692D01*
X102115349Y-104910409D01*
X102111922Y-104918682D01*
X102108352Y-104921122D01*
X101203702Y-105318212D01*
X101195135Y-105318542D01*
X101164315Y-105307757D01*
X101157638Y-105301790D01*
X101157377Y-105301208D01*
X100947818Y-104797544D01*
X100947804Y-104788592D01*
X101157378Y-104284889D01*
X101163719Y-104278569D01*
X101164271Y-104278358D01*
X101195137Y-104267558D01*
X101203699Y-104267887D01*
G37*
%TD.AperFunction*%
%TD*%
M02*
