%TF.GenerationSoftware,KiCad,Pcbnew,7.0.10*%
%TF.CreationDate,2025-02-18T11:07:04-08:00*%
%TF.ProjectId,flow-controller,666c6f77-2d63-46f6-9e74-726f6c6c6572,rev?*%
%TF.SameCoordinates,Original*%
%TF.FileFunction,Legend,Top*%
%TF.FilePolarity,Positive*%
%FSLAX46Y46*%
G04 Gerber Fmt 4.6, Leading zero omitted, Abs format (unit mm)*
G04 Created by KiCad (PCBNEW 7.0.10) date 2025-02-18 11:07:04*
%MOMM*%
%LPD*%
G01*
G04 APERTURE LIST*
%ADD10C,0.300000*%
%ADD11C,0.150000*%
%ADD12C,0.100000*%
%ADD13C,0.120000*%
G04 APERTURE END LIST*
D10*
X66594510Y-124895828D02*
X66594510Y-123395828D01*
X66594510Y-123395828D02*
X67165939Y-123395828D01*
X67165939Y-123395828D02*
X67308796Y-123467257D01*
X67308796Y-123467257D02*
X67380225Y-123538685D01*
X67380225Y-123538685D02*
X67451653Y-123681542D01*
X67451653Y-123681542D02*
X67451653Y-123895828D01*
X67451653Y-123895828D02*
X67380225Y-124038685D01*
X67380225Y-124038685D02*
X67308796Y-124110114D01*
X67308796Y-124110114D02*
X67165939Y-124181542D01*
X67165939Y-124181542D02*
X66594510Y-124181542D01*
X68094510Y-123395828D02*
X68094510Y-124610114D01*
X68094510Y-124610114D02*
X68165939Y-124752971D01*
X68165939Y-124752971D02*
X68237368Y-124824400D01*
X68237368Y-124824400D02*
X68380225Y-124895828D01*
X68380225Y-124895828D02*
X68665939Y-124895828D01*
X68665939Y-124895828D02*
X68808796Y-124824400D01*
X68808796Y-124824400D02*
X68880225Y-124752971D01*
X68880225Y-124752971D02*
X68951653Y-124610114D01*
X68951653Y-124610114D02*
X68951653Y-123395828D01*
X69665939Y-124895828D02*
X69665939Y-123395828D01*
X69665939Y-123395828D02*
X70165939Y-124467257D01*
X70165939Y-124467257D02*
X70665939Y-123395828D01*
X70665939Y-123395828D02*
X70665939Y-124895828D01*
X71380225Y-124895828D02*
X71380225Y-123395828D01*
X71380225Y-123395828D02*
X71951654Y-123395828D01*
X71951654Y-123395828D02*
X72094511Y-123467257D01*
X72094511Y-123467257D02*
X72165940Y-123538685D01*
X72165940Y-123538685D02*
X72237368Y-123681542D01*
X72237368Y-123681542D02*
X72237368Y-123895828D01*
X72237368Y-123895828D02*
X72165940Y-124038685D01*
X72165940Y-124038685D02*
X72094511Y-124110114D01*
X72094511Y-124110114D02*
X71951654Y-124181542D01*
X71951654Y-124181542D02*
X71380225Y-124181542D01*
X74880225Y-124895828D02*
X74380225Y-124181542D01*
X74023082Y-124895828D02*
X74023082Y-123395828D01*
X74023082Y-123395828D02*
X74594511Y-123395828D01*
X74594511Y-123395828D02*
X74737368Y-123467257D01*
X74737368Y-123467257D02*
X74808797Y-123538685D01*
X74808797Y-123538685D02*
X74880225Y-123681542D01*
X74880225Y-123681542D02*
X74880225Y-123895828D01*
X74880225Y-123895828D02*
X74808797Y-124038685D01*
X74808797Y-124038685D02*
X74737368Y-124110114D01*
X74737368Y-124110114D02*
X74594511Y-124181542D01*
X74594511Y-124181542D02*
X74023082Y-124181542D01*
X75523082Y-124110114D02*
X76023082Y-124110114D01*
X76237368Y-124895828D02*
X75523082Y-124895828D01*
X75523082Y-124895828D02*
X75523082Y-123395828D01*
X75523082Y-123395828D02*
X76237368Y-123395828D01*
X77594511Y-124895828D02*
X76880225Y-124895828D01*
X76880225Y-124895828D02*
X76880225Y-123395828D01*
X78023083Y-124467257D02*
X78737369Y-124467257D01*
X77880226Y-124895828D02*
X78380226Y-123395828D01*
X78380226Y-123395828D02*
X78880226Y-124895828D01*
X79665940Y-124181542D02*
X79665940Y-124895828D01*
X79165940Y-123395828D02*
X79665940Y-124181542D01*
X79665940Y-124181542D02*
X80165940Y-123395828D01*
X115036754Y-125248879D02*
X115036754Y-123748879D01*
X115036754Y-123748879D02*
X115608183Y-123748879D01*
X115608183Y-123748879D02*
X115751040Y-123820308D01*
X115751040Y-123820308D02*
X115822469Y-123891736D01*
X115822469Y-123891736D02*
X115893897Y-124034593D01*
X115893897Y-124034593D02*
X115893897Y-124248879D01*
X115893897Y-124248879D02*
X115822469Y-124391736D01*
X115822469Y-124391736D02*
X115751040Y-124463165D01*
X115751040Y-124463165D02*
X115608183Y-124534593D01*
X115608183Y-124534593D02*
X115036754Y-124534593D01*
X116393897Y-123748879D02*
X116751040Y-125248879D01*
X116751040Y-125248879D02*
X117036754Y-124177451D01*
X117036754Y-124177451D02*
X117322469Y-125248879D01*
X117322469Y-125248879D02*
X117679612Y-123748879D01*
X119108183Y-125248879D02*
X118608183Y-124534593D01*
X118251040Y-125248879D02*
X118251040Y-123748879D01*
X118251040Y-123748879D02*
X118822469Y-123748879D01*
X118822469Y-123748879D02*
X118965326Y-123820308D01*
X118965326Y-123820308D02*
X119036755Y-123891736D01*
X119036755Y-123891736D02*
X119108183Y-124034593D01*
X119108183Y-124034593D02*
X119108183Y-124248879D01*
X119108183Y-124248879D02*
X119036755Y-124391736D01*
X119036755Y-124391736D02*
X118965326Y-124463165D01*
X118965326Y-124463165D02*
X118822469Y-124534593D01*
X118822469Y-124534593D02*
X118251040Y-124534593D01*
X119751040Y-125248879D02*
X119751040Y-123748879D01*
X120465326Y-125248879D02*
X120465326Y-123748879D01*
X120465326Y-123748879D02*
X121322469Y-125248879D01*
X121322469Y-125248879D02*
X121322469Y-123748879D01*
D11*
X99225068Y-89024955D02*
X100034591Y-89024955D01*
X100034591Y-89024955D02*
X100129829Y-88977336D01*
X100129829Y-88977336D02*
X100177449Y-88929717D01*
X100177449Y-88929717D02*
X100225068Y-88834479D01*
X100225068Y-88834479D02*
X100225068Y-88644003D01*
X100225068Y-88644003D02*
X100177449Y-88548765D01*
X100177449Y-88548765D02*
X100129829Y-88501146D01*
X100129829Y-88501146D02*
X100034591Y-88453527D01*
X100034591Y-88453527D02*
X99225068Y-88453527D01*
X99225068Y-88072574D02*
X99225068Y-87453527D01*
X99225068Y-87453527D02*
X99606020Y-87786860D01*
X99606020Y-87786860D02*
X99606020Y-87644003D01*
X99606020Y-87644003D02*
X99653639Y-87548765D01*
X99653639Y-87548765D02*
X99701258Y-87501146D01*
X99701258Y-87501146D02*
X99796496Y-87453527D01*
X99796496Y-87453527D02*
X100034591Y-87453527D01*
X100034591Y-87453527D02*
X100129829Y-87501146D01*
X100129829Y-87501146D02*
X100177449Y-87548765D01*
X100177449Y-87548765D02*
X100225068Y-87644003D01*
X100225068Y-87644003D02*
X100225068Y-87929717D01*
X100225068Y-87929717D02*
X100177449Y-88024955D01*
X100177449Y-88024955D02*
X100129829Y-88072574D01*
X125531768Y-100355908D02*
X125055577Y-100689241D01*
X125531768Y-100927336D02*
X124531768Y-100927336D01*
X124531768Y-100927336D02*
X124531768Y-100546384D01*
X124531768Y-100546384D02*
X124579387Y-100451146D01*
X124579387Y-100451146D02*
X124627006Y-100403527D01*
X124627006Y-100403527D02*
X124722244Y-100355908D01*
X124722244Y-100355908D02*
X124865101Y-100355908D01*
X124865101Y-100355908D02*
X124960339Y-100403527D01*
X124960339Y-100403527D02*
X125007958Y-100451146D01*
X125007958Y-100451146D02*
X125055577Y-100546384D01*
X125055577Y-100546384D02*
X125055577Y-100927336D01*
X125531768Y-99403527D02*
X125531768Y-99974955D01*
X125531768Y-99689241D02*
X124531768Y-99689241D01*
X124531768Y-99689241D02*
X124674625Y-99784479D01*
X124674625Y-99784479D02*
X124769863Y-99879717D01*
X124769863Y-99879717D02*
X124817482Y-99974955D01*
X124531768Y-98784479D02*
X124531768Y-98689241D01*
X124531768Y-98689241D02*
X124579387Y-98594003D01*
X124579387Y-98594003D02*
X124627006Y-98546384D01*
X124627006Y-98546384D02*
X124722244Y-98498765D01*
X124722244Y-98498765D02*
X124912720Y-98451146D01*
X124912720Y-98451146D02*
X125150815Y-98451146D01*
X125150815Y-98451146D02*
X125341291Y-98498765D01*
X125341291Y-98498765D02*
X125436529Y-98546384D01*
X125436529Y-98546384D02*
X125484149Y-98594003D01*
X125484149Y-98594003D02*
X125531768Y-98689241D01*
X125531768Y-98689241D02*
X125531768Y-98784479D01*
X125531768Y-98784479D02*
X125484149Y-98879717D01*
X125484149Y-98879717D02*
X125436529Y-98927336D01*
X125436529Y-98927336D02*
X125341291Y-98974955D01*
X125341291Y-98974955D02*
X125150815Y-99022574D01*
X125150815Y-99022574D02*
X124912720Y-99022574D01*
X124912720Y-99022574D02*
X124722244Y-98974955D01*
X124722244Y-98974955D02*
X124627006Y-98927336D01*
X124627006Y-98927336D02*
X124579387Y-98879717D01*
X124579387Y-98879717D02*
X124531768Y-98784479D01*
X109710044Y-110597870D02*
X109710044Y-111407393D01*
X109710044Y-111407393D02*
X109757663Y-111502631D01*
X109757663Y-111502631D02*
X109805282Y-111550251D01*
X109805282Y-111550251D02*
X109900520Y-111597870D01*
X109900520Y-111597870D02*
X110090996Y-111597870D01*
X110090996Y-111597870D02*
X110186234Y-111550251D01*
X110186234Y-111550251D02*
X110233853Y-111502631D01*
X110233853Y-111502631D02*
X110281472Y-111407393D01*
X110281472Y-111407393D02*
X110281472Y-110597870D01*
X110900520Y-111026441D02*
X110805282Y-110978822D01*
X110805282Y-110978822D02*
X110757663Y-110931203D01*
X110757663Y-110931203D02*
X110710044Y-110835965D01*
X110710044Y-110835965D02*
X110710044Y-110788346D01*
X110710044Y-110788346D02*
X110757663Y-110693108D01*
X110757663Y-110693108D02*
X110805282Y-110645489D01*
X110805282Y-110645489D02*
X110900520Y-110597870D01*
X110900520Y-110597870D02*
X111090996Y-110597870D01*
X111090996Y-110597870D02*
X111186234Y-110645489D01*
X111186234Y-110645489D02*
X111233853Y-110693108D01*
X111233853Y-110693108D02*
X111281472Y-110788346D01*
X111281472Y-110788346D02*
X111281472Y-110835965D01*
X111281472Y-110835965D02*
X111233853Y-110931203D01*
X111233853Y-110931203D02*
X111186234Y-110978822D01*
X111186234Y-110978822D02*
X111090996Y-111026441D01*
X111090996Y-111026441D02*
X110900520Y-111026441D01*
X110900520Y-111026441D02*
X110805282Y-111074060D01*
X110805282Y-111074060D02*
X110757663Y-111121679D01*
X110757663Y-111121679D02*
X110710044Y-111216917D01*
X110710044Y-111216917D02*
X110710044Y-111407393D01*
X110710044Y-111407393D02*
X110757663Y-111502631D01*
X110757663Y-111502631D02*
X110805282Y-111550251D01*
X110805282Y-111550251D02*
X110900520Y-111597870D01*
X110900520Y-111597870D02*
X111090996Y-111597870D01*
X111090996Y-111597870D02*
X111186234Y-111550251D01*
X111186234Y-111550251D02*
X111233853Y-111502631D01*
X111233853Y-111502631D02*
X111281472Y-111407393D01*
X111281472Y-111407393D02*
X111281472Y-111216917D01*
X111281472Y-111216917D02*
X111233853Y-111121679D01*
X111233853Y-111121679D02*
X111186234Y-111074060D01*
X111186234Y-111074060D02*
X111090996Y-111026441D01*
X112210282Y-98802631D02*
X112162663Y-98850251D01*
X112162663Y-98850251D02*
X112019806Y-98897870D01*
X112019806Y-98897870D02*
X111924568Y-98897870D01*
X111924568Y-98897870D02*
X111781711Y-98850251D01*
X111781711Y-98850251D02*
X111686473Y-98755012D01*
X111686473Y-98755012D02*
X111638854Y-98659774D01*
X111638854Y-98659774D02*
X111591235Y-98469298D01*
X111591235Y-98469298D02*
X111591235Y-98326441D01*
X111591235Y-98326441D02*
X111638854Y-98135965D01*
X111638854Y-98135965D02*
X111686473Y-98040727D01*
X111686473Y-98040727D02*
X111781711Y-97945489D01*
X111781711Y-97945489D02*
X111924568Y-97897870D01*
X111924568Y-97897870D02*
X112019806Y-97897870D01*
X112019806Y-97897870D02*
X112162663Y-97945489D01*
X112162663Y-97945489D02*
X112210282Y-97993108D01*
X112543616Y-97897870D02*
X113162663Y-97897870D01*
X113162663Y-97897870D02*
X112829330Y-98278822D01*
X112829330Y-98278822D02*
X112972187Y-98278822D01*
X112972187Y-98278822D02*
X113067425Y-98326441D01*
X113067425Y-98326441D02*
X113115044Y-98374060D01*
X113115044Y-98374060D02*
X113162663Y-98469298D01*
X113162663Y-98469298D02*
X113162663Y-98707393D01*
X113162663Y-98707393D02*
X113115044Y-98802631D01*
X113115044Y-98802631D02*
X113067425Y-98850251D01*
X113067425Y-98850251D02*
X112972187Y-98897870D01*
X112972187Y-98897870D02*
X112686473Y-98897870D01*
X112686473Y-98897870D02*
X112591235Y-98850251D01*
X112591235Y-98850251D02*
X112543616Y-98802631D01*
X52208091Y-96598631D02*
X52160472Y-96646251D01*
X52160472Y-96646251D02*
X52017615Y-96693870D01*
X52017615Y-96693870D02*
X51922377Y-96693870D01*
X51922377Y-96693870D02*
X51779520Y-96646251D01*
X51779520Y-96646251D02*
X51684282Y-96551012D01*
X51684282Y-96551012D02*
X51636663Y-96455774D01*
X51636663Y-96455774D02*
X51589044Y-96265298D01*
X51589044Y-96265298D02*
X51589044Y-96122441D01*
X51589044Y-96122441D02*
X51636663Y-95931965D01*
X51636663Y-95931965D02*
X51684282Y-95836727D01*
X51684282Y-95836727D02*
X51779520Y-95741489D01*
X51779520Y-95741489D02*
X51922377Y-95693870D01*
X51922377Y-95693870D02*
X52017615Y-95693870D01*
X52017615Y-95693870D02*
X52160472Y-95741489D01*
X52160472Y-95741489D02*
X52208091Y-95789108D01*
X53160472Y-96693870D02*
X52589044Y-96693870D01*
X52874758Y-96693870D02*
X52874758Y-95693870D01*
X52874758Y-95693870D02*
X52779520Y-95836727D01*
X52779520Y-95836727D02*
X52684282Y-95931965D01*
X52684282Y-95931965D02*
X52589044Y-95979584D01*
X53731901Y-96122441D02*
X53636663Y-96074822D01*
X53636663Y-96074822D02*
X53589044Y-96027203D01*
X53589044Y-96027203D02*
X53541425Y-95931965D01*
X53541425Y-95931965D02*
X53541425Y-95884346D01*
X53541425Y-95884346D02*
X53589044Y-95789108D01*
X53589044Y-95789108D02*
X53636663Y-95741489D01*
X53636663Y-95741489D02*
X53731901Y-95693870D01*
X53731901Y-95693870D02*
X53922377Y-95693870D01*
X53922377Y-95693870D02*
X54017615Y-95741489D01*
X54017615Y-95741489D02*
X54065234Y-95789108D01*
X54065234Y-95789108D02*
X54112853Y-95884346D01*
X54112853Y-95884346D02*
X54112853Y-95931965D01*
X54112853Y-95931965D02*
X54065234Y-96027203D01*
X54065234Y-96027203D02*
X54017615Y-96074822D01*
X54017615Y-96074822D02*
X53922377Y-96122441D01*
X53922377Y-96122441D02*
X53731901Y-96122441D01*
X53731901Y-96122441D02*
X53636663Y-96170060D01*
X53636663Y-96170060D02*
X53589044Y-96217679D01*
X53589044Y-96217679D02*
X53541425Y-96312917D01*
X53541425Y-96312917D02*
X53541425Y-96503393D01*
X53541425Y-96503393D02*
X53589044Y-96598631D01*
X53589044Y-96598631D02*
X53636663Y-96646251D01*
X53636663Y-96646251D02*
X53731901Y-96693870D01*
X53731901Y-96693870D02*
X53922377Y-96693870D01*
X53922377Y-96693870D02*
X54017615Y-96646251D01*
X54017615Y-96646251D02*
X54065234Y-96598631D01*
X54065234Y-96598631D02*
X54112853Y-96503393D01*
X54112853Y-96503393D02*
X54112853Y-96312917D01*
X54112853Y-96312917D02*
X54065234Y-96217679D01*
X54065234Y-96217679D02*
X54017615Y-96170060D01*
X54017615Y-96170060D02*
X53922377Y-96122441D01*
X107039580Y-104782857D02*
X107087200Y-104830476D01*
X107087200Y-104830476D02*
X107134819Y-104973333D01*
X107134819Y-104973333D02*
X107134819Y-105068571D01*
X107134819Y-105068571D02*
X107087200Y-105211428D01*
X107087200Y-105211428D02*
X106991961Y-105306666D01*
X106991961Y-105306666D02*
X106896723Y-105354285D01*
X106896723Y-105354285D02*
X106706247Y-105401904D01*
X106706247Y-105401904D02*
X106563390Y-105401904D01*
X106563390Y-105401904D02*
X106372914Y-105354285D01*
X106372914Y-105354285D02*
X106277676Y-105306666D01*
X106277676Y-105306666D02*
X106182438Y-105211428D01*
X106182438Y-105211428D02*
X106134819Y-105068571D01*
X106134819Y-105068571D02*
X106134819Y-104973333D01*
X106134819Y-104973333D02*
X106182438Y-104830476D01*
X106182438Y-104830476D02*
X106230057Y-104782857D01*
X106230057Y-104401904D02*
X106182438Y-104354285D01*
X106182438Y-104354285D02*
X106134819Y-104259047D01*
X106134819Y-104259047D02*
X106134819Y-104020952D01*
X106134819Y-104020952D02*
X106182438Y-103925714D01*
X106182438Y-103925714D02*
X106230057Y-103878095D01*
X106230057Y-103878095D02*
X106325295Y-103830476D01*
X106325295Y-103830476D02*
X106420533Y-103830476D01*
X106420533Y-103830476D02*
X106563390Y-103878095D01*
X106563390Y-103878095D02*
X107134819Y-104449523D01*
X107134819Y-104449523D02*
X107134819Y-103830476D01*
X106134819Y-103497142D02*
X106134819Y-102878095D01*
X106134819Y-102878095D02*
X106515771Y-103211428D01*
X106515771Y-103211428D02*
X106515771Y-103068571D01*
X106515771Y-103068571D02*
X106563390Y-102973333D01*
X106563390Y-102973333D02*
X106611009Y-102925714D01*
X106611009Y-102925714D02*
X106706247Y-102878095D01*
X106706247Y-102878095D02*
X106944342Y-102878095D01*
X106944342Y-102878095D02*
X107039580Y-102925714D01*
X107039580Y-102925714D02*
X107087200Y-102973333D01*
X107087200Y-102973333D02*
X107134819Y-103068571D01*
X107134819Y-103068571D02*
X107134819Y-103354285D01*
X107134819Y-103354285D02*
X107087200Y-103449523D01*
X107087200Y-103449523D02*
X107039580Y-103497142D01*
X122614819Y-113346961D02*
X122138628Y-113680294D01*
X122614819Y-113918389D02*
X121614819Y-113918389D01*
X121614819Y-113918389D02*
X121614819Y-113537437D01*
X121614819Y-113537437D02*
X121662438Y-113442199D01*
X121662438Y-113442199D02*
X121710057Y-113394580D01*
X121710057Y-113394580D02*
X121805295Y-113346961D01*
X121805295Y-113346961D02*
X121948152Y-113346961D01*
X121948152Y-113346961D02*
X122043390Y-113394580D01*
X122043390Y-113394580D02*
X122091009Y-113442199D01*
X122091009Y-113442199D02*
X122138628Y-113537437D01*
X122138628Y-113537437D02*
X122138628Y-113918389D01*
X122614819Y-112394580D02*
X122614819Y-112966008D01*
X122614819Y-112680294D02*
X121614819Y-112680294D01*
X121614819Y-112680294D02*
X121757676Y-112775532D01*
X121757676Y-112775532D02*
X121852914Y-112870770D01*
X121852914Y-112870770D02*
X121900533Y-112966008D01*
X123876824Y-103144717D02*
X123924444Y-103192336D01*
X123924444Y-103192336D02*
X123972063Y-103335193D01*
X123972063Y-103335193D02*
X123972063Y-103430431D01*
X123972063Y-103430431D02*
X123924444Y-103573288D01*
X123924444Y-103573288D02*
X123829205Y-103668526D01*
X123829205Y-103668526D02*
X123733967Y-103716145D01*
X123733967Y-103716145D02*
X123543491Y-103763764D01*
X123543491Y-103763764D02*
X123400634Y-103763764D01*
X123400634Y-103763764D02*
X123210158Y-103716145D01*
X123210158Y-103716145D02*
X123114920Y-103668526D01*
X123114920Y-103668526D02*
X123019682Y-103573288D01*
X123019682Y-103573288D02*
X122972063Y-103430431D01*
X122972063Y-103430431D02*
X122972063Y-103335193D01*
X122972063Y-103335193D02*
X123019682Y-103192336D01*
X123019682Y-103192336D02*
X123067301Y-103144717D01*
X122972063Y-102287574D02*
X122972063Y-102478050D01*
X122972063Y-102478050D02*
X123019682Y-102573288D01*
X123019682Y-102573288D02*
X123067301Y-102620907D01*
X123067301Y-102620907D02*
X123210158Y-102716145D01*
X123210158Y-102716145D02*
X123400634Y-102763764D01*
X123400634Y-102763764D02*
X123781586Y-102763764D01*
X123781586Y-102763764D02*
X123876824Y-102716145D01*
X123876824Y-102716145D02*
X123924444Y-102668526D01*
X123924444Y-102668526D02*
X123972063Y-102573288D01*
X123972063Y-102573288D02*
X123972063Y-102382812D01*
X123972063Y-102382812D02*
X123924444Y-102287574D01*
X123924444Y-102287574D02*
X123876824Y-102239955D01*
X123876824Y-102239955D02*
X123781586Y-102192336D01*
X123781586Y-102192336D02*
X123543491Y-102192336D01*
X123543491Y-102192336D02*
X123448253Y-102239955D01*
X123448253Y-102239955D02*
X123400634Y-102287574D01*
X123400634Y-102287574D02*
X123353015Y-102382812D01*
X123353015Y-102382812D02*
X123353015Y-102573288D01*
X123353015Y-102573288D02*
X123400634Y-102668526D01*
X123400634Y-102668526D02*
X123448253Y-102716145D01*
X123448253Y-102716145D02*
X123543491Y-102763764D01*
X58910044Y-93672870D02*
X58910044Y-94482393D01*
X58910044Y-94482393D02*
X58957663Y-94577631D01*
X58957663Y-94577631D02*
X59005282Y-94625251D01*
X59005282Y-94625251D02*
X59100520Y-94672870D01*
X59100520Y-94672870D02*
X59290996Y-94672870D01*
X59290996Y-94672870D02*
X59386234Y-94625251D01*
X59386234Y-94625251D02*
X59433853Y-94577631D01*
X59433853Y-94577631D02*
X59481472Y-94482393D01*
X59481472Y-94482393D02*
X59481472Y-93672870D01*
X60386234Y-93672870D02*
X60195758Y-93672870D01*
X60195758Y-93672870D02*
X60100520Y-93720489D01*
X60100520Y-93720489D02*
X60052901Y-93768108D01*
X60052901Y-93768108D02*
X59957663Y-93910965D01*
X59957663Y-93910965D02*
X59910044Y-94101441D01*
X59910044Y-94101441D02*
X59910044Y-94482393D01*
X59910044Y-94482393D02*
X59957663Y-94577631D01*
X59957663Y-94577631D02*
X60005282Y-94625251D01*
X60005282Y-94625251D02*
X60100520Y-94672870D01*
X60100520Y-94672870D02*
X60290996Y-94672870D01*
X60290996Y-94672870D02*
X60386234Y-94625251D01*
X60386234Y-94625251D02*
X60433853Y-94577631D01*
X60433853Y-94577631D02*
X60481472Y-94482393D01*
X60481472Y-94482393D02*
X60481472Y-94244298D01*
X60481472Y-94244298D02*
X60433853Y-94149060D01*
X60433853Y-94149060D02*
X60386234Y-94101441D01*
X60386234Y-94101441D02*
X60290996Y-94053822D01*
X60290996Y-94053822D02*
X60100520Y-94053822D01*
X60100520Y-94053822D02*
X60005282Y-94101441D01*
X60005282Y-94101441D02*
X59957663Y-94149060D01*
X59957663Y-94149060D02*
X59910044Y-94244298D01*
X100863744Y-120122870D02*
X100863744Y-120932393D01*
X100863744Y-120932393D02*
X100911363Y-121027631D01*
X100911363Y-121027631D02*
X100958982Y-121075251D01*
X100958982Y-121075251D02*
X101054220Y-121122870D01*
X101054220Y-121122870D02*
X101244696Y-121122870D01*
X101244696Y-121122870D02*
X101339934Y-121075251D01*
X101339934Y-121075251D02*
X101387553Y-121027631D01*
X101387553Y-121027631D02*
X101435172Y-120932393D01*
X101435172Y-120932393D02*
X101435172Y-120122870D01*
X101958982Y-121122870D02*
X102149458Y-121122870D01*
X102149458Y-121122870D02*
X102244696Y-121075251D01*
X102244696Y-121075251D02*
X102292315Y-121027631D01*
X102292315Y-121027631D02*
X102387553Y-120884774D01*
X102387553Y-120884774D02*
X102435172Y-120694298D01*
X102435172Y-120694298D02*
X102435172Y-120313346D01*
X102435172Y-120313346D02*
X102387553Y-120218108D01*
X102387553Y-120218108D02*
X102339934Y-120170489D01*
X102339934Y-120170489D02*
X102244696Y-120122870D01*
X102244696Y-120122870D02*
X102054220Y-120122870D01*
X102054220Y-120122870D02*
X101958982Y-120170489D01*
X101958982Y-120170489D02*
X101911363Y-120218108D01*
X101911363Y-120218108D02*
X101863744Y-120313346D01*
X101863744Y-120313346D02*
X101863744Y-120551441D01*
X101863744Y-120551441D02*
X101911363Y-120646679D01*
X101911363Y-120646679D02*
X101958982Y-120694298D01*
X101958982Y-120694298D02*
X102054220Y-120741917D01*
X102054220Y-120741917D02*
X102244696Y-120741917D01*
X102244696Y-120741917D02*
X102339934Y-120694298D01*
X102339934Y-120694298D02*
X102387553Y-120646679D01*
X102387553Y-120646679D02*
X102435172Y-120551441D01*
X98399091Y-94992631D02*
X98351472Y-95040251D01*
X98351472Y-95040251D02*
X98208615Y-95087870D01*
X98208615Y-95087870D02*
X98113377Y-95087870D01*
X98113377Y-95087870D02*
X97970520Y-95040251D01*
X97970520Y-95040251D02*
X97875282Y-94945012D01*
X97875282Y-94945012D02*
X97827663Y-94849774D01*
X97827663Y-94849774D02*
X97780044Y-94659298D01*
X97780044Y-94659298D02*
X97780044Y-94516441D01*
X97780044Y-94516441D02*
X97827663Y-94325965D01*
X97827663Y-94325965D02*
X97875282Y-94230727D01*
X97875282Y-94230727D02*
X97970520Y-94135489D01*
X97970520Y-94135489D02*
X98113377Y-94087870D01*
X98113377Y-94087870D02*
X98208615Y-94087870D01*
X98208615Y-94087870D02*
X98351472Y-94135489D01*
X98351472Y-94135489D02*
X98399091Y-94183108D01*
X99351472Y-95087870D02*
X98780044Y-95087870D01*
X99065758Y-95087870D02*
X99065758Y-94087870D01*
X99065758Y-94087870D02*
X98970520Y-94230727D01*
X98970520Y-94230727D02*
X98875282Y-94325965D01*
X98875282Y-94325965D02*
X98780044Y-94373584D01*
X99970520Y-94087870D02*
X100065758Y-94087870D01*
X100065758Y-94087870D02*
X100160996Y-94135489D01*
X100160996Y-94135489D02*
X100208615Y-94183108D01*
X100208615Y-94183108D02*
X100256234Y-94278346D01*
X100256234Y-94278346D02*
X100303853Y-94468822D01*
X100303853Y-94468822D02*
X100303853Y-94706917D01*
X100303853Y-94706917D02*
X100256234Y-94897393D01*
X100256234Y-94897393D02*
X100208615Y-94992631D01*
X100208615Y-94992631D02*
X100160996Y-95040251D01*
X100160996Y-95040251D02*
X100065758Y-95087870D01*
X100065758Y-95087870D02*
X99970520Y-95087870D01*
X99970520Y-95087870D02*
X99875282Y-95040251D01*
X99875282Y-95040251D02*
X99827663Y-94992631D01*
X99827663Y-94992631D02*
X99780044Y-94897393D01*
X99780044Y-94897393D02*
X99732425Y-94706917D01*
X99732425Y-94706917D02*
X99732425Y-94468822D01*
X99732425Y-94468822D02*
X99780044Y-94278346D01*
X99780044Y-94278346D02*
X99827663Y-94183108D01*
X99827663Y-94183108D02*
X99875282Y-94135489D01*
X99875282Y-94135489D02*
X99970520Y-94087870D01*
X107039580Y-108592857D02*
X107087200Y-108640476D01*
X107087200Y-108640476D02*
X107134819Y-108783333D01*
X107134819Y-108783333D02*
X107134819Y-108878571D01*
X107134819Y-108878571D02*
X107087200Y-109021428D01*
X107087200Y-109021428D02*
X106991961Y-109116666D01*
X106991961Y-109116666D02*
X106896723Y-109164285D01*
X106896723Y-109164285D02*
X106706247Y-109211904D01*
X106706247Y-109211904D02*
X106563390Y-109211904D01*
X106563390Y-109211904D02*
X106372914Y-109164285D01*
X106372914Y-109164285D02*
X106277676Y-109116666D01*
X106277676Y-109116666D02*
X106182438Y-109021428D01*
X106182438Y-109021428D02*
X106134819Y-108878571D01*
X106134819Y-108878571D02*
X106134819Y-108783333D01*
X106134819Y-108783333D02*
X106182438Y-108640476D01*
X106182438Y-108640476D02*
X106230057Y-108592857D01*
X106230057Y-108211904D02*
X106182438Y-108164285D01*
X106182438Y-108164285D02*
X106134819Y-108069047D01*
X106134819Y-108069047D02*
X106134819Y-107830952D01*
X106134819Y-107830952D02*
X106182438Y-107735714D01*
X106182438Y-107735714D02*
X106230057Y-107688095D01*
X106230057Y-107688095D02*
X106325295Y-107640476D01*
X106325295Y-107640476D02*
X106420533Y-107640476D01*
X106420533Y-107640476D02*
X106563390Y-107688095D01*
X106563390Y-107688095D02*
X107134819Y-108259523D01*
X107134819Y-108259523D02*
X107134819Y-107640476D01*
X106134819Y-106735714D02*
X106134819Y-107211904D01*
X106134819Y-107211904D02*
X106611009Y-107259523D01*
X106611009Y-107259523D02*
X106563390Y-107211904D01*
X106563390Y-107211904D02*
X106515771Y-107116666D01*
X106515771Y-107116666D02*
X106515771Y-106878571D01*
X106515771Y-106878571D02*
X106563390Y-106783333D01*
X106563390Y-106783333D02*
X106611009Y-106735714D01*
X106611009Y-106735714D02*
X106706247Y-106688095D01*
X106706247Y-106688095D02*
X106944342Y-106688095D01*
X106944342Y-106688095D02*
X107039580Y-106735714D01*
X107039580Y-106735714D02*
X107087200Y-106783333D01*
X107087200Y-106783333D02*
X107134819Y-106878571D01*
X107134819Y-106878571D02*
X107134819Y-107116666D01*
X107134819Y-107116666D02*
X107087200Y-107211904D01*
X107087200Y-107211904D02*
X107039580Y-107259523D01*
X114750282Y-122392870D02*
X114274092Y-122392870D01*
X114274092Y-122392870D02*
X114274092Y-121392870D01*
X115607425Y-122392870D02*
X115035997Y-122392870D01*
X115321711Y-122392870D02*
X115321711Y-121392870D01*
X115321711Y-121392870D02*
X115226473Y-121535727D01*
X115226473Y-121535727D02*
X115131235Y-121630965D01*
X115131235Y-121630965D02*
X115035997Y-121678584D01*
D12*
X123063095Y-89627419D02*
X123063095Y-90436942D01*
X123063095Y-90436942D02*
X123110714Y-90532180D01*
X123110714Y-90532180D02*
X123158333Y-90579800D01*
X123158333Y-90579800D02*
X123253571Y-90627419D01*
X123253571Y-90627419D02*
X123444047Y-90627419D01*
X123444047Y-90627419D02*
X123539285Y-90579800D01*
X123539285Y-90579800D02*
X123586904Y-90532180D01*
X123586904Y-90532180D02*
X123634523Y-90436942D01*
X123634523Y-90436942D02*
X123634523Y-89627419D01*
X124015476Y-89627419D02*
X124682142Y-89627419D01*
X124682142Y-89627419D02*
X124253571Y-90627419D01*
D11*
X115544091Y-103882631D02*
X115496472Y-103930251D01*
X115496472Y-103930251D02*
X115353615Y-103977870D01*
X115353615Y-103977870D02*
X115258377Y-103977870D01*
X115258377Y-103977870D02*
X115115520Y-103930251D01*
X115115520Y-103930251D02*
X115020282Y-103835012D01*
X115020282Y-103835012D02*
X114972663Y-103739774D01*
X114972663Y-103739774D02*
X114925044Y-103549298D01*
X114925044Y-103549298D02*
X114925044Y-103406441D01*
X114925044Y-103406441D02*
X114972663Y-103215965D01*
X114972663Y-103215965D02*
X115020282Y-103120727D01*
X115020282Y-103120727D02*
X115115520Y-103025489D01*
X115115520Y-103025489D02*
X115258377Y-102977870D01*
X115258377Y-102977870D02*
X115353615Y-102977870D01*
X115353615Y-102977870D02*
X115496472Y-103025489D01*
X115496472Y-103025489D02*
X115544091Y-103073108D01*
X115925044Y-103073108D02*
X115972663Y-103025489D01*
X115972663Y-103025489D02*
X116067901Y-102977870D01*
X116067901Y-102977870D02*
X116305996Y-102977870D01*
X116305996Y-102977870D02*
X116401234Y-103025489D01*
X116401234Y-103025489D02*
X116448853Y-103073108D01*
X116448853Y-103073108D02*
X116496472Y-103168346D01*
X116496472Y-103168346D02*
X116496472Y-103263584D01*
X116496472Y-103263584D02*
X116448853Y-103406441D01*
X116448853Y-103406441D02*
X115877425Y-103977870D01*
X115877425Y-103977870D02*
X116496472Y-103977870D01*
X117353615Y-102977870D02*
X117163139Y-102977870D01*
X117163139Y-102977870D02*
X117067901Y-103025489D01*
X117067901Y-103025489D02*
X117020282Y-103073108D01*
X117020282Y-103073108D02*
X116925044Y-103215965D01*
X116925044Y-103215965D02*
X116877425Y-103406441D01*
X116877425Y-103406441D02*
X116877425Y-103787393D01*
X116877425Y-103787393D02*
X116925044Y-103882631D01*
X116925044Y-103882631D02*
X116972663Y-103930251D01*
X116972663Y-103930251D02*
X117067901Y-103977870D01*
X117067901Y-103977870D02*
X117258377Y-103977870D01*
X117258377Y-103977870D02*
X117353615Y-103930251D01*
X117353615Y-103930251D02*
X117401234Y-103882631D01*
X117401234Y-103882631D02*
X117448853Y-103787393D01*
X117448853Y-103787393D02*
X117448853Y-103549298D01*
X117448853Y-103549298D02*
X117401234Y-103454060D01*
X117401234Y-103454060D02*
X117353615Y-103406441D01*
X117353615Y-103406441D02*
X117258377Y-103358822D01*
X117258377Y-103358822D02*
X117067901Y-103358822D01*
X117067901Y-103358822D02*
X116972663Y-103406441D01*
X116972663Y-103406441D02*
X116925044Y-103454060D01*
X116925044Y-103454060D02*
X116877425Y-103549298D01*
X99231668Y-92854955D02*
X100041191Y-92854955D01*
X100041191Y-92854955D02*
X100136429Y-92807336D01*
X100136429Y-92807336D02*
X100184049Y-92759717D01*
X100184049Y-92759717D02*
X100231668Y-92664479D01*
X100231668Y-92664479D02*
X100231668Y-92474003D01*
X100231668Y-92474003D02*
X100184049Y-92378765D01*
X100184049Y-92378765D02*
X100136429Y-92331146D01*
X100136429Y-92331146D02*
X100041191Y-92283527D01*
X100041191Y-92283527D02*
X99231668Y-92283527D01*
X99565001Y-91378765D02*
X100231668Y-91378765D01*
X99184049Y-91616860D02*
X99898334Y-91854955D01*
X99898334Y-91854955D02*
X99898334Y-91235908D01*
X98073615Y-95357870D02*
X98073615Y-96072155D01*
X98073615Y-96072155D02*
X98025996Y-96215012D01*
X98025996Y-96215012D02*
X97930758Y-96310251D01*
X97930758Y-96310251D02*
X97787901Y-96357870D01*
X97787901Y-96357870D02*
X97692663Y-96357870D01*
X98454568Y-95357870D02*
X99121234Y-95357870D01*
X99121234Y-95357870D02*
X98692663Y-96357870D01*
X123702063Y-99602217D02*
X123225872Y-99935550D01*
X123702063Y-100173645D02*
X122702063Y-100173645D01*
X122702063Y-100173645D02*
X122702063Y-99792693D01*
X122702063Y-99792693D02*
X122749682Y-99697455D01*
X122749682Y-99697455D02*
X122797301Y-99649836D01*
X122797301Y-99649836D02*
X122892539Y-99602217D01*
X122892539Y-99602217D02*
X123035396Y-99602217D01*
X123035396Y-99602217D02*
X123130634Y-99649836D01*
X123130634Y-99649836D02*
X123178253Y-99697455D01*
X123178253Y-99697455D02*
X123225872Y-99792693D01*
X123225872Y-99792693D02*
X123225872Y-100173645D01*
X122702063Y-99268883D02*
X122702063Y-98602217D01*
X122702063Y-98602217D02*
X123702063Y-99030788D01*
X121701824Y-103689717D02*
X121749444Y-103737336D01*
X121749444Y-103737336D02*
X121797063Y-103880193D01*
X121797063Y-103880193D02*
X121797063Y-103975431D01*
X121797063Y-103975431D02*
X121749444Y-104118288D01*
X121749444Y-104118288D02*
X121654205Y-104213526D01*
X121654205Y-104213526D02*
X121558967Y-104261145D01*
X121558967Y-104261145D02*
X121368491Y-104308764D01*
X121368491Y-104308764D02*
X121225634Y-104308764D01*
X121225634Y-104308764D02*
X121035158Y-104261145D01*
X121035158Y-104261145D02*
X120939920Y-104213526D01*
X120939920Y-104213526D02*
X120844682Y-104118288D01*
X120844682Y-104118288D02*
X120797063Y-103975431D01*
X120797063Y-103975431D02*
X120797063Y-103880193D01*
X120797063Y-103880193D02*
X120844682Y-103737336D01*
X120844682Y-103737336D02*
X120892301Y-103689717D01*
X121797063Y-102737336D02*
X121797063Y-103308764D01*
X121797063Y-103023050D02*
X120797063Y-103023050D01*
X120797063Y-103023050D02*
X120939920Y-103118288D01*
X120939920Y-103118288D02*
X121035158Y-103213526D01*
X121035158Y-103213526D02*
X121082777Y-103308764D01*
X101415282Y-83562631D02*
X101367663Y-83610251D01*
X101367663Y-83610251D02*
X101224806Y-83657870D01*
X101224806Y-83657870D02*
X101129568Y-83657870D01*
X101129568Y-83657870D02*
X100986711Y-83610251D01*
X100986711Y-83610251D02*
X100891473Y-83515012D01*
X100891473Y-83515012D02*
X100843854Y-83419774D01*
X100843854Y-83419774D02*
X100796235Y-83229298D01*
X100796235Y-83229298D02*
X100796235Y-83086441D01*
X100796235Y-83086441D02*
X100843854Y-82895965D01*
X100843854Y-82895965D02*
X100891473Y-82800727D01*
X100891473Y-82800727D02*
X100986711Y-82705489D01*
X100986711Y-82705489D02*
X101129568Y-82657870D01*
X101129568Y-82657870D02*
X101224806Y-82657870D01*
X101224806Y-82657870D02*
X101367663Y-82705489D01*
X101367663Y-82705489D02*
X101415282Y-82753108D01*
X101891473Y-83657870D02*
X102081949Y-83657870D01*
X102081949Y-83657870D02*
X102177187Y-83610251D01*
X102177187Y-83610251D02*
X102224806Y-83562631D01*
X102224806Y-83562631D02*
X102320044Y-83419774D01*
X102320044Y-83419774D02*
X102367663Y-83229298D01*
X102367663Y-83229298D02*
X102367663Y-82848346D01*
X102367663Y-82848346D02*
X102320044Y-82753108D01*
X102320044Y-82753108D02*
X102272425Y-82705489D01*
X102272425Y-82705489D02*
X102177187Y-82657870D01*
X102177187Y-82657870D02*
X101986711Y-82657870D01*
X101986711Y-82657870D02*
X101891473Y-82705489D01*
X101891473Y-82705489D02*
X101843854Y-82753108D01*
X101843854Y-82753108D02*
X101796235Y-82848346D01*
X101796235Y-82848346D02*
X101796235Y-83086441D01*
X101796235Y-83086441D02*
X101843854Y-83181679D01*
X101843854Y-83181679D02*
X101891473Y-83229298D01*
X101891473Y-83229298D02*
X101986711Y-83276917D01*
X101986711Y-83276917D02*
X102177187Y-83276917D01*
X102177187Y-83276917D02*
X102272425Y-83229298D01*
X102272425Y-83229298D02*
X102320044Y-83181679D01*
X102320044Y-83181679D02*
X102367663Y-83086441D01*
X80928615Y-111849819D02*
X80928615Y-112564104D01*
X80928615Y-112564104D02*
X80880996Y-112706961D01*
X80880996Y-112706961D02*
X80785758Y-112802200D01*
X80785758Y-112802200D02*
X80642901Y-112849819D01*
X80642901Y-112849819D02*
X80547663Y-112849819D01*
X81547663Y-112278390D02*
X81452425Y-112230771D01*
X81452425Y-112230771D02*
X81404806Y-112183152D01*
X81404806Y-112183152D02*
X81357187Y-112087914D01*
X81357187Y-112087914D02*
X81357187Y-112040295D01*
X81357187Y-112040295D02*
X81404806Y-111945057D01*
X81404806Y-111945057D02*
X81452425Y-111897438D01*
X81452425Y-111897438D02*
X81547663Y-111849819D01*
X81547663Y-111849819D02*
X81738139Y-111849819D01*
X81738139Y-111849819D02*
X81833377Y-111897438D01*
X81833377Y-111897438D02*
X81880996Y-111945057D01*
X81880996Y-111945057D02*
X81928615Y-112040295D01*
X81928615Y-112040295D02*
X81928615Y-112087914D01*
X81928615Y-112087914D02*
X81880996Y-112183152D01*
X81880996Y-112183152D02*
X81833377Y-112230771D01*
X81833377Y-112230771D02*
X81738139Y-112278390D01*
X81738139Y-112278390D02*
X81547663Y-112278390D01*
X81547663Y-112278390D02*
X81452425Y-112326009D01*
X81452425Y-112326009D02*
X81404806Y-112373628D01*
X81404806Y-112373628D02*
X81357187Y-112468866D01*
X81357187Y-112468866D02*
X81357187Y-112659342D01*
X81357187Y-112659342D02*
X81404806Y-112754580D01*
X81404806Y-112754580D02*
X81452425Y-112802200D01*
X81452425Y-112802200D02*
X81547663Y-112849819D01*
X81547663Y-112849819D02*
X81738139Y-112849819D01*
X81738139Y-112849819D02*
X81833377Y-112802200D01*
X81833377Y-112802200D02*
X81880996Y-112754580D01*
X81880996Y-112754580D02*
X81928615Y-112659342D01*
X81928615Y-112659342D02*
X81928615Y-112468866D01*
X81928615Y-112468866D02*
X81880996Y-112373628D01*
X81880996Y-112373628D02*
X81833377Y-112326009D01*
X81833377Y-112326009D02*
X81738139Y-112278390D01*
X112210282Y-103247631D02*
X112162663Y-103295251D01*
X112162663Y-103295251D02*
X112019806Y-103342870D01*
X112019806Y-103342870D02*
X111924568Y-103342870D01*
X111924568Y-103342870D02*
X111781711Y-103295251D01*
X111781711Y-103295251D02*
X111686473Y-103200012D01*
X111686473Y-103200012D02*
X111638854Y-103104774D01*
X111638854Y-103104774D02*
X111591235Y-102914298D01*
X111591235Y-102914298D02*
X111591235Y-102771441D01*
X111591235Y-102771441D02*
X111638854Y-102580965D01*
X111638854Y-102580965D02*
X111686473Y-102485727D01*
X111686473Y-102485727D02*
X111781711Y-102390489D01*
X111781711Y-102390489D02*
X111924568Y-102342870D01*
X111924568Y-102342870D02*
X112019806Y-102342870D01*
X112019806Y-102342870D02*
X112162663Y-102390489D01*
X112162663Y-102390489D02*
X112210282Y-102438108D01*
X112591235Y-102438108D02*
X112638854Y-102390489D01*
X112638854Y-102390489D02*
X112734092Y-102342870D01*
X112734092Y-102342870D02*
X112972187Y-102342870D01*
X112972187Y-102342870D02*
X113067425Y-102390489D01*
X113067425Y-102390489D02*
X113115044Y-102438108D01*
X113115044Y-102438108D02*
X113162663Y-102533346D01*
X113162663Y-102533346D02*
X113162663Y-102628584D01*
X113162663Y-102628584D02*
X113115044Y-102771441D01*
X113115044Y-102771441D02*
X112543616Y-103342870D01*
X112543616Y-103342870D02*
X113162663Y-103342870D01*
X104767142Y-100054580D02*
X104719523Y-100102200D01*
X104719523Y-100102200D02*
X104576666Y-100149819D01*
X104576666Y-100149819D02*
X104481428Y-100149819D01*
X104481428Y-100149819D02*
X104338571Y-100102200D01*
X104338571Y-100102200D02*
X104243333Y-100006961D01*
X104243333Y-100006961D02*
X104195714Y-99911723D01*
X104195714Y-99911723D02*
X104148095Y-99721247D01*
X104148095Y-99721247D02*
X104148095Y-99578390D01*
X104148095Y-99578390D02*
X104195714Y-99387914D01*
X104195714Y-99387914D02*
X104243333Y-99292676D01*
X104243333Y-99292676D02*
X104338571Y-99197438D01*
X104338571Y-99197438D02*
X104481428Y-99149819D01*
X104481428Y-99149819D02*
X104576666Y-99149819D01*
X104576666Y-99149819D02*
X104719523Y-99197438D01*
X104719523Y-99197438D02*
X104767142Y-99245057D01*
X105148095Y-99245057D02*
X105195714Y-99197438D01*
X105195714Y-99197438D02*
X105290952Y-99149819D01*
X105290952Y-99149819D02*
X105529047Y-99149819D01*
X105529047Y-99149819D02*
X105624285Y-99197438D01*
X105624285Y-99197438D02*
X105671904Y-99245057D01*
X105671904Y-99245057D02*
X105719523Y-99340295D01*
X105719523Y-99340295D02*
X105719523Y-99435533D01*
X105719523Y-99435533D02*
X105671904Y-99578390D01*
X105671904Y-99578390D02*
X105100476Y-100149819D01*
X105100476Y-100149819D02*
X105719523Y-100149819D01*
X106100476Y-99245057D02*
X106148095Y-99197438D01*
X106148095Y-99197438D02*
X106243333Y-99149819D01*
X106243333Y-99149819D02*
X106481428Y-99149819D01*
X106481428Y-99149819D02*
X106576666Y-99197438D01*
X106576666Y-99197438D02*
X106624285Y-99245057D01*
X106624285Y-99245057D02*
X106671904Y-99340295D01*
X106671904Y-99340295D02*
X106671904Y-99435533D01*
X106671904Y-99435533D02*
X106624285Y-99578390D01*
X106624285Y-99578390D02*
X106052857Y-100149819D01*
X106052857Y-100149819D02*
X106671904Y-100149819D01*
X119796824Y-104165908D02*
X119844444Y-104213527D01*
X119844444Y-104213527D02*
X119892063Y-104356384D01*
X119892063Y-104356384D02*
X119892063Y-104451622D01*
X119892063Y-104451622D02*
X119844444Y-104594479D01*
X119844444Y-104594479D02*
X119749205Y-104689717D01*
X119749205Y-104689717D02*
X119653967Y-104737336D01*
X119653967Y-104737336D02*
X119463491Y-104784955D01*
X119463491Y-104784955D02*
X119320634Y-104784955D01*
X119320634Y-104784955D02*
X119130158Y-104737336D01*
X119130158Y-104737336D02*
X119034920Y-104689717D01*
X119034920Y-104689717D02*
X118939682Y-104594479D01*
X118939682Y-104594479D02*
X118892063Y-104451622D01*
X118892063Y-104451622D02*
X118892063Y-104356384D01*
X118892063Y-104356384D02*
X118939682Y-104213527D01*
X118939682Y-104213527D02*
X118987301Y-104165908D01*
X119892063Y-103213527D02*
X119892063Y-103784955D01*
X119892063Y-103499241D02*
X118892063Y-103499241D01*
X118892063Y-103499241D02*
X119034920Y-103594479D01*
X119034920Y-103594479D02*
X119130158Y-103689717D01*
X119130158Y-103689717D02*
X119177777Y-103784955D01*
X119892063Y-102261146D02*
X119892063Y-102832574D01*
X119892063Y-102546860D02*
X118892063Y-102546860D01*
X118892063Y-102546860D02*
X119034920Y-102642098D01*
X119034920Y-102642098D02*
X119130158Y-102737336D01*
X119130158Y-102737336D02*
X119177777Y-102832574D01*
X123934580Y-122556666D02*
X123982200Y-122604285D01*
X123982200Y-122604285D02*
X124029819Y-122747142D01*
X124029819Y-122747142D02*
X124029819Y-122842380D01*
X124029819Y-122842380D02*
X123982200Y-122985237D01*
X123982200Y-122985237D02*
X123886961Y-123080475D01*
X123886961Y-123080475D02*
X123791723Y-123128094D01*
X123791723Y-123128094D02*
X123601247Y-123175713D01*
X123601247Y-123175713D02*
X123458390Y-123175713D01*
X123458390Y-123175713D02*
X123267914Y-123128094D01*
X123267914Y-123128094D02*
X123172676Y-123080475D01*
X123172676Y-123080475D02*
X123077438Y-122985237D01*
X123077438Y-122985237D02*
X123029819Y-122842380D01*
X123029819Y-122842380D02*
X123029819Y-122747142D01*
X123029819Y-122747142D02*
X123077438Y-122604285D01*
X123077438Y-122604285D02*
X123125057Y-122556666D01*
X123029819Y-122223332D02*
X123029819Y-121556666D01*
X123029819Y-121556666D02*
X124029819Y-121985237D01*
X92684091Y-82927631D02*
X92636472Y-82975251D01*
X92636472Y-82975251D02*
X92493615Y-83022870D01*
X92493615Y-83022870D02*
X92398377Y-83022870D01*
X92398377Y-83022870D02*
X92255520Y-82975251D01*
X92255520Y-82975251D02*
X92160282Y-82880012D01*
X92160282Y-82880012D02*
X92112663Y-82784774D01*
X92112663Y-82784774D02*
X92065044Y-82594298D01*
X92065044Y-82594298D02*
X92065044Y-82451441D01*
X92065044Y-82451441D02*
X92112663Y-82260965D01*
X92112663Y-82260965D02*
X92160282Y-82165727D01*
X92160282Y-82165727D02*
X92255520Y-82070489D01*
X92255520Y-82070489D02*
X92398377Y-82022870D01*
X92398377Y-82022870D02*
X92493615Y-82022870D01*
X92493615Y-82022870D02*
X92636472Y-82070489D01*
X92636472Y-82070489D02*
X92684091Y-82118108D01*
X93636472Y-83022870D02*
X93065044Y-83022870D01*
X93350758Y-83022870D02*
X93350758Y-82022870D01*
X93350758Y-82022870D02*
X93255520Y-82165727D01*
X93255520Y-82165727D02*
X93160282Y-82260965D01*
X93160282Y-82260965D02*
X93065044Y-82308584D01*
X93969806Y-82022870D02*
X94588853Y-82022870D01*
X94588853Y-82022870D02*
X94255520Y-82403822D01*
X94255520Y-82403822D02*
X94398377Y-82403822D01*
X94398377Y-82403822D02*
X94493615Y-82451441D01*
X94493615Y-82451441D02*
X94541234Y-82499060D01*
X94541234Y-82499060D02*
X94588853Y-82594298D01*
X94588853Y-82594298D02*
X94588853Y-82832393D01*
X94588853Y-82832393D02*
X94541234Y-82927631D01*
X94541234Y-82927631D02*
X94493615Y-82975251D01*
X94493615Y-82975251D02*
X94398377Y-83022870D01*
X94398377Y-83022870D02*
X94112663Y-83022870D01*
X94112663Y-83022870D02*
X94017425Y-82975251D01*
X94017425Y-82975251D02*
X93969806Y-82927631D01*
X53521529Y-112420908D02*
X53569149Y-112468527D01*
X53569149Y-112468527D02*
X53616768Y-112611384D01*
X53616768Y-112611384D02*
X53616768Y-112706622D01*
X53616768Y-112706622D02*
X53569149Y-112849479D01*
X53569149Y-112849479D02*
X53473910Y-112944717D01*
X53473910Y-112944717D02*
X53378672Y-112992336D01*
X53378672Y-112992336D02*
X53188196Y-113039955D01*
X53188196Y-113039955D02*
X53045339Y-113039955D01*
X53045339Y-113039955D02*
X52854863Y-112992336D01*
X52854863Y-112992336D02*
X52759625Y-112944717D01*
X52759625Y-112944717D02*
X52664387Y-112849479D01*
X52664387Y-112849479D02*
X52616768Y-112706622D01*
X52616768Y-112706622D02*
X52616768Y-112611384D01*
X52616768Y-112611384D02*
X52664387Y-112468527D01*
X52664387Y-112468527D02*
X52712006Y-112420908D01*
X52712006Y-112039955D02*
X52664387Y-111992336D01*
X52664387Y-111992336D02*
X52616768Y-111897098D01*
X52616768Y-111897098D02*
X52616768Y-111659003D01*
X52616768Y-111659003D02*
X52664387Y-111563765D01*
X52664387Y-111563765D02*
X52712006Y-111516146D01*
X52712006Y-111516146D02*
X52807244Y-111468527D01*
X52807244Y-111468527D02*
X52902482Y-111468527D01*
X52902482Y-111468527D02*
X53045339Y-111516146D01*
X53045339Y-111516146D02*
X53616768Y-112087574D01*
X53616768Y-112087574D02*
X53616768Y-111468527D01*
X52616768Y-110849479D02*
X52616768Y-110754241D01*
X52616768Y-110754241D02*
X52664387Y-110659003D01*
X52664387Y-110659003D02*
X52712006Y-110611384D01*
X52712006Y-110611384D02*
X52807244Y-110563765D01*
X52807244Y-110563765D02*
X52997720Y-110516146D01*
X52997720Y-110516146D02*
X53235815Y-110516146D01*
X53235815Y-110516146D02*
X53426291Y-110563765D01*
X53426291Y-110563765D02*
X53521529Y-110611384D01*
X53521529Y-110611384D02*
X53569149Y-110659003D01*
X53569149Y-110659003D02*
X53616768Y-110754241D01*
X53616768Y-110754241D02*
X53616768Y-110849479D01*
X53616768Y-110849479D02*
X53569149Y-110944717D01*
X53569149Y-110944717D02*
X53521529Y-110992336D01*
X53521529Y-110992336D02*
X53426291Y-111039955D01*
X53426291Y-111039955D02*
X53235815Y-111087574D01*
X53235815Y-111087574D02*
X52997720Y-111087574D01*
X52997720Y-111087574D02*
X52807244Y-111039955D01*
X52807244Y-111039955D02*
X52712006Y-110992336D01*
X52712006Y-110992336D02*
X52664387Y-110944717D01*
X52664387Y-110944717D02*
X52616768Y-110849479D01*
X117290282Y-110242631D02*
X117242663Y-110290251D01*
X117242663Y-110290251D02*
X117099806Y-110337870D01*
X117099806Y-110337870D02*
X117004568Y-110337870D01*
X117004568Y-110337870D02*
X116861711Y-110290251D01*
X116861711Y-110290251D02*
X116766473Y-110195012D01*
X116766473Y-110195012D02*
X116718854Y-110099774D01*
X116718854Y-110099774D02*
X116671235Y-109909298D01*
X116671235Y-109909298D02*
X116671235Y-109766441D01*
X116671235Y-109766441D02*
X116718854Y-109575965D01*
X116718854Y-109575965D02*
X116766473Y-109480727D01*
X116766473Y-109480727D02*
X116861711Y-109385489D01*
X116861711Y-109385489D02*
X117004568Y-109337870D01*
X117004568Y-109337870D02*
X117099806Y-109337870D01*
X117099806Y-109337870D02*
X117242663Y-109385489D01*
X117242663Y-109385489D02*
X117290282Y-109433108D01*
X118195044Y-109337870D02*
X117718854Y-109337870D01*
X117718854Y-109337870D02*
X117671235Y-109814060D01*
X117671235Y-109814060D02*
X117718854Y-109766441D01*
X117718854Y-109766441D02*
X117814092Y-109718822D01*
X117814092Y-109718822D02*
X118052187Y-109718822D01*
X118052187Y-109718822D02*
X118147425Y-109766441D01*
X118147425Y-109766441D02*
X118195044Y-109814060D01*
X118195044Y-109814060D02*
X118242663Y-109909298D01*
X118242663Y-109909298D02*
X118242663Y-110147393D01*
X118242663Y-110147393D02*
X118195044Y-110242631D01*
X118195044Y-110242631D02*
X118147425Y-110290251D01*
X118147425Y-110290251D02*
X118052187Y-110337870D01*
X118052187Y-110337870D02*
X117814092Y-110337870D01*
X117814092Y-110337870D02*
X117718854Y-110290251D01*
X117718854Y-110290251D02*
X117671235Y-110242631D01*
X84789091Y-85342631D02*
X84741472Y-85390251D01*
X84741472Y-85390251D02*
X84598615Y-85437870D01*
X84598615Y-85437870D02*
X84503377Y-85437870D01*
X84503377Y-85437870D02*
X84360520Y-85390251D01*
X84360520Y-85390251D02*
X84265282Y-85295012D01*
X84265282Y-85295012D02*
X84217663Y-85199774D01*
X84217663Y-85199774D02*
X84170044Y-85009298D01*
X84170044Y-85009298D02*
X84170044Y-84866441D01*
X84170044Y-84866441D02*
X84217663Y-84675965D01*
X84217663Y-84675965D02*
X84265282Y-84580727D01*
X84265282Y-84580727D02*
X84360520Y-84485489D01*
X84360520Y-84485489D02*
X84503377Y-84437870D01*
X84503377Y-84437870D02*
X84598615Y-84437870D01*
X84598615Y-84437870D02*
X84741472Y-84485489D01*
X84741472Y-84485489D02*
X84789091Y-84533108D01*
X85741472Y-85437870D02*
X85170044Y-85437870D01*
X85455758Y-85437870D02*
X85455758Y-84437870D01*
X85455758Y-84437870D02*
X85360520Y-84580727D01*
X85360520Y-84580727D02*
X85265282Y-84675965D01*
X85265282Y-84675965D02*
X85170044Y-84723584D01*
X86598615Y-84771203D02*
X86598615Y-85437870D01*
X86360520Y-84390251D02*
X86122425Y-85104536D01*
X86122425Y-85104536D02*
X86741472Y-85104536D01*
X95105044Y-89007870D02*
X95105044Y-89817393D01*
X95105044Y-89817393D02*
X95152663Y-89912631D01*
X95152663Y-89912631D02*
X95200282Y-89960251D01*
X95200282Y-89960251D02*
X95295520Y-90007870D01*
X95295520Y-90007870D02*
X95485996Y-90007870D01*
X95485996Y-90007870D02*
X95581234Y-89960251D01*
X95581234Y-89960251D02*
X95628853Y-89912631D01*
X95628853Y-89912631D02*
X95676472Y-89817393D01*
X95676472Y-89817393D02*
X95676472Y-89007870D01*
X96628853Y-89007870D02*
X96152663Y-89007870D01*
X96152663Y-89007870D02*
X96105044Y-89484060D01*
X96105044Y-89484060D02*
X96152663Y-89436441D01*
X96152663Y-89436441D02*
X96247901Y-89388822D01*
X96247901Y-89388822D02*
X96485996Y-89388822D01*
X96485996Y-89388822D02*
X96581234Y-89436441D01*
X96581234Y-89436441D02*
X96628853Y-89484060D01*
X96628853Y-89484060D02*
X96676472Y-89579298D01*
X96676472Y-89579298D02*
X96676472Y-89817393D01*
X96676472Y-89817393D02*
X96628853Y-89912631D01*
X96628853Y-89912631D02*
X96581234Y-89960251D01*
X96581234Y-89960251D02*
X96485996Y-90007870D01*
X96485996Y-90007870D02*
X96247901Y-90007870D01*
X96247901Y-90007870D02*
X96152663Y-89960251D01*
X96152663Y-89960251D02*
X96105044Y-89912631D01*
X116310339Y-116837870D02*
X116310339Y-117647393D01*
X116310339Y-117647393D02*
X116357958Y-117742631D01*
X116357958Y-117742631D02*
X116405577Y-117790251D01*
X116405577Y-117790251D02*
X116500815Y-117837870D01*
X116500815Y-117837870D02*
X116691291Y-117837870D01*
X116691291Y-117837870D02*
X116786529Y-117790251D01*
X116786529Y-117790251D02*
X116834148Y-117742631D01*
X116834148Y-117742631D02*
X116881767Y-117647393D01*
X116881767Y-117647393D02*
X116881767Y-116837870D01*
X117310339Y-116933108D02*
X117357958Y-116885489D01*
X117357958Y-116885489D02*
X117453196Y-116837870D01*
X117453196Y-116837870D02*
X117691291Y-116837870D01*
X117691291Y-116837870D02*
X117786529Y-116885489D01*
X117786529Y-116885489D02*
X117834148Y-116933108D01*
X117834148Y-116933108D02*
X117881767Y-117028346D01*
X117881767Y-117028346D02*
X117881767Y-117123584D01*
X117881767Y-117123584D02*
X117834148Y-117266441D01*
X117834148Y-117266441D02*
X117262720Y-117837870D01*
X117262720Y-117837870D02*
X117881767Y-117837870D01*
X52886529Y-105435908D02*
X52934149Y-105483527D01*
X52934149Y-105483527D02*
X52981768Y-105626384D01*
X52981768Y-105626384D02*
X52981768Y-105721622D01*
X52981768Y-105721622D02*
X52934149Y-105864479D01*
X52934149Y-105864479D02*
X52838910Y-105959717D01*
X52838910Y-105959717D02*
X52743672Y-106007336D01*
X52743672Y-106007336D02*
X52553196Y-106054955D01*
X52553196Y-106054955D02*
X52410339Y-106054955D01*
X52410339Y-106054955D02*
X52219863Y-106007336D01*
X52219863Y-106007336D02*
X52124625Y-105959717D01*
X52124625Y-105959717D02*
X52029387Y-105864479D01*
X52029387Y-105864479D02*
X51981768Y-105721622D01*
X51981768Y-105721622D02*
X51981768Y-105626384D01*
X51981768Y-105626384D02*
X52029387Y-105483527D01*
X52029387Y-105483527D02*
X52077006Y-105435908D01*
X52981768Y-104483527D02*
X52981768Y-105054955D01*
X52981768Y-104769241D02*
X51981768Y-104769241D01*
X51981768Y-104769241D02*
X52124625Y-104864479D01*
X52124625Y-104864479D02*
X52219863Y-104959717D01*
X52219863Y-104959717D02*
X52267482Y-105054955D01*
X52981768Y-104007336D02*
X52981768Y-103816860D01*
X52981768Y-103816860D02*
X52934149Y-103721622D01*
X52934149Y-103721622D02*
X52886529Y-103674003D01*
X52886529Y-103674003D02*
X52743672Y-103578765D01*
X52743672Y-103578765D02*
X52553196Y-103531146D01*
X52553196Y-103531146D02*
X52172244Y-103531146D01*
X52172244Y-103531146D02*
X52077006Y-103578765D01*
X52077006Y-103578765D02*
X52029387Y-103626384D01*
X52029387Y-103626384D02*
X51981768Y-103721622D01*
X51981768Y-103721622D02*
X51981768Y-103912098D01*
X51981768Y-103912098D02*
X52029387Y-104007336D01*
X52029387Y-104007336D02*
X52077006Y-104054955D01*
X52077006Y-104054955D02*
X52172244Y-104102574D01*
X52172244Y-104102574D02*
X52410339Y-104102574D01*
X52410339Y-104102574D02*
X52505577Y-104054955D01*
X52505577Y-104054955D02*
X52553196Y-104007336D01*
X52553196Y-104007336D02*
X52600815Y-103912098D01*
X52600815Y-103912098D02*
X52600815Y-103721622D01*
X52600815Y-103721622D02*
X52553196Y-103626384D01*
X52553196Y-103626384D02*
X52505577Y-103578765D01*
X52505577Y-103578765D02*
X52410339Y-103531146D01*
X101901666Y-123454820D02*
X101901666Y-124169105D01*
X101901666Y-124169105D02*
X101854047Y-124311962D01*
X101854047Y-124311962D02*
X101758809Y-124407201D01*
X101758809Y-124407201D02*
X101615952Y-124454820D01*
X101615952Y-124454820D02*
X101520714Y-124454820D01*
X102425476Y-124454820D02*
X102615952Y-124454820D01*
X102615952Y-124454820D02*
X102711190Y-124407201D01*
X102711190Y-124407201D02*
X102758809Y-124359581D01*
X102758809Y-124359581D02*
X102854047Y-124216724D01*
X102854047Y-124216724D02*
X102901666Y-124026248D01*
X102901666Y-124026248D02*
X102901666Y-123645296D01*
X102901666Y-123645296D02*
X102854047Y-123550058D01*
X102854047Y-123550058D02*
X102806428Y-123502439D01*
X102806428Y-123502439D02*
X102711190Y-123454820D01*
X102711190Y-123454820D02*
X102520714Y-123454820D01*
X102520714Y-123454820D02*
X102425476Y-123502439D01*
X102425476Y-123502439D02*
X102377857Y-123550058D01*
X102377857Y-123550058D02*
X102330238Y-123645296D01*
X102330238Y-123645296D02*
X102330238Y-123883391D01*
X102330238Y-123883391D02*
X102377857Y-123978629D01*
X102377857Y-123978629D02*
X102425476Y-124026248D01*
X102425476Y-124026248D02*
X102520714Y-124073867D01*
X102520714Y-124073867D02*
X102711190Y-124073867D01*
X102711190Y-124073867D02*
X102806428Y-124026248D01*
X102806428Y-124026248D02*
X102854047Y-123978629D01*
X102854047Y-123978629D02*
X102901666Y-123883391D01*
X109855000Y-116294819D02*
X109855000Y-116532914D01*
X109616905Y-116437676D02*
X109855000Y-116532914D01*
X109855000Y-116532914D02*
X110093095Y-116437676D01*
X109712143Y-116723390D02*
X109855000Y-116532914D01*
X109855000Y-116532914D02*
X109997857Y-116723390D01*
X105265044Y-83292870D02*
X105265044Y-84102393D01*
X105265044Y-84102393D02*
X105312663Y-84197631D01*
X105312663Y-84197631D02*
X105360282Y-84245251D01*
X105360282Y-84245251D02*
X105455520Y-84292870D01*
X105455520Y-84292870D02*
X105645996Y-84292870D01*
X105645996Y-84292870D02*
X105741234Y-84245251D01*
X105741234Y-84245251D02*
X105788853Y-84197631D01*
X105788853Y-84197631D02*
X105836472Y-84102393D01*
X105836472Y-84102393D02*
X105836472Y-83292870D01*
X106836472Y-84292870D02*
X106265044Y-84292870D01*
X106550758Y-84292870D02*
X106550758Y-83292870D01*
X106550758Y-83292870D02*
X106455520Y-83435727D01*
X106455520Y-83435727D02*
X106360282Y-83530965D01*
X106360282Y-83530965D02*
X106265044Y-83578584D01*
X110426529Y-102895908D02*
X110474149Y-102943527D01*
X110474149Y-102943527D02*
X110521768Y-103086384D01*
X110521768Y-103086384D02*
X110521768Y-103181622D01*
X110521768Y-103181622D02*
X110474149Y-103324479D01*
X110474149Y-103324479D02*
X110378910Y-103419717D01*
X110378910Y-103419717D02*
X110283672Y-103467336D01*
X110283672Y-103467336D02*
X110093196Y-103514955D01*
X110093196Y-103514955D02*
X109950339Y-103514955D01*
X109950339Y-103514955D02*
X109759863Y-103467336D01*
X109759863Y-103467336D02*
X109664625Y-103419717D01*
X109664625Y-103419717D02*
X109569387Y-103324479D01*
X109569387Y-103324479D02*
X109521768Y-103181622D01*
X109521768Y-103181622D02*
X109521768Y-103086384D01*
X109521768Y-103086384D02*
X109569387Y-102943527D01*
X109569387Y-102943527D02*
X109617006Y-102895908D01*
X109617006Y-102514955D02*
X109569387Y-102467336D01*
X109569387Y-102467336D02*
X109521768Y-102372098D01*
X109521768Y-102372098D02*
X109521768Y-102134003D01*
X109521768Y-102134003D02*
X109569387Y-102038765D01*
X109569387Y-102038765D02*
X109617006Y-101991146D01*
X109617006Y-101991146D02*
X109712244Y-101943527D01*
X109712244Y-101943527D02*
X109807482Y-101943527D01*
X109807482Y-101943527D02*
X109950339Y-101991146D01*
X109950339Y-101991146D02*
X110521768Y-102562574D01*
X110521768Y-102562574D02*
X110521768Y-101943527D01*
X109855101Y-101086384D02*
X110521768Y-101086384D01*
X109474149Y-101324479D02*
X110188434Y-101562574D01*
X110188434Y-101562574D02*
X110188434Y-100943527D01*
X115403333Y-112754580D02*
X115355714Y-112802200D01*
X115355714Y-112802200D02*
X115212857Y-112849819D01*
X115212857Y-112849819D02*
X115117619Y-112849819D01*
X115117619Y-112849819D02*
X114974762Y-112802200D01*
X114974762Y-112802200D02*
X114879524Y-112706961D01*
X114879524Y-112706961D02*
X114831905Y-112611723D01*
X114831905Y-112611723D02*
X114784286Y-112421247D01*
X114784286Y-112421247D02*
X114784286Y-112278390D01*
X114784286Y-112278390D02*
X114831905Y-112087914D01*
X114831905Y-112087914D02*
X114879524Y-111992676D01*
X114879524Y-111992676D02*
X114974762Y-111897438D01*
X114974762Y-111897438D02*
X115117619Y-111849819D01*
X115117619Y-111849819D02*
X115212857Y-111849819D01*
X115212857Y-111849819D02*
X115355714Y-111897438D01*
X115355714Y-111897438D02*
X115403333Y-111945057D01*
X116260476Y-112183152D02*
X116260476Y-112849819D01*
X116022381Y-111802200D02*
X115784286Y-112516485D01*
X115784286Y-112516485D02*
X116403333Y-112516485D01*
X78327415Y-104476470D02*
X78327415Y-105190755D01*
X78327415Y-105190755D02*
X78279796Y-105333612D01*
X78279796Y-105333612D02*
X78184558Y-105428851D01*
X78184558Y-105428851D02*
X78041701Y-105476470D01*
X78041701Y-105476470D02*
X77946463Y-105476470D01*
X79327415Y-105476470D02*
X78755987Y-105476470D01*
X79041701Y-105476470D02*
X79041701Y-104476470D01*
X79041701Y-104476470D02*
X78946463Y-104619327D01*
X78946463Y-104619327D02*
X78851225Y-104714565D01*
X78851225Y-104714565D02*
X78755987Y-104762184D01*
X88287415Y-104476470D02*
X88287415Y-105190755D01*
X88287415Y-105190755D02*
X88239796Y-105333612D01*
X88239796Y-105333612D02*
X88144558Y-105428851D01*
X88144558Y-105428851D02*
X88001701Y-105476470D01*
X88001701Y-105476470D02*
X87906463Y-105476470D01*
X89239796Y-104476470D02*
X88763606Y-104476470D01*
X88763606Y-104476470D02*
X88715987Y-104952660D01*
X88715987Y-104952660D02*
X88763606Y-104905041D01*
X88763606Y-104905041D02*
X88858844Y-104857422D01*
X88858844Y-104857422D02*
X89096939Y-104857422D01*
X89096939Y-104857422D02*
X89192177Y-104905041D01*
X89192177Y-104905041D02*
X89239796Y-104952660D01*
X89239796Y-104952660D02*
X89287415Y-105047898D01*
X89287415Y-105047898D02*
X89287415Y-105285993D01*
X89287415Y-105285993D02*
X89239796Y-105381231D01*
X89239796Y-105381231D02*
X89192177Y-105428851D01*
X89192177Y-105428851D02*
X89096939Y-105476470D01*
X89096939Y-105476470D02*
X88858844Y-105476470D01*
X88858844Y-105476470D02*
X88763606Y-105428851D01*
X88763606Y-105428851D02*
X88715987Y-105381231D01*
X77827415Y-96856470D02*
X77827415Y-97570755D01*
X77827415Y-97570755D02*
X77779796Y-97713612D01*
X77779796Y-97713612D02*
X77684558Y-97808851D01*
X77684558Y-97808851D02*
X77541701Y-97856470D01*
X77541701Y-97856470D02*
X77446463Y-97856470D01*
X78732177Y-96856470D02*
X78541701Y-96856470D01*
X78541701Y-96856470D02*
X78446463Y-96904089D01*
X78446463Y-96904089D02*
X78398844Y-96951708D01*
X78398844Y-96951708D02*
X78303606Y-97094565D01*
X78303606Y-97094565D02*
X78255987Y-97285041D01*
X78255987Y-97285041D02*
X78255987Y-97665993D01*
X78255987Y-97665993D02*
X78303606Y-97761231D01*
X78303606Y-97761231D02*
X78351225Y-97808851D01*
X78351225Y-97808851D02*
X78446463Y-97856470D01*
X78446463Y-97856470D02*
X78636939Y-97856470D01*
X78636939Y-97856470D02*
X78732177Y-97808851D01*
X78732177Y-97808851D02*
X78779796Y-97761231D01*
X78779796Y-97761231D02*
X78827415Y-97665993D01*
X78827415Y-97665993D02*
X78827415Y-97427898D01*
X78827415Y-97427898D02*
X78779796Y-97332660D01*
X78779796Y-97332660D02*
X78732177Y-97285041D01*
X78732177Y-97285041D02*
X78636939Y-97237422D01*
X78636939Y-97237422D02*
X78446463Y-97237422D01*
X78446463Y-97237422D02*
X78351225Y-97285041D01*
X78351225Y-97285041D02*
X78303606Y-97332660D01*
X78303606Y-97332660D02*
X78255987Y-97427898D01*
X67867415Y-104476470D02*
X67867415Y-105190755D01*
X67867415Y-105190755D02*
X67819796Y-105333612D01*
X67819796Y-105333612D02*
X67724558Y-105428851D01*
X67724558Y-105428851D02*
X67581701Y-105476470D01*
X67581701Y-105476470D02*
X67486463Y-105476470D01*
X68248368Y-104476470D02*
X68867415Y-104476470D01*
X68867415Y-104476470D02*
X68534082Y-104857422D01*
X68534082Y-104857422D02*
X68676939Y-104857422D01*
X68676939Y-104857422D02*
X68772177Y-104905041D01*
X68772177Y-104905041D02*
X68819796Y-104952660D01*
X68819796Y-104952660D02*
X68867415Y-105047898D01*
X68867415Y-105047898D02*
X68867415Y-105285993D01*
X68867415Y-105285993D02*
X68819796Y-105381231D01*
X68819796Y-105381231D02*
X68772177Y-105428851D01*
X68772177Y-105428851D02*
X68676939Y-105476470D01*
X68676939Y-105476470D02*
X68391225Y-105476470D01*
X68391225Y-105476470D02*
X68295987Y-105428851D01*
X68295987Y-105428851D02*
X68248368Y-105381231D01*
X88287415Y-96856470D02*
X88287415Y-97570755D01*
X88287415Y-97570755D02*
X88239796Y-97713612D01*
X88239796Y-97713612D02*
X88144558Y-97808851D01*
X88144558Y-97808851D02*
X88001701Y-97856470D01*
X88001701Y-97856470D02*
X87906463Y-97856470D01*
X88715987Y-96951708D02*
X88763606Y-96904089D01*
X88763606Y-96904089D02*
X88858844Y-96856470D01*
X88858844Y-96856470D02*
X89096939Y-96856470D01*
X89096939Y-96856470D02*
X89192177Y-96904089D01*
X89192177Y-96904089D02*
X89239796Y-96951708D01*
X89239796Y-96951708D02*
X89287415Y-97046946D01*
X89287415Y-97046946D02*
X89287415Y-97142184D01*
X89287415Y-97142184D02*
X89239796Y-97285041D01*
X89239796Y-97285041D02*
X88668368Y-97856470D01*
X88668368Y-97856470D02*
X89287415Y-97856470D01*
X67867415Y-96856470D02*
X67867415Y-97570755D01*
X67867415Y-97570755D02*
X67819796Y-97713612D01*
X67819796Y-97713612D02*
X67724558Y-97808851D01*
X67724558Y-97808851D02*
X67581701Y-97856470D01*
X67581701Y-97856470D02*
X67486463Y-97856470D01*
X68772177Y-97189803D02*
X68772177Y-97856470D01*
X68534082Y-96808851D02*
X68295987Y-97523136D01*
X68295987Y-97523136D02*
X68915034Y-97523136D01*
D13*
%TO.C,R10*%
X125599449Y-96283327D02*
X125599449Y-96792775D01*
X124554449Y-96283327D02*
X124554449Y-96792775D01*
%TO.C,U8*%
X107843049Y-104704151D02*
X107843049Y-105547911D01*
X107843049Y-109118191D02*
X107843049Y-109961951D01*
X107843049Y-109961951D02*
X108686809Y-109961951D01*
X108686809Y-104704151D02*
X107843049Y-104704151D01*
X112257089Y-109961951D02*
X113100849Y-109961951D01*
X113100849Y-104704151D02*
X112257089Y-104704151D01*
X113100849Y-105547911D02*
X113100849Y-104704151D01*
X113100849Y-109961951D02*
X113100849Y-109118191D01*
D12*
X107660873Y-104383051D02*
G75*
G03*
X107383025Y-104383051I-138924J0D01*
G01*
X107383025Y-104383051D02*
G75*
G03*
X107660873Y-104383051I138924J0D01*
G01*
X109362449Y-104272351D02*
X108981449Y-104272351D01*
X108981449Y-104018351D01*
X109362449Y-104018351D01*
X109362449Y-104272351D01*
G36*
X109362449Y-104272351D02*
G01*
X108981449Y-104272351D01*
X108981449Y-104018351D01*
X109362449Y-104018351D01*
X109362449Y-104272351D01*
G37*
X111962449Y-110647751D02*
X111581449Y-110647751D01*
X111581449Y-110393751D01*
X111962449Y-110393751D01*
X111962449Y-110647751D01*
G36*
X111962449Y-110647751D02*
G01*
X111581449Y-110647751D01*
X111581449Y-110393751D01*
X111962449Y-110393751D01*
X111962449Y-110647751D01*
G37*
D13*
%TO.C,C3*%
X112230682Y-99203051D02*
X112523216Y-99203051D01*
X112230682Y-100223051D02*
X112523216Y-100223051D01*
%TO.C,C18*%
X53446949Y-98589318D02*
X53446949Y-98296784D01*
X54466949Y-98589318D02*
X54466949Y-98296784D01*
%TO.C,C23*%
X105266949Y-104011784D02*
X105266949Y-104304318D01*
X104246949Y-104011784D02*
X104246949Y-104304318D01*
%TO.C,R1*%
X122935276Y-114412500D02*
X123444724Y-114412500D01*
X122935276Y-115457500D02*
X123444724Y-115457500D01*
%TO.C,C6*%
X119930996Y-108003051D02*
X118508492Y-108003051D01*
X119930996Y-106183051D02*
X118508492Y-106183051D01*
%TO.C,U6*%
X62171949Y-95218051D02*
X62171949Y-108018051D01*
X57971949Y-95218051D02*
X62171949Y-95218051D01*
X57171949Y-96018051D02*
X57971949Y-95218051D01*
X62171949Y-108018051D02*
X57171949Y-108018051D01*
X57171949Y-108018051D02*
X57171949Y-96018051D01*
%TO.C,U9*%
X95770700Y-123659900D02*
X95770700Y-122917065D01*
X95770700Y-122192935D02*
X95770700Y-120377065D01*
X95770700Y-119652935D02*
X95770700Y-118910100D01*
X95770700Y-118910100D02*
X90919300Y-118910100D01*
X90919300Y-123659900D02*
X95770700Y-123659900D01*
X90919300Y-122917065D02*
X90919300Y-123659900D01*
X90919300Y-120377065D02*
X90919300Y-122192935D01*
X90919300Y-118910100D02*
X90919300Y-119652935D01*
D12*
X96776787Y-123665000D02*
G75*
G03*
X96360613Y-123665000I-208087J0D01*
G01*
X96360613Y-123665000D02*
G75*
G03*
X96776787Y-123665000I208087J0D01*
G01*
D13*
%TO.C,C10*%
X102070682Y-94758051D02*
X102363216Y-94758051D01*
X102070682Y-95778051D02*
X102363216Y-95778051D01*
%TO.C,C25*%
X104246949Y-108114318D02*
X104246949Y-107821784D01*
X105266949Y-108114318D02*
X105266949Y-107821784D01*
%TO.C,L1*%
X118610487Y-118936051D02*
X117874001Y-118936051D01*
X117874001Y-123190051D02*
X118610487Y-123190051D01*
D12*
%TO.C,U7*%
X124446949Y-91568051D02*
X122746949Y-91568051D01*
X122746949Y-91568051D02*
X122746949Y-94068051D01*
X122746949Y-94068051D02*
X124446949Y-94068051D01*
X124446949Y-94068051D02*
X124446949Y-91568051D01*
X124656949Y-92093051D02*
G75*
G03*
X124656949Y-92093051I0J0D01*
G01*
X124656949Y-92093051D02*
G75*
G03*
X124656949Y-92093051I0J0D01*
G01*
D13*
%TO.C,C26*%
X116333216Y-102128051D02*
X116040682Y-102128051D01*
X116333216Y-101108051D02*
X116040682Y-101108051D01*
D12*
%TO.C,U4*%
X100456949Y-93393051D02*
X100546949Y-93343051D01*
X100456949Y-93393051D02*
X100456949Y-93053051D01*
D13*
X101912778Y-93299551D02*
X102521120Y-93299551D01*
D12*
X100336949Y-93053051D02*
X100566949Y-93053051D01*
X100456949Y-93053051D02*
X100336949Y-93053051D01*
D13*
X103664749Y-92228896D02*
X103664749Y-91957206D01*
X100769149Y-91957206D02*
X100769149Y-92228896D01*
X102521120Y-90886551D02*
X101912778Y-90886551D01*
%TO.C,J7*%
X102940849Y-96792051D02*
X97683049Y-96792051D01*
X97683049Y-96792051D02*
X97683049Y-110254051D01*
X102940849Y-110254051D02*
X102940849Y-96792051D01*
X97683049Y-110254051D02*
X102940849Y-110254051D01*
X100057949Y-96157051D02*
G75*
G03*
X99295949Y-96157051I-381000J0D01*
G01*
X99295949Y-96157051D02*
G75*
G03*
X100057949Y-96157051I381000J0D01*
G01*
%TO.C,R7*%
X123694449Y-96283327D02*
X123694449Y-96792775D01*
X122649449Y-96283327D02*
X122649449Y-96792775D01*
%TO.C,C8*%
X123725716Y-84348051D02*
X123433182Y-84348051D01*
X123725716Y-83328051D02*
X123433182Y-83328051D01*
%TO.C,C1*%
X120756949Y-100494318D02*
X120756949Y-100201784D01*
X121776949Y-100494318D02*
X121776949Y-100201784D01*
%TO.C,C9*%
X103996949Y-84326784D02*
X103996949Y-84619318D01*
X102976949Y-84326784D02*
X102976949Y-84619318D01*
%TO.C,J8*%
X80226958Y-113519999D02*
X80226958Y-125760000D01*
X80226958Y-125760000D02*
X87376943Y-125760000D01*
X82770404Y-113519999D02*
X80226958Y-113519999D01*
X87376943Y-113519999D02*
X84833494Y-113519999D01*
X87376943Y-125760000D02*
X87376943Y-113519999D01*
X87630943Y-116840000D02*
X89154943Y-116205000D01*
X89154943Y-116205000D02*
X89154943Y-117475000D01*
X89154943Y-117475000D02*
X87630943Y-116840000D01*
%TO.C,C2*%
X112230682Y-101108051D02*
X112523216Y-101108051D01*
X112230682Y-102128051D02*
X112523216Y-102128051D01*
%TO.C,C27*%
X123433182Y-87138051D02*
X123725716Y-87138051D01*
X123433182Y-88158051D02*
X123725716Y-88158051D01*
%TO.C,C22*%
X106173216Y-101493051D02*
X105880682Y-101493051D01*
X106173216Y-100473051D02*
X105880682Y-100473051D01*
%TO.C,C11*%
X118851949Y-100494318D02*
X118851949Y-100201784D01*
X119871949Y-100494318D02*
X119871949Y-100201784D01*
%TO.C,C7*%
X125185000Y-118033748D02*
X125185000Y-119456252D01*
X122465000Y-118033748D02*
X122465000Y-119456252D01*
%TO.C,D1*%
X93071949Y-109173051D02*
X89771949Y-109173051D01*
X93071949Y-109173051D02*
X93071949Y-116183051D01*
X89771949Y-109173051D02*
X89771949Y-116183051D01*
%TO.C,C13*%
X90005682Y-82693051D02*
X90298216Y-82693051D01*
X90005682Y-83713051D02*
X90298216Y-83713051D01*
%TO.C,C20*%
X54081949Y-111924318D02*
X54081949Y-111631784D01*
X55101949Y-111924318D02*
X55101949Y-111631784D01*
%TO.C,C5*%
X119773477Y-109123051D02*
X120066011Y-109123051D01*
X119773477Y-110143051D02*
X120066011Y-110143051D01*
%TO.C,R11*%
X95754449Y-115968327D02*
X95754449Y-116477775D01*
X94709449Y-115968327D02*
X94709449Y-116477775D01*
%TO.C,C14*%
X86195682Y-82693051D02*
X86488216Y-82693051D01*
X86195682Y-83713051D02*
X86488216Y-83713051D01*
%TO.C,R12*%
X123834173Y-86265551D02*
X123324725Y-86265551D01*
X123834173Y-85220551D02*
X123324725Y-85220551D01*
%TO.C,U5*%
X94011949Y-92053051D02*
X81211949Y-92053051D01*
X94011949Y-87853051D02*
X94011949Y-92053051D01*
X93211949Y-87053051D02*
X94011949Y-87853051D01*
X81211949Y-92053051D02*
X81211949Y-87053051D01*
X81211949Y-87053051D02*
X93211949Y-87053051D01*
%TO.C,U2*%
X121188644Y-113036651D02*
X120985444Y-113036651D01*
X118039044Y-113036651D02*
X117835844Y-113036651D01*
X117835844Y-113036651D02*
X117835844Y-116389451D01*
X121188644Y-116389451D02*
X121188644Y-113036651D01*
X120985444Y-116389451D02*
X121188644Y-116389451D01*
X117835844Y-116389451D02*
X118039044Y-116389451D01*
D12*
X121430306Y-112313051D02*
G75*
G03*
X121174182Y-112313051I-128062J0D01*
G01*
X121174182Y-112313051D02*
G75*
G03*
X121430306Y-112313051I128062J0D01*
G01*
X120703504Y-118103951D02*
X120322504Y-118103951D01*
X120322504Y-117849951D01*
X120703504Y-117849951D01*
X120703504Y-118103951D01*
G36*
X120703504Y-118103951D02*
G01*
X120322504Y-118103951D01*
X120322504Y-117849951D01*
X120703504Y-117849951D01*
X120703504Y-118103951D01*
G37*
D13*
%TO.C,C19*%
X53446949Y-104939318D02*
X53446949Y-104646784D01*
X54466949Y-104939318D02*
X54466949Y-104646784D01*
%TO.C,J9*%
X103280012Y-113519999D02*
X103280012Y-125760000D01*
X103280012Y-125760000D02*
X113429991Y-125760000D01*
X105823456Y-113519999D02*
X103280012Y-113519999D01*
X108823455Y-113519999D02*
X107886546Y-113519999D01*
X113429991Y-113519999D02*
X110886545Y-113519999D01*
X113429991Y-125760000D02*
X113429991Y-113519999D01*
X113683991Y-116840000D02*
X115207991Y-116205000D01*
X115207991Y-116205000D02*
X115207991Y-117475000D01*
X115207991Y-117475000D02*
X113683991Y-116840000D01*
%TO.C,U1*%
X106776948Y-95788052D02*
X106776948Y-84588052D01*
X117976948Y-95788052D02*
X106776948Y-95788052D01*
X117976948Y-95788052D02*
X117976948Y-84588052D01*
X117976948Y-84588052D02*
X106776948Y-84588052D01*
X107051951Y-96913052D02*
G75*
G03*
X106801949Y-96913052I-125001J0D01*
G01*
X106801949Y-96913052D02*
G75*
G03*
X107051951Y-96913052I125001J0D01*
G01*
X108076947Y-94788052D02*
G75*
G03*
X107476949Y-94788052I-299999J0D01*
G01*
X107476949Y-94788052D02*
G75*
G03*
X108076947Y-94788052I299999J0D01*
G01*
%TO.C,C24*%
X108056949Y-102399318D02*
X108056949Y-102106784D01*
X109076949Y-102399318D02*
X109076949Y-102106784D01*
%TO.C,C4*%
X116212244Y-114566784D02*
X116212244Y-114859318D01*
X115192244Y-114566784D02*
X115192244Y-114859318D01*
%TO.C,R2*%
X99296673Y-112300551D02*
X98787225Y-112300551D01*
X99296673Y-111255551D02*
X98787225Y-111255551D01*
%TD*%
M02*
