%TF.GenerationSoftware,KiCad,Pcbnew,7.0.10*%
%TF.CreationDate,2025-02-18T11:07:04-08:00*%
%TF.ProjectId,flow-controller,666c6f77-2d63-46f6-9e74-726f6c6c6572,rev?*%
%TF.SameCoordinates,Original*%
%TF.FileFunction,Soldermask,Top*%
%TF.FilePolarity,Negative*%
%FSLAX46Y46*%
G04 Gerber Fmt 4.6, Leading zero omitted, Abs format (unit mm)*
G04 Created by KiCad (PCBNEW 7.0.10) date 2025-02-18 11:07:04*
%MOMM*%
%LPD*%
G01*
G04 APERTURE LIST*
G04 Aperture macros list*
%AMRoundRect*
0 Rectangle with rounded corners*
0 $1 Rounding radius*
0 $2 $3 $4 $5 $6 $7 $8 $9 X,Y pos of 4 corners*
0 Add a 4 corners polygon primitive as box body*
4,1,4,$2,$3,$4,$5,$6,$7,$8,$9,$2,$3,0*
0 Add four circle primitives for the rounded corners*
1,1,$1+$1,$2,$3*
1,1,$1+$1,$4,$5*
1,1,$1+$1,$6,$7*
1,1,$1+$1,$8,$9*
0 Add four rect primitives between the rounded corners*
20,1,$1+$1,$2,$3,$4,$5,0*
20,1,$1+$1,$4,$5,$6,$7,0*
20,1,$1+$1,$6,$7,$8,$9,0*
20,1,$1+$1,$8,$9,$2,$3,0*%
G04 Aperture macros list end*
%ADD10R,0.914400X1.447800*%
%ADD11R,0.558800X0.914400*%
%ADD12RoundRect,0.237500X-0.237500X0.250000X-0.237500X-0.250000X0.237500X-0.250000X0.237500X0.250000X0*%
%ADD13R,0.965200X0.304800*%
%ADD14R,0.304800X0.965200*%
%ADD15R,3.251200X3.251200*%
%ADD16RoundRect,0.237500X-0.300000X-0.237500X0.300000X-0.237500X0.300000X0.237500X-0.300000X0.237500X0*%
%ADD17RoundRect,0.237500X0.237500X-0.300000X0.237500X0.300000X-0.237500X0.300000X-0.237500X-0.300000X0*%
%ADD18RoundRect,0.237500X-0.237500X0.300000X-0.237500X-0.300000X0.237500X-0.300000X0.237500X0.300000X0*%
%ADD19RoundRect,0.237500X-0.250000X-0.237500X0.250000X-0.237500X0.250000X0.237500X-0.250000X0.237500X0*%
%ADD20RoundRect,0.250000X0.412500X0.650000X-0.412500X0.650000X-0.412500X-0.650000X0.412500X-0.650000X0*%
%ADD21R,1.500000X0.300000*%
%ADD22R,4.000000X8.000000*%
%ADD23R,1.219200X0.457200*%
%ADD24R,1.600000X3.900000*%
%ADD25RoundRect,0.162500X0.162500X0.262500X-0.162500X0.262500X-0.162500X-0.262500X0.162500X-0.262500X0*%
%ADD26RoundRect,0.237500X0.300000X0.237500X-0.300000X0.237500X-0.300000X-0.237500X0.300000X-0.237500X0*%
%ADD27R,1.095500X1.004801*%
%ADD28R,1.105500X1.014801*%
%ADD29R,1.085500X1.014801*%
%ADD30R,1.105500X1.004801*%
%ADD31C,1.168400*%
%ADD32C,2.999999*%
%ADD33R,1.520000X1.520000*%
%ADD34C,1.520000*%
%ADD35RoundRect,0.250000X-1.100000X0.412500X-1.100000X-0.412500X1.100000X-0.412500X1.100000X0.412500X0*%
%ADD36RoundRect,0.250000X-0.650000X1.500000X-0.650000X-1.500000X0.650000X-1.500000X0.650000X1.500000X0*%
%ADD37RoundRect,0.237500X0.250000X0.237500X-0.250000X0.237500X-0.250000X-0.237500X0.250000X-0.237500X0*%
%ADD38R,0.300000X1.500000*%
%ADD39R,8.000000X4.000000*%
%ADD40R,0.279400X1.333500*%
%ADD41O,0.299999X1.450000*%
%ADD42O,1.450000X0.299999*%
%ADD43R,1.700000X1.700000*%
%ADD44O,1.700000X1.700000*%
%ADD45R,2.400000X2.400000*%
%ADD46C,2.400000*%
G04 APERTURE END LIST*
D10*
%TO.C,U3*%
X103220249Y-88283051D03*
D11*
X102216949Y-87660751D03*
D10*
X101213649Y-88283051D03*
D11*
X102216949Y-88905351D03*
%TD*%
D12*
%TO.C,R10*%
X125076949Y-95625551D03*
X125076949Y-97450551D03*
%TD*%
D13*
%TO.C,U8*%
X108147849Y-106033051D03*
X108147849Y-106683052D03*
X108147849Y-107333051D03*
X108147849Y-107983050D03*
X108147849Y-108633051D03*
D14*
X109171949Y-109657151D03*
X109821950Y-109657151D03*
X110471949Y-109657151D03*
X111121948Y-109657151D03*
X111771949Y-109657151D03*
D13*
X112796049Y-108633051D03*
X112796049Y-107983050D03*
X112796049Y-107333051D03*
X112796049Y-106683052D03*
X112796049Y-106033051D03*
D14*
X111771949Y-105008951D03*
X111121948Y-105008951D03*
X110471949Y-105008951D03*
X109821950Y-105008951D03*
X109171949Y-105008951D03*
D15*
X110471949Y-107333051D03*
%TD*%
D16*
%TO.C,C3*%
X111514449Y-99713051D03*
X113239449Y-99713051D03*
%TD*%
D17*
%TO.C,C18*%
X53956949Y-99305551D03*
X53956949Y-97580551D03*
%TD*%
D18*
%TO.C,C23*%
X104756949Y-103295551D03*
X104756949Y-105020551D03*
%TD*%
D19*
%TO.C,R1*%
X122277500Y-114935000D03*
X124102500Y-114935000D03*
%TD*%
D20*
%TO.C,C6*%
X120782244Y-107093051D03*
X117657244Y-107093051D03*
%TD*%
D21*
%TO.C,U6*%
X55921949Y-95868051D03*
X55921949Y-96368051D03*
X55921949Y-96868051D03*
X55921949Y-97368051D03*
X55921949Y-97868051D03*
X55921949Y-98368051D03*
X55921949Y-98868051D03*
X55921949Y-99368051D03*
X55921949Y-99868051D03*
X55921949Y-100368051D03*
X55921949Y-100868051D03*
X55921949Y-101368051D03*
X55921949Y-101868051D03*
X55921949Y-102368051D03*
X55921949Y-102868051D03*
X55921949Y-103368051D03*
X55921949Y-103868051D03*
X55921949Y-104368051D03*
X55921949Y-104868051D03*
X55921949Y-105368051D03*
X55921949Y-105868051D03*
X55921949Y-106368051D03*
X55921949Y-106868051D03*
X55921949Y-107368051D03*
X63421949Y-107368051D03*
X63421949Y-106868051D03*
X63421949Y-106368051D03*
X63421949Y-105868051D03*
X63421949Y-105368051D03*
X63421949Y-104868051D03*
X63421949Y-104368051D03*
X63421949Y-103868051D03*
X63421949Y-103368051D03*
X63421949Y-102868051D03*
X63421949Y-102368051D03*
X63421949Y-101868051D03*
X63421949Y-101368051D03*
X63421949Y-100868051D03*
X63421949Y-100368051D03*
X63421949Y-99868051D03*
X63421949Y-99368051D03*
X63421949Y-98868051D03*
X63421949Y-98368051D03*
X63421949Y-97868051D03*
X63421949Y-97368051D03*
X63421949Y-96868051D03*
X63421949Y-96368051D03*
X63421949Y-95868051D03*
D22*
X59671949Y-101618051D03*
%TD*%
D23*
%TO.C,U9*%
X96278700Y-122555000D03*
X96278700Y-120015000D03*
X90278700Y-120015000D03*
X90278700Y-122555000D03*
%TD*%
D16*
%TO.C,C10*%
X101354449Y-95268051D03*
X103079449Y-95268051D03*
%TD*%
D17*
%TO.C,C25*%
X104756949Y-108830551D03*
X104756949Y-107105551D03*
%TD*%
D24*
%TO.C,L1*%
X119692244Y-121063051D03*
X116792244Y-121063051D03*
%TD*%
D25*
%TO.C,U7*%
X124021949Y-92093051D03*
X123171949Y-92093051D03*
X124021949Y-93543051D03*
X123171949Y-93543051D03*
%TD*%
D26*
%TO.C,C26*%
X117049449Y-101618051D03*
X115324449Y-101618051D03*
%TD*%
D27*
%TO.C,U4*%
X101224699Y-92890650D03*
D28*
X103214199Y-92895650D03*
D29*
X103204199Y-91290452D03*
D30*
X101219699Y-91295452D03*
%TD*%
D31*
%TO.C,J7*%
X99676949Y-100983051D03*
X100946949Y-100983051D03*
X99676949Y-102253051D03*
X100946949Y-102253051D03*
X99676949Y-103523051D03*
X100946949Y-103523051D03*
X99676949Y-104793051D03*
X100946949Y-104793051D03*
X99676949Y-106063051D03*
X100946949Y-106063051D03*
%TD*%
D12*
%TO.C,R7*%
X123171949Y-95625551D03*
X123171949Y-97450551D03*
%TD*%
D26*
%TO.C,C8*%
X124441949Y-83838051D03*
X122716949Y-83838051D03*
%TD*%
D17*
%TO.C,C1*%
X121266949Y-101210551D03*
X121266949Y-99485551D03*
%TD*%
D18*
%TO.C,C9*%
X103486949Y-83610551D03*
X103486949Y-85335551D03*
%TD*%
D32*
%TO.C,J8*%
X83801949Y-121159999D03*
D33*
X83801949Y-116840000D03*
D34*
X83801949Y-113840001D03*
%TD*%
D16*
%TO.C,C2*%
X111514449Y-101618051D03*
X113239449Y-101618051D03*
%TD*%
%TO.C,C27*%
X122716949Y-87648051D03*
X124441949Y-87648051D03*
%TD*%
D26*
%TO.C,C22*%
X106889449Y-100983051D03*
X105164449Y-100983051D03*
%TD*%
D17*
%TO.C,C11*%
X119361949Y-101210551D03*
X119361949Y-99485551D03*
%TD*%
D35*
%TO.C,C7*%
X123825000Y-117182500D03*
X123825000Y-120307500D03*
%TD*%
D36*
%TO.C,D1*%
X91421949Y-111183051D03*
X91421949Y-116183051D03*
%TD*%
D16*
%TO.C,C13*%
X89289449Y-83203051D03*
X91014449Y-83203051D03*
%TD*%
D17*
%TO.C,C20*%
X54591949Y-112640551D03*
X54591949Y-110915551D03*
%TD*%
D16*
%TO.C,C5*%
X119057244Y-109633051D03*
X120782244Y-109633051D03*
%TD*%
D12*
%TO.C,R11*%
X95231949Y-115310551D03*
X95231949Y-117135551D03*
%TD*%
D16*
%TO.C,C14*%
X85479449Y-83203051D03*
X87204449Y-83203051D03*
%TD*%
D37*
%TO.C,R12*%
X124491949Y-85743051D03*
X122666949Y-85743051D03*
%TD*%
D38*
%TO.C,U5*%
X93361949Y-85803051D03*
X92861949Y-85803051D03*
X92361949Y-85803051D03*
X91861949Y-85803051D03*
X91361949Y-85803051D03*
X90861949Y-85803051D03*
X90361949Y-85803051D03*
X89861949Y-85803051D03*
X89361949Y-85803051D03*
X88861949Y-85803051D03*
X88361949Y-85803051D03*
X87861949Y-85803051D03*
X87361949Y-85803051D03*
X86861949Y-85803051D03*
X86361949Y-85803051D03*
X85861949Y-85803051D03*
X85361949Y-85803051D03*
X84861949Y-85803051D03*
X84361949Y-85803051D03*
X83861949Y-85803051D03*
X83361949Y-85803051D03*
X82861949Y-85803051D03*
X82361949Y-85803051D03*
X81861949Y-85803051D03*
X81861949Y-93303051D03*
X82361949Y-93303051D03*
X82861949Y-93303051D03*
X83361949Y-93303051D03*
X83861949Y-93303051D03*
X84361949Y-93303051D03*
X84861949Y-93303051D03*
X85361949Y-93303051D03*
X85861949Y-93303051D03*
X86361949Y-93303051D03*
X86861949Y-93303051D03*
X87361949Y-93303051D03*
X87861949Y-93303051D03*
X88361949Y-93303051D03*
X88861949Y-93303051D03*
X89361949Y-93303051D03*
X89861949Y-93303051D03*
X90361949Y-93303051D03*
X90861949Y-93303051D03*
X91361949Y-93303051D03*
X91861949Y-93303051D03*
X92361949Y-93303051D03*
X92861949Y-93303051D03*
X93361949Y-93303051D03*
D39*
X87611949Y-89553051D03*
%TD*%
D40*
%TO.C,U2*%
X120513004Y-112496901D03*
X120012624Y-112496901D03*
X119512244Y-112496901D03*
X119011864Y-112496901D03*
X118511484Y-112496901D03*
X118511484Y-116929201D03*
X119011864Y-116929201D03*
X119512244Y-116929201D03*
X120012624Y-116929201D03*
X120513004Y-116929201D03*
%TD*%
D17*
%TO.C,C19*%
X53956949Y-105655551D03*
X53956949Y-103930551D03*
%TD*%
D32*
%TO.C,J9*%
X108355000Y-121159999D03*
D33*
X109855000Y-116840000D03*
D34*
X106855001Y-116840000D03*
X109855000Y-113840001D03*
X106855001Y-113840001D03*
%TD*%
D41*
%TO.C,U1*%
X107626948Y-96913052D03*
X108126947Y-96913052D03*
X108626949Y-96913052D03*
X109126948Y-96913052D03*
X109626949Y-96913052D03*
X110126948Y-96913052D03*
X110626947Y-96913052D03*
X111126949Y-96913052D03*
X111626948Y-96913052D03*
X112126949Y-96913052D03*
X112626949Y-96913052D03*
X113126947Y-96913052D03*
X113626949Y-96913052D03*
X114126948Y-96913052D03*
X114626950Y-96913052D03*
X115126949Y-96913052D03*
X115626948Y-96913052D03*
X116126949Y-96913052D03*
X116626948Y-96913052D03*
X117126950Y-96913052D03*
D42*
X119101950Y-94938052D03*
X119101950Y-94438053D03*
X119101950Y-93938051D03*
X119101950Y-93438052D03*
X119101950Y-92938051D03*
X119101950Y-92438052D03*
X119101950Y-91938053D03*
X119101950Y-91438051D03*
X119101950Y-90938052D03*
X119101950Y-90438051D03*
X119101950Y-89938051D03*
X119101950Y-89438053D03*
X119101950Y-88938051D03*
X119101950Y-88438052D03*
X119101950Y-87938050D03*
X119101950Y-87438051D03*
X119101950Y-86938052D03*
X119101950Y-86438051D03*
X119101950Y-85938052D03*
X119101950Y-85438050D03*
D41*
X117126950Y-83463050D03*
X116626948Y-83463050D03*
X116126949Y-83463050D03*
X115626948Y-83463050D03*
X115126949Y-83463050D03*
X114626950Y-83463050D03*
X114126948Y-83463050D03*
X113626949Y-83463050D03*
X113126947Y-83463050D03*
X112626949Y-83463050D03*
X112126949Y-83463050D03*
X111626948Y-83463050D03*
X111126949Y-83463050D03*
X110626947Y-83463050D03*
X110126948Y-83463050D03*
X109626949Y-83463050D03*
X109126948Y-83463050D03*
X108626949Y-83463050D03*
X108126947Y-83463050D03*
X107626948Y-83463050D03*
D42*
X105651948Y-85438050D03*
X105651948Y-85938052D03*
X105651948Y-86438051D03*
X105651948Y-86938052D03*
X105651948Y-87438051D03*
X105651948Y-87938050D03*
X105651948Y-88438052D03*
X105651948Y-88938051D03*
X105651948Y-89438053D03*
X105651948Y-89938051D03*
X105651948Y-90438051D03*
X105651948Y-90938052D03*
X105651948Y-91438051D03*
X105651948Y-91938053D03*
X105651948Y-92438052D03*
X105651948Y-92938051D03*
X105651948Y-93438052D03*
X105651948Y-93938051D03*
X105651948Y-94438053D03*
X105651948Y-94938052D03*
%TD*%
D17*
%TO.C,C24*%
X108566949Y-103115551D03*
X108566949Y-101390551D03*
%TD*%
D18*
%TO.C,C4*%
X115702244Y-113850551D03*
X115702244Y-115575551D03*
%TD*%
D37*
%TO.C,R2*%
X99954449Y-111778051D03*
X98129449Y-111778051D03*
%TD*%
D43*
%TO.C,J1*%
X81185749Y-105021651D03*
D44*
X83725749Y-105021651D03*
%TD*%
D45*
%TO.C,C16*%
X74050000Y-85676041D03*
D46*
X74050000Y-90676041D03*
%TD*%
D43*
%TO.C,J5*%
X91345749Y-105021651D03*
D44*
X93885749Y-105021651D03*
%TD*%
D43*
%TO.C,J6*%
X81185749Y-97401651D03*
D44*
X83725749Y-97401651D03*
%TD*%
D43*
%TO.C,J3*%
X71025749Y-105021651D03*
D44*
X73565749Y-105021651D03*
%TD*%
D43*
%TO.C,J2*%
X91345749Y-97401651D03*
D44*
X93885749Y-97401651D03*
%TD*%
D45*
%TO.C,C21*%
X74300000Y-114101041D03*
D46*
X74300000Y-119101041D03*
%TD*%
D43*
%TO.C,J4*%
X71025749Y-97401651D03*
D44*
X73565749Y-97401651D03*
%TD*%
M02*
