%
T1C.015F095S3
X0127Y01465
X0125Y0163
X01405Y0166
X0155Y0166
X0127Y01735
X0107Y01955
X0118Y0209
X01335Y02165
X0142Y0223
X01505Y0229
X0129Y024
X01145Y02595
X014Y0272
X01755Y03
X0157Y02985
X0159Y0294
X01745Y0268
X0163Y026
X01595Y0231
X0178Y02305
X0177Y0217
X0172Y0208
X0173Y02035
X0177Y02025
X01695Y0199
X0171Y0181
X0171Y0175
X01775Y0175
X01735Y017
X01585Y01575
X0205Y01335
X0187Y0179
X01975Y01905
X0193Y0192
X0185Y0199
X02005Y01995
X0187Y02085
X0196Y0217
X02015Y0219
X01845Y022
X0185Y0226
X0193Y02495
X02005Y0252
X01815Y03055
X0193Y03285
X0211Y03015
X0218Y02745
X0218Y0246
X0211Y02395
X02155Y02305
X0213Y0227
X02055Y0218
X02155Y0215
X0228Y02145
X02215Y0195
X0209Y01935
X02235Y01775
X0222Y01685
X0216Y0142
X0214Y01335
X02305Y01325
X02435Y0146
X0234Y0152
X02495Y0155
X0244Y01565
X02475Y0159
X0254Y01655
X02345Y01685
X0243Y0177
X0243Y01815
X0252Y01815
X02475Y01825
X02365Y0183
X0232Y0202
X02535Y0206
X0252Y02115
X0242Y0214
X02435Y022
X02415Y0224
X02445Y0236
X0242Y0242
X0252Y0244
X02395Y0254
X02415Y02645
X0271Y0362
X0269Y03525
X02585Y0348
X0264Y03405
X02755Y03405
X0263Y0328
X02705Y03255
X02685Y03215
X02725Y0318
X02695Y0283
X02715Y0275
X02615Y0273
X02695Y02455
X02705Y024
X0263Y02375
X02735Y02295
X0277Y02245
X02615Y0209
X02575Y0204
X02765Y0192
X02755Y0188
X0278Y01845
X02575Y0182
X02615Y01795
X0275Y0179
X02615Y0173
X02615Y01685
X02775Y0147
X02665Y01445
X0273Y01445
X02635Y01315
X02995Y01315
X02855Y0132
X02945Y0133
X0294Y01475
X02945Y01615
X02975Y0165
X02945Y01685
X02975Y01715
X03035Y0178
X029Y0188
X02835Y01945
X0295Y01985
X03035Y02105
X02805Y0216
X02975Y0248
X0284Y02535
X0286Y0274
X0299Y0291
X0296Y0296
X02875Y0299
X02965Y03015
X02875Y03035
X02845Y03305
X02815Y0347
X0301Y0357
X0319Y02615
X0308Y02405
X03075Y02305
X0317Y02195
X0308Y02035
X03125Y01895
X03115Y01835
X03115Y01775
X033Y01715
X031Y0169
X03095Y01545
X03265Y01375
X03065Y0137
X03545Y01415
X03425Y01725
X035Y0179
X03465Y01815
X0354Y02145
X03415Y02295
X0339Y0243
X0338Y02565
X03545Y0262
X03545Y02825
X03465Y0336
X0352Y0338
X03765Y02695
X03715Y02685
X03685Y0263
X0365Y0227
X03605Y0225
X03565Y02195
X0369Y0194
X0357Y01725
X0371Y0164
X03655Y016
X03715Y0142
X0363Y0124
X0417Y0136
X0392Y0159
X0386Y0163
X04035Y01805
X04135Y0183
X03885Y0203
X0412Y02045
X03855Y0206
X04145Y0224
X03845Y0241
X0395Y0286
X0429Y02935
X03825Y0308
X0441Y0305
X04325Y0303
X046Y0212
X04375Y01985
X0447Y01255
T2C.02559F197S55
X01665Y01225
X01715Y01225
X01765Y01225
X01715Y01275
X01665Y01275
X01765Y01275
X01815Y01275
X01865Y01275
X01865Y01225
X01815Y01225
T3C.0315F197S55
X011603Y014456
X011603Y016424
T4C.035F197S55
X0247Y0118
X0247Y01259
X01505Y02402
X01584Y02402
T5C.037F197S55
X01815Y02845
X02055Y0315
X0249Y03185
X0238Y0337
X0281Y03815
X0314Y03735
X02745Y03575
X0257Y03105
X0276Y02885
X0425Y0257
X0395Y0272
X04235Y03105
X03925Y0322
X04495Y0368
T6C.04F139S55
X0135Y02875
X01468Y02875
X01468Y03341
X0135Y03341
X01468Y03459
X0135Y03459
X01552Y03864
X01806Y0387
X02066Y03862
X04054Y01144
X04532Y01517
X04532Y01635
X04532Y01753
X04532Y02226
X04532Y02344
X04532Y02766
X04532Y02884
X04532Y03341
X04532Y03459
X040813Y037591
X0465Y03459
X0465Y03341
X0465Y02884
X0465Y02766
X0465Y02344
X0465Y02226
X0465Y01753
X0465Y01635
X0465Y01517
T7C.04331F139S55
X01054Y014062
X01054Y016818
T8C.05906F107S55
X03245Y018916
X03245Y020884
T9C.118F069S658
X0118Y02875
X0118Y034
X0482Y034
X0482Y02825
X0482Y02285
X0482Y01635
T10C.175F035S1033
X012Y012
X012Y038
X048Y038
X048Y012
M30
