*
*
G04 PADS VX.1.1 Build Number: 678707 generated Gerber (RS-274-X) file*
G04 PC Version=2.1*
*
%IN "pCO2SensorBoard1_4_3.pc"*%
*
%MOIN*%
*
%FSLAX35Y35*%
*
*
*
*
G04 PC Standard Apertures*
*
*
G04 Thermal Relief Aperture macro.*
%AMTER*
1,1,$1,0,0*
1,0,$1-$2,0,0*
21,0,$3,$4,0,0,45*
21,0,$3,$4,0,0,135*
%
*
*
G04 Annular Aperture macro.*
%AMANN*
1,1,$1,0,0*
1,0,$2,0,0*
%
*
*
G04 Odd Aperture macro.*
%AMODD*
1,1,$1,0,0*
1,0,$1-0.005,0,0*
%
*
*
G04 PC Custom Aperture Macros*
*
*
*
*
*
*
G04 PC Aperture Table*
*
%ADD011C,0.01*%
%ADD025R,0.1X0.1*%
%ADD087C,0.001*%
%ADD090R,0.06X0.05*%
%ADD095R,0.05X0.06*%
%ADD110R,0.00984X0.04921*%
%ADD111R,0.04921X0.00984*%
%ADD122R,0.01181X0.02756*%
%ADD123R,0.02756X0.01181*%
%ADD132R,0.05315X0.02362*%
%ADD191R,0.02756X0.01969*%
%ADD203R,0.042X0.042*%
%ADD204R,0.035X0.012*%
%ADD205R,0.012X0.035*%
%ADD206R,0.07874X0.07874*%
%ADD210R,0.05X0.025*%
%ADD326O,0.028X0.01*%
%ADD386R,0.15748X0.11811*%
%ADD387R,0.00984X0.0315*%
%ADD418R,0.01969X0.02756*%
%ADD430R,0.1378X0.07874*%
%ADD431R,0.055X0.055*%
%ADD432R,0.075X0.1*%
%ADD434R,0.0315X0.0315*%
%ADD435R,0.04331X0.0315*%
%ADD436R,0.01969X0.02362*%
%ADD437R,0.01575X0.01181*%
%ADD438R,0.02362X0.01969*%
%ADD441R,0.0315X0.03937*%
%ADD442R,0.03346X0.02362*%
%ADD443R,0.06299X0.01181*%
%ADD444R,0.185X0.075*%
%ADD445R,0.03X0.02*%
%ADD446R,0.04724X0.01181*%
%ADD447R,0.04921X0.04921*%
%ADD448R,0.07874X0.04724*%
%ADD449R,0.01969X0.01575*%
%ADD450R,0.03543X0.03543*%
%ADD453R,0.02X0.065*%
%ADD454O,0.02X0.06*%
%ADD458R,0.032X0.02*%
%ADD460R,0.1X0.075*%
%ADD461R,0.065X0.02*%
%ADD462O,0.06X0.02*%
%ADD469R,0.0075X0.022*%
%ADD470R,0.022X0.0075*%
%ADD493O,0.04X0.02*%
%ADD494R,0.085X0.12*%
%ADD503R,0.08X0.05*%
*
*
*
*
G04 PC Circuitry*
G04 Layer Name pCO2SensorBoard1_4_3.pc - circuitry*
%LPD*%
*
*
G04 PC Custom Flashes*
G04 Layer Name pCO2SensorBoard1_4_3.pc - flashes*
%LPD*%
*
*
G04 PC Circuitry*
G04 Layer Name pCO2SensorBoard1_4_3.pc - circuitry*
%LPD*%
*
G54D11*
G01X358800Y266300D02*
Y257700D01*
X350200*
Y266300*
X358800*
X366200Y206700D02*
Y215300D01*
X374800*
Y206700*
X366200*
X350200Y265799D02*
X358800D01*
X350200Y264899D02*
X358800D01*
X350200Y263999D02*
X358800D01*
X350200Y263099D02*
X358800D01*
X350200Y262199D02*
X358800D01*
X350200Y261299D02*
X358800D01*
X350200Y260399D02*
X358800D01*
X350200Y259499D02*
X358800D01*
X350200Y258599D02*
X358800D01*
X366200Y214799D02*
X374800D01*
X366200Y213899D02*
X374800D01*
X366200Y212999D02*
X374800D01*
X366200Y212099D02*
X374800D01*
X366200Y211199D02*
X374800D01*
X366200Y210299D02*
X374800D01*
X366200Y209399D02*
X374800D01*
X366200Y208499D02*
X374800D01*
X366200Y207599D02*
X374800D01*
G54D25*
X294000Y147500D03*
G54D87*
G54D90*
X267500Y152500D03*
X276500D03*
X267500Y160500D03*
X276500D03*
X158000Y265000D03*
X167000D03*
X183500Y277000D03*
X174500D03*
X404540Y262394D03*
X395540D03*
X402189Y314158D03*
X393189D03*
X378527Y285952D03*
X387527D03*
X386533Y276757D03*
X377533D03*
X313407Y145189D03*
X322407D03*
X311904Y137987D03*
X320904D03*
X266500Y366500D03*
X257500D03*
Y357500D03*
X266500D03*
X240000Y375000D03*
X249000D03*
X311500Y296500D03*
X302500D03*
X323000Y365500D03*
X314000D03*
X198000Y224000D03*
X207000D03*
X276500Y169000D03*
X267500D03*
X407500Y224000D03*
X398500D03*
Y233500D03*
X407500D03*
X211000Y268500D03*
X202000D03*
X203000Y246500D03*
X212000D03*
X309500Y131000D03*
X318500D03*
X279500Y131500D03*
X270500D03*
X227000Y107500D03*
X236000D03*
X210000Y212000D03*
X201000D03*
Y205000D03*
X210000D03*
X421000Y198500D03*
X412000D03*
X421000Y189500D03*
X412000D03*
X188400Y305700D03*
X197400D03*
X432000Y145500D03*
X441000D03*
X192500Y269000D03*
X183500D03*
X179500Y240500D03*
X170500D03*
X122000Y237000D03*
X113000D03*
X217000Y107500D03*
X208000D03*
X122500Y229500D03*
X113500D03*
X266500Y392000D03*
X257500D03*
X125500Y223000D03*
X134500D03*
X160000D03*
X151000D03*
X198000Y231500D03*
X207000D03*
X357500Y163500D03*
X348500D03*
X336000Y262000D03*
X327000D03*
X157500Y311500D03*
X166500D03*
Y304000D03*
X157500D03*
X354500Y243000D03*
X345500D03*
X390500Y211000D03*
X399500D03*
X217500Y221500D03*
X226500D03*
Y239000D03*
X217500D03*
X227000Y209500D03*
X218000D03*
G54D95*
X257500Y160000D03*
Y151000D03*
X438469Y320663D03*
Y311663D03*
X273306Y267956D03*
Y258956D03*
X283137Y188546D03*
Y179546D03*
X304025Y162955D03*
Y171955D03*
X171445Y214421D03*
Y223421D03*
X117021Y197824D03*
Y188824D03*
X174500Y294000D03*
Y285000D03*
X263000Y322500D03*
Y313500D03*
X255816Y327727D03*
Y318727D03*
X242500Y329000D03*
Y320000D03*
X249000Y357500D03*
Y366500D03*
X240000Y357500D03*
Y366500D03*
X251000Y302000D03*
Y311000D03*
X242500Y302000D03*
Y311000D03*
X234000Y320000D03*
Y329000D03*
X227000Y201000D03*
Y192000D03*
X158500Y141500D03*
Y150500D03*
X424000Y293000D03*
Y302000D03*
X423500Y241000D03*
Y250000D03*
X176000Y253500D03*
Y262500D03*
X236000Y124000D03*
Y115000D03*
X208000Y125000D03*
Y116000D03*
X280500Y259000D03*
Y268000D03*
X220000Y259500D03*
Y268500D03*
X228000Y259500D03*
Y268500D03*
X236500Y259500D03*
Y268500D03*
X288500Y259000D03*
Y268000D03*
X205400Y289700D03*
Y280700D03*
Y299200D03*
Y308200D03*
X403500Y163500D03*
Y172500D03*
X432000Y135000D03*
Y126000D03*
X137000Y257700D03*
Y266700D03*
X228000Y157500D03*
Y166500D03*
X220500Y153500D03*
Y162500D03*
X440500Y126000D03*
Y135000D03*
X424000Y136000D03*
Y145000D03*
X412500Y163500D03*
Y172500D03*
X430000Y189500D03*
Y198500D03*
X137000Y240700D03*
Y249700D03*
X257500Y375500D03*
Y384500D03*
X266500Y375500D03*
Y384500D03*
X184500Y319500D03*
Y328500D03*
X370500Y229000D03*
Y238000D03*
X270000Y189000D03*
Y180000D03*
G54D110*
X242299Y198417D03*
X244268D03*
X246236D03*
X248205D03*
X250173D03*
X252142D03*
X254110D03*
X256079D03*
X258047D03*
X260016D03*
X261984D03*
X263953D03*
X265921D03*
X267890D03*
X269858D03*
X271827D03*
X273795D03*
X275764D03*
X277732D03*
X279701D03*
Y250583D03*
X277732D03*
X275764D03*
X273795D03*
X271827D03*
X269858D03*
X267890D03*
X265921D03*
X263953D03*
X261984D03*
X260016D03*
X258047D03*
X256079D03*
X254110D03*
X252142D03*
X250173D03*
X248205D03*
X246236D03*
X244268D03*
X242299D03*
G54D111*
X234917Y243201D03*
Y241232D03*
Y239264D03*
Y237295D03*
Y235327D03*
Y233358D03*
Y231390D03*
Y229421D03*
Y227453D03*
Y225484D03*
Y223516D03*
Y221547D03*
Y219579D03*
Y217610D03*
Y215642D03*
Y213673D03*
Y211705D03*
Y209736D03*
Y207768D03*
Y205799D03*
X287083D03*
Y207768D03*
Y209736D03*
Y211705D03*
Y213673D03*
Y215642D03*
Y217610D03*
Y219579D03*
Y221547D03*
Y223516D03*
Y225484D03*
Y227453D03*
Y229421D03*
Y231390D03*
Y233358D03*
Y235327D03*
Y237295D03*
Y239264D03*
Y241232D03*
Y243201D03*
G54D122*
X300890Y157047D03*
X298921D03*
X296953D03*
X294984D03*
X293016D03*
X291047D03*
X289079D03*
X287110D03*
Y137953D03*
X289079D03*
X291047D03*
X293016D03*
X294984D03*
X296953D03*
X298921D03*
X300890D03*
G54D123*
X303547Y140610D03*
Y142579D03*
Y144547D03*
Y146516D03*
Y148484D03*
Y150453D03*
Y152421D03*
Y154390D03*
X284453D03*
Y152421D03*
Y150453D03*
Y148484D03*
Y146516D03*
Y144547D03*
Y142579D03*
Y140610D03*
G54D132*
X414303Y344000D03*
Y334000D03*
X439697D03*
Y344000D03*
G54D191*
X238465Y162776D03*
Y165925D03*
Y169075D03*
Y172224D03*
X246535D03*
Y169075D03*
Y165925D03*
Y162776D03*
G54D203*
X243500Y146000D03*
G54D204*
X345248Y267118D03*
Y264559D03*
Y262000D03*
Y259441D03*
Y256882D03*
X363752D03*
Y259441D03*
Y262000D03*
Y264559D03*
Y267118D03*
X379752Y205882D03*
Y208441D03*
Y211000D03*
Y213559D03*
Y216118D03*
X361248D03*
Y213559D03*
Y211000D03*
Y208441D03*
Y205882D03*
G54D205*
X359618Y271252D03*
X357059D03*
X354500D03*
X351941D03*
X349382D03*
Y252748D03*
X351941D03*
X354500D03*
X357059D03*
X359618D03*
X365382Y201748D03*
X367941D03*
X370500D03*
X373059D03*
X375618D03*
Y220252D03*
X373059D03*
X370500D03*
X367941D03*
X365382D03*
G54D206*
X354500Y262000D03*
X370500Y211000D03*
G54D210*
X225500Y146400D03*
Y140600D03*
G54D326*
X181600Y298140D03*
Y296170D03*
Y294200D03*
Y292230D03*
Y290260D03*
X198200D03*
Y292230D03*
Y294200D03*
Y296170D03*
Y298140D03*
G54D386*
X315500Y309650D03*
Y353350D03*
G54D387*
X276890Y348177D03*
X274921D03*
X272953D03*
X270984D03*
X269016D03*
X267047D03*
X265079D03*
X263110D03*
Y332823D03*
X265079D03*
X267047D03*
X269016D03*
X270984D03*
X272953D03*
X274921D03*
X276890D03*
G54D418*
X359224Y286465D03*
X356075D03*
X352925D03*
X349776D03*
Y294535D03*
X352925D03*
X356075D03*
X359224D03*
X365776Y189535D03*
X368925D03*
X372075D03*
X375224D03*
Y181465D03*
X372075D03*
X368925D03*
X365776D03*
G54D430*
X270000Y340500D03*
G54D431*
X165500Y294300D03*
Y281700D03*
X440500Y355700D03*
Y368300D03*
X175800Y326500D03*
X163200D03*
G54D432*
X426750Y358500D03*
X410250D03*
G54D434*
X210400Y253750D03*
Y261250D03*
G54D435*
X202400Y257500D03*
G54D436*
X252000Y187000D03*
X248299D03*
Y190937D03*
X252000D03*
X352500Y171000D03*
X348799D03*
Y174937D03*
X352500D03*
X257500Y190500D03*
X261201D03*
Y186563D03*
X257500D03*
X243000Y187000D03*
X239299D03*
Y190937D03*
X243000D03*
G54D437*
X359465Y130661D03*
Y133220D03*
Y135780D03*
Y138339D03*
X367535D03*
Y135780D03*
Y133220D03*
Y130661D03*
G54D438*
X257500Y173000D03*
Y169299D03*
X253563D03*
Y173000D03*
X291500Y294500D03*
Y290799D03*
X287563D03*
Y294500D03*
X238500Y134000D03*
Y130299D03*
X234563D03*
Y134000D03*
X297000Y230500D03*
Y234201D03*
X300937D03*
Y230500D03*
X297000Y221500D03*
Y225201D03*
X300937D03*
Y221500D03*
G54D441*
X246000Y266500D03*
Y259807D03*
X251118D03*
Y266500D03*
G54D442*
X260000Y267429D03*
Y258571D03*
G54D443*
Y263000D03*
G54D444*
X312201Y117500D03*
X274799D03*
G54D445*
X234000Y305783D03*
Y311217D03*
X112500Y207783D03*
Y213217D03*
X373500Y135967D03*
Y130533D03*
X353250Y131033D03*
Y136467D03*
X176000Y319217D03*
Y313783D03*
G54D446*
X116030Y159518D03*
Y156959D03*
Y154400D03*
Y151841D03*
Y149282D03*
G54D447*
X105400Y158337D03*
Y150463D03*
G54D448*
X219400Y282517D03*
Y297083D03*
G54D449*
X150543Y257441D03*
Y262559D03*
X143457Y260000D03*
G54D450*
X123400Y245800D03*
X105880D03*
X123400Y259580D03*
X105880D03*
G54D453*
X420000Y156700D03*
G54D454*
X425000D03*
X430000D03*
X435000D03*
Y179300D03*
X430000D03*
X425000D03*
X420000D03*
G54D458*
X168100Y249750D03*
Y253500D03*
Y257250D03*
X157900D03*
Y249750D03*
G54D460*
X436500Y238750D03*
Y222250D03*
X437500Y293250D03*
Y276750D03*
G54D461*
X413800Y241000D03*
X412800Y293000D03*
G54D462*
X413800Y246000D03*
Y251000D03*
Y256000D03*
X391200D03*
Y251000D03*
Y246000D03*
Y241000D03*
X412800Y298000D03*
Y303000D03*
Y308000D03*
X390200D03*
Y303000D03*
Y298000D03*
Y293000D03*
G54D469*
X240547Y140539D03*
X242516D03*
X244484D03*
X246453D03*
Y151465D03*
X244484D03*
X242516D03*
X240547D03*
G54D470*
X248965Y143047D03*
Y145016D03*
Y146984D03*
Y148953D03*
X238039D03*
Y146984D03*
Y145016D03*
Y143047D03*
G54D493*
X193000Y253760D03*
Y257500D03*
Y261240D03*
X184000D03*
Y257500D03*
Y253760D03*
G54D494*
X278800Y368500D03*
X301200D03*
G54D503*
X275949Y312435D03*
Y298935D03*
X0Y0D02*
M02*
