*
*
G04 PADS VX.1.1 Build Number: 678707 generated Gerber (RS-274-X) file*
G04 PC Version=2.1*
*
%IN "pCO2SensorBoard1_4_3.pc"*%
*
%MOIN*%
*
%FSLAX35Y35*%
*
*
*
*
G04 PC Standard Apertures*
*
*
G04 Thermal Relief Aperture macro.*
%AMTER*
1,1,$1,0,0*
1,0,$1-$2,0,0*
21,0,$3,$4,0,0,45*
21,0,$3,$4,0,0,135*
%
*
*
G04 Annular Aperture macro.*
%AMANN*
1,1,$1,0,0*
1,0,$2,0,0*
%
*
*
G04 Odd Aperture macro.*
%AMODD*
1,1,$1,0,0*
1,0,$1-0.005,0,0*
%
*
*
G04 PC Custom Aperture Macros*
*
*
*
*
*
*
G04 PC Aperture Table*
*
%ADD010C,0.008*%
%ADD011C,0.01*%
%ADD035C,0.006*%
%ADD036C,0.02*%
%ADD038C,0.015*%
%ADD071C,0.005*%
%ADD086C,0.007*%
%ADD087C,0.001*%
%ADD135C,0.00787*%
%ADD136C,0.01181*%
%ADD137C,0.01575*%
%ADD185C,0.013*%
%ADD301C,0.01969*%
%ADD302C,0.01575*%
%ADD424C,0.01181*%
*
*
*
*
G04 PC Circuitry*
G04 Layer Name pCO2SensorBoard1_4_3.pc - circuitry*
%LPD*%
*
*
G04 PC Custom Flashes*
G04 Layer Name pCO2SensorBoard1_4_3.pc - flashes*
%LPD*%
*
*
G04 PC Circuitry*
G04 Layer Name pCO2SensorBoard1_4_3.pc - circuitry*
%LPD*%
*
G54D10*
G01X381773Y377750D02*
Y372500D01*
X380500Y377750D02*
X383045D01*
X384682D02*
Y372500D01*
Y377750D02*
X386318D01*
X386864Y377500*
X387045Y377250*
X387227Y376750*
Y376000*
X387045Y375500*
X386864Y375250*
X386318Y375000*
X384682*
X388864Y371500D02*
X392682D01*
X393773Y376750D02*
X394136Y377000D01*
X394682Y377750*
Y372500*
X398682Y377750D02*
X396864D01*
X396682Y375500*
X396864Y375750*
X397409Y376000*
X397955*
X398500Y375750*
X398864Y375250*
X399045Y374500*
X398864Y374000*
X398682Y373250*
X398318Y372750*
X397773Y372500*
X397227*
X396682Y372750*
X396500Y373000*
X396318Y373500*
X400682Y377750D02*
X402136Y372500D01*
X403591Y377750D02*
X402136Y372500D01*
X177364Y396450D02*
X179364D01*
X178273Y394450*
X178818*
X179182Y394200*
X179364Y393950*
X179545Y393200*
Y392700*
X179364Y391950*
X179000Y391450*
X178455Y391200*
X177909*
X177364Y391450*
X177182Y391700*
X177000Y392200*
X181182Y396450D02*
X182636Y391200D01*
X184091Y396450D02*
X182636Y391200D01*
X150200Y396050D02*
X151655Y390800D01*
X153109Y396050D02*
X151655Y390800D01*
X154745Y396050D02*
Y390800D01*
X156382Y396050D02*
Y390800D01*
Y396050D02*
X158927Y390800D01*
Y396050D02*
Y390800D01*
X399127Y108800D02*
X398945Y109300D01*
X398582Y109800*
X398218Y110050*
X397491*
X397127Y109800*
X396764Y109300*
X396582Y108800*
X396400Y108050*
Y106800*
X396582Y106050*
X396764Y105550*
X397127Y105050*
X397491Y104800*
X398218*
X398582Y105050*
X398945Y105550*
X399127Y106050*
Y106800*
X398218D02*
X399127D01*
X400764Y110050D02*
Y104800D01*
Y110050D02*
X403309Y104800D01*
Y110050D02*
Y104800D01*
X404945Y110050D02*
Y104800D01*
Y110050D02*
X406218D01*
X406764Y109800*
X407127Y109300*
X407309Y108800*
X407491Y108050*
Y106800*
X407309Y106050*
X407127Y105550*
X406764Y105050*
X406218Y104800*
X404945*
X409309Y108800D02*
Y109050D01*
X409491Y109550*
X409673Y109800*
X410036Y110050*
X410764*
X411127Y109800*
X411309Y109550*
X411491Y109050*
Y108550*
X411309Y108050*
X410945Y107300*
X409127Y104800*
X411673*
X204127Y395600D02*
X203945Y396100D01*
X203582Y396600*
X203218Y396850*
X202491*
X202127Y396600*
X201764Y396100*
X201582Y395600*
X201400Y394850*
Y393600*
X201582Y392850*
X201764Y392350*
X202127Y391850*
X202491Y391600*
X203218*
X203582Y391850*
X203945Y392350*
X204127Y392850*
Y393600*
X203218D02*
X204127D01*
X205764Y396850D02*
Y391600D01*
Y396850D02*
X208309Y391600D01*
Y396850D02*
Y391600D01*
X209945Y396850D02*
Y391600D01*
Y396850D02*
X211218D01*
X211764Y396600*
X212127Y396100*
X212309Y395600*
X212491Y394850*
Y393600*
X212309Y392850*
X212127Y392350*
X211764Y391850*
X211218Y391600*
X209945*
G54D11*
X236500Y141000D02*
Y139000D01*
X238500*
X248500D02*
X250500D01*
Y141000*
Y151000D02*
Y153000D01*
X248500*
X236500Y151000D02*
Y153000D01*
X238500*
X237000Y139000D02*
G75*
G03X237000I-500J0D01*
G01X258500Y175000D02*
X253000D01*
X258500Y167500D02*
X253000D01*
X254000Y186000D02*
Y191500D01*
X246500Y186000D02*
Y191500D01*
X424750Y350250D02*
X432800D01*
Y366750*
X424750*
X412250Y350250D02*
X404200D01*
Y366750*
X412250*
X282949Y309435D02*
Y317485D01*
X268949*
Y309435*
X282949Y301935D02*
Y293885D01*
X268949*
Y301935*
X292500Y296500D02*
X287000D01*
X292500Y289000D02*
X287000D01*
X222000Y146500D02*
Y140500D01*
X229000Y146500D02*
Y140500D01*
X238500Y160500D02*
X246500D01*
X238500Y174500D02*
X246500D01*
X202500Y254500D02*
Y252000D01*
X207500*
X202500Y260500D02*
Y263000D01*
X207500*
X211500Y257000D02*
Y258000D01*
X354500Y170000D02*
Y175500D01*
X347000Y170000D02*
Y175500D01*
X361500Y286500D02*
Y294500D01*
X347500Y286500D02*
Y294500D01*
X365326Y271842D02*
G03X365326I-787J0D01*
G01X361980Y272039D02*
X364539D01*
Y269480*
Y254520D02*
Y251961D01*
X361980*
X347020D02*
X344461D01*
Y254520*
X347020Y272039D02*
X344461D01*
Y269677*
X263000Y267500D02*
Y258000D01*
X257000Y267500D02*
Y258000D01*
X361248Y201158D02*
G03X361248I-787J0D01*
G01X363020Y200961D02*
X360461D01*
Y203520*
Y218480D02*
Y221039D01*
X363020*
X377980D02*
X380539D01*
Y218480*
X377980Y200961D02*
X380539D01*
Y203323*
X271059Y126752D02*
X315941D01*
Y108248*
X271059*
Y126752*
X363500Y189500D02*
Y181500D01*
X377500Y189500D02*
Y181500D01*
X99900Y168400D02*
Y139400D01*
X224400Y281300D02*
X228400D01*
Y298800*
X210400*
Y281300*
X228400*
X144047Y255669D02*
X147787D01*
X144047Y264331D02*
X147787D01*
X144047Y255669D02*
Y257244D01*
Y262756D02*
Y264331D01*
X196400Y288700D02*
Y287700D01*
X183400*
Y288700*
X179607Y300700D02*
G03X179607I-707J0D01*
G01X239500Y136000D02*
X234000D01*
X239500Y128500D02*
X234000D01*
X444750Y236750D02*
Y244800D01*
X428250*
Y236750*
X444750Y224250D02*
Y216200D01*
X428250*
Y224250*
X445750Y291250D02*
Y299300D01*
X429250*
Y291250*
X445750Y278750D02*
Y270700D01*
X429250*
Y278750*
X304567Y361020D02*
X275433D01*
Y375980*
X304567*
Y361020*
X278112Y353820D02*
Y359445D01*
X280157Y356632D02*
X276067D01*
X130500Y158500D02*
X130000D01*
Y149500*
X130500*
X179500Y194000D02*
X179000D01*
Y185000*
X179500*
X193500Y203500D02*
Y202500D01*
X180000*
Y203500*
X193500Y214500D02*
Y215500D01*
X180000*
Y214500*
X196000Y204500D02*
G03X196000I-500J0D01*
G01X255500Y191500D02*
Y186000D01*
X263000Y191500D02*
Y186000D01*
X296000Y228500D02*
X301500D01*
X296000Y236000D02*
X301500D01*
X245000Y186000D02*
Y191500D01*
X237500Y186000D02*
Y191500D01*
X296000Y219500D02*
X301500D01*
X296000Y227000D02*
X301500D01*
X341500Y329563D02*
Y323000D01*
X344227*
X349227Y327375D02*
X349000Y326438D01*
X348545Y325813*
X347864Y325500*
X347636*
X346955Y325813*
X346500Y326438*
X346273Y327375*
Y327688*
X346500Y328625*
X346955Y329250*
X347636Y329563*
X347864*
X348545Y329250*
X349000Y328625*
X349227Y327375*
Y325813*
X349000Y324250*
X348545Y323313*
X347864Y323000*
X347409*
X346727Y323313*
X346500Y323938*
X116500Y309563D02*
Y303000D01*
Y309563D02*
X118545D01*
X118545D02*
X119227Y309250D01*
X119455Y308938*
X119455D02*
X119682Y308313D01*
X119682D02*
Y307375D01*
X119455Y306750*
X119227Y306438*
X119227D02*
X118545Y306125D01*
X116500*
X121727Y309563D02*
X122864Y303000D01*
X124000Y309563D02*
X122864Y303000D01*
X124000Y309563D02*
X125136Y303000D01*
X126273Y309563D02*
X125136Y303000D01*
X128318Y309563D02*
Y303000D01*
Y309563D02*
X130364D01*
X130364D02*
X131045Y309250D01*
X131273Y308938*
X131273D02*
X131500Y308313D01*
X131500D02*
Y307688D01*
X131500D02*
X131273Y307063D01*
X131273D02*
X131045Y306750D01*
X130364Y306438*
X130364D02*
X128318D01*
X129909D02*
X131500Y303000D01*
X133545Y301750D02*
X138318D01*
X139682Y309563D02*
Y303000D01*
X141727Y309563D02*
Y303000D01*
Y309563D02*
X144909Y303000D01*
Y309563D02*
Y303000D01*
X141909Y366000D02*
X141682Y366625D01*
X141227Y367250*
X140773Y367563*
X140773D02*
X139864D01*
X139864D02*
X139409Y367250D01*
X138955Y366625*
X138727Y366000*
X138500Y365063*
X138500D02*
Y363500D01*
X138727Y362563*
X138727D02*
X138955Y361938D01*
X138955D02*
X139409Y361313D01*
X139409D02*
X139864Y361000D01*
X140773*
X141227Y361313*
X141227D02*
X141682Y361938D01*
X141682D02*
X141909Y362563D01*
X143955Y367563D02*
Y361000D01*
Y367563D02*
X145773Y361000D01*
X147591Y367563D02*
X145773Y361000D01*
X147591Y367563D02*
Y361000D01*
X149636Y367563D02*
Y361000D01*
Y367563D02*
X151227D01*
X151227D02*
X151909Y367250D01*
X152364Y366625*
X152591Y366000*
X152818Y365063*
X152818D02*
Y363500D01*
X152591Y362563*
X152591D02*
X152364Y361938D01*
X152364D02*
X151909Y361313D01*
X151909D02*
X151227Y361000D01*
X149636*
X154864Y359750D02*
X159636D01*
X161000Y367563D02*
Y361000D01*
Y367563D02*
X163045D01*
X163045D02*
X163727Y367250D01*
X163955Y366938*
X163955D02*
X164182Y366313D01*
X164182D02*
Y365375D01*
X163955Y364750*
X163727Y364438*
X163727D02*
X163045Y364125D01*
X161000*
X167591Y367563D02*
X167136Y367250D01*
X166682Y366625*
X166455Y366000*
X166227Y365063*
X166227D02*
Y363500D01*
X166455Y362563*
X166455D02*
X166682Y361938D01*
X166682D02*
X167136Y361313D01*
X167136D02*
X167591Y361000D01*
X168500*
X168955Y361313*
X168955D02*
X169409Y361938D01*
X169409D02*
X169636Y362563D01*
X169636D02*
X169864Y363500D01*
Y365063*
X169864D02*
X169636Y366000D01*
X169409Y366625*
X168955Y367250*
X168500Y367563*
X168500D02*
X167591D01*
X171909D02*
Y361000D01*
Y367563D02*
X173955D01*
X173955D02*
X174636Y367250D01*
X174864Y366938*
X174864D02*
X175091Y366313D01*
X175091D02*
Y365688D01*
X175091D02*
X174864Y365063D01*
X174864D02*
X174636Y364750D01*
X173955Y364438*
X173955D02*
X171909D01*
X173500D02*
X175091Y361000D01*
X178727Y367563D02*
Y361000D01*
X177136Y367563D02*
X180318D01*
X456818Y260750D02*
X456273Y261500D01*
X455455Y261875*
X454364*
X453545Y261500*
X453000Y260750*
Y260000*
X453273Y259250*
X453545Y258875*
X454091Y258500*
X455727Y257750*
X456273Y257375*
X456545Y257000*
X456818Y256250*
Y255125*
X456273Y254375*
X455455Y254000*
X454364*
X453545Y254375*
X453000Y255125*
X459273Y261875D02*
Y254000D01*
Y261875D02*
X461727D01*
X462545Y261500*
X462818Y261125*
X463091Y260375*
Y259250*
X462818Y258500*
X462545Y258125*
X461727Y257750*
X459273*
X467727Y261875D02*
X465545Y254000D01*
X467727Y261875D02*
X469909Y254000D01*
X466364Y256625D02*
X469091D01*
X472364Y261875D02*
Y254000D01*
Y261875D02*
X474818D01*
X475636Y261500*
X475909Y261125*
X476182Y260375*
Y259625*
X475909Y258875*
X475636Y258500*
X474818Y258125*
X472364*
X474273D02*
X476182Y254000D01*
X478636Y261875D02*
Y254000D01*
Y261875D02*
X482182D01*
X478636Y258125D02*
X480818D01*
X478636Y254000D02*
X482182D01*
X445000Y207563D02*
Y201000D01*
Y207563D02*
X447955D01*
X445000Y204438D02*
X446818D01*
X450000Y207563D02*
Y201000D01*
X452727*
X456136Y207563D02*
X455682Y207250D01*
X455227Y206625*
X455000Y206000*
X454773Y205063*
X454773D02*
Y203500D01*
X455000Y202563*
X455000D02*
X455227Y201938D01*
X455227D02*
X455682Y201313D01*
X455682D02*
X456136Y201000D01*
X457045*
X457500Y201313*
X457500D02*
X457955Y201938D01*
X457955D02*
X458182Y202563D01*
X458182D02*
X458409Y203500D01*
Y205063*
X458409D02*
X458182Y206000D01*
X457955Y206625*
X457500Y207250*
X457045Y207563*
X457045D02*
X456136D01*
X460455D02*
X461591Y201000D01*
X462727Y207563D02*
X461591Y201000D01*
X462727Y207563D02*
X463864Y201000D01*
X465000Y207563D02*
X463864Y201000D01*
X475682Y206000D02*
X475455Y206625D01*
X475000Y207250*
X474545Y207563*
X474545D02*
X473636D01*
X473636D02*
X473182Y207250D01*
X472727Y206625*
X472500Y206000*
X472273Y205063*
X472273D02*
Y203500D01*
X472500Y202563*
X472500D02*
X472727Y201938D01*
X472727D02*
X473182Y201313D01*
X473182D02*
X473636Y201000D01*
X474545*
X475000Y201313*
X475000D02*
X475455Y201938D01*
X475455D02*
X475682Y202563D01*
X479091Y207563D02*
X478636Y207250D01*
X478182Y206625*
X477955Y206000*
X477727Y205063*
X477727D02*
Y203500D01*
X477955Y202563*
X477955D02*
X478182Y201938D01*
X478182D02*
X478636Y201313D01*
X478636D02*
X479091Y201000D01*
X480000*
X480455Y201313*
X480455D02*
X480909Y201938D01*
X480909D02*
X481136Y202563D01*
X481136D02*
X481364Y203500D01*
Y205063*
X481364D02*
X481136Y206000D01*
X480909Y206625*
X480455Y207250*
X480000Y207563*
X480000D02*
X479091D01*
X483409D02*
Y201000D01*
Y207563D02*
X486591Y201000D01*
Y207563D02*
Y201000D01*
X490227Y207563D02*
Y201000D01*
X488636Y207563D02*
X491818D01*
X455000Y317875D02*
Y310000D01*
X458273*
X460727Y317875D02*
Y310000D01*
X467273Y316000D02*
X467000Y316750D01*
X466455Y317500*
X465909Y317875*
X464818*
X464273Y317500*
X463727Y316750*
X463455Y316000*
X463182Y314875*
Y313000*
X463455Y311875*
X463727Y311125*
X464273Y310375*
X464818Y310000*
X465909*
X466455Y310375*
X467000Y311125*
X467273Y311875*
X471364Y317875D02*
X470818Y317500D01*
X470273Y316750*
X470000Y316000*
X469727Y314875*
Y313000*
X470000Y311875*
X470273Y311125*
X470818Y310375*
X471364Y310000*
X472455*
X473000Y310375*
X473545Y311125*
X473818Y311875*
X474091Y313000*
Y314875*
X473818Y316000*
X473545Y316750*
X473000Y317500*
X472455Y317875*
X471364*
X476545D02*
Y310000D01*
Y317875D02*
X479000D01*
X479818Y317500*
X480091Y317125*
X480364Y316375*
Y315625*
X480091Y314875*
X479818Y314500*
X479000Y314125*
X476545*
X478455D02*
X480364Y310000D01*
X284000Y395063D02*
Y388500D01*
Y395063D02*
X287182Y388500D01*
Y395063D02*
Y388500D01*
X290591Y395063D02*
X290136Y394750D01*
X289682Y394125*
X289455Y393500*
X289227Y392563*
X289227D02*
Y391000D01*
X289455Y390063*
X289455D02*
X289682Y389438D01*
X289682D02*
X290136Y388813D01*
X290136D02*
X290591Y388500D01*
X291500*
X291955Y388813*
X291955D02*
X292409Y389438D01*
X292409D02*
X292636Y390063D01*
X292636D02*
X292864Y391000D01*
Y392563*
X292864D02*
X292636Y393500D01*
X292409Y394125*
X291955Y394750*
X291500Y395063*
X291500D02*
X290591D01*
X296727D02*
X294909Y388500D01*
X296727Y395063D02*
X298545Y388500D01*
X295591Y390688D02*
X297864D01*
X302409Y395063D02*
X300591Y388500D01*
X302409Y395063D02*
X304227Y388500D01*
X301273Y390688D02*
X303545D01*
X311500Y395063D02*
Y388500D01*
Y395063D02*
X313545D01*
X313545D02*
X314227Y394750D01*
X314455Y394438*
X314455D02*
X314682Y393813D01*
X314682D02*
Y392875D01*
X314455Y392250*
X314227Y391938*
X314227D02*
X313545Y391625D01*
X311500*
X316727Y395063D02*
Y388500D01*
Y395063D02*
X318545Y388500D01*
X320364Y395063D02*
X318545Y388500D01*
X320364Y395063D02*
Y388500D01*
X322409Y395063D02*
Y388500D01*
Y395063D02*
X325364D01*
X322409Y391938D02*
X324227D01*
X322409Y388500D02*
X325364D01*
X327409Y395063D02*
Y388500D01*
X330136*
X337409Y392875D02*
Y386312D01*
Y391938D02*
X337864Y392563D01*
X337864D02*
X338318Y392875D01*
X339000*
X339455Y392563*
X339455D02*
X339909Y391938D01*
X339909D02*
X340136Y391000D01*
Y390375*
X339909Y389438*
X339909D02*
X339455Y388813D01*
X339455D02*
X339000Y388500D01*
X338318*
X337864Y388813*
X337864D02*
X337409Y389438D01*
X345591Y393500D02*
X345364Y394125D01*
X344909Y394750*
X344455Y395063*
X344455D02*
X343545D01*
X343545D02*
X343091Y394750D01*
X342636Y394125*
X342409Y393500*
X342182Y392563*
X342182D02*
Y391000D01*
X342409Y390063*
X342409D02*
X342636Y389438D01*
X342636D02*
X343091Y388813D01*
X343091D02*
X343545Y388500D01*
X344455*
X344909Y388813*
X344909D02*
X345364Y389438D01*
X345364D02*
X345591Y390063D01*
X349000Y395063D02*
X348545Y394750D01*
X348091Y394125*
X347864Y393500*
X347636Y392563*
X347636D02*
Y391000D01*
X347864Y390063*
X347864D02*
X348091Y389438D01*
X348091D02*
X348545Y388813D01*
X348545D02*
X349000Y388500D01*
X349909*
X350364Y388813*
X350364D02*
X350818Y389438D01*
X350818D02*
X351045Y390063D01*
X351045D02*
X351273Y391000D01*
Y392563*
X351273D02*
X351045Y393500D01*
X350818Y394125*
X350364Y394750*
X349909Y395063*
X349909D02*
X349000D01*
X353545Y393500D02*
Y393813D01*
X353545D02*
X353773Y394438D01*
X353773D02*
X354000Y394750D01*
X354455Y395063*
X354455D02*
X355364D01*
X355364D02*
X355818Y394750D01*
X356045Y394438*
X356045D02*
X356273Y393813D01*
X356273D02*
Y393188D01*
X356273D02*
X356045Y392563D01*
X356045D02*
X355591Y391625D01*
X353318Y388500*
X356500*
X366955Y394125D02*
X366500Y394750D01*
X365818Y395063*
X365818D02*
X364909D01*
X364909D02*
X364227Y394750D01*
X363773Y394125*
Y393500*
X364000Y392875*
X364227Y392563*
X364227D02*
X364682Y392250D01*
X366045Y391625*
X366500Y391313*
X366500D02*
X366727Y391000D01*
X366955Y390375*
Y389438*
X366955D02*
X366500Y388813D01*
X366500D02*
X365818Y388500D01*
X364909*
X364227Y388813*
X364227D02*
X363773Y389438D01*
X369000Y391000D02*
X371727D01*
Y391625*
X371500Y392250*
X371273Y392563*
X371273D02*
X370818Y392875D01*
X370136*
X369682Y392563*
X369682D02*
X369227Y391938D01*
X369227D02*
X369000Y391000D01*
Y390375*
X369227Y389438*
X369227D02*
X369682Y388813D01*
X369682D02*
X370136Y388500D01*
X370818*
X371273Y388813*
X371273D02*
X371727Y389438D01*
X373773Y392875D02*
Y388500D01*
Y391625D02*
X374455Y392563D01*
X374455D02*
X374909Y392875D01*
X375591*
X376045Y392563*
X376045D02*
X376273Y391625D01*
Y388500*
X380818Y391938D02*
X380591Y392563D01*
X380591D02*
X379909Y392875D01*
X379227*
X378545Y392563*
X378545D02*
X378318Y391938D01*
X378318D02*
X378545Y391313D01*
X378545D02*
X379000Y391000D01*
X380136Y390688*
X380136D02*
X380591Y390375D01*
X380818Y389750*
Y389438*
X380818D02*
X380591Y388813D01*
X380591D02*
X379909Y388500D01*
X379227*
X378545Y388813*
X378545D02*
X378318Y389438D01*
X384000Y392875D02*
X383545Y392563D01*
X383545D02*
X383091Y391938D01*
X383091D02*
X382864Y391000D01*
Y390375*
X383091Y389438*
X383091D02*
X383545Y388813D01*
X383545D02*
X384000Y388500D01*
X384682*
X385136Y388813*
X385136D02*
X385591Y389438D01*
X385591D02*
X385818Y390375D01*
Y391000*
X385591Y391938*
X385591D02*
X385136Y392563D01*
X385136D02*
X384682Y392875D01*
X384000*
X387864D02*
Y388500D01*
Y391000D02*
X388091Y391938D01*
X388091D02*
X388545Y392563D01*
X388545D02*
X389000Y392875D01*
X389682*
X396955Y395063D02*
Y388500D01*
Y395063D02*
X399000D01*
X399000D02*
X399682Y394750D01*
X399909Y394438*
X399909D02*
X400136Y393813D01*
X400136D02*
Y393188D01*
X400136D02*
X399909Y392563D01*
X399909D02*
X399682Y392250D01*
X399000Y391938*
X396955D02*
X399000D01*
X399000D02*
X399682Y391625D01*
X399909Y391313*
X399909D02*
X400136Y390688D01*
X400136D02*
Y389750D01*
X399909Y389125*
X399682Y388813*
X399682D02*
X399000Y388500D01*
X396955*
X403318Y392875D02*
X402864Y392563D01*
X402864D02*
X402409Y391938D01*
X402409D02*
X402182Y391000D01*
Y390375*
X402409Y389438*
X402409D02*
X402864Y388813D01*
X402864D02*
X403318Y388500D01*
X404000*
X404455Y388813*
X404455D02*
X404909Y389438D01*
X404909D02*
X405136Y390375D01*
Y391000*
X404909Y391938*
X404909D02*
X404455Y392563D01*
X404455D02*
X404000Y392875D01*
X403318*
X409909D02*
Y388500D01*
Y391938D02*
X409455Y392563D01*
X409455D02*
X409000Y392875D01*
X408318*
X407864Y392563*
X407864D02*
X407409Y391938D01*
X407409D02*
X407182Y391000D01*
Y390375*
X407409Y389438*
X407409D02*
X407864Y388813D01*
X407864D02*
X408318Y388500D01*
X409000*
X409455Y388813*
X409455D02*
X409909Y389438D01*
X411955Y392875D02*
Y388500D01*
Y391000D02*
X412182Y391938D01*
X412182D02*
X412636Y392563D01*
X412636D02*
X413091Y392875D01*
X413773*
X418545Y395063D02*
Y388500D01*
Y391938D02*
X418091Y392563D01*
X418091D02*
X417636Y392875D01*
X416955*
X416500Y392563*
X416500D02*
X416045Y391938D01*
X416045D02*
X415818Y391000D01*
Y390375*
X416045Y389438*
X416045D02*
X416500Y388813D01*
X416500D02*
X416955Y388500D01*
X417636*
X418091Y388813*
X418091D02*
X418545Y389438D01*
X425818Y395063D02*
Y388500D01*
Y395063D02*
X427864D01*
X427864D02*
X428545Y394750D01*
X428773Y394438*
X428773D02*
X429000Y393813D01*
X429000D02*
Y393188D01*
X429000D02*
X428773Y392563D01*
X428773D02*
X428545Y392250D01*
X427864Y391938*
X427864D02*
X425818D01*
X427409D02*
X429000Y388500D01*
X431045Y391000D02*
X433773D01*
Y391625*
X433545Y392250*
X433318Y392563*
X433318D02*
X432864Y392875D01*
X432182*
X431727Y392563*
X431727D02*
X431273Y391938D01*
X431273D02*
X431045Y391000D01*
Y390375*
X431273Y389438*
X431273D02*
X431727Y388813D01*
X431727D02*
X432182Y388500D01*
X432864*
X433318Y388813*
X433318D02*
X433773Y389438D01*
X435818Y392875D02*
X437182Y388500D01*
X438545Y392875D02*
X437182Y388500D01*
X440591Y393813D02*
X441045Y394125D01*
X441727Y395063*
X441727D02*
Y388500D01*
X444000Y389125D02*
X443773Y388813D01*
X443773D02*
X444000Y388500D01*
X444227Y388813*
X444227D02*
X444000Y389125D01*
X448545Y395063D02*
X446273Y390688D01*
X446273D02*
X449682D01*
X448545Y395063D02*
Y388500D01*
X451955Y389125D02*
X451727Y388813D01*
X451727D02*
X451955Y388500D01*
X452182Y388813*
X452182D02*
X451955Y389125D01*
X454682Y395063D02*
X457182D01*
X457182D02*
X455818Y392563D01*
X455818D02*
X456500D01*
X456500D02*
X456955Y392250D01*
X457182Y391938*
X457182D02*
X457409Y391000D01*
Y390375*
X457182Y389438*
X457182D02*
X456727Y388813D01*
X456727D02*
X456045Y388500D01*
X455364*
X454682Y388813*
X454682D02*
X454455Y389125D01*
X454227Y389750*
X318000Y385563D02*
Y379000D01*
Y385563D02*
X319818Y379000D01*
X321636Y385563D02*
X319818Y379000D01*
X321636Y385563D02*
Y379000D01*
X326409Y383375D02*
Y379000D01*
Y382438D02*
X325955Y383063D01*
X325955D02*
X325500Y383375D01*
X324818*
X324364Y383063*
X324364D02*
X323909Y382438D01*
X323909D02*
X323682Y381500D01*
Y380875*
X323909Y379938*
X323909D02*
X324364Y379313D01*
X324364D02*
X324818Y379000D01*
X325500*
X325955Y379313*
X325955D02*
X326409Y379938D01*
X328455Y383375D02*
Y379000D01*
Y381500D02*
X328682Y382438D01*
X328682D02*
X329136Y383063D01*
X329136D02*
X329591Y383375D01*
X330273*
X332545Y384000D02*
Y384313D01*
X332545D02*
X332773Y384938D01*
X332773D02*
X333000Y385250D01*
X333455Y385563*
X333455D02*
X334364D01*
X334364D02*
X334818Y385250D01*
X335045Y384938*
X335045D02*
X335273Y384313D01*
X335273D02*
Y383688D01*
X335273D02*
X335045Y383063D01*
X335045D02*
X334591Y382125D01*
X332318Y379000*
X335500*
X338909Y385563D02*
X338227Y385250D01*
X337773Y384313*
X337773D02*
X337545Y382750D01*
Y381813*
X337545D02*
X337773Y380250D01*
X338227Y379313*
X338227D02*
X338909Y379000D01*
X339364*
X340045Y379313*
X340045D02*
X340500Y380250D01*
X340727Y381813*
X340727D02*
Y382750D01*
X340500Y384313*
X340500D02*
X340045Y385250D01*
X339364Y385563*
X339364D02*
X338909D01*
X343000Y384000D02*
Y384313D01*
X343000D02*
X343227Y384938D01*
X343227D02*
X343455Y385250D01*
X343909Y385563*
X343909D02*
X344818D01*
X344818D02*
X345273Y385250D01*
X345500Y384938*
X345500D02*
X345727Y384313D01*
X345727D02*
Y383688D01*
X345727D02*
X345500Y383063D01*
X345500D02*
X345045Y382125D01*
X342773Y379000*
X345955*
X348227Y384000D02*
Y384313D01*
X348227D02*
X348455Y384938D01*
X348455D02*
X348682Y385250D01*
X349136Y385563*
X349136D02*
X350045D01*
X350045D02*
X350500Y385250D01*
X350727Y384938*
X350727D02*
X350955Y384313D01*
X350955D02*
Y383688D01*
X350955D02*
X350727Y383063D01*
X350727D02*
X350273Y382125D01*
X348000Y379000*
X351182*
X204000Y110406D02*
Y105406D01*
X240000Y109906D02*
Y104906D01*
X109500Y227094D02*
Y232094D01*
X358250Y126000D02*
G03X358250I-250J0D01*
G01X196000Y250000D02*
G03X196000I-500J0D01*
G01X125500Y217500D02*
G03X125500I-500J0D01*
G54D35*
G01X254500Y155500D02*
X260500D01*
X272000Y149500D02*
Y155500D01*
Y157500D02*
Y163500D01*
X435469Y316163D02*
X441469D01*
X270306Y263456D02*
X276306D01*
X280137Y184046D02*
X286137D01*
X162000Y290000D02*
Y286000D01*
X169000Y290000D02*
Y286000D01*
X162500Y262000D02*
Y268000D01*
X179000Y280000D02*
Y274000D01*
X400040Y265394D02*
Y259394D01*
X397689Y317158D02*
Y311158D01*
X383027Y282952D02*
Y288952D01*
X382033Y279757D02*
Y273757D01*
X317907Y142189D02*
Y148189D01*
X316404Y134987D02*
Y140987D01*
X307025Y167455D02*
X301025D01*
X156500Y217750D02*
X130500D01*
Y175250*
X156500*
Y217750*
X133500D02*
Y175250D01*
X125500Y216750D02*
G03X125500I-500J0D01*
G01X174445Y218921D02*
X168445D01*
X114021Y193324D02*
X120021D01*
X171500Y289500D02*
X177500D01*
X260000Y318000D02*
X266000D01*
X252816Y323227D02*
X258816D01*
X262000Y369500D02*
Y363500D01*
Y354500D02*
Y360500D01*
X244500Y372000D02*
Y378000D01*
X239500Y324500D02*
X245500D01*
X252000Y362000D02*
X246000D01*
X243000D02*
X237000D01*
X254000Y306500D02*
X248000D01*
X245500D02*
X239500D01*
X237000Y324500D02*
X231000D01*
X307000Y299500D02*
Y293500D01*
X318500Y368500D02*
Y362500D01*
X307626Y307091D02*
X295815D01*
Y311815*
X291091*
Y344098*
X303295Y356303*
X307626*
X323768Y355909D02*
X339909D01*
Y318902*
X328098Y307091*
X323374*
X224000Y196500D02*
X230000D01*
X202500Y221000D02*
Y227000D01*
X272000Y172000D02*
Y166000D01*
X161500Y146000D02*
X155500D01*
X444000Y360000D02*
Y364000D01*
X437000Y360000D02*
Y364000D01*
X427000Y297500D02*
X421000D01*
X403000Y227000D02*
Y221000D01*
Y230500D02*
Y236500D01*
X426500Y245500D02*
X420500D01*
X447500Y209000D02*
Y248000D01*
X500100*
Y209000*
X447500*
X206500Y271500D02*
Y265500D01*
X207500Y243500D02*
Y249500D01*
X179000Y258000D02*
X173000D01*
X233000Y119500D02*
X239000D01*
X205000Y120500D02*
X211000D01*
X314000Y128000D02*
Y134000D01*
X283500Y263500D02*
X277500D01*
X223000Y264000D02*
X217000D01*
X231000D02*
X225000D01*
X239500D02*
X233500D01*
X291500Y263500D02*
X285500D01*
X275000Y134500D02*
Y128500D01*
X231500Y104500D02*
Y110500D01*
X205500Y215000D02*
Y209000D01*
Y202000D02*
Y208000D01*
X202400Y285200D02*
X208400D01*
Y303700D02*
X202400D01*
X406500Y168000D02*
X400500D01*
X416500Y201500D02*
Y195500D01*
X429000Y130500D02*
X435000D01*
X416500Y192500D02*
Y186500D01*
X140000Y262200D02*
X134000D01*
X231000Y162000D02*
X225000D01*
X223500Y158000D02*
X217500D01*
X152500Y359500D02*
Y320500D01*
X99900*
Y359500*
X152500*
Y300500D02*
Y274500D01*
X99900*
Y300500*
X152500*
X447500Y263000D02*
Y302000D01*
X500100*
Y263000*
X447500*
Y320500D02*
Y359500D01*
X500100*
Y320500*
X447500*
X146500Y236300D02*
Y244100D01*
X162400*
Y236300*
X146500*
X171500Y330000D02*
X167500D01*
X171500Y323000D02*
X167500D01*
X192900Y302700D02*
Y308700D01*
X436500Y142500D02*
Y148500D01*
X443500Y130500D02*
X437500D01*
X427000Y140500D02*
X421000D01*
X415500Y168000D02*
X409500D01*
X433000Y194000D02*
X427000D01*
X188000Y272000D02*
Y266000D01*
X175000Y243500D02*
Y237500D01*
X140000Y245200D02*
X134000D01*
X117500Y240000D02*
Y234000D01*
X212500Y110500D02*
Y104500D01*
X193000Y251500D02*
Y250500D01*
X184000*
Y251500*
Y263500D02*
Y264500D01*
X193000*
Y263500*
X195800Y249500D02*
G03X195800I-800J0D01*
G01X171100Y247250D02*
Y259750D01*
X154900*
Y247250*
X171100*
X118000Y232500D02*
Y226500D01*
X447500Y138600D02*
Y188400D01*
X500100*
Y138600*
X447500*
X243100Y129900D02*
X250900D01*
Y114000*
X243100*
Y129900*
X262000Y395000D02*
Y389000D01*
X260500Y380000D02*
X254500D01*
X269500D02*
X263500D01*
X130000Y220000D02*
Y226000D01*
X155500D02*
Y220000D01*
X130000Y150000D02*
G03X130000I-500J0D01*
G01X138500Y149500D02*
X139000D01*
Y158500*
X138500*
X179000Y185500D02*
G03X179000I-500J0D01*
G01X187500Y185000D02*
X188000D01*
Y194000*
X187500*
X202500Y228500D02*
Y234500D01*
X187500Y324000D02*
X181500D01*
X353000Y166500D02*
Y160500D01*
X331500Y265000D02*
Y259000D01*
X162000Y308500D02*
Y314500D01*
Y307000D02*
Y301000D01*
X350000Y246000D02*
Y240000D01*
X395000Y208000D02*
Y214000D01*
X373500Y233500D02*
X367500D01*
X267000Y184500D02*
X273000D01*
X222000Y218500D02*
Y224500D01*
Y242000D02*
Y236000D01*
X222500Y212500D02*
Y206500D01*
X250062Y155000D02*
X254000D01*
X250062D02*
Y156227D01*
X250062D02*
X250250Y156636D01*
X250437Y156773*
X250437D02*
X250812Y156909D01*
X250812D02*
X251187D01*
X251187D02*
X251562Y156773D01*
X251562D02*
X251750Y156636D01*
X251937Y156227*
X251937D02*
Y155000D01*
Y155955D02*
X254000Y156909D01*
X250812Y158136D02*
X250625Y158409D01*
X250062Y158818*
X250062D02*
X254000D01*
X265500Y149438D02*
Y145500D01*
Y149438D02*
X266727D01*
X266727D02*
X267136Y149250D01*
X267273Y149063*
X267273D02*
X267409Y148688D01*
X267409D02*
Y148313D01*
X267409D02*
X267273Y147938D01*
X267273D02*
X267136Y147750D01*
X266727Y147563*
X266727D02*
X265500D01*
X266455D02*
X267409Y145500D01*
X269318Y149438D02*
X268909Y149250D01*
X268773Y148875*
Y148500*
X268909Y148125*
X269182Y147938*
X269182D02*
X269727Y147750D01*
X270136Y147563*
X270136D02*
X270409Y147188D01*
X270409D02*
X270545Y146813D01*
X270545D02*
Y146250D01*
X270409Y145875*
X270273Y145688*
X270273D02*
X269864Y145500D01*
X269318*
X268909Y145688*
X268909D02*
X268773Y145875D01*
X268636Y146250*
Y146813*
X268636D02*
X268773Y147188D01*
X268773D02*
X269045Y147563D01*
X269045D02*
X269455Y147750D01*
X270000Y147938*
X270000D02*
X270273Y148125D01*
X270409Y148500*
Y148875*
X270273Y149250*
X269864Y149438*
X269864D02*
X269318D01*
X273545D02*
X272182D01*
X272182D02*
X272045Y147750D01*
X272182Y147938*
X272182D02*
X272591Y148125D01*
X273000*
X273409Y147938*
X273409D02*
X273682Y147563D01*
X273682D02*
X273818Y147000D01*
X273682Y146625*
X273545Y146063*
X273545D02*
X273273Y145688D01*
X273273D02*
X272864Y145500D01*
X272455*
X272045Y145688*
X272045D02*
X271909Y145875D01*
X271773Y146250*
X281000Y163438D02*
Y159500D01*
Y163438D02*
X282227D01*
X282636Y163250*
X282773Y163063*
X282909Y162688*
Y162313*
X282773Y161938*
X282636Y161750*
X282227Y161563*
X281000*
X281955D02*
X282909Y159500D01*
X284818Y163438D02*
X284409Y163250D01*
X284273Y162875*
Y162500*
X284409Y162125*
X284682Y161938*
X285227Y161750*
X285636Y161563*
X285909Y161188*
X286045Y160813*
Y160250*
X285909Y159875*
X285773Y159688*
X285364Y159500*
X284818*
X284409Y159688*
X284273Y159875*
X284136Y160250*
Y160813*
X284273Y161188*
X284545Y161563*
X284955Y161750*
X285500Y161938*
X285773Y162125*
X285909Y162500*
Y162875*
X285773Y163250*
X285364Y163438*
X284818*
X289182D02*
X287818Y159500D01*
X287273Y163438D02*
X289182D01*
X271062Y273000D02*
X275000D01*
X271062D02*
Y274227D01*
X271062D02*
X271250Y274636D01*
X271437Y274773*
X271437D02*
X271812Y274909D01*
X271812D02*
X272187D01*
X272187D02*
X272562Y274773D01*
X272562D02*
X272750Y274636D01*
X272937Y274227*
X272937D02*
Y273000D01*
Y273955D02*
X275000Y274909D01*
X271062Y277500D02*
X273687Y276136D01*
X273687D02*
Y278182D01*
X271062Y277500D02*
X275000D01*
X244500Y180438D02*
Y176500D01*
Y180438D02*
X245727D01*
X245727D02*
X246136Y180250D01*
X246273Y180063*
X246273D02*
X246409Y179688D01*
X246409D02*
Y179313D01*
X246409D02*
X246273Y178938D01*
X246273D02*
X246136Y178750D01*
X245727Y178563*
X245727D02*
X244500D01*
X245455D02*
X246409Y176500D01*
X247636Y180438D02*
Y176500D01*
Y180438D02*
X249545Y176500D01*
Y180438D02*
Y176500D01*
X252136Y180438D02*
X250773Y177813D01*
X250773D02*
X252818D01*
X252136Y180438D02*
Y176500D01*
X288500Y179545D02*
X288125Y179409D01*
X287750Y179136*
X287562Y178864*
X287562D02*
Y178318D01*
X287562D02*
X287750Y178045D01*
X288125Y177773*
X288500Y177636*
X289062Y177500*
X289062D02*
X290000D01*
X290562Y177636*
X290562D02*
X290937Y177773D01*
X290937D02*
X291312Y178045D01*
X291312D02*
X291500Y178318D01*
Y178864*
X291312Y179136*
X291312D02*
X290937Y179409D01*
X290937D02*
X290562Y179545D01*
X287562Y182545D02*
Y181182D01*
X287562D02*
X289250Y181045D01*
X289062Y181182*
X289062D02*
X288875Y181591D01*
Y182000*
X289062Y182409*
X289062D02*
X289437Y182682D01*
X289437D02*
X290000Y182818D01*
X290375Y182682*
X290937Y182545*
X290937D02*
X291312Y182273D01*
X291312D02*
X291500Y181864D01*
Y181455*
X291312Y181045*
X291312D02*
X291125Y180909D01*
X290750Y180773*
X288312Y184045D02*
X288125Y184318D01*
X287562Y184727*
X287562D02*
X291500D01*
X156750Y283857D02*
X156319Y283686D01*
X155887Y283345*
X155887D02*
X155672Y283005D01*
Y282323*
X155887Y281982*
X155887D02*
X156319Y281641D01*
X156750Y281470*
X157397Y281300*
X158475*
X159122Y281470*
X159553Y281641*
X159984Y281982*
X160200Y282323*
Y283005*
X159984Y283345*
X159553Y283686*
X159122Y283857*
X156534Y285391D02*
X156319Y285732D01*
X155672Y286243*
X160200*
X156534Y287777D02*
X156319Y288118D01*
X155672Y288630*
X160200*
X183500Y284438D02*
Y280500D01*
Y284438D02*
X184727D01*
X184727D02*
X185136Y284250D01*
X185273Y284063*
X185273D02*
X185409Y283688D01*
X185409D02*
Y283313D01*
X185409D02*
X185273Y282938D01*
X185273D02*
X185136Y282750D01*
X184727Y282563*
X184727D02*
X183500D01*
X184455D02*
X185409Y280500D01*
X186636Y283688D02*
X186909Y283875D01*
X187318Y284438*
X187318D02*
Y280500D01*
X189909Y284438D02*
X188545Y281813D01*
X188545D02*
X190591D01*
X189909Y284438D02*
Y280500D01*
X402545Y271000D02*
X402409Y271375D01*
X402136Y271750*
X401864Y271938*
X401864D02*
X401318D01*
X401318D02*
X401045Y271750D01*
X400773Y271375*
X400636Y271000*
X400500Y270438*
X400500D02*
Y269500D01*
X400636Y268938*
X400636D02*
X400773Y268563D01*
X400773D02*
X401045Y268188D01*
X401045D02*
X401318Y268000D01*
X401864*
X402136Y268188*
X402136D02*
X402409Y268563D01*
X402409D02*
X402545Y268938D01*
X404455Y271938D02*
X404045Y271750D01*
X403909Y271375*
Y271000*
X404045Y270625*
X404318Y270438*
X404318D02*
X404864Y270250D01*
X405273Y270063*
X405273D02*
X405545Y269688D01*
X405545D02*
X405682Y269313D01*
X405682D02*
Y268750D01*
X405545Y268375*
X405409Y268188*
X405409D02*
X405000Y268000D01*
X404455*
X404045Y268188*
X404045D02*
X403909Y268375D01*
X403773Y268750*
Y269313*
X403773D02*
X403909Y269688D01*
X403909D02*
X404182Y270063D01*
X404182D02*
X404591Y270250D01*
X405136Y270438*
X405136D02*
X405409Y270625D01*
X405545Y271000*
Y271375*
X405409Y271750*
X405000Y271938*
X405000D02*
X404455D01*
X408273D02*
X406909Y269313D01*
X406909D02*
X408955D01*
X408273Y271938D02*
Y268000D01*
X327500Y149438D02*
Y145500D01*
Y149438D02*
X328727D01*
X328727D02*
X329136Y149250D01*
X329273Y149063*
X329273D02*
X329409Y148688D01*
X329409D02*
Y148313D01*
X329409D02*
X329273Y147938D01*
X329273D02*
X329136Y147750D01*
X328727Y147563*
X328727D02*
X327500D01*
X328455D02*
X329409Y145500D01*
X331318Y149438D02*
X330909Y149250D01*
X330773Y148875*
Y148500*
X330909Y148125*
X331182Y147938*
X331182D02*
X331727Y147750D01*
X332136Y147563*
X332136D02*
X332409Y147188D01*
X332409D02*
X332545Y146813D01*
X332545D02*
Y146250D01*
X332409Y145875*
X332273Y145688*
X332273D02*
X331864Y145500D01*
X331318*
X330909Y145688*
X330909D02*
X330773Y145875D01*
X330636Y146250*
Y146813*
X330636D02*
X330773Y147188D01*
X330773D02*
X331045Y147563D01*
X331045D02*
X331455Y147750D01*
X332000Y147938*
X332000D02*
X332273Y148125D01*
X332409Y148500*
Y148875*
X332273Y149250*
X331864Y149438*
X331864D02*
X331318D01*
X335136D02*
X333773Y146813D01*
X333773D02*
X335818D01*
X335136Y149438D02*
Y145500D01*
X133000Y173766D02*
Y170719D01*
X133148Y170109*
X133443Y169703*
X133886Y169500*
X134182*
X134625Y169703*
X134920Y170109*
X135068Y170719*
Y173766*
X137875D02*
X136398Y170922D01*
X138614*
X137875Y173766D02*
Y169500D01*
X140830Y173766D02*
X140386Y173563D01*
X140386D02*
X140091Y172953D01*
X139943Y171938*
X139943D02*
Y171328D01*
X140091Y170313*
X140091D02*
X140386Y169703D01*
X140830Y169500*
X141125*
X141568Y169703*
X141864Y170313*
X141864D02*
X142011Y171328D01*
Y171938*
X142011D02*
X141864Y172953D01*
X141568Y173563*
X141568D02*
X141125Y173766D01*
X140830*
X171500Y230955D02*
X171875Y231091D01*
X172250Y231364*
X172438Y231636*
X172438D02*
Y232182D01*
X172438D02*
X172250Y232455D01*
X171875Y232727*
X171500Y232864*
X170938Y233000*
X170938D02*
X170000D01*
X169438Y232864*
X169438D02*
X169063Y232727D01*
X169063D02*
X168688Y232455D01*
X168688D02*
X168500Y232182D01*
Y231636*
X168688Y231364*
X168688D02*
X169063Y231091D01*
X169063D02*
X169438Y230955D01*
X172438Y227955D02*
Y229318D01*
X172438D02*
X170750Y229455D01*
X170938Y229318*
X170938D02*
X171125Y228909D01*
Y228500*
X170938Y228091*
X170938D02*
X170563Y227818D01*
X170563D02*
X170000Y227682D01*
X169625Y227818*
X169063Y227955*
X169063D02*
X168688Y228227D01*
X168688D02*
X168500Y228636D01*
Y229045*
X168688Y229455*
X168688D02*
X168875Y229591D01*
X169250Y229727*
X109500Y188045D02*
X109125Y187909D01*
X108750Y187636*
X108562Y187364*
X108562D02*
Y186818D01*
X108562D02*
X108750Y186545D01*
X109125Y186273*
X109500Y186136*
X110062Y186000*
X110062D02*
X111000D01*
X111562Y186136*
X111562D02*
X111937Y186273D01*
X111937D02*
X112312Y186545D01*
X112312D02*
X112500Y186818D01*
Y187364*
X112312Y187636*
X112312D02*
X111937Y187909D01*
X111937D02*
X111562Y188045D01*
X109500Y189409D02*
X109312D01*
X109312D02*
X108937Y189545D01*
X108937D02*
X108750Y189682D01*
X108562Y189955*
X108562D02*
Y190500D01*
X108562D02*
X108750Y190773D01*
X108937Y190909*
X108937D02*
X109312Y191045D01*
X109312D02*
X109687D01*
X109687D02*
X110062Y190909D01*
X110062D02*
X110625Y190636D01*
X112500Y189273*
Y191182*
X173500Y300955D02*
X173875Y301091D01*
X174250Y301364*
X174438Y301636*
X174438D02*
Y302182D01*
X174438D02*
X174250Y302455D01*
X173875Y302727*
X173500Y302864*
X172938Y303000*
X172938D02*
X172000D01*
X171438Y302864*
X171438D02*
X171063Y302727D01*
X171063D02*
X170688Y302455D01*
X170688D02*
X170500Y302182D01*
Y301636*
X170688Y301364*
X170688D02*
X171063Y301091D01*
X171063D02*
X171438Y300955D01*
X173875Y298091D02*
X174250Y298227D01*
X174438Y298636*
X174438D02*
Y298909D01*
X174438D02*
X174250Y299318D01*
X173688Y299591*
X173688D02*
X172750Y299727D01*
X171813*
X171813D02*
X171063Y299591D01*
X171063D02*
X170688Y299318D01*
X170688D02*
X170500Y298909D01*
Y298773*
X170688Y298364*
X170688D02*
X171063Y298091D01*
X171063D02*
X171625Y297955D01*
X171813*
X171813D02*
X172375Y298091D01*
X172750Y298364*
X172938Y298773*
X172938D02*
Y298909D01*
X172938D02*
X172750Y299318D01*
X172375Y299591*
X171813Y299727*
X257000Y335955D02*
X257375Y336091D01*
X257750Y336364*
X257938Y336636*
X257938D02*
Y337182D01*
X257938D02*
X257750Y337455D01*
X257375Y337727*
X257000Y337864*
X256438Y338000*
X256438D02*
X255500D01*
X254938Y337864*
X254938D02*
X254563Y337727D01*
X254563D02*
X254188Y337455D01*
X254188D02*
X254000Y337182D01*
Y336636*
X254188Y336364*
X254188D02*
X254563Y336091D01*
X254563D02*
X254938Y335955D01*
X256625Y332955D02*
X256063Y333091D01*
X256063D02*
X255688Y333364D01*
X255688D02*
X255500Y333773D01*
Y333909*
X255688Y334318*
X255688D02*
X256063Y334591D01*
X256063D02*
X256625Y334727D01*
X256813*
X256813D02*
X257375Y334591D01*
X257750Y334318*
X257938Y333909*
X257938D02*
Y333773D01*
X257938D02*
X257750Y333364D01*
X257375Y333091*
X256625Y332955*
X255688*
X255688D02*
X254750Y333091D01*
X254188Y333364*
X254188D02*
X254000Y333773D01*
Y334045*
X254188Y334455*
X254188D02*
X254563Y334591D01*
X246938Y341500D02*
X243000D01*
X246938D02*
Y340273D01*
X246938D02*
X246750Y339864D01*
X246563Y339727*
X246563D02*
X246188Y339591D01*
X246188D02*
X245813D01*
X245813D02*
X245438Y339727D01*
X245438D02*
X245250Y339864D01*
X245063Y340273*
X245063D02*
Y341500D01*
Y340545D02*
X243000Y339591D01*
X245625Y336591D02*
X245063Y336727D01*
X245063D02*
X244688Y337000D01*
X244688D02*
X244500Y337409D01*
Y337545*
X244688Y337955*
X244688D02*
X245063Y338227D01*
X245063D02*
X245625Y338364D01*
X245813*
X245813D02*
X246375Y338227D01*
X246750Y337955*
X246938Y337545*
X246938D02*
Y337409D01*
X246938D02*
X246750Y337000D01*
X246375Y336727*
X245625Y336591*
X244688*
X244688D02*
X243750Y336727D01*
X243188Y337000*
X243188D02*
X243000Y337409D01*
Y337682*
X243188Y338091*
X243188D02*
X243563Y338227D01*
X246938Y334000D02*
X244313Y335364D01*
X244313D02*
Y333318D01*
X246938Y334000D02*
X243000D01*
X255000Y296455D02*
X255375Y296591D01*
X255750Y296864*
X255938Y297136*
X255938D02*
Y297682D01*
X255938D02*
X255750Y297955D01*
X255375Y298227*
X255000Y298364*
X254438Y298500*
X254438D02*
X253500D01*
X252938Y298364*
X252938D02*
X252563Y298227D01*
X252563D02*
X252188Y297955D01*
X252188D02*
X252000Y297682D01*
Y297136*
X252188Y296864*
X252188D02*
X252563Y296591D01*
X252563D02*
X252938Y296455D01*
X255188Y295227D02*
X255375Y294955D01*
X255938Y294545*
X255938D02*
X252000D01*
X255938Y291545D02*
Y292909D01*
X255938D02*
X254250Y293045D01*
X254438Y292909*
X254438D02*
X254625Y292500D01*
Y292091*
X254438Y291682*
X254438D02*
X254063Y291409D01*
X254063D02*
X253500Y291273D01*
X253125Y291409*
X252563Y291545*
X252563D02*
X252188Y291818D01*
X252188D02*
X252000Y292227D01*
Y292636*
X252188Y293045*
X252188D02*
X252375Y293182D01*
X252750Y293318*
X231500Y336955D02*
X231875Y337091D01*
X232250Y337364*
X232438Y337636*
X232438D02*
Y338182D01*
X232438D02*
X232250Y338455D01*
X231875Y338727*
X231500Y338864*
X230938Y339000*
X230938D02*
X230000D01*
X229438Y338864*
X229438D02*
X229063Y338727D01*
X229063D02*
X228688Y338455D01*
X228688D02*
X228500Y338182D01*
Y337636*
X228688Y337364*
X228688D02*
X229063Y337091D01*
X229063D02*
X229438Y336955D01*
X232438Y335045D02*
X232250Y335455D01*
X231875Y335591*
X231500*
X231125Y335455*
X230938Y335182*
X230938D02*
X230750Y334636D01*
X230563Y334227*
X230563D02*
X230188Y333955D01*
X230188D02*
X229813Y333818D01*
X229813D02*
X229250D01*
X228875Y333955*
X228688Y334091*
X228688D02*
X228500Y334500D01*
Y335045*
X228688Y335455*
X228688D02*
X228875Y335591D01*
X229250Y335727*
X229813*
X229813D02*
X230188Y335591D01*
X230188D02*
X230563Y335318D01*
X230563D02*
X230750Y334909D01*
X230938Y334364*
X230938D02*
X231125Y334091D01*
X231500Y333955*
X231875*
X232250Y334091*
X232438Y334500*
X232438D02*
Y335045D01*
X318645Y297500D02*
X318509Y297875D01*
X318236Y298250*
X317964Y298438*
X317964D02*
X317418D01*
X317418D02*
X317145Y298250D01*
X316873Y297875*
X316736Y297500*
X316600Y296938*
X316600D02*
Y296000D01*
X316736Y295438*
X316736D02*
X316873Y295063D01*
X316873D02*
X317145Y294688D01*
X317145D02*
X317418Y294500D01*
X317964*
X318236Y294688*
X318236D02*
X318509Y295063D01*
X318509D02*
X318645Y295438D01*
X321645Y297125D02*
X321509Y296563D01*
X321509D02*
X321236Y296188D01*
X321236D02*
X320827Y296000D01*
X320691*
X320282Y296188*
X320282D02*
X320009Y296563D01*
X320009D02*
X319873Y297125D01*
Y297313*
X319873D02*
X320009Y297875D01*
X320282Y298250*
X320691Y298438*
X320691D02*
X320827D01*
X320827D02*
X321236Y298250D01*
X321509Y297875*
X321645Y297125*
Y296188*
X321645D02*
X321509Y295250D01*
X321236Y294688*
X321236D02*
X320827Y294500D01*
X320555*
X320145Y294688*
X320145D02*
X320009Y295063D01*
X324509Y297875D02*
X324373Y298250D01*
X323964Y298438*
X323964D02*
X323691D01*
X323691D02*
X323282Y298250D01*
X323009Y297688*
X323009D02*
X322873Y296750D01*
Y295813*
X322873D02*
X323009Y295063D01*
X323009D02*
X323282Y294688D01*
X323282D02*
X323691Y294500D01*
X323827*
X324236Y294688*
X324236D02*
X324509Y295063D01*
X324509D02*
X324645Y295625D01*
Y295813*
X324645D02*
X324509Y296375D01*
X324236Y296750*
X323827Y296938*
X323827D02*
X323691D01*
X323691D02*
X323282Y296750D01*
X323009Y296375*
X322873Y295813*
X281500Y170938D02*
Y167000D01*
Y170938D02*
X282727D01*
X283136Y170750*
X283273Y170563*
X283409Y170188*
Y169813*
X283273Y169438*
X283136Y169250*
X282727Y169063*
X281500*
X282455D02*
X283409Y167000D01*
X286273Y170375D02*
X286136Y170750D01*
X285727Y170938*
X285455*
X285045Y170750*
X284773Y170188*
X284636Y169250*
Y168313*
X284773Y167563*
X285045Y167188*
X285455Y167000*
X285591*
X286000Y167188*
X286273Y167563*
X286409Y168125*
Y168313*
X286273Y168875*
X286000Y169250*
X285591Y169438*
X285455*
X285045Y169250*
X284773Y168875*
X284636Y168313*
X288455Y170938D02*
X288045Y170750D01*
X287773Y170188*
X287636Y169250*
Y168688*
X287773Y167750*
X288045Y167188*
X288455Y167000*
X288727*
X289136Y167188*
X289409Y167750*
X289545Y168688*
Y169250*
X289409Y170188*
X289136Y170750*
X288727Y170938*
X288455*
X279156Y274896D02*
X278781Y274760D01*
X278406Y274487*
X278219Y274214*
Y273669*
X278406Y273396*
X278781Y273123*
X279156Y272987*
X279719Y272851*
X280656*
X281219Y272987*
X281594Y273123*
X281969Y273396*
X282156Y273669*
Y274214*
X281969Y274487*
X281594Y274760*
X281219Y274896*
X278219Y277896D02*
Y276532D01*
X279906Y276396*
X279719Y276532*
X279531Y276942*
Y277351*
X279719Y277760*
X280094Y278032*
X280656Y278169*
X281031Y278032*
X281594Y277896*
X281969Y277623*
X282156Y277214*
Y276805*
X281969Y276396*
X281781Y276260*
X281406Y276123*
X278219Y279669D02*
Y281169D01*
X279719Y280351*
Y280760*
X279906Y281032*
X280094Y281169*
X280656Y281305*
X281031*
X281594Y281169*
X281969Y280896*
X282156Y280487*
Y280078*
X281969Y279669*
X281781Y279532*
X281406Y279396*
X230000Y275045D02*
X229625Y274909D01*
X229250Y274636*
X229062Y274364*
Y273818*
X229250Y273545*
X229625Y273273*
X230000Y273136*
X230562Y273000*
X231500*
X232062Y273136*
X232437Y273273*
X232812Y273545*
X233000Y273818*
Y274364*
X232812Y274636*
X232437Y274909*
X232062Y275045*
X229062Y278045D02*
Y276682D01*
X230750Y276545*
X230562Y276682*
X230375Y277091*
Y277500*
X230562Y277909*
X230937Y278182*
X231500Y278318*
X231875Y278182*
X232437Y278045*
X232812Y277773*
X233000Y277364*
Y276955*
X232812Y276545*
X232625Y276409*
X232250Y276273*
X229062Y281318D02*
Y279955D01*
X230750Y279818*
X230562Y279955*
X230375Y280364*
Y280773*
X230562Y281182*
X230937Y281455*
X231500Y281591*
X231875Y281455*
X232437Y281318*
X232812Y281045*
X233000Y280636*
Y280227*
X232812Y279818*
X232625Y279682*
X232250Y279545*
X288500Y274545D02*
X288125Y274409D01*
X287750Y274136*
X287562Y273864*
Y273318*
X287750Y273045*
X288125Y272773*
X288500Y272636*
X289062Y272500*
X290000*
X290562Y272636*
X290937Y272773*
X291312Y273045*
X291500Y273318*
Y273864*
X291312Y274136*
X290937Y274409*
X290562Y274545*
X287562Y277545D02*
Y276182D01*
X289250Y276045*
X289062Y276182*
X288875Y276591*
Y277000*
X289062Y277409*
X289437Y277682*
X290000Y277818*
X290375Y277682*
X290937Y277545*
X291312Y277273*
X291500Y276864*
Y276455*
X291312Y276045*
X291125Y275909*
X290750Y275773*
X288500Y279182D02*
X288312D01*
X287937Y279318*
X287750Y279455*
X287562Y279727*
Y280273*
X287750Y280545*
X287937Y280682*
X288312Y280818*
X288687*
X289062Y280682*
X289625Y280409*
X291500Y279045*
Y280955*
X166300Y336328D02*
Y331800D01*
Y336328D02*
X167834D01*
X168345Y336112*
X168345D02*
X168516Y335897D01*
X168686Y335466*
Y334819*
X168516Y334387*
X168516D02*
X168345Y334172D01*
X167834Y333956*
X166300*
X170220Y336328D02*
Y331800D01*
Y336328D02*
X172436D01*
X170220Y334172D02*
X171584D01*
X173970Y335466D02*
X174311Y335681D01*
X174823Y336328*
Y331800*
X181000Y109938D02*
Y106000D01*
Y109938D02*
X182227D01*
X182227D02*
X182636Y109750D01*
X182773Y109563*
X182773D02*
X182909Y109188D01*
X182909D02*
Y108813D01*
X182909D02*
X182773Y108438D01*
X182773D02*
X182636Y108250D01*
X182227Y108063*
X182227D02*
X181000D01*
X181955D02*
X182909Y106000D01*
X184136Y109938D02*
Y106000D01*
Y109938D02*
X185909D01*
X184136Y108063D02*
X185227D01*
X184136Y106000D02*
X185909D01*
X187136Y109938D02*
Y106000D01*
Y109938D02*
X188091D01*
X188091D02*
X188500Y109750D01*
X188773Y109375*
X188909Y109000*
X189045Y108438*
X189045D02*
Y107500D01*
X188909Y106938*
X188909D02*
X188773Y106563D01*
X188773D02*
X188500Y106188D01*
X188500D02*
X188091Y106000D01*
X187136*
X190273Y105250D02*
X193136D01*
X193955Y109938D02*
Y106000D01*
X195591*
X196818Y109938D02*
Y106000D01*
Y109938D02*
X198591D01*
X196818Y108063D02*
X197909D01*
X196818Y106000D02*
X198591D01*
X199818Y109938D02*
Y106000D01*
Y109938D02*
X200773D01*
X200773D02*
X201182Y109750D01*
X201455Y109375*
X201591Y109000*
X201727Y108438*
X201727D02*
Y107500D01*
X201591Y106938*
X201591D02*
X201455Y106563D01*
X201455D02*
X201182Y106188D01*
X201182D02*
X200773Y106000D01*
X199818*
X126500Y231281D02*
Y228938D01*
X126614Y228469*
X126841Y228156*
X127182Y228000*
X127409*
X127750Y228156*
X127977Y228469*
X128091Y228938*
Y231281*
X130705Y230813D02*
X130477Y231125D01*
X130136Y231281*
X129682*
X129341Y231125*
X129114Y230813*
Y230500*
X129227Y230188*
X129341Y230031*
X129568Y229875*
X130250Y229563*
X130477Y229406*
X130591Y229250*
X130705Y228938*
Y228469*
X130477Y228156*
X130136Y228000*
X129682*
X129341Y228156*
X129114Y228469*
X131727Y231281D02*
Y228000D01*
Y231281D02*
X132750D01*
X133091Y231125*
X133205Y230969*
X133318Y230656*
Y230344*
X133205Y230031*
X133091Y229875*
X132750Y229719*
X131727D02*
X132750D01*
X133091Y229563*
X133205Y229406*
X133318Y229094*
Y228625*
X133205Y228313*
X133091Y228156*
X132750Y228000*
X131727*
X134341Y227375D02*
X136727D01*
X137409Y231281D02*
Y228000D01*
X138773*
X139795Y231281D02*
Y228000D01*
Y231281D02*
X141273D01*
X139795Y229719D02*
X140705D01*
X139795Y228000D02*
X141273D01*
X142295Y231281D02*
Y228000D01*
Y231281D02*
X143091D01*
X143432Y231125*
X143659Y230813*
X143773Y230500*
X143886Y230031*
Y229250*
X143773Y228781*
X143659Y228469*
X143432Y228156*
X143091Y228000*
X142295*
X118545Y222000D02*
X118409Y222375D01*
X118136Y222750*
X117864Y222938*
X117864D02*
X117318D01*
X117318D02*
X117045Y222750D01*
X116773Y222375*
X116636Y222000*
X116500Y221438*
X116500D02*
Y220500D01*
X116636Y219938*
X116636D02*
X116773Y219563D01*
X116773D02*
X117045Y219188D01*
X117045D02*
X117318Y219000D01*
X117864*
X118136Y219188*
X118136D02*
X118409Y219563D01*
X118409D02*
X118545Y219938D01*
X120045Y222938D02*
X121545D01*
X121545D02*
X120727Y221438D01*
X120727D02*
X121136D01*
X121136D02*
X121409Y221250D01*
X121545Y221063*
X121545D02*
X121682Y220500D01*
Y220125*
X121545Y219563*
X121545D02*
X121273Y219188D01*
X121273D02*
X120864Y219000D01*
X120455*
X120045Y219188*
X120045D02*
X119909Y219375D01*
X119773Y219750*
X156045Y230000D02*
X155909Y230375D01*
X155636Y230750*
X155364Y230938*
X155364D02*
X154818D01*
X154818D02*
X154545Y230750D01*
X154273Y230375*
X154136Y230000*
X154000Y229438*
X154000D02*
Y228500D01*
X154136Y227938*
X154136D02*
X154273Y227563D01*
X154273D02*
X154545Y227188D01*
X154545D02*
X154818Y227000D01*
X155364*
X155636Y227188*
X155636D02*
X155909Y227563D01*
X155909D02*
X156045Y227938D01*
X158636Y230938D02*
X157273Y228313D01*
X157273D02*
X159318D01*
X158636Y230938D02*
Y227000D01*
X189000Y320545D02*
X188625Y320409D01*
X188250Y320136*
X188062Y319864*
X188062D02*
Y319318D01*
X188062D02*
X188250Y319045D01*
X188625Y318773*
X189000Y318636*
X189562Y318500*
X189562D02*
X190500D01*
X191062Y318636*
X191062D02*
X191437Y318773D01*
X191437D02*
X191812Y319045D01*
X191812D02*
X192000Y319318D01*
Y319864*
X191812Y320136*
X191812D02*
X191437Y320409D01*
X191437D02*
X191062Y320545D01*
X188812Y321773D02*
X188625Y322045D01*
X188062Y322455*
X188062D02*
X192000D01*
X188062Y324500D02*
X188250Y324091D01*
X188812Y323818*
X188812D02*
X189750Y323682D01*
X190312*
X190312D02*
X191250Y323818D01*
X191812Y324091*
X191812D02*
X192000Y324500D01*
Y324773*
X191812Y325182*
X191812D02*
X191250Y325455D01*
X190312Y325591*
X190312D02*
X189750D01*
X188812Y325455*
X188812D02*
X188250Y325182D01*
X188062Y324773*
X188062D02*
Y324500D01*
X350500Y160438D02*
Y156500D01*
Y160438D02*
X351727D01*
X351727D02*
X352136Y160250D01*
X352273Y160063*
X352273D02*
X352409Y159688D01*
X352409D02*
Y159313D01*
X352409D02*
X352273Y158938D01*
X352273D02*
X352136Y158750D01*
X351727Y158563*
X351727D02*
X350500D01*
X351455D02*
X352409Y156500D01*
X354318Y160438D02*
X353909Y160250D01*
X353773Y159875*
Y159500*
X353909Y159125*
X354182Y158938*
X354182D02*
X354727Y158750D01*
X355136Y158563*
X355136D02*
X355409Y158188D01*
X355409D02*
X355545Y157813D01*
X355545D02*
Y157250D01*
X355409Y156875*
X355273Y156688*
X355273D02*
X354864Y156500D01*
X354318*
X353909Y156688*
X353909D02*
X353773Y156875D01*
X353636Y157250*
Y157813*
X353636D02*
X353773Y158188D01*
X353773D02*
X354045Y158563D01*
X354045D02*
X354455Y158750D01*
X355000Y158938*
X355000D02*
X355273Y159125D01*
X355409Y159500*
Y159875*
X355273Y160250*
X354864Y160438*
X354864D02*
X354318D01*
X327500Y270437D02*
Y266500D01*
Y270437D02*
X328727D01*
X328727D02*
X329136Y270250D01*
X329273Y270062*
X329273D02*
X329409Y269687D01*
X329409D02*
Y269312D01*
X329409D02*
X329273Y268937D01*
X329273D02*
X329136Y268750D01*
X328727Y268562*
X328727D02*
X327500D01*
X328455D02*
X329409Y266500D01*
X330636Y269687D02*
X330909Y269875D01*
X331318Y270437*
X331318D02*
Y266500D01*
X333364Y270437D02*
X332955Y270250D01*
X332682Y269687*
X332682D02*
X332545Y268750D01*
Y268187*
X332545D02*
X332682Y267250D01*
X332955Y266687*
X332955D02*
X333364Y266500D01*
X333636*
X334045Y266687*
X334045D02*
X334318Y267250D01*
X334455Y268187*
X334455D02*
Y268750D01*
X334318Y269687*
X334318D02*
X334045Y270250D01*
X333636Y270437*
X333636D02*
X333364D01*
X161000Y319438D02*
Y315500D01*
Y319438D02*
X162227D01*
X162227D02*
X162636Y319250D01*
X162773Y319063*
X162773D02*
X162909Y318688D01*
X162909D02*
Y318313D01*
X162909D02*
X162773Y317938D01*
X162773D02*
X162636Y317750D01*
X162227Y317563*
X162227D02*
X161000D01*
X161955D02*
X162909Y315500D01*
X164136Y318688D02*
X164409Y318875D01*
X164818Y319438*
X164818D02*
Y315500D01*
X166182Y318500D02*
Y318688D01*
X166182D02*
X166318Y319063D01*
X166318D02*
X166455Y319250D01*
X166727Y319438*
X166727D02*
X167273D01*
X167273D02*
X167545Y319250D01*
X167682Y319063*
X167682D02*
X167818Y318688D01*
X167818D02*
Y318313D01*
X167818D02*
X167682Y317938D01*
X167682D02*
X167409Y317375D01*
X166045Y315500*
X167955*
X170500Y308438D02*
Y304500D01*
Y308438D02*
X171727D01*
X171727D02*
X172136Y308250D01*
X172273Y308063*
X172273D02*
X172409Y307688D01*
X172409D02*
Y307313D01*
X172409D02*
X172273Y306938D01*
X172273D02*
X172136Y306750D01*
X171727Y306563*
X171727D02*
X170500D01*
X171455D02*
X172409Y304500D01*
X173636Y307688D02*
X173909Y307875D01*
X174318Y308438*
X174318D02*
Y304500D01*
X175818Y308438D02*
X177318D01*
X177318D02*
X176500Y306938D01*
X176500D02*
X176909D01*
X176909D02*
X177182Y306750D01*
X177318Y306563*
X177318D02*
X177455Y306000D01*
Y305625*
X177318Y305063*
X177318D02*
X177045Y304688D01*
X177045D02*
X176636Y304500D01*
X176227*
X175818Y304688*
X175818D02*
X175682Y304875D01*
X175545Y305250*
X345500Y238938D02*
Y235000D01*
Y238938D02*
X346727D01*
X346727D02*
X347136Y238750D01*
X347273Y238563*
X347273D02*
X347409Y238188D01*
X347409D02*
Y237813D01*
X347409D02*
X347273Y237438D01*
X347273D02*
X347136Y237250D01*
X346727Y237063*
X346727D02*
X345500D01*
X346455D02*
X347409Y235000D01*
X348636Y238188D02*
X348909Y238375D01*
X349318Y238938*
X349318D02*
Y235000D01*
X352318Y238938D02*
X350955D01*
X350955D02*
X350818Y237250D01*
X350955Y237438*
X350955D02*
X351364Y237625D01*
X351773*
X352182Y237438*
X352182D02*
X352455Y237063D01*
X352455D02*
X352591Y236500D01*
X352455Y236125*
X352318Y235563*
X352318D02*
X352045Y235188D01*
X352045D02*
X351636Y235000D01*
X351227*
X350818Y235188*
X350818D02*
X350682Y235375D01*
X350545Y235750*
X389500Y218937D02*
Y215000D01*
Y218937D02*
X390727D01*
X390727D02*
X391136Y218750D01*
X391273Y218562*
X391273D02*
X391409Y218187D01*
X391409D02*
Y217812D01*
X391409D02*
X391273Y217437D01*
X391273D02*
X391136Y217250D01*
X390727Y217062*
X390727D02*
X389500D01*
X390455D02*
X391409Y215000D01*
X393318Y218937D02*
X392909Y218750D01*
X392773Y218375*
Y218000*
X392909Y217625*
X393182Y217437*
X393182D02*
X393727Y217250D01*
X394136Y217062*
X394136D02*
X394409Y216687D01*
X394409D02*
X394545Y216312D01*
X394545D02*
Y215750D01*
X394409Y215375*
X394273Y215187*
X394273D02*
X393864Y215000D01*
X393318*
X392909Y215187*
X392909D02*
X392773Y215375D01*
X392636Y215750*
Y216312*
X392636D02*
X392773Y216687D01*
X392773D02*
X393045Y217062D01*
X393045D02*
X393455Y217250D01*
X394000Y217437*
X394000D02*
X394273Y217625D01*
X394409Y218000*
Y218375*
X394273Y218750*
X393864Y218937*
X393864D02*
X393318D01*
X397409Y218375D02*
X397273Y218750D01*
X396864Y218937*
X396864D02*
X396591D01*
X396591D02*
X396182Y218750D01*
X395909Y218187*
X395909D02*
X395773Y217250D01*
Y216312*
X395773D02*
X395909Y215562D01*
X395909D02*
X396182Y215187D01*
X396182D02*
X396591Y215000D01*
X396727*
X397136Y215187*
X397136D02*
X397409Y215562D01*
X397409D02*
X397545Y216125D01*
Y216312*
X397545D02*
X397409Y216875D01*
X397136Y217250*
X396727Y217437*
X396727D02*
X396591D01*
X396591D02*
X396182Y217250D01*
X395909Y216875*
X395773Y216312*
X374062Y229000D02*
X378000D01*
X374062D02*
Y230227D01*
X374062D02*
X374250Y230636D01*
X374437Y230773*
X374437D02*
X374812Y230909D01*
X374812D02*
X375187D01*
X375187D02*
X375562Y230773D01*
X375562D02*
X375750Y230636D01*
X375937Y230227*
X375937D02*
Y229000D01*
Y229955D02*
X378000Y230909D01*
X374062Y232818D02*
X374250Y232409D01*
X374625Y232273*
X375000*
X375375Y232409*
X375562Y232682*
X375562D02*
X375750Y233227D01*
X375937Y233636*
X375937D02*
X376312Y233909D01*
X376312D02*
X376687Y234045D01*
X376687D02*
X377250D01*
X377625Y233909*
X377812Y233773*
X377812D02*
X378000Y233364D01*
Y232818*
X377812Y232409*
X377812D02*
X377625Y232273D01*
X377250Y232136*
X376687*
X376687D02*
X376312Y232273D01*
X376312D02*
X375937Y232545D01*
X375937D02*
X375750Y232955D01*
X375562Y233500*
X375562D02*
X375375Y233773D01*
X375000Y233909*
X374625*
X374250Y233773*
X374062Y233364*
X374062D02*
Y232818D01*
Y235955D02*
X374250Y235545D01*
X374625Y235409*
X375000*
X375375Y235545*
X375562Y235818*
X375562D02*
X375750Y236364D01*
X375937Y236773*
X375937D02*
X376312Y237045D01*
X376312D02*
X376687Y237182D01*
X376687D02*
X377250D01*
X377625Y237045*
X377812Y236909*
X377812D02*
X378000Y236500D01*
Y235955*
X377812Y235545*
X377812D02*
X377625Y235409D01*
X377250Y235273*
X376687*
X376687D02*
X376312Y235409D01*
X376312D02*
X375937Y235682D01*
X375937D02*
X375750Y236091D01*
X375562Y236636*
X375562D02*
X375375Y236909D01*
X375000Y237045*
X374625*
X374250Y236909*
X374062Y236500*
X374062D02*
Y235955D01*
X263562Y190000D02*
X267500D01*
X263562D02*
Y191227D01*
X263562D02*
X263750Y191636D01*
X263937Y191773*
X263937D02*
X264312Y191909D01*
X264312D02*
X264687D01*
X264687D02*
X265062Y191773D01*
X265062D02*
X265250Y191636D01*
X265437Y191227*
X265437D02*
Y190000D01*
Y190955D02*
X267500Y191909D01*
X264500Y193273D02*
X264312D01*
X264312D02*
X263937Y193409D01*
X263937D02*
X263750Y193545D01*
X263562Y193818*
X263562D02*
Y194364D01*
X263562D02*
X263750Y194636D01*
X263937Y194773*
X263937D02*
X264312Y194909D01*
X264312D02*
X264687D01*
X264687D02*
X265062Y194773D01*
X265062D02*
X265625Y194500D01*
X267500Y193136*
Y195045*
X220000Y228938D02*
Y225000D01*
Y228938D02*
X221227D01*
X221227D02*
X221636Y228750D01*
X221773Y228563*
X221773D02*
X221909Y228188D01*
X221909D02*
Y227813D01*
X221909D02*
X221773Y227438D01*
X221773D02*
X221636Y227250D01*
X221227Y227063*
X221227D02*
X220000D01*
X220955D02*
X221909Y225000D01*
X223409Y228938D02*
X224909D01*
X224909D02*
X224091Y227438D01*
X224091D02*
X224500D01*
X224500D02*
X224773Y227250D01*
X224909Y227063*
X224909D02*
X225045Y226500D01*
Y226125*
X224909Y225563*
X224909D02*
X224636Y225188D01*
X224636D02*
X224227Y225000D01*
X223818*
X223409Y225188*
X223409D02*
X223273Y225375D01*
X223136Y225750*
X220000Y235438D02*
Y231500D01*
Y235438D02*
X221227D01*
X221227D02*
X221636Y235250D01*
X221773Y235063*
X221773D02*
X221909Y234688D01*
X221909D02*
Y234313D01*
X221909D02*
X221773Y233938D01*
X221773D02*
X221636Y233750D01*
X221227Y233563*
X221227D02*
X220000D01*
X220955D02*
X221909Y231500D01*
X224909Y235438D02*
X223545D01*
X223545D02*
X223409Y233750D01*
X223545Y233938*
X223545D02*
X223955Y234125D01*
X224364*
X224773Y233938*
X224773D02*
X225045Y233563D01*
X225045D02*
X225182Y233000D01*
X225045Y232625*
X224909Y232063*
X224909D02*
X224636Y231688D01*
X224636D02*
X224227Y231500D01*
X223818*
X223409Y231688*
X223409D02*
X223273Y231875D01*
X223136Y232250*
X220000Y216937D02*
Y213000D01*
Y216937D02*
X221227D01*
X221227D02*
X221636Y216750D01*
X221773Y216562*
X221773D02*
X221909Y216187D01*
X221909D02*
Y215812D01*
X221909D02*
X221773Y215437D01*
X221773D02*
X221636Y215250D01*
X221227Y215062*
X221227D02*
X220000D01*
X220955D02*
X221909Y213000D01*
X224773Y216375D02*
X224636Y216750D01*
X224227Y216937*
X224227D02*
X223955D01*
X223955D02*
X223545Y216750D01*
X223273Y216187*
X223273D02*
X223136Y215250D01*
Y214312*
X223136D02*
X223273Y213562D01*
X223273D02*
X223545Y213187D01*
X223545D02*
X223955Y213000D01*
X224091*
X224500Y213187*
X224500D02*
X224773Y213562D01*
X224773D02*
X224909Y214125D01*
Y214312*
X224909D02*
X224773Y214875D01*
X224500Y215250*
X224091Y215437*
X224091D02*
X223955D01*
X223955D02*
X223545Y215250D01*
X223273Y214875*
X223136Y214312*
X204500Y376000D02*
X217000D01*
Y369500*
X204500*
Y376000*
X203500Y368500D02*
X210000D01*
Y356500*
X203500*
Y368500*
X211000D02*
X217000D01*
Y356000*
X211000*
Y368500*
X218000D02*
X229500D01*
Y362000*
X218000*
Y368500*
Y361500D02*
X229500D01*
Y354500*
X218000*
Y361500*
Y381500D02*
X224000D01*
Y370500*
X218000*
Y381500*
X225000Y381000D02*
X231000D01*
Y369500*
X225000*
Y381000*
X217000Y389000D02*
X231000D01*
Y382500*
X217000*
Y389000*
G54D36*
X231000Y245500D02*
G03X231000I-1000J0D01*
G54D38*
G01X196400Y299700D02*
Y300700D01*
X183400*
Y299700*
G54D71*
X231250Y307300D02*
Y303300D01*
X236750*
Y307300*
X231250Y309700D02*
Y313700D01*
X236750*
Y309700*
X109750Y209300D02*
Y205300D01*
X115250*
Y209300*
X109750Y211700D02*
Y215700D01*
X115250*
Y211700*
X376250Y134450D02*
Y138450D01*
X370750*
Y134450*
X376250Y132050D02*
Y128050D01*
X370750*
Y132050*
X350500Y132550D02*
Y128550D01*
X356000*
Y132550*
X350500Y134950D02*
Y138950D01*
X356000*
Y134950*
X178750Y317700D02*
Y321700D01*
X173250*
Y317700*
X178750Y315300D02*
Y311300D01*
X173250*
Y315300*
X230281Y312500D02*
X227000D01*
X230281D02*
Y311023D01*
X228719Y312500D02*
Y311591D01*
X230281Y310000D02*
X227000D01*
X230281D02*
Y308977D01*
X230125Y308636*
X229969Y308523*
X229656Y308409*
X229344*
X229031Y308523*
X228875Y308636*
X228719Y308977*
Y310000D02*
Y308977D01*
X228563Y308636*
X228563D02*
X228406Y308523D01*
X228094Y308409*
X227625*
X227313Y308523*
X227313D02*
X227156Y308636D01*
X227000Y308977*
Y310000*
X229656Y307386D02*
X229813Y307159D01*
X229813D02*
X230281Y306818D01*
X227000*
X187000Y225281D02*
Y222000D01*
Y225281D02*
X188023D01*
X188364Y225125*
X188477Y224969*
X188591Y224656*
Y224344*
X188477Y224031*
X188364Y223875*
X188023Y223719*
X187000*
X187795D02*
X188591Y222000D01*
X190750Y225281D02*
X189614Y223094D01*
X191318*
X190750Y225281D02*
Y222000D01*
X192455Y224500D02*
Y224656D01*
X192568Y224969*
X192682Y225125*
X192909Y225281*
X193364*
X193591Y225125*
X193705Y224969*
X193818Y224656*
Y224344*
X193705Y224031*
X193477Y223563*
X193477D02*
X192341Y222000D01*
X193932*
X218219Y138500D02*
X219781Y139409D01*
X221500*
X218219Y140318D02*
X219781Y139409D01*
X218687Y142705D02*
X218375Y142591D01*
X218219Y142250*
Y142023*
X218375Y141682*
X218844Y141455*
X219625Y141341*
X220406*
X221031Y141455*
X221344Y141682*
X221500Y142023*
Y142136*
X221344Y142477*
X221031Y142705*
X220562Y142818*
X220562D02*
X220406D01*
X219937Y142705*
X219937D02*
X219625Y142477D01*
X219469Y142136*
Y142023*
X219625Y141682*
X219937Y141455*
X219937D02*
X220406Y141341D01*
X218219Y144523D02*
X218375Y144182D01*
X218844Y143955*
X219625Y143841*
X220094*
X220875Y143955*
X221344Y144182*
X221500Y144523*
Y144750*
X221344Y145091*
X220875Y145318*
X220094Y145432*
X219625*
X218844Y145318*
X218375Y145091*
X218219Y144750*
Y144523*
X355500Y197781D02*
Y195438D01*
X355500D02*
X355614Y194969D01*
X355841Y194656*
X356182Y194500*
X356409*
X356750Y194656*
X356977Y194969*
X357091Y195438*
X357091D02*
Y197781D01*
X358682D02*
X358341Y197625D01*
X358227Y197313*
X358227D02*
Y197000D01*
X358341Y196688*
X358341D02*
X358568Y196531D01*
X359023Y196375*
X359364Y196219*
X359591Y195906*
X359705Y195594*
Y195125*
X359591Y194813*
X359591D02*
X359477Y194656D01*
X359136Y194500*
X358682*
X358341Y194656*
X358227Y194813*
X358227D02*
X358114Y195125D01*
Y195594*
X358227Y195906*
X358455Y196219*
X358795Y196375*
X359250Y196531*
X359477Y196688*
X359477D02*
X359591Y197000D01*
Y197313*
X359591D02*
X359477Y197625D01*
X359136Y197781*
X358682*
X361409D02*
X361068Y197625D01*
X360841Y197156*
X360727Y196375*
Y195906*
X360841Y195125*
X361068Y194656*
X361409Y194500*
X361636*
X361977Y194656*
X362205Y195125*
X362318Y195906*
Y196375*
X362205Y197156*
X361977Y197625*
X361636Y197781*
X361409*
X380000Y183205D02*
X379687Y183091D01*
X379687D02*
X379375Y182864D01*
X379219Y182636*
Y182182*
X379375Y181955*
X379687Y181727*
X379687D02*
X380000Y181614D01*
X380469Y181500*
X381250*
X381719Y181614*
X382031Y181727*
X382344Y181955*
X382500Y182182*
Y182636*
X382344Y182864*
X382031Y183091*
X381719Y183205*
X379219Y184227D02*
X382500D01*
X379219D02*
X382500Y185818D01*
X379219D02*
X382500D01*
X379219Y187409D02*
X379375Y187068D01*
X379687Y186955*
X379687D02*
X380000D01*
X380312Y187068*
X380312D02*
X380469Y187295D01*
X380625Y187750*
X380781Y188091*
X381094Y188318*
X381406Y188432*
X381875*
X382187Y188318*
X382187D02*
X382344Y188205D01*
X382500Y187864*
Y187409*
X382344Y187068*
X382187Y186955*
X382187D02*
X381875Y186841D01*
X381406*
X381094Y186955*
X380781Y187182*
X380625Y187523*
X380469Y187977*
X380312Y188205*
X380312D02*
X380000Y188318D01*
X379687*
X379687D02*
X379375Y188205D01*
X379219Y187864*
Y187409*
Y190136D02*
X379375Y189795D01*
X379844Y189568*
X380625Y189455*
X381094*
X381875Y189568*
X382344Y189795*
X382500Y190136*
Y190364*
X382344Y190705*
X381875Y190932*
X381094Y191045*
X380625*
X379844Y190932*
X379375Y190705*
X379219Y190364*
Y190136*
X227000Y172705D02*
X226687Y172591D01*
X226375Y172364*
X226219Y172136*
Y171682*
X226375Y171455*
X226687Y171227*
X227000Y171114*
X227469Y171000*
X228250*
X228719Y171114*
X229031Y171227*
X229344Y171455*
X229500Y171682*
Y172136*
X229344Y172364*
X229031Y172591*
X228719Y172705*
X226687Y175091D02*
X226375Y174977D01*
X226219Y174636*
Y174409*
X226375Y174068*
X226844Y173841*
X227625Y173727*
X228406*
X229031Y173841*
X229344Y174068*
X229500Y174409*
Y174523*
X229344Y174864*
X229031Y175091*
X228562Y175205*
X228406*
X227937Y175091*
X227625Y174864*
X227469Y174523*
Y174409*
X227625Y174068*
X227937Y173841*
X228406Y173727*
X226219Y176909D02*
X226375Y176568D01*
X226844Y176341*
X227625Y176227*
X228094*
X228875Y176341*
X229344Y176568*
X229500Y176909*
Y177136*
X229344Y177477*
X228875Y177705*
X228094Y177818*
X227625*
X226844Y177705*
X226375Y177477*
X226219Y177136*
Y176909*
X214000Y156705D02*
X213688Y156591D01*
X213688D02*
X213375Y156364D01*
X213219Y156136*
Y155682*
X213375Y155455*
X213688Y155227*
X213688D02*
X214000Y155114D01*
X214469Y155000*
X215250*
X215719Y155114*
X216031Y155227*
X216344Y155455*
X216500Y155682*
Y156136*
X216344Y156364*
X216031Y156591*
X215719Y156705*
X213688Y159091D02*
X213375Y158977D01*
X213219Y158636*
Y158409*
X213375Y158068*
X213844Y157841*
X214625Y157727*
X215406*
X216031Y157841*
X216344Y158068*
X216500Y158409*
Y158523*
X216344Y158864*
X216031Y159091*
X215563Y159205*
X215563D02*
X215406D01*
X214938Y159091*
X214938D02*
X214625Y158864D01*
X214469Y158523*
Y158409*
X214625Y158068*
X214938Y157841*
X214938D02*
X215406Y157727D01*
X213844Y160227D02*
X213688Y160455D01*
X213688D02*
X213219Y160795D01*
X216500*
X105719Y206000D02*
X109000D01*
X105719D02*
Y207477D01*
X107281Y206000D02*
Y206909D01*
X105719Y208500D02*
X109000D01*
X105719D02*
Y209523D01*
X105875Y209864*
X106031Y209977*
X106344Y210091*
X106656*
X106969Y209977*
X107125Y209864*
X107281Y209523*
Y208500D02*
Y209523D01*
X107437Y209864*
X107437D02*
X107594Y209977D01*
X107906Y210091*
X108375*
X108687Y209977*
X108687D02*
X108844Y209864D01*
X109000Y209523*
Y208500*
X105719Y212250D02*
X107906Y211114D01*
Y212818*
X105719Y212250D02*
X109000D01*
X105719Y214523D02*
X105875Y214182D01*
X106344Y213955*
X107125Y213841*
X107594*
X108375Y213955*
X108844Y214182*
X109000Y214523*
Y214750*
X108844Y215091*
X108375Y215318*
X107594Y215432*
X107125*
X106344Y215318*
X105875Y215091*
X105719Y214750*
Y214523*
X120000Y383281D02*
Y380000D01*
X121591Y383281D02*
Y380000D01*
X120000Y381719D02*
X121591D01*
X122614Y382656D02*
X122841Y382813D01*
X122841D02*
X123182Y383281D01*
Y380000*
X480000Y383281D02*
Y380000D01*
X481591Y383281D02*
Y380000D01*
X480000Y381719D02*
X481591D01*
X482727Y382500D02*
Y382656D01*
X482841Y382969*
X482955Y383125*
X483182Y383281*
X483636*
X483864Y383125*
X483977Y382969*
X484091Y382656*
Y382344*
X483977Y382031*
X483750Y381563*
X483750D02*
X482614Y380000D01*
X484205*
X480000Y123281D02*
Y120000D01*
X481591Y123281D02*
Y120000D01*
X480000Y121719D02*
X481591D01*
X483750Y123281D02*
X482614Y121094D01*
X484318*
X483750Y123281D02*
Y120000D01*
X120000Y123281D02*
Y120000D01*
X121591Y123281D02*
Y120000D01*
X120000Y121719D02*
X121591D01*
X122841Y123281D02*
X124091D01*
X123409Y122031*
X123750*
X123977Y121875*
X124091Y121719*
X124205Y121250*
Y120938*
X124205D02*
X124091Y120469D01*
X123864Y120156*
X123523Y120000*
X123182*
X122841Y120156*
X122727Y120313*
X122727D02*
X122614Y120625D01*
X140219Y141795D02*
X143500D01*
X140219Y141000D02*
Y142591D01*
Y143614D02*
X143500Y144523D01*
X140219Y145432D02*
X143500Y144523D01*
X140687Y148045D02*
X140375Y147818D01*
X140219Y147477*
Y147023*
X140375Y146682*
X140687Y146455*
X140687D02*
X141000D01*
X141312Y146568*
X141312D02*
X141469Y146682D01*
X141625Y146909*
X141937Y147591*
X141937D02*
X142094Y147818D01*
X142250Y147932*
X142562Y148045*
X142562D02*
X143031D01*
X143344Y147818*
X143500Y147477*
Y147023*
X143344Y146682*
X143031Y146455*
X140219Y150205D02*
X142406Y149068D01*
Y150773*
X140219Y150205D02*
X143500D01*
X140219Y152477D02*
X140375Y152136D01*
X140844Y151909*
X141625Y151795*
X142094*
X142875Y151909*
X143344Y152136*
X143500Y152477*
Y152705*
X143344Y153045*
X142875Y153273*
X142094Y153386*
X141625*
X140844Y153273*
X140375Y153045*
X140219Y152705*
Y152477*
X173719Y185295D02*
X177000D01*
X173719Y184500D02*
Y186091D01*
Y187114D02*
X177000Y188023D01*
X173719Y188932D02*
X177000Y188023D01*
X174188Y191545D02*
X173875Y191318D01*
X173719Y190977*
Y190523*
X173875Y190182*
X174188Y189955*
X174188D02*
X174500D01*
X174813Y190068*
X174813D02*
X174969Y190182D01*
X175125Y190409*
X175438Y191091*
X175438D02*
X175594Y191318D01*
X175750Y191432*
X176063Y191545*
X176063D02*
X176531D01*
X176844Y191318*
X177000Y190977*
Y190523*
X176844Y190182*
X176531Y189955*
X173719Y193705D02*
X175906Y192568D01*
Y194273*
X173719Y193705D02*
X177000D01*
X174344Y195295D02*
X174188Y195523D01*
X174188D02*
X173719Y195864D01*
X177000*
X191000Y200781D02*
Y198438D01*
X191000D02*
X191114Y197969D01*
X191341Y197656*
X191682Y197500*
X191909*
X192250Y197656*
X192477Y197969*
X192591Y198438*
X192591D02*
Y200781D01*
X194750D02*
X193614Y198594D01*
X195318*
X194750Y200781D02*
Y197500D01*
X187500Y232781D02*
Y229500D01*
Y232781D02*
X188523D01*
X188864Y232625*
X188977Y232469*
X189091Y232156*
Y231844*
X188977Y231531*
X188864Y231375*
X188523Y231219*
X187500*
X188295D02*
X189091Y229500D01*
X191250Y232781D02*
X190114Y230594D01*
X191818*
X191250Y232781D02*
Y229500D01*
X192841Y232156D02*
X193068Y232313D01*
X193068D02*
X193409Y232781D01*
Y229500*
X179219Y307500D02*
X182500D01*
X179219D02*
Y308977D01*
X180781Y307500D02*
Y308409D01*
X179219Y310000D02*
X182500D01*
X179219D02*
Y311023D01*
X179375Y311364*
X179531Y311477*
X179844Y311591*
X180156*
X180469Y311477*
X180625Y311364*
X180781Y311023*
Y310000D02*
Y311023D01*
X180937Y311364*
X180937D02*
X181094Y311477D01*
X181406Y311591*
X181875*
X182187Y311477*
X182187D02*
X182344Y311364D01*
X182500Y311023*
Y310000*
X179844Y312614D02*
X179687Y312841D01*
X179687D02*
X179219Y313182D01*
X182500*
X179219Y314886D02*
X179375Y314545D01*
X179844Y314318*
X180625Y314205*
X181094*
X181875Y314318*
X182344Y314545*
X182500Y314886*
Y315114*
X182344Y315455*
X181875Y315682*
X181094Y315795*
X180625*
X179844Y315682*
X179375Y315455*
X179219Y315114*
Y314886*
X256500Y184422D02*
Y179500D01*
Y184422D02*
X258034D01*
X258545Y184188*
X258545D02*
X258716Y183953D01*
X258886Y183484*
Y183016*
X258716Y182547*
X258545Y182313*
X258545D02*
X258034Y182078D01*
X256500*
X257693D02*
X258886Y179500D01*
X260420Y184422D02*
Y179500D01*
Y184422D02*
X262807Y179500D01*
Y184422D02*
Y179500D01*
X264341Y183484D02*
X264682Y183719D01*
X265193Y184422*
Y179500*
X297078Y239500D02*
X302000D01*
X297078D02*
Y241034D01*
X297312Y241545*
X297547Y241716*
X298016Y241886*
X298484*
X298953Y241716*
X299187Y241545*
X299422Y241034*
Y239500*
Y240693D02*
X302000Y241886D01*
X297078Y243420D02*
X302000D01*
X297078D02*
X302000Y245807D01*
X297078D02*
X302000D01*
X297078Y247682D02*
Y249557D01*
X298953Y248534*
Y249045*
X299187Y249386*
X299422Y249557*
X300125Y249727*
X300594*
X301297Y249557*
X301766Y249216*
X302000Y248705*
Y248193*
X301766Y247682*
X301531Y247511*
X301062Y247341*
X227000Y188422D02*
Y183500D01*
Y188422D02*
X228534D01*
X229045Y188188*
X229045D02*
X229216Y187953D01*
X229386Y187484*
Y187016*
X229216Y186547*
X229045Y186313*
X229045D02*
X228534Y186078D01*
X227000*
X228193D02*
X229386Y183500D01*
X230920Y188422D02*
Y183500D01*
Y188422D02*
X233307Y183500D01*
Y188422D02*
Y183500D01*
X237057Y188422D02*
X235352D01*
X235182Y186313*
X235182D02*
X235352Y186547D01*
X235864Y186781*
X236375*
X236886Y186547*
X237227Y186078*
X237398Y185375*
X237227Y184906*
X237057Y184203*
X236716Y183734*
X236205Y183500*
X235693*
X235182Y183734*
X235011Y183969*
X234841Y184438*
X292578Y208000D02*
X297500D01*
X292578D02*
Y209534D01*
X292812Y210045*
X292812D02*
X293047Y210216D01*
X293516Y210386*
X293984*
X294453Y210216*
X294687Y210045*
X294687D02*
X294922Y209534D01*
Y208000*
Y209193D02*
X297500Y210386D01*
X292578Y211920D02*
X297500D01*
X292578D02*
X297500Y214307D01*
X292578D02*
X297500D01*
X292578Y218227D02*
X297500Y216523D01*
X292578Y215841D02*
Y218227D01*
G54D86*
X421000Y164500D02*
G03X421000I-1250J0D01*
G01X418000Y161500D02*
X437000D01*
Y174500*
X418000*
Y161500*
X407250Y240750D02*
G03X407250I-1250J0D01*
G01X409000Y239000D02*
Y258000D01*
X396000*
Y239000*
X409000*
X406250Y292750D02*
G03X406250I-1250J0D01*
G01X408000Y291000D02*
Y310000D01*
X395000*
Y291000*
X408000*
X252000Y143094D02*
Y139813D01*
X252000D02*
X252159Y139156D01*
X252477Y138719*
X252955Y138500*
X253273*
X253750Y138719*
X254068Y139156*
X254227Y139813*
X254227D02*
Y143094D01*
X257568Y142438D02*
X257409Y142875D01*
X256932Y143094*
X256614*
X256136Y142875*
X255818Y142219*
X255659Y141125*
Y140031*
X255818Y139156*
X256136Y138719*
X256614Y138500*
X256773*
X257250Y138719*
X257568Y139156*
X257727Y139813*
X257727D02*
Y140031D01*
X257568Y140688*
X257568D02*
X257250Y141125D01*
X256773Y141344*
X256614*
X256136Y141125*
X255818Y140688*
X255818D02*
X255659Y140031D01*
X259562Y165000D02*
X263500D01*
X259562D02*
Y166227D01*
X259562D02*
X259750Y166636D01*
X259937Y166773*
X259937D02*
X260312Y166909D01*
X260312D02*
X260687D01*
X260687D02*
X261062Y166773D01*
X261062D02*
X261250Y166636D01*
X261437Y166227*
X261437D02*
Y165000D01*
Y165955D02*
X263500Y166909D01*
X259562Y168136D02*
X263500D01*
X259562D02*
X263500Y170045D01*
X259562D02*
X263500D01*
X260125Y172909D02*
X259750Y172773D01*
X259562Y172364*
X259562D02*
Y172091D01*
X259562D02*
X259750Y171682D01*
X260312Y171409*
X260312D02*
X261250Y171273D01*
X262187*
X262187D02*
X262937Y171409D01*
X262937D02*
X263312Y171682D01*
X263312D02*
X263500Y172091D01*
Y172227*
X263312Y172636*
X263312D02*
X262937Y172909D01*
X262937D02*
X262375Y173045D01*
X262187*
X262187D02*
X261625Y172909D01*
X261250Y172636*
X261062Y172227*
X261062D02*
Y172091D01*
X261062D02*
X261250Y171682D01*
X261625Y171409*
X262187Y171273*
X259562Y175091D02*
X259750Y174682D01*
X260312Y174409*
X260312D02*
X261250Y174273D01*
X261812*
X261812D02*
X262750Y174409D01*
X263312Y174682*
X263312D02*
X263500Y175091D01*
Y175364*
X263312Y175773*
X263312D02*
X262750Y176045D01*
X261812Y176182*
X261812D02*
X261250D01*
X260312Y176045*
X260312D02*
X259750Y175773D01*
X259562Y175364*
X259562D02*
Y175091D01*
X430117Y306576D02*
X434711D01*
X430117D02*
Y308008D01*
X430336Y308485*
X430554Y308644*
X430992Y308804*
X431429*
X431867Y308644*
X432086Y308485*
X432304Y308008*
Y306576*
Y307690D02*
X434711Y308804D01*
X430117Y312463D02*
X434711Y310872D01*
X430117Y310235D02*
Y312463D01*
X158300Y273594D02*
Y269000D01*
Y273594D02*
X159732D01*
X160209Y273375*
X160368Y273156*
X160527Y272719*
Y272281*
X160368Y271844*
X160209Y271625*
X159732Y271406*
X158300*
X159414D02*
X160527Y269000D01*
X162277Y273594D02*
X164027D01*
X163073Y271844*
X163550*
X163868Y271625*
X164027Y271406*
X164186Y270750*
Y270313*
X164186D02*
X164027Y269656D01*
X163709Y269219*
X163232Y269000*
X162755*
X162277Y269219*
X162118Y269438*
X162118D02*
X161959Y269875D01*
X165936Y273594D02*
X167686D01*
X166732Y271844*
X167209*
X167527Y271625*
X167686Y271406*
X167845Y270750*
Y270313*
X167845D02*
X167686Y269656D01*
X167368Y269219*
X166891Y269000*
X166414*
X165936Y269219*
X165777Y269438*
X165777D02*
X165618Y269875D01*
X391500Y359294D02*
Y354700D01*
Y359294D02*
X392932D01*
X393409Y359075*
X393568Y358856*
X393727Y358419*
Y357763*
X393727D02*
X393568Y357325D01*
X393409Y357106*
X392932Y356888*
X392932D02*
X391500D01*
X395159Y359294D02*
Y354700D01*
Y359294D02*
X397227D01*
X395159Y357106D02*
X396432D01*
X400886Y359294D02*
X399295Y354700D01*
X398659Y359294D02*
X400886D01*
X380675Y315458D02*
X380516Y315895D01*
X380198Y316333*
X379880Y316552*
X379243*
X378925Y316333*
X378607Y315895*
X378448Y315458*
X378289Y314802*
Y313708*
X378448Y313052*
X378607Y312614*
X378925Y312177*
X379243Y311958*
X379880*
X380198Y312177*
X380516Y312614*
X380675Y313052*
X382902Y316552D02*
X382425Y316333D01*
X382266Y315895*
Y315458*
X382425Y315020*
X382743Y314802*
X383380Y314583*
X383857Y314364*
X384175Y313927*
X384334Y313489*
Y312833*
X384175Y312395*
X384016Y312177*
X383539Y311958*
X382902*
X382425Y312177*
X382266Y312395*
X382107Y312833*
Y313489*
X382266Y313927*
X382584Y314364*
X383062Y314583*
X383698Y314802*
X384016Y315020*
X384175Y315458*
Y315895*
X384016Y316333*
X383539Y316552*
X382902*
X387675Y315895D02*
X387516Y316333D01*
X387039Y316552*
X386721*
X386243Y316333*
X385925Y315677*
X385766Y314583*
Y313489*
X385925Y312614*
X386243Y312177*
X386721Y311958*
X386880*
X387357Y312177*
X387675Y312614*
X387834Y313270*
Y313489*
X387675Y314145*
X387357Y314583*
X386880Y314802*
X386721*
X386243Y314583*
X385925Y314145*
X385766Y313489*
X373000Y295094D02*
Y290500D01*
Y295094D02*
X374432D01*
X374909Y294875*
X375068Y294656*
X375227Y294219*
Y293781*
X375068Y293344*
X374909Y293125*
X374432Y292906*
X373000*
X374114D02*
X375227Y290500D01*
X377455Y295094D02*
X376977Y294875D01*
X376818Y294437*
X376818D02*
Y294000D01*
X376977Y293562*
X376977D02*
X377295Y293344D01*
X377932Y293125*
X378409Y292906*
X378727Y292469*
X378886Y292031*
Y291375*
X378727Y290937*
X378727D02*
X378568Y290719D01*
X378091Y290500*
X377455*
X376977Y290719*
X376818Y290937*
X376818D02*
X376659Y291375D01*
Y292031*
X376818Y292469*
X377136Y292906*
X377614Y293125*
X378250Y293344*
X378568Y293562*
X378568D02*
X378727Y294000D01*
Y294437*
X378727D02*
X378568Y294875D01*
X378091Y295094*
X377455*
X380477Y294000D02*
Y294219D01*
X380636Y294656*
X380795Y294875*
X381114Y295094*
X381750*
X382068Y294875*
X382227Y294656*
X382386Y294219*
Y293781*
X382227Y293344*
X381909Y292687*
X381909D02*
X380318Y290500D01*
X382545*
X380000Y273094D02*
Y268500D01*
Y273094D02*
X381432D01*
X381909Y272875*
X382068Y272656*
X382227Y272219*
Y271781*
X382068Y271344*
X381909Y271125*
X381432Y270906*
X380000*
X381114D02*
X382227Y268500D01*
X384455Y273094D02*
X383977Y272875D01*
X383818Y272438*
X383818D02*
Y272000D01*
X383977Y271563*
X383977D02*
X384295Y271344D01*
X384932Y271125*
X385409Y270906*
X385727Y270469*
X385886Y270031*
Y269375*
X385727Y268938*
X385727D02*
X385568Y268719D01*
X385091Y268500*
X384455*
X383977Y268719*
X383818Y268938*
X383818D02*
X383659Y269375D01*
Y270031*
X383818Y270469*
X384136Y270906*
X384614Y271125*
X385250Y271344*
X385568Y271563*
X385568D02*
X385727Y272000D01*
Y272438*
X385727D02*
X385568Y272875D01*
X385091Y273094*
X384455*
X387636D02*
X389386D01*
X388432Y271344*
X388909*
X389227Y271125*
X389386Y270906*
X389545Y270250*
Y269813*
X389545D02*
X389386Y269156D01*
X389068Y268719*
X388591Y268500*
X388114*
X387636Y268719*
X387477Y268938*
X387477D02*
X387318Y269375D01*
X438978Y163900D02*
X442494D01*
X443197Y164070*
X443666Y164411*
X443900Y164923*
Y165264*
X443666Y165775*
X443197Y166116*
X442494Y166286*
X438978*
X440150Y167991D02*
X439916D01*
X439447Y168161*
X439212Y168332*
X439212D02*
X438978Y168673D01*
Y169355*
X439212Y169695*
X439212D02*
X439447Y169866D01*
X439916Y170036*
X440384*
X440853Y169866*
X441556Y169525*
X443900Y167820*
Y170207*
X329886Y141500D02*
X329727Y141938D01*
X329727D02*
X329409Y142375D01*
X329091Y142594*
X328455*
X328136Y142375*
X327818Y141938*
X327818D02*
X327659Y141500D01*
X327500Y140844*
Y139750*
X327659Y139094*
X327818Y138656*
X328136Y138219*
X328455Y138000*
X329091*
X329409Y138219*
X329727Y138656*
X329886Y139094*
X332114Y142594D02*
X331636Y142375D01*
X331477Y141938*
X331477D02*
Y141500D01*
X331636Y141063*
X331636D02*
X331955Y140844D01*
X332591Y140625*
X333068Y140406*
X333386Y139969*
X333545Y139531*
Y138875*
X333386Y138438*
X333386D02*
X333227Y138219D01*
X332750Y138000*
X332114*
X331636Y138219*
X331477Y138438*
X331477D02*
X331318Y138875D01*
Y139531*
X331477Y139969*
X331795Y140406*
X332273Y140625*
X332909Y140844*
X333227Y141063*
X333227D02*
X333386Y141500D01*
Y141938*
X333386D02*
X333227Y142375D01*
X332750Y142594*
X332114*
X335932D02*
X335455Y142375D01*
X335136Y141719*
X334977Y140625*
Y139969*
X335136Y138875*
X335455Y138219*
X335932Y138000*
X336250*
X336727Y138219*
X337045Y138875*
X337205Y139969*
Y140625*
X337045Y141719*
X336727Y142375*
X336250Y142594*
X335932*
X308500Y160886D02*
X308062Y160727D01*
X308062D02*
X307625Y160409D01*
X307406Y160091*
Y159455*
X307625Y159136*
X308062Y158818*
X308062D02*
X308500Y158659D01*
X309156Y158500*
X310250*
X310906Y158659*
X311344Y158818*
X311781Y159136*
X312000Y159455*
Y160091*
X311781Y160409*
X311344Y160727*
X310906Y160886*
X307406Y163114D02*
X307625Y162636D01*
X308062Y162477*
X308062D02*
X308500D01*
X308937Y162636*
X308937D02*
X309156Y162955D01*
X309375Y163591*
X309594Y164068*
X310031Y164386*
X310469Y164545*
X311125*
X311562Y164386*
X311562D02*
X311781Y164227D01*
X312000Y163750*
Y163114*
X311781Y162636*
X311562Y162477*
X311562D02*
X311125Y162318D01*
X310469*
X310031Y162477*
X309594Y162795*
X309375Y163273*
X309156Y163909*
X308937Y164227*
X308937D02*
X308500Y164386D01*
X308062*
X308062D02*
X307625Y164227D01*
X307406Y163750*
Y163114*
X308281Y165977D02*
X308062Y166295D01*
X308062D02*
X307406Y166773D01*
X312000*
X264000Y306614D02*
X264438Y306773D01*
X264438D02*
X264875Y307091D01*
X265094Y307409*
Y308045*
X264875Y308364*
X264438Y308682*
X264438D02*
X264000Y308841D01*
X263344Y309000*
X262250*
X261594Y308841*
X261156Y308682*
X260719Y308364*
X260500Y308045*
Y307409*
X260719Y307091*
X261156Y306773*
X261594Y306614*
X263563Y303114D02*
X262906Y303273D01*
X262469Y303591*
X262250Y304068*
Y304227*
X262469Y304705*
X262906Y305023*
X263563Y305182*
X263563D02*
X263781D01*
X264438Y305023*
X264438D02*
X264875Y304705D01*
X265094Y304227*
Y304068*
X264875Y303591*
X264438Y303273*
X264438D02*
X263563Y303114D01*
X263563D02*
X262469D01*
X261375Y303273*
X260719Y303591*
X260500Y304068*
Y304386*
X260719Y304864*
X261156Y305023*
X264219Y301682D02*
X264438Y301364D01*
X264438D02*
X265094Y300886D01*
X260500*
X288000Y314764D02*
X288394Y314923D01*
X288787Y315241*
X288787D02*
X288984Y315559D01*
Y316195*
X288787Y316514*
X288787D02*
X288394Y316832D01*
X288000Y316991*
X287409Y317150*
X286425*
X285834Y316991*
X285441Y316832*
X285047Y316514*
X284850Y316195*
Y315559*
X285047Y315241*
X285441Y314923*
X285834Y314764*
X287606Y311264D02*
X287016Y311423D01*
X286622Y311741*
X286425Y312218*
Y312377*
X286622Y312855*
X287016Y313173*
X287606Y313332*
X287803*
X288394Y313173*
X288787Y312855*
X288787D02*
X288984Y312377D01*
Y312218*
X288787Y311741*
X288787D02*
X288394Y311423D01*
X287606Y311264*
X286622*
X285637Y311423*
X285637D02*
X285047Y311741D01*
X284850Y312218*
Y312536*
X285047Y313014*
X285441Y313173*
X288984Y308877D02*
X288787Y309355D01*
X288787D02*
X288197Y309673D01*
X287212Y309832*
X287212D02*
X286622D01*
X285637Y309673*
X285637D02*
X285047Y309355D01*
X284850Y308877*
Y308559*
X285047Y308082*
X285637Y307764*
X285637D02*
X286622Y307605D01*
X287212*
X287212D02*
X288197Y307764D01*
X288787Y308082*
X288787D02*
X288984Y308559D01*
Y308877*
X219500Y368094D02*
Y363500D01*
Y368094D02*
X220932D01*
X221409Y367875*
X221568Y367656*
X221727Y367219*
Y366781*
X221568Y366344*
X221409Y366125*
X220932Y365906*
X219500*
X220614D02*
X221727Y363500D01*
X225227Y366563D02*
X225068Y365906D01*
X224750Y365469*
X224273Y365250*
X224114*
X223636Y365469*
X223318Y365906*
X223159Y366563*
X223159D02*
Y366781D01*
X223318Y367438*
X223318D02*
X223636Y367875D01*
X224114Y368094*
X224273*
X224750Y367875*
X225068Y367438*
X225068D02*
X225227Y366563D01*
X225227D02*
Y365469D01*
X225068Y364375*
X224750Y363719*
X224273Y363500*
X223955*
X223477Y363719*
X223318Y364156*
X226659Y367219D02*
X226977Y367438D01*
X226977D02*
X227455Y368094D01*
Y363500*
X219000Y360594D02*
Y356000D01*
Y360594D02*
X220432D01*
X220909Y360375*
X221068Y360156*
X221227Y359719*
Y359281*
X221068Y358844*
X220909Y358625*
X220432Y358406*
X219000*
X220114D02*
X221227Y356000D01*
X224727Y359063D02*
X224568Y358406D01*
X224250Y357969*
X223773Y357750*
X223614*
X223136Y357969*
X222818Y358406*
X222659Y359063*
X222659D02*
Y359281D01*
X222818Y359938*
X222818D02*
X223136Y360375D01*
X223614Y360594*
X223773*
X224250Y360375*
X224568Y359938*
X224568D02*
X224727Y359063D01*
X224727D02*
Y357969D01*
X224568Y356875*
X224250Y356219*
X223773Y356000*
X223455*
X222977Y356219*
X222818Y356656*
X287422Y343500D02*
X283906D01*
X283203Y343330*
X282734Y342989*
X282500Y342477*
Y342136*
X282734Y341625*
X283203Y341284*
X283906Y341114*
X287422*
X285781Y337364D02*
X285078Y337534D01*
X284609Y337875*
X284375Y338386*
Y338557*
X284609Y339068*
X285078Y339409*
X285781Y339580*
X286016*
X286719Y339409*
X287188Y339068*
X287188D02*
X287422Y338557D01*
Y338386*
X287188Y337875*
X287188D02*
X286719Y337534D01*
X285781Y337364*
X284609*
X283438Y337534*
X283438D02*
X282734Y337875D01*
X282500Y338386*
Y338727*
X282734Y339239*
X283203Y339409*
X208386Y374000D02*
X208227Y374438D01*
X208227D02*
X207909Y374875D01*
X207591Y375094*
X206955*
X206636Y374875*
X206318Y374438*
X206318D02*
X206159Y374000D01*
X206000Y373344*
Y372250*
X206159Y371594*
X206318Y371156*
X206636Y370719*
X206955Y370500*
X207591*
X207909Y370719*
X208227Y371156*
X208386Y371594*
X211886Y373563D02*
X211727Y372906D01*
X211409Y372469*
X210932Y372250*
X210773*
X210295Y372469*
X209977Y372906*
X209818Y373563*
X209818D02*
Y373781D01*
X209977Y374438*
X209977D02*
X210295Y374875D01*
X210773Y375094*
X210932*
X211409Y374875*
X211727Y374438*
X211727D02*
X211886Y373563D01*
X211886D02*
Y372469D01*
X211727Y371375*
X211409Y370719*
X210932Y370500*
X210614*
X210136Y370719*
X209977Y371156*
X213636Y375094D02*
X215386D01*
X214432Y373344*
X214909*
X215227Y373125*
X215386Y372906*
X215545Y372250*
Y371813*
X215545D02*
X215386Y371156D01*
X215068Y370719*
X214591Y370500*
X214114*
X213636Y370719*
X213477Y370938*
X213477D02*
X213318Y371375D01*
X215000Y365114D02*
X215438Y365273D01*
X215438D02*
X215875Y365591D01*
X216094Y365909*
Y366545*
X215875Y366864*
X215438Y367182*
X215438D02*
X215000Y367341D01*
X214344Y367500*
X213250*
X212594Y367341*
X212156Y367182*
X211719Y366864*
X211500Y366545*
Y365909*
X211719Y365591*
X212156Y365273*
X212594Y365114*
X214563Y361614D02*
X213906Y361773D01*
X213469Y362091*
X213250Y362568*
Y362727*
X213469Y363205*
X213906Y363523*
X214563Y363682*
X214563D02*
X214781D01*
X215438Y363523*
X215438D02*
X215875Y363205D01*
X216094Y362727*
Y362568*
X215875Y362091*
X215438Y361773*
X215438D02*
X214563Y361614D01*
X214563D02*
X213469D01*
X212375Y361773*
X211719Y362091*
X211500Y362568*
Y362886*
X211719Y363364*
X212156Y363523*
X215000Y360023D02*
X215219D01*
X215656Y359864*
X215875Y359705*
X216094Y359386*
Y358750*
X215875Y358432*
X215656Y358273*
X215219Y358114*
X214781*
X214344Y358273*
X213688Y358591*
X213688D02*
X211500Y360182D01*
Y357955*
X209094Y367500D02*
X204500D01*
X209094D02*
Y366068D01*
X208875Y365591*
X208656Y365432*
X208219Y365273*
X207781*
X207344Y365432*
X207125Y365591*
X206906Y366068*
Y367500*
Y366386D02*
X204500Y365273D01*
X207563Y361773D02*
X206906Y361932D01*
X206469Y362250*
X206250Y362727*
Y362886*
X206469Y363364*
X206906Y363682*
X207563Y363841*
X207563D02*
X207781D01*
X208438Y363682*
X208438D02*
X208875Y363364D01*
X209094Y362886*
Y362727*
X208875Y362250*
X208438Y361932*
X208438D02*
X207563Y361773D01*
X207563D02*
X206469D01*
X205375Y361932*
X204719Y362250*
X204500Y362727*
Y363045*
X204719Y363523*
X205156Y363682*
X209094Y359386D02*
X208875Y359864D01*
X208219Y360182*
X207125Y360341*
X206469*
X205375Y360182*
X204719Y359864*
X204500Y359386*
Y359068*
X204719Y358591*
X205375Y358273*
X206469Y358114*
X207125*
X208219Y358273*
X208875Y358591*
X209094Y359068*
Y359386*
X245500Y296114D02*
X245938Y296273D01*
X246375Y296591*
X246594Y296909*
Y297545*
X246375Y297864*
X245938Y298182*
X245500Y298341*
X244844Y298500*
X243750*
X243094Y298341*
X242656Y298182*
X242219Y297864*
X242000Y297545*
Y296909*
X242219Y296591*
X242656Y296273*
X243094Y296114*
X245719Y294682D02*
X245938Y294364D01*
X246594Y293886*
X242000*
X245500Y292295D02*
X245719D01*
X246156Y292136*
X246375Y291977*
X246594Y291659*
Y291023*
X246375Y290705*
X246156Y290545*
X245719Y290386*
X245281*
X244844Y290545*
X244188Y290864*
X242000Y292455*
Y290227*
X330386Y367000D02*
X330227Y367438D01*
X329909Y367875*
X329591Y368094*
X328955*
X328636Y367875*
X328318Y367438*
X328159Y367000*
X328000Y366344*
Y365250*
X328159Y364594*
X328318Y364156*
X328636Y363719*
X328955Y363500*
X329591*
X329909Y363719*
X330227Y364156*
X330386Y364594*
X333886Y366563D02*
X333727Y365906D01*
X333409Y365469*
X332932Y365250*
X332773*
X332295Y365469*
X331977Y365906*
X331818Y366563*
Y366781*
X331977Y367438*
X332295Y367875*
X332773Y368094*
X332932*
X333409Y367875*
X333727Y367438*
X333886Y366563*
Y365469*
X333727Y364375*
X333409Y363719*
X332932Y363500*
X332614*
X332136Y363719*
X331977Y364156*
X337545Y368094D02*
X335955Y363500D01*
X335318Y368094D02*
X337545D01*
X141705Y162422D02*
Y158672D01*
X141534Y157969*
X141364Y157734*
X141023Y157500*
X140682*
X140341Y157734*
X140170Y157969*
X140000Y158672*
Y159141*
X143239Y162422D02*
Y157500D01*
Y162422D02*
X144602Y157500D01*
X145966Y162422D02*
X144602Y157500D01*
X145966Y162422D02*
Y157500D01*
X147500Y162422D02*
Y157500D01*
Y162422D02*
X149034D01*
X149545Y162188*
X149545D02*
X149716Y161953D01*
X149886Y161484*
Y160781*
X149716Y160313*
X149716D02*
X149545Y160078D01*
X149034Y159844*
X147500*
X151420Y161484D02*
X151761Y161719D01*
X152273Y162422*
Y157500*
X219500Y185886D02*
X219062Y185727D01*
X219062D02*
X218625Y185409D01*
X218406Y185091*
Y184455*
X218625Y184136*
X219062Y183818*
X219062D02*
X219500Y183659D01*
X220156Y183500*
X221250*
X221906Y183659*
X222344Y183818*
X222781Y184136*
X223000Y184455*
Y185091*
X222781Y185409*
X222344Y185727*
X221906Y185886*
X218406Y189386D02*
Y187795D01*
X220375Y187636*
X220156Y187795*
X219937Y188273*
X219937D02*
Y188750D01*
X219937D02*
X220156Y189227D01*
X220594Y189545*
X221250Y189705*
X221687Y189545*
X221687D02*
X222344Y189386D01*
X222781Y189068*
X223000Y188591*
Y188114*
X222781Y187636*
X222562Y187477*
X222562D02*
X222125Y187318D01*
X218406Y192091D02*
X218625Y191614D01*
X219281Y191295*
X220375Y191136*
X221031*
X222125Y191295*
X222781Y191614*
X223000Y192091*
Y192409*
X222781Y192886*
X222125Y193205*
X221031Y193364*
X220375*
X219281Y193205*
X218625Y192886*
X218406Y192409*
Y192091*
X283000Y287094D02*
Y282500D01*
Y287094D02*
X284432D01*
X284909Y286875*
X285068Y286656*
X285227Y286219*
Y285781*
X285068Y285344*
X284909Y285125*
X284432Y284906*
X283000*
X284114D02*
X285227Y282500D01*
X286659Y287094D02*
Y282500D01*
Y287094D02*
X288886Y282500D01*
Y287094D02*
Y282500D01*
X292386Y285563D02*
X292227Y284906D01*
X291909Y284469*
X291432Y284250*
X291273*
X290795Y284469*
X290477Y284906*
X290318Y285563*
X290318D02*
Y285781D01*
X290477Y286438*
X290477D02*
X290795Y286875D01*
X291273Y287094*
X291432*
X291909Y286875*
X292227Y286438*
X292227D02*
X292386Y285563D01*
X292386D02*
Y284469D01*
X292227Y283375*
X291909Y282719*
X291432Y282500*
X291114*
X290636Y282719*
X290477Y283156*
X294773Y287094D02*
X294295Y286875D01*
X293977Y286219*
X293818Y285125*
Y284469*
X293977Y283375*
X294295Y282719*
X294773Y282500*
X295091*
X295568Y282719*
X295886Y283375*
X296045Y284469*
Y285125*
X295886Y286219*
X295568Y286875*
X295091Y287094*
X294773*
X162338Y141612D02*
X166932D01*
X162338D02*
Y143044D01*
X162557Y143521*
X162776Y143680*
X163213Y143839*
X163651*
X164088Y143680*
X164307Y143521*
X164526Y143044*
Y141612*
Y142726D02*
X166932Y143839D01*
X162338Y147339D02*
Y145748D01*
X164307Y145589*
X164088Y145748*
X163869Y146226*
Y146703*
X164088Y147180*
X164526Y147498*
X165182Y147657*
X165619Y147498*
X166276Y147339*
X166713Y147021*
X166932Y146544*
Y146066*
X166713Y145589*
X166494Y145430*
X166057Y145271*
X163432Y149248D02*
X163213D01*
X162776Y149407*
X162557Y149566*
X162338Y149885*
Y150521*
X162557Y150839*
X162776Y150998*
X163213Y151157*
X163651*
X164088Y150998*
X164744Y150680*
X166932Y149089*
Y151316*
X231406Y160000D02*
X236000D01*
X231406D02*
Y161432D01*
X231625Y161909*
X231844Y162068*
X232281Y162227*
X232719*
X233156Y162068*
X233375Y161909*
X233594Y161432*
Y160000*
Y161114D02*
X236000Y162227D01*
X231406Y163659D02*
X236000D01*
X231406D02*
X236000Y165886D01*
X231406D02*
X236000D01*
X232062Y169227D02*
X231625Y169068D01*
X231406Y168591*
Y168273*
X231625Y167795*
X232281Y167477*
X233375Y167318*
X234469*
X235344Y167477*
X235781Y167795*
X236000Y168273*
Y168432*
X235781Y168909*
X235344Y169227*
X234687Y169386*
X234687D02*
X234469D01*
X233812Y169227*
X233812D02*
X233375Y168909D01*
X233156Y168432*
Y168273*
X233375Y167795*
X233812Y167477*
X233812D02*
X234469Y167318D01*
X232500Y170977D02*
X232281D01*
X231844Y171136*
X231625Y171295*
X231406Y171614*
Y172250*
X231625Y172568*
X231844Y172727*
X232281Y172886*
X232719*
X233156Y172727*
X233812Y172409*
X233812D02*
X236000Y170818D01*
Y173045*
X442240Y377863D02*
X442633Y378022D01*
X443027Y378340*
X443224Y378658*
Y379295*
X443027Y379613*
X442633Y379931*
X442240Y380090*
X441649Y380249*
X440665*
X440074Y380090*
X439680Y379931*
X439286Y379613*
X439090Y379295*
Y378658*
X439286Y378340*
X439680Y378022*
X440074Y377863*
X443224Y374204D02*
X439090Y375795D01*
X443224Y376431D02*
Y374204D01*
X426300Y286514D02*
X426738Y286673D01*
X426738D02*
X427175Y286991D01*
X427394Y287309*
Y287945*
X427175Y288264*
X426738Y288582*
X426738D02*
X426300Y288741D01*
X425644Y288900*
X424550*
X423894Y288741*
X423456Y288582*
X423019Y288264*
X422800Y287945*
Y287309*
X423019Y286991*
X423456Y286673*
X423894Y286514*
X427394Y284286D02*
X427175Y284764D01*
X426738Y284923*
X426738D02*
X426300D01*
X425863Y284764*
X425863D02*
X425644Y284445D01*
X425425Y283809*
X425206Y283332*
X424769Y283014*
X424331Y282855*
X423675*
X423238Y283014*
X423238D02*
X423019Y283173D01*
X422800Y283650*
Y284286*
X423019Y284764*
X423238Y284923*
X423238D02*
X423675Y285082D01*
X424331*
X424769Y284923*
X425206Y284605*
X425425Y284127*
X425644Y283491*
X425863Y283173*
X425863D02*
X426300Y283014D01*
X426738*
X426738D02*
X427175Y283173D01*
X427394Y283650*
Y284286*
Y279195D02*
X422800Y280786D01*
X427394Y281423D02*
Y279195D01*
X385000Y226094D02*
Y221500D01*
Y226094D02*
X386432D01*
X386909Y225875*
X387068Y225656*
X387227Y225219*
Y224781*
X387068Y224344*
X386909Y224125*
X386432Y223906*
X385000*
X386114D02*
X387227Y221500D01*
X389455Y226094D02*
X388977Y225875D01*
X388818Y225438*
X388818D02*
Y225000D01*
X388977Y224563*
X388977D02*
X389295Y224344D01*
X389932Y224125*
X390409Y223906*
X390727Y223469*
X390886Y223031*
Y222375*
X390727Y221938*
X390727D02*
X390568Y221719D01*
X390091Y221500*
X389455*
X388977Y221719*
X388818Y221938*
X388818D02*
X388659Y222375D01*
Y223031*
X388818Y223469*
X389136Y223906*
X389614Y224125*
X390250Y224344*
X390568Y224563*
X390568D02*
X390727Y225000D01*
Y225438*
X390727D02*
X390568Y225875D01*
X390091Y226094*
X389455*
X392318Y225219D02*
X392636Y225438D01*
X392636D02*
X393114Y226094D01*
Y221500*
X384000Y235594D02*
Y231000D01*
Y235594D02*
X385432D01*
X385909Y235375*
X386068Y235156*
X386227Y234719*
Y234281*
X386068Y233844*
X385909Y233625*
X385432Y233406*
X384000*
X385114D02*
X386227Y231000D01*
X388455Y235594D02*
X387977Y235375D01*
X387818Y234938*
X387818D02*
Y234500D01*
X387977Y234063*
X387977D02*
X388295Y233844D01*
X388932Y233625*
X389409Y233406*
X389727Y232969*
X389886Y232531*
Y231875*
X389727Y231438*
X389727D02*
X389568Y231219D01*
X389091Y231000*
X388455*
X387977Y231219*
X387818Y231438*
X387818D02*
X387659Y231875D01*
Y232531*
X387818Y232969*
X388136Y233406*
X388614Y233625*
X389250Y233844*
X389568Y234063*
X389568D02*
X389727Y234500D01*
Y234938*
X389727D02*
X389568Y235375D01*
X389091Y235594*
X388455*
X392273D02*
X391795Y235375D01*
X391477Y234719*
X391318Y233625*
Y232969*
X391477Y231875*
X391795Y231219*
X392273Y231000*
X392591*
X393068Y231219*
X393386Y231875*
X393545Y232969*
Y233625*
X393386Y234719*
X393068Y235375*
X392591Y235594*
X392273*
X425500Y233614D02*
X425938Y233773D01*
X426375Y234091*
X426594Y234409*
Y235045*
X426375Y235364*
X425938Y235682*
X425500Y235841*
X424844Y236000*
X423750*
X423094Y235841*
X422656Y235682*
X422219Y235364*
X422000Y235045*
Y234409*
X422219Y234091*
X422656Y233773*
X423094Y233614*
X426594Y231386D02*
X426375Y231864D01*
X425938Y232023*
X425500*
X425063Y231864*
X424844Y231545*
X424625Y230909*
X424406Y230432*
X423969Y230114*
X423531Y229955*
X422875*
X422438Y230114*
X422219Y230273*
X422000Y230750*
Y231386*
X422219Y231864*
X422438Y232023*
X422875Y232182*
X423531*
X423969Y232023*
X424406Y231705*
X424625Y231227*
X424844Y230591*
X425063Y230273*
X425500Y230114*
X425938*
X426375Y230273*
X426594Y230750*
Y231386*
Y226455D02*
Y228045D01*
X424625Y228205*
X424844Y228045*
X425063Y227568*
Y227091*
X424844Y226614*
X424406Y226295*
X423750Y226136*
X423313Y226295*
X422656Y226455*
X422219Y226773*
X422000Y227250*
Y227727*
X422219Y228205*
X422438Y228364*
X422875Y228523*
X492687Y203555D02*
X496087D01*
X496087D02*
X496725Y203384D01*
X496937Y203214*
X496937D02*
X497150Y202873D01*
Y202532*
X496937Y202191*
X496937D02*
X496725Y202020D01*
X496087Y201850*
X496087D02*
X495662D01*
X492687Y207305D02*
Y205600D01*
X492687D02*
X494600Y205430D01*
X494387Y205600*
X494387D02*
X494175Y206111D01*
Y206623*
X494387Y207134*
X494387D02*
X494812Y207475D01*
X494812D02*
X495450Y207645D01*
X495875Y207475*
X496512Y207305*
X496512D02*
X496937Y206964D01*
X496937D02*
X497150Y206452D01*
Y205941*
X496937Y205430*
X496937D02*
X496725Y205259D01*
X496300Y205089*
X205886Y275500D02*
X205727Y275937D01*
X205727D02*
X205409Y276375D01*
X205091Y276594*
X204455*
X204136Y276375*
X203818Y275937*
X203818D02*
X203659Y275500D01*
X203500Y274844*
Y273750*
X203659Y273094*
X203818Y272656*
X204136Y272219*
X204455Y272000*
X205091*
X205409Y272219*
X205727Y272656*
X205886Y273094*
X207477Y275500D02*
Y275719D01*
X207636Y276156*
X207795Y276375*
X208114Y276594*
X208750*
X209068Y276375*
X209227Y276156*
X209386Y275719*
Y275281*
X209227Y274844*
X208909Y274187*
X208909D02*
X207318Y272000D01*
X209545*
X213045Y276594D02*
X211455D01*
X211295Y274625*
X211455Y274844*
X211932Y275062*
X211932D02*
X212409D01*
X212409D02*
X212886Y274844D01*
X213205Y274406*
X213364Y273750*
X213205Y273312*
X213205D02*
X213045Y272656D01*
X212727Y272219*
X212250Y272000*
X211773*
X211295Y272219*
X211136Y272437*
X211136D02*
X210977Y272875D01*
X201386Y242000D02*
X201227Y242438D01*
X201227D02*
X200909Y242875D01*
X200591Y243094*
X199955*
X199636Y242875*
X199318Y242438*
X199318D02*
X199159Y242000D01*
X199000Y241344*
Y240250*
X199159Y239594*
X199318Y239156*
X199636Y238719*
X199955Y238500*
X200591*
X200909Y238719*
X201227Y239156*
X201386Y239594*
X202977Y242000D02*
Y242219D01*
X203136Y242656*
X203295Y242875*
X203614Y243094*
X204250*
X204568Y242875*
X204727Y242656*
X204886Y242219*
Y241781*
X204727Y241344*
X204409Y240688*
X204409D02*
X202818Y238500D01*
X205045*
X206477Y242219D02*
X206795Y242438D01*
X206795D02*
X207273Y243094D01*
Y238500*
X212516Y253350D02*
X215469D01*
X216059Y253509*
X216453Y253827*
X216650Y254305*
Y254623*
X216453Y255100*
X216059Y255418*
X215469Y255577*
X212516*
X213500Y257168D02*
X213303D01*
X212909Y257327*
X212712Y257486*
X212712D02*
X212516Y257805D01*
Y258441*
X212712Y258759*
X212712D02*
X212909Y258918D01*
X213303Y259077*
X213697*
X214091Y258918*
X214681Y258600*
X216650Y257009*
Y259236*
X212516Y261623D02*
X212712Y261145D01*
X212712D02*
X213303Y260827D01*
X214287Y260668*
X214287D02*
X214878D01*
X215862Y260827*
X215862D02*
X216453Y261145D01*
X216650Y261623*
Y261941*
X216453Y262418*
X215862Y262736*
X215862D02*
X214878Y262895D01*
X214287*
X214287D02*
X213303Y262736D01*
X212712Y262418*
X212712D02*
X212516Y261941D01*
Y261623*
X356000Y174094D02*
Y169500D01*
Y174094D02*
X357432D01*
X357909Y173875*
X358068Y173656*
X358227Y173219*
Y172781*
X358068Y172344*
X357909Y172125*
X357432Y171906*
X356000*
X357114D02*
X358227Y169500D01*
X359659Y174094D02*
Y169500D01*
Y174094D02*
X361886Y169500D01*
Y174094D02*
Y169500D01*
X363477Y173000D02*
Y173219D01*
X363636Y173656*
X363795Y173875*
X364114Y174094*
X364750*
X365068Y173875*
X365227Y173656*
X365386Y173219*
Y172781*
X365227Y172344*
X364909Y171688*
X363318Y169500*
X365545*
X367932Y174094D02*
X367455Y173875D01*
X367136Y173219*
X366977Y172125*
Y171469*
X367136Y170375*
X367455Y169719*
X367932Y169500*
X368250*
X368727Y169719*
X369045Y170375*
X369205Y171469*
Y172125*
X369045Y173219*
X368727Y173875*
X368250Y174094*
X367932*
X361006Y142200D02*
X364287D01*
X364944Y142359*
X365381Y142677*
X365600Y143155*
Y143473*
X365381Y143950*
X364944Y144268*
X364287Y144427*
X361006*
X362100Y146018D02*
X361881D01*
X361444Y146177*
X361225Y146336*
X361006Y146655*
Y147291*
X361225Y147609*
X361444Y147768*
X361881Y147927*
X362319*
X362756Y147768*
X363412Y147450*
X365600Y145859*
Y148086*
X361881Y149518D02*
X361662Y149836D01*
X361006Y150314*
X365600*
X401500Y344922D02*
Y341406D01*
X401670Y340703*
X402011Y340234*
X402523Y340000*
X402864*
X403375Y340234*
X403716Y340703*
X403886Y341406*
Y344922*
X407807D02*
X406102Y340000D01*
X405420Y344922D02*
X407807D01*
X353874Y302675D02*
X353715Y303112D01*
X353397Y303550*
X353079Y303768*
X352442*
X352124Y303550*
X351806Y303112*
X351647Y302675*
X351488Y302018*
Y300925*
X351647Y300268*
X351806Y299831*
X352124Y299393*
X352442Y299175*
X353079*
X353397Y299393*
X353715Y299831*
X353874Y300268*
X355306Y303768D02*
Y299175D01*
Y303768D02*
X357533Y299175D01*
Y303768D02*
Y299175D01*
X358965Y302893D02*
X359283Y303112D01*
X359760Y303768*
Y299175*
X361192Y302893D02*
X361510Y303112D01*
X361988Y303768*
Y299175*
X365000Y279594D02*
Y276313D01*
X365000D02*
X365159Y275656D01*
X365477Y275219*
X365955Y275000*
X366273*
X366750Y275219*
X367068Y275656*
X367227Y276313*
X367227D02*
Y279594D01*
X368659Y278719D02*
X368977Y278938D01*
X368977D02*
X369455Y279594D01*
Y275000*
X370886Y278719D02*
X371205Y278938D01*
X371205D02*
X371682Y279594D01*
Y275000*
X172000Y249594D02*
Y245000D01*
Y249594D02*
X173432D01*
X173909Y249375*
X174068Y249156*
X174227Y248719*
Y248281*
X174068Y247844*
X173909Y247625*
X173432Y247406*
X172000*
X173114D02*
X174227Y245000D01*
X175977Y249594D02*
X177727D01*
X176773Y247844*
X177250*
X177568Y247625*
X177727Y247406*
X177886Y246750*
Y246313*
X177886D02*
X177727Y245656D01*
X177409Y245219*
X176932Y245000*
X176455*
X175977Y245219*
X175818Y245438*
X175818D02*
X175659Y245875D01*
X179318Y248719D02*
X179636Y248938D01*
X179636D02*
X180114Y249594D01*
Y245000*
X147591Y112094D02*
Y108594D01*
X147432Y107938*
X147432D02*
X147273Y107719D01*
X146955Y107500*
X146636*
X146318Y107719*
X146159Y107938*
X146159D02*
X146000Y108594D01*
Y109031*
X150136Y112094D02*
Y107500D01*
X149023Y112094D02*
X151250D01*
X153955D02*
X152682Y107500D01*
X153955Y112094D02*
X155227Y107500D01*
X153159Y109031D02*
X154750D01*
X159045Y111000D02*
X158886Y111438D01*
X158886D02*
X158568Y111875D01*
X158250Y112094*
X157614*
X157295Y111875*
X156977Y111438*
X156977D02*
X156818Y111000D01*
X156659Y110344*
Y109250*
X156818Y108594*
X156977Y108156*
X157295Y107719*
X157614Y107500*
X158250*
X158568Y107719*
X158886Y108156*
X159045Y108594*
Y109250*
X158250D02*
X159045D01*
X160477Y106625D02*
X163818D01*
X164773Y112094D02*
Y107500D01*
Y112094D02*
X166045Y107500D01*
X167318Y112094D02*
X166045Y107500D01*
X167318Y112094D02*
Y107500D01*
X168750Y112094D02*
Y107500D01*
X170182Y112094D02*
Y107500D01*
Y112094D02*
X172409Y107500D01*
Y112094D02*
Y107500D01*
X173841Y112094D02*
Y107500D01*
X225406Y117500D02*
X230000D01*
X225406D02*
Y118932D01*
X225625Y119409*
X225844Y119568*
X226281Y119727*
X226719*
X227156Y119568*
X227375Y119409*
X227594Y118932*
Y117500*
Y118614D02*
X230000Y119727D01*
X225406Y123227D02*
Y121636D01*
X227375Y121477*
X227156Y121636*
X226937Y122114*
X226937D02*
Y122591D01*
X226937D02*
X227156Y123068D01*
X227594Y123386*
X228250Y123545*
X228687Y123386*
X228687D02*
X229344Y123227D01*
X229781Y122909*
X230000Y122432*
Y121955*
X229781Y121477*
X229562Y121318*
X229562D02*
X229125Y121159D01*
X225406Y125932D02*
X225625Y125455D01*
X226281Y125136*
X227375Y124977*
X228031*
X229125Y125136*
X229781Y125455*
X230000Y125932*
Y126250*
X229781Y126727*
X229125Y127045*
X228031Y127205*
X227375*
X226281Y127045*
X225625Y126727*
X225406Y126250*
Y125932*
X212906Y117500D02*
X217500D01*
X212906D02*
Y118932D01*
X213125Y119409*
X213344Y119568*
X213781Y119727*
X214219*
X214656Y119568*
X214875Y119409*
X215094Y118932*
Y117500*
Y118614D02*
X217500Y119727D01*
X212906Y123227D02*
Y121636D01*
X214875Y121477*
X214656Y121636*
X214437Y122114*
X214437D02*
Y122591D01*
X214437D02*
X214656Y123068D01*
X215094Y123386*
X215750Y123545*
X216187Y123386*
X216187D02*
X216844Y123227D01*
X217281Y122909*
X217500Y122432*
Y121955*
X217281Y121477*
X217062Y121318*
X217062D02*
X216625Y121159D01*
X213781Y124977D02*
X213562Y125295D01*
X213562D02*
X212906Y125773D01*
X217500*
X306500Y152594D02*
Y149313D01*
X306500D02*
X306659Y148656D01*
X306977Y148219*
X307455Y148000*
X307773*
X308250Y148219*
X308568Y148656*
X308727Y149313*
X308727D02*
Y152594D01*
X310955D02*
X310477Y152375D01*
X310318Y151938*
X310318D02*
Y151500D01*
X310477Y151063*
X310477D02*
X310795Y150844D01*
X311432Y150625*
X311909Y150406*
X312227Y149969*
X312386Y149531*
Y148875*
X312227Y148438*
X312227D02*
X312068Y148219D01*
X311591Y148000*
X310955*
X310477Y148219*
X310318Y148438*
X310318D02*
X310159Y148875D01*
Y149531*
X310318Y149969*
X310636Y150406*
X311114Y150625*
X311750Y150844*
X312068Y151063*
X312068D02*
X312227Y151500D01*
Y151938*
X312227D02*
X312068Y152375D01*
X311591Y152594*
X310955*
X327886Y132000D02*
X327727Y132438D01*
X327409Y132875*
X327091Y133094*
X326455*
X326136Y132875*
X325818Y132438*
X325659Y132000*
X325500Y131344*
Y130250*
X325659Y129594*
X325818Y129156*
X326136Y128719*
X326455Y128500*
X327091*
X327409Y128719*
X327727Y129156*
X327886Y129594*
X330114Y133094D02*
X329636Y132875D01*
X329477Y132438*
Y132000*
X329636Y131563*
X329955Y131344*
X330591Y131125*
X331068Y130906*
X331386Y130469*
X331545Y130031*
Y129375*
X331386Y128938*
X331227Y128719*
X330750Y128500*
X330114*
X329636Y128719*
X329477Y128938*
X329318Y129375*
Y130031*
X329477Y130469*
X329795Y130906*
X330273Y131125*
X330909Y131344*
X331227Y131563*
X331386Y132000*
Y132438*
X331227Y132875*
X330750Y133094*
X330114*
X333295D02*
X335045D01*
X334091Y131344*
X334568*
X334886Y131125*
X335045Y130906*
X335205Y130250*
Y129813*
X335045Y129156*
X334727Y128719*
X334250Y128500*
X333773*
X333295Y128719*
X333136Y128938*
X332977Y129375*
X226000Y253922D02*
Y250406D01*
X226170Y249703*
X226511Y249234*
X227023Y249000*
X227364*
X227875Y249234*
X228216Y249703*
X228386Y250406*
Y253922*
X232136D02*
X230432D01*
X230261Y251813*
X230261D02*
X230432Y252047D01*
X230943Y252281*
X231455*
X231966Y252047*
X232307Y251578*
X232477Y250875*
X232307Y250406*
X232136Y249703*
X231795Y249234*
X231284Y249000*
X230773*
X230261Y249234*
X230091Y249469*
X229920Y249938*
X245308Y270720D02*
X248590D01*
X249246Y270879*
X249683Y271197*
X249902Y271675*
Y271993*
X249683Y272470*
X249246Y272788*
X248590Y272947*
X245308*
Y276447D02*
Y274856D01*
X247277Y274697*
X247058Y274856*
X246840Y275334*
Y275811*
X247058Y276288*
X247496Y276606*
X248152Y276765*
X248590Y276606*
X249246Y276447*
X249683Y276129*
X249902Y275652*
Y275175*
X249683Y274697*
X249465Y274538*
X249027Y274379*
X245308Y279152D02*
X245527Y278675D01*
X246183Y278356*
X247277Y278197*
X247933*
X249027Y278356*
X249683Y278675*
X249902Y279152*
Y279470*
X249683Y279947*
X249027Y280265*
X247933Y280425*
X247277*
X246183Y280265*
X245527Y279947*
X245308Y279470*
Y279152*
X254406Y271000D02*
X259000D01*
X254406D02*
Y273068D01*
X256594Y271000D02*
Y272273D01*
X254406Y274500D02*
X259000D01*
Y276409*
X254406Y279909D02*
Y278318D01*
X256375Y278159*
X256156Y278318*
X255937Y278795*
X255937D02*
Y279273D01*
X255937D02*
X256156Y279750D01*
X256594Y280068*
X257250Y280227*
X257687Y280068*
X257687D02*
X258344Y279909D01*
X258781Y279591*
X259000Y279114*
Y278636*
X258781Y278159*
X258562Y278000*
X258562D02*
X258125Y277841D01*
X254406Y282614D02*
X254625Y282136D01*
X255281Y281818*
X256375Y281659*
X257031*
X258125Y281818*
X258781Y282136*
X259000Y282614*
Y282932*
X258781Y283409*
X258125Y283727*
X257031Y283886*
X256375*
X255281Y283727*
X254625Y283409*
X254406Y282932*
Y282614*
X220000Y247886D02*
X219562Y247727D01*
X219562D02*
X219125Y247409D01*
X218906Y247091*
Y246455*
X219125Y246136*
X219562Y245818*
X219562D02*
X220000Y245659D01*
X220656Y245500*
X221750*
X222406Y245659*
X222844Y245818*
X223281Y246136*
X223500Y246455*
Y247091*
X223281Y247409*
X222844Y247727*
X222406Y247886*
X218906Y251386D02*
Y249795D01*
X220875Y249636*
X220656Y249795*
X220437Y250273*
X220437D02*
Y250750D01*
X220437D02*
X220656Y251227D01*
X221094Y251545*
X221750Y251705*
X222187Y251545*
X222187D02*
X222844Y251386D01*
X223281Y251068*
X223500Y250591*
Y250114*
X223281Y249636*
X223062Y249477*
X223062D02*
X222625Y249318D01*
X219562Y255045D02*
X219125Y254886D01*
X218906Y254409*
Y254091*
X219125Y253614*
X219781Y253295*
X220875Y253136*
X221969*
X222844Y253295*
X223281Y253614*
X223500Y254091*
Y254250*
X223281Y254727*
X222844Y255045*
X222187Y255205*
X222187D02*
X221969D01*
X221312Y255045*
X221312D02*
X220875Y254727D01*
X220656Y254250*
Y254091*
X220875Y253614*
X221312Y253295*
X221312D02*
X221969Y253136D01*
X237500Y274886D02*
X237062Y274727D01*
X236625Y274409*
X236406Y274091*
Y273455*
X236625Y273136*
X237062Y272818*
X237500Y272659*
X238156Y272500*
X239250*
X239906Y272659*
X240344Y272818*
X240781Y273136*
X241000Y273455*
Y274091*
X240781Y274409*
X240344Y274727*
X239906Y274886*
X236406Y278386D02*
Y276795D01*
X238375Y276636*
X238156Y276795*
X237937Y277273*
Y277750*
X238156Y278227*
X238594Y278545*
X239250Y278705*
X239687Y278545*
X240344Y278386*
X240781Y278068*
X241000Y277591*
Y277114*
X240781Y276636*
X240562Y276477*
X240125Y276318*
X236406Y281727D02*
X239469Y280136D01*
Y282523*
X236406Y281727D02*
X241000D01*
X272386Y138500D02*
X272227Y138937D01*
X272227D02*
X271909Y139375D01*
X271591Y139594*
X270955*
X270636Y139375*
X270318Y138937*
X270318D02*
X270159Y138500D01*
X270000Y137844*
Y136750*
X270159Y136094*
X270318Y135656*
X270636Y135219*
X270955Y135000*
X271591*
X271909Y135219*
X272227Y135656*
X272386Y136094*
X274614Y139594D02*
X274136Y139375D01*
X273977Y138937*
X273977D02*
Y138500D01*
X274136Y138062*
X274136D02*
X274455Y137844D01*
X275091Y137625*
X275568Y137406*
X275886Y136969*
X276045Y136531*
Y135875*
X275886Y135437*
X275886D02*
X275727Y135219D01*
X275250Y135000*
X274614*
X274136Y135219*
X273977Y135437*
X273977D02*
X273818Y135875D01*
Y136531*
X273977Y136969*
X274295Y137406*
X274773Y137625*
X275409Y137844*
X275727Y138062*
X275727D02*
X275886Y138500D01*
Y138937*
X275886D02*
X275727Y139375D01*
X275250Y139594*
X274614*
X277636Y138500D02*
Y138719D01*
X277795Y139156*
X277955Y139375*
X278273Y139594*
X278909*
X279227Y139375*
X279386Y139156*
X279545Y138719*
Y138281*
X279386Y137844*
X279068Y137187*
X279068D02*
X277477Y135000D01*
X279705*
X288500Y106494D02*
X289773Y104306D01*
Y101900*
X291045Y106494D02*
X289773Y104306D01*
X293273Y106494D02*
X292795Y106275D01*
X292636Y105838*
X292636D02*
Y105400D01*
X292795Y104963*
X292795D02*
X293114Y104744D01*
X293750Y104525*
X294227Y104306*
X294545Y103869*
X294705Y103431*
Y102775*
X294545Y102338*
X294545D02*
X294386Y102119D01*
X293909Y101900*
X293273*
X292795Y102119*
X292636Y102338*
X292636D02*
X292477Y102775D01*
Y103431*
X292636Y103869*
X292955Y104306*
X293432Y104525*
X294068Y104744*
X294386Y104963*
X294386D02*
X294545Y105400D01*
Y105838*
X294545D02*
X294386Y106275D01*
X293909Y106494*
X293273*
X297091D02*
X296614Y106275D01*
X296295Y105619*
X296136Y104525*
Y103869*
X296295Y102775*
X296614Y102119*
X297091Y101900*
X297409*
X297886Y102119*
X298205Y102775*
X298364Y103869*
Y104525*
X298205Y105619*
X297886Y106275*
X297409Y106494*
X297091*
X245886Y109000D02*
X245727Y109438D01*
X245409Y109875*
X245091Y110094*
X244455*
X244136Y109875*
X243818Y109438*
X243659Y109000*
X243500Y108344*
Y107250*
X243659Y106594*
X243818Y106156*
X244136Y105719*
X244455Y105500*
X245091*
X245409Y105719*
X245727Y106156*
X245886Y106594*
Y107250*
X245091D02*
X245886D01*
X247318Y110094D02*
Y105500D01*
Y110094D02*
X248750D01*
X249227Y109875*
X249386Y109656*
X249545Y109219*
Y108781*
X249386Y108344*
X249227Y108125*
X248750Y107906*
X247318*
X248432D02*
X249545Y105500D01*
X250977Y110094D02*
Y105500D01*
Y110094D02*
X253205Y105500D01*
Y110094D02*
Y105500D01*
X254636Y104625D02*
X257977D01*
X258932Y110094D02*
Y105500D01*
X260841*
X262273Y110094D02*
Y105500D01*
Y110094D02*
X264341D01*
X262273Y107906D02*
X263545D01*
X262273Y105500D02*
X264341D01*
X265773Y110094D02*
Y105500D01*
Y110094D02*
X266886D01*
X267364Y109875*
X267682Y109438*
X267841Y109000*
X268000Y108344*
Y107250*
X267841Y106594*
X267682Y106156*
X267364Y105719*
X266886Y105500*
X265773*
X204886Y219500D02*
X204727Y219937D01*
X204727D02*
X204409Y220375D01*
X204091Y220594*
X203455*
X203136Y220375*
X202818Y219937*
X202818D02*
X202659Y219500D01*
X202500Y218844*
Y217750*
X202659Y217094*
X202818Y216656*
X203136Y216219*
X203455Y216000*
X204091*
X204409Y216219*
X204727Y216656*
X204886Y217094*
X207909Y220594D02*
X206318Y217531D01*
X208705*
X207909Y220594D02*
Y216000D01*
X210136Y219719D02*
X210455Y219937D01*
X210455D02*
X210932Y220594D01*
Y216000*
X204886Y200000D02*
X204727Y200438D01*
X204727D02*
X204409Y200875D01*
X204091Y201094*
X203455*
X203136Y200875*
X202818Y200438*
X202818D02*
X202659Y200000D01*
X202500Y199344*
Y198250*
X202659Y197594*
X202818Y197156*
X203136Y196719*
X203455Y196500*
X204091*
X204409Y196719*
X204727Y197156*
X204886Y197594*
X207909Y201094D02*
X206318Y198031D01*
X208705*
X207909Y201094D02*
Y196500D01*
X211091Y201094D02*
X210614Y200875D01*
X210295Y200219*
X210136Y199125*
Y198469*
X210295Y197375*
X210614Y196719*
X211091Y196500*
X211409*
X211886Y196719*
X212205Y197375*
X212364Y198469*
Y199125*
X212205Y200219*
X211886Y200875*
X211409Y201094*
X211091*
X201000Y284614D02*
X201438Y284773D01*
X201438D02*
X201875Y285091D01*
X202094Y285409*
Y286045*
X201875Y286364*
X201438Y286682*
X201438D02*
X201000Y286841D01*
X200344Y287000*
X199250*
X198594Y286841*
X198156Y286682*
X197719Y286364*
X197500Y286045*
Y285409*
X197719Y285091*
X198156Y284773*
X198594Y284614*
X201219Y283182D02*
X201438Y282864D01*
X201438D02*
X202094Y282386D01*
X197500*
X202094Y280636D02*
Y278886D01*
X200344Y279841*
Y279364*
X200125Y279045*
X199906Y278886*
X199250Y278727*
X198813*
X198813D02*
X198156Y278886D01*
X197719Y279205*
X197500Y279682*
Y280159*
X197719Y280636*
X197938Y280795*
X197938D02*
X198375Y280955D01*
X209700Y310986D02*
X209262Y310827D01*
X209262D02*
X208825Y310509D01*
X208606Y310191*
Y309555*
X208825Y309236*
X209262Y308918*
X209262D02*
X209700Y308759D01*
X210356Y308600*
X211450*
X212106Y308759*
X212544Y308918*
X212981Y309236*
X213200Y309555*
Y310191*
X212981Y310509*
X212544Y310827*
X212106Y310986*
X209481Y312418D02*
X209262Y312736D01*
X209262D02*
X208606Y313214D01*
X213200*
X208606Y316236D02*
X211669Y314645D01*
Y317032*
X208606Y316236D02*
X213200D01*
X401700Y151686D02*
X401262Y151527D01*
X401262D02*
X400825Y151209D01*
X400606Y150891*
Y150255*
X400825Y149936*
X401262Y149618*
X401262D02*
X401700Y149459D01*
X402356Y149300*
X403450*
X404106Y149459*
X404544Y149618*
X404981Y149936*
X405200Y150255*
Y150891*
X404981Y151209*
X404544Y151527*
X404106Y151686*
X401700Y153277D02*
X401481D01*
X401044Y153436*
X400825Y153595*
X400606Y153914*
Y154550*
X400825Y154868*
X401044Y155027*
X401481Y155186*
X401919*
X402356Y155027*
X403012Y154709*
X403012D02*
X405200Y153118D01*
Y155345*
X400606Y157732D02*
X400825Y157255D01*
X401481Y156936*
X402575Y156777*
X403231*
X404325Y156936*
X404981Y157255*
X405200Y157732*
Y158050*
X404981Y158527*
X404325Y158845*
X403231Y159005*
X402575*
X401481Y158845*
X400825Y158527*
X400606Y158050*
Y157732*
X418386Y205500D02*
X418227Y205938D01*
X418227D02*
X417909Y206375D01*
X417591Y206594*
X416955*
X416636Y206375*
X416318Y205938*
X416318D02*
X416159Y205500D01*
X416000Y204844*
Y203750*
X416159Y203094*
X416318Y202656*
X416636Y202219*
X416955Y202000*
X417591*
X417909Y202219*
X418227Y202656*
X418386Y203094*
X419977Y205500D02*
Y205719D01*
X420136Y206156*
X420295Y206375*
X420614Y206594*
X421250*
X421568Y206375*
X421727Y206156*
X421886Y205719*
Y205281*
X421727Y204844*
X421409Y204188*
X421409D02*
X419818Y202000D01*
X422045*
X423636Y205500D02*
Y205719D01*
X423795Y206156*
X423955Y206375*
X424273Y206594*
X424909*
X425227Y206375*
X425386Y206156*
X425545Y205719*
Y205281*
X425386Y204844*
X425068Y204188*
X425068D02*
X423477Y202000D01*
X425705*
X430500Y114886D02*
X430062Y114727D01*
X430062D02*
X429625Y114409D01*
X429406Y114091*
Y113455*
X429625Y113136*
X430062Y112818*
X430062D02*
X430500Y112659D01*
X431156Y112500*
X432250*
X432906Y112659*
X433344Y112818*
X433781Y113136*
X434000Y113455*
Y114091*
X433781Y114409*
X433344Y114727*
X432906Y114886*
X430500Y116477D02*
X430281D01*
X429844Y116636*
X429625Y116795*
X429406Y117114*
Y117750*
X429625Y118068*
X429844Y118227*
X430281Y118386*
X430719*
X431156Y118227*
X431812Y117909*
X431812D02*
X434000Y116318D01*
Y118545*
X429406Y120295D02*
Y122045D01*
X431156Y121091*
Y121568*
X431375Y121886*
X431594Y122045*
X432250Y122205*
X432687*
X432687D02*
X433344Y122045D01*
X433781Y121727*
X434000Y121250*
Y120773*
X433781Y120295*
X433562Y120136*
X433562D02*
X433125Y119977D01*
X398386Y191000D02*
X398227Y191438D01*
X398227D02*
X397909Y191875D01*
X397591Y192094*
X396955*
X396636Y191875*
X396318Y191438*
X396318D02*
X396159Y191000D01*
X396000Y190344*
Y189250*
X396159Y188594*
X396318Y188156*
X396636Y187719*
X396955Y187500*
X397591*
X397909Y187719*
X398227Y188156*
X398386Y188594*
X399977Y191000D02*
Y191219D01*
X400136Y191656*
X400295Y191875*
X400614Y192094*
X401250*
X401568Y191875*
X401727Y191656*
X401886Y191219*
Y190781*
X401727Y190344*
X401409Y189688*
X401409D02*
X399818Y187500D01*
X402045*
X405386Y191438D02*
X405227Y191875D01*
X404750Y192094*
X404432*
X403955Y191875*
X403636Y191219*
X403477Y190125*
Y189031*
X403636Y188156*
X403955Y187719*
X404432Y187500*
X404591*
X405068Y187719*
X405386Y188156*
X405545Y188813*
X405545D02*
Y189031D01*
X405386Y189688*
X405386D02*
X405068Y190125D01*
X404591Y190344*
X404432*
X403955Y190125*
X403636Y189688*
X403636D02*
X403477Y189031D01*
X129500Y259886D02*
X129063Y259727D01*
X129063D02*
X128625Y259409D01*
X128406Y259091*
Y258455*
X128625Y258136*
X129063Y257818*
X129063D02*
X129500Y257659D01*
X130156Y257500*
X131250*
X131906Y257659*
X132344Y257818*
X132781Y258136*
X133000Y258455*
Y259091*
X132781Y259409*
X132344Y259727*
X131906Y259886*
X128406Y261636D02*
Y263386D01*
X130156Y262432*
Y262909*
X130375Y263227*
X130594Y263386*
X131250Y263545*
X131688*
X131688D02*
X132344Y263386D01*
X132781Y263068*
X133000Y262591*
Y262114*
X132781Y261636*
X132563Y261477*
X132563D02*
X132125Y261318D01*
X128406Y265932D02*
X128625Y265455D01*
X129281Y265136*
X130375Y264977*
X131031*
X132125Y265136*
X132781Y265455*
X133000Y265932*
Y266250*
X132781Y266727*
X132125Y267045*
X131031Y267205*
X130375*
X129281Y267045*
X128625Y266727*
X128406Y266250*
Y265932*
X107313Y317445D02*
X103913D01*
X103275Y317616*
X103063Y317786*
X102850Y318127*
Y318468*
X103063Y318809*
X103275Y318980*
X103913Y319150*
X104338*
X106463Y315911D02*
X106675Y315570D01*
X107313Y315059*
X102850*
X107813Y305445D02*
X104413D01*
X104413D02*
X103775Y305616D01*
X103563Y305786*
X103563D02*
X103350Y306127D01*
Y306468*
X103563Y306809*
X103563D02*
X103775Y306980D01*
X104413Y307150*
X104413D02*
X104838D01*
X106750Y303741D02*
X106963D01*
X106963D02*
X107388Y303570D01*
X107388D02*
X107600Y303400D01*
X107813Y303059*
X107813D02*
Y302377D01*
X107813D02*
X107600Y302036D01*
X107388Y301866*
X107388D02*
X106963Y301695D01*
X106963D02*
X106538D01*
X106538D02*
X106113Y301866D01*
X106113D02*
X105475Y302207D01*
X103350Y303911*
Y301525*
X105205Y180422D02*
Y176672D01*
X105034Y175969*
X104864Y175734*
X104523Y175500*
X104182*
X103841Y175734*
X103670Y175969*
X103500Y176672*
Y177141*
X107080Y180422D02*
X108955D01*
X107932Y178547*
X108443*
X108784Y178313*
X108784D02*
X108955Y178078D01*
X109125Y177375*
Y176906*
X108955Y176203*
X108614Y175734*
X108102Y175500*
X107591*
X107080Y175734*
X106909Y175969*
X106739Y176438*
X492187Y258805D02*
X495587D01*
X495587D02*
X496225Y258634D01*
X496437Y258464*
X496437D02*
X496650Y258123D01*
Y257782*
X496437Y257441*
X496437D02*
X496225Y257270D01*
X495587Y257100*
X495587D02*
X495162D01*
X492187Y262043D02*
X495162Y260339D01*
X495162D02*
Y262895D01*
X492187Y262043D02*
X496650D01*
X491687Y316055D02*
X495087D01*
X495087D02*
X495725Y315884D01*
X495937Y315714*
X495937D02*
X496150Y315373D01*
Y315032*
X495937Y314691*
X495937D02*
X495725Y314520D01*
X495087Y314350*
X495087D02*
X494662D01*
X492325Y319634D02*
X491900Y319464D01*
X491687Y318952*
X491687D02*
Y318611D01*
X491687D02*
X491900Y318100D01*
X492537Y317759*
X492537D02*
X493600Y317589D01*
X494662*
X494662D02*
X495512Y317759D01*
X495512D02*
X495937Y318100D01*
X495937D02*
X496150Y318611D01*
Y318782*
X495937Y319293*
X495937D02*
X495512Y319634D01*
X495512D02*
X494875Y319805D01*
X494662*
X494662D02*
X494025Y319634D01*
X493600Y319293*
X493387Y318782*
X493387D02*
Y318611D01*
X493387D02*
X493600Y318100D01*
X494025Y317759*
X494662Y317589*
X149091Y236094D02*
Y232594D01*
X148932Y231938*
X148932D02*
X148773Y231719D01*
X148455Y231500*
X148136*
X147818Y231719*
X147659Y231938*
X147659D02*
X147500Y232594D01*
Y233031*
X150523Y236094D02*
Y231500D01*
Y236094D02*
X151955D01*
X152432Y235875*
X152591Y235656*
X152750Y235219*
Y234781*
X152591Y234344*
X152432Y234125*
X151955Y233906*
X150523D02*
X151955D01*
X152432Y233688*
X152432D02*
X152591Y233469D01*
X152750Y233031*
Y232375*
X152591Y231938*
X152591D02*
X152432Y231719D01*
X151955Y231500*
X150523*
X154500Y236094D02*
X156250D01*
X155295Y234344*
X155773*
X156091Y234125*
X156250Y233906*
X156409Y233250*
Y232813*
X156409D02*
X156250Y232156D01*
X155932Y231719*
X155455Y231500*
X154977*
X154500Y231719*
X154341Y231938*
X154341D02*
X154182Y232375D01*
X158795Y236094D02*
X158318Y235875D01*
X158000Y235219*
X157841Y234125*
Y233469*
X158000Y232375*
X158318Y231719*
X158795Y231500*
X159114*
X159591Y231719*
X159909Y232375*
X160068Y233469*
Y234125*
X159909Y235219*
X159591Y235875*
X159114Y236094*
X158795*
X230500Y293094D02*
Y288500D01*
X232409*
X233841Y292219D02*
X234159Y292438D01*
X234636Y293094*
Y288500*
X236068Y292219D02*
X236386Y292438D01*
X236864Y293094*
Y288500*
X145023Y271922D02*
X144682Y271688D01*
X144682D02*
X144341Y271219D01*
X144170Y270750*
X144000Y270047*
Y268875*
X144170Y268172*
X144341Y267703*
X144682Y267234*
X145023Y267000*
X145705*
X146045Y267234*
X146386Y267703*
X146557Y268172*
X146727Y268875*
Y270047*
X146557Y270750*
X146386Y271219*
X146045Y271688*
X146045D02*
X145705Y271922D01*
X145023*
X145534Y267938D02*
X146557Y266531D01*
X148261Y270984D02*
X148602Y271219D01*
X149114Y271922*
Y267000*
X190400Y314194D02*
Y309600D01*
Y314194D02*
X191832D01*
X192309Y313975*
X192468Y313756*
X192627Y313319*
Y312881*
X192468Y312444*
X192309Y312225*
X191832Y312006*
X190400*
X191514D02*
X192627Y309600D01*
X194059Y313319D02*
X194377Y313538D01*
X194377D02*
X194855Y314194D01*
Y309600*
X196286Y313319D02*
X196605Y313538D01*
X196605D02*
X197082Y314194D01*
Y309600*
X436000Y154594D02*
Y150000D01*
Y154594D02*
X437432D01*
X437909Y154375*
X438068Y154156*
X438227Y153719*
Y153281*
X438068Y152844*
X437909Y152625*
X437432Y152406*
X436000*
X437114D02*
X438227Y150000D01*
X439818Y153500D02*
Y153719D01*
X439977Y154156*
X440136Y154375*
X440455Y154594*
X441091*
X441409Y154375*
X441568Y154156*
X441727Y153719*
Y153281*
X441568Y152844*
X441250Y152188*
X441250D02*
X439659Y150000D01*
X441886*
X444273Y154594D02*
X443795Y154375D01*
X443477Y153719*
X443318Y152625*
Y151969*
X443477Y150875*
X443795Y150219*
X444273Y150000*
X444591*
X445068Y150219*
X445386Y150875*
X445545Y151969*
Y152625*
X445386Y153719*
X445068Y154375*
X444591Y154594*
X444273*
X437906Y113500D02*
X442500D01*
X437906D02*
Y114932D01*
X438125Y115409*
X438344Y115568*
X438781Y115727*
X439219*
X439656Y115568*
X439875Y115409*
X440094Y114932*
Y113500*
Y114614D02*
X442500Y115727D01*
X439000Y117318D02*
X438781D01*
X438344Y117477*
X438125Y117636*
X437906Y117955*
Y118591*
X438125Y118909*
X438344Y119068*
X438781Y119227*
X439219*
X439656Y119068*
X440312Y118750*
X440312D02*
X442500Y117159D01*
Y119386*
X438781Y120818D02*
X438562Y121136D01*
X438562D02*
X437906Y121614D01*
X442500*
X421306Y121500D02*
X425900D01*
X421306D02*
Y122932D01*
X421525Y123409*
X421744Y123568*
X422181Y123727*
X422619*
X423056Y123568*
X423275Y123409*
X423494Y122932*
Y121500*
Y122614D02*
X425900Y123727D01*
X422400Y125318D02*
X422181D01*
X421744Y125477*
X421525Y125636*
X421306Y125955*
Y126591*
X421525Y126909*
X421744Y127068*
X422181Y127227*
X422619*
X423056Y127068*
X423712Y126750*
X423712D02*
X425900Y125159D01*
Y127386*
X422400Y128977D02*
X422181D01*
X421744Y129136*
X421525Y129295*
X421306Y129614*
Y130250*
X421525Y130568*
X421744Y130727*
X422181Y130886*
X422619*
X423056Y130727*
X423712Y130409*
X423712D02*
X425900Y128818D01*
Y131045*
X410206Y149700D02*
X414800D01*
X410206D02*
Y151132D01*
X410425Y151609*
X410644Y151768*
X411081Y151927*
X411519*
X411956Y151768*
X412175Y151609*
X412394Y151132*
Y149700*
Y150814D02*
X414800Y151927D01*
X411300Y153518D02*
X411081D01*
X410644Y153677*
X410425Y153836*
X410206Y154155*
Y154791*
X410425Y155109*
X410644Y155268*
X411081Y155427*
X411519*
X411956Y155268*
X412612Y154950*
X412612D02*
X414800Y153359D01*
Y155586*
X410206Y157336D02*
Y159086D01*
X411956Y158132*
Y158609*
X412175Y158927*
X412394Y159086*
X413050Y159245*
X413487*
X413487D02*
X414144Y159086D01*
X414581Y158768*
X414800Y158291*
Y157814*
X414581Y157336*
X414362Y157177*
X414362D02*
X413925Y157018D01*
X434906Y185500D02*
X439500D01*
X434906D02*
Y186932D01*
X435125Y187409*
X435344Y187568*
X435781Y187727*
X436219*
X436656Y187568*
X436875Y187409*
X437094Y186932*
Y185500*
Y186614D02*
X439500Y187727D01*
X436000Y189318D02*
X435781D01*
X435344Y189477*
X435125Y189636*
X434906Y189955*
Y190591*
X435125Y190909*
X435344Y191068*
X435781Y191227*
X436219*
X436656Y191068*
X437312Y190750*
X437312D02*
X439500Y189159D01*
Y191386*
X434906Y194409D02*
X437969Y192818D01*
Y195205*
X434906Y194409D02*
X439500D01*
X190000Y277594D02*
Y273000D01*
Y277594D02*
X191432D01*
X191909Y277375*
X192068Y277156*
X192227Y276719*
Y276281*
X192068Y275844*
X191909Y275625*
X191432Y275406*
X190000*
X191114D02*
X192227Y273000D01*
X193977Y277594D02*
X195727D01*
X194773Y275844*
X195250*
X195568Y275625*
X195727Y275406*
X195886Y274750*
Y274313*
X195886D02*
X195727Y273656D01*
X195409Y273219*
X194932Y273000*
X194455*
X193977Y273219*
X193818Y273438*
X193818D02*
X193659Y273875D01*
X198273Y277594D02*
X197795Y277375D01*
X197477Y276719*
X197318Y275625*
Y274969*
X197477Y273875*
X197795Y273219*
X198273Y273000*
X198591*
X199068Y273219*
X199386Y273875*
X199545Y274969*
Y275625*
X199386Y276719*
X199068Y277375*
X198591Y277594*
X198273*
X184100Y243494D02*
Y238900D01*
Y243494D02*
X185532D01*
X186009Y243275*
X186168Y243056*
X186327Y242619*
Y242181*
X186168Y241744*
X186009Y241525*
X185532Y241306*
X184100*
X185214D02*
X186327Y238900D01*
X188077Y243494D02*
X189827D01*
X188873Y241744*
X189350*
X189668Y241525*
X189827Y241306*
X189986Y240650*
Y240213*
X189827Y239556*
X189509Y239119*
X189032Y238900*
X188555*
X188077Y239119*
X187918Y239338*
X187759Y239775*
X191577Y242400D02*
Y242619D01*
X191736Y243056*
X191895Y243275*
X192214Y243494*
X192850*
X193168Y243275*
X193327Y243056*
X193486Y242619*
Y242181*
X193327Y241744*
X193009Y241088*
X191418Y238900*
X193645*
X128406Y242000D02*
X133000D01*
X128406D02*
Y243432D01*
X128625Y243909*
X128844Y244068*
X129281Y244227*
X129719*
X130156Y244068*
X130375Y243909*
X130594Y243432*
Y242000*
Y243114D02*
X133000Y244227D01*
X128406Y245977D02*
Y247727D01*
X130156Y246773*
Y247250*
X130375Y247568*
X130594Y247727*
X131250Y247886*
X131688*
X131688D02*
X132344Y247727D01*
X132781Y247409*
X133000Y246932*
Y246455*
X132781Y245977*
X132563Y245818*
X132563D02*
X132125Y245659D01*
X128406Y250909D02*
X131469Y249318D01*
Y251705*
X128406Y250909D02*
X133000D01*
X127000Y238094D02*
Y233500D01*
Y238094D02*
X128432D01*
X128909Y237875*
X129068Y237656*
X129227Y237219*
Y236781*
X129068Y236344*
X128909Y236125*
X128432Y235906*
X127000*
X128114D02*
X129227Y233500D01*
X132250Y238094D02*
X130659Y235031D01*
X133045*
X132250Y238094D02*
Y233500D01*
X135432Y238094D02*
X134955Y237875D01*
X134636Y237219*
X134477Y236125*
Y235469*
X134636Y234375*
X134955Y233719*
X135432Y233500*
X135750*
X136227Y233719*
X136545Y234375*
X136705Y235469*
Y236125*
X136545Y237219*
X136227Y237875*
X135750Y238094*
X135432*
X107227Y268437D02*
X106909Y268875D01*
X106432Y269094*
X105795*
X105318Y268875*
X105000Y268437*
X105000D02*
Y268000D01*
X105159Y267562*
X105159D02*
X105318Y267344D01*
X105636Y267125*
X106591Y266687*
X106591D02*
X106909Y266469D01*
X107068Y266250*
X107227Y265812*
X107227D02*
Y265156D01*
X106909Y264719*
X106432Y264500*
X105795*
X105318Y264719*
X105000Y265156*
X108659Y269094D02*
X109455Y264500D01*
X110250Y269094D02*
X109455Y264500D01*
X110250Y269094D02*
X111045Y264500D01*
X111841Y269094D02*
X111045Y264500D01*
X113591Y269094D02*
X115341D01*
X114386Y267344*
X114864*
X115182Y267125*
X115341Y266906*
X115500Y266250*
Y265812*
X115500D02*
X115341Y265156D01*
X115023Y264719*
X114545Y264500*
X114068*
X113591Y264719*
X113432Y264937*
X113432D02*
X113273Y265375D01*
X117886Y269094D02*
X117409Y268875D01*
X117091Y268219*
X116932Y267125*
Y266469*
X117091Y265375*
X117409Y264719*
X117886Y264500*
X118205*
X118682Y264719*
X119000Y265375*
X119159Y266469*
Y267125*
X119000Y268219*
X118682Y268875*
X118205Y269094*
X117886*
X191000Y286594D02*
Y283313D01*
X191000D02*
X191159Y282656D01*
X191477Y282219*
X191955Y282000*
X192273*
X192750Y282219*
X193068Y282656*
X193227Y283313*
X193227D02*
Y286594D01*
X194659Y285719D02*
X194977Y285938D01*
X194977D02*
X195455Y286594D01*
Y282000*
X185850Y248984D02*
Y246031D01*
X186009Y245441*
X186327Y245047*
X186805Y244850*
X187123*
X187600Y245047*
X187918Y245441*
X188077Y246031*
Y248984*
X189827D02*
X191577D01*
X190623Y247409*
X191100*
X191418Y247213*
X191418D02*
X191577Y247016D01*
X191736Y246425*
Y246031*
X191577Y245441*
X191259Y245047*
X190782Y244850*
X190305*
X189827Y245047*
X189668Y245244*
X189509Y245638*
X149906Y245500D02*
X153187D01*
X153187D02*
X153844Y245659D01*
X154281Y245977*
X154500Y246455*
Y246773*
X154281Y247250*
X153844Y247568*
X153187Y247727*
X153187D02*
X149906D01*
Y249477D02*
Y251227D01*
X151656Y250273*
Y250750*
X151875Y251068*
X152094Y251227*
X152750Y251386*
X153187*
X153187D02*
X153844Y251227D01*
X154281Y250909*
X154500Y250432*
Y249955*
X154281Y249477*
X154062Y249318*
X154062D02*
X153625Y249159D01*
X149906Y253773D02*
X150125Y253295D01*
X150781Y252977*
X151875Y252818*
X152531*
X153625Y252977*
X154281Y253295*
X154500Y253773*
Y254091*
X154281Y254568*
X153625Y254886*
X152531Y255045*
X151875*
X150781Y254886*
X150125Y254568*
X149906Y254091*
Y253773*
X217000Y134594D02*
Y130000D01*
Y134594D02*
X218432D01*
X218909Y134375*
X219068Y134156*
X219227Y133719*
Y133281*
X219068Y132844*
X218909Y132625*
X218432Y132406*
X217000*
X218114D02*
X219227Y130000D01*
X220659Y134594D02*
Y130000D01*
Y134594D02*
X222886Y130000D01*
Y134594D02*
Y130000D01*
X226227Y133938D02*
X226068Y134375D01*
X225591Y134594*
X225273*
X224795Y134375*
X224477Y133719*
X224318Y132625*
Y131531*
X224477Y130656*
X224795Y130219*
X225273Y130000*
X225432*
X225909Y130219*
X226227Y130656*
X226386Y131313*
X226386D02*
Y131531D01*
X226227Y132188*
X226227D02*
X225909Y132625D01*
X225432Y132844*
X225273*
X224795Y132625*
X224477Y132188*
X224477D02*
X224318Y131531D01*
X227818Y133719D02*
X228136Y133938D01*
X228136D02*
X228614Y134594D01*
Y130000*
X369386Y126000D02*
X369227Y126438D01*
X369227D02*
X368909Y126875D01*
X368591Y127094*
X367955*
X367636Y126875*
X367318Y126438*
X367318D02*
X367159Y126000D01*
X367000Y125344*
Y124250*
X367159Y123594*
X367318Y123156*
X367636Y122719*
X367955Y122500*
X368591*
X368909Y122719*
X369227Y123156*
X369386Y123594*
X370977Y126000D02*
Y126219D01*
X371136Y126656*
X371295Y126875*
X371614Y127094*
X372250*
X372568Y126875*
X372727Y126656*
X372886Y126219*
Y125781*
X372727Y125344*
X372409Y124688*
X372409D02*
X370818Y122500D01*
X373045*
X376705Y127094D02*
X375114Y122500D01*
X374477Y127094D02*
X376705D01*
X351886Y126500D02*
X351727Y126938D01*
X351727D02*
X351409Y127375D01*
X351091Y127594*
X350455*
X350136Y127375*
X349818Y126938*
X349818D02*
X349659Y126500D01*
X349500Y125844*
Y124750*
X349659Y124094*
X349818Y123656*
X350136Y123219*
X350455Y123000*
X351091*
X351409Y123219*
X351727Y123656*
X351886Y124094*
X353477Y126500D02*
Y126719D01*
X353636Y127156*
X353795Y127375*
X354114Y127594*
X354750*
X355068Y127375*
X355227Y127156*
X355386Y126719*
Y126281*
X355227Y125844*
X354909Y125188*
X354909D02*
X353318Y123000D01*
X355545*
X357773Y127594D02*
X357295Y127375D01*
X357136Y126938*
X357136D02*
Y126500D01*
X357295Y126063*
X357295D02*
X357614Y125844D01*
X358250Y125625*
X358727Y125406*
X359045Y124969*
X359205Y124531*
Y123875*
X359045Y123438*
X359045D02*
X358886Y123219D01*
X358409Y123000*
X357773*
X357295Y123219*
X357136Y123438*
X357136D02*
X356977Y123875D01*
Y124531*
X357136Y124969*
X357455Y125406*
X357932Y125625*
X358568Y125844*
X358886Y126063*
X358886D02*
X359045Y126500D01*
Y126938*
X359045D02*
X358886Y127375D01*
X358409Y127594*
X357773*
X491687Y134555D02*
X495087D01*
X495087D02*
X495725Y134384D01*
X495937Y134214*
X495937D02*
X496150Y133873D01*
Y133532*
X495937Y133191*
X495937D02*
X495725Y133020D01*
X495087Y132850*
X495087D02*
X494662D01*
X491687Y138475D02*
X496150Y136770D01*
X491687Y136089D02*
Y138475D01*
X252206Y120591D02*
X255706D01*
X256362Y120432*
X256362D02*
X256581Y120273D01*
X256800Y119955*
Y119636*
X256581Y119318*
X256362Y119159*
X256362D02*
X255706Y119000D01*
X255269*
X252206Y122023D02*
X256800D01*
X252206D02*
Y123455D01*
X252425Y123932*
X252644Y124091*
X253081Y124250*
X253519*
X253956Y124091*
X254175Y123932*
X254394Y123455*
Y122023D02*
Y123455D01*
X254612Y123932*
X254612D02*
X254831Y124091D01*
X255269Y124250*
X255925*
X256362Y124091*
X256362D02*
X256581Y123932D01*
X256800Y123455*
Y122023*
X252862Y127591D02*
X252425Y127432D01*
X252206Y126955*
Y126636*
X252425Y126159*
X253081Y125841*
X254175Y125682*
X255269*
X256144Y125841*
X256581Y126159*
X256800Y126636*
Y126795*
X256581Y127273*
X256144Y127591*
X255487Y127750*
X255487D02*
X255269D01*
X254612Y127591*
X254612D02*
X254175Y127273D01*
X253956Y126795*
Y126636*
X254175Y126159*
X254612Y125841*
X254612D02*
X255269Y125682D01*
X221886Y386500D02*
X221727Y386938D01*
X221727D02*
X221409Y387375D01*
X221091Y387594*
X220455*
X220136Y387375*
X219818Y386938*
X219818D02*
X219659Y386500D01*
X219500Y385844*
Y384750*
X219659Y384094*
X219818Y383656*
X220136Y383219*
X220455Y383000*
X221091*
X221409Y383219*
X221727Y383656*
X221886Y384094*
X225386Y386063D02*
X225227Y385406D01*
X224909Y384969*
X224432Y384750*
X224273*
X223795Y384969*
X223477Y385406*
X223318Y386063*
X223318D02*
Y386281D01*
X223477Y386938*
X223477D02*
X223795Y387375D01*
X224273Y387594*
X224432*
X224909Y387375*
X225227Y386938*
X225227D02*
X225386Y386063D01*
X225386D02*
Y384969D01*
X225227Y383875*
X224909Y383219*
X224432Y383000*
X224114*
X223636Y383219*
X223477Y383656*
X228409Y387594D02*
X226818Y384531D01*
X229205*
X228409Y387594D02*
Y383000D01*
X218406Y371500D02*
X223000D01*
X218406D02*
Y372932D01*
X218625Y373409*
X218844Y373568*
X219281Y373727*
X219719*
X220156Y373568*
X220375Y373409*
X220594Y372932*
Y371500*
Y372614D02*
X223000Y373727D01*
X219937Y377227D02*
X220594Y377068D01*
X221031Y376750*
X221250Y376273*
Y376114*
X221031Y375636*
X220594Y375318*
X219937Y375159*
X219937D02*
X219719D01*
X219062Y375318*
X219062D02*
X218625Y375636D01*
X218406Y376114*
Y376273*
X218625Y376750*
X219062Y377068*
X219062D02*
X219937Y377227D01*
X219937D02*
X221031D01*
X222125Y377068*
X222781Y376750*
X223000Y376273*
Y375955*
X222781Y375477*
X222344Y375318*
X218406Y378977D02*
Y380727D01*
X220156Y379773*
Y380250*
X220375Y380568*
X220594Y380727*
X221250Y380886*
X221687*
X221687D02*
X222344Y380727D01*
X222781Y380409*
X223000Y379932*
Y379455*
X222781Y378977*
X222562Y378818*
X222562D02*
X222125Y378659D01*
X225406Y371500D02*
X230000D01*
X225406D02*
Y372932D01*
X225625Y373409*
X225844Y373568*
X226281Y373727*
X226719*
X227156Y373568*
X227375Y373409*
X227594Y372932*
Y371500*
Y372614D02*
X230000Y373727D01*
X226937Y377227D02*
X227594Y377068D01*
X228031Y376750*
X228250Y376273*
Y376114*
X228031Y375636*
X227594Y375318*
X226937Y375159*
X226937D02*
X226719D01*
X226062Y375318*
X226062D02*
X225625Y375636D01*
X225406Y376114*
Y376273*
X225625Y376750*
X226062Y377068*
X226062D02*
X226937Y377227D01*
X226937D02*
X228031D01*
X229125Y377068*
X229781Y376750*
X230000Y376273*
Y375955*
X229781Y375477*
X229344Y375318*
X226500Y378818D02*
X226281D01*
X225844Y378977*
X225625Y379136*
X225406Y379455*
Y380091*
X225625Y380409*
X225844Y380568*
X226281Y380727*
X226719*
X227156Y380568*
X227812Y380250*
X227812D02*
X230000Y378659D01*
Y380886*
X430500Y251494D02*
Y246900D01*
Y251494D02*
X431932D01*
X432409Y251275*
X432568Y251056*
X432727Y250619*
Y249963*
X432727D02*
X432568Y249525D01*
X432409Y249306*
X431932Y249088*
X431932D02*
X430500D01*
X434159Y251494D02*
Y246900D01*
Y251494D02*
X436227D01*
X434159Y249306D02*
X435432D01*
X438455Y251494D02*
X437977Y251275D01*
X437818Y250838*
X437818D02*
Y250400D01*
X437977Y249963*
X437977D02*
X438295Y249744D01*
X438932Y249525*
X439409Y249306*
X439727Y248869*
X439886Y248431*
Y247775*
X439727Y247338*
X439727D02*
X439568Y247119D01*
X439091Y246900*
X438455*
X437977Y247119*
X437818Y247338*
X437818D02*
X437659Y247775D01*
Y248431*
X437818Y248869*
X438136Y249306*
X438614Y249525*
X439250Y249744*
X439568Y249963*
X439568D02*
X439727Y250400D01*
Y250838*
X439727D02*
X439568Y251275D01*
X439091Y251494*
X438455*
X441318Y250619D02*
X441636Y250838D01*
X441636D02*
X442114Y251494D01*
Y246900*
X432700Y269394D02*
Y264800D01*
Y269394D02*
X434132D01*
X434609Y269175*
X434768Y268956*
X434927Y268519*
Y267863*
X434927D02*
X434768Y267425D01*
X434609Y267206*
X434132Y266988*
X434132D02*
X432700D01*
X436359Y269394D02*
Y264800D01*
Y269394D02*
X438427D01*
X436359Y267206D02*
X437632D01*
X440655Y269394D02*
X440177Y269175D01*
X440018Y268738*
X440018D02*
Y268300D01*
X440177Y267863*
X440177D02*
X440495Y267644D01*
X441132Y267425*
X441609Y267206*
X441927Y266769*
X442086Y266331*
Y265675*
X441927Y265238*
X441927D02*
X441768Y265019D01*
X441291Y264800*
X440655*
X440177Y265019*
X440018Y265238*
X440018D02*
X439859Y265675D01*
Y266331*
X440018Y266769*
X440336Y267206*
X440814Y267425*
X441450Y267644*
X441768Y267863*
X441768D02*
X441927Y268300D01*
Y268738*
X441927D02*
X441768Y269175D01*
X441291Y269394*
X440655*
X443677Y268300D02*
Y268519D01*
X443836Y268956*
X443995Y269175*
X444314Y269394*
X444950*
X445268Y269175*
X445427Y268956*
X445586Y268519*
Y268081*
X445427Y267644*
X445109Y266988*
X445109D02*
X443518Y264800D01*
X445745*
X412000Y238094D02*
Y234813D01*
X412000D02*
X412159Y234156D01*
X412477Y233719*
X412955Y233500*
X413273*
X413750Y233719*
X414068Y234156*
X414227Y234813*
X414227D02*
Y238094D01*
X416455D02*
X415977Y237875D01*
X415818Y237438*
X415818D02*
Y237000D01*
X415977Y236563*
X415977D02*
X416295Y236344D01*
X416932Y236125*
X417409Y235906*
X417727Y235469*
X417886Y235031*
Y234375*
X417727Y233938*
X417727D02*
X417568Y233719D01*
X417091Y233500*
X416455*
X415977Y233719*
X415818Y233938*
X415818D02*
X415659Y234375D01*
Y235031*
X415818Y235469*
X416136Y235906*
X416614Y236125*
X417250Y236344*
X417568Y236563*
X417568D02*
X417727Y237000D01*
Y237438*
X417727D02*
X417568Y237875D01*
X417091Y238094*
X416455*
X419318Y237219D02*
X419636Y237438D01*
X419636D02*
X420114Y238094D01*
Y233500*
X409500Y290694D02*
Y287413D01*
X409500D02*
X409659Y286756D01*
X409977Y286319*
X410455Y286100*
X410773*
X411250Y286319*
X411568Y286756*
X411727Y287413*
X411727D02*
Y290694D01*
X413955D02*
X413477Y290475D01*
X413318Y290038*
X413318D02*
Y289600D01*
X413477Y289163*
X413477D02*
X413795Y288944D01*
X414432Y288725*
X414909Y288506*
X415227Y288069*
X415386Y287631*
Y286975*
X415227Y286538*
X415227D02*
X415068Y286319D01*
X414591Y286100*
X413955*
X413477Y286319*
X413318Y286538*
X413318D02*
X413159Y286975D01*
Y287631*
X413318Y288069*
X413636Y288506*
X414114Y288725*
X414750Y288944*
X415068Y289163*
X415068D02*
X415227Y289600D01*
Y290038*
X415227D02*
X415068Y290475D01*
X414591Y290694*
X413955*
X416977Y289600D02*
Y289819D01*
X417136Y290256*
X417295Y290475*
X417614Y290694*
X418250*
X418568Y290475*
X418727Y290256*
X418886Y289819*
Y289381*
X418727Y288944*
X418409Y288288*
X418409D02*
X416818Y286100D01*
X419045*
X290986Y382200D02*
X290827Y382638D01*
X290827D02*
X290509Y383075D01*
X290191Y383294*
X289555*
X289236Y383075*
X288918Y382638*
X288918D02*
X288759Y382200D01*
X288600Y381544*
Y380450*
X288759Y379794*
X288918Y379356*
X289236Y378919*
X289555Y378700*
X290191*
X290509Y378919*
X290827Y379356*
X290986Y379794*
X294486Y381763D02*
X294327Y381106D01*
X294009Y380669*
X293532Y380450*
X293373*
X292895Y380669*
X292577Y381106*
X292418Y381763*
X292418D02*
Y381981D01*
X292577Y382638*
X292577D02*
X292895Y383075D01*
X293373Y383294*
X293532*
X294009Y383075*
X294327Y382638*
X294327D02*
X294486Y381763D01*
X294486D02*
Y380669D01*
X294327Y379575*
X294009Y378919*
X293532Y378700*
X293214*
X292736Y378919*
X292577Y379356*
X297986Y383294D02*
X296395D01*
X296236Y381325*
X296395Y381544*
X296873Y381763*
X296873D02*
X297350D01*
X297350D02*
X297827Y381544D01*
X298145Y381106*
X298305Y380450*
X298145Y380013*
X298145D02*
X297986Y379356D01*
X297668Y378919*
X297191Y378700*
X296714*
X296236Y378919*
X296077Y379138*
X296077D02*
X295918Y379575D01*
X450800Y135850D02*
Y130600D01*
Y135850D02*
X452436D01*
X452982Y135600*
X453164Y135350*
X453345Y134850*
Y134350*
X453164Y133850*
X452982Y133600*
X452436Y133350*
X450800*
X452073D02*
X453345Y130600D01*
X454982Y135850D02*
Y130600D01*
X457527Y135850D02*
Y130600D01*
X454982Y133350D02*
X457527D01*
X462436Y136850D02*
X459164Y128850D01*
X465164Y135850D02*
X464800Y135600D01*
X464436Y135100*
X464255Y134600*
X464073Y133850*
Y132600*
X464255Y131850*
X464436Y131350*
X464800Y130850*
X465164Y130600*
X465891*
X466255Y130850*
X466618Y131350*
X466800Y131850*
X466982Y132600*
Y133850*
X466800Y134600*
X466618Y135100*
X466255Y135600*
X465891Y135850*
X465164*
X468800Y134600D02*
Y134850D01*
X468982Y135350*
X469164Y135600*
X469527Y135850*
X470255*
X470618Y135600*
X470800Y135350*
X470982Y134850*
Y134350*
X470800Y133850*
X470436Y133100*
X468618Y130600*
X471164*
G54D87*
G54D135*
X279843Y345224D02*
Y341091D01*
X278612*
Y339909*
X279843*
Y335776*
X260157*
Y345224*
X279843*
X362675Y131154D02*
G03X362675I-750J0D01*
G01X418339Y346382D02*
X425917D01*
Y345459*
X428083*
Y346382*
X435661*
Y331618*
X418339*
Y346382*
X287209Y154291D02*
Y140709D01*
X300791*
Y154291*
X287209*
X283244Y202256D02*
Y246744D01*
X238756*
Y243693*
X239740Y243201*
X238756Y242709*
Y202256*
X283244*
G54D136*
X357594Y128594D02*
X369406D01*
Y140406*
X357594*
Y128594*
X344906Y226974D02*
X345644Y227242D01*
X346382Y227779*
X346751Y228316*
Y229389*
X346382Y229926*
X345644Y230463*
X344906Y230732*
X343798Y231000*
X341953*
X340845Y230732*
X340107Y230463*
X339369Y229926*
X339000Y229389*
Y228316*
X339369Y227779*
X340107Y227242*
X340845Y226974*
X345275Y224558D02*
X345644Y224021D01*
X346751Y223215*
X339000*
G54D137*
X351298Y199000D02*
G03X351298I-26798J0D01*
G01X151539Y115020D02*
Y135098D01*
X201539*
Y115020*
X185004*
X151539Y114626D02*
X168469D01*
G54D185*
X162900Y240200D02*
G03X162900I-500J0D01*
G01X247500Y114000D02*
G03X247500I-500J0D01*
G54D301*
G01X318841Y163460D02*
X329913D01*
X324377Y159433D02*
Y167486D01*
Y230496D02*
Y238549D01*
G54D302*
X308173Y140413D02*
G03X308173I-393J0D01*
G01X123794Y248950D02*
X121431D01*
X120250Y247769*
Y243044*
X108833*
Y247769*
X107652Y248950*
X105290*
Y256430*
X107652*
X108833Y257611*
Y261942*
X120250*
Y258005*
X121825Y256430*
X124187*
Y248950*
X123794*
G54D424*
X243207Y270000D02*
G03X243207I-707J0D01*
G74*
G01X0Y0D02*
M02*
